<?xml version="1.0" encoding="utf-8"?>
<!-- Generator: Adobe Illustrator 16.0.0, SVG Export Plug-In . SVG Version: 6.00 Build 0)  -->
<!DOCTYPE svg PUBLIC "-//W3C//DTD SVG 1.1//EN" "http://www.w3.org/Graphics/SVG/1.1/DTD/svg11.dtd">
<svg version="1.1" id="Capa_1" xmlns="http://www.w3.org/2000/svg" xmlns:xlink="http://www.w3.org/1999/xlink" x="0px" y="0px"
	 width="400px" height="449.96px" viewBox="0 0 400 449.96" enable-background="new 0 0 400 449.96" xml:space="preserve">
<path fill="#FFFFFF" d="M200.18,119.451c-0.087,0-0.173,0-0.258-0.002c-1.961-0.078-3.802-0.965-5.083-2.451l-8.198-9.522h-53.426
	c-5.277-0.01-9.555-4.286-9.563-9.563V9.559c0-5.272,4.302-9.562,9.563-9.562h133.58c5.27,0,9.56,4.3,9.56,9.562v88.354
	c0,5.27-4.288,9.563-9.56,9.563h-51.716l-9.917,9.914c-1.325,1.318-3.117,2.059-4.987,2.061 M133.21,7.591
	c-1.08,0.013-1.952,0.885-1.965,1.965V97.91c0,1.065,0.896,1.967,1.965,1.967h53.68c2.054-0.001,4.005,0.894,5.344,2.451l7.979,9.27
	l9.655-9.658c1.335-1.332,3.104-2.063,4.984-2.063h51.942c1.063,0,1.964-0.9,1.964-1.967V9.555c0-1.066-0.9-1.965-1.964-1.965
	l-133.58,0.001H133.21z"/>
<path fill="#96DAD4" d="M165.86,86.117h-12.965v-64.23h12.965v27.528h14.732V21.887h13.2v64.23h-13.2V58.59H165.86V86.117z
	 M206.16,21.887h12.964v64.23H206.16V21.887z M233.145,71.894l-1.646-23.213V21.888h12.966v26.793l-1.65,23.213H233.145
	L233.145,71.894z M244.225,86.117h-12.49v-9.726h12.49V86.117z"/>
<path fill="#FF0048" d="M400,260.271l-99.973,76.544l-99.97-76.544l-99.972,76.544l-99.97-76.544v-87.15l99.97,76.541l99.972-76.541
	l99.97,76.541L400,173.121V260.271z"/>
<path fill="#FF0048" d="M400,373.421l-99.972,76.539l-99.97-76.539l-99.972,76.539l-99.97-76.539v-87.153l99.97,76.54l99.972-76.54
	l99.97,76.54L400,286.268V373.421L400,373.421z"/>
</svg>
