<svg xmlns="http://www.w3.org/2000/svg" width="400" height="400"><path d="M333.452 327.18c7.27.002 13.16 5.917 13.12 13.2a13.12 13.12 0 0 1-13.225 13.038 13.11 13.11 0 0 1-13.018-13.116 13.12 13.12 0 0 1 13.124-13.121m0 25.313c6.742-.007 12.193-5.462 12.2-12.204a12.19 12.19 0 0 0-12.199-12.184c-6.777 0-12.25 5.536-12.2 12.307.06 6.624 5.453 12.08 12.2 12.08m-6.175-19.876h5.902c.7 0 1.4.05 2.093.175.556.103 1.1.258 1.606.518a3.14 3.14 0 0 1 1.685 2.144 5.22 5.22 0 0 1 .092 1.937c-.096.754-.382 1.432-.92 1.987a3.69 3.69 0 0 1-1.146.798c-.2.094-.43.173-.646.258-.018.007-.033.016-.063.03l.313.1c.53.193.94.543 1.298.97.384.458.687.97.95 1.503l2.107 4.266c.007.012.01.025.02.048h-.105H336.635c-.078 0-.116-.024-.15-.095l-1.325-2.7-.525-1.063c-.168-.327-.363-.637-.594-.924-.363-.446-.832-.697-1.395-.762-.29-.03-.58-.025-.872-.03-.23-.006-.467 0-.707 0v5.568h-3.79v-14.727zm3.794 2.75l-.005.076-.002 3.623c0 .07.022.1.092.1l1.572-.002c.354-.003.7-.036 1.047-.133.558-.16.92-.51 1.054-1.086.11-.478.11-.955-.012-1.43s-.428-.798-.9-.962c-.356-.13-.725-.173-1.1-.175l-1.755-.002z" fill="#B71351"/></svg>