<svg xmlns="http://www.w3.org/2000/svg" width="400" height="400"><path d="M200.175 239.727c-.087 0-.173 0-.258-.003a7.08 7.08 0 0 1-5.083-2.45l-8.198-9.523H133.21a9.58 9.58 0 0 1-9.562-9.564v-88.354c0-5.272 4.3-9.562 9.562-9.562h133.585c5.27 0 9.56 4.3 9.56 9.562v88.354c0 5.27-4.288 9.564-9.56 9.564h-51.716l-9.917 9.914a7.08 7.08 0 0 1-4.986 2.062m-66.966-111.86a1.99 1.99 0 0 0-1.965 1.965v88.354c0 1.065.898 1.967 1.965 1.967h53.68a7.04 7.04 0 0 1 5.344 2.45l7.977 9.27 9.655-9.658c1.335-1.332 3.106-2.063 4.987-2.063h51.942c1.064 0 1.964-.9 1.964-1.967V129.83c0-1.066-.9-1.965-1.964-1.965H133.21z" fill="#fff"/><path d="M165.86 206.388h-12.965v-64.23h12.965v27.528h14.732v-27.528h13.2v64.23h-13.2v-27.526H165.86zm40.3-64.23h12.964v64.23H206.16zm26.985 50.007l-1.647-23.213v-26.793h12.966v26.793l-1.65 23.213h-9.67zm11.08 14.224h-12.49v-9.726h12.49v9.726z" fill="#96DAD4"/></svg>