<?xml version="1.0" encoding="utf-8"?>
<!-- Generator: Adobe Illustrator 16.0.0, SVG Export Plug-In . SVG Version: 6.00 Build 0)  -->
<!DOCTYPE svg PUBLIC "-//W3C//DTD SVG 1.1//EN" "http://www.w3.org/Graphics/SVG/1.1/DTD/svg11.dtd">
<svg version="1.1" id="Capa_1" xmlns="http://www.w3.org/2000/svg" xmlns:xlink="http://www.w3.org/1999/xlink" x="0px" y="0px"
	 width="400px" height="114.667px" viewBox="0 0 400 114.667" enable-background="new 0 0 400 114.667" xml:space="preserve">
<g id="Capa_1_1_" display="none">
	<rect x="0" display="inline" width="400" height="114.667"/>
</g>
<g id="Capa_2">
	<g>
		<path fill="#FFFFFF" d="M95.056,37.819c-0.688,1.632-1.664,3.047-2.926,4.246c-1.261,1.198-2.768,2.142-4.513,2.831
			c-1.746,0.689-3.667,1.033-5.758,1.033H71.418V19.153h10.44c2.091,0,4.012,0.338,5.758,1.013c1.745,0.676,3.251,1.613,4.513,2.812
			c1.263,1.199,2.237,2.607,2.926,4.227s1.033,3.373,1.033,5.26v0.077C96.089,34.429,95.744,36.188,95.056,37.819z M89.93,32.541
			c0-1.173-0.197-2.257-0.594-3.251c-0.396-0.995-0.942-1.849-1.645-2.563c-0.703-0.714-1.55-1.268-2.544-1.664
			s-2.091-0.593-3.29-0.593h-4.55v16.14h4.55c1.199,0,2.295-0.191,3.29-0.573c0.995-0.383,1.843-0.931,2.544-1.645
			c0.701-0.713,1.248-1.555,1.645-2.524c0.396-0.969,0.594-2.053,0.594-3.251V32.541z"/>
		<path fill="#FFFFFF" d="M101.597,45.928V19.153h5.891v26.775H101.597z"/>
		<path fill="#FFFFFF" d="M132.814,41.549c-0.481,1.033-1.15,1.9-2.015,2.601c-0.861,0.702-1.889,1.237-3.083,1.606
			c-1.195,0.37-2.52,0.555-3.972,0.555c-2.04,0-4.042-0.351-6.006-1.052c-1.963-0.701-3.746-1.778-5.354-3.232l3.479-4.169
			c1.226,0.995,2.479,1.786,3.771,2.372c1.288,0.586,2.697,0.88,4.227,0.88c1.226,0,2.176-0.223,2.853-0.67
			c0.675-0.446,1.012-1.064,1.012-1.855v-0.077c0-0.383-0.07-0.72-0.211-1.014c-0.141-0.293-0.408-0.567-0.804-0.822
			c-0.397-0.254-0.946-0.51-1.649-0.765c-0.704-0.254-1.618-0.522-2.742-0.803c-1.356-0.332-2.583-0.701-3.682-1.109
			c-1.099-0.407-2.034-0.911-2.799-1.511c-0.769-0.599-1.363-1.345-1.785-2.238c-0.421-0.892-0.633-2.001-0.633-3.328v-0.076
			c0-1.224,0.229-2.327,0.686-3.31c0.456-0.98,1.097-1.829,1.918-2.543c0.824-0.714,1.808-1.262,2.95-1.645
			c1.144-0.382,2.404-0.574,3.78-0.574c1.963,0,3.768,0.293,5.413,0.88c1.644,0.586,3.154,1.429,4.533,2.524l-3.062,4.437
			c-1.2-0.815-2.372-1.459-3.519-1.931c-1.147-0.472-2.295-0.708-3.442-0.708c-1.148,0-2.008,0.224-2.582,0.67
			c-0.574,0.446-0.86,1.001-0.86,1.665v0.076c0,0.434,0.083,0.81,0.249,1.129c0.164,0.319,0.466,0.606,0.901,0.861
			c0.434,0.255,1.028,0.497,1.783,0.727c0.755,0.229,1.708,0.498,2.856,0.804c1.354,0.357,2.563,0.759,3.624,1.205
			c1.062,0.446,1.958,0.981,2.686,1.606c0.729,0.625,1.277,1.358,1.648,2.199s0.556,1.849,0.556,3.021v0.077
			C133.535,39.336,133.295,40.516,132.814,41.549z"/>
		<path fill="#FFFFFF" d="M138.661,45.928V19.153h20.157v5.24h-14.344v5.431h12.624v5.24h-12.624v5.623h14.536v5.24h-20.35V45.928z"
			/>
		<path fill="#FFFFFF" d="M183.069,45.928l-12.966-17.021v17.021h-5.813V19.153h5.431l12.546,16.486V19.153h5.813v26.775H183.069z
			 M182.362,15.616c-0.701,0.956-1.716,1.435-3.042,1.435c-0.585,0-1.151-0.077-1.701-0.229c-0.55-0.153-1.065-0.325-1.55-0.516
			c-0.482-0.191-0.937-0.363-1.357-0.516s-0.797-0.229-1.129-0.229c-0.585,0-1.027,0.16-1.319,0.479
			c-0.293,0.319-0.58,0.784-0.86,1.396l-3.099-0.959c0.231-0.79,0.479-1.511,0.746-2.161c0.268-0.65,0.587-1.205,0.956-1.665
			c0.371-0.459,0.804-0.816,1.301-1.071c0.498-0.254,1.077-0.382,1.74-0.382c0.586,0,1.154,0.077,1.702,0.229
			c0.549,0.153,1.063,0.325,1.549,0.516c0.481,0.191,0.931,0.363,1.339,0.517c0.407,0.152,0.79,0.229,1.147,0.229
			c0.587,0,1.026-0.159,1.319-0.478c0.294-0.319,0.581-0.784,0.862-1.397l3.098,0.957C183.63,13.377,183.063,14.659,182.362,15.616z
			"/>
		<path fill="#FFFFFF" d="M220.707,37.915c-0.715,1.67-1.702,3.136-2.965,4.398c-1.263,1.263-2.768,2.257-4.515,2.984
			c-1.748,0.727-3.653,1.09-5.719,1.09c-2.066,0-3.966-0.364-5.7-1.09c-1.733-0.727-3.231-1.708-4.494-2.945
			c-1.261-1.237-2.244-2.69-2.945-4.361c-0.701-1.67-1.053-3.462-1.053-5.375v-0.075c0-1.913,0.359-3.704,1.073-5.374
			s1.702-3.137,2.963-4.398c1.262-1.263,2.769-2.257,4.516-2.984c1.745-0.727,3.651-1.09,5.718-1.09s3.966,0.364,5.7,1.09
			c1.732,0.727,3.23,1.708,4.492,2.945c1.264,1.238,2.243,2.691,2.946,4.361c0.7,1.67,1.052,3.461,1.052,5.374v0.077
			C221.779,34.454,221.42,36.245,220.707,37.915z M215.619,32.541c0-1.148-0.195-2.231-0.593-3.251
			c-0.396-1.02-0.957-1.913-1.682-2.678c-0.727-0.765-1.588-1.37-2.582-1.816c-0.994-0.446-2.078-0.67-3.252-0.67
			c-1.197,0-2.287,0.217-3.27,0.65c-0.982,0.434-1.824,1.033-2.524,1.798c-0.702,0.765-1.252,1.651-1.647,2.658
			c-0.395,1.008-0.593,2.084-0.593,3.232v0.077c0,1.147,0.198,2.231,0.593,3.251c0.396,1.02,0.957,1.913,1.684,2.677
			c0.726,0.766,1.579,1.372,2.563,1.817c0.981,0.446,2.072,0.669,3.271,0.669c1.173,0,2.257-0.216,3.251-0.65
			c0.995-0.434,1.843-1.033,2.544-1.798c0.702-0.765,1.249-1.651,1.646-2.658c0.396-1.007,0.593-2.085,0.593-3.232L215.619,32.541
			L215.619,32.541z"/>
		<path fill="#FFFFFF" d="M62.199,95.003c-0.74,0.586-1.551,1.088-2.428,1.51c-0.88,0.42-1.843,0.74-2.888,0.957
			c-1.044,0.216-2.218,0.324-3.519,0.324c-1.967,0-3.787-0.357-5.472-1.07c-1.682-0.713-3.135-1.688-4.359-2.926
			c-1.224-1.236-2.18-2.697-2.869-4.381c-0.688-1.683-1.033-3.479-1.033-5.394v-0.075c0-1.912,0.345-3.703,1.033-5.373
			c0.689-1.672,1.646-3.139,2.869-4.4c1.225-1.262,2.689-2.256,4.397-2.984c1.71-0.727,3.596-1.088,5.661-1.088
			c1.25,0,2.392,0.102,3.423,0.305c1.033,0.204,1.97,0.484,2.813,0.842s1.619,0.791,2.333,1.299
			c0.713,0.513,1.377,1.072,1.988,1.684l-3.747,4.321c-1.046-0.941-2.109-1.683-3.194-2.218c-1.083-0.537-2.303-0.803-3.652-0.803
			c-1.123,0-2.161,0.217-3.117,0.65c-0.956,0.436-1.778,1.033-2.466,1.799c-0.689,0.764-1.225,1.65-1.608,2.657
			c-0.383,1.009-0.573,2.085-0.573,3.231v0.078c0,1.146,0.19,2.23,0.573,3.252c0.383,1.02,0.911,1.911,1.588,2.674
			c0.675,0.767,1.491,1.373,2.447,1.819c0.957,0.444,2.009,0.668,3.155,0.668c1.53,0,2.824-0.278,3.882-0.842
			c1.06-0.56,2.108-1.324,3.155-2.293l3.749,3.786C63.653,93.753,62.939,94.417,62.199,95.003z"/>
		<path fill="#FFFFFF" d="M95.246,89.322c-0.714,1.672-1.702,3.137-2.963,4.399c-1.263,1.262-2.768,2.257-4.516,2.983
			c-1.747,0.727-3.652,1.09-5.718,1.09c-2.067,0-3.966-0.363-5.699-1.09c-1.734-0.727-3.231-1.709-4.495-2.945
			c-1.263-1.236-2.244-2.689-2.944-4.361c-0.702-1.668-1.053-3.46-1.053-5.373v-0.076c0-1.912,0.357-3.703,1.071-5.373
			c0.713-1.671,1.702-3.138,2.964-4.398c1.262-1.262,2.768-2.258,4.514-2.985c1.748-0.726,3.654-1.088,5.72-1.088
			c2.064,0,3.965,0.362,5.699,1.088c1.733,0.728,3.231,1.711,4.494,2.946c1.262,1.236,2.244,2.689,2.945,4.361
			c0.702,1.67,1.053,3.459,1.053,5.373v0.076C96.319,85.861,95.96,87.654,95.246,89.322z M90.16,83.949
			c0-1.148-0.199-2.23-0.595-3.252c-0.395-1.019-0.956-1.912-1.683-2.676c-0.726-0.764-1.585-1.371-2.581-1.816
			s-2.078-0.67-3.251-0.67c-1.199,0-2.289,0.217-3.272,0.65c-0.979,0.434-1.822,1.033-2.523,1.798
			c-0.702,0.765-1.249,1.649-1.645,2.658c-0.397,1.009-0.594,2.083-0.594,3.231v0.078c0,1.147,0.196,2.229,0.594,3.25
			c0.396,1.021,0.956,1.911,1.683,2.676c0.727,0.766,1.581,1.371,2.563,1.817c0.98,0.446,2.072,0.671,3.271,0.671
			c1.172,0,2.257-0.218,3.251-0.652c0.995-0.433,1.842-1.031,2.542-1.797c0.702-0.766,1.251-1.649,1.646-2.658
			c0.396-1.008,0.594-2.084,0.594-3.232V83.949L90.16,83.949z"/>
		<path fill="#FFFFFF" d="M122.518,97.335V79.856l-7.535,11.437h-0.153l-7.458-11.321v17.366h-5.814V70.562h6.351l7.037,11.32
			l7.037-11.32h6.352v26.775L122.518,97.335L122.518,97.335z"/>
		<path fill="#FFFFFF" d="M156.849,90.988c-0.55,1.504-1.333,2.758-2.354,3.768c-1.021,1.009-2.256,1.759-3.71,2.256
			c-1.454,0.498-3.071,0.746-4.858,0.746c-3.594,0-6.426-0.993-8.49-2.982c-2.066-1.99-3.1-4.96-3.1-8.913v-15.3h5.89v15.146
			c0,2.191,0.511,3.844,1.531,4.953c1.018,1.108,2.433,1.664,4.245,1.664c1.812,0,3.227-0.537,4.246-1.607s1.531-2.676,1.531-4.819
			V70.562h5.891v15.107C157.671,87.71,157.396,89.482,156.849,90.988z"/>
		<path fill="#FFFFFF" d="M182.457,97.335l-12.967-17.02v17.021h-5.815V70.562h5.433l12.546,16.484V70.562h5.813v26.773H182.457z"/>
		<path fill="#FFFFFF" d="M194.161,97.335V70.562h5.893v26.773H194.161z"/>
		<path fill="#FFFFFF" d="M228.127,95.003c-0.74,0.586-1.548,1.088-2.428,1.51c-0.88,0.42-1.843,0.74-2.889,0.957
			c-1.044,0.216-2.216,0.324-3.519,0.324c-1.966,0-3.787-0.357-5.472-1.07c-1.682-0.713-3.136-1.688-4.36-2.926
			c-1.224-1.236-2.179-2.697-2.869-4.381c-0.688-1.683-1.033-3.479-1.033-5.394v-0.075c0-1.912,0.346-3.703,1.033-5.373
			c0.69-1.672,1.646-3.139,2.869-4.4c1.225-1.262,2.688-2.256,4.397-2.984c1.71-0.727,3.597-1.088,5.661-1.088
			c1.251,0,2.393,0.102,3.424,0.305c1.032,0.204,1.971,0.484,2.812,0.842c0.842,0.357,1.62,0.791,2.333,1.299
			c0.715,0.513,1.377,1.072,1.99,1.684l-3.747,4.321c-1.046-0.941-2.11-1.683-3.196-2.218c-1.082-0.537-2.301-0.803-3.652-0.803
			c-1.123,0-2.161,0.217-3.116,0.65c-0.957,0.436-1.779,1.033-2.466,1.799c-0.69,0.764-1.225,1.65-1.608,2.657
			c-0.382,1.009-0.573,2.085-0.573,3.231v0.078c0,1.146,0.191,2.23,0.573,3.252c0.383,1.02,0.912,1.911,1.588,2.674
			c0.675,0.767,1.492,1.373,2.448,1.819c0.956,0.444,2.008,0.668,3.154,0.668c1.53,0,2.824-0.278,3.883-0.842
			c1.059-0.56,2.107-1.324,3.155-2.293l3.749,3.786C229.579,93.753,228.866,94.417,228.127,95.003z"/>
		<path fill="#FFFFFF" d="M254.901,97.335l-2.446-6.006h-11.322l-2.448,6.006h-6.003l11.475-26.967h5.433l11.475,26.967H254.901z
			 M246.791,77.447l-3.558,8.684h7.114L246.791,77.447z"/>
		<path fill="#FFFFFF" d="M286.571,95.003c-0.738,0.586-1.549,1.088-2.427,1.51c-0.879,0.42-1.842,0.74-2.888,0.957
			c-1.045,0.216-2.217,0.324-3.521,0.324c-1.965,0-3.785-0.357-5.469-1.07s-3.137-1.688-4.363-2.926
			c-1.222-1.236-2.178-2.697-2.867-4.381c-0.688-1.683-1.032-3.479-1.032-5.394v-0.075c0-1.912,0.344-3.703,1.032-5.373
			c0.689-1.672,1.646-3.139,2.867-4.4c1.226-1.262,2.691-2.256,4.401-2.984c1.708-0.727,3.595-1.088,5.659-1.088
			c1.25,0,2.391,0.102,3.424,0.305c1.032,0.204,1.968,0.484,2.812,0.842c0.842,0.357,1.618,0.791,2.334,1.299
			c0.713,0.513,1.377,1.072,1.987,1.684l-3.748,4.321c-1.044-0.941-2.108-1.683-3.192-2.218c-1.083-0.537-2.303-0.803-3.654-0.803
			c-1.12,0-2.16,0.217-3.117,0.65c-0.955,0.436-1.777,1.033-2.465,1.799c-0.689,0.764-1.225,1.65-1.608,2.657
			c-0.381,1.009-0.572,2.085-0.572,3.231v0.078c0,1.146,0.192,2.23,0.572,3.252c0.384,1.02,0.911,1.911,1.589,2.674
			c0.675,0.767,1.49,1.373,2.447,1.819c0.956,0.444,2.009,0.668,3.154,0.668c1.533,0,2.824-0.278,3.883-0.842
			c1.06-0.56,2.108-1.324,3.156-2.293l3.748,3.786C288.024,93.753,287.311,94.417,286.571,95.003z"/>
		<path fill="#FFFFFF" d="M293.686,97.335V70.562h5.891v26.773H293.686z"/>
		<path fill="#FFFFFF" d="M332.471,89.322c-0.715,1.672-1.703,3.137-2.965,4.399c-1.261,1.262-2.769,2.257-4.515,2.983
			c-1.747,0.727-3.651,1.09-5.719,1.09s-3.965-0.363-5.699-1.09c-1.732-0.727-3.232-1.709-4.494-2.945s-2.245-2.689-2.944-4.361
			c-0.701-1.668-1.053-3.46-1.053-5.373v-0.076c0-1.912,0.356-3.703,1.071-5.373c0.713-1.671,1.702-3.138,2.965-4.398
			c1.261-1.262,2.768-2.258,4.514-2.985c1.749-0.726,3.652-1.088,5.72-1.088s3.966,0.362,5.699,1.088
			c1.733,0.728,3.231,1.711,4.494,2.946c1.262,1.236,2.243,2.689,2.945,4.361c0.7,1.67,1.051,3.459,1.051,5.373v0.076
			C333.54,85.861,333.184,87.654,332.471,89.322z M327.384,83.949c0-1.148-0.197-2.23-0.593-3.252
			c-0.396-1.019-0.956-1.912-1.685-2.676c-0.725-0.764-1.585-1.371-2.581-1.816c-0.995-0.445-2.077-0.67-3.25-0.67
			c-1.198,0-2.289,0.217-3.271,0.65c-0.98,0.434-1.823,1.033-2.523,1.798c-0.701,0.765-1.25,1.649-1.646,2.658
			c-0.397,1.009-0.594,2.083-0.594,3.231v0.078c0,1.147,0.195,2.229,0.594,3.25c0.396,1.021,0.956,1.911,1.682,2.676
			c0.727,0.766,1.581,1.371,2.563,1.817c0.982,0.446,2.073,0.671,3.272,0.671c1.173,0,2.255-0.218,3.251-0.652
			c0.995-0.433,1.843-1.031,2.542-1.797c0.701-0.766,1.251-1.649,1.646-2.658c0.395-1.008,0.593-2.084,0.593-3.232V83.949
			L327.384,83.949z M317.245,68.458l4.322-6.771l5.012,2.181l-4.896,4.59H317.245L317.245,68.458z"/>
		<path fill="#FFFFFF" d="M357.563,97.335l-12.966-17.021v17.021h-5.815V70.562h5.434l12.546,16.484V70.562h5.813v26.773H357.563z"
			/>
	</g>
	<g>
		<rect x="71.461" y="51.974" fill="#FFFFFF" width="122.7" height="13.363"/>
	</g>
	<g>
		<path fill="#FFFFFF" d="M209.054,60.347v5.455h-3.011v-5.396l-5.26-8.289h3.52l3.266,5.493l3.323-5.493h3.421L209.054,60.347z"/>
	</g>
</g>
<polygon fill="#FFFFFF" points="369.551,70.705 375.727,70.705 386.949,84.25 375.727,97.793 369.551,97.794 380.774,84.25 "/>
<polygon fill="#FFFFFF" points="378.25,70.705 384.426,70.705 395.649,84.25 384.426,97.793 378.25,97.794 389.473,84.25 "/>
</svg>
