<?xml version="1.0" encoding="utf-8"?>
<!-- Generator: Adobe Illustrator 16.0.0, SVG Export Plug-In . SVG Version: 6.00 Build 0)  -->
<!DOCTYPE svg PUBLIC "-//W3C//DTD SVG 1.1//EN" "http://www.w3.org/Graphics/SVG/1.1/DTD/svg11.dtd">
<svg version="1.1" id="Capa_1" xmlns="http://www.w3.org/2000/svg" xmlns:xlink="http://www.w3.org/1999/xlink" x="0px" y="0px"
	 width="400px" height="114.667px" viewBox="0 0 400 114.667" enable-background="new 0 0 400 114.667" xml:space="preserve">
<g>
	<rect x="49.131" y="81.787" fill="#FFFFFF" width="207.366" height="14.947"/>
</g>
<polygon fill="#FFFFFF" points="368.524,47.942 374.698,47.942 385.922,61.487 374.698,75.031 368.524,75.033 379.746,61.487 "/>
<polygon fill="#FFFFFF" points="377.223,47.942 383.399,47.942 394.621,61.487 383.399,75.031 377.223,75.033 388.445,61.487 "/>
<g>
	<path fill="#FFFFFF" d="M49.007,43.238V24.322h14.241v3.702H53.114v3.837h8.917v3.701h-8.917v3.973h10.269v3.702H49.007z"/>
	<path fill="#FFFFFF" d="M89.784,43.373h-3.675l-7.647-19.051h4.593L88,37.645l4.945-13.322h4.486L89.784,43.373z"/>
	<path fill="#FFFFFF" d="M113.322,43.238V24.322h14.241v3.702h-10.133v3.837h8.917v3.701h-8.917v3.973h10.269v3.702H113.322z"/>
	<path fill="#FFFFFF" d="M157.665,43.238l-9.161-12.025v12.025h-4.107V24.322h3.837l8.864,11.646V24.322h4.107v18.916H157.665z"/>
	<path fill="#FFFFFF" d="M187.282,28.16v15.078h-4.161V28.16h-5.756v-3.837h15.673v3.837H187.282z"/>
	<path fill="#FFFFFF" d="M227.709,37.576c-0.505,1.181-1.203,2.217-2.094,3.108c-0.894,0.892-1.955,1.595-3.189,2.107
		c-1.234,0.514-2.581,0.771-4.04,0.771c-1.46,0-2.801-0.257-4.026-0.771c-1.226-0.512-2.285-1.206-3.176-2.081
		c-0.893-0.873-1.585-1.9-2.08-3.081c-0.496-1.179-0.743-2.446-0.743-3.796v-0.055c0-1.35,0.252-2.616,0.757-3.796
		c0.504-1.179,1.203-2.216,2.094-3.107c0.893-0.892,1.955-1.595,3.188-2.108c1.233-0.514,2.582-0.77,4.04-0.77
		c1.46,0,2.802,0.256,4.026,0.77c1.225,0.513,2.284,1.207,3.176,2.082c0.892,0.874,1.585,1.9,2.08,3.08
		c0.495,1.181,0.743,2.445,0.743,3.797v0.054C228.465,35.131,228.212,36.396,227.709,37.576z M224.115,33.779
		c0-0.81-0.141-1.576-0.42-2.297c-0.279-0.72-0.676-1.35-1.188-1.891c-0.514-0.54-1.122-0.968-1.824-1.283
		c-0.703-0.315-1.47-0.473-2.297-0.473c-0.847,0-1.618,0.152-2.311,0.458c-0.694,0.307-1.288,0.73-1.784,1.271
		c-0.495,0.54-0.883,1.167-1.162,1.878s-0.418,1.472-0.418,2.283v0.054c0,0.812,0.139,1.577,0.418,2.297
		c0.279,0.721,0.677,1.351,1.189,1.892c0.514,0.54,1.117,0.969,1.811,1.283c0.694,0.315,1.464,0.473,2.311,0.473
		c0.829,0,1.594-0.153,2.298-0.459c0.701-0.306,1.301-0.729,1.797-1.27c0.495-0.54,0.882-1.166,1.161-1.878
		c0.279-0.711,0.42-1.472,0.42-2.283V33.779z"/>
	<path fill="#FFFFFF" d="M258.303,40.144c-0.341,0.73-0.815,1.343-1.423,1.837c-0.609,0.496-1.335,0.875-2.179,1.135
		c-0.845,0.262-1.779,0.393-2.807,0.393c-1.442,0-2.856-0.249-4.242-0.743c-1.388-0.496-2.647-1.257-3.784-2.284l2.461-2.946
		c0.864,0.703,1.75,1.261,2.66,1.676c0.911,0.415,1.905,0.621,2.986,0.621c0.864,0,1.535-0.157,2.013-0.473
		c0.478-0.314,0.717-0.752,0.717-1.311v-0.054c0-0.271-0.051-0.508-0.149-0.716c-0.099-0.207-0.288-0.4-0.569-0.581
		c-0.279-0.18-0.669-0.36-1.164-0.541c-0.496-0.179-1.144-0.369-1.938-0.567c-0.958-0.234-1.825-0.495-2.602-0.784
		c-0.778-0.288-1.436-0.644-1.979-1.067c-0.541-0.423-0.961-0.95-1.258-1.581c-0.3-0.63-0.449-1.414-0.449-2.351v-0.054
		c0-0.865,0.161-1.644,0.484-2.337c0.32-0.694,0.773-1.293,1.354-1.798c0.583-0.504,1.277-0.892,2.085-1.161
		c0.807-0.271,1.697-0.406,2.67-0.406c1.387,0,2.663,0.208,3.824,0.621c1.163,0.415,2.229,1.009,3.201,1.784l-2.161,3.135
		c-0.847-0.576-1.676-1.031-2.485-1.365c-0.812-0.333-1.621-0.5-2.433-0.5c-0.811,0-1.418,0.158-1.825,0.473
		c-0.404,0.315-0.606,0.708-0.606,1.176v0.054c0,0.306,0.06,0.572,0.176,0.797c0.116,0.226,0.33,0.428,0.638,0.608
		c0.306,0.18,0.726,0.351,1.258,0.513c0.534,0.162,1.207,0.351,2.019,0.567c0.959,0.252,1.813,0.536,2.563,0.851
		c0.75,0.316,1.381,0.694,1.896,1.135c0.515,0.442,0.904,0.959,1.166,1.554c0.262,0.595,0.394,1.307,0.394,2.135v0.054
		C258.814,38.581,258.642,39.414,258.303,40.144z"/>
	<path fill="#FFFFFF" d="M287.254,38.809v4.753h-2.624V38.86l-4.583-7.224h3.068l2.846,4.789l2.896-4.789h2.981L287.254,38.809z"/>
	<path fill="#FFFFFF" d="M11.621,73.295V47.286h19.582v5.09H17.269v5.277h12.262v5.09H17.269v5.462h14.12v5.091H11.621z"/>
	<path fill="#FFFFFF" d="M58.703,69.042c-0.468,1.002-1.12,1.845-1.957,2.526c-0.837,0.682-1.835,1.202-2.996,1.561
		c-1.161,0.358-2.447,0.538-3.858,0.538c-1.982,0-3.927-0.341-5.834-1.021c-1.908-0.682-3.641-1.729-5.201-3.14l3.381-4.05
		c1.189,0.965,2.409,1.733,3.66,2.304c1.25,0.569,2.619,0.854,4.106,0.854c1.188,0,2.111-0.217,2.768-0.65
		c0.656-0.434,0.984-1.034,0.984-1.802v-0.075c0-0.371-0.068-0.699-0.205-0.984c-0.137-0.284-0.397-0.551-0.782-0.799
		c-0.385-0.248-0.919-0.495-1.602-0.743c-0.683-0.247-1.571-0.507-2.664-0.78c-1.317-0.322-2.509-0.681-3.577-1.077
		c-1.068-0.396-1.974-0.885-2.719-1.468c-0.745-0.582-1.323-1.307-1.732-2.175c-0.41-0.866-0.615-1.943-0.615-3.232v-0.074
		c0-1.19,0.221-2.261,0.664-3.214c0.443-0.954,1.064-1.777,1.864-2.471c0.8-0.694,1.755-1.228,2.866-1.598
		c1.11-0.372,2.334-0.558,3.672-0.558c1.907,0,3.66,0.285,5.257,0.854c1.598,0.569,3.066,1.387,4.403,2.452l-2.973,4.311
		c-1.165-0.793-2.304-1.417-3.418-1.876s-2.229-0.688-3.344-0.688c-1.115,0-1.951,0.218-2.508,0.651
		c-0.558,0.434-0.836,0.972-0.836,1.617v0.074c0,0.422,0.081,0.787,0.242,1.096c0.162,0.31,0.453,0.589,0.876,0.835
		c0.422,0.249,1,0.484,1.732,0.707c0.733,0.222,1.658,0.483,2.776,0.78c1.316,0.347,2.49,0.738,3.521,1.171
		c1.031,0.433,1.9,0.953,2.608,1.56c0.708,0.607,1.242,1.318,1.602,2.137c0.36,0.817,0.541,1.797,0.541,2.935v0.075
		C59.405,66.892,59.171,68.038,58.703,69.042z"/>
	<path fill="#FFFFFF" d="M88.238,60.328c-0.545,1.14-1.294,2.094-2.248,2.861s-2.069,1.344-3.344,1.728
		c-1.276,0.384-2.645,0.576-4.106,0.576h-4.347v7.803H68.47V47.286h10.627c1.561,0,2.954,0.217,4.18,0.65
		c1.227,0.433,2.267,1.047,3.121,1.839c0.855,0.793,1.511,1.741,1.969,2.842c0.458,1.102,0.688,2.322,0.688,3.66v0.075
		C89.055,57.863,88.782,59.189,88.238,60.328z M83.259,56.39c0-1.288-0.415-2.268-1.245-2.936c-0.83-0.668-1.963-1.003-3.4-1.003
		h-4.421v7.951h4.533c1.437,0,2.551-0.377,3.344-1.133c0.792-0.756,1.188-1.691,1.188-2.806V56.39z"/>
	<path fill="#FFFFFF" d="M97.379,73.295V47.286h19.582v5.09h-13.934v5.277h12.262v5.09h-12.262v5.462h14.12v5.091H97.379z"/>
	<path fill="#FFFFFF" d="M147.132,71.029c-0.719,0.57-1.505,1.06-2.36,1.467c-0.855,0.409-1.79,0.72-2.806,0.93
		s-2.155,0.316-3.418,0.316c-1.908,0-3.678-0.348-5.313-1.041s-3.047-1.641-4.235-2.843c-1.189-1.2-2.119-2.619-2.787-4.254
		c-0.669-1.636-1.003-3.382-1.003-5.239v-0.074c0-1.857,0.334-3.598,1.003-5.221c0.668-1.622,1.598-3.047,2.787-4.273
		c1.188-1.226,2.613-2.192,4.273-2.898c1.659-0.706,3.493-1.059,5.499-1.059c1.213,0,2.322,0.099,3.326,0.297
		c1.003,0.199,1.914,0.472,2.731,0.818c0.817,0.348,1.573,0.768,2.267,1.264c0.693,0.496,1.338,1.04,1.932,1.635l-3.641,4.198
		c-1.016-0.916-2.05-1.635-3.103-2.155c-1.053-0.52-2.236-0.779-3.548-0.779c-1.091,0-2.1,0.21-3.029,0.631
		c-0.929,0.421-1.728,1.003-2.396,1.746c-0.668,0.744-1.188,1.604-1.56,2.583c-0.372,0.979-0.558,2.024-0.558,3.14v0.074
		c0,1.115,0.186,2.167,0.558,3.158c0.372,0.99,0.885,1.858,1.542,2.602c0.656,0.742,1.449,1.331,2.378,1.765
		c0.928,0.434,1.951,0.65,3.065,0.65c1.486,0,2.743-0.273,3.771-0.817c1.027-0.546,2.05-1.288,3.065-2.23l3.642,3.68
		C148.543,69.815,147.849,70.459,147.132,71.029z"/>
	<path fill="#FFFFFF" d="M169.648,52.562v20.733h-5.722V52.562h-7.915v-5.276h21.551v5.276H169.648z"/>
	<path fill="#FFFFFF" d="M205.391,73.295l-2.377-5.833h-10.998l-2.378,5.833h-5.833L194.951,47.1h5.276l11.146,26.195H205.391z
		 M197.515,53.974l-3.456,8.435h6.912L197.515,53.974z M195.212,45.242l4.198-6.577l4.868,2.118l-4.755,4.459H195.212z"/>
	<path fill="#FFFFFF" d="M240.245,71.029c-0.719,0.57-1.504,1.06-2.359,1.467c-0.855,0.409-1.79,0.72-2.806,0.93
		c-1.017,0.21-2.155,0.316-3.418,0.316c-1.909,0-3.679-0.348-5.314-1.041c-1.635-0.693-3.047-1.641-4.235-2.843
		c-1.188-1.2-2.119-2.619-2.787-4.254c-0.669-1.636-1.003-3.382-1.003-5.239v-0.074c0-1.857,0.334-3.598,1.003-5.221
		c0.668-1.622,1.599-3.047,2.787-4.273s2.614-2.192,4.273-2.898c1.659-0.706,3.493-1.059,5.499-1.059
		c1.214,0,2.322,0.099,3.324,0.297c1.006,0.199,1.916,0.472,2.731,0.818c0.818,0.348,1.575,0.768,2.268,1.264
		c0.692,0.496,1.337,1.04,1.933,1.635l-3.642,4.198c-1.016-0.916-2.049-1.635-3.103-2.155s-2.236-0.779-3.55-0.779
		c-1.091,0-2.099,0.21-3.028,0.631c-0.928,0.421-1.727,1.003-2.396,1.746c-0.669,0.744-1.188,1.604-1.56,2.583
		c-0.371,0.979-0.559,2.024-0.559,3.14v0.074c0,1.115,0.188,2.167,0.559,3.158c0.372,0.99,0.884,1.858,1.542,2.602
		c0.655,0.742,1.449,1.331,2.377,1.765c0.93,0.434,1.951,0.65,3.065,0.65c1.487,0,2.745-0.273,3.771-0.817
		c1.029-0.546,2.05-1.288,3.065-2.23l3.643,3.68C241.657,69.815,240.962,70.459,240.245,71.029z"/>
	<path fill="#FFFFFF" d="M272.441,67.127c-0.532,1.462-1.295,2.681-2.284,3.66c-0.992,0.979-2.193,1.708-3.604,2.192
		c-1.412,0.482-2.986,0.725-4.72,0.725c-3.492,0-6.241-0.967-8.249-2.898c-2.006-1.933-3.008-4.817-3.008-8.658V47.286h5.722V62
		c0,2.131,0.495,3.734,1.484,4.812c0.992,1.078,2.366,1.616,4.126,1.616c1.759,0,3.134-0.52,4.123-1.56
		c0.992-1.041,1.486-2.601,1.486-4.683V47.286h5.723v14.676C273.24,63.945,272.973,65.667,272.441,67.127z"/>
	<path fill="#FFFFFF" d="M283.161,73.295V47.286h5.721V68.13h12.968v5.165H283.161z"/>
	<path fill="#FFFFFF" d="M335.699,65.511c-0.693,1.622-1.654,3.047-2.879,4.273c-1.228,1.226-2.688,2.191-4.385,2.897
		c-1.698,0.705-3.548,1.06-5.556,1.06c-2.005,0-3.851-0.354-5.535-1.06c-1.685-0.706-3.14-1.659-4.367-2.861
		c-1.225-1.201-2.18-2.612-2.861-4.235c-0.682-1.622-1.021-3.363-1.021-5.221v-0.074c0-1.857,0.346-3.598,1.04-5.221
		c0.693-1.622,1.654-3.047,2.879-4.273c1.228-1.226,2.688-2.192,4.386-2.898c1.695-0.706,3.549-1.059,5.555-1.059
		s3.851,0.353,5.535,1.059c1.685,0.706,3.141,1.661,4.367,2.861c1.226,1.202,2.18,2.614,2.861,4.235
		c0.68,1.623,1.021,3.364,1.021,5.221v0.074C336.74,62.148,336.392,63.888,335.699,65.511z M330.758,60.291
		c0-1.115-0.191-2.167-0.576-3.159c-0.385-0.99-0.929-1.857-1.635-2.601c-0.705-0.744-1.541-1.332-2.509-1.765
		c-0.966-0.433-2.019-0.649-3.158-0.649c-1.163,0-2.223,0.21-3.175,0.631c-0.955,0.421-1.773,1.003-2.455,1.746
		c-0.682,0.744-1.214,1.604-1.596,2.583c-0.386,0.979-0.576,2.024-0.576,3.14v0.074c0,1.115,0.19,2.167,0.576,3.158
		c0.382,0.99,0.928,1.858,1.634,2.602c0.706,0.742,1.537,1.331,2.489,1.765c0.954,0.434,2.012,0.65,3.178,0.65
		c1.139,0,2.192-0.211,3.158-0.632c0.965-0.421,1.79-1.004,2.472-1.747c0.68-0.742,1.212-1.604,1.597-2.582s0.576-2.025,0.576-3.14
		V60.291z"/>
	<path fill="#FFFFFF" d="M364.018,69.042c-0.469,1.002-1.12,1.845-1.958,2.526c-0.835,0.682-1.834,1.202-2.995,1.561
		s-2.445,0.538-3.857,0.538c-1.983,0-3.927-0.341-5.834-1.021c-1.909-0.682-3.642-1.729-5.203-3.14l3.383-4.05
		c1.189,0.965,2.407,1.733,3.659,2.304c1.251,0.569,2.619,0.854,4.105,0.854c1.189,0,2.111-0.217,2.769-0.65
		c0.655-0.434,0.985-1.034,0.985-1.802v-0.075c0-0.371-0.068-0.699-0.204-0.984c-0.139-0.284-0.398-0.551-0.783-0.799
		s-0.919-0.495-1.604-0.743c-0.682-0.247-1.57-0.507-2.663-0.78c-1.317-0.322-2.509-0.681-3.575-1.077
		c-1.069-0.396-1.976-0.885-2.721-1.468c-0.745-0.582-1.321-1.307-1.732-2.175c-0.409-0.866-0.614-1.943-0.614-3.232v-0.074
		c0-1.19,0.22-2.261,0.664-3.214c0.442-0.954,1.064-1.777,1.863-2.471c0.8-0.694,1.755-1.228,2.865-1.598
		c1.11-0.372,2.335-0.558,3.673-0.558c1.906,0,3.659,0.285,5.258,0.854c1.599,0.569,3.065,1.387,4.402,2.452l-2.973,4.311
		c-1.164-0.793-2.303-1.417-3.418-1.876s-2.229-0.688-3.345-0.688c-1.112,0-1.95,0.218-2.507,0.651
		c-0.557,0.434-0.836,0.972-0.836,1.617v0.074c0,0.422,0.079,0.787,0.242,1.096c0.16,0.31,0.453,0.589,0.875,0.835
		c0.422,0.249,1.001,0.484,1.733,0.707c0.731,0.222,1.655,0.483,2.775,0.78c1.314,0.347,2.489,0.738,3.521,1.171
		c1.029,0.433,1.9,0.953,2.608,1.56c0.708,0.607,1.24,1.318,1.601,2.137c0.36,0.817,0.541,1.797,0.541,2.935v0.075
		C364.719,66.892,364.484,68.038,364.018,69.042z"/>
</g>
</svg>
