<?xml version="1.0" encoding="utf-8"?>
<!-- Generator: Adobe Illustrator 16.0.0, SVG Export Plug-In . SVG Version: 6.00 Build 0)  -->
<!DOCTYPE svg PUBLIC "-//W3C//DTD SVG 1.1//EN" "http://www.w3.org/Graphics/SVG/1.1/DTD/svg11.dtd">
<svg version="1.1" id="Capa_1" xmlns="http://www.w3.org/2000/svg" xmlns:xlink="http://www.w3.org/1999/xlink" x="0px" y="0px"
	 width="400px" height="114.667px" viewBox="0 0 400 114.667" enable-background="new 0 0 400 114.667" xml:space="preserve">
<g>
	<path fill="#FFFFFF" d="M13.073,75.803V46.984h21.697v5.641H19.33v5.845h13.586v5.641H19.33v6.052h15.645v5.641H13.073z"/>
	<path fill="#FFFFFF" d="M61.534,71.089c-0.518,1.111-1.241,2.045-2.167,2.8c-0.928,0.755-2.034,1.331-3.319,1.729
		c-1.286,0.397-2.711,0.598-4.275,0.598c-2.196,0-4.35-0.378-6.463-1.133c-2.114-0.754-4.035-1.914-5.764-3.479l3.746-4.487
		c1.317,1.07,2.669,1.921,4.055,2.553c1.386,0.631,2.903,0.946,4.549,0.946c1.317,0,2.34-0.24,3.067-0.721
		c0.727-0.479,1.091-1.146,1.091-1.996v-0.083c0-0.411-0.076-0.774-0.227-1.091c-0.152-0.315-0.44-0.61-0.867-0.885
		c-0.426-0.274-1.018-0.549-1.775-0.823s-1.741-0.563-2.951-0.865c-1.459-0.356-2.78-0.754-3.963-1.193
		c-1.184-0.438-2.188-0.981-3.013-1.626c-0.826-0.645-1.466-1.447-1.92-2.409c-0.454-0.96-0.681-2.154-0.681-3.582V55.26
		c0-1.317,0.245-2.504,0.736-3.562c0.491-1.056,1.179-1.969,2.066-2.737c0.886-0.768,1.944-1.359,3.175-1.771
		c1.23-0.412,2.587-0.618,4.069-0.618c2.113,0,4.055,0.316,5.826,0.947c1.77,0.631,3.396,1.537,4.878,2.717l-3.293,4.776
		c-1.291-0.878-2.553-1.571-3.788-2.079c-1.235-0.507-2.47-0.762-3.706-0.762c-1.235,0-2.161,0.241-2.779,0.721
		c-0.618,0.48-0.926,1.077-0.926,1.791v0.083c0,0.467,0.089,0.872,0.268,1.214c0.179,0.344,0.502,0.652,0.97,0.926
		c0.468,0.275,1.108,0.535,1.919,0.782c0.812,0.247,1.837,0.536,3.076,0.865c1.458,0.385,2.758,0.817,3.901,1.297
		c1.142,0.48,2.104,1.057,2.89,1.729c0.784,0.673,1.376,1.461,1.774,2.367c0.399,0.905,0.599,1.99,0.599,3.252v0.082
		C62.311,68.708,62.052,69.978,61.534,71.089z"/>
	<path fill="#FFFFFF" d="M90.553,61.435c-0.604,1.263-1.435,2.319-2.491,3.17c-1.057,0.852-2.292,1.489-3.705,1.914
		c-1.414,0.427-2.93,0.639-4.549,0.639h-4.817v8.646h-6.34V46.984h11.775c1.729,0,3.273,0.241,4.631,0.721
		c1.358,0.48,2.511,1.16,3.458,2.038c0.947,0.878,1.673,1.928,2.182,3.149c0.508,1.221,0.762,2.573,0.762,4.055v0.082
		C91.459,58.705,91.157,60.173,90.553,61.435z M85.037,57.071c0-1.427-0.46-2.512-1.379-3.252c-0.92-0.741-2.175-1.112-3.767-1.112
		h-4.899v8.81h5.022c1.592,0,2.827-0.418,3.706-1.255c0.878-0.837,1.317-1.874,1.317-3.109V57.071z"/>
	<path fill="#FFFFFF" d="M96.976,75.803V46.984h21.697v5.641h-15.439v5.845h13.586v5.641h-13.586v6.052h15.645v5.641H96.976z"/>
	<path fill="#FFFFFF" d="M148.397,73.292c-0.796,0.632-1.667,1.174-2.614,1.627c-0.947,0.452-1.983,0.796-3.108,1.029
		c-1.126,0.232-2.388,0.35-3.788,0.35c-2.114,0-4.076-0.385-5.887-1.153c-1.812-0.768-3.376-1.817-4.693-3.149
		c-1.317-1.33-2.347-2.902-3.088-4.714c-0.741-1.812-1.111-3.746-1.111-5.805v-0.082c0-2.059,0.371-3.986,1.111-5.785
		c0.741-1.797,1.771-3.375,3.088-4.734c1.317-1.358,2.896-2.429,4.734-3.211c1.838-0.782,3.87-1.173,6.093-1.173
		c1.344,0,2.573,0.11,3.685,0.329c1.111,0.22,2.12,0.522,3.026,0.906c0.906,0.385,1.743,0.851,2.511,1.4
		c0.768,0.549,1.482,1.153,2.141,1.812l-4.035,4.652c-1.126-1.015-2.271-1.812-3.438-2.388c-1.167-0.576-2.478-0.865-3.932-0.865
		c-1.208,0-2.326,0.234-3.355,0.7c-1.029,0.467-1.915,1.111-2.656,1.935c-0.741,0.823-1.317,1.777-1.729,2.861
		c-0.412,1.085-0.618,2.244-0.618,3.479v0.082c0,1.235,0.206,2.401,0.618,3.499c0.412,1.099,0.981,2.059,1.708,2.882
		c0.727,0.823,1.606,1.476,2.635,1.956c1.029,0.48,2.162,0.721,3.396,0.721c1.647,0,3.04-0.302,4.179-0.906
		c1.139-0.604,2.271-1.427,3.396-2.47l4.035,4.075C149.961,71.948,149.192,72.661,148.397,73.292z"/>
	<path fill="#FFFFFF" d="M169.639,52.831v22.973h-6.34V52.831h-8.769v-5.846h23.878v5.846H169.639z"/>
	<path fill="#FFFFFF" d="M205.539,75.803l-2.635-6.464h-12.187l-2.635,6.464h-6.463l12.351-29.024h5.846l12.352,29.024H205.539z
		 M196.811,54.395l-3.829,9.346h7.658L196.811,54.395z M194.259,44.72l4.652-7.287l5.394,2.347l-5.271,4.94H194.259z"/>
	<path fill="#FFFFFF" d="M240.45,73.292c-0.796,0.632-1.667,1.174-2.614,1.627c-0.946,0.452-1.983,0.796-3.108,1.029
		c-1.125,0.232-2.388,0.35-3.787,0.35c-2.114,0-4.076-0.385-5.888-1.153c-1.812-0.768-3.376-1.817-4.693-3.149
		c-1.317-1.33-2.347-2.902-3.087-4.714c-0.741-1.812-1.112-3.746-1.112-5.805v-0.082c0-2.059,0.371-3.986,1.112-5.785
		c0.74-1.797,1.77-3.375,3.087-4.734c1.317-1.358,2.896-2.429,4.735-3.211c1.838-0.782,3.869-1.173,6.093-1.173
		c1.345,0,2.573,0.11,3.685,0.329c1.111,0.22,2.12,0.522,3.026,0.906c0.905,0.385,1.742,0.851,2.511,1.4
		c0.769,0.549,1.482,1.153,2.141,1.812l-4.034,4.652c-1.126-1.015-2.271-1.812-3.438-2.388c-1.167-0.576-2.478-0.865-3.932-0.865
		c-1.208,0-2.326,0.234-3.355,0.7c-1.029,0.467-1.914,1.111-2.655,1.935c-0.741,0.823-1.317,1.777-1.729,2.861
		c-0.411,1.085-0.617,2.244-0.617,3.479v0.082c0,1.235,0.206,2.401,0.617,3.499c0.412,1.099,0.981,2.059,1.709,2.882
		c0.727,0.823,1.605,1.476,2.635,1.956s2.161,0.721,3.396,0.721c1.646,0,3.039-0.302,4.179-0.906
		c1.139-0.604,2.271-1.427,3.396-2.47l4.034,4.075C242.015,71.948,241.246,72.661,240.45,73.292z"/>
	<path fill="#FFFFFF" d="M272.418,68.969c-0.59,1.619-1.435,2.971-2.531,4.055c-1.099,1.085-2.43,1.895-3.994,2.43
		s-3.308,0.803-5.229,0.803c-3.87,0-6.916-1.07-9.14-3.212c-2.223-2.141-3.334-5.338-3.334-9.592V46.984h6.34v16.303
		c0,2.361,0.549,4.138,1.646,5.332c1.098,1.193,2.621,1.79,4.57,1.79c1.948,0,3.472-0.576,4.569-1.729
		c1.098-1.153,1.646-2.882,1.646-5.188V46.984h6.341v16.262C273.304,65.443,273.008,67.35,272.418,68.969z"/>
	<path fill="#FFFFFF" d="M280.59,75.803V46.984h6.341v23.096h14.367v5.723H280.59z"/>
	<path fill="#FFFFFF" d="M335.098,67.178c-0.769,1.798-1.832,3.376-3.19,4.734s-2.979,2.429-4.858,3.211s-3.932,1.174-6.154,1.174
		c-2.224,0-4.269-0.392-6.135-1.174s-3.479-1.838-4.837-3.17c-1.358-1.331-2.416-2.896-3.17-4.693
		c-0.756-1.797-1.133-3.726-1.133-5.784v-0.082c0-2.059,0.385-3.986,1.153-5.785c0.768-1.797,1.832-3.375,3.19-4.734
		c1.358-1.358,2.978-2.429,4.858-3.211c1.879-0.782,3.932-1.173,6.154-1.173c2.224,0,4.268,0.391,6.135,1.173
		c1.866,0.782,3.479,1.839,4.837,3.17c1.358,1.332,2.415,2.896,3.17,4.693c0.755,1.798,1.133,3.726,1.133,5.785v0.082
		C336.251,63.453,335.866,65.381,335.098,67.178z M329.622,61.394c0-1.235-0.213-2.401-0.638-3.5
		c-0.426-1.097-1.029-2.058-1.812-2.881s-1.709-1.475-2.779-1.956c-1.07-0.48-2.237-0.721-3.499-0.721
		c-1.291,0-2.464,0.234-3.521,0.7c-1.057,0.467-1.962,1.111-2.717,1.935c-0.755,0.823-1.345,1.777-1.771,2.861
		c-0.426,1.085-0.638,2.244-0.638,3.479v0.082c0,1.235,0.212,2.401,0.638,3.499c0.426,1.099,1.029,2.059,1.812,2.882
		s1.701,1.476,2.759,1.956c1.056,0.48,2.229,0.721,3.52,0.721c1.263,0,2.429-0.233,3.5-0.7c1.07-0.467,1.982-1.111,2.737-1.936
		c0.755-0.823,1.345-1.776,1.771-2.861c0.425-1.083,0.638-2.243,0.638-3.479V61.394z"/>
	<path fill="#FFFFFF" d="M362.769,71.089c-0.519,1.111-1.24,2.045-2.168,2.8c-0.927,0.755-2.033,1.331-3.319,1.729
		c-1.285,0.397-2.71,0.598-4.274,0.598c-2.196,0-4.351-0.378-6.464-1.133c-2.114-0.754-4.035-1.914-5.764-3.479l3.746-4.487
		c1.317,1.07,2.669,1.921,4.056,2.553c1.386,0.631,2.902,0.946,4.549,0.946c1.317,0,2.34-0.24,3.067-0.721
		c0.727-0.479,1.091-1.146,1.091-1.996v-0.083c0-0.411-0.076-0.774-0.228-1.091c-0.151-0.315-0.44-0.61-0.866-0.885
		c-0.427-0.274-1.019-0.549-1.775-0.823s-1.74-0.563-2.951-0.865c-1.459-0.356-2.779-0.754-3.963-1.193
		c-1.184-0.438-2.188-0.981-3.014-1.626c-0.826-0.645-1.465-1.447-1.919-2.409c-0.454-0.96-0.682-2.154-0.682-3.582V55.26
		c0-1.317,0.245-2.504,0.736-3.562c0.49-1.056,1.179-1.969,2.065-2.737c0.886-0.768,1.944-1.359,3.175-1.771
		s2.587-0.618,4.069-0.618c2.112,0,4.055,0.316,5.825,0.947s3.396,1.537,4.878,2.717l-3.293,4.776
		c-1.29-0.878-2.553-1.571-3.788-2.079c-1.234-0.507-2.47-0.762-3.705-0.762s-2.161,0.241-2.778,0.721
		c-0.618,0.48-0.927,1.077-0.927,1.791v0.083c0,0.467,0.09,0.872,0.269,1.214c0.179,0.344,0.502,0.652,0.97,0.926
		c0.468,0.275,1.107,0.535,1.92,0.782c0.812,0.247,1.836,0.536,3.075,0.865c1.458,0.385,2.759,0.817,3.9,1.297
		c1.143,0.48,2.105,1.057,2.89,1.729s1.376,1.461,1.775,2.367c0.398,0.905,0.599,1.99,0.599,3.252v0.082
		C363.546,68.708,363.287,69.978,362.769,71.089z"/>
</g>
<g>
	<rect x="44.798" y="82.62" fill="#FFFFFF" width="207.366" height="14.947"/>
</g>
<polygon fill="#FFFFFF" points="368.524,47.942 374.698,47.942 385.922,61.487 374.698,75.031 368.524,75.033 379.745,61.487 "/>
<polygon fill="#FFFFFF" points="377.223,47.942 383.399,47.942 394.62,61.487 383.399,75.031 377.223,75.033 388.445,61.487 "/>
<g>
	<path fill="#FFFFFF" d="M44.674,41.772V22.857h14.241v3.702H48.781v3.837h8.917v3.701h-8.917v3.973h10.27v3.702L44.674,41.772
		L44.674,41.772z"/>
	<path fill="#FFFFFF" d="M85.451,41.908h-3.676l-7.646-19.051h4.593l4.945,13.323l4.944-13.322h4.486L85.451,41.908z"/>
	<path fill="#FFFFFF" d="M108.989,41.772V22.857h14.241v3.702h-10.133v3.837h8.917v3.701h-8.917v3.973h10.27v3.702L108.989,41.772
		L108.989,41.772z"/>
	<path fill="#FFFFFF" d="M153.332,41.772l-9.161-12.025v12.025h-4.107V22.857h3.837l8.864,11.646V22.857h4.107v18.916H153.332z"/>
	<path fill="#FFFFFF" d="M182.949,26.695v15.078h-4.161V26.695h-5.756v-3.837h15.673v3.837H182.949z"/>
	<path fill="#FFFFFF" d="M223.376,36.111c-0.505,1.181-1.203,2.217-2.094,3.108c-0.895,0.892-1.955,1.595-3.189,2.107
		c-1.234,0.514-2.581,0.771-4.04,0.771c-1.46,0-2.801-0.257-4.026-0.771c-1.226-0.512-2.284-1.206-3.176-2.081
		c-0.893-0.873-1.585-1.9-2.08-3.081c-0.496-1.179-0.743-2.446-0.743-3.796v-0.055c0-1.35,0.252-2.616,0.758-3.796
		c0.504-1.179,1.202-2.216,2.094-3.107c0.893-0.892,1.955-1.595,3.188-2.108c1.233-0.514,2.582-0.77,4.04-0.77
		c1.46,0,2.803,0.256,4.026,0.77c1.225,0.513,2.284,1.207,3.176,2.082c0.893,0.874,1.585,1.9,2.08,3.08
		c0.495,1.181,0.743,2.445,0.743,3.797v0.054C224.132,33.666,223.879,34.931,223.376,36.111z M219.782,32.313
		c0-0.81-0.142-1.576-0.421-2.297c-0.278-0.72-0.676-1.35-1.188-1.891c-0.514-0.54-1.122-0.968-1.824-1.283
		c-0.703-0.315-1.47-0.473-2.297-0.473c-0.847,0-1.618,0.152-2.311,0.458c-0.694,0.307-1.288,0.73-1.784,1.271
		c-0.495,0.54-0.883,1.167-1.162,1.878s-0.418,1.472-0.418,2.283v0.054c0,0.812,0.139,1.577,0.418,2.297
		c0.279,0.721,0.677,1.351,1.188,1.892c0.515,0.54,1.117,0.969,1.812,1.283c0.693,0.315,1.464,0.473,2.311,0.473
		c0.829,0,1.595-0.153,2.298-0.459c0.701-0.306,1.302-0.729,1.798-1.27c0.494-0.54,0.882-1.166,1.16-1.878
		c0.279-0.711,0.421-1.472,0.421-2.283L219.782,32.313L219.782,32.313z"/>
	<path fill="#FFFFFF" d="M253.97,38.679c-0.341,0.73-0.815,1.343-1.423,1.837c-0.609,0.496-1.335,0.875-2.179,1.135
		c-0.846,0.262-1.779,0.393-2.808,0.393c-1.441,0-2.855-0.249-4.242-0.743c-1.388-0.496-2.646-1.257-3.783-2.284l2.461-2.946
		c0.863,0.703,1.75,1.261,2.659,1.676c0.911,0.415,1.905,0.621,2.986,0.621c0.864,0,1.535-0.157,2.013-0.473
		c0.479-0.314,0.718-0.752,0.718-1.311V36.53c0-0.271-0.052-0.508-0.149-0.716c-0.099-0.207-0.288-0.4-0.569-0.581
		c-0.278-0.18-0.669-0.36-1.164-0.541c-0.495-0.179-1.144-0.369-1.938-0.567c-0.958-0.234-1.825-0.495-2.602-0.784
		c-0.778-0.288-1.437-0.644-1.979-1.067c-0.541-0.423-0.961-0.95-1.258-1.581c-0.3-0.63-0.449-1.414-0.449-2.351v-0.054
		c0-0.865,0.161-1.644,0.484-2.337c0.319-0.694,0.772-1.293,1.354-1.798c0.583-0.504,1.277-0.892,2.085-1.161
		c0.808-0.271,1.697-0.406,2.67-0.406c1.388,0,2.663,0.208,3.824,0.621c1.163,0.415,2.229,1.009,3.201,1.784l-2.161,3.135
		c-0.847-0.576-1.676-1.031-2.485-1.365c-0.812-0.333-1.621-0.5-2.433-0.5c-0.811,0-1.418,0.158-1.825,0.473
		c-0.404,0.315-0.605,0.708-0.605,1.176v0.054c0,0.306,0.06,0.572,0.176,0.797c0.116,0.226,0.33,0.428,0.638,0.608
		c0.307,0.18,0.727,0.351,1.258,0.513c0.534,0.162,1.207,0.351,2.02,0.567c0.959,0.252,1.813,0.536,2.563,0.851
		c0.75,0.316,1.381,0.694,1.896,1.135c0.515,0.442,0.904,0.959,1.166,1.554c0.262,0.595,0.394,1.307,0.394,2.135v0.054
		C254.481,37.116,254.309,37.949,253.97,38.679z"/>
	<path fill="#FFFFFF" d="M286.07,37.02v4.753h-2.624V37.07l-4.583-7.224h3.067l2.847,4.789l2.896-4.789h2.981L286.07,37.02z"/>
</g>
</svg>
