<?xml version="1.0" encoding="utf-8"?>
<!-- Generator: Adobe Illustrator 16.0.0, SVG Export Plug-In . SVG Version: 6.00 Build 0)  -->
<!DOCTYPE svg PUBLIC "-//W3C//DTD SVG 1.1//EN" "http://www.w3.org/Graphics/SVG/1.1/DTD/svg11.dtd">
<svg version="1.1" id="Capa_1" xmlns="http://www.w3.org/2000/svg" xmlns:xlink="http://www.w3.org/1999/xlink" x="0px" y="0px"
	 width="400px" height="114.667px" viewBox="0 0 400 114.667" enable-background="new 0 0 400 114.667" xml:space="preserve">
<g>
	<g>
		<path fill="#FFFFFF" d="M131.777,40.557V25.682h11.198v2.911h-7.969v3.018h7.012v2.911h-7.012v3.124h8.075v2.911H131.777z"/>
		<path fill="#FFFFFF" d="M159.21,40.663h-2.89l-6.014-14.981h3.613l3.889,10.477l3.889-10.477h3.528L159.21,40.663z"/>
		<path fill="#FFFFFF" d="M173.087,40.557V25.682h11.198v2.911h-7.969v3.018h7.012v2.911h-7.012v3.124h8.075v2.911H173.087z"/>
		<path fill="#FFFFFF" d="M203.324,40.557l-7.204-9.456v9.456h-3.23V25.682h3.018l6.971,9.159v-9.159h3.23v14.875H203.324z"/>
		<path fill="#FFFFFF" d="M221.983,28.698v11.858h-3.273V28.698h-4.525v-3.017h12.325v3.017H221.983z"/>
		<path fill="#FFFFFF" d="M249.141,36.104c-0.396,0.928-0.947,1.743-1.648,2.444s-1.537,1.253-2.508,1.657
			c-0.97,0.404-2.029,0.605-3.176,0.605c-1.147,0-2.203-0.202-3.166-0.605c-0.965-0.404-1.796-0.948-2.498-1.636
			c-0.701-0.687-1.246-1.495-1.637-2.423c-0.39-0.927-0.584-1.924-0.584-2.986v-0.042c0-1.063,0.197-2.058,0.594-2.986
			c0.396-0.927,0.946-1.742,1.648-2.444c0.701-0.701,1.537-1.253,2.507-1.657c0.971-0.404,2.03-0.605,3.176-0.605
			c1.149,0,2.203,0.201,3.168,0.605c0.964,0.404,1.794,0.949,2.497,1.636c0.701,0.688,1.246,1.495,1.636,2.422
			c0.39,0.928,0.585,1.924,0.585,2.986v0.042C249.735,34.182,249.536,35.176,249.141,36.104z M246.313,33.119
			c0-0.637-0.109-1.239-0.328-1.806c-0.221-0.567-0.531-1.063-0.936-1.487c-0.404-0.425-0.881-0.762-1.435-1.01
			c-0.553-0.249-1.155-0.373-1.806-0.373c-0.667,0-1.271,0.121-1.818,0.361c-0.545,0.241-1.013,0.574-1.402,0.999
			c-0.389,0.425-0.694,0.917-0.914,1.476c-0.219,0.561-0.328,1.159-0.328,1.796v0.042c0,0.637,0.109,1.239,0.328,1.806
			c0.22,0.567,0.531,1.063,0.936,1.487c0.404,0.425,0.878,0.762,1.425,1.01c0.544,0.249,1.15,0.373,1.816,0.373
			c0.653,0,1.255-0.121,1.806-0.361c0.553-0.241,1.025-0.574,1.414-0.999c0.389-0.425,0.693-0.917,0.914-1.476
			c0.219-0.56,0.328-1.159,0.328-1.796V33.119L246.313,33.119z"/>
		<path fill="#FFFFFF" d="M268.565,38.124c-0.268,0.573-0.641,1.055-1.119,1.445c-0.479,0.389-1.049,0.688-1.713,0.893
			c-0.664,0.205-1.399,0.308-2.207,0.308c-1.134,0-2.246-0.195-3.337-0.585s-2.083-0.989-2.976-1.795l1.935-2.316
			c0.681,0.552,1.376,0.992,2.093,1.317c0.716,0.327,1.498,0.489,2.348,0.489c0.681,0,1.209-0.124,1.584-0.372
			c0.374-0.248,0.563-0.592,0.563-1.03v-0.042c0-0.213-0.04-0.4-0.118-0.564c-0.078-0.162-0.228-0.315-0.447-0.456
			c-0.221-0.142-0.525-0.283-0.916-0.425c-0.391-0.142-0.899-0.291-1.523-0.447c-0.754-0.184-1.435-0.389-2.045-0.616
			c-0.611-0.227-1.129-0.507-1.555-0.84c-0.428-0.333-0.758-0.747-0.992-1.243c-0.233-0.495-0.352-1.112-0.352-1.848v-0.043
			c0-0.68,0.127-1.293,0.381-1.839c0.252-0.544,0.607-1.015,1.065-1.412c0.458-0.397,1.005-0.702,1.64-0.914
			s1.334-0.319,2.101-0.319c1.09,0,2.093,0.163,3.005,0.489c0.914,0.325,1.755,0.793,2.52,1.402l-1.699,2.465
			c-0.667-0.453-1.318-0.811-1.956-1.074c-0.638-0.261-1.274-0.393-1.913-0.393c-0.637,0-1.115,0.124-1.434,0.372
			c-0.318,0.249-0.479,0.556-0.479,0.924v0.042c0,0.241,0.046,0.45,0.137,0.626c0.094,0.177,0.26,0.336,0.502,0.479
			c0.24,0.142,0.572,0.276,0.99,0.404c0.419,0.127,0.947,0.276,1.588,0.446c0.752,0.199,1.424,0.421,2.014,0.669
			c0.589,0.249,1.086,0.546,1.49,0.893c0.406,0.348,0.711,0.755,0.917,1.222c0.206,0.468,0.31,1.028,0.31,1.679v0.043
			C268.966,36.894,268.832,37.549,268.565,38.124z"/>
		<path fill="#FFFFFF" d="M66.968,69.228c-0.707,0.561-1.48,1.041-2.32,1.443c-0.841,0.402-1.761,0.707-2.76,0.914
			c-0.999,0.206-2.12,0.311-3.362,0.311c-1.877,0-3.619-0.342-5.227-1.024c-1.608-0.681-2.997-1.614-4.167-2.796
			c-1.169-1.181-2.083-2.576-2.742-4.186c-0.657-1.607-0.987-3.324-0.987-5.152v-0.073c0-1.828,0.33-3.54,0.987-5.136
			c0.658-1.596,1.572-2.998,2.742-4.204c1.17-1.206,2.57-2.156,4.203-2.851c1.632-0.694,3.436-1.042,5.409-1.042
			c1.194,0,2.286,0.098,3.271,0.293c0.987,0.195,1.884,0.463,2.687,0.804c0.805,0.342,1.547,0.756,2.23,1.243
			c0.681,0.488,1.315,1.023,1.901,1.608l-3.582,4.13c-1-0.902-2.017-1.608-3.051-2.12c-1.037-0.512-2.199-0.768-3.491-0.768
			c-1.072,0-2.065,0.208-2.979,0.622c-0.914,0.415-1.7,0.986-2.357,1.717c-0.657,0.731-1.169,1.578-1.535,2.54
			c-0.365,0.963-0.548,1.992-0.548,3.088v0.074c0,1.096,0.183,2.132,0.548,3.105c0.365,0.976,0.871,1.828,1.517,2.559
			c0.645,0.73,1.425,1.31,2.339,1.736c0.914,0.427,1.919,0.639,3.016,0.639c1.462,0,2.698-0.268,3.71-0.804
			c1.01-0.536,2.016-1.267,3.015-2.193l3.582,3.618C68.359,68.035,67.676,68.667,66.968,69.228z"/>
		<path fill="#FFFFFF" d="M98.548,63.8c-0.682,1.596-1.627,2.998-2.833,4.203c-1.206,1.207-2.645,2.156-4.313,2.852
			c-1.669,0.693-3.49,1.043-5.464,1.043c-1.974,0-3.79-0.348-5.446-1.043c-1.658-0.693-3.089-1.633-4.295-2.815
			c-1.206-1.181-2.145-2.569-2.814-4.166c-0.671-1.596-1.005-3.308-1.005-5.136v-0.072c0-1.828,0.341-3.54,1.023-5.136
			c0.682-1.596,1.627-2.998,2.833-4.204s2.644-2.156,4.313-2.851c1.668-0.694,3.49-1.042,5.464-1.042
			c1.974,0,3.789,0.348,5.446,1.042c1.656,0.695,3.088,1.633,4.294,2.814c1.207,1.183,2.144,2.571,2.814,4.167
			c0.67,1.597,1.006,3.309,1.006,5.135v0.074C99.571,60.492,99.229,62.205,98.548,63.8z M93.687,58.666
			c0-1.097-0.19-2.132-0.567-3.107c-0.378-0.974-0.914-1.828-1.609-2.559c-0.694-0.731-1.517-1.31-2.466-1.736
			c-0.951-0.426-1.987-0.639-3.107-0.639c-1.146,0-2.187,0.208-3.124,0.622c-0.939,0.415-1.743,0.986-2.413,1.718
			c-0.67,0.731-1.194,1.578-1.572,2.54c-0.378,0.963-0.567,1.993-0.567,3.087v0.074c0,1.096,0.189,2.133,0.567,3.107
			c0.377,0.975,0.914,1.826,1.608,2.558c0.694,0.73,1.51,1.31,2.449,1.735c0.938,0.428,1.98,0.641,3.125,0.641
			c1.121,0,2.157-0.207,3.107-0.623c0.951-0.413,1.76-0.986,2.43-1.718c0.67-0.73,1.194-1.575,1.572-2.54
			c0.377-0.963,0.567-1.992,0.567-3.088V58.666z"/>
		<path fill="#FFFFFF" d="M120.112,71.458l-5.482-8.187h-4.423v8.187h-5.628V45.872h11.696c3.045,0,5.415,0.744,7.108,2.23
			c1.693,1.486,2.541,3.558,2.541,6.213v0.073c0,2.071-0.505,3.758-1.517,5.063c-1.012,1.305-2.333,2.26-3.966,2.869l6.25,9.137
			L120.112,71.458L120.112,71.458z M120.222,54.607c0-1.218-0.39-2.131-1.169-2.741c-0.78-0.609-1.865-0.914-3.253-0.914h-5.592
			v7.347h5.702c1.389,0,2.455-0.329,3.198-0.987c0.743-0.658,1.116-1.535,1.116-2.631L120.222,54.607L120.222,54.607z"/>
		<path fill="#FFFFFF" d="M150.448,58.703c-0.536,1.121-1.273,2.059-2.21,2.814c-0.939,0.755-2.036,1.321-3.29,1.699
			c-1.255,0.377-2.602,0.566-4.039,0.566h-4.276v7.676h-5.629V45.872h10.454c1.535,0,2.905,0.213,4.111,0.639
			c1.206,0.427,2.229,1.029,3.07,1.809c0.841,0.78,1.486,1.713,1.937,2.796c0.451,1.085,0.676,2.285,0.676,3.601v0.073
			C151.253,56.278,150.984,57.581,150.448,58.703z M145.551,54.828c0-1.267-0.408-2.229-1.224-2.888
			c-0.818-0.658-1.932-0.987-3.345-0.987h-4.35v7.822h4.459c1.413,0,2.509-0.371,3.29-1.115c0.78-0.743,1.17-1.664,1.17-2.76V54.828
			z"/>
		<path fill="#FFFFFF" d="M180.456,63.8c-0.683,1.596-1.627,2.998-2.833,4.203c-1.207,1.207-2.645,2.156-4.313,2.852
			c-1.669,0.693-3.49,1.043-5.464,1.043c-1.974,0-3.789-0.348-5.446-1.043c-1.658-0.693-3.089-1.633-4.295-2.815
			c-1.207-1.181-2.145-2.569-2.815-4.166c-0.671-1.596-1.005-3.308-1.005-5.136v-0.072c0-1.828,0.34-3.54,1.023-5.136
			c0.682-1.596,1.626-2.998,2.833-4.204c1.206-1.206,2.643-2.156,4.312-2.851c1.668-0.694,3.491-1.042,5.464-1.042
			c1.973,0,3.79,0.348,5.445,1.042c1.657,0.695,3.089,1.633,4.295,2.814c1.206,1.183,2.143,2.571,2.814,4.167
			c0.67,1.597,1.005,3.309,1.005,5.135v0.074C181.479,60.492,181.137,62.205,180.456,63.8z M175.594,58.666
			c0-1.097-0.189-2.132-0.567-3.107c-0.378-0.974-0.913-1.828-1.608-2.559c-0.695-0.731-1.518-1.31-2.467-1.736
			c-0.95-0.426-1.986-0.639-3.106-0.639c-1.146,0-2.188,0.208-3.125,0.622c-0.938,0.415-1.742,0.986-2.412,1.718
			c-0.67,0.731-1.193,1.578-1.571,2.54c-0.378,0.963-0.567,1.993-0.567,3.087v0.074c0,1.096,0.188,2.133,0.567,3.107
			c0.378,0.975,0.914,1.826,1.608,2.558c0.695,0.73,1.511,1.31,2.449,1.735c0.938,0.428,1.98,0.641,3.125,0.641
			c1.12,0,2.156-0.207,3.106-0.623c0.95-0.413,1.761-0.986,2.431-1.718c0.669-0.73,1.193-1.575,1.571-2.54
			c0.377-0.963,0.567-1.992,0.567-3.088V58.666z"/>
		<path fill="#FFFFFF" d="M202.02,71.458l-5.482-8.187h-4.422v8.187h-5.629V45.872h11.696c3.046,0,5.416,0.744,7.109,2.23
			c1.693,1.486,2.541,3.558,2.541,6.213v0.073c0,2.071-0.507,3.758-1.518,5.063c-1.012,1.305-2.334,2.26-3.966,2.869l6.251,9.137
			L202.02,71.458L202.02,71.458z M202.129,54.607c0-1.218-0.39-2.131-1.169-2.741c-0.78-0.609-1.864-0.914-3.253-0.914h-5.592v7.347
			h5.702c1.389,0,2.455-0.329,3.198-0.987c0.743-0.658,1.116-1.535,1.116-2.631v-0.074H202.129z"/>
		<path fill="#FFFFFF" d="M231.954,71.458l-2.339-5.738h-10.82l-2.339,5.738h-5.738l10.964-25.768h5.189l10.965,25.768H231.954z
			 M224.205,52.452l-3.398,8.296h6.798L224.205,52.452z"/>
		<path fill="#FFFFFF" d="M253.371,51.062v20.396h-5.629V51.062h-7.784v-5.19h21.198v5.19H253.371z"/>
		<path fill="#FFFFFF" d="M265.725,71.458V45.872h5.629v25.586H265.725z"/>
		<path fill="#FFFFFF" d="M290.871,71.64h-4.971l-10.343-25.768h6.212l6.689,18.02l6.688-18.02h6.067L290.871,71.64z"/>
		<path fill="#FFFFFF" d="M330.199,63.8c-0.683,1.596-1.625,2.998-2.833,4.203c-1.206,1.207-2.644,2.156-4.312,2.852
			c-1.67,0.693-3.49,1.043-5.465,1.043s-3.79-0.348-5.445-1.043c-1.658-0.693-3.09-1.633-4.295-2.815
			c-1.207-1.181-2.145-2.569-2.815-4.166c-0.669-1.596-1.006-3.308-1.006-5.136v-0.072c0-1.828,0.341-3.54,1.023-5.136
			c0.683-1.596,1.626-2.998,2.833-4.204c1.205-1.206,2.643-2.156,4.313-2.851c1.669-0.694,3.49-1.042,5.465-1.042
			s3.788,0.348,5.445,1.042c1.657,0.695,3.089,1.633,4.295,2.814c1.207,1.183,2.145,2.571,2.814,4.167
			c0.67,1.597,1.006,3.309,1.006,5.135v0.074C331.223,60.492,330.881,62.205,330.199,63.8z M325.338,58.666
			c0-1.097-0.189-2.132-0.566-3.107c-0.377-0.974-0.914-1.828-1.608-2.559c-0.694-0.731-1.517-1.31-2.467-1.736
			c-0.95-0.426-1.986-0.639-3.106-0.639c-1.146,0-2.188,0.208-3.125,0.622c-0.938,0.415-1.743,0.986-2.413,1.718
			c-0.67,0.731-1.194,1.578-1.571,2.54c-0.379,0.963-0.566,1.993-0.566,3.087v0.074c0,1.096,0.188,2.133,0.566,3.107
			c0.376,0.975,0.912,1.826,1.609,2.558c0.693,0.73,1.51,1.31,2.448,1.735c0.938,0.428,1.979,0.641,3.125,0.641
			c1.12,0,2.155-0.207,3.106-0.623c0.95-0.413,1.76-0.986,2.43-1.718c0.67-0.73,1.194-1.575,1.572-2.54
			c0.377-0.963,0.566-1.992,0.566-3.088V58.666L325.338,58.666z"/>
		<path fill="#FFFFFF" d="M354.033,67.273c-0.46,0.986-1.101,1.814-1.924,2.484c-0.824,0.671-1.806,1.183-2.947,1.536
			c-1.141,0.353-2.406,0.529-3.795,0.529c-1.95,0-3.863-0.335-5.739-1.006c-1.876-0.669-3.582-1.698-5.118-3.088l3.326-3.984
			c1.17,0.95,2.371,1.706,3.601,2.267s2.575,0.842,4.039,0.842c1.17,0,2.076-0.214,2.723-0.641c0.646-0.426,0.969-1.017,0.969-1.771
			v-0.074c0-0.366-0.067-0.688-0.202-0.969c-0.133-0.279-0.391-0.543-0.768-0.785c-0.379-0.244-0.904-0.488-1.576-0.732
			c-0.673-0.242-1.547-0.498-2.621-0.768c-1.294-0.316-2.468-0.67-3.519-1.06c-1.05-0.39-1.942-0.87-2.676-1.443
			c-0.731-0.571-1.3-1.285-1.703-2.138c-0.403-0.853-0.604-1.913-0.604-3.18v-0.073c0-1.169,0.217-2.223,0.652-3.161
			c0.438-0.937,1.047-1.748,1.835-2.431c0.786-0.681,1.726-1.206,2.819-1.572c1.09-0.365,2.295-0.548,3.611-0.548
			c1.876,0,3.6,0.28,5.172,0.841c1.571,0.561,3.016,1.365,4.33,2.412l-2.922,4.24c-1.147-0.779-2.267-1.395-3.363-1.846
			c-1.096-0.45-2.193-0.676-3.289-0.676c-1.097,0-1.92,0.213-2.468,0.639c-0.548,0.427-0.821,0.956-0.821,1.59v0.073
			c0,0.415,0.079,0.774,0.237,1.079c0.159,0.305,0.445,0.579,0.86,0.823c0.416,0.243,0.984,0.475,1.705,0.694
			c0.721,0.219,1.631,0.475,2.73,0.767c1.295,0.342,2.449,0.726,3.463,1.151c1.014,0.427,1.869,0.939,2.565,1.536
			c0.696,0.598,1.223,1.297,1.576,2.102c0.354,0.805,0.532,1.768,0.532,2.887v0.072C354.725,65.158,354.494,66.286,354.033,67.273z"
			/>
	</g>
	<g>
		<rect x="131.753" y="77.744" fill="#FFFFFF" width="140.082" height="14.947"/>
	</g>
</g>
<polygon fill="#FFFFFF" points="360.528,44.733 366.703,44.733 377.926,58.278 366.703,71.822 360.528,71.823 371.75,58.278 "/>
<polygon fill="#FFFFFF" points="369.227,44.733 375.403,44.733 386.625,58.278 375.403,71.822 369.227,71.823 380.449,58.278 "/>
</svg>
