<?xml version="1.0" encoding="utf-8"?>
<!-- Generator: Adobe Illustrator 16.0.0, SVG Export Plug-In . SVG Version: 6.00 Build 0)  -->
<!DOCTYPE svg PUBLIC "-//W3C//DTD SVG 1.1//EN" "http://www.w3.org/Graphics/SVG/1.1/DTD/svg11.dtd">
<svg version="1.1" id="Capa_1" xmlns="http://www.w3.org/2000/svg" xmlns:xlink="http://www.w3.org/1999/xlink" x="0px" y="0px"
	 width="400px" height="114.667px" viewBox="0 0 400 114.667" enable-background="new 0 0 400 114.667" xml:space="preserve">
<g>
	<g>
		<path fill="#FFFFFF" d="M89.613,40.55c-0.535,1.148-1.28,2.11-2.238,2.889c-0.957,0.781-2.101,1.375-3.427,1.786
			c-1.326,0.41-2.797,0.617-4.413,0.617c-2.268,0-4.489-0.39-6.672-1.168c-2.183-0.779-4.165-1.977-5.95-3.592l3.866-4.632
			c1.362,1.106,2.756,1.984,4.187,2.635c1.432,0.652,2.997,0.978,4.697,0.978c1.359,0,2.415-0.248,3.166-0.744
			c0.752-0.495,1.125-1.182,1.125-2.061v-0.086c0-0.425-0.078-0.8-0.232-1.125c-0.157-0.325-0.455-0.631-0.896-0.914
			c-0.44-0.283-1.049-0.567-1.831-0.85c-0.781-0.283-1.796-0.581-3.046-0.893c-1.506-0.369-2.869-0.778-4.092-1.232
			c-1.222-0.452-2.259-1.012-3.111-1.68c-0.853-0.665-1.512-1.494-1.981-2.485c-0.469-0.992-0.703-2.223-0.703-3.698v-0.084
			c0-1.36,0.254-2.585,0.761-3.676c0.507-1.091,1.218-2.034,2.132-2.827c0.915-0.792,2.007-1.402,3.277-1.827
			c1.268-0.425,2.671-0.638,4.198-0.638c2.182,0,4.187,0.327,6.015,0.978c1.827,0.652,3.506,1.587,5.035,2.805l-3.4,4.93
			c-1.33-0.906-2.635-1.622-3.91-2.146c-1.275-0.525-2.55-0.786-3.825-0.786s-2.231,0.248-2.869,0.744
			c-0.638,0.497-0.957,1.112-0.957,1.849v0.085c0,0.482,0.091,0.9,0.277,1.254c0.185,0.354,0.517,0.673,1.001,0.957
			c0.483,0.284,1.144,0.552,1.982,0.807c0.836,0.255,1.894,0.552,3.172,0.893c1.506,0.397,2.849,0.843,4.028,1.338
			s2.174,1.092,2.982,1.785c0.809,0.694,1.42,1.509,1.832,2.444s0.62,2.055,0.62,3.356v0.086
			C90.415,38.092,90.147,39.402,89.613,40.55z"/>
		<path fill="#FFFFFF" d="M114.726,45.417V33.474h-12.071v11.943h-6.544v-29.75h6.544V27.44h12.071V15.667h6.544v29.75H114.726z"/>
		<path fill="#FFFFFF" d="M157.522,36.513c-0.793,1.856-1.892,3.486-3.294,4.888c-1.401,1.401-3.073,2.508-5.014,3.314
			c-1.94,0.809-4.059,1.212-6.355,1.212c-2.295,0-4.406-0.404-6.332-1.212c-1.928-0.806-3.592-1.897-4.994-3.272
			c-1.402-1.374-2.495-2.989-3.274-4.844c-0.779-1.856-1.168-3.846-1.168-5.971v-0.085c0-2.125,0.396-4.115,1.19-5.971
			c0.792-1.855,1.891-3.485,3.293-4.887c1.401-1.402,3.074-2.508,5.014-3.315c1.94-0.808,4.058-1.211,6.355-1.211
			c2.294,0,4.405,0.404,6.332,1.211c1.927,0.807,3.592,1.898,4.994,3.272c1.401,1.374,2.494,2.99,3.273,4.845
			c0.78,1.856,1.169,3.846,1.169,5.971v0.086C158.713,32.667,158.315,34.658,157.522,36.513z M151.87,30.542
			c0-1.275-0.22-2.479-0.659-3.612c-0.44-1.133-1.063-2.125-1.87-2.975c-0.807-0.85-1.763-1.523-2.869-2.019
			s-2.31-0.744-3.612-0.744c-1.332,0-2.542,0.241-3.633,0.722c-1.09,0.482-2.026,1.148-2.806,1.998
			c-0.778,0.85-1.389,1.834-1.827,2.954c-0.439,1.119-0.658,2.316-0.658,3.591v0.086c0,1.275,0.221,2.479,0.658,3.612
			c0.439,1.133,1.063,2.125,1.87,2.975c0.807,0.85,1.755,1.522,2.847,2.019c1.091,0.496,2.302,0.744,3.634,0.744
			c1.303,0,2.507-0.24,3.613-0.724c1.105-0.481,2.047-1.148,2.826-1.998c0.779-0.85,1.388-1.833,1.826-2.954
			c0.44-1.119,0.659-2.316,0.659-3.591V30.542L151.87,30.542z"/>
		<path fill="#FFFFFF" d="M197.217,45.629h-5.695l-6.714-19.465l-6.714,19.465h-5.695l-10.156-29.963h7.012l6.163,20.146
			l6.672-20.23h5.61l6.674,20.23l6.163-20.146h6.842L197.217,45.629z"/>
		<path fill="#FFFFFF" d="M212.22,45.417v-29.75h6.546v23.842h14.83v5.908H212.22z"/>
		<path fill="#FFFFFF" d="M260.669,45.417l-2.72-6.673h-12.58l-2.721,6.673h-6.672l12.75-29.962h6.035l12.75,29.962H260.669
			L260.669,45.417z M251.658,23.317l-3.951,9.647h7.905L251.658,23.317z"/>
		<path fill="#FFFFFF" d="M292.967,45.417l-14.406-18.912v18.912H272.1v-29.75h6.036l13.938,18.317V15.667h6.461v29.75H292.967z"/>
		<path fill="#FFFFFF" d="M331.941,36.407c-0.765,1.814-1.849,3.385-3.251,4.718c-1.402,1.332-3.074,2.38-5.014,3.145
			c-1.94,0.764-4.074,1.148-6.396,1.148h-11.602v-29.75h11.602c2.322,0,4.456,0.375,6.396,1.126c1.939,0.75,3.613,1.792,5.014,3.124
			c1.402,1.332,2.486,2.898,3.251,4.696c0.764,1.799,1.147,3.748,1.147,5.844v0.086C333.087,32.639,332.704,34.594,331.941,36.407z
			 M326.245,30.542c0-1.303-0.22-2.508-0.659-3.612c-0.439-1.105-1.047-2.055-1.826-2.848c-0.779-0.792-1.721-1.409-2.825-1.849
			c-1.106-0.439-2.324-0.659-3.655-0.659h-5.058v17.934h5.058c1.329,0,2.549-0.212,3.655-0.638c1.104-0.425,2.046-1.033,2.825-1.827
			c0.779-0.792,1.389-1.727,1.826-2.805c0.441-1.077,0.659-2.281,0.659-3.612V30.542z"/>
		<path fill="#FFFFFF" d="M113.928,79.621l-9.222-12.665l-3.443,3.569v9.096h-6.544v-29.75h6.544v13.005l12.071-13.005h7.904
			l-12.112,12.624l12.664,17.127L113.928,79.621L113.928,79.621z"/>
		<path fill="#FFFFFF" d="M126.041,79.621v-29.75h6.545v29.75H126.041z"/>
		<path fill="#FFFFFF" d="M166.288,70.611c-0.764,1.813-1.848,3.385-3.25,4.717c-1.401,1.333-3.075,2.383-5.014,3.146
			c-1.94,0.764-4.075,1.148-6.396,1.148h-11.602v-29.75h11.602c2.323,0,4.456,0.375,6.396,1.126
			c1.939,0.751,3.613,1.792,5.014,3.124c1.402,1.332,2.486,2.897,3.25,4.695c0.764,1.799,1.148,3.746,1.148,5.844v0.086
			C167.436,66.843,167.053,68.798,166.288,70.611z M160.594,64.746c0-1.303-0.22-2.508-0.657-3.612
			c-0.441-1.105-1.048-2.054-1.828-2.849c-0.78-0.793-1.721-1.409-2.826-1.849c-1.106-0.44-2.323-0.659-3.656-0.659h-5.057v17.934
			h5.057c1.33,0,2.55-0.212,3.656-0.638c1.105-0.425,2.046-1.032,2.826-1.825c0.779-0.794,1.388-1.728,1.828-2.806
			c0.439-1.079,0.657-2.281,0.657-3.613V64.746z"/>
		<path fill="#FFFFFF" d="M193.962,74.755c-0.535,1.148-1.282,2.109-2.238,2.889c-0.958,0.779-2.1,1.374-3.427,1.786
			c-1.328,0.409-2.799,0.617-4.412,0.617c-2.267,0-4.492-0.39-6.675-1.169c-2.181-0.778-4.163-1.977-5.95-3.592l3.868-4.634
			c1.361,1.107,2.755,1.983,4.188,2.636c1.43,0.654,2.994,0.977,4.694,0.977c1.362,0,2.416-0.247,3.168-0.744
			c0.75-0.494,1.125-1.182,1.125-2.06v-0.087c0-0.425-0.079-0.8-0.233-1.125c-0.159-0.326-0.455-0.631-0.895-0.913
			c-0.443-0.284-1.052-0.567-1.832-0.851c-0.782-0.283-1.797-0.58-3.047-0.893c-1.506-0.369-2.87-0.779-4.091-1.234
			c-1.222-0.451-2.256-1.01-3.109-1.678c-0.854-0.666-1.512-1.494-1.981-2.486c-0.471-0.992-0.703-2.224-0.703-3.697v-0.087
			c0-1.36,0.253-2.585,0.76-3.675c0.507-1.09,1.218-2.034,2.132-2.827c0.915-0.792,2.007-1.402,3.278-1.827
			c1.27-0.425,2.67-0.638,4.2-0.638c2.18,0,4.187,0.327,6.012,0.977c1.828,0.652,3.506,1.586,5.039,2.806l-3.4,4.929
			c-1.333-0.905-2.637-1.62-3.912-2.145c-1.275-0.524-2.55-0.787-3.825-0.787s-2.231,0.249-2.869,0.744
			c-0.638,0.497-0.957,1.113-0.957,1.85v0.085c0,0.48,0.092,0.9,0.277,1.255c0.185,0.354,0.518,0.674,1.001,0.955
			c0.483,0.284,1.145,0.553,1.981,0.809c0.838,0.254,1.896,0.551,3.175,0.893c1.505,0.396,2.848,0.843,4.025,1.338
			c1.18,0.496,2.175,1.091,2.985,1.787c0.81,0.693,1.42,1.508,1.831,2.443c0.412,0.935,0.62,2.055,0.62,3.355v0.088
			C194.763,72.296,194.495,73.606,193.962,74.755z"/>
	</g>
	<rect x="94.718" y="83.595" fill="#FFFFFF" width="99.292" height="15.914"/>
	<g>
		<path fill="#FFFFFF" d="M209.086,73.553v9.485h-2.619v-9.485h-3.621v-2.414h9.862v2.414H209.086z"/>
		<path fill="#FFFFFF" d="M218.114,83.039V71.139h8.959v2.329h-6.375v2.414h5.611v2.329h-5.611v2.499h6.461v2.328H218.114
			L218.114,83.039z"/>
		<path fill="#FFFFFF" d="M241.76,83.039l-1.088-2.669h-5.032l-1.087,2.669h-2.67l5.1-11.984h2.414l5.1,11.984H241.76z
			 M238.156,74.199l-1.582,3.859h3.164L238.156,74.199z"/>
		<path fill="#FFFFFF" d="M255.121,73.553v9.485h-2.617v-9.485h-3.621v-2.414h9.859v2.414H255.121z"/>
		<path fill="#FFFFFF" d="M271.373,83.039l-2.549-3.807h-2.059v3.807h-2.617V71.139h5.439c1.418,0,2.52,0.345,3.308,1.038
			c0.786,0.691,1.181,1.652,1.181,2.889V75.1c0,0.963-0.232,1.749-0.705,2.354c-0.471,0.605-1.084,1.051-1.845,1.334l2.907,4.25
			H271.373z M271.424,75.202c0-0.566-0.182-0.991-0.544-1.274s-0.868-0.426-1.513-0.426h-2.602v3.416h2.652
			c0.646,0,1.142-0.152,1.488-0.457c0.345-0.305,0.516-0.715,0.516-1.223L271.424,75.202L271.424,75.202z"/>
		<path fill="#FFFFFF" d="M291.485,79.478c-0.317,0.742-0.758,1.393-1.318,1.954c-0.56,0.562-1.229,1.003-2.005,1.327
			c-0.776,0.321-1.624,0.484-2.542,0.484s-1.762-0.163-2.531-0.484c-0.771-0.324-1.438-0.76-2-1.311
			c-0.561-0.549-0.996-1.195-1.309-1.938c-0.311-0.741-0.467-1.539-0.467-2.389v-0.033c0-0.85,0.16-1.646,0.477-2.389
			s0.757-1.395,1.318-1.955c0.561-0.561,1.229-1.004,2.004-1.326c0.777-0.325,1.623-0.484,2.541-0.484s1.763,0.159,2.532,0.484
			c0.771,0.322,1.437,0.759,1.999,1.307c0.561,0.55,0.996,1.197,1.309,1.939c0.312,0.742,0.467,1.539,0.467,2.389v0.035
			C291.959,77.939,291.801,78.736,291.485,79.478z M289.224,77.089c0-0.51-0.089-0.991-0.265-1.446
			c-0.176-0.452-0.425-0.851-0.748-1.187c-0.324-0.339-0.706-0.611-1.148-0.809c-0.443-0.196-0.924-0.299-1.445-0.299
			c-0.532,0-1.016,0.096-1.453,0.29c-0.436,0.194-0.81,0.46-1.122,0.797c-0.31,0.341-0.554,0.735-0.729,1.185
			c-0.177,0.445-0.266,0.926-0.266,1.434v0.035c0,0.51,0.089,0.99,0.266,1.444c0.175,0.453,0.425,0.85,0.747,1.19
			c0.324,0.34,0.703,0.609,1.14,0.807c0.436,0.197,0.921,0.299,1.454,0.299c0.521,0,1.002-0.096,1.444-0.289
			c0.442-0.192,0.818-0.46,1.13-0.801c0.311-0.338,0.555-0.732,0.73-1.18c0.176-0.448,0.265-0.926,0.265-1.438V77.089
			L289.224,77.089z"/>
		<path fill="#FFFFFF" d="M210.311,96.316c-0.205,0.532-0.49,0.978-0.859,1.334c-0.369,0.357-0.813,0.625-1.334,0.799
			c-0.521,0.176-1.094,0.264-1.719,0.264c-0.93,0-1.709-0.176-2.338-0.525c-0.627-0.353-1.147-0.771-1.556-1.259l1.649-1.837
			c0.34,0.374,0.684,0.666,1.029,0.875c0.346,0.211,0.727,0.316,1.148,0.316c0.498,0,0.891-0.156,1.173-0.469
			c0.283-0.311,0.425-0.813,0.425-1.504v-7.668h2.684v7.785C210.615,95.155,210.514,95.785,210.311,96.316z"/>
		<path fill="#FFFFFF" d="M226.502,95.721c-0.243,0.669-0.592,1.227-1.044,1.675c-0.453,0.447-1.005,0.783-1.649,1.004
			c-0.646,0.223-1.365,0.332-2.159,0.332c-1.598,0-2.855-0.442-3.773-1.326c-0.917-0.885-1.376-2.206-1.376-3.961v-6.8h2.617v6.731
			c0,0.975,0.229,1.711,0.682,2.203c0.453,0.494,1.08,0.737,1.887,0.737c0.806,0,1.434-0.235,1.887-0.714
			c0.453-0.477,0.682-1.188,0.682-2.143v-6.816h2.617v6.715C226.867,94.265,226.746,95.052,226.502,95.721z"/>
		<path fill="#FFFFFF" d="M232.938,98.543V86.644h8.959v2.328h-6.375v2.414h5.609v2.33h-5.609v2.498h6.459v2.327L232.938,98.543
			L232.938,98.543z"/>
		<path fill="#FFFFFF" d="M256.355,98.195c-0.845,0.369-1.811,0.553-2.899,0.553c-0.928,0-1.775-0.154-2.54-0.46
			c-0.764-0.306-1.423-0.73-1.971-1.274c-0.55-0.545-0.978-1.191-1.285-1.938c-0.305-0.749-0.46-1.564-0.46-2.449v-0.033
			c0-0.85,0.158-1.646,0.471-2.389c0.309-0.742,0.744-1.395,1.297-1.956c0.557-0.562,1.215-1.005,1.973-1.326
			c0.759-0.323,1.592-0.483,2.499-0.483c0.532,0,1.016,0.037,1.454,0.109c0.436,0.075,0.84,0.18,1.215,0.316
			c0.373,0.134,0.727,0.303,1.055,0.51c0.328,0.203,0.646,0.436,0.951,0.697l-1.648,1.988c-0.227-0.194-0.453-0.363-0.68-0.512
			c-0.229-0.147-0.463-0.271-0.706-0.373c-0.243-0.102-0.507-0.182-0.791-0.238c-0.282-0.056-0.595-0.084-0.937-0.084
			c-0.475,0-0.92,0.1-1.334,0.299c-0.412,0.197-0.775,0.465-1.086,0.801c-0.313,0.335-0.557,0.725-0.731,1.175
			c-0.175,0.448-0.263,0.93-0.263,1.439v0.034c0,0.545,0.088,1.047,0.263,1.506c0.175,0.461,0.425,0.862,0.748,1.203
			c0.323,0.338,0.702,0.604,1.139,0.791c0.438,0.189,0.921,0.281,1.454,0.281c0.975,0,1.797-0.238,2.465-0.721V93.95h-2.636v-2.261
			h5.168v5.168C257.926,97.381,257.199,97.826,256.355,98.195z"/>
		<path fill="#FFFFFF" d="M276.099,94.98c-0.317,0.744-0.757,1.396-1.317,1.957s-1.228,1.004-2.005,1.328
			c-0.776,0.323-1.624,0.484-2.542,0.484s-1.761-0.161-2.532-0.484c-0.77-0.324-1.435-0.762-1.998-1.311
			c-0.56-0.549-0.997-1.193-1.308-1.936c-0.313-0.742-0.469-1.541-0.469-2.391v-0.033c0-0.85,0.16-1.646,0.477-2.391
			c0.317-0.742,0.758-1.395,1.317-1.956c0.562-0.562,1.229-1.003,2.007-1.325c0.775-0.323,1.623-0.484,2.541-0.484
			s1.762,0.161,2.531,0.484c0.771,0.322,1.438,0.76,2,1.309c0.561,0.55,0.996,1.195,1.309,1.939
			c0.311,0.742,0.469,1.537,0.469,2.387v0.035C276.576,93.443,276.416,94.239,276.099,94.98z M273.838,92.593
			c0-0.51-0.088-0.992-0.265-1.445c-0.176-0.453-0.425-0.851-0.747-1.191c-0.324-0.336-0.706-0.607-1.148-0.805
			c-0.442-0.195-0.926-0.299-1.445-0.299c-0.533,0-1.018,0.096-1.453,0.289c-0.438,0.193-0.811,0.458-1.121,0.799
			c-0.313,0.34-0.557,0.733-0.732,1.182c-0.173,0.449-0.263,0.926-0.263,1.436v0.035c0,0.51,0.088,0.991,0.263,1.444
			c0.176,0.453,0.426,0.851,0.75,1.19c0.324,0.339,0.701,0.609,1.139,0.807s0.922,0.299,1.455,0.299
			c0.521,0,1.002-0.096,1.443-0.291c0.443-0.193,0.818-0.457,1.129-0.798c0.313-0.341,0.556-0.733,0.731-1.181
			c0.175-0.447,0.265-0.928,0.265-1.438V92.593L273.838,92.593z"/>
		<path fill="#FFFFFF" d="M290.585,96.596c-0.214,0.46-0.513,0.845-0.896,1.157c-0.383,0.311-0.84,0.549-1.371,0.713
			c-0.531,0.165-1.117,0.246-1.764,0.246c-0.906,0-1.796-0.156-2.67-0.467c-0.873-0.312-1.666-0.791-2.38-1.438l1.546-1.853
			c0.545,0.442,1.104,0.794,1.676,1.054c0.572,0.262,1.198,0.393,1.879,0.393c0.543,0,0.965-0.1,1.266-0.301
			c0.301-0.195,0.449-0.475,0.449-0.823v-0.034c0-0.17-0.031-0.321-0.093-0.451c-0.062-0.129-0.182-0.252-0.357-0.365
			c-0.177-0.113-0.421-0.229-0.733-0.338c-0.313-0.113-0.719-0.232-1.219-0.359c-0.604-0.146-1.149-0.311-1.639-0.49
			c-0.486-0.184-0.902-0.407-1.243-0.673c-0.341-0.267-0.606-0.598-0.794-0.995c-0.188-0.398-0.279-0.889-0.279-1.479V90.06
			c0-0.547,0.101-1.034,0.303-1.471c0.201-0.438,0.485-0.814,0.854-1.131c0.365-0.316,0.801-0.561,1.311-0.73
			c0.508-0.171,1.068-0.256,1.681-0.256c0.872,0,1.674,0.131,2.405,0.393c0.729,0.26,1.4,0.634,2.015,1.121l-1.362,1.971
			c-0.531-0.361-1.052-0.646-1.563-0.857c-0.511-0.209-1.021-0.314-1.53-0.314s-0.893,0.1-1.146,0.297
			c-0.258,0.199-0.384,0.445-0.384,0.741v0.033c0,0.192,0.037,0.36,0.11,0.501c0.074,0.143,0.208,0.27,0.4,0.384
			c0.195,0.112,0.459,0.221,0.795,0.321c0.336,0.104,0.759,0.222,1.27,0.357c0.602,0.16,1.141,0.338,1.611,0.537
			c0.472,0.197,0.867,0.436,1.193,0.713c0.324,0.277,0.568,0.604,0.73,0.979c0.165,0.373,0.248,0.821,0.248,1.343v0.033
			C290.906,95.613,290.799,96.138,290.585,96.596z"/>
		<path fill="#FFFFFF" d="M211.098,67.187c-0.844,0.367-1.811,0.553-2.898,0.553c-0.93,0-1.776-0.154-2.542-0.461
			c-0.764-0.305-1.422-0.73-1.971-1.274c-0.55-0.544-0.978-1.19-1.284-1.938c-0.305-0.749-0.459-1.563-0.459-2.448v-0.033
			c0-0.851,0.156-1.647,0.469-2.39c0.311-0.743,0.744-1.395,1.299-1.955c0.555-0.561,1.213-1.003,1.973-1.326
			c0.759-0.323,1.592-0.484,2.499-0.484c0.532,0,1.016,0.037,1.453,0.11c0.437,0.074,0.841,0.179,1.216,0.315
			c0.374,0.136,0.727,0.306,1.054,0.509c0.329,0.205,0.646,0.437,0.952,0.697l-1.649,1.988c-0.227-0.193-0.453-0.361-0.68-0.51
			c-0.227-0.146-0.462-0.271-0.706-0.373s-0.507-0.182-0.79-0.238c-0.284-0.057-0.595-0.086-0.937-0.086
			c-0.475,0-0.92,0.1-1.332,0.301c-0.415,0.197-0.777,0.465-1.089,0.8s-0.556,0.726-0.731,1.175s-0.264,0.93-0.264,1.439v0.033
			c0,0.547,0.088,1.049,0.264,1.51c0.176,0.459,0.426,0.859,0.748,1.199c0.324,0.341,0.703,0.606,1.14,0.793
			c0.437,0.188,0.921,0.281,1.454,0.281c0.974,0,1.795-0.239,2.464-0.719v-1.713h-2.635v-2.26h5.168v5.167
			C212.67,66.373,211.942,66.82,211.098,67.187z"/>
		<path fill="#FFFFFF" d="M225.165,62.792v4.742h-2.618v-4.691l-4.572-7.208h3.061l2.838,4.777l2.89-4.777h2.976L225.165,62.792z"/>
		<path fill="#FFFFFF" d="M244.086,67.535v-7.77l-3.349,5.082h-0.068l-3.315-5.031v7.717h-2.583V55.634h2.821l3.129,5.032
			l3.129-5.032h2.82v11.899h-2.584V67.535z"/>
		<path fill="#FFFFFF" d="M260.61,67.535l-3.689-5.066l-1.377,1.429v3.638h-2.617v-11.9h2.617v5.202l4.829-5.202h3.163l-4.846,5.048
			l5.066,6.852H260.61z"/>
		<path fill="#FFFFFF" d="M276.183,67.535v-4.777h-4.829v4.777h-2.617v-11.9h2.617v4.708h4.829v-4.708h2.617v11.9H276.183z"/>
		<path fill="#FFFFFF" d="M293.912,67.535l-1.088-2.67h-5.031l-1.088,2.67h-2.67l5.101-11.985h2.414l5.1,11.985H293.912z
			 M290.308,58.695l-1.58,3.859h3.161L290.308,58.695z"/>
		<path fill="#FFFFFF" d="M310.233,67.535l-5.764-7.564v7.564h-2.584v-11.9h2.414l5.577,7.327v-7.327h2.584v11.9H310.233z"/>
		<path fill="#FFFFFF" d="M327.573,67.535l-1.088-2.67h-5.032l-1.088,2.67h-2.669l5.1-11.985h2.414l5.1,11.985H327.573z
			 M323.969,58.695l-1.582,3.859h3.162L323.969,58.695z"/>
	</g>
</g>
<polygon fill="#FFFFFF" points="338.323,18.328 344.499,18.328 355.722,31.873 344.499,45.417 338.323,45.417 349.546,31.873 "/>
<polygon fill="#FFFFFF" points="347.023,18.328 353.198,18.328 364.421,31.873 353.198,45.417 347.023,45.417 358.245,31.873 "/>
</svg>
