<?xml version="1.0" encoding="utf-8"?>
<!-- Generator: Adobe Illustrator 16.0.0, SVG Export Plug-In . SVG Version: 6.00 Build 0)  -->
<!DOCTYPE svg PUBLIC "-//W3C//DTD SVG 1.1//EN" "http://www.w3.org/Graphics/SVG/1.1/DTD/svg11.dtd">
<svg version="1.1" id="Capa_1" xmlns="http://www.w3.org/2000/svg" xmlns:xlink="http://www.w3.org/1999/xlink" x="0px" y="0px"
	 width="400px" height="114.667px" viewBox="0 0 400 114.667" enable-background="new 0 0 400 114.667" xml:space="preserve">
<g>
	<g>
		<path fill="#FFFFFF" d="M82.823,39.564c-0.541,1.161-1.295,2.135-2.263,2.922c-0.968,0.789-2.125,1.391-3.466,1.806
			c-1.342,0.415-2.83,0.623-4.463,0.623c-2.292,0-4.542-0.395-6.748-1.182c-2.207-0.789-4.213-2-6.018-3.632l3.911-4.685
			c1.375,1.117,2.787,2.006,4.234,2.665c1.447,0.66,3.031,0.988,4.75,0.988c1.375,0,2.443-0.25,3.204-0.752
			c0.758-0.5,1.139-1.196,1.139-2.084v-0.085c0-0.429-0.08-0.809-0.237-1.139c-0.159-0.329-0.46-0.638-0.906-0.924
			c-0.445-0.286-1.063-0.573-1.853-0.86c-0.791-0.286-1.817-0.586-3.082-0.902c-1.523-0.373-2.902-0.788-4.138-1.246
			c-1.236-0.458-2.284-1.024-3.146-1.698c-0.862-0.673-1.53-1.511-2.004-2.515c-0.475-1.002-0.711-2.249-0.711-3.739v-0.086
			c0-1.375,0.256-2.615,0.768-3.718c0.513-1.102,1.231-2.056,2.156-2.858c0.926-0.801,2.031-1.418,3.315-1.849
			c1.284-0.429,2.7-0.644,4.249-0.644c2.206,0,4.233,0.33,6.082,0.988c1.848,0.66,3.546,1.604,5.093,2.836l-3.438,4.986
			c-1.347-0.917-2.665-1.641-3.954-2.171c-1.29-0.531-2.579-0.796-3.868-0.796c-1.29,0-2.257,0.251-2.902,0.752
			c-0.645,0.502-0.968,1.126-0.968,1.871v0.085c0,0.488,0.094,0.911,0.28,1.269c0.187,0.358,0.524,0.681,1.013,0.967
			c0.488,0.286,1.157,0.559,2.004,0.816c0.848,0.258,1.918,0.559,3.211,0.902c1.523,0.402,2.879,0.853,4.073,1.354
			c1.192,0.501,2.197,1.103,3.017,1.805c0.818,0.703,1.437,1.526,1.854,2.472c0.416,0.946,0.624,2.079,0.624,3.396v0.086
			C83.635,37.079,83.365,38.404,82.823,39.564z"/>
		<path fill="#FFFFFF" d="M118.839,35.481c-0.803,1.877-1.913,3.524-3.331,4.943c-1.418,1.418-3.109,2.535-5.072,3.352
			c-1.964,0.817-4.105,1.225-6.426,1.225s-4.456-0.408-6.404-1.225c-1.949-0.817-3.632-1.919-5.051-3.31
			c-1.418-1.39-2.522-3.023-3.31-4.9c-0.79-1.877-1.183-3.89-1.183-6.04v-0.085c0-2.149,0.401-4.162,1.204-6.04
			c0.802-1.876,1.913-3.524,3.331-4.942c1.419-1.418,3.109-2.536,5.072-3.353c1.963-0.816,4.105-1.225,6.427-1.225
			c2.32,0,4.456,0.408,6.405,1.225c1.948,0.816,3.631,1.92,5.05,3.31c1.417,1.391,2.521,3.024,3.31,4.9
			c0.788,1.877,1.182,3.891,1.182,6.04v0.086C120.043,31.592,119.641,33.605,118.839,35.481z M113.122,29.442
			c0-1.29-0.222-2.507-0.667-3.654c-0.445-1.146-1.074-2.148-1.891-3.009c-0.817-0.86-1.785-1.541-2.901-2.042
			c-1.118-0.5-2.337-0.752-3.654-0.752c-1.348,0-2.572,0.244-3.675,0.731c-1.104,0.487-2.05,1.16-2.837,2.02
			c-0.789,0.859-1.404,1.855-1.849,2.988c-0.444,1.132-0.666,2.343-0.666,3.632v0.086c0,1.289,0.222,2.508,0.666,3.653
			c0.444,1.147,1.075,2.149,1.892,3.009c0.817,0.859,1.776,1.541,2.88,2.042c1.102,0.502,2.328,0.752,3.675,0.752
			c1.317,0,2.535-0.243,3.653-0.731c1.117-0.487,2.069-1.16,2.859-2.021c0.788-0.859,1.403-1.854,1.848-2.986
			c0.443-1.132,0.667-2.343,0.667-3.632V29.442z"/>
		<path fill="#FFFFFF" d="M147.035,44.486l-14.571-19.127v19.127h-6.535V14.398h6.104l14.098,18.525V14.398h6.534v30.088H147.035z"
			/>
		<path fill="#FFFFFF" d="M160.189,44.486V14.398h6.62v30.088H160.189z"/>
		<path fill="#FFFFFF" d="M200.893,35.375c-0.773,1.834-1.869,3.424-3.288,4.771c-1.418,1.347-3.109,2.407-5.072,3.181
			c-1.964,0.773-4.12,1.16-6.47,1.16H174.33V14.398h11.735c2.35,0,4.506,0.38,6.47,1.139c1.962,0.76,3.653,1.813,5.072,3.16
			c1.418,1.347,2.514,2.93,3.289,4.75c0.773,1.82,1.16,3.789,1.16,5.91v0.086C202.053,31.564,201.666,33.541,200.893,35.375z
			 M195.133,29.442c0-1.318-0.221-2.536-0.665-3.654c-0.445-1.117-1.061-2.077-1.85-2.879c-0.789-0.802-1.741-1.425-2.858-1.87
			c-1.117-0.444-2.351-0.667-3.697-0.667h-5.115v18.139h5.115c1.347,0,2.579-0.214,3.697-0.644c1.117-0.431,2.069-1.046,2.858-1.849
			c0.789-0.801,1.404-1.748,1.85-2.837c0.443-1.089,0.665-2.306,0.665-3.653V29.442z"/>
		<path fill="#FFFFFF" d="M237.386,35.481c-0.802,1.877-1.913,3.524-3.33,4.943c-1.419,1.418-3.111,2.535-5.073,3.352
			c-1.963,0.817-4.104,1.225-6.426,1.225s-4.457-0.408-6.404-1.225c-1.949-0.817-3.633-1.919-5.051-3.31
			c-1.419-1.39-2.521-3.023-3.31-4.9c-0.79-1.877-1.183-3.89-1.183-6.04v-0.085c0-2.149,0.402-4.162,1.203-6.04
			c0.802-1.876,1.912-3.524,3.332-4.942c1.418-1.418,3.107-2.536,5.072-3.353c1.963-0.816,4.104-1.225,6.426-1.225
			s4.455,0.408,6.404,1.225c1.949,0.816,3.631,1.92,5.049,3.31c1.421,1.391,2.523,3.024,3.312,4.9
			c0.788,1.877,1.183,3.891,1.183,6.04v0.086C238.59,31.592,238.189,33.605,237.386,35.481z M231.67,29.442
			c0-1.29-0.222-2.507-0.666-3.654c-0.445-1.146-1.074-2.148-1.892-3.009s-1.784-1.541-2.901-2.042
			c-1.117-0.5-2.336-0.752-3.652-0.752c-1.349,0-2.574,0.244-3.676,0.731c-1.104,0.487-2.049,1.16-2.838,2.02
			c-0.788,0.859-1.404,1.855-1.848,2.988c-0.445,1.132-0.667,2.343-0.667,3.632v0.086c0,1.289,0.222,2.508,0.667,3.653
			c0.443,1.147,1.074,2.149,1.891,3.009c0.817,0.859,1.777,1.541,2.881,2.042c1.103,0.502,2.328,0.752,3.674,0.752
			c1.318,0,2.537-0.243,3.654-0.731c1.117-0.487,2.07-1.16,2.858-2.021c0.787-0.859,1.403-1.854,1.849-2.986
			c0.444-1.132,0.666-2.343,0.666-3.632V29.442z"/>
		<path fill="#FFFFFF" d="M249.121,37.322V22.278h11.326v2.944h-8.06v3.052h7.093v2.944h-7.093v3.159h8.165v2.945L249.121,37.322
			L249.121,37.322z"/>
		<path fill="#FFFFFF" d="M49.292,78.786V48.698h6.62v30.088H49.292z"/>
		<path fill="#FFFFFF" d="M63.434,78.786V48.698h6.62v24.114h15.001v5.974H63.434z"/>
		<path fill="#FFFFFF" d="M114.863,71.652c-0.617,1.69-1.498,3.102-2.644,4.233c-1.146,1.132-2.535,1.978-4.169,2.535
			c-1.633,0.559-3.454,0.839-5.459,0.839c-4.04,0-7.22-1.117-9.542-3.352c-2.322-2.236-3.481-5.574-3.481-10.017V48.698h6.62v17.021
			c0,2.466,0.573,4.32,1.719,5.568c1.146,1.246,2.736,1.867,4.771,1.867c2.034,0,3.624-0.6,4.771-1.804
			c1.146-1.204,1.719-3.009,1.719-5.415V48.698h6.62v16.979C115.787,67.97,115.478,69.962,114.863,71.652z"/>
		<path fill="#FFFFFF" d="M146.091,78.786V59.142l-8.468,12.854h-0.172l-8.382-12.723v19.513h-6.534V48.698h7.136l7.909,12.723
			l7.91-12.723h7.135v30.088H146.091z"/>
		<path fill="#FFFFFF" d="M160.145,78.786V48.698h6.62v30.088H160.145z"/>
		<path fill="#FFFFFF" d="M195.393,78.786L180.82,59.66v19.126h-6.533V48.698h6.104l14.098,18.526V48.698h6.533v30.088H195.393z"/>
		<path fill="#FFFFFF" d="M230.639,78.786l-2.752-6.747h-12.721l-2.752,6.747h-6.747l12.894-30.303h6.105l12.895,30.303H230.639z
			 M221.528,56.435l-3.998,9.757h7.993L221.528,56.435z"/>
		<path fill="#FFFFFF" d="M266.229,76.165c-0.832,0.659-1.742,1.224-2.729,1.698c-0.989,0.473-2.073,0.831-3.245,1.074
			c-1.176,0.242-2.494,0.365-3.955,0.365c-2.206,0-4.255-0.4-6.146-1.203s-3.524-1.898-4.9-3.287
			c-1.375-1.391-2.45-3.031-3.224-4.923c-0.772-1.892-1.159-3.911-1.159-6.06v-0.086c0-2.149,0.387-4.162,1.159-6.04
			c0.773-1.876,1.849-3.524,3.224-4.942s3.024-2.536,4.943-3.353c1.92-0.816,4.04-1.225,6.361-1.225
			c1.403,0,2.686,0.115,3.848,0.344c1.16,0.23,2.213,0.544,3.158,0.946s1.819,0.888,2.623,1.461
			c0.801,0.574,1.547,1.204,2.234,1.892l-4.212,4.856c-1.175-1.059-2.372-1.89-3.59-2.492c-1.219-0.602-2.587-0.903-4.106-0.903
			c-1.259,0-2.426,0.244-3.502,0.731c-1.074,0.487-1.999,1.161-2.773,2.02c-0.773,0.86-1.374,1.856-1.804,2.988
			c-0.431,1.133-0.646,2.343-0.646,3.632v0.087c0,1.289,0.215,2.508,0.646,3.653c0.43,1.147,1.024,2.148,1.784,3.009
			c0.758,0.859,1.676,1.54,2.75,2.041c1.076,0.502,2.258,0.752,3.545,0.752c1.721,0,3.175-0.314,4.364-0.945
			c1.188-0.629,2.37-1.49,3.546-2.578l4.214,4.254C267.862,74.761,267.059,75.506,266.229,76.165z"/>
		<path fill="#FFFFFF" d="M274.221,78.786V48.698h6.621v30.088H274.221z"/>
		<path fill="#FFFFFF" d="M317.808,69.783c-0.802,1.876-1.912,3.523-3.33,4.942c-1.419,1.417-3.111,2.535-5.073,3.352
			c-1.963,0.817-4.104,1.225-6.426,1.225c-2.32,0-4.457-0.407-6.404-1.225c-1.949-0.816-3.633-1.919-5.05-3.31
			c-1.419-1.391-2.522-3.023-3.312-4.901c-0.789-1.875-1.182-3.889-1.182-6.038v-0.086c0-2.149,0.401-4.162,1.203-6.04
			c0.801-1.876,1.912-3.523,3.332-4.942c1.418-1.418,3.107-2.536,5.072-3.353c1.963-0.816,4.104-1.225,6.426-1.225
			c2.321,0,4.455,0.408,6.404,1.225c1.948,0.817,3.632,1.92,5.049,3.31c1.42,1.391,2.522,3.023,3.311,4.9
			c0.79,1.876,1.184,3.89,1.184,6.04v0.085C319.012,65.891,318.61,67.906,317.808,69.783z M312.092,63.742
			c0-1.289-0.223-2.506-0.668-3.652c-0.444-1.146-1.074-2.149-1.891-3.01c-0.817-0.86-1.783-1.54-2.902-2.042
			c-1.117-0.5-2.336-0.752-3.652-0.752c-1.348,0-2.573,0.244-3.676,0.731c-1.104,0.487-2.048,1.16-2.837,2.02
			c-0.788,0.859-1.403,1.855-1.848,2.988c-0.445,1.132-0.667,2.342-0.667,3.632v0.085c0,1.289,0.222,2.508,0.667,3.654
			c0.442,1.146,1.073,2.149,1.891,3.008c0.817,0.861,1.777,1.542,2.882,2.042c1.102,0.501,2.327,0.753,3.674,0.753
			c1.318,0,2.535-0.244,3.653-0.73c1.118-0.487,2.07-1.16,2.858-2.021c0.787-0.859,1.402-1.855,1.848-2.987s0.668-2.343,0.668-3.633
			V63.742z M300.699,46.334l4.858-7.609l5.632,2.451l-5.502,5.158H300.699z"/>
		<path fill="#FFFFFF" d="M346.005,78.786l-14.57-19.126v19.126H324.9V48.698h6.104l14.099,18.526V48.698h6.532v30.088H346.005z"/>
		<path fill="#FFFFFF" d="M159.09,91.429c-0.315,0.659-0.75,1.213-1.301,1.655c-0.552,0.444-1.197,0.777-1.934,0.999
			c-0.739,0.223-1.53,0.334-2.375,0.334h-2.514v4.514h-3.31V83.886h6.146c0.903,0,1.709,0.125,2.418,0.375
			c0.709,0.252,1.311,0.607,1.806,1.065c0.495,0.458,0.873,1.007,1.139,1.644c0.265,0.638,0.397,1.344,0.397,2.117v0.043
			C159.562,90.005,159.404,90.771,159.09,91.429z M156.208,89.152c0-0.744-0.239-1.311-0.72-1.697
			c-0.48-0.387-1.135-0.58-1.966-0.58h-2.558v4.6h2.623c0.831,0,1.476-0.219,1.934-0.656c0.459-0.437,0.687-0.977,0.687-1.623
			V89.152z"/>
		<path fill="#FFFFFF" d="M175.444,98.931l-3.223-4.814h-2.601v4.814h-3.31V83.886h6.878c1.791,0,3.184,0.438,4.18,1.311
			c0.995,0.875,1.493,2.092,1.493,3.654v0.043c0,1.219-0.298,2.212-0.891,2.977c-0.595,0.766-1.373,1.328-2.333,1.688l3.675,5.372
			L175.444,98.931L175.444,98.931z M175.509,89.023c0-0.717-0.229-1.254-0.688-1.611c-0.459-0.358-1.096-0.537-1.912-0.537h-3.289
			v4.319h3.353c0.816,0,1.442-0.194,1.88-0.581c0.437-0.387,0.655-0.902,0.655-1.547L175.509,89.023L175.509,89.023z"/>
		<path fill="#FFFFFF" d="M200.867,94.429c-0.4,0.938-0.956,1.762-1.664,2.471c-0.71,0.709-1.555,1.268-2.535,1.677
			c-0.982,0.408-2.053,0.612-3.213,0.612s-2.228-0.203-3.203-0.612c-0.975-0.409-1.816-0.96-2.526-1.655
			c-0.708-0.693-1.26-1.511-1.655-2.449c-0.394-0.938-0.59-1.945-0.59-3.02v-0.044c0-1.075,0.2-2.081,0.602-3.021
			c0.401-0.938,0.957-1.762,1.666-2.471c0.709-0.709,1.555-1.268,2.535-1.676c0.981-0.409,2.053-0.613,3.213-0.613
			c1.16,0,2.227,0.203,3.202,0.613c0.975,0.408,1.816,0.959,2.526,1.654c0.709,0.694,1.259,1.511,1.656,2.451
			c0.393,0.938,0.59,1.943,0.59,3.019v0.043C201.47,92.484,201.27,93.49,200.867,94.429z M198.011,91.409
			c0-0.646-0.112-1.255-0.333-1.827c-0.223-0.572-0.538-1.074-0.946-1.504c-0.408-0.43-0.892-0.771-1.449-1.021
			c-0.56-0.25-1.168-0.375-1.827-0.375c-0.674,0-1.287,0.123-1.838,0.365c-0.55,0.244-1.024,0.582-1.418,1.01
			c-0.394,0.43-0.702,0.928-0.924,1.494c-0.223,0.566-0.334,1.172-0.334,1.816v0.043c0,0.646,0.111,1.255,0.334,1.826
			c0.222,0.574,0.537,1.074,0.945,1.505c0.408,0.431,0.888,0.771,1.439,1.021c0.551,0.251,1.164,0.377,1.838,0.377
			c0.658,0,1.268-0.123,1.826-0.367c0.559-0.242,1.035-0.58,1.429-1.01c0.395-0.428,0.702-0.926,0.925-1.492
			c0.222-0.566,0.333-1.172,0.333-1.816V91.409L198.011,91.409z"/>
		<path fill="#FFFFFF" d="M212.023,86.875v3.245h7.179v2.987h-7.179v5.824h-3.309V83.886h11.455v2.988H212.023z"/>
		<path fill="#FFFFFF" d="M227.111,98.931V83.886h11.325v2.945h-8.061v3.052h7.094v2.944h-7.094v3.159h8.168v2.944H227.111z"/>
		<path fill="#FFFFFF" d="M256.276,96.47c-0.27,0.58-0.648,1.068-1.131,1.461c-0.484,0.395-1.063,0.695-1.732,0.902
			c-0.671,0.209-1.414,0.313-2.231,0.313c-1.147,0-2.271-0.197-3.375-0.59c-1.104-0.395-2.107-1-3.009-1.817l1.956-2.343
			c0.688,0.559,1.394,1.003,2.116,1.332c0.724,0.33,1.516,0.495,2.375,0.495c0.688,0,1.222-0.126,1.602-0.376
			c0.379-0.25,0.57-0.598,0.57-1.043v-0.043c0-0.216-0.041-0.404-0.119-0.569c-0.08-0.164-0.23-0.319-0.453-0.463
			s-0.531-0.286-0.926-0.431c-0.395-0.143-0.91-0.293-1.541-0.449c-0.762-0.186-1.451-0.396-2.068-0.623
			c-0.621-0.23-1.143-0.513-1.575-0.85c-0.432-0.337-0.765-0.756-1.003-1.257c-0.236-0.501-0.355-1.124-0.355-1.87v-0.044
			c0-0.688,0.128-1.307,0.385-1.858c0.256-0.553,0.615-1.029,1.078-1.431c0.463-0.399,1.016-0.708,1.658-0.923
			c0.641-0.216,1.35-0.324,2.123-0.324c1.104,0,2.117,0.166,3.042,0.495c0.923,0.331,1.772,0.803,2.546,1.419l-1.719,2.493
			c-0.674-0.458-1.331-0.819-1.978-1.085c-0.645-0.266-1.29-0.398-1.934-0.398s-1.129,0.127-1.45,0.377
			c-0.322,0.251-0.484,0.561-0.484,0.935v0.044c0,0.242,0.048,0.454,0.141,0.633c0.094,0.18,0.263,0.342,0.507,0.484
			c0.243,0.143,0.579,0.278,1.003,0.408c0.423,0.127,0.957,0.279,1.605,0.451c0.762,0.199,1.439,0.426,2.037,0.676
			c0.595,0.25,1.097,0.553,1.506,0.903c0.41,0.352,0.72,0.764,0.927,1.235c0.209,0.474,0.313,1.039,0.313,1.697v0.045
			C256.683,95.227,256.545,95.888,256.276,96.47z"/>
		<path fill="#FFFFFF" d="M264.01,98.931V83.886h3.311V98.93L264.01,98.931L264.01,98.931z"/>
		<path fill="#FFFFFF" d="M290.102,94.429c-0.402,0.938-0.957,1.762-1.665,2.471c-0.712,0.709-1.556,1.268-2.537,1.677
			s-2.052,0.612-3.212,0.612s-2.228-0.203-3.203-0.612c-0.975-0.409-1.816-0.96-2.525-1.655c-0.71-0.693-1.262-1.511-1.654-2.449
			c-0.396-0.938-0.592-1.945-0.592-3.02v-0.044c0-1.075,0.201-2.081,0.602-3.021c0.402-0.938,0.956-1.762,1.667-2.471
			c0.708-0.709,1.554-1.268,2.534-1.676c0.982-0.41,2.055-0.613,3.215-0.613s2.226,0.203,3.201,0.613
			c0.975,0.408,1.816,0.959,2.526,1.654c0.709,0.694,1.26,1.511,1.653,2.451c0.395,0.938,0.592,1.943,0.592,3.019v0.043
			C290.703,92.484,290.502,93.49,290.102,94.429z M287.242,91.409c0-0.646-0.111-1.255-0.332-1.827
			c-0.223-0.572-0.538-1.074-0.945-1.504c-0.408-0.43-0.893-0.771-1.451-1.021c-0.56-0.25-1.168-0.377-1.827-0.377
			c-0.675,0-1.286,0.123-1.837,0.367c-0.551,0.242-1.024,0.58-1.42,1.01c-0.395,0.43-0.702,0.928-0.924,1.492
			c-0.223,0.568-0.334,1.172-0.334,1.817v0.043c0,0.646,0.111,1.255,0.334,1.827c0.222,0.572,0.537,1.074,0.945,1.504
			s0.888,0.771,1.44,1.021c0.55,0.25,1.164,0.375,1.838,0.375c0.657,0,1.267-0.121,1.825-0.365c0.56-0.242,1.035-0.58,1.43-1.01
			c0.394-0.43,0.702-0.928,0.925-1.494c0.222-0.566,0.333-1.17,0.333-1.816V91.409L287.242,91.409z"/>
		<path fill="#FFFFFF" d="M308.498,98.931l-7.287-9.563v9.563h-3.266V83.886h3.052l7.049,9.262v-9.262h3.268V98.93L308.498,98.931
			L308.498,98.931z"/>
		<path fill="#FFFFFF" d="M330.418,98.931l-1.374-3.375h-6.362l-1.375,3.375h-3.375l6.449-15.152h3.052l6.448,15.152H330.418z
			 M325.863,87.755l-1.999,4.878h3.998L325.863,87.755z"/>
		<path fill="#FFFFFF" d="M340.499,98.931V83.886h3.309v12.057h7.501v2.988H340.499z"/>
	</g>
	<rect x="48.364" y="83.953" fill="#FFFFFF" width="92.543" height="14.945"/>
</g>
<polygon fill="#FFFFFF" points="362.551,50.66 368.727,50.66 379.949,64.205 368.727,77.749 362.551,77.75 373.774,64.205 "/>
<polygon fill="#FFFFFF" points="371.25,50.66 377.426,50.66 388.649,64.205 377.426,77.749 371.25,77.75 382.473,64.205 "/>
</svg>
