<?xml version="1.0" encoding="utf-8"?>
<!-- Generator: Adobe Illustrator 16.0.0, SVG Export Plug-In . SVG Version: 6.00 Build 0)  -->
<!DOCTYPE svg PUBLIC "-//W3C//DTD SVG 1.1//EN" "http://www.w3.org/Graphics/SVG/1.1/DTD/svg11.dtd">
<svg version="1.1" id="Capa_1" xmlns="http://www.w3.org/2000/svg" xmlns:xlink="http://www.w3.org/1999/xlink" x="0px" y="0px"
	 width="400px" height="114.667px" viewBox="0 0 400 114.667" enable-background="new 0 0 400 114.667" xml:space="preserve">
<g>
	<g>
		<path fill="#FFFFFF" d="M49.705,57.27c-0.422,0.906-1.011,1.667-1.767,2.282c-0.756,0.616-1.658,1.084-2.705,1.408
			c-1.047,0.324-2.208,0.486-3.483,0.486c-1.79,0-3.545-0.307-5.268-0.922c-1.722-0.615-3.288-1.561-4.696-2.835l3.052-3.657
			c1.073,0.873,2.175,1.567,3.305,2.08c1.13,0.515,2.366,0.772,3.707,0.772c1.073,0,1.907-0.196,2.499-0.587
			c0.593-0.391,0.889-0.934,0.889-1.627v-0.067c0-0.336-0.062-0.632-0.185-0.89c-0.124-0.256-0.359-0.497-0.707-0.721
			c-0.348-0.224-0.83-0.447-1.447-0.671c-0.617-0.224-1.418-0.458-2.406-0.705c-1.188-0.29-2.265-0.615-3.229-0.973
			c-0.964-0.357-1.782-0.799-2.455-1.325c-0.673-0.526-1.195-1.18-1.564-1.963c-0.371-0.782-0.555-1.755-0.555-2.919V44.37
			c0-1.074,0.2-2.04,0.6-2.902c0.4-0.86,0.96-1.604,1.683-2.231c0.722-0.626,1.584-1.107,2.587-1.443
			c1.002-0.336,2.107-0.503,3.314-0.503c1.723,0,3.305,0.257,4.748,0.772c1.442,0.514,2.767,1.252,3.975,2.214l-2.684,3.891
			c-1.052-0.715-2.08-1.28-3.086-1.694c-1.007-0.413-2.013-0.62-3.02-0.62c-1.006,0-1.761,0.195-2.265,0.587
			c-0.503,0.391-0.754,0.878-0.754,1.459v0.067c0,0.38,0.073,0.71,0.218,0.99c0.145,0.28,0.409,0.531,0.791,0.755
			c0.38,0.223,0.902,0.436,1.564,0.638c0.661,0.201,1.497,0.436,2.506,0.704c1.188,0.314,2.248,0.666,3.179,1.057
			c0.93,0.391,1.716,0.861,2.355,1.409c0.638,0.549,1.121,1.19,1.446,1.929c0.325,0.739,0.487,1.622,0.487,2.65v0.067
			C50.338,55.331,50.126,56.365,49.705,57.27z"/>
		<path fill="#FFFFFF" d="M77.814,54.083c-0.626,1.465-1.492,2.751-2.6,3.858c-1.108,1.106-2.427,1.979-3.958,2.616
			c-1.533,0.638-3.205,0.957-5.016,0.957c-1.812,0-3.478-0.319-4.998-0.957c-1.521-0.637-2.835-1.499-3.942-2.583
			c-1.107-1.084-1.969-2.359-2.583-3.825c-0.615-1.465-0.922-3.036-0.922-4.713V49.37c0-1.677,0.313-3.249,0.939-4.713
			c0.626-1.465,1.493-2.751,2.601-3.858c1.106-1.108,2.426-1.98,3.959-2.617c1.531-0.638,3.203-0.957,5.014-0.957
			c1.812,0,3.478,0.319,4.999,0.957c1.521,0.637,2.834,1.499,3.942,2.583s1.967,2.359,2.583,3.825
			c0.615,1.465,0.922,3.036,0.922,4.713v0.067C78.754,51.047,78.44,52.619,77.814,54.083z M73.352,49.37
			c0-1.006-0.173-1.957-0.52-2.851c-0.347-0.894-0.838-1.678-1.476-2.349c-0.637-0.67-1.393-1.202-2.264-1.594
			c-0.873-0.391-1.824-0.587-2.852-0.587c-1.051,0-2.007,0.19-2.869,0.57c-0.861,0.381-1.599,0.907-2.214,1.577
			c-0.616,0.67-1.096,1.448-1.442,2.332c-0.347,0.884-0.521,1.828-0.521,2.834v0.067c0,1.006,0.173,1.958,0.521,2.852
			c0.347,0.896,0.838,1.678,1.476,2.349c0.638,0.67,1.386,1.203,2.248,1.594c0.862,0.391,1.817,0.586,2.869,0.586
			c1.029,0,1.98-0.19,2.852-0.57c0.872-0.38,1.615-0.905,2.231-1.577c0.614-0.671,1.096-1.448,1.442-2.331
			c0.346-0.884,0.52-1.828,0.52-2.834V49.37z"/>
		<path fill="#FFFFFF" d="M99.151,61.111L87.777,46.183v14.928h-5.099V37.628h4.764l11.003,14.459V37.628h5.1v23.484h-4.395V61.111z
			"/>
		<path fill="#FFFFFF" d="M132.162,54.083c-0.626,1.465-1.492,2.751-2.601,3.858c-1.107,1.106-2.426,1.979-3.958,2.616
			c-1.532,0.638-3.204,0.957-5.015,0.957c-1.812,0-3.478-0.319-4.998-0.957c-1.521-0.637-2.835-1.499-3.943-2.583
			c-1.107-1.084-1.968-2.359-2.583-3.825c-0.615-1.465-0.922-3.036-0.922-4.713V49.37c0-1.677,0.313-3.249,0.939-4.713
			c0.626-1.465,1.493-2.751,2.6-3.858c1.107-1.108,2.426-1.98,3.958-2.617c1.531-0.638,3.204-0.957,5.015-0.957
			c1.812,0,3.478,0.319,4.999,0.957c1.521,0.637,2.834,1.499,3.941,2.583c1.107,1.084,1.968,2.359,2.583,3.825
			c0.615,1.465,0.922,3.036,0.922,4.713v0.067C133.101,51.047,132.787,52.619,132.162,54.083z M127.699,49.37
			c0-1.006-0.173-1.957-0.52-2.851c-0.348-0.894-0.839-1.678-1.477-2.349c-0.638-0.67-1.392-1.202-2.265-1.594
			c-0.872-0.391-1.823-0.587-2.851-0.587c-1.052,0-2.008,0.19-2.869,0.57c-0.86,0.381-1.599,0.907-2.214,1.577
			c-0.615,0.67-1.096,1.448-1.442,2.332c-0.347,0.884-0.521,1.828-0.521,2.834v0.067c0,1.006,0.173,1.958,0.521,2.852
			c0.346,0.896,0.837,1.678,1.475,2.349c0.637,0.67,1.386,1.203,2.249,1.594c0.861,0.391,1.816,0.586,2.869,0.586
			c1.029,0,1.98-0.19,2.852-0.57c0.873-0.38,1.615-0.905,2.231-1.577c0.615-0.671,1.096-1.448,1.443-2.331
			c0.346-0.884,0.52-1.828,0.52-2.834V49.37z"/>
		<path fill="#FFFFFF" d="M151.954,61.111l-5.032-7.514h-4.058v7.514h-5.167V37.628h10.735c2.796,0,4.97,0.683,6.524,2.046
			c1.555,1.365,2.332,3.266,2.332,5.703v0.067c0,1.902-0.464,3.45-1.392,4.647c-0.928,1.196-2.143,2.074-3.641,2.634l5.738,8.387
			h-6.04V61.111z M152.054,45.646c0-1.118-0.357-1.957-1.073-2.516c-0.715-0.56-1.711-0.839-2.986-0.839h-5.133v6.743h5.234
			c1.275,0,2.253-0.301,2.935-0.906c0.683-0.604,1.023-1.409,1.023-2.415V45.646L152.054,45.646z"/>
		<path fill="#FFFFFF" d="M162.186,61.111V37.628h5.167v23.484h-5.167V61.111z"/>
		<path fill="#FFFFFF" d="M172.519,61.111v-3.925l12.916-15.028h-12.513v-4.53h19.155v3.925l-12.915,15.03h12.915v4.528H172.519z"/>
		<path fill="#FFFFFF" d="M214.453,61.111l-2.146-5.266h-9.932l-2.146,5.266h-5.267l10.064-23.651h4.764l10.063,23.651H214.453z
			 M207.34,43.667l-3.119,7.615h6.239L207.34,43.667z"/>
		<path fill="#FFFFFF" d="M242.23,59.066c-0.649,0.514-1.358,0.955-2.13,1.324c-0.771,0.37-1.615,0.65-2.533,0.839
			c-0.917,0.189-1.945,0.286-3.086,0.286c-1.723,0-3.32-0.314-4.798-0.939c-1.476-0.627-2.75-1.481-3.825-2.567
			c-1.072-1.084-1.911-2.365-2.516-3.841c-0.604-1.476-0.904-3.054-0.904-4.73v-0.067c0-1.677,0.301-3.249,0.904-4.713
			c0.604-1.465,1.443-2.751,2.516-3.858c1.075-1.107,2.36-1.979,3.858-2.617c1.499-0.637,3.153-0.956,4.966-0.956
			c1.095,0,2.098,0.089,3.002,0.269c0.906,0.179,1.728,0.425,2.466,0.738c0.739,0.314,1.42,0.693,2.047,1.141
			c0.625,0.447,1.208,0.939,1.744,1.476l-3.287,3.791c-0.917-0.827-1.851-1.477-2.802-1.946c-0.951-0.47-2.019-0.705-3.205-0.705
			c-0.983,0-1.895,0.19-2.734,0.57c-0.838,0.381-1.56,0.906-2.163,1.577c-0.604,0.671-1.073,1.449-1.409,2.332
			c-0.336,0.884-0.503,1.828-0.503,2.834v0.067c0,1.006,0.167,1.957,0.503,2.852c0.336,0.896,0.799,1.678,1.393,2.349
			c0.593,0.67,1.309,1.203,2.146,1.594c0.839,0.391,1.762,0.586,2.768,0.586c1.342,0,2.477-0.246,3.405-0.738
			c0.929-0.491,1.852-1.163,2.769-2.013l3.287,3.321C243.504,57.97,242.879,58.551,242.23,59.066z"/>
		<path fill="#FFFFFF" d="M248.471,61.111V37.628h5.166v23.484h-5.166V61.111z"/>
		<path fill="#FFFFFF" d="M282.488,54.083c-0.626,1.465-1.492,2.751-2.6,3.858c-1.107,1.106-2.427,1.979-3.959,2.616
			c-1.532,0.638-3.204,0.957-5.015,0.957c-1.812,0-3.479-0.319-4.999-0.957c-1.521-0.637-2.835-1.499-3.942-2.583
			c-1.106-1.084-1.968-2.359-2.583-3.825c-0.615-1.465-0.923-3.036-0.923-4.713V49.37c0-1.677,0.313-3.249,0.939-4.713
			c0.626-1.465,1.493-2.751,2.601-3.858c1.107-1.108,2.425-1.98,3.958-2.617c1.532-0.638,3.205-0.957,5.016-0.957
			s3.477,0.319,4.998,0.957c1.521,0.637,2.835,1.499,3.943,2.583c1.106,1.084,1.967,2.359,2.583,3.825
			c0.614,1.465,0.921,3.036,0.921,4.713v0.067C283.426,51.047,283.114,52.619,282.488,54.083z M278.026,49.37
			c0-1.006-0.174-1.957-0.519-2.851c-0.347-0.894-0.839-1.678-1.476-2.349c-0.638-0.67-1.393-1.202-2.266-1.594
			c-0.871-0.391-1.824-0.587-2.852-0.587c-1.051,0-2.006,0.19-2.867,0.57c-0.861,0.381-1.6,0.907-2.215,1.577
			c-0.614,0.67-1.096,1.448-1.441,2.332c-0.348,0.884-0.52,1.828-0.52,2.834v0.067c0,1.006,0.172,1.958,0.52,2.852
			c0.346,0.896,0.838,1.678,1.477,2.349c0.637,0.67,1.386,1.203,2.246,1.594c0.862,0.391,1.818,0.586,2.869,0.586
			c1.028,0,1.98-0.19,2.852-0.57c0.871-0.38,1.615-0.905,2.23-1.577c0.615-0.671,1.096-1.448,1.443-2.331
			c0.346-0.884,0.519-1.828,0.519-2.834L278.026,49.37L278.026,49.37z M269.136,35.783l3.791-5.938l4.396,1.913l-4.295,4.026
			H269.136z"/>
		<path fill="#FFFFFF" d="M304.494,61.111l-11.373-14.928v14.928h-5.099V37.628h4.764l11.003,14.459V37.628h5.1v23.484h-4.395
			V61.111z"/>
		<path fill="#FFFFFF" d="M82.568,80.882V67.197h10.303v2.678H85.54v2.778h6.452v2.678H85.54v2.874h7.429v2.678H82.568
			L82.568,80.882z"/>
		<path fill="#FFFFFF" d="M102.685,80.98h-2.659l-5.533-13.783h3.324l3.578,9.64l3.578-9.64h3.246L102.685,80.98z"/>
		<path fill="#FFFFFF" d="M110.329,80.882V67.197h10.303v2.678h-7.331v2.778h6.451v2.678h-6.451v2.874h7.429v2.678H110.329
			L110.329,80.882z"/>
		<path fill="#FFFFFF" d="M133.027,80.882l-6.627-8.699v8.699h-2.972V67.197h2.776l6.412,8.428v-8.428h2.972v13.686H133.027z"/>
		<path fill="#FFFFFF" d="M145.07,69.973v10.909h-3.01V69.973h-4.164v-2.776h11.339v2.776H145.07z"/>
		<path fill="#FFFFFF" d="M164.932,76.787c-0.365,0.854-0.87,1.604-1.516,2.248c-0.645,0.646-1.415,1.153-2.307,1.525
			c-0.893,0.371-1.867,0.558-2.923,0.558c-1.055,0-2.026-0.187-2.913-0.558c-0.887-0.372-1.652-0.873-2.298-1.506
			c-0.645-0.632-1.147-1.373-1.505-2.229c-0.359-0.853-0.537-1.768-0.537-2.746v-0.038c0-0.978,0.182-1.896,0.547-2.747
			c0.365-0.854,0.871-1.604,1.516-2.248c0.645-0.646,1.415-1.153,2.307-1.525c0.892-0.371,1.868-0.557,2.922-0.557
			c1.055,0,2.026,0.187,2.913,0.557c0.886,0.372,1.651,0.871,2.297,1.504c0.645,0.633,1.146,1.375,1.505,2.23
			c0.358,0.853,0.537,1.768,0.537,2.745v0.04C165.479,75.017,165.297,75.933,164.932,76.787z M162.332,74.041
			c0-0.588-0.102-1.141-0.303-1.662s-0.489-0.978-0.86-1.369c-0.372-0.391-0.811-0.701-1.32-0.928
			c-0.508-0.229-1.063-0.342-1.661-0.342c-0.613,0-1.17,0.111-1.672,0.332c-0.502,0.224-0.932,0.528-1.29,0.92
			c-0.359,0.391-0.639,0.844-0.841,1.359c-0.203,0.514-0.302,1.065-0.302,1.65v0.04c0,0.585,0.1,1.142,0.302,1.661
			c0.202,0.521,0.489,0.977,0.86,1.367c0.372,0.391,0.809,0.701,1.31,0.93c0.502,0.229,1.06,0.341,1.672,0.341
			c0.6,0,1.153-0.109,1.662-0.332c0.508-0.221,0.94-0.528,1.3-0.918c0.357-0.392,0.638-0.845,0.841-1.36
			c0.203-0.514,0.303-1.065,0.303-1.651L162.332,74.041L162.332,74.041z"/>
		<path fill="#FFFFFF" d="M177.681,78.644c-0.247,0.527-0.589,0.971-1.029,1.33c-0.44,0.357-0.965,0.633-1.576,0.82
			c-0.61,0.189-1.287,0.283-2.029,0.283c-1.043,0-2.066-0.18-3.07-0.537c-1.003-0.359-1.916-0.908-2.737-1.652l1.779-2.13
			c0.626,0.508,1.268,0.911,1.927,1.212c0.657,0.299,1.379,0.448,2.161,0.448c0.625,0,1.111-0.112,1.456-0.343
			c0.345-0.227,0.518-0.542,0.518-0.947V77.09c0-0.196-0.036-0.368-0.108-0.519c-0.072-0.15-0.208-0.29-0.411-0.422
			c-0.203-0.128-0.484-0.258-0.843-0.39c-0.359-0.128-0.827-0.267-1.402-0.409c-0.692-0.168-1.32-0.358-1.882-0.567
			c-0.563-0.208-1.039-0.465-1.431-0.771c-0.392-0.306-0.696-0.688-0.912-1.145s-0.323-1.022-0.323-1.7v-0.039
			c0-0.627,0.116-1.188,0.35-1.692c0.232-0.501,0.56-0.936,0.981-1.299c0.42-0.364,0.923-0.646,1.507-0.841s1.229-0.293,1.933-0.293
			c1.003,0,1.926,0.15,2.766,0.449c0.841,0.301,1.612,0.729,2.317,1.291l-1.564,2.268c-0.612-0.417-1.212-0.746-1.799-0.986
			c-0.586-0.241-1.173-0.362-1.759-0.362c-0.587,0-1.027,0.114-1.321,0.341c-0.293,0.229-0.44,0.513-0.44,0.851v0.04
			c0,0.221,0.042,0.413,0.127,0.576c0.085,0.162,0.238,0.311,0.461,0.44c0.222,0.131,0.526,0.254,0.911,0.372
			c0.386,0.115,0.873,0.254,1.46,0.41c0.693,0.182,1.31,0.389,1.853,0.615c0.542,0.229,1,0.502,1.373,0.822
			c0.372,0.318,0.653,0.693,0.842,1.123c0.189,0.431,0.284,0.945,0.284,1.545v0.039C178.05,77.513,177.927,78.117,177.681,78.644z"
			/>
		<path fill="#FFFFFF" d="M193.397,75.428v5.454h-3.01v-5.396l-5.26-8.289h3.519l3.265,5.494l3.324-5.494h3.421L193.397,75.428z"/>
		<path fill="#FFFFFF" d="M206.397,80.882V67.197h10.303v2.678h-7.332v2.778h6.451v2.678h-6.451v2.874h7.429v2.678H206.397
			L206.397,80.882z"/>
		<path fill="#FFFFFF" d="M229.018,78.644c-0.246,0.527-0.589,0.971-1.029,1.33c-0.441,0.358-0.967,0.633-1.576,0.82
			c-0.611,0.189-1.288,0.283-2.031,0.283c-1.043,0-2.064-0.18-3.068-0.537c-1.004-0.359-1.915-0.908-2.736-1.652l1.779-2.13
			c0.624,0.508,1.267,0.911,1.926,1.212c0.657,0.299,1.377,0.448,2.16,0.448c0.625,0,1.111-0.112,1.456-0.343
			c0.345-0.227,0.519-0.542,0.519-0.947V77.09c0-0.196-0.037-0.368-0.108-0.519c-0.072-0.15-0.209-0.29-0.411-0.422
			c-0.202-0.128-0.483-0.258-0.844-0.39c-0.359-0.128-0.826-0.267-1.4-0.409c-0.693-0.168-1.32-0.358-1.882-0.567
			c-0.562-0.208-1.04-0.465-1.433-0.771c-0.391-0.306-0.693-0.688-0.91-1.145c-0.215-0.456-0.324-1.022-0.324-1.7v-0.039
			c0-0.627,0.117-1.188,0.35-1.692c0.232-0.501,0.561-0.936,0.98-1.299c0.422-0.364,0.924-0.646,1.508-0.841
			s1.228-0.293,1.932-0.293c1.004,0,1.927,0.15,2.767,0.449c0.841,0.301,1.612,0.729,2.317,1.291l-1.565,2.268
			c-0.612-0.417-1.212-0.746-1.797-0.986c-0.587-0.241-1.174-0.362-1.76-0.362c-0.587,0-1.026,0.114-1.319,0.341
			c-0.295,0.227-0.441,0.513-0.441,0.851v0.04c0,0.221,0.043,0.413,0.128,0.576c0.085,0.162,0.238,0.311,0.46,0.44
			c0.223,0.131,0.526,0.254,0.912,0.372c0.385,0.115,0.871,0.254,1.46,0.41c0.691,0.182,1.31,0.389,1.853,0.615
			c0.543,0.229,1,0.502,1.373,0.822c0.371,0.318,0.652,0.693,0.842,1.123c0.188,0.431,0.285,0.945,0.285,1.545v0.039
			C229.387,77.513,229.263,78.117,229.018,78.644z"/>
		<path fill="#FFFFFF" d="M242.406,74.058c-0.287,0.602-0.682,1.104-1.184,1.506c-0.5,0.406-1.088,0.707-1.76,0.91
			c-0.67,0.201-1.391,0.301-2.159,0.301h-2.286v4.105h-3.012V67.196h5.592c0.82,0,1.555,0.114,2.199,0.342
			c0.646,0.229,1.192,0.55,1.643,0.968c0.449,0.417,0.796,0.916,1.035,1.496c0.242,0.579,0.363,1.222,0.363,1.926v0.038
			C242.837,72.762,242.694,73.459,242.406,74.058z M239.787,71.987c0-0.677-0.219-1.192-0.656-1.544
			c-0.436-0.352-1.033-0.527-1.788-0.527h-2.325v4.184h2.385c0.756,0,1.342-0.199,1.76-0.596c0.417-0.399,0.625-0.89,0.625-1.475
			V71.987z"/>
		<path fill="#FFFFFF" d="M245.067,80.882V67.197h10.301v2.678h-7.33v2.778h6.451v2.678h-6.451v2.874h7.429v2.678H245.067
			L245.067,80.882z"/>
		<path fill="#FFFFFF" d="M269.094,79.69c-0.379,0.301-0.793,0.558-1.242,0.772s-0.941,0.377-1.477,0.486
			c-0.534,0.113-1.133,0.168-1.799,0.168c-1.003,0-1.934-0.184-2.795-0.549c-0.86-0.365-1.604-0.863-2.227-1.496
			c-0.627-0.632-1.116-1.377-1.469-2.237c-0.352-0.861-0.527-1.78-0.527-2.757v-0.039c0-0.978,0.176-1.895,0.527-2.747
			c0.353-0.853,0.842-1.604,1.469-2.248c0.623-0.646,1.373-1.153,2.247-1.526c0.874-0.369,1.838-0.556,2.894-0.556
			c0.639,0,1.223,0.052,1.75,0.156s1.008,0.247,1.438,0.431c0.429,0.183,0.827,0.404,1.19,0.664
			c0.366,0.263,0.704,0.548,1.017,0.861l-1.916,2.209c-0.534-0.48-1.078-0.86-1.633-1.135c-0.553-0.273-1.176-0.408-1.866-0.408
			c-0.573,0-1.104,0.11-1.593,0.332c-0.489,0.222-0.908,0.527-1.26,0.919c-0.353,0.39-0.627,0.843-0.823,1.358
			c-0.194,0.514-0.293,1.065-0.293,1.651v0.04c0,0.586,0.099,1.141,0.293,1.662c0.196,0.521,0.468,0.977,0.812,1.367
			c0.346,0.391,0.762,0.701,1.252,0.929c0.488,0.229,1.027,0.342,1.612,0.342c0.782,0,1.443-0.143,1.985-0.431
			c0.539-0.285,1.078-0.678,1.612-1.172l1.915,1.936C269.836,79.05,269.471,79.39,269.094,79.69z"/>
		<path fill="#FFFFFF" d="M278.789,69.973v10.909h-3.01V69.973h-4.164v-2.776h11.339v2.776H278.789z"/>
		<path fill="#FFFFFF" d="M295.448,80.882l-1.252-3.07h-5.787l-1.252,3.07h-3.069l5.865-13.783h2.776l5.865,13.783H295.448z
			 M291.302,70.716l-1.818,4.438h3.636L291.302,70.716z M290.09,66.122l2.209-3.459l2.561,1.114l-2.502,2.345H290.09z"/>
		<path fill="#FFFFFF" d="M311.634,79.69c-0.378,0.301-0.792,0.558-1.241,0.772s-0.941,0.377-1.477,0.486
			c-0.534,0.113-1.134,0.168-1.799,0.168c-1.004,0-1.934-0.184-2.795-0.549c-0.86-0.365-1.604-0.863-2.228-1.496
			c-0.626-0.632-1.116-1.377-1.468-2.237c-0.352-0.861-0.527-1.78-0.527-2.757v-0.039c0-0.978,0.176-1.895,0.527-2.747
			s0.841-1.604,1.468-2.248c0.624-0.646,1.374-1.153,2.247-1.526c0.874-0.369,1.838-0.556,2.895-0.556
			c0.639,0,1.222,0.052,1.75,0.156c0.527,0.104,1.008,0.247,1.437,0.431c0.429,0.183,0.827,0.404,1.19,0.664
			c0.367,0.263,0.705,0.548,1.018,0.861l-1.916,2.209c-0.534-0.48-1.079-0.86-1.633-1.135c-0.553-0.273-1.176-0.408-1.867-0.408
			c-0.573,0-1.104,0.11-1.592,0.332c-0.489,0.222-0.908,0.527-1.261,0.919c-0.353,0.39-0.626,0.843-0.822,1.358
			c-0.194,0.514-0.294,1.065-0.294,1.651v0.04c0,0.586,0.099,1.141,0.294,1.662c0.196,0.521,0.468,0.977,0.812,1.367
			c0.346,0.391,0.762,0.701,1.252,0.929c0.488,0.229,1.027,0.342,1.611,0.342c0.783,0,1.443-0.143,1.985-0.431
			c0.54-0.285,1.079-0.678,1.612-1.172l1.916,1.936C312.377,79.05,312.012,79.39,311.634,79.69z"/>
		<path fill="#FFFFFF" d="M326.422,77.636c-0.279,0.771-0.681,1.411-1.202,1.926c-0.521,0.517-1.151,0.9-1.896,1.154
			c-0.742,0.252-1.57,0.381-2.482,0.381c-1.838,0-3.285-0.508-4.34-1.525c-1.057-1.016-1.584-2.535-1.584-4.555v-7.82h3.012v7.742
			c0,1.121,0.26,1.965,0.781,2.531c0.521,0.568,1.245,0.852,2.171,0.852c0.925,0,1.647-0.273,2.17-0.821s0.782-1.368,0.782-2.464
			v-7.84h3.01v7.724C326.843,75.962,326.702,76.868,326.422,77.636z"/>
		<path fill="#FFFFFF" d="M329.912,80.882V67.197h3.011v10.968h6.823v2.718H329.912L329.912,80.882z"/>
		<path fill="#FFFFFF" d="M355.406,76.787c-0.365,0.854-0.871,1.604-1.516,2.248c-0.645,0.646-1.414,1.153-2.307,1.525
			c-0.893,0.371-1.867,0.558-2.923,0.558s-2.026-0.187-2.913-0.558c-0.887-0.372-1.651-0.873-2.297-1.506
			c-0.646-0.632-1.146-1.373-1.506-2.229c-0.357-0.853-0.537-1.768-0.537-2.746v-0.038c0-0.978,0.183-1.896,0.548-2.747
			c0.364-0.854,0.87-1.604,1.515-2.248c0.645-0.646,1.414-1.153,2.307-1.525c0.893-0.371,1.867-0.557,2.922-0.557
			c1.057,0,2.027,0.187,2.914,0.557c0.887,0.372,1.651,0.871,2.297,1.504s1.146,1.375,1.506,2.23
			c0.357,0.853,0.537,1.768,0.537,2.745v0.04C355.953,75.017,355.77,75.933,355.406,76.787z M352.805,74.041
			c0-0.588-0.1-1.141-0.302-1.662s-0.489-0.978-0.86-1.369c-0.373-0.391-0.812-0.701-1.32-0.928
			c-0.508-0.229-1.063-0.342-1.662-0.342c-0.612,0-1.17,0.111-1.672,0.332c-0.501,0.224-0.932,0.528-1.289,0.92
			c-0.359,0.391-0.64,0.844-0.842,1.359c-0.201,0.514-0.303,1.065-0.303,1.65v0.04c0,0.585,0.102,1.142,0.303,1.661
			c0.202,0.521,0.489,0.977,0.86,1.367c0.372,0.391,0.809,0.701,1.31,0.93c0.502,0.229,1.06,0.341,1.672,0.341
			c0.6,0,1.154-0.109,1.662-0.332c0.509-0.221,0.941-0.528,1.3-0.918c0.358-0.392,0.638-0.845,0.841-1.36
			c0.201-0.514,0.303-1.065,0.303-1.651V74.041L352.805,74.041z"/>
		<path fill="#FFFFFF" d="M368.155,78.644c-0.245,0.527-0.589,0.971-1.029,1.33c-0.441,0.358-0.967,0.633-1.576,0.82
			c-0.611,0.189-1.287,0.283-2.03,0.283c-1.043,0-2.065-0.18-3.068-0.537c-1.005-0.359-1.916-0.908-2.737-1.652l1.779-2.13
			c0.625,0.508,1.267,0.911,1.926,1.212c0.657,0.299,1.378,0.448,2.16,0.448c0.625,0,1.111-0.112,1.457-0.343
			c0.344-0.227,0.518-0.542,0.518-0.947V77.09c0-0.196-0.037-0.368-0.108-0.519s-0.209-0.29-0.411-0.422
			c-0.202-0.128-0.483-0.258-0.843-0.39c-0.359-0.128-0.827-0.267-1.401-0.409c-0.692-0.168-1.32-0.358-1.882-0.567
			c-0.562-0.208-1.039-0.465-1.431-0.771c-0.393-0.306-0.695-0.688-0.912-1.145c-0.215-0.456-0.323-1.022-0.323-1.7v-0.039
			c0-0.627,0.117-1.188,0.35-1.692c0.232-0.501,0.56-0.936,0.979-1.299c0.422-0.364,0.924-0.646,1.508-0.841
			s1.229-0.293,1.932-0.293c1.004,0,1.927,0.15,2.768,0.449c0.84,0.301,1.612,0.729,2.316,1.291l-1.564,2.268
			c-0.612-0.417-1.212-0.746-1.798-0.986c-0.586-0.241-1.174-0.362-1.76-0.362s-1.026,0.114-1.319,0.341s-0.44,0.513-0.44,0.851
			v0.04c0,0.221,0.042,0.413,0.127,0.576c0.085,0.162,0.238,0.311,0.461,0.44c0.222,0.131,0.525,0.254,0.911,0.372
			c0.385,0.115,0.871,0.254,1.461,0.41c0.691,0.182,1.309,0.389,1.854,0.615c0.541,0.229,0.999,0.502,1.371,0.822
			c0.372,0.318,0.654,0.693,0.842,1.123c0.189,0.431,0.285,0.945,0.285,1.545v0.039C368.524,77.513,368.401,78.117,368.155,78.644z"
			/>
	</g>
	<g>
		<rect x="33.146" y="67.345" fill="#FFFFFF" width="43.563" height="13.477"/>
	</g>
	<g>
		<path fill="#FFFFFF" d="M322.201,58.551c-0.214,0.508-0.517,0.948-0.91,1.321c-0.393,0.372-0.861,0.666-1.402,0.88
			c-0.545,0.214-1.141,0.321-1.792,0.321h-3.248v-8.33h3.248c0.651,0,1.248,0.105,1.792,0.315c0.543,0.21,1.01,0.502,1.402,0.874
			c0.394,0.373,0.696,0.812,0.91,1.316c0.215,0.503,0.32,1.048,0.32,1.636v0.023C322.522,57.496,322.416,58.043,322.201,58.551z
			 M320.607,56.908c0-0.365-0.062-0.702-0.185-1.011c-0.123-0.31-0.294-0.576-0.512-0.797c-0.22-0.222-0.48-0.395-0.793-0.517
			c-0.309-0.123-0.65-0.184-1.021-0.184h-1.416v5.021h1.416c0.372,0,0.713-0.059,1.021-0.178c0.311-0.119,0.573-0.291,0.793-0.512
			c0.218-0.224,0.389-0.484,0.512-0.786c0.123-0.301,0.185-0.639,0.185-1.011V56.908z"/>
		<path fill="#FFFFFF" d="M324.629,61.074v-8.33h6.271v1.631h-4.463v1.689h3.928v1.631h-3.928v1.749h4.522v1.63H324.629z"/>
	</g>
</g>
<polygon fill="#FFFFFF" points="370.801,60.495 376.977,60.495 388.199,74.04 376.977,87.583 370.801,87.584 382.024,74.04 "/>
<polygon fill="#FFFFFF" points="379.5,60.495 385.676,60.495 396.899,74.04 385.676,87.583 379.5,87.584 390.723,74.04 "/>
</svg>
