<?xml version="1.0" encoding="utf-8"?>
<!-- Generator: Adobe Illustrator 16.0.0, SVG Export Plug-In . SVG Version: 6.00 Build 0)  -->
<!DOCTYPE svg PUBLIC "-//W3C//DTD SVG 1.1//EN" "http://www.w3.org/Graphics/SVG/1.1/DTD/svg11.dtd">
<svg version="1.1" id="Capa_1" xmlns="http://www.w3.org/2000/svg" xmlns:xlink="http://www.w3.org/1999/xlink" x="0px" y="0px"
	 width="400px" height="400px" viewBox="0 0 400 400" enable-background="new 0 0 400 400" xml:space="preserve">
<g id="Capa_1_1_" display="none">
	<g id="XMLID_1169_" display="inline">
		<g id="XMLID_1171_">
			<path fill="#FFFFFF" d="M199.894,233.936c-24.87,0-44.796-11.277-57.627-32.615c-6.393-10.632-9.482-21.19-10.849-27.17
				c-7.322-0.868-12.875-10.113-17.402-28.897c-3.642-15.116-3.129-25.362,1.567-31.325c1.612-2.047,3.468-3.244,5.172-3.938
				c-3.727-27.83-0.062-49.891,10.913-65.624c4.4-6.311,9.221-10.379,13.045-12.905c-6.396-6.964-6.787-15.261-6.803-15.697
				l-0.214-5.813l5.734,0.983c0.154,0.026,15.594,2.634,34.498,2.634c9.829,0,18.885-0.697,26.916-2.071
				c2.457-0.42,4.915-0.633,7.307-0.633c23.342,0,36.143,19.461,40.153,26.833c8.277,0.553,14.981,3.954,19.954,10.13
				c13.324,16.552,9.62,48.984,7.508,61.736c1.771,0.669,3.354,1.805,4.633,3.352c4.392,5.306,5.137,15.167,2.281,30.147
				c-3.635,19.087-9.77,28.931-18.239,29.272c-1.372,6.157-4.466,17.013-10.85,27.951
				C244.744,222.299,224.792,233.936,199.894,233.936z M138.693,157.81l1.141,10.115c0.02,0.138,2.094,14.619,10.688,28.779
				c11.188,18.435,27.799,27.778,49.373,27.778c21.653,0,38.319-9.744,49.537-28.964c8.559-14.664,10.581-29.398,10.602-29.546
				l1.234-9.349l6.285,6.17c0.094,0.041,0.252,0.095,0.433,0.095c1.475,0,6.039-3.88,9.414-21.599
				c3.164-16.604,0.587-21.307-0.277-22.353c-0.373-0.45-0.72-0.625-1.232-0.625c-0.13,0-0.236,0.013-0.303,0.023l-8.308,3.493
				l2.272-9.016c2.54-11.668,6.656-45.025-4.657-59.067c-3.622-4.495-8.542-6.68-15.042-6.68l-3.557,0.049l-1.264-2.867
				c-0.103-0.23-10.919-23.934-32.879-23.934c-1.858,0-3.78,0.167-5.713,0.498c-8.555,1.464-18.146,2.207-28.509,2.208
				c-11.894,0-22.314-0.964-28.868-1.755c1.186,2.367,3.188,4.996,6.565,6.944l9.258,5.341l-10.181,3.253
				c-0.052,0.018-8.541,2.972-15.679,13.544c-9.66,14.309-12.519,36-8.266,62.731l1.097,6.896l-6.395-1.462
				c-0.732,0.01-1.652,0.247-2.454,1.266c-1.246,1.581-3.719,7.012,0.196,23.262c4.126,17.121,8.084,20.848,9.171,21.575
				L138.693,157.81z"/>
		</g>
		<g id="XMLID_1170_">
			<path fill="#FFFFFF" d="M200.009,389.096c-0.013,0.002-0.01,0-0.023,0c-104.155-0.005-149.424-35.767-151.3-37.287l-1.123-0.912
				l-0.421-1.383c-5.74-18.859-3.42-38.166-3.317-38.979c4.797-37.977,31.247-50.27,50.562-59.246
				c1.119-0.52,2.224-1.034,3.31-1.544c19.647-9.247,45.427-24.452,45.686-24.604l5.085-3.004l30.971,95.857l8.058-19.248
				c-4.365-4.925-13.354-16.83-13.354-31.339c0-5.657,1.98-10.438,5.729-13.82c6.918-6.247,17.486-5.894,20.131-5.692
				c2.641-0.197,13.214-0.554,20.132,5.692c3.747,3.384,5.729,8.163,5.729,13.82c0,14.509-8.989,26.414-13.354,31.34l8.058,19.247
				l30.972-95.857l5.085,3.004c0.259,0.151,26.036,15.356,45.685,24.604c1.086,0.511,2.19,1.024,3.312,1.545
				c19.314,8.978,45.769,21.271,50.563,59.237c0.102,0.82,2.423,20.127-3.323,38.986l-0.422,1.383l-1.122,0.91
				C349.431,353.33,304.162,389.091,200.009,389.096L200.009,389.096z M55.756,345.291c7.458,5.307,52.518,34.35,144.242,34.354
				c91.703-0.004,136.764-29.037,144.239-34.354c4.614-16.503,2.581-33.408,2.561-33.583c-4.142-32.778-25.938-42.908-45.168-51.846
				c-1.136-0.527-2.253-1.047-3.354-1.565c-14.722-6.928-32.729-17.083-41.368-22.055L221.704,345.2l-20.371-48.657l2.376-2.245
				c0.121-0.114,12.696-12.264,12.696-26.89c0-2.993-0.854-5.219-2.609-6.805c-3.757-3.394-11.066-3.494-13.328-3.264l-0.305-2.979
				l-0.153,3.005l-0.166-3.104l-0.315,3.079c-2.437-0.231-9.621-0.104-13.346,3.279c-1.744,1.585-2.592,3.805-2.592,6.788
				c0,14.626,12.577,26.775,12.704,26.896l2.355,2.243l-1.25,3.009L178.292,345.2l-35.204-108.959
				c-8.639,4.972-26.647,15.127-41.369,22.055c-1.1,0.519-2.218,1.037-3.351,1.563c-19.23,8.938-41.026,19.067-45.167,51.854
				C53.182,311.878,51.169,328.852,55.756,345.291z"/>
		</g>
	</g>
</g>
<g id="Capa_2" display="none">
	<g display="inline">
		<g id="XMLID_1179_">
			<g id="XMLID_1190_">
				<path fill="#FFFFFF" d="M139.786,268.048c-1.997,0-3.812-1.354-4.311-3.38c-0.588-2.383,0.867-4.79,3.249-5.378l53.536-13.208
					c2.384-0.585,4.79,0.867,5.377,3.25c0.588,2.382-0.867,4.79-3.249,5.378l-53.535,13.208
					C140.497,268.006,140.138,268.048,139.786,268.048z"/>
			</g>
			<g id="XMLID_1189_">
				<path fill="#FFFFFF" d="M140.237,256.08c-0.04,0-0.078-0.001-0.117-0.002c-2.453-0.063-4.391-2.104-4.326-4.557
					c0.396-15.299-9.522-31.28-18.938-41.137c-9.814-10.274-16.745-22.777-17.035-23.304c-0.021-0.041-0.044-0.082-0.064-0.123
					c-5.9-11.561-8.892-24.047-8.892-37.111c0-45.056,36.657-81.711,81.716-81.711c32.913,0,62.465,19.588,75.287,49.904
					c0.955,2.26-0.102,4.867-2.36,5.823s-4.867-0.102-5.823-2.361c-11.428-27.02-37.768-44.479-67.104-44.479
					c-40.158,0-72.83,32.669-72.83,72.826c0,11.621,2.652,22.724,7.886,33.002c0.498,0.89,6.965,12.311,15.646,21.397
					c10.65,11.148,21.863,29.482,21.396,47.506C144.613,254.166,142.637,256.08,140.237,256.08z"/>
			</g>
			<g id="XMLID_1188_">
				<path fill="#FFFFFF" d="M137.351,291.092c-1.955,0-3.745-1.3-4.284-3.275c-0.646-2.367,0.751-4.811,3.119-5.455l56.082-15.279
					c2.366-0.643,4.81,0.753,5.454,3.119c0.646,2.367-0.751,4.811-3.119,5.455l-56.082,15.279
					C138.13,291.041,137.737,291.092,137.351,291.092z"/>
			</g>
			<g id="XMLID_1187_">
				<path fill="#FFFFFF" d="M137.351,314.578c-1.955,0-3.745-1.301-4.284-3.276c-0.646-2.366,0.751-4.81,3.118-5.454l55.862-15.225
					c2.368-0.641,4.81,0.752,5.455,3.119c0.645,2.367-0.751,4.81-3.118,5.455l-55.862,15.224
					C138.13,314.525,137.737,314.578,137.351,314.578z"/>
			</g>
			<g id="XMLID_1186_">
				<path fill="#FFFFFF" d="M161.734,241.678c-0.179,0-0.358-0.011-0.54-0.033c-2.435-0.295-4.169-2.506-3.877-4.938l0,0
					c0.033-0.28,3.167-28.315-10.616-55.054c-0.602-1.166-0.656-2.537-0.151-3.748c0.506-1.21,1.52-2.135,2.771-2.528
					c5.883-1.844,19.016-1.388,26.624,13.525c1.115,2.185,0.248,4.861-1.938,5.977c-2.187,1.115-4.861,0.248-5.978-1.938
					c-3.177-6.226-7.257-8.475-10.511-9.178c11.695,27.109,8.761,52.845,8.62,54.007
					C165.866,240.023,163.949,241.678,161.734,241.678z"/>
			</g>
			<g id="XMLID_1185_">
				<path fill="#FFFFFF" d="M182.238,241.678c-2.214,0-4.131-1.654-4.404-3.908c-0.142-1.162-3.073-26.887,8.612-53.987
					c-3.264,0.708-7.339,2.959-10.501,9.157c-1.114,2.186-3.79,3.054-5.976,1.939c-2.186-1.115-3.054-3.791-1.938-5.977
					c7.607-14.914,20.741-15.366,26.623-13.525c1.251,0.392,2.267,1.317,2.771,2.528c0.505,1.211,0.451,2.582-0.151,3.748
					c-13.84,26.843-10.652,54.769-10.619,55.048c0.296,2.436-1.439,4.649-3.876,4.944
					C182.597,241.667,182.416,241.678,182.238,241.678z"/>
			</g>
			<g id="XMLID_1184_">
				<path fill="#FFFFFF" d="M172.578,55.758c-2.454,0-4.442-1.989-4.442-4.443V15.416c0-2.454,1.989-4.443,4.442-4.443
					c2.452,0,4.441,1.989,4.441,4.443v35.899C177.021,53.769,175.032,55.758,172.578,55.758z"/>
			</g>
			<g id="XMLID_1183_">
				<path fill="#FFFFFF" d="M104.931,90.656c-0.922,0-1.852-0.286-2.647-0.878L73.551,68.402c-1.968-1.465-2.377-4.248-0.913-6.217
					c1.464-1.969,4.248-2.377,6.216-0.913l28.732,21.376c1.969,1.465,2.377,4.248,0.913,6.217
					C107.627,90.037,106.288,90.656,104.931,90.656z"/>
			</g>
			<g id="XMLID_1182_">
				<path fill="#FFFFFF" d="M240.238,90.656c-1.356,0-2.695-0.619-3.567-1.791c-1.465-1.969-1.057-4.752,0.912-6.217l28.732-21.376
					c1.972-1.465,4.752-1.055,6.216,0.913c1.466,1.969,1.057,4.752-0.911,6.217l-28.733,21.376
					C242.089,90.37,241.159,90.656,240.238,90.656z"/>
			</g>
			<g id="XMLID_1181_">
				<path fill="#FFFFFF" d="M75.266,152.902H38.479c-2.454,0-4.441-1.989-4.441-4.442c0-2.454,1.988-4.443,4.441-4.443h36.787
					c2.454,0,4.442,1.989,4.442,4.443S77.719,152.902,75.266,152.902z"/>
			</g>
			<g id="XMLID_1180_">
				<path fill="#FFFFFF" d="M56.874,241.678c-1.279,0-2.547-0.55-3.426-1.611c-1.564-1.891-1.3-4.689,0.591-6.256l30.803-25.482
					c1.889-1.563,4.69-1.299,6.255,0.592s1.299,4.689-0.591,6.256l-30.803,25.483C58.875,241.343,57.871,241.678,56.874,241.678z"/>
			</g>
		</g>
		<g id="XMLID_1065_">
			<g id="XMLID_1173_">
				<path fill="#FFFFFF" d="M361.395,121.12c0,2.075,0,3.644,0,5.212c0,64.137-0.35,128.282,0.184,192.416
					c0.189,22.326-13.135,35.371-32.461,39.964c-4.165,0.991-8.289,1.53-12.36,1.53c-7.194,0-14.228-1.682-21.033-5.518
					c-12.598-7.099-16.586-23.533-9.053-35.845c8.172-13.354,25.281-20.909,40.476-20.907c3.714,0,7.315,0.451,10.642,1.381
					c1.16,0.319,2.348,0.553,3.804,0.894c0-40.837,0-81.411,0-122.385c-6.562,1.156-13.006,2.243-19.436,3.438
					c-26.332,4.885-52.664,9.805-78.998,14.703c-1.807,0.335-3.622,0.584-5.437,0.868c-6.947,1.079-5.898,0.254-5.925,6.865
					c-0.172,47.738-0.361,95.479-0.399,143.215c-0.013,14.91-7.584,24.861-20.045,31.65c-7.402,4.033-15.077,6.043-22.897,6.043
					c-5.214,0-10.496-0.895-15.804-2.675c-22.526-7.554-24.502-29.618-10.779-43.999c9.693-10.158,21.226-14.811,34.06-14.811
					c4.093,0,8.317,0.474,12.658,1.392c0.933,0.198,1.891,0.25,3.265,0.427c0-1.84,0-3.404,0-4.973
					c0-56.674,0.045-113.348-0.103-170.017c-0.008-3.85,1.022-5.208,4.809-5.796c30.691-4.778,61.354-9.741,92.02-14.678
					c16.057-2.587,32.104-5.247,48.157-7.855C358.047,121.446,359.375,121.352,361.395,121.12 M361.395,112.234
					c-0.337,0-0.675,0.019-1.013,0.058c-0.67,0.077-1.261,0.138-1.797,0.193c-1.117,0.116-2.175,0.225-3.286,0.407
					c-6.59,1.071-13.192,2.152-19.795,3.233c-9.289,1.522-18.896,3.096-28.34,4.617l-11.33,1.825
					c-26.428,4.257-53.754,8.659-80.643,12.846c-5.635,0.876-12.348,4.12-12.325,14.594c0.118,46.021,0.111,92.816,0.104,138.069
					l-0.003,26.588c-2.391-0.258-4.742-0.389-7.038-0.389c-15.746,0-29.368,5.908-40.488,17.563
					c-9.228,9.67-13.02,22.378-10.145,33.99c2.845,11.492,11.556,20.217,24.528,24.566c6.198,2.08,12.467,3.135,18.627,3.135
					c9.339,0,18.473-2.397,27.15-7.127c16.359-8.911,24.662-22.184,24.677-39.443c0.036-43.021,0.194-86.771,0.35-129.082
					l0.046-12.469c1.323-0.199,2.692-0.407,4.104-0.668c10.108-1.881,20.214-3.764,30.319-5.647
					c16.227-3.023,32.451-6.046,48.678-9.057c2.979-0.554,5.919-1.077,8.929-1.604v100.946c-1.812-0.192-3.668-0.291-5.559-0.291
					c-19.536-0.001-38.849,10.106-48.056,25.155c-4.905,8.017-6.356,17.855-3.98,26.998c2.37,9.117,8.142,16.656,16.25,21.226
					c7.845,4.421,16.389,6.66,25.396,6.66c4.629,0,9.479-0.597,14.419-1.771c11.896-2.828,21.392-8.269,28.216-16.168
					c7.457-8.633,11.183-19.572,11.072-32.516c-0.382-45.908-0.31-92.615-0.239-137.784c0.026-17.881,0.056-36.37,0.056-54.557
					v-5.212c0-2.533-1.08-4.945-2.971-6.632C365.673,113.029,363.563,112.234,361.395,112.234L361.395,112.234z"/>
			</g>
			<g id="XMLID_1066_">
				<path fill="#FFFFFF" d="M361.395,121.12c0,2.075,0,3.644,0,5.212c0,64.137-0.35,128.282,0.184,192.416
					c0.189,22.326-13.135,35.371-32.461,39.964c-4.164,0.99-8.291,1.53-12.36,1.53c-7.195,0-14.227-1.682-21.033-5.518
					c-12.598-7.099-16.586-23.533-9.053-35.845c8.171-13.354,25.282-20.907,40.476-20.907c3.715,0,7.314,0.451,10.642,1.381
					c1.16,0.319,2.348,0.553,3.804,0.894c0-40.837,0-81.411,0-122.385c-6.562,1.156-13.006,2.243-19.436,3.438
					c-26.332,4.885-52.664,9.805-78.998,14.703c-1.807,0.335-3.622,0.584-5.437,0.868c-6.947,1.079-5.898,0.254-5.925,6.865
					c-0.172,47.738-0.361,95.479-0.399,143.215c-0.013,14.91-7.584,24.861-20.045,31.65c-7.401,4.033-15.078,6.043-22.897,6.043
					c-5.215,0-10.495-0.895-15.804-2.675c-22.526-7.554-24.502-29.618-10.779-43.999c9.692-10.158,21.227-14.811,34.06-14.811
					c4.093,0,8.316,0.474,12.658,1.392c0.933,0.198,1.891,0.25,3.265,0.427c0-1.84,0-3.404,0-4.973
					c0-56.674,0.045-113.348-0.103-170.017c-0.008-3.85,1.022-5.208,4.809-5.796c30.691-4.778,61.354-9.741,92.02-14.678
					c16.057-2.587,32.104-5.247,48.157-7.855C358.047,121.446,359.375,121.352,361.395,121.12 M361.395,112.234
					c-0.337,0-0.675,0.019-1.013,0.058c-0.67,0.077-1.261,0.138-1.797,0.193c-1.117,0.116-2.175,0.225-3.286,0.407
					c-6.59,1.071-13.192,2.152-19.795,3.233c-9.289,1.522-18.896,3.096-28.34,4.617l-11.33,1.825
					c-26.428,4.257-53.754,8.659-80.643,12.846c-5.635,0.876-12.348,4.12-12.325,14.594c0.118,46.021,0.111,92.816,0.104,138.069
					l-0.003,26.588c-2.391-0.258-4.742-0.389-7.038-0.389c-15.746,0-29.369,5.908-40.488,17.563
					c-9.228,9.67-13.02,22.378-10.145,33.99c2.845,11.492,11.556,20.217,24.528,24.566c6.198,2.08,12.467,3.135,18.627,3.135
					c9.339,0,18.473-2.397,27.149-7.127c16.36-8.911,24.663-22.184,24.678-39.443c0.036-43.021,0.194-86.771,0.35-129.082
					l0.046-12.469c1.323-0.199,2.692-0.407,4.104-0.668c10.108-1.881,20.214-3.764,30.319-5.647
					c16.226-3.023,32.451-6.046,48.678-9.057c2.979-0.554,5.919-1.077,8.929-1.604v100.946c-1.813-0.194-3.669-0.291-5.56-0.291
					c-19.536,0-38.849,10.108-48.055,25.155c-4.905,8.017-6.356,17.855-3.98,26.998c2.37,9.117,8.142,16.656,16.25,21.226
					c7.845,4.421,16.389,6.66,25.396,6.66c4.629,0,9.479-0.597,14.419-1.771c11.896-2.828,21.392-8.269,28.216-16.168
					c7.457-8.633,11.183-19.572,11.072-32.516c-0.382-45.908-0.31-92.615-0.239-137.784c0.026-17.881,0.056-36.37,0.056-54.557
					v-5.212c0-2.533-1.08-4.945-2.971-6.632C365.673,113.029,363.563,112.234,361.395,112.234L361.395,112.234z"/>
			</g>
		</g>
	</g>
</g>
<g>
	<g>
		<path fill="#E3B8D3" d="M265.431,328.493H134.57c-1.101,0-1.993-0.893-1.993-1.993V209.313c0-8.64,7.029-15.668,15.668-15.668
			h103.512c8.64,0,15.668,7.029,15.668,15.668V326.5C267.424,327.601,266.531,328.493,265.431,328.493z M136.563,324.507h126.875
			V209.313c0-6.441-5.24-11.682-11.682-11.682H148.244c-6.441,0-11.682,5.241-11.682,11.682V324.507z"/>
	</g>
	<g>
		<path fill="#E3B8D3" d="M341.041,328.493h-75.61c-1.101,0-1.993-0.893-1.993-1.993V83.263c0-6.482,5.273-11.756,11.756-11.756
			h56.085c6.482,0,11.756,5.274,11.756,11.756V326.5C343.034,327.601,342.142,328.493,341.041,328.493z M267.424,324.507h71.624
			V83.263c0-4.284-3.485-7.77-7.77-7.77h-56.085c-4.284,0-7.77,3.485-7.77,7.77V324.507z"/>
	</g>
	<g>
		<path fill="#E3B8D3" d="M201.139,298.444c-22.211,0-40.281-18.071-40.281-40.283s18.07-40.282,40.281-40.282
			c22.212,0,40.282,18.07,40.282,40.282S223.351,298.444,201.139,298.444z M201.139,221.865c-20.013,0-36.294,16.282-36.294,36.296
			c0,20.015,16.282,36.297,36.294,36.297c20.014,0,36.296-16.282,36.296-36.297C237.435,238.147,221.153,221.865,201.139,221.865z"
			/>
	</g>
	<g>
		<path fill="#E3B8D3" d="M201.139,273.239c-8.314,0-15.078-6.764-15.078-15.078c0-8.315,6.764-15.08,15.078-15.08
			c8.315,0,15.08,6.765,15.08,15.08C216.219,266.476,209.454,273.239,201.139,273.239z M201.139,247.067
			c-6.116,0-11.092,4.977-11.092,11.094c0,6.116,4.976,11.092,11.092,11.092c6.117,0,11.094-4.976,11.094-11.092
			C212.233,252.044,207.256,247.067,201.139,247.067z"/>
	</g>
	<g>
		<path fill="#E3B8D3" d="M303.237,141.409c-9.651,0-17.504-7.852-17.504-17.503c0-9.651,7.853-17.503,17.504-17.503
			s17.503,7.852,17.503,17.503C320.74,133.557,312.888,141.409,303.237,141.409z M303.237,110.389
			c-7.454,0-13.518,6.063-13.518,13.517c0,7.454,6.063,13.517,13.518,13.517c7.453,0,13.517-6.063,13.517-13.517
			C316.753,116.452,310.69,110.389,303.237,110.389z"/>
	</g>
	<g>
		<path fill="#E3B8D3" d="M303.237,233.014c-9.651,0-17.504-7.853-17.504-17.504s7.853-17.503,17.504-17.503
			s17.503,7.852,17.503,17.503S312.888,233.014,303.237,233.014z M303.237,201.993c-7.454,0-13.518,6.063-13.518,13.517
			c0,7.454,6.063,13.518,13.518,13.518c7.453,0,13.517-6.063,13.517-13.518C316.753,208.057,310.69,201.993,303.237,201.993z"/>
	</g>
	<g>
		<path fill="#E3B8D3" d="M134.57,328.493h-75.61c-1.101,0-1.993-0.893-1.993-1.993V83.263c0-6.482,5.274-11.756,11.756-11.756
			h56.085c6.482,0,11.756,5.274,11.756,11.756V326.5C136.563,327.601,135.67,328.493,134.57,328.493z M60.952,324.507h71.624V83.263
			c0-4.284-3.485-7.77-7.77-7.77H68.722c-4.284,0-7.77,3.485-7.77,7.77V324.507z"/>
	</g>
	<g>
		<path fill="#E3B8D3" d="M96.764,141.409c-9.651,0-17.503-7.852-17.503-17.503c0-9.651,7.852-17.503,17.503-17.503
			s17.503,7.852,17.503,17.503C114.268,133.557,106.416,141.409,96.764,141.409z M96.764,110.389
			c-7.454,0-13.517,6.063-13.517,13.517c0,7.454,6.063,13.517,13.517,13.517s13.517-6.063,13.517-13.517
			C110.281,116.452,104.218,110.389,96.764,110.389z"/>
	</g>
	<g>
		<path fill="#E3B8D3" d="M96.764,233.014c-9.651,0-17.503-7.853-17.503-17.504s7.852-17.503,17.503-17.503
			s17.503,7.852,17.503,17.503S106.416,233.014,96.764,233.014z M96.764,201.993c-7.454,0-13.517,6.063-13.517,13.517
			c0,7.454,6.063,13.518,13.517,13.518s13.517-6.063,13.517-13.518C110.281,208.057,104.218,201.993,96.764,201.993z"/>
	</g>
</g>
</svg>
