<svg xmlns="http://www.w3.org/2000/svg" width="400" height="400"><g fill="#E3B8D3"><path d="M265.43 328.493H134.57c-1.1 0-1.993-.893-1.993-1.993V209.313a15.69 15.69 0 0 1 15.668-15.668h103.512a15.69 15.69 0 0 1 15.668 15.668V326.5c-.001 1.1-.894 1.993-1.994 1.993zm-128.868-3.986h126.875V209.313a11.7 11.7 0 0 0-11.682-11.682h-103.512a11.7 11.7 0 0 0-11.682 11.682v115.194z"/><path d="M341.04 328.493h-75.6c-1.1 0-1.993-.893-1.993-1.993V83.263c0-6.482 5.273-11.756 11.756-11.756h56.085c6.482 0 11.756 5.274 11.756 11.756V326.5c-.001 1.1-.893 1.993-1.994 1.993zm-73.617-3.986h71.624V83.263a7.78 7.78 0 0 0-7.77-7.77h-56.085a7.78 7.78 0 0 0-7.77 7.77v241.244zm-66.285-26.063c-22.21 0-40.28-18.07-40.28-40.283s18.07-40.282 40.28-40.282 40.282 18.07 40.282 40.282-18.07 40.283-40.282 40.283zm0-76.58c-20.013 0-36.294 16.282-36.294 36.296s16.282 36.297 36.294 36.297 36.296-16.282 36.296-36.297-16.282-36.296-36.296-36.296zm0 51.374a15.1 15.1 0 0 1-15.078-15.078 15.1 15.1 0 0 1 15.078-15.08c8.315 0 15.08 6.765 15.08 15.08a15.1 15.1 0 0 1-15.08 15.078zm0-26.172a11.11 11.11 0 0 0-11.092 11.094c0 6.116 4.976 11.092 11.092 11.092a11.11 11.11 0 0 0 11.094-11.092 11.11 11.11 0 0 0-11.094-11.094zM303.237 141.41c-9.65 0-17.504-7.852-17.504-17.503s7.853-17.503 17.504-17.503 17.503 7.852 17.503 17.503-7.852 17.503-17.503 17.503zm0-31.02c-7.454 0-13.518 6.063-13.518 13.517s6.063 13.517 13.518 13.517 13.517-6.063 13.517-13.517-6.064-13.517-13.517-13.517zm0 122.625c-9.65 0-17.504-7.853-17.504-17.504s7.853-17.503 17.504-17.503 17.503 7.852 17.503 17.503-7.852 17.504-17.503 17.504zm0-31.02c-7.454 0-13.518 6.063-13.518 13.517s6.063 13.518 13.518 13.518 13.517-6.063 13.517-13.518-6.064-13.517-13.517-13.517zm-168.667 126.5h-75.6c-1.1 0-1.993-.893-1.993-1.993V83.263c0-6.482 5.274-11.756 11.756-11.756h56.085c6.482 0 11.756 5.274 11.756 11.756V326.5c-.001 1.1-.894 1.993-1.994 1.993zm-73.618-3.986h71.624V83.263a7.78 7.78 0 0 0-7.77-7.77H68.722a7.78 7.78 0 0 0-7.77 7.77v241.244zM96.764 141.41c-9.65 0-17.503-7.852-17.503-17.503s7.852-17.503 17.503-17.503 17.503 7.852 17.503 17.503-7.85 17.503-17.503 17.503zm0-31.02c-7.454 0-13.517 6.063-13.517 13.517s6.063 13.517 13.517 13.517 13.517-6.063 13.517-13.517-6.063-13.517-13.517-13.517zm0 122.625c-9.65 0-17.503-7.853-17.503-17.504s7.852-17.503 17.503-17.503 17.503 7.852 17.503 17.503-7.85 17.504-17.503 17.504zm0-31.02c-7.454 0-13.517 6.063-13.517 13.517s6.063 13.518 13.517 13.518 13.517-6.063 13.517-13.518-6.063-13.517-13.517-13.517z"/></g></svg>