<?xml version="1.0" encoding="utf-8"?>
<!-- Generator: Adobe Illustrator 16.0.0, SVG Export Plug-In . SVG Version: 6.00 Build 0)  -->
<!DOCTYPE svg PUBLIC "-//W3C//DTD SVG 1.1//EN" "http://www.w3.org/Graphics/SVG/1.1/DTD/svg11.dtd">
<svg version="1.1" id="Capa_1" xmlns="http://www.w3.org/2000/svg" xmlns:xlink="http://www.w3.org/1999/xlink" x="0px" y="0px"
	 width="400px" height="400px" viewBox="0 0 400 400" enable-background="new 0 0 400 400" xml:space="preserve">
<g id="XMLID_1229_">
	<g id="XMLID_1231_">
		<path id="XMLID_1381_" fill="#FFFFFF" d="M431.914,1069.142l-2.882-2.882c-0.338-0.337-0.338-0.886,0-1.224l27.762-27.763
			c0.338-0.338,0.887-0.338,1.225,0l2.882,2.882c0.338,0.338,0.338,0.887,0,1.225l-27.763,27.762
			C432.801,1069.479,432.252,1069.479,431.914,1069.142z M430.868,1065.648l1.658,1.657l26.538-26.538l-1.658-1.658
			L430.868,1065.648z"/>
	</g>
	<g id="XMLID_1356_">
		<path id="XMLID_1378_" fill="#FFFFFF" d="M459.677,1041.38l-2.883-2.882c-0.157-0.158-0.247-0.371-0.252-0.594l-0.052-2.419
			c-0.008-0.396,0.253-0.747,0.636-0.853c0.059-0.017,5.957-1.646,7.505-2.193c1.338-0.475,2.84-0.572,4.591-0.297
			c1.523,0.236,2,2.293,2.05,2.528c0.077,0.365-0.089,0.738-0.41,0.927l-10.138,5.917
			C460.385,1041.713,459.954,1041.657,459.677,1041.38z M458.265,1037.52l2.164,2.164l8.959-5.23
			c-0.146-0.331-0.327-0.583-0.436-0.602c-1.459-0.229-2.683-0.158-3.743,0.219c-1.308,0.463-5.374,1.605-6.975,2.051
			L458.265,1037.52z"/>
	</g>
	<g id="XMLID_1359_">
		
			<rect id="XMLID_1391_" x="464.821" y="1031.234" transform="matrix(0.9616 -0.2744 0.2744 0.9616 -265.3259 167.2786)" fill="#FFFFFF" width="0.826" height="1.496"/>
	</g>
	<g id="XMLID_1361_">
		
			<rect id="XMLID_1390_" x="463.631" y="1031.574" transform="matrix(0.9616 -0.2744 0.2744 0.9616 -265.4648 166.9653)" fill="#FFFFFF" width="0.826" height="1.496"/>
	</g>
	<g id="XMLID_1363_">
		
			<rect id="XMLID_1389_" x="462.477" y="1031.904" transform="matrix(0.9616 -0.2744 0.2744 0.9616 -265.5997 166.6612)" fill="#FFFFFF" width="0.826" height="1.496"/>
	</g>
	<g id="XMLID_1362_">
		
			<rect id="XMLID_1388_" x="461.288" y="1032.244" transform="matrix(0.9616 -0.2744 0.2744 0.9616 -265.7386 166.3478)" fill="#FFFFFF" width="0.826" height="1.496"/>
	</g>
	<g id="XMLID_1365_">
		
			<rect id="XMLID_1387_" x="460.098" y="1032.583" transform="matrix(0.9613 -0.2755 0.2755 0.9613 -266.8633 166.861)" fill="#FFFFFF" width="0.826" height="1.497"/>
	</g>
	<g id="XMLID_1364_">
		
			<rect id="XMLID_1386_" x="458.909" y="1032.924" transform="matrix(0.9613 -0.2755 0.2755 0.9613 -267.0031 166.5464)" fill="#FFFFFF" width="0.826" height="1.496"/>
	</g>
	<g id="XMLID_1366_">
		<path id="XMLID_1377_" fill="#FFFFFF" d="M391.241,1081.205c-0.194-0.194-0.285-0.471-0.244-0.741l0.258-1.698
			c0.052-0.34,0.301-0.617,0.633-0.705l23.309-6.227l0,0c-0.001-0.002,2.891-0.937,3.697-2.846c0.981-2.324,3.478-7.023,3.583-7.222
			c0.177-0.334,0.55-0.514,0.921-0.444l8.336,1.543c0.471,0.088,0.78,0.539,0.693,1.008c-0.087,0.47-0.538,0.781-1.008,0.693
			l-7.71-1.428c-0.702,1.337-2.465,4.73-3.222,6.522c-1.121,2.654-4.659,3.786-4.81,3.834l-22.796,6.091l-0.106,0.693
			c7.289,6.821,26.307,12.623,30.274,13.781l5.774-13.701c0.082-0.195,0.234-0.354,0.426-0.444l16.706-7.93l-0.001-0.016
			l-10.131,1.556c-0.25,0.04-2.54,0.36-3.793-1.098c-0.815-0.955-0.925-2.358-0.326-4.169c0.149-0.454,0.638-0.7,1.093-0.55
			c0.453,0.148,0.699,0.64,0.55,1.092c-0.271,0.822-0.492,1.923-0.003,2.502c0.543,0.607,1.775,0.581,2.213,0.513l11.066-1.699
			c0.24-0.037,0.484,0.029,0.674,0.18c0.188,0.153,0.306,0.376,0.321,0.618l0.103,1.544c0.023,0.354-0.172,0.686-0.492,0.839
			l-16.938,8.04l-5.944,14.104c-0.169,0.4-0.608,0.613-1.028,0.497c-0.973-0.269-23.929-6.688-32.073-14.729
			C391.243,1081.208,391.242,1081.206,391.241,1081.205z"/>
	</g>
	<g id="XMLID_1360_">
		<path id="XMLID_1374_" fill="#FFFFFF" d="M427.898,1074.316l-4.091-4.091c-0.171-0.171-0.171-0.447,0-0.618l1.659-1.659
			c0.171-0.171,0.447-0.171,0.618,0l4.091,4.091c0.17,0.171,0.17,0.447,0,0.617l-1.66,1.66
			C428.345,1074.486,428.069,1074.486,427.898,1074.316z M424.734,1069.917l3.473,3.473l1.042-1.042l-3.474-3.473L424.734,1069.917z
			"/>
	</g>
	<g id="XMLID_1368_">
		<path id="XMLID_1371_" fill="#FFFFFF" d="M423.498,1078.716l-4.091-4.091c-0.17-0.171-0.17-0.447,0-0.617l1.659-1.66
			c0.171-0.17,0.447-0.17,0.618,0l4.09,4.091c0.171,0.171,0.171,0.447,0,0.617l-1.659,1.66
			C423.946,1078.886,423.669,1078.886,423.498,1078.716z M420.333,1074.316l3.474,3.473l1.042-1.042l-3.473-3.473L420.333,1074.316z
			"/>
	</g>
	<g id="XMLID_1367_">
		<circle id="XMLID_1385_" fill="#FFFFFF" cx="423.614" cy="1085.855" r="0.927"/>
	</g>
	<g id="XMLID_1370_">
		<circle id="XMLID_1384_" fill="#FFFFFF" cx="421.298" cy="1090.254" r="0.928"/>
	</g>
	<g id="XMLID_1369_">
		<path id="XMLID_1232_" fill="#FFFFFF" d="M420.288,1081.347l-3.512-3.513c-0.171-0.17-0.171-0.446,0-0.617
			c0.171-0.17,0.447-0.17,0.617,0l3.512,3.512c0.172,0.171,0.172,0.447,0,0.618C420.736,1081.517,420.459,1081.517,420.288,1081.347
			z"/>
	</g>
</g>
<g id="XMLID_1288_">
	
		<line id="XMLID_1443_" fill="none" stroke="#FFFFFF" stroke-width="9.1823" stroke-linecap="round" stroke-linejoin="round" stroke-miterlimit="10" x1="136.447" y1="170.228" x2="153.097" y2="170.228"/>
	
		<line id="XMLID_1442_" fill="none" stroke="#FFFFFF" stroke-width="9.1823" stroke-linecap="round" stroke-linejoin="round" stroke-miterlimit="10" x1="105.727" y1="170.228" x2="122.378" y2="170.228"/>
	
		<circle id="XMLID_1441_" fill="none" stroke="#FFFFFF" stroke-width="9.1823" stroke-linecap="round" stroke-linejoin="round" stroke-miterlimit="10" cx="200.637" cy="201.239" r="135.704"/>
	
		<path id="XMLID_1440_" fill="none" stroke="#FFFFFF" stroke-width="9.1823" stroke-linecap="round" stroke-linejoin="round" stroke-miterlimit="10" d="
		M140.451,79.594c-8.03-9.853-20.261-16.147-33.97-16.147c-24.193,0-43.807,19.613-43.807,43.807c0,0.955,0.082,1.89,0.144,2.829
		c-22.16,2.177-39.474,20.856-39.474,43.586c0,22.648,17.18,41.281,39.222,43.571"/>
	
		<line id="XMLID_1439_" fill="none" stroke="#FFFFFF" stroke-width="9.1823" stroke-linecap="round" stroke-linejoin="round" stroke-miterlimit="10" x1="129.412" y1="163.193" x2="129.412" y2="146.542"/>
	
		<line id="XMLID_1438_" fill="none" stroke="#FFFFFF" stroke-width="9.1823" stroke-linecap="round" stroke-linejoin="round" stroke-miterlimit="10" x1="129.412" y1="193.913" x2="129.412" y2="177.267"/>
	
		<path id="XMLID_1437_" fill="none" stroke="#FFFFFF" stroke-width="9.1823" stroke-linecap="round" stroke-linejoin="round" stroke-miterlimit="10" d="
		M240.804,231.574c0,17.621-17.744,31.91-39.643,31.91c-21.894,0-39.638-14.289-39.638-31.91c0-17.627,17.745-31.911,39.638-31.911
		C223.06,199.664,240.804,213.947,240.804,231.574z"/>
	
		<path id="XMLID_1436_" fill="none" stroke="#FFFFFF" stroke-width="9.1823" stroke-linecap="round" stroke-linejoin="round" stroke-miterlimit="10" d="
		M100.885,265.04c0,0-0.396-21.144,25.765-23.454"/>
	
		<line id="XMLID_1435_" fill="none" stroke="#FFFFFF" stroke-width="9.1823" stroke-linecap="round" stroke-linejoin="round" stroke-miterlimit="10" x1="265.875" y1="170.228" x2="249.23" y2="170.228"/>
	
		<line id="XMLID_1434_" fill="none" stroke="#FFFFFF" stroke-width="9.1823" stroke-linecap="round" stroke-linejoin="round" stroke-miterlimit="10" x1="296.6" y1="170.228" x2="279.949" y2="170.228"/>
	
		<path id="XMLID_1433_" fill="none" stroke="#FFFFFF" stroke-width="9.1823" stroke-linecap="round" stroke-linejoin="round" stroke-miterlimit="10" d="
		M261.876,79.594c8.03-9.853,20.266-16.147,33.969-16.147c24.194,0,43.808,19.613,43.808,43.807c0,0.955-0.082,1.89-0.144,2.829
		c22.16,2.177,39.479,20.856,39.479,43.586c0,22.648-17.185,41.281-39.228,43.571"/>
	
		<line id="XMLID_1432_" fill="none" stroke="#FFFFFF" stroke-width="9.1823" stroke-linecap="round" stroke-linejoin="round" stroke-miterlimit="10" x1="272.915" y1="163.193" x2="272.915" y2="146.542"/>
	
		<line id="XMLID_1299_" fill="none" stroke="#FFFFFF" stroke-width="9.1823" stroke-linecap="round" stroke-linejoin="round" stroke-miterlimit="10" x1="272.915" y1="193.913" x2="272.915" y2="177.267"/>
	
		<path id="XMLID_1298_" fill="none" stroke="#FFFFFF" stroke-width="9.1823" stroke-linecap="round" stroke-linejoin="round" stroke-miterlimit="10" d="
		M324.896,257.785c1.058-10.792-2.546-21.955-10.813-30.221c-14.654-14.654-38.416-14.654-53.07,0c0,0-5.94,6.982-10.494,13.919
		c-4.56,6.937-13.679,22.001-49.357,22.001c-35.674,0-44.793-15.064-49.353-22.001s-10.495-13.919-10.495-13.919
		c-14.654-14.654-38.416-14.654-53.07,0c-8.267,8.266-11.871,19.429-10.813,30.221"/>
	
		<path id="XMLID_1297_" fill="none" stroke="#FFFFFF" stroke-width="9.1823" stroke-linecap="round" stroke-linejoin="round" stroke-miterlimit="10" d="
		M290.752,250.797c0,0-29.467,54.308-89.063,54.308h-1.053c-59.59,0-89.062-54.308-89.062-54.308"/>
	
		<path id="XMLID_1295_" fill="none" stroke="#FFFFFF" stroke-width="9.1823" stroke-linecap="round" stroke-linejoin="round" stroke-miterlimit="10" d="
		M301.442,265.04c0,0,0.396-21.144-25.765-23.454"/>
</g>
</svg>
