<svg xmlns="http://www.w3.org/2000/svg" width="400" height="400"><path d="M333.266 82.035H66.733c-19.598 0-35.538 15.938-35.538 35.537v164.86c0 19.596 15.94 35.533 35.538 35.533h266.533c19.596 0 35.54-15.938 35.54-35.533v-164.86c0-19.6-15.943-35.537-35.54-35.537m18.366 207.51L250.644 216.9 353 149.06v133.372c0 2.508-.52 4.894-1.378 7.112M66.733 97.827h266.533c10.895 0 19.744 8.86 19.744 19.744v12.54L200 231.492 46.99 130.1v-12.54c0-10.883 8.854-19.744 19.744-19.744M48.365 289.544c-.86-2.218-1.376-4.604-1.376-7.112V149.06l102.368 67.83-100.992 72.654zm18.368 12.626c-2.478 0-4.825-.507-7.01-1.342l103.712-74.613L200 250.445l36.566-24.23 103.714 74.613c-2.188.835-4.535 1.342-7.014 1.342H66.733z" fill="#fff"/></svg>