<?xml version="1.0" encoding="utf-8"?>
<!-- Generator: Adobe Illustrator 16.0.0, SVG Export Plug-In . SVG Version: 6.00 Build 0)  -->
<!DOCTYPE svg PUBLIC "-//W3C//DTD SVG 1.1//EN" "http://www.w3.org/Graphics/SVG/1.1/DTD/svg11.dtd">
<svg version="1.1" id="Capa_1" xmlns="http://www.w3.org/2000/svg" xmlns:xlink="http://www.w3.org/1999/xlink" x="0px" y="0px"
	 width="657.425px" height="657.958px" viewBox="0 0 657.425 657.958" enable-background="new 0 0 657.425 657.958"
	 xml:space="preserve">
<path fill="#FFFFFF" d="M501.371,31.352c0-17.255,13.926-31.287,31.078-31.313c17.441-0.027,31.594,14.081,31.539,31.445
	c-0.057,17.211-14.25,31.258-31.545,31.212C515.302,62.651,501.373,48.6,501.371,31.352z"/>
<path fill="#FFFFFF" d="M532.572,148.938c0.055,13.508-11.59,23.812-24.342,23.391c-12.279-0.405-22.693-11.014-22.611-23.692
	c0.084-12.899,10.773-23.354,23.779-23.255C522.244,125.479,532.66,136.066,532.572,148.938z"/>
<path fill="#FFFFFF" d="M657.892,188.128c-0.049,8.657-7.184,15.699-15.779,15.576c-8.752-0.125-15.467-7.178-15.398-16.175
	c0.063-8.265,7.227-15.236,15.627-15.208C650.935,172.352,657.941,179.47,657.892,188.128z"/>
<path fill="#FFFFFF" d="M656.734,302.488c-0.426-5.345-2.236-9.983-6.793-13.074c-6.127-4.156-12.328-3.701-18.48,0.128
	c-7.453,4.639-15.604,7.282-24.326,8.021c-23,1.949-45.559-11.948-54.463-33.451c-4.227-10.204-13.432-13.588-23.338-8.509
	c-19.463,9.98-40.008,13.382-61.428,8.943c-35.064-7.266-59.088-27.988-71.059-61.681c-8.955-25.209-6.66-50.107,5.449-74.016
	c5.113-10.094,1.953-18.99-8.453-23.585c-24.918-11.004-38.133-36.706-32.137-62.496c1.484-6.387,4.371-12.147,7.584-17.823
	c5.359-9.472,0.32-20.843-10.201-23.138c-2.787-0.608-5.709-0.613-8.572-0.855c-23.631-1.992-47.155-0.755-70.557,2.73
	c-28.631,4.264-56.216,12.241-82.734,23.91c-45.637,20.082-84.716,49.032-117.331,86.696c-21.871,25.257-39.43,53.256-52.762,83.906
	c-14.468,33.263-23.11,67.988-26.064,104.117c-1.692,20.701-1.348,41.385,0.854,62.055c2.549,23.928,7.64,47.287,15.392,70.045
	c14.924,43.807,38.064,82.766,69.356,116.889c26.774,29.197,57.776,52.865,93.045,70.846
	c46.835,23.881,96.622,35.709,149.192,35.813c21.222,0.041,43.257-2.055,64.175-6.238c35.531-7.109,69.043-19.621,100.355-37.883
	c52.76-30.771,94.184-72.787,123.66-126.266C648.871,429.932,661.957,368.131,656.734,302.488z M125.348,297.775
	c-0.021-26.03,20.944-47.05,46.931-47.054c26.015-0.005,46.977,20.945,46.997,46.972c0.021,25.873-20.88,46.839-46.803,46.949
	C146.531,344.752,125.369,323.706,125.348,297.775z M203.792,485.61c-17.382,0.006-31.474-13.945-31.505-31.191
	c-0.032-17.244,14.102-31.424,31.337-31.436c17.281-0.014,31.271,14.025,31.272,31.385C234.896,471.645,221,485.604,203.792,485.61z
	 M274.168,219.298c-12.898,0.03-23.442-10.413-23.479-23.252c-0.037-13.125,10.535-23.772,23.555-23.723
	c12.734,0.048,23.3,10.554,23.322,23.19C297.591,208.813,287.304,219.269,274.168,219.298z M321.652,360.27
	c-13.322,0.066-23.891-10.148-24.023-23.225c-0.131-12.796,10.414-23.59,23.107-23.653c13.298-0.067,23.767,10.186,23.851,23.358
	C344.669,349.532,334.259,360.206,321.652,360.27z M415.183,517.028c-21.584,0.033-39.156-17.564-39.152-39.213
	c0.002-21.785,17.459-39.092,39.424-39.082c21.395,0.008,38.906,17.693,38.854,39.24
	C454.257,499.379,436.613,516.995,415.183,517.028z"/>
</svg>
