<svg xmlns="http://www.w3.org/2000/svg" width="658" height="658" viewBox="0 0 657.425 657.958"><path d="M501.37 31.352C501.37 14.097 515.297.065 532.45.04c17.44-.027 31.594 14.08 31.54 31.445-.057 17.21-14.25 31.258-31.545 31.212-17.14-.045-31.07-14.096-31.072-31.344zm31.2 117.586c.055 13.508-11.6 23.812-24.342 23.39-12.28-.405-22.693-11.014-22.61-23.692.084-12.9 10.773-23.354 23.78-23.255 12.846.097 23.262 10.684 23.174 23.556zm125.32 39.2c-.05 8.657-7.184 15.7-15.78 15.576-8.752-.125-15.467-7.178-15.398-16.175.063-8.265 7.227-15.236 15.627-15.208 8.593.03 15.6 7.15 15.55 15.807zm-1.158 114.36c-.426-5.345-2.236-9.983-6.793-13.074-6.127-4.156-12.328-3.7-18.48.128-7.453 4.64-15.604 7.282-24.326 8.02-23 1.95-45.56-11.948-54.463-33.45-4.227-10.204-13.432-13.588-23.338-8.51-19.463 9.98-40.008 13.382-61.428 8.943-35.064-7.266-59.088-27.988-71.06-61.68-8.955-25.21-6.66-50.107 5.45-74.016 5.113-10.094 1.953-19-8.453-23.585-24.918-11.004-38.133-36.706-32.137-62.496 1.484-6.387 4.37-12.147 7.584-17.823 5.36-9.472.32-20.843-10.2-23.138-2.787-.608-5.71-.613-8.572-.855-23.63-1.992-47.155-.755-70.557 2.73a322.47 322.47 0 0 0-82.734 23.91C151.59 47.674 112.5 76.624 79.895 114.288c-21.87 25.257-39.43 53.256-52.762 83.906-14.468 33.263-23.1 67.988-26.064 104.117-1.692 20.7-1.348 41.385.854 62.055 2.55 23.928 7.64 47.287 15.392 70.045C32.24 478.218 55.38 517.177 86.67 551.3c26.774 29.197 57.776 52.865 93.045 70.846 46.835 23.88 96.622 35.71 149.192 35.813 21.222.04 43.257-2.055 64.175-6.238 35.53-7.11 69.043-19.62 100.355-37.883 52.76-30.77 94.184-72.787 123.66-126.266 31.773-57.64 44.86-119.44 39.636-185.084zm-531.386-4.713c-.02-26.03 20.944-47.05 46.93-47.054 26.015-.005 46.977 20.945 46.997 46.972.02 25.873-20.88 46.84-46.803 46.95-25.942.1-47.104-20.936-47.125-46.867zM203.792 485.6c-17.382.006-31.474-13.945-31.505-31.19s14.102-31.424 31.337-31.436c17.28-.014 31.27 14.025 31.272 31.385 0 17.277-13.896 31.236-31.104 31.242zm70.376-266.312c-12.898.03-23.442-10.413-23.48-23.252-.037-13.125 10.535-23.772 23.555-23.723 12.734.048 23.3 10.554 23.322 23.2.025 13.3-10.262 23.756-23.398 23.785zm47.484 140.972c-13.322.066-23.89-10.148-24.023-23.225-.13-12.796 10.414-23.6 23.107-23.653 13.298-.067 23.767 10.186 23.85 23.358.082 12.782-10.328 23.456-22.935 23.52zm93.53 156.758c-21.584.033-39.156-17.564-39.152-39.213.002-21.785 17.46-39.092 39.424-39.082 21.395.008 38.906 17.693 38.854 39.24-.052 21.406-17.696 39.022-39.126 39.055z" fill="#fff"/></svg>