<svg xmlns="http://www.w3.org/2000/svg" width="50" height="50"><path d="M39.15 20.415l-16.95.35-.196 1.02-2.727 14.344c-.497 2.913-2.426 4.35-4.857 4.787-2.9.52-5.538-.186-7.688-2.296-2.703-2.654-1.815-6.57 1.757-7.868 2.63-.952 5.133-.593 7.554.7.1.05.19.112.29.154.046.026.107.024.235.05l4.303-22.39 23.974-.35c-.02.29-.016.576-.063.853l-5.137 26.726c-.4 2.144-1.865 3.32-3.848 3.838-3.244.842-6.23.217-8.6-2.206-2.776-2.838-1.583-6.797 2.26-7.923 2.342-.686 4.57-.466 6.72.677.168.092.346.168.527.232.104.035.215.032.383.055l2.062-10.755M22.853 17.39l1.43.038 9.35-.17 5.465-.118c.568-.006.832-.23.92-.8.17-1.148.416-2.284.643-3.423.096-.476-.05-.653-.555-.624l-2.893.104-12.832.2c-.238.007-.626.286-.677.498l-.85 4.295"/></svg>