<svg xmlns="http://www.w3.org/2000/svg" width="50" height="50"><path d="M18.272 14.452l-.247.682-3.45 9.605c-.66 1.957-2.147 2.742-3.875 2.778-2.058.04-3.802-.736-5.055-2.424-1.578-2.127-.538-4.737 2.07-5.24 1.92-.372 3.61.15 5.14 1.307l.184.14c.03.022.072.026.157.058l5.41-14.988 2.452.35s-.625 3.357.75 5.375-1.33 6.926-1.33 6.926 1.022-7.04-.996-7.767l-1.208 3.2zm22.14-1.78l.27.672 3.836 9.46c.812 1.896.225 3.474-1.038 4.654-1.506 1.403-3.32 1.99-5.384 1.565-2.597-.534-3.558-3.172-1.95-5.288 1.184-1.556 2.788-2.293 4.7-2.452l.23-.02c.036-.004.07-.025.155-.06L35.27 6.425l2.063-1.375s1.77 2.92 4.14 3.506 3.627 6.05 3.627 6.05S41.17 8.68 39.18 9.48l1.23 3.19zM28.665 27.755l-.05.83-.686 11.682c-.094 2.365-1.48 3.707-3.368 4.307-2.25.715-4.418.424-6.344-1.03-2.423-1.832-2.123-5.034.583-6.434 1.99-1.03 4.017-1.004 6.075-.23.083.034.164.07.25.094.04.017.085.01.2.017l1.105-18.237 2.81-.406s.396 3.894 2.564 5.667.773 8.05.773 8.05-1.152-8.074-3.604-8.224l-.298 3.9z"/></svg>