<svg xmlns="http://www.w3.org/2000/svg" width="400" height="400"><path d="M224.784 328.396l-29.058-.006v-.145l-27.116.06c-9.833 0-17.813-.06-25.115-.188-5.09-.093-10.706-1.043-17.177-2.905-10.065-2.9-16.205-10.6-17.755-22.263l-.634-4.744-4.772-39.038c-1.802-18.208 5.013-33.214 20.255-44.603 11.02-8.234 24.103-13.72 39.998-16.77 8.585-1.65 17.92-2.842 28.54-3.643a142.99 142.99 0 0 1 10.667-.398c15.45 0 31.375 2.54 47.33 7.55 14.484 4.55 25.165 10.712 33.6 19.396 10.628 10.928 15.012 24.457 13.03 40.214l-3.662 30.828-1.942 13.51c-2.078 11.52-9.484 18.726-22.013 21.4-7.855 1.683-15.733 1.698-23.352 1.713l-.313.001-20.523.02zm-20.67-8.392l41.492-.015c7.517-.015 14.616-.03 21.61-1.527 9.13-1.956 14.06-6.627 15.516-14.7.804-4.447 1.388-9.06 1.87-13.036l3.664-30.856c1.67-13.287-1.836-24.186-10.72-33.32-7.438-7.647-17.006-13.126-30.11-17.24-15.142-4.755-30.22-7.166-44.818-7.166a134.76 134.76 0 0 0-10.039.375c-10.293.776-19.317 1.926-27.586 3.516-14.622 2.805-26.58 7.794-36.56 15.25-12.726 9.508-18.42 21.976-16.93 37.057l4.74 38.753.635 4.75c1.11 8.342 4.957 13.35 11.763 15.31 5.755 1.656 10.664 2.5 15.005 2.58l24.965.186 35.502-.063v.146zm-4.002-131.76a50.25 50.25 0 0 1-1.05-.01l-.748.005c-15.225.001-30.207-6.477-41.108-17.773-11.04-11.438-16.805-26.588-16.233-42.66 1.125-31.515 26.76-56.2 58.364-56.2 15.9.004 31.292 6.54 42.276 17.933 10.95 11.358 16.666 26.278 16.095 42-1.133 31.26-26.97 56.695-57.596 56.695zm-1.03-8.398l.074.001c26.6.57 49.186-21.472 50.17-48.603.487-13.436-4.396-26.18-13.752-35.884-9.55-9.906-22.414-15.363-36.224-15.367-27.08 0-49.034 21.134-49.996 48.113-.5 13.775 4.44 26.75 13.886 36.537 9.33 9.667 22.113 15.2 35.074 15.2.24.034.464-.001.695-.005l.074-.002zm127.715 115.15c-4.526 0-9.052-.008-13.578-.016l-11.186-.016c-1.864-.002-3.973-.005-5.552-1.775-1.563-1.754-1.337-3.733-1.12-5.647l.025-.227 1.127-9.507 2.37-24.55c.608-13.418-4.356-25.095-14.76-34.707-3.476-3.212-7.328-6.025-11.407-9.005l-5.67-4.21-5.015-3.846 5.49-3.126c5.498-3.13 12.066-5.62 20.08-7.61 13.15-3.27 25.898-4.623 37.95-4.03 14.447.716 33.256 2.816 50.632 12.8 11.35 6.518 18.29 15 21.212 25.96 1.87 7.002 1.05 13.724.256 20.225l-.014.115-3.385 26.88c-1.693 13.55-8.81 20.18-23.07 21.505-7.382.686-14.855.703-22.084.72l-22.308.074zm-22.886-8.417l9.322.014 30.912-.04 4.94-.02 21.328-.684c10.4-.966 14.318-4.547 15.523-14.19l1.398-11.043 1.997-15.93c.73-5.972 1.416-11.612-.034-17.047-2.317-8.682-7.97-15.502-17.284-20.85-12.35-7.088-26.804-10.692-46.87-11.687-11.23-.554-23.158.72-35.516 3.792-4.505 1.118-8.477 2.394-11.993 3.857.01.007.02.014.028.02 4.092 2.988 8.322 6.08 12.153 9.618 12.13 11.21 18.16 25.472 17.445 41.246-.38 8.466-1.42 16.967-2.425 25.188l-.926 7.754zm-205.343 8.514c-.286 0-.596-.023-.905-.055l-.15-.014-16.63-.032L34 294.73c-4.083-.055-8.47-.828-13.8-2.435-8.178-2.463-13-8.74-14.337-18.657L1.826 241.53c-2.138-17.962 5.062-31.986 21.397-41.684 9.598-5.69 20.524-9.407 32.478-11.047 7.45-1.024 17.45-2.207 27.14-1.99 18.743.417 34.45 3.913 48.024 10.686l1.32.712.604.335 5.993 3.267-5.623 3.87-4.458 3-8.748 6.153c-10.43 8.3-16.537 18.297-18.15 29.71-.847 5.992-.526 12.375-.053 18.38.408 5.207 1.117 10.534 1.802 15.687l1.24 9.818c.33 2.906-1.995 4.75-3.112 5.638-.6.477-1.622 1.038-3.113 1.038zm-18.14-99.922c-8.352 0-16.61.98-23.585 1.94-10.84 1.487-20.7 4.835-29.34 9.95-13.407 7.96-19.083 18.9-17.35 33.48l4 31.98c.894 6.633 3.497 10.255 8.442 11.744 4.57 1.375 8.225 2.035 11.506 2.08l46.793.26 15.243.03-.897-6.928-1.85-16.137c-.5-6.48-.85-13.415.1-20.2 1.923-13.608 9.066-25.418 21.23-35 2.456-1.954 5.057-3.736 7.626-5.447-11.356-4.78-24.406-7.278-39.7-7.62l-2.23-.022zm240.818-13.14c-12.705 0-24.584-5-33.448-14.05-8.7-8.894-13.552-20.884-13.316-32.9-.268-12.083 4.563-24.122 13.263-33.04 8.8-9.032 20.705-14.01 33.496-14.015 13.192 0 25.305 5.145 34.13 14.485 8.216 8.695 12.95 20.477 12.99 32.325.04 12.075-4.757 24.04-13.16 32.823-8.84 9.244-20.86 14.35-33.844 14.38l-.114.001zm.02-85.627c-10.533.005-20.298 4.084-27.517 11.485-7.155 7.335-11.12 17.204-10.88 27.076l.002.097-.002.097c-.214 9.817 3.768 19.643 10.925 26.958 7.272 7.434 17.022 11.527 27.453 11.527h.094c10.68-.024 20.554-4.212 27.803-11.79 6.917-7.23 10.865-17.072 10.833-26.998-.065-18.9-14.563-38.45-38.71-38.45zM79.806 182.03h-.102c-26.316-.054-46.92-20.722-46.905-47.052C32.816 108.64 53.462 88 79.802 88h.238c25.948.127 46.53 20.816 46.858 47v.066l-.001.066c-.505 26.236-21.2 46.787-47.09 46.787zm-.004-85.632c-21.64 0-38.602 16.948-38.617 38.584S58.1 173.596 79.72 173.64l.084 4.193v-4.193c21.266 0 38.254-16.903 38.705-38.493-.304-21.63-17.208-38.646-38.51-38.75h-.197z" fill="#fff"/></svg>