<?xml version="1.0" encoding="utf-8"?>
<!-- Generator: Adobe Illustrator 16.0.0, SVG Export Plug-In . SVG Version: 6.00 Build 0)  -->
<!DOCTYPE svg PUBLIC "-//W3C//DTD SVG 1.1//EN" "http://www.w3.org/Graphics/SVG/1.1/DTD/svg11.dtd">
<svg version="1.1" id="Capa_1" xmlns="http://www.w3.org/2000/svg" xmlns:xlink="http://www.w3.org/1999/xlink" x="0px" y="0px"
	 width="400px" height="400px" viewBox="0 0 400 400" enable-background="new 0 0 400 400" xml:space="preserve">
<g id="XMLID_1169_">
	<g id="XMLID_1171_">
		<path fill="#FFFFFF" d="M199.894,233.936c-24.87,0-44.796-11.278-57.627-32.616c-6.393-10.632-9.483-21.19-10.849-27.17
			c-7.322-0.868-12.875-10.113-17.402-28.897c-3.642-15.116-3.129-25.362,1.567-31.325c1.613-2.047,3.468-3.244,5.172-3.938
			c-3.726-27.83-0.061-49.891,10.913-65.624c4.401-6.311,9.221-10.379,13.045-12.905c-6.396-6.964-6.787-15.261-6.803-15.697
			l-0.213-5.813l5.734,0.983c0.154,0.026,15.594,2.634,34.498,2.634c9.829,0,18.885-0.697,26.916-2.071
			c2.457-0.42,4.915-0.633,7.307-0.633c23.341,0,36.142,19.461,40.153,26.833c8.277,0.553,14.981,3.954,19.954,10.13
			c13.324,16.552,9.62,48.984,7.508,61.736c1.77,0.669,3.353,1.805,4.633,3.352c4.391,5.306,5.136,15.167,2.281,30.147
			c-3.635,19.087-9.77,28.931-18.239,29.272c-1.372,6.157-4.466,17.013-10.85,27.951
			C244.744,222.299,224.792,233.936,199.894,233.936z M138.693,157.81l1.14,10.115c0.02,0.138,2.094,14.619,10.688,28.779
			c11.188,18.434,27.799,27.779,49.373,27.779c21.653,0,38.319-9.745,49.537-28.965c8.559-14.664,10.581-29.398,10.601-29.546
			l1.235-9.349l6.285,6.17c0.094,0.041,0.252,0.095,0.433,0.095c1.474,0,6.039-3.88,9.414-21.599
			c3.164-16.604,0.587-21.307-0.278-22.353c-0.373-0.45-0.719-0.625-1.232-0.625c-0.13,0-0.236,0.013-0.303,0.023l-8.307,3.493
			l2.272-9.016c2.54-11.668,6.656-45.025-4.657-59.067c-3.622-4.495-8.542-6.68-15.042-6.68l-3.557,0.049l-1.263-2.867
			c-0.103-0.23-10.919-23.934-32.879-23.934c-1.859,0-3.781,0.167-5.713,0.498c-8.555,1.464-18.147,2.207-28.509,2.208
			c-11.894,0-22.315-0.964-28.868-1.755c1.185,2.367,3.188,4.996,6.565,6.944l9.258,5.341l-10.181,3.253
			c-0.051,0.018-8.541,2.972-15.678,13.544c-9.661,14.309-12.519,36-8.266,62.731l1.097,6.896l-6.395-1.462
			c-0.732,0.01-1.652,0.247-2.454,1.266c-1.246,1.581-3.719,7.012,0.196,23.262c4.126,17.121,8.084,20.848,9.171,21.575
			L138.693,157.81z"/>
	</g>
	<g id="XMLID_1170_">
		<path fill="#FFFFFF" d="M200.009,389.096c-0.013,0.001-0.01,0-0.023,0c-104.156-0.005-149.424-35.767-151.3-37.288l-1.123-0.912
			l-0.421-1.382c-5.74-18.86-3.42-38.166-3.318-38.979c4.797-37.976,31.248-50.27,50.562-59.246c1.119-0.52,2.224-1.034,3.31-1.544
			c19.647-9.247,45.426-24.452,45.685-24.604l5.085-3.005l30.971,95.858l8.057-19.248c-4.365-4.925-13.354-16.83-13.354-31.339
			c0-5.657,1.98-10.438,5.729-13.82c6.918-6.247,17.487-5.894,20.131-5.692c2.641-0.198,13.214-0.554,20.132,5.692
			c3.747,3.383,5.729,8.163,5.729,13.82c0,14.509-8.99,26.414-13.355,31.34l8.058,19.247l30.971-95.858l5.085,3.005
			c0.259,0.151,26.036,15.356,45.685,24.604c1.086,0.511,2.191,1.025,3.312,1.545c19.314,8.978,45.768,21.271,50.563,59.238
			c0.102,0.819,2.423,20.126-3.323,38.986l-0.422,1.382l-1.122,0.911C349.431,353.33,304.163,389.091,200.009,389.096
			L200.009,389.096z M55.756,345.291c7.458,5.306,52.518,34.349,144.242,34.353c91.703-0.004,136.764-29.036,144.24-34.354
			c4.614-16.503,2.581-33.408,2.56-33.583c-4.141-32.778-25.938-42.908-45.168-51.846c-1.135-0.527-2.253-1.047-3.354-1.565
			c-14.722-6.928-32.729-17.083-41.369-22.055L221.704,345.2l-20.371-48.657l2.376-2.245c0.121-0.114,12.697-12.264,12.697-26.89
			c0-2.993-0.854-5.219-2.61-6.805c-3.757-3.393-11.066-3.494-13.328-3.263l-0.305-2.979l-0.153,3.005l-0.166-3.105l-0.315,3.08
			c-2.437-0.232-9.622-0.105-13.346,3.279c-1.744,1.585-2.592,3.805-2.592,6.788c0,14.626,12.577,26.775,12.704,26.896l2.356,2.244
			l-1.25,3.009L178.292,345.2l-35.204-108.959c-8.639,4.972-26.647,15.127-41.369,22.055c-1.1,0.518-2.218,1.037-3.351,1.564
			c-19.23,8.938-41.026,19.067-45.167,51.854C53.182,311.878,51.169,328.852,55.756,345.291z"/>
	</g>
</g>
</svg>
