<?xml version="1.0" encoding="utf-8"?>
<!-- Generator: Adobe Illustrator 16.0.0, SVG Export Plug-In . SVG Version: 6.00 Build 0)  -->
<!DOCTYPE svg PUBLIC "-//W3C//DTD SVG 1.1//EN" "http://www.w3.org/Graphics/SVG/1.1/DTD/svg11.dtd">
<svg version="1.1" id="Capa_1" xmlns="http://www.w3.org/2000/svg" xmlns:xlink="http://www.w3.org/1999/xlink" x="0px" y="0px"
	 width="400px" height="400px" viewBox="0 0 400 400" enable-background="new 0 0 400 400" xml:space="preserve">
<g id="Capa_1_1_" display="none">
	<g id="XMLID_1169_" display="inline">
		<g id="XMLID_1171_">
			<path fill="#FFFFFF" d="M199.894,233.936c-24.87,0-44.796-11.277-57.627-32.616c-6.393-10.632-9.483-21.189-10.849-27.17
				c-7.322-0.868-12.875-10.112-17.402-28.896c-3.642-15.116-3.129-25.362,1.567-31.325c1.613-2.047,3.468-3.244,5.172-3.938
				c-3.726-27.829-0.061-49.891,10.913-65.623c4.401-6.312,9.221-10.38,13.045-12.905c-6.396-6.964-6.787-15.261-6.803-15.697
				l-0.213-5.813l5.734,0.982c0.154,0.026,15.594,2.634,34.498,2.634c9.829,0,18.885-0.696,26.916-2.07
				c2.457-0.42,4.915-0.634,7.308-0.634c23.341,0,36.142,19.462,40.152,26.833c8.277,0.554,14.981,3.954,19.954,10.131
				c13.324,16.552,9.62,48.983,7.509,61.735c1.77,0.669,3.353,1.806,4.633,3.353c4.391,5.306,5.136,15.167,2.281,30.146
				c-3.636,19.087-9.771,28.932-18.24,29.272c-1.371,6.156-4.465,17.013-10.85,27.951
				C244.744,222.299,224.792,233.936,199.894,233.936z M138.693,157.81l1.14,10.115c0.02,0.138,2.094,14.619,10.688,28.779
				c11.188,18.434,27.799,27.778,49.373,27.778c21.653,0,38.319-9.745,49.538-28.965c8.559-14.664,10.58-29.397,10.601-29.546
				l1.235-9.349l6.284,6.17c0.095,0.041,0.253,0.095,0.433,0.095c1.475,0,6.039-3.88,9.414-21.599
				c3.164-16.604,0.588-21.308-0.277-22.354c-0.373-0.45-0.719-0.625-1.232-0.625c-0.13,0-0.236,0.013-0.303,0.023l-8.307,3.493
				l2.271-9.017c2.54-11.668,6.656-45.024-4.656-59.066c-3.623-4.495-8.543-6.681-15.043-6.681l-3.557,0.049l-1.263-2.866
				c-0.104-0.23-10.919-23.935-32.88-23.935c-1.858,0-3.78,0.167-5.713,0.498c-8.555,1.464-18.146,2.207-28.508,2.208
				c-11.894,0-22.315-0.964-28.868-1.755c1.185,2.367,3.188,4.996,6.565,6.944l9.258,5.341l-10.181,3.253
				c-0.051,0.018-8.541,2.972-15.678,13.544c-9.661,14.309-12.519,36-8.266,62.731l1.097,6.896l-6.395-1.462
				c-0.732,0.01-1.652,0.247-2.454,1.266c-1.246,1.581-3.719,7.013,0.196,23.263c4.126,17.121,8.084,20.848,9.171,21.574
				L138.693,157.81z"/>
		</g>
		<g id="XMLID_1170_">
			<path fill="#FFFFFF" d="M200.009,389.096c-0.013,0.001-0.01,0-0.023,0c-104.156-0.005-149.424-35.768-151.3-37.288l-1.123-0.912
				l-0.421-1.382c-5.74-18.86-3.42-38.166-3.318-38.979c4.797-37.976,31.248-50.27,50.562-59.245
				c1.119-0.521,2.224-1.034,3.31-1.544c19.647-9.247,45.426-24.452,45.685-24.604l5.085-3.005l30.971,95.857l8.057-19.248
				c-4.365-4.925-13.354-16.829-13.354-31.338c0-5.657,1.98-10.438,5.729-13.82c6.918-6.247,17.487-5.895,20.131-5.692
				c2.641-0.198,13.214-0.554,20.132,5.692c3.747,3.383,5.729,8.163,5.729,13.82c0,14.509-8.99,26.413-13.355,31.339l8.059,19.247
				l30.971-95.857l5.085,3.005c0.259,0.151,26.036,15.356,45.685,24.604c1.086,0.511,2.191,1.024,3.313,1.545
				c19.314,8.978,45.768,21.271,50.563,59.237c0.103,0.819,2.424,20.126-3.322,38.986l-0.422,1.382l-1.123,0.911
				C349.432,353.329,304.163,389.091,200.009,389.096L200.009,389.096z M55.756,345.29c7.458,5.307,52.518,34.35,144.242,34.354
				c91.703-0.004,136.764-29.036,144.24-34.354c4.613-16.503,2.58-33.407,2.56-33.583c-4.141-32.777-25.938-42.907-45.168-51.846
				c-1.135-0.526-2.253-1.047-3.354-1.564c-14.721-6.928-32.729-17.083-41.368-22.056l-35.203,108.959l-20.371-48.656l2.376-2.245
				c0.121-0.114,12.697-12.264,12.697-26.89c0-2.993-0.854-5.22-2.61-6.806c-3.757-3.393-11.065-3.494-13.328-3.263l-0.305-2.979
				l-0.153,3.006l-0.166-3.105l-0.315,3.08c-2.437-0.232-9.622-0.105-13.346,3.279c-1.744,1.585-2.592,3.805-2.592,6.788
				c0,14.626,12.577,26.774,12.704,26.896l2.356,2.244l-1.25,3.009l-19.109,45.643l-35.204-108.958
				c-8.639,4.972-26.647,15.127-41.369,22.055c-1.1,0.518-2.218,1.037-3.351,1.563c-19.23,8.938-41.026,19.067-45.167,51.854
				C53.182,311.878,51.169,328.852,55.756,345.29z"/>
		</g>
	</g>
</g>
<g id="XMLID_285_">
	<g id="XMLID_339_">
		<path fill="#FFFFFF" d="M224.784,328.396l-29.058-0.006v-0.145c-3.817,0.006-7.634,0.018-11.45,0.029
			c-5.222,0.016-10.444,0.031-15.666,0.031c-9.833,0-17.813-0.06-25.115-0.188c-5.089-0.093-10.706-1.043-17.177-2.905
			c-10.065-2.901-16.205-10.599-17.755-22.263l-0.634-4.744c-1.709-12.769-3.477-25.972-4.772-39.038
			c-1.802-18.208,5.013-33.214,20.255-44.603c11.019-8.234,24.103-13.72,39.998-16.769c8.585-1.651,17.921-2.842,28.54-3.643
			c3.527-0.265,7.116-0.398,10.667-0.398c15.451,0,31.375,2.541,47.331,7.551c14.484,4.549,25.165,10.712,33.61,19.396
			c10.628,10.928,15.012,24.457,13.031,40.214c-0.69,5.509-1.343,11.129-1.974,16.563c-0.552,4.756-1.104,9.513-1.688,14.265
			c-0.497,4.088-1.1,8.844-1.942,13.509c-2.078,11.521-9.484,18.726-22.013,21.41c-7.855,1.683-15.733,1.698-23.352,1.713
			l-0.313,0.001C238.469,328.392,231.625,328.396,224.784,328.396z M204.113,320.004l20.671,0.005
			c6.835,0,13.673-0.004,20.508-0.019l0.313-0.001c7.517-0.015,14.616-0.029,21.611-1.527c9.13-1.956,14.061-6.627,15.516-14.699
			c0.804-4.447,1.388-9.061,1.871-13.036c0.582-4.738,1.132-9.477,1.682-14.214c0.633-5.453,1.288-11.092,1.982-16.642
			c1.671-13.287-1.836-24.186-10.721-33.321c-7.438-7.647-17.006-13.126-30.111-17.241c-15.142-4.755-30.221-7.166-44.818-7.166
			c-3.343,0-6.72,0.126-10.039,0.375c-10.293,0.776-19.317,1.926-27.586,3.516c-14.622,2.805-26.58,7.794-36.559,15.251
			c-12.726,9.508-18.421,21.976-16.929,37.057c1.281,12.924,3.039,26.055,4.739,38.753l0.635,4.749
			c1.109,8.342,4.957,13.349,11.763,15.311c5.755,1.656,10.664,2.5,15.005,2.58c7.248,0.126,15.182,0.186,24.965,0.186
			c5.213,0,10.426-0.017,15.64-0.032c5.223-0.016,10.446-0.031,15.669-0.031h4.193V320.004z"/>
	</g>
	<g id="XMLID_338_">
		<path fill="#FFFFFF" d="M200.111,188.243c-0.35,0-0.699-0.003-1.05-0.01c-0.247,0.003-0.497,0.005-0.743,0.005
			c0,0-0.004,0-0.005,0c-15.225,0.001-30.207-6.477-41.108-17.773c-11.04-11.438-16.805-26.588-16.233-42.659
			c1.125-31.515,26.761-56.201,58.364-56.201c15.89,0.004,31.292,6.541,42.276,17.933c10.95,11.358,16.666,26.278,16.095,42.01
			C256.574,162.809,230.736,188.243,200.111,188.243z M199.082,179.845l0.074,0.001c26.59,0.569,49.186-21.472,50.169-48.603
			c0.487-13.436-4.396-26.18-13.752-35.884c-9.55-9.906-22.414-15.363-36.224-15.367c-27.079,0-49.034,21.134-49.996,48.113
			c-0.49,13.775,4.441,26.751,13.886,36.537c9.329,9.667,22.113,15.21,35.074,15.21c0.24,0.034,0.464-0.001,0.695-0.005
			L199.082,179.845z"/>
	</g>
	<g id="XMLID_337_">
		<path fill="#FFFFFF" d="M326.797,294.995c-4.526,0-9.052-0.008-13.578-0.016c-3.729-0.007-7.457-0.014-11.186-0.016
			c-1.864-0.002-3.973-0.005-5.552-1.775c-1.563-1.754-1.337-3.733-1.119-5.647l0.025-0.227c0.352-3.164,0.739-6.336,1.127-9.507
			c0.985-8.063,2.005-16.402,2.371-24.549c0.608-13.418-4.356-25.095-14.759-34.707c-3.476-3.212-7.328-6.025-11.407-9.005
			c-1.858-1.357-3.78-2.761-5.669-4.209l-5.015-3.846l5.491-3.126c5.498-3.13,12.066-5.62,20.081-7.609
			c13.151-3.271,25.898-4.623,37.951-4.03c14.447,0.716,33.256,2.816,50.632,12.79c11.351,6.518,18.289,15.01,21.212,25.961
			c1.869,7.002,1.049,13.724,0.256,20.225l-0.014,0.115c-0.639,5.286-1.314,10.573-1.989,15.86
			c-0.469,3.672-0.938,7.344-1.396,11.019c-1.693,13.549-8.809,20.18-23.07,21.505c-7.382,0.686-14.855,0.703-22.084,0.72
			c-1.635,0.004-3.27,0.007-4.901,0.019C338.404,294.982,332.6,294.995,326.797,294.995z M303.911,286.578
			c3.106,0.003,6.215,0.009,9.322,0.014c10.303,0.017,20.607,0.036,30.912-0.039c1.646-0.012,3.293-0.016,4.941-0.02
			c7.042-0.016,14.323-0.033,21.328-0.684c10.4-0.966,14.318-4.547,15.523-14.191c0.458-3.681,0.928-7.362,1.398-11.043
			c0.673-5.269,1.346-10.536,1.982-15.809l0.015-0.12c0.729-5.972,1.416-11.612-0.034-17.047
			c-2.317-8.682-7.971-15.502-17.284-20.85c-12.349-7.088-26.804-10.692-46.869-11.687c-11.229-0.554-23.158,0.719-35.516,3.792
			c-4.505,1.118-8.477,2.394-11.993,3.857c0.01,0.007,0.019,0.014,0.028,0.021c4.092,2.988,8.322,6.079,12.153,9.618
			c12.129,11.209,18.16,25.472,17.445,41.246c-0.381,8.466-1.42,16.967-2.425,25.188
			C304.523,281.41,304.207,283.994,303.911,286.578z"/>
	</g>
	<g id="XMLID_336_">
		<path fill="#FFFFFF" d="M98.568,295.092c-0.286,0-0.596-0.023-0.905-0.055l-0.149-0.014c-5.49-0.015-11.061-0.023-16.631-0.032
			c-15.366-0.024-31.255-0.049-46.893-0.261c-4.083-0.055-8.471-0.828-13.81-2.435c-8.178-2.463-13.001-8.739-14.337-18.657
			c-1.477-10.989-2.803-21.926-4.017-32.108c-2.138-17.962,5.062-31.986,21.397-41.684c9.598-5.691,20.524-9.407,32.478-11.047
			c7.449-1.024,17.45-2.207,27.141-1.991c18.743,0.417,34.451,3.913,48.024,10.686c0.44,0.221,0.87,0.459,1.32,0.712l0.604,0.335
			l5.993,3.267l-5.623,3.869c-1.491,1.026-2.982,2.013-4.458,2.99c-3.102,2.053-6.031,3.991-8.748,6.153
			c-10.431,8.301-16.537,18.297-18.149,29.711c-0.847,5.992-0.526,12.375-0.053,18.38c0.408,5.207,1.117,10.534,1.802,15.687
			c0.427,3.209,0.869,6.527,1.239,9.818c0.329,2.906-1.995,4.751-3.112,5.638C101.081,294.531,100.059,295.092,98.568,295.092z
			 M80.428,195.17c-8.352,0-16.609,0.98-23.585,1.939c-10.839,1.487-20.71,4.835-29.339,9.951
			c-13.407,7.959-19.083,18.91-17.349,33.479c1.21,10.148,2.532,21.049,4,31.981c0.894,6.633,3.497,10.255,8.442,11.744
			c4.569,1.375,8.225,2.035,11.506,2.079c15.588,0.212,31.452,0.236,46.793,0.26c5.081,0.009,10.162,0.017,15.243,0.03
			c-0.285-2.321-0.595-4.652-0.897-6.928c-0.701-5.263-1.425-10.704-1.85-16.137c-0.51-6.48-0.85-13.415,0.11-20.21
			c1.923-13.608,9.066-25.418,21.231-35.1c2.456-1.954,5.057-3.736,7.626-5.447c-11.356-4.779-24.406-7.278-39.701-7.619
			C81.917,195.177,81.173,195.17,80.428,195.17z"/>
	</g>
	<g id="XMLID_335_">
		<path fill="#FFFFFF" d="M321.246,182.029c-12.705,0-24.584-4.99-33.448-14.049c-8.701-8.894-13.552-20.884-13.316-32.91
			c-0.268-12.083,4.563-24.122,13.263-33.04c8.81-9.032,20.705-14.009,33.496-14.015c13.192,0,25.305,5.145,34.131,14.485
			c8.216,8.695,12.951,20.477,12.991,32.325c0.039,12.075-4.757,24.039-13.159,32.823c-8.841,9.244-20.86,14.351-33.844,14.38
			L321.246,182.029z M321.265,96.402c-10.533,0.005-20.298,4.084-27.517,11.485c-7.155,7.335-11.121,17.204-10.88,27.076
			l0.002,0.097l-0.002,0.097c-0.214,9.817,3.768,19.643,10.925,26.958c7.272,7.434,17.022,11.527,27.453,11.527h0.094
			c10.68-0.024,20.554-4.212,27.803-11.791c6.917-7.231,10.865-17.072,10.833-26.998C359.911,115.952,345.413,96.402,321.265,96.402
			z"/>
	</g>
	<g id="XMLID_334_">
		<path fill="#FFFFFF" d="M79.806,182.029l-0.102,0c-26.316-0.054-46.919-20.722-46.905-47.052
			C32.816,108.64,53.462,88.01,79.802,88.01l0.238,0c25.948,0.127,46.53,20.816,46.858,47.1l0,0.066l-0.001,0.066
			C126.392,161.478,105.707,182.029,79.806,182.029z M79.802,96.397c-21.64,0-38.602,16.948-38.617,38.584
			c-0.011,21.633,16.916,38.615,38.536,38.66l0.084,4.193v-4.193c21.266,0,38.254-16.903,38.705-38.493
			c-0.304-21.629-17.208-38.646-38.511-38.751L79.802,96.397z"/>
	</g>
</g>
</svg>
