<svg xmlns="http://www.w3.org/2000/svg" width="400" height="400"><path d="M199.894 233.936c-24.87 0-44.796-11.278-57.627-32.616-6.393-10.632-9.483-21.2-10.85-27.17-7.322-.868-12.875-10.113-17.402-28.897-3.642-15.116-3.13-25.362 1.567-31.325 1.613-2.047 3.468-3.244 5.172-3.938-3.726-27.83-.06-49.89 10.913-65.624 4.4-6.31 9.22-10.38 13.045-12.905-6.396-6.964-6.787-15.26-6.803-15.697l-.213-5.813 5.734.983c.154.026 15.594 2.634 34.498 2.634 9.83 0 18.885-.697 26.916-2.07 2.457-.42 4.915-.633 7.307-.633 23.34 0 36.142 19.46 40.153 26.833 8.277.553 14.98 3.954 19.954 10.13 13.324 16.552 9.62 48.984 7.508 61.736 1.77.67 3.353 1.805 4.633 3.352 4.39 5.306 5.136 15.167 2.28 30.147-3.635 19.087-9.77 28.93-18.24 29.272-1.372 6.157-4.466 17.013-10.85 27.95-12.848 22.014-32.8 33.65-57.698 33.65zm-61.2-76.126l1.14 10.115c.02.138 2.094 14.62 10.688 28.78 11.188 18.434 27.8 27.78 49.373 27.78 21.653 0 38.32-9.745 49.537-28.965 8.56-14.664 10.58-29.398 10.6-29.546l1.235-9.35 6.285 6.17a1.11 1.11 0 0 0 .433.095c1.474 0 6.04-3.88 9.414-21.6 3.164-16.604.587-21.307-.278-22.353-.373-.45-.72-.625-1.232-.625a2.04 2.04 0 0 0-.303.023l-8.307 3.493 2.272-9.016c2.54-11.668 6.656-45.025-4.657-59.067-3.622-4.495-8.542-6.68-15.042-6.68l-3.557.05-1.263-2.867c-.103-.23-10.92-23.934-32.88-23.934a33.95 33.95 0 0 0-5.713.498c-8.555 1.464-18.147 2.207-28.51 2.208-11.894 0-22.315-.964-28.868-1.755a16.4 16.4 0 0 0 6.565 6.944l9.258 5.34-10.18 3.253c-.05.018-8.54 2.972-15.678 13.544-9.66 14.31-12.52 36-8.266 62.73l1.097 6.896-6.395-1.462c-.732.01-1.652.247-2.454 1.266-1.246 1.58-3.72 7.012.196 23.262 4.126 17.12 8.084 20.848 9.17 21.575l6.317-6.803zm61.316 231.286c-.013.001-.01 0-.023 0-104.156-.005-149.424-35.767-151.3-37.288l-1.123-.912-.42-1.382c-5.74-18.86-3.42-38.166-3.318-38.98 4.797-37.976 31.248-50.27 50.562-59.246l3.3-1.544c19.647-9.247 45.426-24.452 45.685-24.604l5.085-3.005 30.97 95.858 8.057-19.248c-4.365-4.925-13.354-16.83-13.354-31.34 0-5.657 1.98-10.438 5.73-13.82 6.918-6.247 17.487-5.894 20.13-5.692 2.64-.198 13.214-.554 20.132 5.692 3.747 3.383 5.73 8.163 5.73 13.82 0 14.51-9 26.414-13.355 31.34l8.058 19.247 30.97-95.858 5.085 3.005c.26.15 26.036 15.356 45.685 24.604l3.312 1.545c19.314 8.978 45.768 21.27 50.563 59.238.102.82 2.423 20.126-3.323 38.986l-.422 1.382-1.122.91c-1.882 1.523-47.15 37.284-151.304 37.29zM55.756 345.29c7.458 5.306 52.518 34.35 144.242 34.353 91.703-.004 136.764-29.036 144.24-34.354 4.614-16.503 2.58-33.408 2.56-33.583-4.14-32.778-25.938-42.908-45.168-51.846l-3.354-1.565c-14.722-6.928-32.73-17.083-41.37-22.055L221.704 345.2l-20.37-48.657 2.376-2.245c.12-.114 12.697-12.264 12.697-26.9 0-2.993-.854-5.22-2.6-6.805-3.757-3.393-11.066-3.494-13.328-3.263l-.305-2.98-.153 3.005-.166-3.105-.315 3.08c-2.437-.232-9.622-.105-13.346 3.28-1.744 1.585-2.592 3.805-2.592 6.788 0 14.626 12.577 26.775 12.704 26.896l2.356 2.244-1.25 3.01-19.11 45.643-35.204-108.96-41.37 22.055-3.35 1.564c-19.23 8.938-41.026 19.067-45.167 51.854-.02.164-2.032 17.138 2.555 33.577z" fill="#fff"/></svg>