<?xml version="1.0" encoding="utf-8"?>
<!-- Generator: Adobe Illustrator 16.0.0, SVG Export Plug-In . SVG Version: 6.00 Build 0)  -->
<!DOCTYPE svg PUBLIC "-//W3C//DTD SVG 1.1//EN" "http://www.w3.org/Graphics/SVG/1.1/DTD/svg11.dtd">
<svg version="1.1" xmlns="http://www.w3.org/2000/svg" xmlns:xlink="http://www.w3.org/1999/xlink" x="0px" y="0px" width="400px"
	 height="400px" viewBox="0 0 400 400" enable-background="new 0 0 400 400" xml:space="preserve">
<g id="Capa_1" display="none">
	<g id="XMLID_1169_" display="inline">
		<g id="XMLID_1171_">
			<path fill="#FFFFFF" d="M199.894,233.936c-24.87,0-44.796-11.278-57.627-32.616c-6.393-10.632-9.483-21.19-10.849-27.17
				c-7.322-0.868-12.875-10.113-17.402-28.897c-3.642-15.116-3.129-25.362,1.567-31.325c1.613-2.047,3.468-3.244,5.172-3.938
				c-3.726-27.83-0.061-49.891,10.913-65.624c4.401-6.311,9.221-10.379,13.045-12.905c-6.396-6.964-6.787-15.261-6.803-15.697
				l-0.213-5.813l5.734,0.983c0.154,0.026,15.594,2.634,34.498,2.634c9.829,0,18.885-0.697,26.916-2.071
				c2.457-0.42,4.915-0.633,7.307-0.633c23.341,0,36.142,19.461,40.153,26.833c8.277,0.553,14.981,3.954,19.954,10.13
				c13.324,16.552,9.62,48.984,7.508,61.736c1.77,0.669,3.353,1.805,4.633,3.352c4.391,5.306,5.136,15.167,2.281,30.147
				c-3.635,19.087-9.77,28.931-18.239,29.272c-1.372,6.157-4.466,17.013-10.85,27.951
				C244.744,222.299,224.792,233.936,199.894,233.936z M138.693,157.81l1.14,10.115c0.02,0.138,2.094,14.619,10.688,28.779
				c11.188,18.434,27.799,27.779,49.373,27.779c21.653,0,38.319-9.745,49.537-28.965c8.559-14.664,10.581-29.398,10.601-29.546
				l1.235-9.349l6.285,6.17c0.094,0.041,0.252,0.095,0.433,0.095c1.474,0,6.039-3.88,9.414-21.599
				c3.164-16.604,0.587-21.307-0.278-22.353c-0.373-0.45-0.719-0.625-1.232-0.625c-0.13,0-0.236,0.013-0.303,0.023l-8.307,3.493
				l2.272-9.016c2.54-11.668,6.656-45.025-4.657-59.067c-3.622-4.495-8.542-6.68-15.042-6.68l-3.557,0.049l-1.263-2.867
				c-0.103-0.23-10.919-23.934-32.879-23.934c-1.859,0-3.781,0.167-5.713,0.498c-8.555,1.464-18.147,2.207-28.509,2.208
				c-11.894,0-22.315-0.964-28.868-1.755c1.185,2.367,3.188,4.996,6.565,6.944l9.258,5.341l-10.181,3.253
				c-0.051,0.018-8.541,2.972-15.678,13.544c-9.661,14.309-12.519,36-8.266,62.731l1.097,6.896l-6.395-1.462
				c-0.732,0.01-1.652,0.247-2.454,1.266c-1.246,1.581-3.719,7.012,0.196,23.262c4.126,17.121,8.084,20.848,9.171,21.575
				L138.693,157.81z"/>
		</g>
		<g id="XMLID_1170_">
			<path fill="#FFFFFF" d="M200.009,389.096c-0.013,0.001-0.01,0-0.023,0c-104.156-0.005-149.424-35.767-151.3-37.288l-1.123-0.912
				l-0.421-1.382c-5.74-18.86-3.42-38.166-3.318-38.979c4.797-37.976,31.248-50.27,50.562-59.246c1.119-0.52,2.224-1.034,3.31-1.544
				c19.647-9.247,45.426-24.452,45.685-24.604l5.085-3.005l30.971,95.858l8.057-19.248c-4.365-4.925-13.354-16.83-13.354-31.339
				c0-5.657,1.98-10.438,5.729-13.82c6.918-6.247,17.487-5.894,20.131-5.692c2.641-0.198,13.214-0.554,20.132,5.692
				c3.747,3.383,5.729,8.163,5.729,13.82c0,14.509-8.99,26.414-13.355,31.34l8.058,19.247l30.971-95.858l5.085,3.005
				c0.259,0.151,26.036,15.356,45.685,24.604c1.086,0.511,2.191,1.025,3.312,1.545c19.314,8.978,45.768,21.271,50.563,59.238
				c0.102,0.819,2.423,20.126-3.323,38.986l-0.422,1.382l-1.122,0.911C349.431,353.33,304.163,389.091,200.009,389.096
				L200.009,389.096z M55.756,345.291c7.458,5.306,52.518,34.349,144.242,34.353c91.703-0.004,136.764-29.036,144.24-34.354
				c4.614-16.503,2.581-33.408,2.56-33.583c-4.141-32.778-25.938-42.908-45.168-51.846c-1.135-0.527-2.253-1.047-3.354-1.565
				c-14.722-6.928-32.729-17.083-41.369-22.055L221.704,345.2l-20.371-48.657l2.376-2.245c0.121-0.114,12.697-12.264,12.697-26.89
				c0-2.993-0.854-5.219-2.61-6.805c-3.757-3.393-11.066-3.494-13.328-3.263l-0.305-2.979l-0.153,3.005l-0.166-3.105l-0.315,3.08
				c-2.437-0.232-9.622-0.105-13.346,3.279c-1.744,1.585-2.592,3.805-2.592,6.788c0,14.626,12.577,26.775,12.704,26.896l2.356,2.244
				l-1.25,3.009L178.292,345.2l-35.204-108.959c-8.639,4.972-26.647,15.127-41.369,22.055c-1.1,0.518-2.218,1.037-3.351,1.564
				c-19.23,8.938-41.026,19.067-45.167,51.854C53.182,311.878,51.169,328.852,55.756,345.291z"/>
		</g>
	</g>
</g>
<g id="Capa_2" display="none">
	<g display="inline">
		<g id="XMLID_1179_">
			<g id="XMLID_1190_">
				<path fill="#FFFFFF" d="M139.786,268.048c-1.997,0-3.811-1.354-4.31-3.38c-0.588-2.383,0.867-4.79,3.249-5.378l53.536-13.208
					c2.384-0.585,4.79,0.867,5.377,3.25c0.588,2.382-0.867,4.79-3.249,5.378l-53.535,13.208
					C140.497,268.006,140.138,268.048,139.786,268.048z"/>
			</g>
			<g id="XMLID_1189_">
				<path fill="#FFFFFF" d="M140.237,256.08c-0.04,0-0.079-0.001-0.118-0.002c-2.453-0.063-4.39-2.104-4.326-4.557
					c0.397-15.299-9.522-31.28-18.938-41.136c-9.815-10.274-16.745-22.777-17.035-23.304c-0.022-0.041-0.044-0.082-0.065-0.123
					c-5.9-11.561-8.891-24.047-8.891-37.111c0-45.056,36.657-81.711,81.715-81.711c32.913,0,62.465,19.588,75.287,49.904
					c0.956,2.26-0.101,4.867-2.36,5.823c-2.259,0.956-4.867-0.102-5.823-2.361c-11.428-27.02-37.768-44.479-67.104-44.479
					c-40.158,0-72.83,32.669-72.83,72.826c0,11.621,2.653,22.724,7.886,33.002c0.498,0.89,6.965,12.311,15.646,21.397
					c10.65,11.148,21.863,29.482,21.395,47.506C144.613,254.166,142.637,256.08,140.237,256.08z"/>
			</g>
			<g id="XMLID_1188_">
				<path fill="#FFFFFF" d="M137.351,291.092c-1.955,0-3.745-1.3-4.284-3.276c-0.646-2.367,0.751-4.81,3.119-5.455l56.082-15.279
					c2.366-0.642,4.809,0.753,5.454,3.119c0.645,2.368-0.751,4.81-3.119,5.455l-56.082,15.279
					C138.13,291.041,137.737,291.092,137.351,291.092z"/>
			</g>
			<g id="XMLID_1187_">
				<path fill="#FFFFFF" d="M137.351,314.578c-1.955,0-3.745-1.3-4.284-3.276c-0.646-2.367,0.751-4.81,3.118-5.455l55.862-15.224
					c2.368-0.641,4.81,0.752,5.455,3.119c0.645,2.368-0.751,4.81-3.118,5.455l-55.862,15.224
					C138.13,314.526,137.737,314.578,137.351,314.578z"/>
			</g>
			<g id="XMLID_1186_">
				<path fill="#FFFFFF" d="M161.734,241.678c-0.179,0-0.359-0.011-0.54-0.033c-2.435-0.295-4.169-2.506-3.877-4.939l0,0
					c0.033-0.28,3.167-28.315-10.617-55.054c-0.601-1.166-0.656-2.537-0.151-3.748c0.506-1.21,1.52-2.135,2.771-2.528
					c5.882-1.844,19.015-1.388,26.624,13.525c1.115,2.185,0.248,4.861-1.938,5.977c-2.186,1.115-4.861,0.248-5.977-1.938
					c-3.177-6.226-7.257-8.475-10.511-9.178c11.695,27.109,8.761,52.846,8.62,54.008
					C165.866,240.023,163.949,241.678,161.734,241.678z"/>
			</g>
			<g id="XMLID_1185_">
				<path fill="#FFFFFF" d="M182.238,241.678c-2.214,0-4.131-1.654-4.405-3.908c-0.141-1.162-3.073-26.887,8.613-53.988
					c-3.264,0.708-7.339,2.959-10.501,9.157c-1.115,2.186-3.79,3.054-5.976,1.939c-2.186-1.115-3.054-3.791-1.938-5.977
					c7.607-14.914,20.741-15.366,26.623-13.525c1.251,0.392,2.266,1.317,2.771,2.528s0.451,2.582-0.151,3.748
					c-13.84,26.843-10.653,54.769-10.619,55.048c0.295,2.436-1.44,4.649-3.876,4.944
					C182.597,241.667,182.416,241.678,182.238,241.678z"/>
			</g>
			<g id="XMLID_1184_">
				<path fill="#FFFFFF" d="M172.578,55.758c-2.454,0-4.442-1.989-4.442-4.443V15.416c0-2.454,1.989-4.443,4.442-4.443
					s4.442,1.989,4.442,4.443v35.899C177.021,53.769,175.032,55.758,172.578,55.758z"/>
			</g>
			<g id="XMLID_1183_">
				<path fill="#FFFFFF" d="M104.931,90.656c-0.922,0-1.852-0.286-2.648-0.878L73.551,68.402c-1.968-1.465-2.377-4.248-0.913-6.217
					c1.464-1.969,4.248-2.377,6.216-0.913l28.732,21.376c1.969,1.465,2.377,4.248,0.913,6.217
					C107.627,90.037,106.288,90.656,104.931,90.656z"/>
			</g>
			<g id="XMLID_1182_">
				<path fill="#FFFFFF" d="M240.238,90.656c-1.357,0-2.696-0.619-3.568-1.791c-1.465-1.969-1.056-4.752,0.912-6.217l28.733-21.376
					c1.971-1.465,4.752-1.055,6.216,0.913c1.465,1.969,1.056,4.752-0.912,6.217l-28.733,21.376
					C242.089,90.37,241.159,90.656,240.238,90.656z"/>
			</g>
			<g id="XMLID_1181_">
				<path fill="#FFFFFF" d="M75.266,152.902H38.479c-2.454,0-4.442-1.989-4.442-4.442c0-2.454,1.989-4.443,4.442-4.443h36.787
					c2.454,0,4.442,1.989,4.442,4.443C79.708,150.914,77.719,152.902,75.266,152.902z"/>
			</g>
			<g id="XMLID_1180_">
				<path fill="#FFFFFF" d="M56.874,241.678c-1.279,0-2.547-0.55-3.426-1.611c-1.564-1.891-1.299-4.69,0.591-6.256l30.803-25.483
					c1.889-1.563,4.69-1.299,6.255,0.592c1.564,1.891,1.299,4.69-0.591,6.256l-30.803,25.483
					C58.875,241.343,57.871,241.678,56.874,241.678z"/>
			</g>
		</g>
		<g id="XMLID_1065_">
			<g id="XMLID_1173_">
				<path fill="#FFFFFF" d="M361.395,121.12c0,2.075,0,3.644,0,5.212c0,64.137-0.35,128.282,0.184,192.416
					c0.189,22.326-13.135,35.371-32.461,39.964c-4.165,0.991-8.289,1.53-12.361,1.53c-7.194,0-14.227-1.682-21.033-5.517
					c-12.598-7.099-16.586-23.534-9.053-35.845c8.172-13.354,25.282-20.909,40.476-20.907c3.714,0,7.315,0.451,10.642,1.38
					c1.16,0.32,2.347,0.554,3.803,0.894c0-40.837,0-81.411,0-122.385c-6.561,1.156-13.006,2.243-19.435,3.438
					c-26.333,4.885-52.665,9.805-78.999,14.703c-1.806,0.335-3.622,0.584-5.436,0.868c-6.947,1.079-5.899,0.254-5.925,6.866
					c-0.172,47.737-0.361,95.479-0.399,143.214c-0.013,14.91-7.584,24.862-20.045,31.65c-7.403,4.034-15.077,6.043-22.898,6.043
					c-5.214,0-10.496-0.894-15.803-2.674c-22.527-7.554-24.502-29.618-10.78-43.999c9.694-10.159,21.226-14.811,34.06-14.811
					c4.093,0,8.317,0.474,12.658,1.392c0.933,0.198,1.891,0.25,3.265,0.426c0-1.839,0-3.404,0-4.972
					c0-56.674,0.045-113.348-0.103-170.017c-0.008-3.85,1.023-5.208,4.809-5.796c30.691-4.778,61.354-9.741,92.02-14.678
					c16.056-2.587,32.104-5.247,48.157-7.855C358.047,121.446,359.375,121.352,361.395,121.12 M361.395,112.234
					c-0.337,0-0.675,0.019-1.013,0.058c-0.67,0.077-1.26,0.138-1.797,0.193c-1.117,0.116-2.174,0.225-3.286,0.407
					c-6.59,1.071-13.192,2.152-19.795,3.233c-9.289,1.522-18.895,3.096-28.339,4.617l-11.331,1.825
					c-26.427,4.257-53.754,8.659-80.642,12.846c-5.635,0.876-12.348,4.12-12.326,14.594c0.119,46.021,0.112,92.816,0.105,138.069
					l-0.003,26.588c-2.391-0.258-4.742-0.388-7.038-0.388c-15.746,0-29.368,5.907-40.488,17.562
					c-9.228,9.67-13.02,22.378-10.145,33.99c2.845,11.493,11.556,20.217,24.528,24.566c6.199,2.081,12.467,3.135,18.627,3.135
					c9.339,0,18.473-2.397,27.151-7.126c16.359-8.912,24.662-22.184,24.677-39.444c0.036-43.021,0.194-86.772,0.349-129.082
					l0.046-12.469c1.323-0.199,2.692-0.407,4.104-0.668c10.108-1.881,20.213-3.764,30.319-5.647
					c16.226-3.023,32.451-6.046,48.678-9.057c2.978-0.554,5.919-1.077,8.929-1.604v100.946c-1.812-0.193-3.668-0.291-5.559-0.291
					c-19.536-0.001-38.849,10.107-48.056,25.155c-4.905,8.017-6.356,17.856-3.98,26.998c2.37,9.118,8.141,16.656,16.25,21.226
					c7.845,4.42,16.389,6.66,25.396,6.66c4.629,0,9.48-0.596,14.419-1.771c11.897-2.827,21.392-8.268,28.216-16.168
					c7.457-8.633,11.183-19.572,11.072-32.515c-0.381-45.908-0.309-92.616-0.239-137.784c0.027-17.881,0.056-36.37,0.056-54.557
					v-5.212c0-2.533-1.08-4.945-2.971-6.632C365.673,113.029,363.563,112.234,361.395,112.234L361.395,112.234z"/>
			</g>
			<g id="XMLID_1066_">
				<path fill="#FFFFFF" d="M361.395,121.12c0,2.075,0,3.644,0,5.212c0,64.137-0.35,128.282,0.184,192.416
					c0.189,22.326-13.135,35.371-32.461,39.964c-4.164,0.99-8.291,1.53-12.361,1.53c-7.195,0-14.226-1.682-21.033-5.517
					c-12.598-7.099-16.586-23.534-9.053-35.845c8.171-13.354,25.283-20.907,40.476-20.907c3.715,0,7.314,0.451,10.642,1.38
					c1.16,0.32,2.347,0.554,3.803,0.894c0-40.837,0-81.411,0-122.385c-6.561,1.156-13.006,2.243-19.435,3.438
					c-26.333,4.885-52.665,9.805-78.999,14.703c-1.806,0.335-3.622,0.584-5.436,0.868c-6.947,1.079-5.899,0.254-5.925,6.866
					c-0.172,47.737-0.361,95.479-0.399,143.214c-0.013,14.91-7.584,24.862-20.045,31.65c-7.402,4.034-15.078,6.043-22.898,6.043
					c-5.215,0-10.495-0.894-15.803-2.674c-22.527-7.554-24.502-29.618-10.78-43.999c9.693-10.158,21.227-14.811,34.06-14.811
					c4.093,0,8.316,0.474,12.658,1.392c0.933,0.198,1.891,0.25,3.265,0.426c0-1.839,0-3.404,0-4.972
					c0-56.674,0.045-113.348-0.103-170.017c-0.008-3.85,1.023-5.208,4.809-5.796c30.691-4.778,61.354-9.741,92.02-14.678
					c16.056-2.587,32.104-5.247,48.157-7.855C358.047,121.446,359.375,121.352,361.395,121.12 M361.395,112.234
					c-0.337,0-0.675,0.019-1.013,0.058c-0.67,0.077-1.26,0.138-1.797,0.193c-1.117,0.116-2.174,0.225-3.286,0.407
					c-6.59,1.071-13.192,2.152-19.795,3.233c-9.289,1.522-18.895,3.096-28.339,4.617l-11.331,1.825
					c-26.427,4.257-53.754,8.659-80.642,12.846c-5.635,0.876-12.348,4.12-12.326,14.594c0.119,46.021,0.112,92.816,0.105,138.069
					l-0.003,26.588c-2.391-0.258-4.742-0.388-7.038-0.388c-15.746,0-29.369,5.908-40.488,17.562
					c-9.228,9.67-13.02,22.378-10.145,33.99c2.845,11.493,11.556,20.217,24.528,24.566c6.199,2.081,12.467,3.135,18.627,3.135
					c9.339,0,18.473-2.397,27.15-7.126c16.36-8.912,24.663-22.184,24.678-39.444c0.036-43.021,0.194-86.772,0.349-129.082
					l0.046-12.469c1.323-0.199,2.692-0.407,4.104-0.668c10.108-1.881,20.213-3.764,30.319-5.647
					c16.226-3.023,32.451-6.046,48.678-9.057c2.978-0.554,5.919-1.077,8.929-1.604v100.946c-1.813-0.194-3.669-0.291-5.56-0.291
					c-19.536,0-38.849,10.109-48.055,25.155c-4.905,8.017-6.356,17.856-3.98,26.998c2.37,9.118,8.141,16.656,16.25,21.226
					c7.845,4.42,16.389,6.66,25.396,6.66c4.629,0,9.48-0.596,14.419-1.771c11.897-2.827,21.392-8.268,28.216-16.168
					c7.457-8.633,11.183-19.572,11.072-32.515c-0.381-45.908-0.309-92.616-0.239-137.784c0.027-17.881,0.056-36.37,0.056-54.557
					v-5.212c0-2.533-1.08-4.945-2.971-6.632C365.673,113.029,363.563,112.234,361.395,112.234L361.395,112.234z"/>
			</g>
		</g>
	</g>
</g>
<g id="Capa_3">
	<g id="XMLID_1010_">
		<g id="XMLID_1012_">
			<g id="XMLID_1064_">
				<path fill="#FFFFFF" d="M111.74,277.495c-1.166,0-2.332-0.444-3.221-1.334l-24.513-24.514c-1.779-1.779-1.779-4.664,0-6.443
					c1.778-1.777,4.663-1.779,6.442,0l24.513,24.514c1.779,1.779,1.779,4.664,0,6.443
					C114.072,277.05,112.905,277.495,111.74,277.495z"/>
			</g>
			<g id="XMLID_1022_">
				<path fill="#FFFFFF" d="M275.443,111.982c-1.166,0-2.332-0.445-3.222-1.334l-24.513-24.513c-1.778-1.779-1.778-4.664,0-6.442
					c1.779-1.779,4.664-1.779,6.443,0l24.513,24.513c1.778,1.779,1.778,4.664,0,6.442
					C277.775,111.538,276.609,111.982,275.443,111.982z"/>
			</g>
			<g id="XMLID_1021_">
				<path fill="#FFFFFF" d="M141.884,250.148c-1.147,0-2.296-0.431-3.182-1.296l-27.472-26.818
					c-1.801-1.758-1.835-4.642-0.078-6.442c1.757-1.799,4.642-1.836,6.442-0.077l27.472,26.818c1.801,1.758,1.835,4.642,0.078,6.442
					C144.252,249.689,143.069,250.148,141.884,250.148z"/>
			</g>
			<g id="XMLID_1020_">
				<path fill="#FFFFFF" d="M250.931,142.635c-1.16,0-2.32-0.44-3.208-1.321l-27.694-27.472c-1.786-1.772-1.798-4.656-0.026-6.443
					c1.772-1.786,4.657-1.798,6.442-0.026l27.694,27.472c1.786,1.772,1.798,4.656,0.026,6.443
					C253.274,142.186,252.103,142.635,250.931,142.635z"/>
			</g>
			<g id="XMLID_1013_">
				<g id="XMLID_1018_">
					<path fill="#FFFFFF" d="M290.343,187.479c-1.166,0-2.332-0.445-3.222-1.334c-1.778-1.779-1.778-4.664,0-6.442l61.292-61.292
						l-63.582-63.574l-58.356,58.975c-1.77,1.789-4.655,1.804-6.442,0.034c-1.789-1.77-1.804-4.654-0.034-6.442l61.577-62.23
						c0.853-0.862,2.014-1.348,3.227-1.352c0.004,0,0.008,0,0.012,0c1.208,0,2.366,0.48,3.221,1.334l70.042,70.034
						c0.854,0.854,1.335,2.013,1.335,3.222c0,1.208-0.48,2.367-1.334,3.221l-64.513,64.513
						C292.675,187.035,291.509,187.479,290.343,187.479z"/>
				</g>
				<g id="XMLID_1017_">
					<path fill="#FFFFFF" d="M118.684,359.14c-1.166,0-2.332-0.444-3.221-1.334L45.42,287.768c-0.854-0.854-1.334-2.014-1.334-3.222
						s0.48-2.367,1.334-3.222l65.771-65.771c1.779-1.777,4.663-1.777,6.442,0c1.779,1.779,1.779,4.664,0,6.443l-62.55,62.55
						l63.6,63.596l59.396-59.4c1.778-1.777,4.663-1.779,6.442,0s1.779,4.664,0,6.443l-62.618,62.621
						C121.016,358.694,119.85,359.14,118.684,359.14z"/>
				</g>
				<g id="XMLID_1014_">
					<g id="XMLID_1016_">
						<path fill="#FFFFFF" d="M311.064,354.064c-1.685,0-3.305-0.939-4.095-2.555c-9.438-19.295,6.364-36.774,7.041-37.509
							c0.084-0.091,0.171-0.178,0.261-0.261c0.734-0.678,18.207-16.482,37.505-7.038c2.261,1.105,3.196,3.834,2.09,6.094
							c-1.105,2.261-3.836,3.193-6.094,2.09c-13.024-6.371-25.745,4.176-27.188,5.433c-1.355,1.545-11.818,14.129-5.431,27.188
							c1.106,2.261,0.17,4.988-2.09,6.094C312.419,353.915,311.736,354.064,311.064,354.064z"/>
					</g>
					<g id="XMLID_1015_">
						<path fill="#FFFFFF" d="M266.903,341.225c-1.189,0-2.354-0.466-3.223-1.334L34.677,110.888
							c-0.92-0.92-1.403-2.189-1.327-3.489c0.058-0.975,1.684-24.167,25.915-48.398c25.201-25.201,46.213-25.929,48.525-25.929
							l0.292,0.004c1.145,0.046,2.265,0.522,3.074,1.332l229.005,229.001c1.216,1.217,1.644,3.015,1.104,4.649
							c-0.539,1.634-1.952,2.824-3.654,3.078l-16.981,2.532l-2.528,16.979c-0.295,1.982-1.852,3.539-3.834,3.835l-16.985,2.532
							l-2.528,16.977c-0.295,1.982-1.852,3.539-3.834,3.835l-16.985,2.531l-2.527,16.981c-0.253,1.702-1.444,3.116-3.078,3.655
							C267.862,341.149,267.381,341.225,266.903,341.225z M42.705,106.031l221.023,221.021l1.692-11.372
							c0.295-1.982,1.852-3.539,3.834-3.835l16.985-2.532l2.528-16.976c0.295-1.982,1.852-3.539,3.834-3.835l16.985-2.532
							l2.528-16.979c0.295-1.982,1.852-3.539,3.834-3.835l11.376-1.696L106.156,42.292c-5.052,0.545-21.094,3.796-40.449,23.151
							C47.909,83.243,43.659,100.404,42.705,106.031z"/>
					</g>
				</g>
			</g>
		</g>
		<g id="XMLID_1011_">
			<path fill="#FFFFFF" d="M359.102,366.921c-2.479,0-4.79-0.958-5.915-1.51l-87.506-24.354c-2.424-0.675-3.842-3.187-3.167-5.61
				c0.674-2.424,3.188-3.844,5.61-3.167l87.953,24.478c0.337,0.094,0.662,0.226,0.969,0.395c0.104,0.055,0.218,0.109,0.337,0.163
				c-0.078-0.416-0.193-0.915-0.358-1.509l-24.473-87.955c-0.675-2.424,0.743-4.936,3.168-5.609c2.422-0.68,4.936,0.744,5.609,3.167
				l24.473,87.954c0.589,2.112,2.382,8.546-1.974,11.999C362.364,366.523,360.698,366.921,359.102,366.921z"/>
		</g>
	</g>
</g>
</svg>
