<svg xmlns="http://www.w3.org/2000/svg" width="400" height="400"><g fill="#fff"><path d="M111.74 277.495c-1.166 0-2.332-.444-3.22-1.334l-24.513-24.514c-1.78-1.78-1.78-4.664 0-6.443a4.56 4.56 0 0 1 6.442 0l24.513 24.514c1.78 1.78 1.78 4.664 0 6.443-.89.89-2.056 1.334-3.22 1.334zm163.703-165.513c-1.166 0-2.332-.445-3.222-1.334l-24.513-24.513a4.56 4.56 0 0 1 0-6.442 4.56 4.56 0 0 1 6.443 0l24.513 24.513a4.56 4.56 0 0 1 0 6.442c-.89.9-2.055 1.334-3.22 1.334zm-133.56 138.166c-1.147 0-2.296-.43-3.182-1.296l-27.472-26.818c-1.8-1.758-1.835-4.642-.078-6.442s4.642-1.836 6.442-.077l27.472 26.818c1.8 1.758 1.835 4.642.078 6.442a4.54 4.54 0 0 1-3.26 1.373zM250.93 142.635a4.54 4.54 0 0 1-3.208-1.321l-27.694-27.472c-1.786-1.772-1.798-4.656-.026-6.443s4.657-1.798 6.442-.026l27.694 27.472c1.786 1.772 1.798 4.656.026 6.443a4.54 4.54 0 0 1-3.234 1.347z"/><path d="M290.343 187.48c-1.166 0-2.332-.445-3.222-1.334a4.56 4.56 0 0 1 0-6.442l61.292-61.292-63.582-63.574-58.356 58.975c-1.77 1.79-4.655 1.804-6.442.034s-1.804-4.654-.034-6.442l61.577-62.23a4.56 4.56 0 0 1 3.227-1.352h.012a4.56 4.56 0 0 1 3.221 1.334l70.042 70.034c.854.854 1.335 2.013 1.335 3.222s-.48 2.367-1.334 3.22l-64.513 64.513a4.55 4.55 0 0 1-3.223 1.333zm-171.66 171.66a4.54 4.54 0 0 1-3.221-1.334L45.42 287.768a4.56 4.56 0 0 1 0-6.444l65.77-65.77a4.56 4.56 0 0 1 6.442 0c1.78 1.78 1.78 4.664 0 6.443l-62.55 62.55 63.6 63.596 59.396-59.4c1.778-1.777 4.663-1.78 6.442 0s1.78 4.664 0 6.443l-62.618 62.62a4.54 4.54 0 0 1-3.219 1.334zm192.38-5.076c-1.685 0-3.305-.94-4.095-2.555-9.438-19.295 6.364-36.774 7.04-37.51.084-.09.17-.178.26-.26.734-.678 18.207-16.482 37.505-7.038 2.26 1.105 3.196 3.834 2.1 6.094a4.56 4.56 0 0 1-6.094 2.09c-13.024-6.37-25.745 4.176-27.188 5.433-1.355 1.545-11.818 14.13-5.43 27.188 1.106 2.26.17 4.988-2.1 6.094a4.54 4.54 0 0 1-1.999.464zm-44.16-12.84a4.56 4.56 0 0 1-3.223-1.334L34.677 110.888a4.56 4.56 0 0 1-1.327-3.489c.058-.975 1.684-24.167 25.915-48.398 25.2-25.2 46.213-25.93 48.525-25.93l.292.004a4.64 4.64 0 0 1 3.074 1.332l229.005 229c1.216 1.217 1.644 3.015 1.104 4.65s-1.952 2.824-3.654 3.078l-16.98 2.532-2.528 16.98c-.295 1.982-1.852 3.54-3.834 3.835l-16.985 2.532-2.528 16.977a4.56 4.56 0 0 1-3.834 3.835l-16.985 2.53-2.527 16.98c-.253 1.702-1.444 3.116-3.078 3.655-.47.156-.95.232-1.428.232zM42.705 106.03l221.023 221.02 1.692-11.372c.295-1.982 1.852-3.54 3.834-3.835l16.985-2.532 2.528-16.976c.295-1.982 1.852-3.54 3.834-3.835l16.985-2.532 2.528-16.98c.295-1.982 1.852-3.54 3.834-3.835l11.376-1.696L106.156 42.292c-5.052.545-21.094 3.796-40.45 23.15-17.798 17.8-22.048 34.96-23.002 40.588z"/><path d="M359.102 366.92c-2.48 0-4.8-.958-5.915-1.5l-87.506-24.354c-2.424-.675-3.842-3.187-3.167-5.6s3.188-3.844 5.6-3.167l87.953 24.478c.337.094.662.226.97.395l.337.163c-.078-.416-.193-.915-.358-1.51l-24.473-87.955c-.675-2.424.743-4.936 3.168-5.61 2.422-.68 4.936.744 5.61 3.167l24.473 87.954c.59 2.112 2.382 8.546-1.974 12-1.464 1.16-3.13 1.558-4.726 1.558z"/></g></svg>