<?xml version="1.0" encoding="utf-8"?>
<!-- Generator: Adobe Illustrator 16.0.0, SVG Export Plug-In . SVG Version: 6.00 Build 0)  -->
<!DOCTYPE svg PUBLIC "-//W3C//DTD SVG 1.1//EN" "http://www.w3.org/Graphics/SVG/1.1/DTD/svg11.dtd">
<svg version="1.1" xmlns="http://www.w3.org/2000/svg" xmlns:xlink="http://www.w3.org/1999/xlink" x="0px" y="0px" width="400px"
	 height="114.667px" viewBox="0 0 400 114.667" enable-background="new 0 0 400 114.667" xml:space="preserve">
<g id="Capa_1" display="none">
	<rect x="0" display="inline" width="400" height="114.667"/>
</g>
<g id="Capa_2">
	<g>
		<path fill="#FFFFFF" d="M76.342,34.91c-0.81,1.92-1.958,3.585-3.442,4.995c-1.484,1.41-3.255,2.52-5.31,3.33
			s-4.313,1.215-6.772,1.215H48.532v-31.5h12.284c2.459,0,4.718,0.398,6.772,1.192c2.055,0.795,3.825,1.898,5.31,3.308
			c1.485,1.411,2.632,3.068,3.442,4.973c0.81,1.905,1.215,3.968,1.215,6.188v0.09C77.557,30.921,77.152,32.991,76.342,34.91z
			 M70.312,28.7c0-1.379-0.232-2.655-0.698-3.825c-0.465-1.17-1.109-2.175-1.935-3.015c-0.826-0.84-1.823-1.492-2.993-1.958
			c-1.17-0.465-2.46-0.698-3.87-0.698h-5.354v18.99h5.354c1.41,0,2.7-0.225,3.87-0.675c1.17-0.45,2.167-1.095,2.993-1.935
			c0.825-0.839,1.469-1.829,1.935-2.97c0.466-1.14,0.698-2.415,0.698-3.825V28.7z"/>
		<path fill="#FFFFFF" d="M84.037,44.45v-31.5h6.93v31.5H84.037z"/>
		<path fill="#FFFFFF" d="M120.763,39.298c-0.567,1.215-1.355,2.235-2.37,3.06c-1.014,0.825-2.223,1.455-3.628,1.89
			c-1.406,0.435-2.963,0.653-4.673,0.653c-2.4,0-4.755-0.413-7.065-1.238c-2.311-0.825-4.409-2.092-6.3-3.802l4.095-4.905
			c1.44,1.17,2.917,2.101,4.434,2.79c1.515,0.69,3.173,1.035,4.973,1.035c1.44,0,2.558-0.262,3.354-0.788
			c0.794-0.524,1.191-1.252,1.191-2.183v-0.09c0-0.45-0.083-0.847-0.248-1.192c-0.166-0.345-0.481-0.667-0.947-0.968
			c-0.467-0.299-1.113-0.6-1.94-0.9c-0.828-0.299-1.903-0.614-3.226-0.945c-1.596-0.39-3.038-0.825-4.332-1.305
			c-1.293-0.479-2.392-1.072-3.293-1.777c-0.903-0.705-1.603-1.582-2.099-2.633c-0.496-1.05-0.745-2.354-0.745-3.915v-0.09
			c0-1.44,0.269-2.737,0.806-3.893c0.536-1.154,1.289-2.152,2.257-2.992c0.969-0.84,2.126-1.485,3.471-1.935
			c1.345-0.45,2.828-0.675,4.447-0.675c2.31,0,4.433,0.345,6.368,1.035c1.935,0.69,3.712,1.681,5.333,2.97l-3.601,5.22
			c-1.411-0.959-2.79-1.717-4.14-2.272c-1.35-0.555-2.7-0.833-4.05-0.833c-1.351,0-2.362,0.263-3.038,0.788
			c-0.675,0.525-1.012,1.178-1.012,1.958v0.09c0,0.511,0.098,0.953,0.293,1.328c0.194,0.375,0.548,0.713,1.061,1.013
			c0.511,0.3,1.21,0.585,2.098,0.855s2.008,0.585,3.361,0.945c1.594,0.42,3.015,0.893,4.264,1.417
			c1.248,0.525,2.302,1.155,3.159,1.89c0.857,0.735,1.504,1.597,1.94,2.587c0.436,0.99,0.653,2.175,0.653,3.555v0.09
			C121.612,36.695,121.329,38.083,120.763,39.298z"/>
		<path fill="#FFFFFF" d="M127.642,44.45v-31.5h23.715v6.165h-16.875v6.39h14.851v6.165h-14.851v6.615h17.101v6.165H127.642z"/>
		<path fill="#FFFFFF" d="M179.887,44.45l-15.255-20.025V44.45h-6.84v-31.5h6.39l14.76,19.395V12.95h6.839v31.5H179.887z
			 M179.055,8.788c-0.826,1.125-2.019,1.688-3.578,1.688c-0.689,0-1.356-0.09-2.002-0.27c-0.646-0.18-1.253-0.382-1.822-0.607
			s-1.103-0.427-1.598-0.607c-0.495-0.18-0.938-0.27-1.328-0.27c-0.689,0-1.208,0.188-1.552,0.563
			c-0.345,0.375-0.683,0.922-1.013,1.643L162.517,9.8c0.271-0.93,0.563-1.778,0.877-2.542c0.315-0.765,0.69-1.417,1.125-1.958
			c0.436-0.54,0.945-0.96,1.53-1.26c0.585-0.299,1.267-0.45,2.047-0.45c0.69,0,1.357,0.09,2.002,0.27
			c0.646,0.18,1.252,0.382,1.823,0.607c0.568,0.225,1.095,0.427,1.575,0.607c0.479,0.18,0.93,0.27,1.35,0.27
			c0.69,0,1.208-0.187,1.553-0.563c0.345-0.375,0.683-0.922,1.013-1.643l3.645,1.125C180.546,6.155,179.879,7.663,179.055,8.788z"/>
		<path fill="#FFFFFF" d="M224.167,35.022c-0.841,1.965-2.003,3.69-3.488,5.175c-1.484,1.485-3.255,2.655-5.31,3.51
			c-2.057,0.855-4.299,1.283-6.729,1.283s-4.665-0.428-6.705-1.283s-3.803-2.009-5.287-3.465c-1.484-1.455-2.641-3.165-3.466-5.13
			c-0.825-1.965-1.237-4.073-1.237-6.323V28.7c0-2.25,0.421-4.357,1.261-6.322s2.003-3.69,3.487-5.175
			c1.484-1.485,3.256-2.655,5.311-3.51s4.298-1.283,6.728-1.283c2.431,0,4.665,0.428,6.705,1.283s3.803,2.01,5.287,3.465
			c1.485,1.456,2.64,3.166,3.466,5.13c0.824,1.965,1.237,4.073,1.237,6.323v0.09C225.427,30.95,225.006,33.058,224.167,35.022z
			 M218.182,28.7c0-1.35-0.231-2.625-0.697-3.825c-0.466-1.199-1.125-2.25-1.979-3.15s-1.867-1.612-3.037-2.137
			s-2.445-0.788-3.825-0.788c-1.41,0-2.692,0.255-3.848,0.765c-1.155,0.51-2.146,1.215-2.97,2.115
			c-0.825,0.9-1.472,1.943-1.937,3.127c-0.465,1.186-0.697,2.453-0.697,3.803v0.09c0,1.35,0.232,2.625,0.697,3.825
			c0.465,1.2,1.125,2.25,1.98,3.15c0.854,0.9,1.858,1.613,3.015,2.137c1.154,0.525,2.438,0.788,3.848,0.788
			c1.38,0,2.655-0.254,3.825-0.765c1.17-0.51,2.167-1.215,2.992-2.115c0.825-0.9,1.47-1.942,1.936-3.127
			c0.466-1.185,0.697-2.453,0.697-3.803V28.7z"/>
		<path fill="#FFFFFF" d="M37.687,102.185c-0.871,0.689-1.823,1.281-2.856,1.777c-1.035,0.494-2.168,0.871-3.397,1.125
			s-2.61,0.383-4.14,0.383c-2.312,0-4.455-0.422-6.436-1.26c-1.979-0.84-3.689-1.987-5.13-3.442
			c-1.439-1.455-2.564-3.173-3.375-5.153c-0.81-1.979-1.215-4.095-1.215-6.345v-0.09c0-2.25,0.405-4.356,1.215-6.322
			c0.811-1.965,1.936-3.69,3.375-5.175c1.44-1.484,3.165-2.655,5.175-3.512c2.011-0.854,4.23-1.281,6.66-1.281
			c1.47,0,2.813,0.119,4.027,0.359c1.215,0.24,2.317,0.57,3.308,0.99s1.905,0.93,2.745,1.529c0.839,0.602,1.62,1.26,2.34,1.98
			l-4.409,5.084c-1.23-1.108-2.482-1.979-3.758-2.609c-1.274-0.631-2.708-0.945-4.297-0.945c-1.321,0-2.542,0.256-3.667,0.766
			c-1.125,0.511-2.093,1.215-2.902,2.115c-0.811,0.899-1.44,1.942-1.891,3.127c-0.45,1.187-0.675,2.453-0.675,3.803v0.091
			c0,1.35,0.225,2.625,0.675,3.825c0.45,1.199,1.072,2.25,1.867,3.148c0.794,0.9,1.755,1.613,2.88,2.139
			c1.125,0.524,2.362,0.787,3.712,0.787c1.8,0,3.322-0.33,4.567-0.99c1.245-0.659,2.481-1.559,3.712-2.699l4.41,4.455
			C39.397,100.714,38.557,101.496,37.687,102.185z"/>
		<path fill="#FFFFFF" d="M76.566,95.501c-0.84,1.967-2.002,3.69-3.486,5.176c-1.485,1.484-3.256,2.654-5.311,3.511
			c-2.055,0.854-4.298,1.282-6.728,1.282c-2.431,0-4.666-0.428-6.705-1.282c-2.041-0.854-3.803-2.011-5.288-3.465
			c-1.485-1.455-2.64-3.165-3.465-5.132c-0.826-1.963-1.238-4.071-1.238-6.321v-0.09c0-2.25,0.42-4.356,1.26-6.322
			c0.839-1.965,2.002-3.69,3.487-5.175s3.255-2.655,5.31-3.512c2.056-0.854,4.299-1.281,6.729-1.281s4.665,0.428,6.705,1.281
			c2.04,0.855,3.803,2.012,5.288,3.466c1.484,1.456,2.64,3.165,3.465,5.131c0.825,1.965,1.238,4.071,1.238,6.321v0.091
			C77.827,91.43,77.406,93.539,76.566,95.501z M70.582,89.18c0-1.351-0.233-2.625-0.698-3.825c-0.465-1.199-1.125-2.25-1.98-3.148
			c-0.854-0.9-1.866-1.613-3.037-2.139c-1.171-0.523-2.445-0.787-3.825-0.787c-1.411,0-2.693,0.256-3.849,0.766
			c-1.154,0.51-2.145,1.215-2.97,2.115c-0.826,0.898-1.47,1.941-1.935,3.127c-0.467,1.186-0.698,2.451-0.698,3.803v0.09
			c0,1.35,0.231,2.625,0.698,3.824c0.465,1.201,1.125,2.25,1.979,3.149c0.855,0.9,1.86,1.613,3.016,2.138
			c1.154,0.525,2.438,0.789,3.848,0.789c1.379,0,2.655-0.256,3.825-0.767c1.17-0.51,2.167-1.215,2.991-2.114
			c0.825-0.9,1.471-1.941,1.936-3.127s0.698-2.453,0.698-3.804L70.582,89.18L70.582,89.18z"/>
		<path fill="#FFFFFF" d="M108.651,104.93V84.365L99.786,97.82h-0.181L90.831,84.5v20.431h-6.84v-31.5h7.47l8.28,13.319
			l8.279-13.319h7.471v31.5H108.651z"/>
		<path fill="#FFFFFF" d="M149.039,97.46c-0.646,1.771-1.568,3.246-2.769,4.433s-2.654,2.069-4.365,2.653
			c-1.71,0.586-3.614,0.879-5.715,0.879c-4.229,0-7.56-1.17-9.989-3.51c-2.431-2.342-3.646-5.836-3.646-10.485v-18h6.93V91.25
			c0,2.58,0.601,4.522,1.801,5.828c1.198,1.305,2.863,1.957,4.994,1.957s3.796-0.631,4.995-1.891c1.2-1.26,1.801-3.148,1.801-5.67
			V73.43h6.93v17.774C150.006,93.606,149.683,95.69,149.039,97.46z"/>
		<path fill="#FFFFFF" d="M179.166,104.93l-15.255-20.024v20.024h-6.841v-31.5h6.391l14.76,19.396V73.43h6.839v31.5H179.166z"/>
		<path fill="#FFFFFF" d="M192.936,104.93v-31.5h6.932v31.5H192.936z"/>
		<path fill="#FFFFFF" d="M232.896,102.185c-0.87,0.689-1.821,1.281-2.856,1.777c-1.034,0.494-2.167,0.871-3.397,1.125
			c-1.229,0.254-2.608,0.383-4.14,0.383c-2.312,0-4.455-0.422-6.436-1.26c-1.979-0.84-3.689-1.987-5.131-3.442
			c-1.438-1.455-2.563-3.173-3.375-5.153c-0.81-1.979-1.215-4.095-1.215-6.345v-0.09c0-2.25,0.405-4.356,1.215-6.322
			c0.812-1.965,1.937-3.69,3.375-5.175c1.44-1.484,3.165-2.655,5.176-3.512c2.01-0.854,4.229-1.281,6.659-1.281
			c1.471,0,2.813,0.119,4.028,0.359s2.317,0.57,3.307,0.99c0.99,0.42,1.905,0.93,2.745,1.529c0.84,0.602,1.62,1.26,2.341,1.98
			l-4.409,5.084c-1.23-1.108-2.483-1.979-3.759-2.609c-1.274-0.631-2.708-0.945-4.298-0.945c-1.32,0-2.542,0.256-3.667,0.766
			c-1.125,0.511-2.093,1.215-2.901,2.115c-0.812,0.899-1.44,1.942-1.892,3.127c-0.449,1.187-0.675,2.453-0.675,3.803v0.091
			c0,1.35,0.226,2.625,0.675,3.825c0.45,1.199,1.072,2.25,1.868,3.148c0.794,0.9,1.755,1.613,2.88,2.139
			c1.125,0.524,2.362,0.787,3.712,0.787c1.801,0,3.322-0.33,4.567-0.99c1.245-0.659,2.481-1.559,3.713-2.699l4.41,4.455
			C234.605,100.714,233.766,101.496,232.896,102.185z"/>
		<path fill="#FFFFFF" d="M264.395,104.93l-2.88-7.065h-13.319l-2.881,7.065h-7.063l13.5-31.726h6.39l13.5,31.726H264.395z
			 M254.854,81.531l-4.185,10.215h8.37L254.854,81.531z"/>
		<path fill="#FFFFFF" d="M301.654,102.185c-0.87,0.689-1.822,1.281-2.856,1.777c-1.034,0.494-2.167,0.871-3.397,1.125
			c-1.229,0.254-2.608,0.383-4.14,0.383c-2.312,0-4.455-0.422-6.435-1.26c-1.98-0.84-3.69-1.987-5.132-3.442
			c-1.438-1.455-2.563-3.173-3.375-5.153c-0.81-1.979-1.215-4.095-1.215-6.345v-0.09c0-2.25,0.405-4.356,1.215-6.322
			c0.812-1.965,1.937-3.69,3.375-5.175c1.44-1.484,3.165-2.655,5.177-3.512c2.009-0.854,4.229-1.281,6.658-1.281
			c1.471,0,2.813,0.119,4.028,0.359s2.316,0.57,3.307,0.99s1.905,0.93,2.745,1.529c0.84,0.602,1.62,1.26,2.341,1.98l-4.41,5.084
			c-1.229-1.108-2.482-1.979-3.758-2.609c-1.274-0.631-2.708-0.945-4.298-0.945c-1.319,0-2.542,0.256-3.667,0.766
			c-1.125,0.511-2.093,1.215-2.901,2.115c-0.812,0.899-1.44,1.942-1.892,3.127c-0.449,1.187-0.675,2.453-0.675,3.803v0.091
			c0,1.35,0.227,2.625,0.675,3.825c0.45,1.199,1.072,2.25,1.868,3.148c0.794,0.9,1.755,1.613,2.88,2.139
			c1.125,0.524,2.362,0.787,3.712,0.787c1.802,0,3.322-0.33,4.567-0.99c1.245-0.659,2.481-1.559,3.713-2.699l4.41,4.455
			C303.364,100.714,302.524,101.496,301.654,102.185z"/>
		<path fill="#FFFFFF" d="M310.024,104.93v-31.5h6.931v31.5H310.024z"/>
		<path fill="#FFFFFF" d="M355.654,95.501c-0.841,1.967-2.003,3.69-3.488,5.176c-1.483,1.484-3.255,2.654-5.31,3.511
			c-2.056,0.854-4.298,1.282-6.728,1.282c-2.431,0-4.665-0.428-6.705-1.282s-3.804-2.011-5.287-3.465
			c-1.485-1.455-2.642-3.165-3.466-5.132c-0.825-1.963-1.237-4.071-1.237-6.321v-0.09c0-2.25,0.42-4.356,1.26-6.322
			c0.84-1.965,2.003-3.69,3.488-5.175c1.483-1.484,3.255-2.655,5.31-3.512c2.056-0.854,4.298-1.281,6.729-1.281
			c2.43,0,4.665,0.428,6.705,1.281c2.04,0.855,3.803,2.012,5.287,3.466c1.484,1.456,2.64,3.165,3.466,5.131
			c0.824,1.965,1.236,4.071,1.236,6.321v0.091C356.913,91.43,356.492,93.539,355.654,95.501z M349.669,89.18
			c0-1.351-0.232-2.625-0.697-3.825c-0.466-1.199-1.125-2.25-1.98-3.148c-0.854-0.9-1.866-1.613-3.037-2.139
			c-1.17-0.523-2.444-0.787-3.824-0.787c-1.41,0-2.693,0.256-3.849,0.766c-1.154,0.51-2.146,1.215-2.97,2.115
			c-0.825,0.898-1.471,1.941-1.936,3.127c-0.466,1.186-0.697,2.451-0.697,3.803v0.09c0,1.35,0.231,2.625,0.697,3.824
			c0.465,1.201,1.125,2.25,1.979,3.149c0.854,0.9,1.859,1.613,3.015,2.138c1.154,0.525,2.438,0.789,3.849,0.789
			c1.38,0,2.654-0.256,3.825-0.767c1.17-0.51,2.167-1.215,2.991-2.114c0.825-0.9,1.471-1.941,1.937-3.127
			c0.465-1.186,0.697-2.453,0.697-3.804V89.18L349.669,89.18z M337.743,70.957l5.085-7.965l5.896,2.564l-5.76,5.4H337.743z"/>
		<path fill="#FFFFFF" d="M385.174,104.93l-15.255-20.024v20.024h-6.841v-31.5h6.391l14.76,19.396V73.43h6.84v31.5H385.174z"/>
	</g>
	<g>
		<rect x="48.583" y="51.562" fill="#FFFFFF" width="144.353" height="15.723"/>
	</g>
	<g>
		<path fill="#FFFFFF" d="M210.457,61.414v6.418h-3.542v-6.349l-6.187-9.752h4.14l3.841,6.463l3.91-6.463h4.025L210.457,61.414z"/>
	</g>
</g>
</svg>
