<?xml version="1.0" encoding="utf-8"?>
<!-- Generator: Adobe Illustrator 16.0.0, SVG Export Plug-In . SVG Version: 6.00 Build 0)  -->
<!DOCTYPE svg PUBLIC "-//W3C//DTD SVG 1.1//EN" "http://www.w3.org/Graphics/SVG/1.1/DTD/svg11.dtd">
<svg version="1.1" id="Capa_1" xmlns="http://www.w3.org/2000/svg" xmlns:xlink="http://www.w3.org/1999/xlink" x="0px" y="0px"
	 width="400px" height="114.667px" viewBox="0 0 400 114.667" enable-background="new 0 0 400 114.667" xml:space="preserve">
<g>
	<g>
		<path fill="#FFFFFF" d="M76.342,34.91c-0.81,1.92-1.958,3.585-3.442,4.995c-1.485,1.41-3.255,2.52-5.31,3.33
			c-2.055,0.81-4.313,1.215-6.772,1.215H48.532v-31.5h12.285c2.459,0,4.717,0.398,6.772,1.192c2.055,0.795,3.825,1.898,5.31,3.308
			c1.485,1.411,2.632,3.068,3.442,4.973c0.81,1.905,1.215,3.968,1.215,6.188v0.09C77.557,30.921,77.152,32.991,76.342,34.91z
			 M70.312,28.7c0-1.379-0.233-2.655-0.698-3.825c-0.465-1.17-1.11-2.175-1.935-3.015c-0.826-0.84-1.823-1.492-2.993-1.958
			c-1.17-0.465-2.46-0.698-3.87-0.698h-5.355v18.99h5.355c1.41,0,2.7-0.225,3.87-0.675c1.17-0.45,2.167-1.095,2.993-1.935
			c0.825-0.839,1.469-1.829,1.935-2.97c0.465-1.14,0.698-2.415,0.698-3.825V28.7z"/>
		<path fill="#FFFFFF" d="M84.037,44.45v-31.5h6.93v31.5H84.037z"/>
		<path fill="#FFFFFF" d="M120.763,39.298c-0.567,1.215-1.356,2.235-2.37,3.06c-1.014,0.825-2.223,1.455-3.628,1.89
			c-1.406,0.435-2.963,0.653-4.673,0.653c-2.4,0-4.755-0.413-7.065-1.238c-2.311-0.825-4.41-2.092-6.3-3.802l4.095-4.905
			c1.44,1.17,2.917,2.101,4.433,2.79c1.515,0.69,3.173,1.035,4.973,1.035c1.44,0,2.557-0.262,3.353-0.788
			c0.794-0.524,1.192-1.252,1.192-2.183v-0.09c0-0.45-0.083-0.847-0.248-1.192c-0.166-0.345-0.482-0.667-0.948-0.968
			c-0.466-0.299-1.113-0.6-1.94-0.9c-0.828-0.299-1.903-0.614-3.226-0.945c-1.595-0.39-3.038-0.825-4.332-1.305
			c-1.293-0.479-2.391-1.072-3.293-1.777c-0.903-0.705-1.602-1.582-2.098-2.633c-0.496-1.05-0.745-2.354-0.745-3.915v-0.09
			c0-1.44,0.268-2.737,0.805-3.893c0.536-1.154,1.289-2.152,2.257-2.992c0.969-0.84,2.126-1.485,3.471-1.935
			c1.345-0.45,2.828-0.675,4.447-0.675c2.31,0,4.433,0.345,6.368,1.035c1.935,0.69,3.712,1.681,5.333,2.97l-3.6,5.22
			c-1.411-0.959-2.79-1.717-4.14-2.272c-1.35-0.555-2.7-0.833-4.05-0.833s-2.362,0.263-3.038,0.788
			c-0.675,0.525-1.012,1.178-1.012,1.958v0.09c0,0.511,0.098,0.953,0.293,1.328c0.195,0.375,0.548,0.713,1.061,1.013
			c0.511,0.3,1.21,0.585,2.098,0.855c0.887,0.27,2.007,0.585,3.361,0.945c1.594,0.42,3.015,0.893,4.264,1.417
			c1.248,0.525,2.301,1.155,3.159,1.89c0.857,0.735,1.504,1.597,1.94,2.587c0.436,0.99,0.654,2.175,0.654,3.555v0.09
			C121.612,36.695,121.329,38.083,120.763,39.298z"/>
		<path fill="#FFFFFF" d="M127.642,44.45v-31.5h23.715v6.165h-16.875v6.39h14.85v6.165h-14.85v6.615h17.1v6.165H127.642z"/>
		<path fill="#FFFFFF" d="M179.887,44.45l-15.255-20.025V44.45h-6.84v-31.5h6.39l14.76,19.395V12.95h6.839v31.5H179.887z
			 M179.055,8.788c-0.826,1.125-2.019,1.688-3.578,1.688c-0.69,0-1.357-0.09-2.002-0.27c-0.646-0.18-1.253-0.382-1.822-0.607
			c-0.57-0.225-1.103-0.427-1.598-0.607s-0.938-0.27-1.328-0.27c-0.69,0-1.208,0.188-1.552,0.563
			c-0.345,0.375-0.683,0.922-1.013,1.643L162.517,9.8c0.27-0.93,0.563-1.778,0.877-2.542c0.315-0.765,0.69-1.417,1.125-1.958
			c0.435-0.54,0.945-0.96,1.53-1.26c0.585-0.299,1.267-0.45,2.047-0.45c0.69,0,1.357,0.09,2.002,0.27
			c0.645,0.18,1.252,0.382,1.823,0.607c0.569,0.225,1.095,0.427,1.575,0.607c0.479,0.18,0.93,0.27,1.35,0.27
			c0.69,0,1.208-0.187,1.553-0.563c0.344-0.375,0.682-0.922,1.012-1.643l3.645,1.125C180.546,6.155,179.879,7.663,179.055,8.788z"/>
		<path fill="#FFFFFF" d="M224.167,35.022c-0.841,1.965-2.003,3.69-3.488,5.175c-1.484,1.485-3.255,2.655-5.31,3.51
			c-2.056,0.855-4.298,1.283-6.728,1.283s-4.665-0.428-6.705-1.283s-3.803-2.009-5.287-3.465c-1.485-1.455-2.641-3.165-3.466-5.13
			c-0.825-1.965-1.237-4.073-1.237-6.323V28.7c0-2.25,0.42-4.357,1.26-6.322s2.003-3.69,3.488-5.175
			c1.484-1.485,3.255-2.655,5.31-3.51s4.298-1.283,6.728-1.283s4.665,0.428,6.705,1.283s3.803,2.01,5.287,3.465
			c1.485,1.456,2.64,3.166,3.466,5.13c0.824,1.965,1.237,4.073,1.237,6.323v0.09C225.427,30.95,225.006,33.058,224.167,35.022z
			 M218.182,28.7c0-1.35-0.232-2.625-0.697-3.825c-0.466-1.199-1.125-2.25-1.98-3.15c-0.854-0.9-1.867-1.612-3.037-2.137
			s-2.445-0.788-3.825-0.788c-1.41,0-2.693,0.255-3.848,0.765c-1.155,0.51-2.146,1.215-2.97,2.115
			c-0.825,0.9-1.471,1.943-1.936,3.127c-0.465,1.186-0.697,2.453-0.697,3.803v0.09c0,1.35,0.232,2.625,0.697,3.825
			c0.465,1.2,1.125,2.25,1.98,3.15c0.854,0.9,1.859,1.613,3.015,2.137c1.154,0.525,2.438,0.788,3.848,0.788
			c1.38,0,2.655-0.254,3.825-0.765c1.17-0.51,2.167-1.215,2.992-2.115s1.47-1.942,1.936-3.127c0.465-1.185,0.697-2.453,0.697-3.803
			V28.7z"/>
		<path fill="#FFFFFF" d="M37.687,102.185c-0.871,0.69-1.823,1.282-2.857,1.777c-1.035,0.495-2.168,0.871-3.397,1.125
			c-1.23,0.255-2.61,0.383-4.14,0.383c-2.311,0-4.455-0.421-6.435-1.26c-1.98-0.84-3.69-1.987-5.13-3.442s-2.565-3.173-3.375-5.153
			c-0.81-1.979-1.215-4.095-1.215-6.345v-0.09c0-2.25,0.405-4.357,1.215-6.322s1.935-3.69,3.375-5.175
			c1.44-1.485,3.165-2.655,5.175-3.511c2.01-0.854,4.23-1.282,6.66-1.282c1.469,0,2.813,0.12,4.027,0.36
			c1.215,0.24,2.317,0.57,3.308,0.989c0.99,0.421,1.905,0.931,2.745,1.53c0.839,0.601,1.62,1.26,2.34,1.98l-4.41,5.085
			c-1.23-1.109-2.482-1.98-3.757-2.61c-1.275-0.63-2.708-0.945-4.297-0.945c-1.321,0-2.542,0.256-3.667,0.766
			s-2.093,1.215-2.903,2.115c-0.81,0.899-1.44,1.942-1.89,3.127c-0.45,1.186-0.675,2.452-0.675,3.803v0.09
			c0,1.35,0.225,2.625,0.675,3.825c0.45,1.2,1.072,2.25,1.867,3.149c0.794,0.9,1.755,1.613,2.88,2.138
			c1.125,0.525,2.362,0.788,3.712,0.788c1.8,0,3.322-0.33,4.567-0.99c1.245-0.66,2.482-1.56,3.712-2.7l4.41,4.455
			C39.397,100.715,38.557,101.496,37.687,102.185z"/>
		<path fill="#FFFFFF" d="M76.566,95.502c-0.84,1.966-2.002,3.69-3.487,5.175c-1.485,1.485-3.256,2.655-5.31,3.511
			c-2.055,0.854-4.298,1.282-6.728,1.282c-2.43,0-4.666-0.428-6.705-1.282c-2.041-0.855-3.803-2.01-5.288-3.465
			s-2.64-3.165-3.465-5.131c-0.826-1.964-1.238-4.072-1.238-6.322v-0.09c0-2.25,0.42-4.357,1.26-6.322
			c0.839-1.965,2.002-3.69,3.487-5.175c1.485-1.485,3.255-2.655,5.31-3.511c2.055-0.854,4.298-1.282,6.728-1.282
			c2.43,0,4.665,0.428,6.705,1.282c2.04,0.855,3.803,2.011,5.288,3.465c1.485,1.456,2.64,3.166,3.465,5.131
			c0.825,1.965,1.238,4.072,1.238,6.322v0.09C77.827,91.43,77.406,93.539,76.566,95.502z M70.582,89.18
			c0-1.35-0.233-2.625-0.698-3.825c-0.465-1.199-1.125-2.25-1.98-3.149c-0.855-0.9-1.867-1.612-3.038-2.138
			c-1.17-0.524-2.445-0.788-3.825-0.788c-1.411,0-2.693,0.256-3.848,0.766c-1.155,0.51-2.145,1.215-2.97,2.115
			c-0.826,0.899-1.47,1.942-1.935,3.127c-0.466,1.186-0.698,2.452-0.698,3.803v0.09c0,1.35,0.232,2.625,0.698,3.825
			c0.465,1.2,1.125,2.25,1.98,3.149c0.855,0.9,1.86,1.613,3.015,2.138c1.155,0.525,2.438,0.788,3.848,0.788
			c1.379,0,2.655-0.255,3.825-0.766c1.17-0.51,2.167-1.215,2.992-2.115c0.825-0.899,1.47-1.941,1.935-3.127
			c0.465-1.185,0.698-2.452,0.698-3.803V89.18z"/>
		<path fill="#FFFFFF" d="M108.651,104.93V84.365L99.786,97.82h-0.18L90.831,84.5v20.43h-6.84v-31.5h7.47l8.28,13.32l8.28-13.32
			h7.47v31.5H108.651z"/>
		<path fill="#FFFFFF" d="M149.039,97.46c-0.646,1.771-1.568,3.247-2.768,4.433c-1.2,1.186-2.655,2.069-4.365,2.654
			c-1.71,0.585-3.615,0.878-5.715,0.878c-4.23,0-7.56-1.17-9.99-3.51c-2.43-2.341-3.645-5.835-3.645-10.485v-18h6.93v17.82
			c0,2.58,0.6,4.522,1.8,5.827c1.199,1.305,2.864,1.958,4.995,1.958c2.13,0,3.795-0.631,4.995-1.891c1.2-1.26,1.8-3.149,1.8-5.67
			V73.43h6.93v17.775C150.006,93.606,149.683,95.69,149.039,97.46z"/>
		<path fill="#FFFFFF" d="M179.166,104.93l-15.255-20.025v20.025h-6.84v-31.5h6.39l14.76,19.395V73.43h6.839v31.5H179.166z"/>
		<path fill="#FFFFFF" d="M192.936,104.93v-31.5h6.931v31.5H192.936z"/>
		<path fill="#FFFFFF" d="M232.896,102.185c-0.87,0.69-1.822,1.282-2.857,1.777c-1.034,0.495-2.167,0.871-3.397,1.125
			c-1.23,0.255-2.609,0.383-4.14,0.383c-2.311,0-4.455-0.421-6.435-1.26c-1.98-0.84-3.69-1.987-5.131-3.442
			c-1.439-1.455-2.564-3.173-3.375-5.153c-0.81-1.979-1.215-4.095-1.215-6.345v-0.09c0-2.25,0.405-4.357,1.215-6.322
			c0.811-1.965,1.936-3.69,3.375-5.175c1.44-1.485,3.165-2.655,5.176-3.511c2.009-0.854,4.229-1.282,6.659-1.282
			c1.47,0,2.813,0.12,4.028,0.36c1.215,0.24,2.317,0.57,3.307,0.989c0.99,0.421,1.905,0.931,2.745,1.53
			c0.84,0.601,1.62,1.26,2.341,1.98l-4.41,5.085c-1.23-1.109-2.483-1.98-3.758-2.61c-1.275-0.63-2.708-0.945-4.298-0.945
			c-1.32,0-2.542,0.256-3.667,0.766s-2.093,1.215-2.902,2.115c-0.811,0.899-1.44,1.942-1.891,3.127
			c-0.449,1.186-0.675,2.452-0.675,3.803v0.09c0,1.35,0.226,2.625,0.675,3.825c0.45,1.2,1.072,2.25,1.868,3.149
			c0.794,0.9,1.755,1.613,2.88,2.138c1.125,0.525,2.362,0.788,3.712,0.788c1.801,0,3.322-0.33,4.567-0.99s2.482-1.56,3.713-2.7
			l4.41,4.455C234.605,100.715,233.766,101.496,232.896,102.185z"/>
		<path fill="#FFFFFF" d="M264.395,104.93l-2.88-7.065h-13.319l-2.881,7.065h-7.064l13.5-31.725h6.39l13.5,31.725H264.395z
			 M254.854,81.53l-4.185,10.216h8.37L254.854,81.53z"/>
		<path fill="#FFFFFF" d="M301.654,102.185c-0.87,0.69-1.822,1.282-2.857,1.777c-1.034,0.495-2.167,0.871-3.397,1.125
			c-1.23,0.255-2.609,0.383-4.14,0.383c-2.311,0-4.455-0.421-6.435-1.26c-1.98-0.84-3.69-1.987-5.131-3.442
			c-1.439-1.455-2.564-3.173-3.375-5.153c-0.81-1.979-1.215-4.095-1.215-6.345v-0.09c0-2.25,0.405-4.357,1.215-6.322
			c0.811-1.965,1.936-3.69,3.375-5.175c1.44-1.485,3.165-2.655,5.176-3.511c2.009-0.854,4.229-1.282,6.659-1.282
			c1.47,0,2.813,0.12,4.028,0.36c1.215,0.24,2.317,0.57,3.307,0.989c0.99,0.421,1.905,0.931,2.745,1.53
			c0.84,0.601,1.62,1.26,2.341,1.98l-4.41,5.085c-1.23-1.109-2.483-1.98-3.758-2.61c-1.275-0.63-2.708-0.945-4.298-0.945
			c-1.32,0-2.542,0.256-3.667,0.766s-2.093,1.215-2.902,2.115c-0.811,0.899-1.44,1.942-1.891,3.127
			c-0.449,1.186-0.675,2.452-0.675,3.803v0.09c0,1.35,0.226,2.625,0.675,3.825c0.45,1.2,1.072,2.25,1.868,3.149
			c0.794,0.9,1.755,1.613,2.88,2.138c1.125,0.525,2.362,0.788,3.712,0.788c1.801,0,3.322-0.33,4.567-0.99s2.482-1.56,3.713-2.7
			l4.41,4.455C303.364,100.715,302.524,101.496,301.654,102.185z"/>
		<path fill="#FFFFFF" d="M310.024,104.93v-31.5h6.931v31.5H310.024z"/>
		<path fill="#FFFFFF" d="M355.654,95.502c-0.841,1.966-2.003,3.69-3.488,5.175c-1.484,1.485-3.255,2.655-5.31,3.511
			c-2.056,0.854-4.298,1.282-6.728,1.282s-4.665-0.428-6.705-1.282c-2.04-0.855-3.803-2.01-5.287-3.465
			c-1.485-1.455-2.641-3.165-3.466-5.131c-0.825-1.964-1.237-4.072-1.237-6.322v-0.09c0-2.25,0.42-4.357,1.26-6.322
			s2.003-3.69,3.488-5.175c1.484-1.485,3.255-2.655,5.31-3.511c2.055-0.854,4.298-1.282,6.728-1.282s4.665,0.428,6.705,1.282
			c2.04,0.855,3.803,2.011,5.287,3.465c1.485,1.456,2.64,3.166,3.466,5.131c0.824,1.965,1.237,4.072,1.237,6.322v0.09
			C356.914,91.43,356.493,93.539,355.654,95.502z M349.669,89.18c0-1.35-0.232-2.625-0.697-3.825
			c-0.466-1.199-1.125-2.25-1.98-3.149c-0.854-0.9-1.867-1.612-3.037-2.138c-1.17-0.524-2.445-0.788-3.825-0.788
			c-1.41,0-2.693,0.256-3.848,0.766c-1.155,0.51-2.146,1.215-2.97,2.115c-0.825,0.899-1.471,1.942-1.936,3.127
			c-0.465,1.186-0.697,2.452-0.697,3.803v0.09c0,1.35,0.232,2.625,0.697,3.825s1.125,2.25,1.98,3.149
			c0.854,0.9,1.859,1.613,3.015,2.138c1.154,0.525,2.438,0.788,3.848,0.788c1.38,0,2.655-0.255,3.825-0.766
			c1.17-0.51,2.167-1.215,2.992-2.115c0.825-0.899,1.47-1.941,1.936-3.127c0.465-1.185,0.697-2.452,0.697-3.803V89.18z
			 M337.744,70.956l5.085-7.965l5.895,2.565l-5.76,5.4H337.744z"/>
		<path fill="#FFFFFF" d="M385.174,104.93l-15.255-20.025v20.025h-6.84v-31.5h6.39l14.76,19.395V73.43h6.84v31.5H385.174z"/>
	</g>
	<g>
		<rect x="48.583" y="49.562" fill="#FFFFFF" width="129.667" height="18.723"/>
	</g>
	<g>
		<path fill="#FFFFFF" d="M198.096,61.414v6.417h-3.542v-6.348l-6.187-9.752h4.14l3.841,6.463l3.91-6.463h4.025L198.096,61.414z"/>
	</g>
</g>
</svg>
