<svg xmlns="http://www.w3.org/2000/svg" xmlns:xlink="http://www.w3.org/1999/xlink" width="400" height="400"><path d="M139.872 238.314H66.277a1.78 1.78 0 0 1-1.779-1.779v-12.76a1.78 1.78 0 0 1 1.779-1.779h73.596a1.78 1.78 0 0 1 1.779 1.779v12.76a1.78 1.78 0 0 1-1.78 1.779zm-71.817-3.558h70.038v-9.2H68.055v9.2zm259.24 3.558H253.7a1.78 1.78 0 0 1-1.779-1.779v-12.76a1.78 1.78 0 0 1 1.779-1.779h73.596a1.78 1.78 0 0 1 1.779 1.779v12.76a1.78 1.78 0 0 1-1.779 1.779zm-71.816-3.558h70.037v-9.2H255.48v9.2zM120.474 124.914c-8.786 0-16.792-4.322-21.62-11.356a7.49 7.49 0 0 1-6.715 4.182c-3.894 0-7.103-2.99-7.45-6.794-2.447-.617-4.264-2.836-4.264-5.472v-15.27c0-2.664 1.855-4.902 4.342-5.492a7.55 7.55 0 0 1 3.906-5.347c1.688-5.304 9.022-22.956 31.8-22.956s30.113 17.652 31.8 22.956c2.06 1.085 3.51 3.08 3.906 5.347 2.487.59 4.343 2.828 4.343 5.492v15.27c0 2.636-1.817 4.855-4.265 5.472-.348 3.805-3.557 6.794-7.45 6.794-2.94 0-5.492-1.707-6.713-4.183a26.15 26.15 0 0 1-21.62 11.357zm-22.63-18.728a1.78 1.78 0 0 1 1.645 1.103c3.515 8.546 11.75 14.068 20.985 14.068s17.47-5.522 20.987-14.068a1.78 1.78 0 0 1 3.424.677v2.293a3.93 3.93 0 0 0 3.923 3.924 3.93 3.93 0 0 0 3.925-3.924v-.957a1.78 1.78 0 0 1 .584-1.318c.372-.337.87-.503 1.37-.452l.184.022h.01a2.08 2.08 0 0 0 2.085-2.079V90.203a2.09 2.09 0 0 0-2.087-2.085l-.18.027c-.502.055-1.003-.11-1.378-.446a1.78 1.78 0 0 1-.589-1.323v-.406c0-1.61-1.028-3.08-2.558-3.657a1.78 1.78 0 0 1-1.083-1.181c-.997-3.534-7.063-21.166-28.617-21.166s-27.62 17.632-28.618 21.166c-.153.543-.556.98-1.083 1.18-1.53.578-2.558 2.048-2.558 3.657v.406a1.78 1.78 0 0 1-.589 1.323c-.375.337-.87.5-1.378.446l-.166-.02h-.012a2.08 2.08 0 0 0-2.087 2.079v15.27a2.09 2.09 0 0 0 2.085 2.085l.193-.028c.504-.047.998.115 1.37.452s.584.816.584 1.318v.957a3.93 3.93 0 0 0 3.925 3.924 3.93 3.93 0 0 0 3.925-3.924v-2.293a1.78 1.78 0 0 1 1.434-1.745 1.72 1.72 0 0 1 .344-.034zm0-15.038c-.114 0-.23-.01-.346-.034a1.78 1.78 0 0 1-1.434-1.745v-3.4c0-1.472-.838-2.81-2.188-3.488a1.78 1.78 0 0 1-.891-2.142c1.497-4.578 7.903-19.516 27.49-19.516 19.8 0 26.058 14.945 27.504 19.526a1.78 1.78 0 0 1-.898 2.125c-1.354.68-2.195 2.02-2.195 3.494v3.398a1.78 1.78 0 0 1-3.424.677c-3.517-8.548-11.754-14.072-20.987-14.072s-17.47 5.523-20.985 14.072a1.78 1.78 0 0 1-1.645 1.104zm22.63-18.732c8.61 0 16.47 4.152 21.327 10.94.47-1.25 1.275-2.357 2.34-3.204-1.89-4.95-7.837-15.77-23.667-15.77-15.654 0-21.702 10.828-23.647 15.788 1.056.844 1.854 1.945 2.32 3.186 4.854-6.79 12.715-10.94 21.325-10.94zm138.813 70.296c-8.784 0-16.8-4.322-21.618-11.358-1.22 2.476-3.77 4.183-6.714 4.183-3.895 0-7.104-2.99-7.452-6.793-2.447-.617-4.265-2.837-4.265-5.473V108c0-2.664 1.855-4.902 4.342-5.49a7.55 7.55 0 0 1 3.906-5.347c1.688-5.303 9.028-22.956 31.8-22.956s30.112 17.65 31.8 22.956c2.06 1.085 3.5 3.08 3.907 5.347 2.485.59 4.34 2.828 4.34 5.49v15.27c0 2.636-1.816 4.855-4.263 5.473-.35 3.804-3.558 6.793-7.45 6.793-2.942 0-5.494-1.707-6.716-4.182-4.827 7.036-12.833 11.357-21.62 11.357zm-22.63-18.73a1.78 1.78 0 0 1 1.645 1.103 22.62 22.62 0 0 0 20.984 14.07c9.234 0 17.472-5.523 20.985-14.07a1.78 1.78 0 0 1 3.425.676v2.293a3.93 3.93 0 0 0 3.926 3.925 3.93 3.93 0 0 0 3.923-3.925v-.958a1.78 1.78 0 0 1 .589-1.322 1.77 1.77 0 0 1 1.377-.447l.18.022h.01a2.08 2.08 0 0 0 2.075-2.08V108a2.09 2.09 0 0 0-2.084-2.085l-.195.03a1.78 1.78 0 0 1-1.952-1.771v-.406c0-1.61-1.027-3.08-2.558-3.656a1.78 1.78 0 0 1-1.083-1.182c-.997-3.534-7.063-21.166-28.618-21.166-21.55 0-27.62 17.632-28.618 21.167a1.78 1.78 0 0 1-1.083 1.181c-1.53.578-2.557 2.047-2.557 3.656v.406a1.78 1.78 0 0 1-1.956 1.77l-.185-.022h-.01a2.08 2.08 0 0 0-2.081 2.079v15.27a2.09 2.09 0 0 0 2.085 2.085l.177-.028c.507-.052 1.004.108 1.38.445a1.78 1.78 0 0 1 .591 1.324v.958a3.93 3.93 0 0 0 3.926 3.925 3.93 3.93 0 0 0 3.923-3.925v-2.293a1.78 1.78 0 0 1 1.435-1.745 1.75 1.75 0 0 1 .344-.035zm45.26-15.037a1.78 1.78 0 0 1-1.645-1.103c-3.514-8.547-11.75-14.07-20.985-14.07s-17.47 5.523-20.984 14.07a1.78 1.78 0 0 1-3.425-.677v-3.397c0-1.472-.838-2.8-2.188-3.5a1.78 1.78 0 0 1-.89-2.14c1.493-4.578 7.89-19.516 27.486-19.516 19.788 0 26.056 14.945 27.506 19.526a1.78 1.78 0 0 1-.898 2.127c-1.355.68-2.197 2.02-2.197 3.494v3.397a1.78 1.78 0 0 1-1.435 1.745c-.114.022-.23.033-.345.033zm-46.275-10.978c1.055.845 1.853 1.946 2.32 3.188 4.854-6.79 12.716-10.94 21.325-10.94s16.473 4.15 21.327 10.94c.47-1.25 1.275-2.355 2.342-3.203-1.893-4.95-7.85-15.77-23.67-15.77-15.665-.001-21.705 10.83-23.645 15.787zm-74.69 140.347a1.78 1.78 0 0 1-1.779-1.779v-71.922a1.78 1.78 0 0 1 .367-1.083c10.256-13.365 23.637-38.56 39.772-74.884 3.243-7.3 3.84-13.284 1.77-17.787-2.178-4.74-6.65-6.3-7.524-6.552-.725-.218-4.527-1.187-8.322 1.038-3.256 1.908-5.52 5.618-6.725 11.027-2.453 11.003-16.842 38.708-25.2 54.242a1.78 1.78 0 0 1-1.203.899c-.515.106-1.05-.018-1.462-.342-3.95-3.1-8.656-4.74-13.613-4.74-5.42 0-10.66 2.027-14.752 5.707l-.09.075a1.6 1.6 0 0 1-.092.091c-.958.88-1.843 1.847-2.63 2.874-.03.04-.064.08-.1.12l-9 9.833a1.78 1.78 0 0 1-3.084-1.032c-.042-.412-1.126-10.195-9.907-11.545-8.567-1.313-13.802 3.598-16.015 15.027l-.542 2.72c-2.393 11.87-7.995 39.665 4.37 42.68 6.54 1.594 15.984-4.015 26.6-15.8a1.78 1.78 0 0 1 3.101 1.19v37.682a1.78 1.78 0 0 1-1.779 1.779 1.78 1.78 0 0 1-1.779-1.779V182.87c-7.88 8.046-18.107 15.733-26.977 13.57-15.685-3.826-9.83-32.88-7.015-46.84l.537-2.694c3.254-16.817 12.7-19 20.05-17.868 7.14 1.098 10.702 6.632 12.146 11.152l6.616-7.236c.883-1.146 1.872-2.226 2.94-3.212l.127-.14c.11-.123.238-.228.376-.314 4.713-4.137 10.7-6.41 16.897-6.41 5.063 0 9.898 1.468 14.105 4.266 7.1-13.267 21.564-41.057 23.9-51.54 1.43-6.413 4.255-10.895 8.4-13.323 3.926-2.302 8.33-2.22 11.144-1.376 3.276.983 7.553 3.726 9.735 8.476 2.513 5.47 1.924 12.44-1.752 20.716-16.06 36.152-29.458 61.42-39.833 75.123v71.32c.001.98-.795 1.776-1.778 1.776zm76.797 0a1.78 1.78 0 0 1-1.779-1.779v-30.255c-12.025 5.018-24.99 9.424-33.456 11.97-16.534 4.97-20.94-5.227-21.366-6.336-.123-.314-2.977-7.793.234-14.13 1.803-3.558 5.098-5.997 9.795-7.25 10.77-2.87 34.16-13.336 44.793-18.208v-.68c0-14.034 11.42-25.45 25.455-25.45 10.317 0 19.46 6.158 23.43 15.546 5.7-3.8 23.19-15.674 34.587-25.5 15.303-13.192 23.964-4.853 24.324-4.49.156.142 5.1 4.764 5.26 11.4.1 4.147-1.668 8.09-5.252 11.714-8.206 8.302-33.62 25.31-56.895 34.634v24.956a1.78 1.78 0 0 1-1.779 1.779 1.78 1.78 0 0 1-1.779-1.779v-26.165a1.78 1.78 0 0 1 1.132-1.657c23.14-9.046 48.673-26.057 56.8-34.27 2.88-2.913 4.3-5.984 4.227-9.13-.123-5.143-4.125-8.882-4.165-8.92-.314-.3-6.867-6.305-19.538 4.62-13.527 11.66-35.445 26.11-36.758 26.972-.295.212-.655.334-1.036.334h-.01a1.78 1.78 0 0 1-1.686-1.231c-2.926-9.127-11.305-15.26-20.85-15.26-12.074 0-21.896 9.82-21.896 21.894v1.82a1.78 1.78 0 0 1-1.036 1.616c-12.61 5.797-35.4 15.96-46.4 18.888-3.668.98-6.202 2.796-7.53 5.403-2.497 4.903-.125 11.186-.1 11.25.147.42 3.092 8.405 17.027 4.218 8.958-2.692 23.004-7.49 35.557-12.88.55-.236 1.18-.18 1.68.15a1.78 1.78 0 0 1 .801 1.485v32.94a1.78 1.78 0 0 1-1.781 1.78z" fill="#E3B8D3"/><defs><path id="A" d="M38.834 243.895h322.333v97.92H38.834z"/></defs><clipPath id="B"><use xlink:href="#A"/></clipPath><g fill="#E3B8D3"><path d="M361.167 343.285H38.834a1.47 1.47 0 0 1-1.472-1.472v-97.92a1.47 1.47 0 0 1 1.472-1.472h322.333a1.47 1.47 0 0 1 1.472 1.472v97.92a1.47 1.47 0 0 1-1.472 1.472zm-320.86-2.943h319.4v-94.976h-319.4v94.976zm338.92-109.03c-10.802 0-16.46-3.98-21.45-7.493-4.767-3.354-9.27-6.52-18.386-6.52s-13.614 3.167-18.38 6.52c-4.992 3.513-10.65 7.494-21.453 7.494s-16.46-3.98-21.452-7.494c-4.765-3.354-9.266-6.52-18.377-6.52s-13.615 3.167-18.382 6.52c-5 3.512-10.647 7.493-21.448 7.493s-16.46-3.98-21.45-7.494c-4.766-3.354-9.267-6.52-18.38-6.52s-13.614 3.167-18.38 6.52c-4.99 3.513-10.647 7.494-21.45 7.494s-16.458-3.98-21.45-7.494c-4.764-3.354-9.264-6.52-18.374-6.52s-13.61 3.167-18.375 6.52c-4.99 3.513-10.647 7.494-21.45 7.494s-16.455-3.98-21.444-7.494c-4.764-3.354-9.264-6.52-18.374-6.52a2.67 2.67 0 0 1-2.668-2.669 2.67 2.67 0 0 1 2.668-2.669c10.8 0 16.456 3.98 21.446 7.494 4.764 3.354 9.263 6.52 18.372 6.52s13.612-3.167 18.377-6.52c5-3.513 10.646-7.494 21.447-7.494s16.455 3.98 21.445 7.493c4.765 3.354 9.266 6.52 18.377 6.52s13.612-3.167 18.377-6.52c4.99-3.513 10.648-7.494 21.45-7.494s16.46 3.98 21.45 7.494c4.765 3.354 9.266 6.52 18.378 6.52s13.612-3.167 18.377-6.52c4.992-3.513 10.65-7.494 21.453-7.494s16.458 3.98 21.448 7.493c4.766 3.354 9.268 6.52 18.38 6.52s13.615-3.167 18.382-6.52c4.99-3.513 10.648-7.494 21.45-7.494s16.464 3.98 21.457 7.494c4.766 3.354 9.268 6.52 18.38 6.52a2.67 2.67 0 0 1 .001 5.34z" clip-path="url(#B)"/><path d="M379.225 249.935c-10.802 0-16.46-3.98-21.45-7.492-4.767-3.354-9.27-6.52-18.386-6.52s-13.614 3.167-18.38 6.52c-4.99 3.512-10.648 7.493-21.452 7.493s-16.46-3.98-21.452-7.494c-4.765-3.353-9.266-6.52-18.377-6.52s-13.615 3.167-18.382 6.52c-5 3.512-10.647 7.493-21.448 7.493s-16.46-3.98-21.45-7.493c-4.765-3.354-9.267-6.52-18.38-6.52s-13.614 3.167-18.38 6.52c-4.99 3.512-10.647 7.493-21.45 7.493s-16.458-3.98-21.45-7.494c-4.764-3.353-9.264-6.52-18.374-6.52s-13.61 3.167-18.375 6.52c-4.99 3.513-10.647 7.494-21.45 7.494s-16.455-3.98-21.444-7.493c-4.764-3.354-9.264-6.52-18.374-6.52a2.67 2.67 0 0 1-2.668-2.669 2.67 2.67 0 0 1 2.668-2.669c10.8 0 16.456 3.98 21.446 7.494 4.764 3.353 9.263 6.52 18.372 6.52s13.612-3.167 18.377-6.52c5-3.512 10.646-7.493 21.447-7.493s16.455 3.98 21.445 7.493c4.765 3.354 9.266 6.52 18.377 6.52s13.612-3.167 18.377-6.52c4.99-3.513 10.648-7.494 21.45-7.494s16.46 3.98 21.45 7.493c4.765 3.354 9.266 6.52 18.378 6.52s13.612-3.167 18.377-6.52c4.992-3.513 10.65-7.494 21.453-7.494s16.458 3.98 21.448 7.493c4.766 3.354 9.268 6.52 18.38 6.52s13.615-3.167 18.382-6.52c4.99-3.512 10.648-7.493 21.45-7.493s16.464 3.98 21.457 7.494c4.766 3.353 9.268 6.52 18.38 6.52a2.67 2.67 0 0 1 2.669 2.669 2.67 2.67 0 0 1-2.668 2.668zm0 18.62c-10.802 0-16.46-3.98-21.45-7.492-4.767-3.354-9.27-6.52-18.386-6.52s-13.614 3.167-18.38 6.52c-4.99 3.512-10.648 7.493-21.452 7.493s-16.46-3.98-21.452-7.493c-4.765-3.353-9.266-6.52-18.377-6.52s-13.616 3.167-18.382 6.52c-5 3.512-10.647 7.492-21.448 7.492s-16.46-3.98-21.45-7.493c-4.765-3.353-9.266-6.52-18.38-6.52s-13.614 3.167-18.38 6.52c-4.99 3.513-10.647 7.493-21.45 7.493s-16.458-3.98-21.45-7.493c-4.764-3.354-9.264-6.52-18.374-6.52s-13.61 3.167-18.375 6.52c-4.99 3.512-10.647 7.493-21.45 7.493s-16.454-3.98-21.444-7.493c-4.764-3.353-9.264-6.52-18.374-6.52a2.67 2.67 0 0 1-2.668-2.669 2.67 2.67 0 0 1 2.668-2.669c10.8 0 16.456 3.98 21.446 7.493 4.764 3.354 9.263 6.52 18.372 6.52s13.613-3.167 18.377-6.52c5-3.513 10.646-7.493 21.447-7.493s16.455 3.98 21.445 7.492c4.765 3.354 9.265 6.52 18.377 6.52s13.612-3.167 18.377-6.52c4.99-3.512 10.648-7.493 21.45-7.493s16.46 3.98 21.45 7.493c4.765 3.353 9.266 6.52 18.378 6.52s13.612-3.166 18.377-6.52c4.992-3.512 10.65-7.493 21.453-7.493s16.458 3.98 21.448 7.492c4.766 3.354 9.268 6.52 18.38 6.52s13.615-3.167 18.382-6.52c4.99-3.513 10.648-7.493 21.45-7.493s16.464 3.98 21.457 7.493c4.766 3.354 9.268 6.52 18.38 6.52a2.67 2.67 0 0 1 2.669 2.669 2.67 2.67 0 0 1-2.668 2.669zm0 18.62c-10.802 0-16.46-3.98-21.45-7.492-4.767-3.354-9.27-6.52-18.386-6.52s-13.614 3.167-18.38 6.52c-4.99 3.512-10.648 7.493-21.452 7.493s-16.46-3.98-21.452-7.493c-4.765-3.353-9.266-6.52-18.377-6.52s-13.616 3.167-18.382 6.52c-5 3.512-10.647 7.492-21.448 7.492s-16.46-3.98-21.45-7.493c-4.765-3.353-9.266-6.52-18.38-6.52s-13.614 3.167-18.38 6.52c-4.99 3.512-10.647 7.492-21.45 7.492s-16.458-3.98-21.45-7.493c-4.764-3.354-9.264-6.52-18.374-6.52s-13.61 3.167-18.375 6.52c-4.99 3.512-10.647 7.493-21.45 7.493s-16.454-3.98-21.444-7.493c-4.764-3.353-9.264-6.52-18.374-6.52a2.67 2.67 0 0 1-2.668-2.669 2.67 2.67 0 0 1 2.668-2.669c10.8 0 16.456 3.98 21.446 7.493 4.764 3.353 9.263 6.52 18.372 6.52s13.613-3.167 18.377-6.52c5-3.513 10.646-7.493 21.447-7.493s16.455 3.98 21.445 7.492c4.765 3.354 9.265 6.52 18.377 6.52s13.612-3.167 18.377-6.52c4.99-3.512 10.648-7.493 21.45-7.493s16.46 3.98 21.45 7.493c4.765 3.353 9.266 6.52 18.378 6.52s13.612-3.166 18.377-6.52c4.992-3.512 10.65-7.493 21.453-7.493s16.458 3.98 21.448 7.492c4.766 3.354 9.268 6.52 18.38 6.52s13.615-3.167 18.382-6.52c4.99-3.513 10.648-7.493 21.45-7.493s16.464 3.98 21.457 7.493c4.766 3.354 9.268 6.52 18.38 6.52a2.67 2.67 0 0 1 2.669 2.669 2.67 2.67 0 0 1-2.668 2.669zm0 18.62c-10.802 0-16.46-3.98-21.45-7.492-4.767-3.354-9.27-6.52-18.386-6.52s-13.614 3.167-18.38 6.52c-4.99 3.512-10.648 7.493-21.452 7.493s-16.46-3.98-21.452-7.494c-4.765-3.353-9.266-6.52-18.377-6.52s-13.615 3.167-18.382 6.52c-5 3.512-10.647 7.493-21.448 7.493s-16.46-3.98-21.45-7.493c-4.765-3.354-9.267-6.52-18.38-6.52s-13.614 3.167-18.38 6.52c-4.99 3.512-10.647 7.493-21.45 7.493s-16.458-3.98-21.45-7.494c-4.764-3.353-9.264-6.52-18.374-6.52s-13.61 3.167-18.375 6.52c-4.99 3.513-10.647 7.494-21.45 7.494s-16.455-3.98-21.444-7.493c-4.764-3.354-9.264-6.52-18.374-6.52a2.67 2.67 0 0 1-2.668-2.669 2.67 2.67 0 0 1 2.668-2.669c10.8 0 16.456 3.98 21.446 7.494 4.764 3.353 9.263 6.52 18.372 6.52s13.612-3.167 18.377-6.52c5-3.512 10.646-7.493 21.447-7.493s16.455 3.98 21.445 7.493c4.765 3.354 9.266 6.52 18.377 6.52s13.612-3.167 18.377-6.52c4.99-3.513 10.648-7.494 21.45-7.494s16.46 3.98 21.45 7.493c4.765 3.354 9.266 6.52 18.378 6.52s13.612-3.167 18.377-6.52c4.992-3.513 10.65-7.494 21.453-7.494s16.458 3.98 21.448 7.493c4.766 3.354 9.268 6.52 18.38 6.52s13.615-3.167 18.382-6.52c4.99-3.512 10.648-7.493 21.45-7.493s16.464 3.98 21.457 7.494c4.766 3.353 9.268 6.52 18.38 6.52a2.67 2.67 0 0 1 2.669 2.669 2.67 2.67 0 0 1-2.668 2.668zm0 18.62c-10.802 0-16.46-3.98-21.45-7.492-4.767-3.354-9.27-6.52-18.386-6.52s-13.614 3.167-18.38 6.52c-4.99 3.512-10.648 7.493-21.452 7.493s-16.46-3.98-21.452-7.493c-4.765-3.353-9.266-6.52-18.377-6.52s-13.616 3.167-18.382 6.52c-5 3.512-10.647 7.492-21.448 7.492s-16.46-3.98-21.45-7.493c-4.765-3.353-9.266-6.52-18.38-6.52s-13.614 3.167-18.38 6.52c-4.99 3.513-10.647 7.493-21.45 7.493s-16.458-3.98-21.45-7.493c-4.764-3.354-9.264-6.52-18.374-6.52s-13.61 3.167-18.375 6.52c-4.99 3.512-10.647 7.493-21.45 7.493s-16.454-3.98-21.444-7.493c-4.764-3.353-9.264-6.52-18.374-6.52a2.67 2.67 0 0 1-2.668-2.669 2.67 2.67 0 0 1 2.668-2.669c10.8 0 16.456 3.98 21.446 7.493 4.764 3.354 9.263 6.52 18.372 6.52s13.613-3.167 18.377-6.52c5-3.513 10.646-7.493 21.447-7.493s16.455 3.98 21.445 7.492c4.765 3.354 9.265 6.52 18.377 6.52s13.612-3.167 18.377-6.52c4.99-3.512 10.648-7.493 21.45-7.493s16.46 3.98 21.45 7.493c4.765 3.353 9.266 6.52 18.378 6.52s13.612-3.166 18.377-6.52c4.992-3.512 10.65-7.493 21.453-7.493s16.458 3.98 21.448 7.492c4.766 3.354 9.268 6.52 18.38 6.52s13.615-3.167 18.382-6.52c4.99-3.513 10.648-7.493 21.45-7.493s16.464 3.98 21.457 7.493c4.766 3.354 9.268 6.52 18.38 6.52a2.67 2.67 0 0 1 2.669 2.669 2.67 2.67 0 0 1-2.668 2.669zm0 18.62c-10.802 0-16.46-3.98-21.45-7.492-4.767-3.354-9.27-6.52-18.386-6.52s-13.614 3.167-18.38 6.52c-4.99 3.512-10.648 7.493-21.452 7.493s-16.46-3.98-21.452-7.494c-4.765-3.353-9.266-6.52-18.377-6.52s-13.615 3.167-18.382 6.52c-5 3.512-10.647 7.493-21.448 7.493s-16.46-3.98-21.45-7.493c-4.765-3.354-9.267-6.52-18.38-6.52s-13.614 3.167-18.38 6.52c-4.99 3.512-10.647 7.493-21.45 7.493s-16.458-3.98-21.45-7.494c-4.764-3.353-9.264-6.52-18.374-6.52s-13.61 3.167-18.375 6.52c-4.99 3.513-10.647 7.494-21.45 7.494s-16.455-3.98-21.444-7.493c-4.764-3.354-9.264-6.52-18.374-6.52a2.67 2.67 0 0 1-2.668-2.669 2.67 2.67 0 0 1 2.668-2.669c10.8 0 16.456 3.98 21.446 7.494 4.764 3.353 9.263 6.52 18.372 6.52s13.612-3.167 18.377-6.52c5-3.512 10.646-7.493 21.447-7.493s16.455 3.98 21.445 7.493c4.765 3.354 9.266 6.52 18.377 6.52s13.612-3.167 18.377-6.52c4.99-3.513 10.648-7.494 21.45-7.494s16.46 3.98 21.45 7.493c4.765 3.354 9.266 6.52 18.378 6.52s13.612-3.167 18.377-6.52c4.992-3.513 10.65-7.494 21.453-7.494s16.458 3.98 21.448 7.493c4.766 3.354 9.268 6.52 18.38 6.52s13.615-3.167 18.382-6.52c4.99-3.512 10.648-7.493 21.45-7.493s16.464 3.98 21.457 7.494c4.766 3.353 9.268 6.52 18.38 6.52a2.67 2.67 0 0 1 2.669 2.669 2.67 2.67 0 0 1-2.668 2.668zm0 18.62c-10.802 0-16.46-3.98-21.45-7.492-4.767-3.354-9.27-6.52-18.386-6.52s-13.614 3.167-18.38 6.52c-4.99 3.512-10.648 7.493-21.452 7.493s-16.46-3.98-21.452-7.493c-4.765-3.353-9.266-6.52-18.377-6.52s-13.616 3.167-18.382 6.52c-5 3.512-10.647 7.492-21.448 7.492s-16.46-3.98-21.45-7.493c-4.765-3.353-9.266-6.52-18.38-6.52s-13.614 3.167-18.38 6.52c-4.99 3.512-10.647 7.492-21.45 7.492s-16.458-3.98-21.45-7.493c-4.764-3.354-9.264-6.52-18.374-6.52s-13.61 3.167-18.375 6.52c-4.99 3.512-10.647 7.493-21.45 7.493s-16.454-3.98-21.444-7.493c-4.764-3.353-9.264-6.52-18.374-6.52a2.67 2.67 0 0 1-2.668-2.669 2.67 2.67 0 0 1 2.668-2.669c10.8 0 16.456 3.98 21.446 7.493 4.764 3.353 9.263 6.52 18.372 6.52s13.613-3.167 18.377-6.52c5-3.513 10.646-7.493 21.447-7.493s16.455 3.98 21.445 7.492c4.765 3.354 9.265 6.52 18.377 6.52s13.612-3.167 18.377-6.52c4.99-3.512 10.648-7.493 21.45-7.493s16.46 3.98 21.45 7.493c4.765 3.353 9.266 6.52 18.378 6.52s13.612-3.166 18.377-6.52c4.992-3.512 10.65-7.493 21.453-7.493s16.458 3.98 21.448 7.492c4.766 3.354 9.268 6.52 18.38 6.52s13.615-3.167 18.382-6.52c4.99-3.513 10.648-7.493 21.45-7.493s16.464 3.98 21.457 7.493c4.766 3.354 9.268 6.52 18.38 6.52a2.67 2.67 0 0 1 2.669 2.669 2.67 2.67 0 0 1-2.668 2.669zm0 18.624c-10.802 0-16.46-3.98-21.45-7.494-4.767-3.354-9.27-6.522-18.386-6.522s-13.614 3.168-18.38 6.52c-4.992 3.513-10.65 7.495-21.453 7.495a2.67 2.67 0 0 1-2.669-2.669 2.67 2.67 0 0 1 2.669-2.669c9.113 0 13.615-3.168 18.38-6.52 4.992-3.513 10.65-7.495 21.452-7.495s16.465 3.982 21.457 7.495c4.766 3.354 9.268 6.52 18.38 6.52a2.67 2.67 0 0 1 2.669 2.669 2.67 2.67 0 0 1-2.669 2.669z" clip-path="url(#B)"/><path d="M299.555 380.28c-10.804 0-16.46-3.982-21.452-7.495-4.765-3.354-9.266-6.52-18.377-6.52s-13.615 3.168-18.382 6.522c-5 3.513-10.647 7.494-21.448 7.494a2.67 2.67 0 0 1-2.669-2.669 2.67 2.67 0 0 1 2.669-2.669c9.11 0 13.612-3.167 18.377-6.52 4.99-3.513 10.65-7.495 21.453-7.495s16.458 3.98 21.45 7.495c4.766 3.354 9.267 6.52 18.38 6.52a2.67 2.67 0 0 1 2.669 2.669 2.67 2.67 0 0 1-2.669 2.669z" clip-path="url(#B)"/></g></svg>