<?xml version="1.0" encoding="utf-8"?>
<!-- Generator: Adobe Illustrator 16.0.0, SVG Export Plug-In . SVG Version: 6.00 Build 0)  -->
<!DOCTYPE svg PUBLIC "-//W3C//DTD SVG 1.1//EN" "http://www.w3.org/Graphics/SVG/1.1/DTD/svg11.dtd">
<svg version="1.1" id="Capa_1" xmlns="http://www.w3.org/2000/svg" xmlns:xlink="http://www.w3.org/1999/xlink" x="0px" y="0px"
	 width="400px" height="400px" viewBox="0 0 400 400" enable-background="new 0 0 400 400" xml:space="preserve">
<g id="Capa_1_1_" display="none">
	<g id="XMLID_1169_" display="inline">
		<g id="XMLID_1171_">
			<path fill="#FFFFFF" d="M199.894,233.936c-24.87,0-44.796-11.277-57.627-32.615c-6.393-10.632-9.482-21.19-10.849-27.17
				c-7.322-0.868-12.875-10.113-17.402-28.897c-3.642-15.116-3.129-25.362,1.567-31.325c1.612-2.047,3.468-3.244,5.172-3.938
				c-3.727-27.83-0.062-49.891,10.913-65.624c4.4-6.311,9.221-10.379,13.045-12.905c-6.396-6.964-6.787-15.261-6.803-15.697
				l-0.214-5.813l5.734,0.983c0.154,0.026,15.594,2.634,34.498,2.634c9.829,0,18.885-0.697,26.916-2.071
				c2.457-0.42,4.915-0.633,7.307-0.633c23.342,0,36.143,19.461,40.153,26.833c8.277,0.553,14.981,3.954,19.954,10.13
				c13.324,16.552,9.62,48.984,7.508,61.736c1.771,0.669,3.354,1.805,4.633,3.352c4.392,5.306,5.137,15.167,2.281,30.147
				c-3.635,19.087-9.77,28.931-18.239,29.272c-1.372,6.157-4.466,17.013-10.85,27.951
				C244.744,222.299,224.792,233.936,199.894,233.936z M138.693,157.81l1.141,10.115c0.02,0.138,2.094,14.619,10.688,28.779
				c11.188,18.435,27.799,27.778,49.373,27.778c21.653,0,38.319-9.744,49.537-28.964c8.559-14.664,10.581-29.398,10.602-29.546
				l1.234-9.349l6.285,6.17c0.094,0.041,0.252,0.095,0.433,0.095c1.475,0,6.039-3.88,9.414-21.599
				c3.164-16.604,0.587-21.307-0.277-22.353c-0.373-0.45-0.72-0.625-1.232-0.625c-0.13,0-0.236,0.013-0.303,0.023l-8.308,3.493
				l2.272-9.016c2.54-11.668,6.656-45.025-4.657-59.067c-3.622-4.495-8.542-6.68-15.042-6.68l-3.557,0.049l-1.264-2.867
				c-0.103-0.23-10.919-23.934-32.879-23.934c-1.858,0-3.78,0.167-5.713,0.498c-8.555,1.464-18.146,2.207-28.509,2.208
				c-11.894,0-22.314-0.964-28.868-1.755c1.186,2.367,3.188,4.996,6.565,6.944l9.258,5.341l-10.181,3.253
				c-0.052,0.018-8.541,2.972-15.679,13.544c-9.66,14.309-12.519,36-8.266,62.731l1.097,6.896l-6.395-1.462
				c-0.732,0.01-1.652,0.247-2.454,1.266c-1.246,1.581-3.719,7.012,0.196,23.262c4.126,17.121,8.084,20.848,9.171,21.575
				L138.693,157.81z"/>
		</g>
		<g id="XMLID_1170_">
			<path fill="#FFFFFF" d="M200.009,389.096c-0.013,0.002-0.01,0-0.023,0c-104.155-0.005-149.424-35.767-151.3-37.287l-1.123-0.912
				l-0.421-1.383c-5.74-18.859-3.42-38.166-3.317-38.979c4.797-37.977,31.247-50.27,50.562-59.246
				c1.119-0.52,2.224-1.034,3.31-1.544c19.647-9.247,45.427-24.452,45.686-24.604l5.085-3.004l30.971,95.857l8.058-19.248
				c-4.365-4.925-13.354-16.83-13.354-31.339c0-5.657,1.98-10.438,5.729-13.82c6.918-6.247,17.486-5.894,20.131-5.692
				c2.641-0.197,13.214-0.554,20.132,5.692c3.747,3.384,5.729,8.163,5.729,13.82c0,14.509-8.989,26.414-13.354,31.34l8.058,19.247
				l30.972-95.857l5.085,3.004c0.259,0.151,26.036,15.356,45.685,24.604c1.086,0.511,2.19,1.024,3.312,1.545
				c19.314,8.978,45.769,21.271,50.563,59.237c0.102,0.82,2.423,20.127-3.323,38.986l-0.422,1.383l-1.122,0.91
				C349.431,353.33,304.162,389.091,200.009,389.096L200.009,389.096z M55.756,345.291c7.458,5.307,52.518,34.35,144.242,34.354
				c91.703-0.004,136.764-29.037,144.239-34.354c4.614-16.503,2.581-33.408,2.561-33.583c-4.142-32.778-25.938-42.908-45.168-51.846
				c-1.136-0.527-2.253-1.047-3.354-1.565c-14.722-6.928-32.729-17.083-41.368-22.055L221.704,345.2l-20.371-48.657l2.376-2.245
				c0.121-0.114,12.696-12.264,12.696-26.89c0-2.993-0.854-5.219-2.609-6.805c-3.757-3.394-11.066-3.494-13.328-3.264l-0.305-2.979
				l-0.153,3.005l-0.166-3.104l-0.315,3.079c-2.437-0.231-9.621-0.104-13.346,3.279c-1.744,1.585-2.592,3.805-2.592,6.788
				c0,14.626,12.577,26.775,12.704,26.896l2.355,2.243l-1.25,3.009L178.292,345.2l-35.204-108.959
				c-8.639,4.972-26.647,15.127-41.369,22.055c-1.1,0.519-2.218,1.037-3.351,1.563c-19.23,8.938-41.026,19.067-45.167,51.854
				C53.182,311.878,51.169,328.852,55.756,345.291z"/>
		</g>
	</g>
</g>
<g id="Capa_2" display="none">
	<g display="inline">
		<g id="XMLID_1179_">
			<g id="XMLID_1190_">
				<path fill="#FFFFFF" d="M139.786,268.048c-1.997,0-3.812-1.354-4.311-3.38c-0.588-2.383,0.867-4.79,3.249-5.378l53.536-13.208
					c2.384-0.585,4.79,0.867,5.377,3.25c0.588,2.382-0.867,4.79-3.249,5.378l-53.535,13.208
					C140.497,268.006,140.138,268.048,139.786,268.048z"/>
			</g>
			<g id="XMLID_1189_">
				<path fill="#FFFFFF" d="M140.237,256.08c-0.04,0-0.078-0.001-0.117-0.002c-2.453-0.063-4.391-2.104-4.326-4.557
					c0.396-15.299-9.522-31.28-18.938-41.137c-9.814-10.274-16.745-22.777-17.035-23.304c-0.021-0.041-0.044-0.082-0.064-0.123
					c-5.9-11.561-8.892-24.047-8.892-37.111c0-45.056,36.657-81.711,81.716-81.711c32.913,0,62.465,19.588,75.287,49.904
					c0.955,2.26-0.102,4.867-2.36,5.823s-4.867-0.102-5.823-2.361c-11.428-27.02-37.768-44.479-67.104-44.479
					c-40.158,0-72.83,32.669-72.83,72.826c0,11.621,2.652,22.724,7.886,33.002c0.498,0.89,6.965,12.311,15.646,21.397
					c10.65,11.148,21.863,29.482,21.396,47.506C144.613,254.166,142.637,256.08,140.237,256.08z"/>
			</g>
			<g id="XMLID_1188_">
				<path fill="#FFFFFF" d="M137.351,291.092c-1.955,0-3.745-1.3-4.284-3.275c-0.646-2.367,0.751-4.811,3.119-5.455l56.082-15.279
					c2.366-0.643,4.81,0.753,5.454,3.119c0.646,2.367-0.751,4.811-3.119,5.455l-56.082,15.279
					C138.13,291.041,137.737,291.092,137.351,291.092z"/>
			</g>
			<g id="XMLID_1187_">
				<path fill="#FFFFFF" d="M137.351,314.578c-1.955,0-3.745-1.301-4.284-3.276c-0.646-2.366,0.751-4.81,3.118-5.454l55.862-15.225
					c2.368-0.641,4.81,0.752,5.455,3.119c0.645,2.367-0.751,4.81-3.118,5.455l-55.862,15.224
					C138.13,314.525,137.737,314.578,137.351,314.578z"/>
			</g>
			<g id="XMLID_1186_">
				<path fill="#FFFFFF" d="M161.734,241.678c-0.179,0-0.358-0.011-0.54-0.033c-2.435-0.295-4.169-2.506-3.877-4.938l0,0
					c0.033-0.28,3.167-28.315-10.616-55.054c-0.602-1.166-0.656-2.537-0.151-3.748c0.506-1.21,1.52-2.135,2.771-2.528
					c5.883-1.844,19.016-1.388,26.624,13.525c1.115,2.185,0.248,4.861-1.938,5.977c-2.187,1.115-4.861,0.248-5.978-1.938
					c-3.177-6.226-7.257-8.475-10.511-9.178c11.695,27.109,8.761,52.845,8.62,54.007
					C165.866,240.023,163.949,241.678,161.734,241.678z"/>
			</g>
			<g id="XMLID_1185_">
				<path fill="#FFFFFF" d="M182.238,241.678c-2.214,0-4.131-1.654-4.404-3.908c-0.142-1.162-3.073-26.887,8.612-53.987
					c-3.264,0.708-7.339,2.959-10.501,9.157c-1.114,2.186-3.79,3.054-5.976,1.939c-2.186-1.115-3.054-3.791-1.938-5.977
					c7.607-14.914,20.741-15.366,26.623-13.525c1.251,0.392,2.267,1.317,2.771,2.528c0.505,1.211,0.451,2.582-0.151,3.748
					c-13.84,26.843-10.652,54.769-10.619,55.048c0.296,2.436-1.439,4.649-3.876,4.944
					C182.597,241.667,182.416,241.678,182.238,241.678z"/>
			</g>
			<g id="XMLID_1184_">
				<path fill="#FFFFFF" d="M172.578,55.758c-2.454,0-4.442-1.989-4.442-4.443V15.416c0-2.454,1.989-4.443,4.442-4.443
					c2.452,0,4.441,1.989,4.441,4.443v35.899C177.021,53.769,175.032,55.758,172.578,55.758z"/>
			</g>
			<g id="XMLID_1183_">
				<path fill="#FFFFFF" d="M104.931,90.656c-0.922,0-1.852-0.286-2.647-0.878L73.551,68.402c-1.968-1.465-2.377-4.248-0.913-6.217
					c1.464-1.969,4.248-2.377,6.216-0.913l28.732,21.376c1.969,1.465,2.377,4.248,0.913,6.217
					C107.627,90.037,106.288,90.656,104.931,90.656z"/>
			</g>
			<g id="XMLID_1182_">
				<path fill="#FFFFFF" d="M240.238,90.656c-1.356,0-2.695-0.619-3.567-1.791c-1.465-1.969-1.057-4.752,0.912-6.217l28.732-21.376
					c1.972-1.465,4.752-1.055,6.216,0.913c1.466,1.969,1.057,4.752-0.911,6.217l-28.733,21.376
					C242.089,90.37,241.159,90.656,240.238,90.656z"/>
			</g>
			<g id="XMLID_1181_">
				<path fill="#FFFFFF" d="M75.266,152.902H38.479c-2.454,0-4.441-1.989-4.441-4.442c0-2.454,1.988-4.443,4.441-4.443h36.787
					c2.454,0,4.442,1.989,4.442,4.443S77.719,152.902,75.266,152.902z"/>
			</g>
			<g id="XMLID_1180_">
				<path fill="#FFFFFF" d="M56.874,241.678c-1.279,0-2.547-0.55-3.426-1.611c-1.564-1.891-1.3-4.689,0.591-6.256l30.803-25.482
					c1.889-1.563,4.69-1.299,6.255,0.592s1.299,4.689-0.591,6.256l-30.803,25.483C58.875,241.343,57.871,241.678,56.874,241.678z"/>
			</g>
		</g>
		<g id="XMLID_1065_">
			<g id="XMLID_1173_">
				<path fill="#FFFFFF" d="M361.395,121.12c0,2.075,0,3.644,0,5.212c0,64.137-0.35,128.282,0.184,192.416
					c0.189,22.326-13.135,35.371-32.461,39.964c-4.165,0.991-8.289,1.53-12.36,1.53c-7.194,0-14.228-1.682-21.033-5.518
					c-12.598-7.099-16.586-23.533-9.053-35.845c8.172-13.354,25.281-20.909,40.476-20.907c3.714,0,7.315,0.451,10.642,1.381
					c1.16,0.319,2.348,0.553,3.804,0.894c0-40.837,0-81.411,0-122.385c-6.562,1.156-13.006,2.243-19.436,3.438
					c-26.332,4.885-52.664,9.805-78.998,14.703c-1.807,0.335-3.622,0.584-5.437,0.868c-6.947,1.079-5.898,0.254-5.925,6.865
					c-0.172,47.738-0.361,95.479-0.399,143.215c-0.013,14.91-7.584,24.861-20.045,31.65c-7.402,4.033-15.077,6.043-22.897,6.043
					c-5.214,0-10.496-0.895-15.804-2.675c-22.526-7.554-24.502-29.618-10.779-43.999c9.693-10.158,21.226-14.811,34.06-14.811
					c4.093,0,8.317,0.474,12.658,1.392c0.933,0.198,1.891,0.25,3.265,0.427c0-1.84,0-3.404,0-4.973
					c0-56.674,0.045-113.348-0.103-170.017c-0.008-3.85,1.022-5.208,4.809-5.796c30.691-4.778,61.354-9.741,92.02-14.678
					c16.057-2.587,32.104-5.247,48.157-7.855C358.047,121.446,359.375,121.352,361.395,121.12 M361.395,112.234
					c-0.337,0-0.675,0.019-1.013,0.058c-0.67,0.077-1.261,0.138-1.797,0.193c-1.117,0.116-2.175,0.225-3.286,0.407
					c-6.59,1.071-13.192,2.152-19.795,3.233c-9.289,1.522-18.896,3.096-28.34,4.617l-11.33,1.825
					c-26.428,4.257-53.754,8.659-80.643,12.846c-5.635,0.876-12.348,4.12-12.325,14.594c0.118,46.021,0.111,92.816,0.104,138.069
					l-0.003,26.588c-2.391-0.258-4.742-0.389-7.038-0.389c-15.746,0-29.368,5.908-40.488,17.563
					c-9.228,9.67-13.02,22.378-10.145,33.99c2.845,11.492,11.556,20.217,24.528,24.566c6.198,2.08,12.467,3.135,18.627,3.135
					c9.339,0,18.473-2.397,27.15-7.127c16.359-8.911,24.662-22.184,24.677-39.443c0.036-43.021,0.194-86.771,0.35-129.082
					l0.046-12.469c1.323-0.199,2.692-0.407,4.104-0.668c10.108-1.881,20.214-3.764,30.319-5.647
					c16.227-3.023,32.451-6.046,48.678-9.057c2.979-0.554,5.919-1.077,8.929-1.604v100.946c-1.812-0.192-3.668-0.291-5.559-0.291
					c-19.536-0.001-38.849,10.106-48.056,25.155c-4.905,8.017-6.356,17.855-3.98,26.998c2.37,9.117,8.142,16.656,16.25,21.226
					c7.845,4.421,16.389,6.66,25.396,6.66c4.629,0,9.479-0.597,14.419-1.771c11.896-2.828,21.392-8.269,28.216-16.168
					c7.457-8.633,11.183-19.572,11.072-32.516c-0.382-45.908-0.31-92.615-0.239-137.784c0.026-17.881,0.056-36.37,0.056-54.557
					v-5.212c0-2.533-1.08-4.945-2.971-6.632C365.673,113.029,363.563,112.234,361.395,112.234L361.395,112.234z"/>
			</g>
			<g id="XMLID_1066_">
				<path fill="#FFFFFF" d="M361.395,121.12c0,2.075,0,3.644,0,5.212c0,64.137-0.35,128.282,0.184,192.416
					c0.189,22.326-13.135,35.371-32.461,39.964c-4.164,0.99-8.291,1.53-12.36,1.53c-7.195,0-14.227-1.682-21.033-5.518
					c-12.598-7.099-16.586-23.533-9.053-35.845c8.171-13.354,25.282-20.907,40.476-20.907c3.715,0,7.314,0.451,10.642,1.381
					c1.16,0.319,2.348,0.553,3.804,0.894c0-40.837,0-81.411,0-122.385c-6.562,1.156-13.006,2.243-19.436,3.438
					c-26.332,4.885-52.664,9.805-78.998,14.703c-1.807,0.335-3.622,0.584-5.437,0.868c-6.947,1.079-5.898,0.254-5.925,6.865
					c-0.172,47.738-0.361,95.479-0.399,143.215c-0.013,14.91-7.584,24.861-20.045,31.65c-7.401,4.033-15.078,6.043-22.897,6.043
					c-5.215,0-10.495-0.895-15.804-2.675c-22.526-7.554-24.502-29.618-10.779-43.999c9.692-10.158,21.227-14.811,34.06-14.811
					c4.093,0,8.316,0.474,12.658,1.392c0.933,0.198,1.891,0.25,3.265,0.427c0-1.84,0-3.404,0-4.973
					c0-56.674,0.045-113.348-0.103-170.017c-0.008-3.85,1.022-5.208,4.809-5.796c30.691-4.778,61.354-9.741,92.02-14.678
					c16.057-2.587,32.104-5.247,48.157-7.855C358.047,121.446,359.375,121.352,361.395,121.12 M361.395,112.234
					c-0.337,0-0.675,0.019-1.013,0.058c-0.67,0.077-1.261,0.138-1.797,0.193c-1.117,0.116-2.175,0.225-3.286,0.407
					c-6.59,1.071-13.192,2.152-19.795,3.233c-9.289,1.522-18.896,3.096-28.34,4.617l-11.33,1.825
					c-26.428,4.257-53.754,8.659-80.643,12.846c-5.635,0.876-12.348,4.12-12.325,14.594c0.118,46.021,0.111,92.816,0.104,138.069
					l-0.003,26.588c-2.391-0.258-4.742-0.389-7.038-0.389c-15.746,0-29.369,5.908-40.488,17.563
					c-9.228,9.67-13.02,22.378-10.145,33.99c2.845,11.492,11.556,20.217,24.528,24.566c6.198,2.08,12.467,3.135,18.627,3.135
					c9.339,0,18.473-2.397,27.149-7.127c16.36-8.911,24.663-22.184,24.678-39.443c0.036-43.021,0.194-86.771,0.35-129.082
					l0.046-12.469c1.323-0.199,2.692-0.407,4.104-0.668c10.108-1.881,20.214-3.764,30.319-5.647
					c16.226-3.023,32.451-6.046,48.678-9.057c2.979-0.554,5.919-1.077,8.929-1.604v100.946c-1.813-0.194-3.669-0.291-5.56-0.291
					c-19.536,0-38.849,10.108-48.055,25.155c-4.905,8.017-6.356,17.855-3.98,26.998c2.37,9.117,8.142,16.656,16.25,21.226
					c7.845,4.421,16.389,6.66,25.396,6.66c4.629,0,9.479-0.597,14.419-1.771c11.896-2.828,21.392-8.269,28.216-16.168
					c7.457-8.633,11.183-19.572,11.072-32.516c-0.382-45.908-0.31-92.615-0.239-137.784c0.026-17.881,0.056-36.37,0.056-54.557
					v-5.212c0-2.533-1.08-4.945-2.971-6.632C365.673,113.029,363.563,112.234,361.395,112.234L361.395,112.234z"/>
			</g>
		</g>
	</g>
</g>
<g>
	<g>
		<path fill="#E3B8D3" d="M139.872,238.314H66.277c-0.982,0-1.779-0.797-1.779-1.779v-12.759c0-0.982,0.796-1.779,1.779-1.779
			h73.596c0.982,0,1.779,0.797,1.779,1.779v12.759C141.651,237.518,140.855,238.314,139.872,238.314z M68.055,234.756h70.038v-9.2
			H68.055V234.756z"/>
	</g>
	<g>
		<path fill="#E3B8D3" d="M327.296,238.314H253.7c-0.982,0-1.779-0.797-1.779-1.779v-12.759c0-0.982,0.797-1.779,1.779-1.779h73.596
			c0.982,0,1.779,0.797,1.779,1.779v12.759C329.075,237.518,328.279,238.314,327.296,238.314z M255.48,234.756h70.037v-9.2H255.48
			V234.756z"/>
	</g>
	<g>
		<path fill="#E3B8D3" d="M120.474,124.914c-8.786,0-16.792-4.322-21.619-11.356c-1.222,2.476-3.772,4.182-6.715,4.182
			c-3.894,0-7.103-2.989-7.451-6.794c-2.447-0.617-4.264-2.836-4.264-5.472V90.203c0-2.664,1.855-4.902,4.342-5.492
			c0.397-2.267,1.846-4.261,3.906-5.347c1.688-5.304,9.022-22.956,31.801-22.956c22.778,0,30.113,17.652,31.8,22.956
			c2.061,1.085,3.509,3.08,3.906,5.347c2.487,0.589,4.343,2.828,4.343,5.492v15.271c0,2.636-1.817,4.855-4.265,5.472
			c-0.348,3.805-3.557,6.794-7.451,6.794c-2.941,0-5.492-1.707-6.713-4.183C137.266,120.592,129.26,124.914,120.474,124.914z
			 M97.844,106.186c0.709,0,1.366,0.426,1.645,1.103c3.515,8.546,11.751,14.068,20.985,14.068c9.232,0,17.47-5.522,20.987-14.068
			c0.324-0.786,1.159-1.232,1.99-1.068c0.833,0.165,1.434,0.896,1.434,1.745v2.293c0,2.164,1.76,3.924,3.923,3.924
			c2.164,0,3.925-1.761,3.925-3.924v-0.957c0-0.502,0.212-0.981,0.584-1.318c0.372-0.337,0.871-0.503,1.369-0.452l0.184,0.022
			c0.004,0,0.007,0,0.011,0c1.155,0,2.085-0.933,2.085-2.079V90.203c0-1.149-0.937-2.085-2.087-2.085l-0.179,0.027
			c-0.502,0.055-1.003-0.109-1.378-0.446c-0.375-0.337-0.589-0.818-0.589-1.323V85.97c0-1.609-1.028-3.079-2.558-3.657
			c-0.528-0.2-0.93-0.638-1.083-1.181c-0.997-3.534-7.063-21.166-28.617-21.166c-21.555,0-27.621,17.632-28.618,21.166
			c-0.153,0.543-0.556,0.981-1.083,1.181c-1.53,0.578-2.558,2.048-2.558,3.657v0.406c0,0.505-0.214,0.986-0.589,1.323
			s-0.869,0.501-1.378,0.446l-0.166-0.021c-0.004,0-0.008,0-0.012,0c-1.158,0-2.087,0.933-2.087,2.079v15.271
			c0,1.149,0.936,2.085,2.085,2.085l0.193-0.028c0.504-0.047,0.998,0.115,1.37,0.452c0.373,0.337,0.584,0.816,0.584,1.318v0.957
			c0,2.164,1.761,3.924,3.925,3.924s3.925-1.761,3.925-3.924v-2.293c0-0.85,0.601-1.581,1.434-1.745
			C97.615,106.197,97.73,106.186,97.844,106.186z M97.844,91.148c-0.114,0-0.23-0.011-0.346-0.034
			c-0.833-0.165-1.434-0.896-1.434-1.745V85.97c0-1.472-0.838-2.809-2.188-3.488c-0.786-0.396-1.165-1.306-0.891-2.142
			c1.497-4.578,7.903-19.516,27.489-19.516c19.8,0,26.058,14.945,27.504,19.526c0.263,0.833-0.118,1.734-0.898,2.125
			c-1.354,0.68-2.195,2.019-2.195,3.494v3.398c0,0.85-0.601,1.581-1.434,1.745c-0.832,0.165-1.667-0.283-1.99-1.068
			c-3.517-8.548-11.754-14.072-20.987-14.072c-9.233,0-17.47,5.523-20.985,14.072C99.211,90.722,98.553,91.148,97.844,91.148z
			 M120.474,72.416c8.609,0,16.471,4.152,21.327,10.94c0.471-1.25,1.275-2.357,2.341-3.204c-1.889-4.95-7.837-15.77-23.667-15.77
			c-15.654,0-21.702,10.828-23.647,15.788c1.056,0.844,1.854,1.945,2.321,3.186C104.003,76.567,111.864,72.416,120.474,72.416z"/>
	</g>
	<g>
		<path fill="#E3B8D3" d="M259.287,142.712c-8.784,0-16.79-4.322-21.618-11.358c-1.221,2.476-3.771,4.183-6.714,4.183
			c-3.895,0-7.104-2.989-7.452-6.793c-2.447-0.617-4.265-2.837-4.265-5.473V108c0-2.664,1.855-4.902,4.342-5.491
			c0.397-2.268,1.847-4.261,3.906-5.347c1.688-5.303,9.028-22.956,31.801-22.956c22.777,0,30.112,17.651,31.801,22.956
			c2.061,1.085,3.51,3.079,3.907,5.347c2.485,0.589,4.341,2.828,4.341,5.491v15.271c0,2.636-1.816,4.855-4.263,5.473
			c-0.35,3.804-3.558,6.793-7.45,6.793c-2.942,0-5.494-1.707-6.716-4.182C276.08,138.391,268.074,142.712,259.287,142.712z
			 M236.658,123.982c0.709,0,1.366,0.426,1.645,1.103c3.517,8.547,11.753,14.07,20.984,14.07c9.234,0,17.472-5.523,20.985-14.069
			c0.323-0.786,1.16-1.233,1.99-1.069c0.834,0.165,1.435,0.896,1.435,1.745v2.293c0,2.164,1.761,3.925,3.926,3.925
			c2.163,0,3.923-1.761,3.923-3.925v-0.958c0-0.504,0.214-0.985,0.589-1.322c0.375-0.338,0.877-0.502,1.377-0.447l0.18,0.022
			c0.003,0,0.007,0,0.011,0c1.146,0,2.075-0.933,2.075-2.08V108c0-1.149-0.935-2.085-2.084-2.085l-0.195,0.029
			c-0.495,0.05-0.996-0.116-1.368-0.453c-0.372-0.337-0.584-0.816-0.584-1.318v-0.406c0-1.609-1.027-3.079-2.558-3.656
			c-0.527-0.2-0.93-0.638-1.083-1.182c-0.997-3.534-7.063-21.166-28.618-21.166c-21.55,0-27.62,17.632-28.618,21.167
			c-0.153,0.543-0.556,0.981-1.083,1.181c-1.529,0.578-2.557,2.047-2.557,3.656v0.406c0,0.502-0.213,0.982-0.586,1.319
			c-0.372,0.337-0.872,0.501-1.37,0.451l-0.185-0.022c-0.003,0-0.007,0-0.011,0c-1.151,0-2.081,0.933-2.081,2.079v15.271
			c0,1.15,0.936,2.085,2.085,2.085l0.177-0.028c0.507-0.052,1.004,0.108,1.38,0.445c0.376,0.337,0.591,0.819,0.591,1.324v0.958
			c0,2.164,1.761,3.925,3.926,3.925c2.163,0,3.923-1.761,3.923-3.925v-2.293c0-0.85,0.601-1.581,1.435-1.745
			C236.428,123.994,236.544,123.982,236.658,123.982z M281.917,108.945c-0.709,0-1.366-0.426-1.645-1.103
			c-3.514-8.547-11.751-14.07-20.985-14.07c-9.231,0-17.469,5.523-20.984,14.071c-0.323,0.786-1.159,1.234-1.99,1.068
			c-0.834-0.165-1.435-0.896-1.435-1.745v-3.397c0-1.472-0.838-2.81-2.188-3.49c-0.784-0.396-1.162-1.305-0.89-2.14
			c1.493-4.578,7.889-19.516,27.486-19.516c19.788,0,26.056,14.945,27.506,19.526c0.264,0.833-0.117,1.735-0.898,2.127
			c-1.355,0.68-2.197,2.019-2.197,3.494v3.397c0,0.85-0.601,1.581-1.435,1.745C282.148,108.934,282.031,108.945,281.917,108.945z
			 M235.642,97.967c1.055,0.845,1.853,1.946,2.32,3.188c4.854-6.789,12.716-10.94,21.325-10.94c8.611,0,16.473,4.15,21.327,10.939
			c0.471-1.249,1.275-2.355,2.342-3.203c-1.893-4.951-7.849-15.771-23.669-15.771C243.622,82.179,237.582,93.009,235.642,97.967z"/>
	</g>
	<g>
		<path fill="#E3B8D3" d="M160.951,238.314c-0.982,0-1.779-0.797-1.779-1.779v-71.922c0-0.392,0.129-0.772,0.367-1.083
			c10.256-13.365,23.637-38.56,39.772-74.884c3.243-7.3,3.839-13.284,1.771-17.787c-2.178-4.741-6.65-6.29-7.524-6.552
			c-0.725-0.218-4.527-1.187-8.322,1.038c-3.256,1.908-5.519,5.618-6.725,11.027c-2.453,11.003-16.842,38.708-25.201,54.242
			c-0.249,0.462-0.689,0.792-1.203,0.899c-0.515,0.106-1.049-0.018-1.462-0.342c-3.949-3.101-8.656-4.74-13.613-4.74
			c-5.42,0-10.659,2.027-14.752,5.707c-0.029,0.026-0.059,0.051-0.089,0.075c-0.029,0.031-0.06,0.062-0.092,0.091
			c-0.958,0.88-1.843,1.847-2.63,2.874c-0.031,0.041-0.064,0.08-0.099,0.119l-8.99,9.833c-0.475,0.518-1.21,0.709-1.877,0.486
			c-0.667-0.223-1.14-0.817-1.207-1.518c-0.042-0.412-1.126-10.195-9.907-11.545c-8.567-1.313-13.802,3.598-16.015,15.027
			c-0.156,0.808-0.34,1.721-0.542,2.721c-2.393,11.869-7.995,39.665,4.37,42.681c6.541,1.594,15.984-4.015,26.59-15.799
			c0.494-0.548,1.272-0.733,1.959-0.471c0.688,0.264,1.142,0.924,1.142,1.661v37.682c0,0.982-0.796,1.779-1.779,1.779
			s-1.779-0.797-1.779-1.779v-33.185c-7.881,8.046-18.107,15.733-26.977,13.57c-15.685-3.826-9.829-32.879-7.015-46.841
			c0.2-0.99,0.382-1.894,0.537-2.694c3.254-16.817,12.701-18.999,20.049-17.868c7.141,1.098,10.702,6.632,12.146,11.152l6.616-7.236
			c0.883-1.146,1.872-2.226,2.939-3.212l0.127-0.14c0.111-0.123,0.238-0.228,0.376-0.314c4.713-4.137,10.701-6.411,16.897-6.411
			c5.063,0,9.898,1.468,14.105,4.266c7.101-13.267,21.564-41.057,23.901-51.541c1.43-6.413,4.255-10.895,8.399-13.323
			c3.926-2.302,8.331-2.219,11.144-1.376c3.276,0.983,7.553,3.726,9.735,8.476c2.513,5.471,1.924,12.441-1.752,20.716
			c-16.059,36.152-29.458,61.42-39.833,75.123v71.321C162.73,237.518,161.934,238.314,160.951,238.314z"/>
	</g>
	<g>
		<path fill="#E3B8D3" d="M237.748,238.314c-0.982,0-1.779-0.797-1.779-1.779V206.28c-12.025,5.018-24.989,9.424-33.456,11.97
			c-16.534,4.969-20.941-5.227-21.366-6.336h0c-0.123-0.314-2.977-7.793,0.234-14.129c1.803-3.558,5.098-5.997,9.795-7.25
			c10.77-2.871,34.16-13.336,44.793-18.208v-0.68c0-14.034,11.419-25.451,25.455-25.451c10.317,0,19.461,6.158,23.429,15.546
			c5.69-3.799,23.189-15.674,34.587-25.499c15.303-13.192,23.964-4.853,24.324-4.491c0.156,0.142,5.101,4.764,5.259,11.401
			c0.099,4.147-1.668,8.089-5.252,11.714c-8.206,8.302-33.62,25.311-56.895,34.634v24.956c0,0.982-0.797,1.779-1.779,1.779
			s-1.779-0.797-1.779-1.779v-26.165c0-0.732,0.449-1.39,1.132-1.657c23.141-9.046,48.673-26.057,56.79-34.269
			c2.88-2.913,4.301-5.984,4.227-9.129c-0.123-5.143-4.125-8.882-4.165-8.919c-0.314-0.301-6.867-6.305-19.538,4.619
			c-13.527,11.661-35.445,26.109-36.758,26.972c-0.295,0.212-0.655,0.334-1.036,0.334c-0.003,0-0.006,0-0.01,0
			c-0.77-0.004-1.45-0.499-1.686-1.231c-2.926-9.127-11.305-15.259-20.85-15.259c-12.074,0-21.896,9.821-21.896,21.894v1.821
			c0,0.695-0.405,1.326-1.036,1.616c-12.611,5.797-35.41,15.959-46.399,18.888c-3.668,0.979-6.202,2.796-7.529,5.403
			c-2.497,4.903-0.125,11.186-0.101,11.249c0.147,0.42,3.092,8.405,17.027,4.218c8.958-2.692,23.004-7.491,35.557-12.881
			c0.55-0.236,1.181-0.181,1.681,0.149c0.5,0.329,0.801,0.887,0.801,1.485v32.939C239.528,237.518,238.731,238.314,237.748,238.314z
			"/>
	</g>
	<g>
		<defs>
			<rect id="SVGID_1_" x="38.834" y="243.895" width="322.333" height="97.919"/>
		</defs>
		<clipPath id="SVGID_2_">
			<use xlink:href="#SVGID_1_"  overflow="visible"/>
		</clipPath>
		<g clip-path="url(#SVGID_2_)">
			<path fill="#E3B8D3" d="M361.167,343.285H38.834c-0.813,0-1.472-0.658-1.472-1.472v-97.919c0-0.813,0.659-1.472,1.472-1.472
				h322.333c0.813,0,1.472,0.658,1.472,1.472v97.919C362.639,342.627,361.981,343.285,361.167,343.285z M40.306,340.342h319.39
				v-94.976H40.306V340.342z"/>
		</g>
		<g clip-path="url(#SVGID_2_)">
			<path fill="#E3B8D3" d="M379.225,231.313c-10.802,0-16.46-3.981-21.451-7.493c-4.767-3.354-9.27-6.521-18.386-6.521
				c-9.113,0-13.614,3.167-18.38,6.521c-4.992,3.513-10.649,7.494-21.453,7.494c-10.803,0-16.461-3.981-21.452-7.494
				c-4.765-3.354-9.266-6.521-18.377-6.521c-9.114,0-13.615,3.167-18.382,6.521c-4.99,3.512-10.647,7.493-21.448,7.493
				c-10.802,0-16.459-3.981-21.45-7.494c-4.766-3.354-9.267-6.521-18.379-6.521c-9.113,0-13.614,3.167-18.379,6.521
				c-4.991,3.513-10.647,7.494-21.449,7.494c-10.802,0-16.458-3.981-21.449-7.494c-4.764-3.354-9.264-6.521-18.374-6.521
				c-9.11,0-13.611,3.167-18.375,6.521c-4.991,3.513-10.647,7.494-21.449,7.494c-10.799,0-16.455-3.981-21.444-7.494
				c-4.764-3.354-9.264-6.521-18.374-6.521c-1.474,0-2.668-1.195-2.668-2.669s1.195-2.669,2.668-2.669
				c10.8,0,16.456,3.981,21.446,7.494c4.764,3.354,9.263,6.521,18.372,6.521c9.112,0,13.612-3.167,18.377-6.521
				c4.99-3.513,10.646-7.494,21.447-7.494c10.799,0,16.455,3.981,21.445,7.493c4.765,3.354,9.266,6.521,18.377,6.521
				c9.111,0,13.612-3.167,18.377-6.521c4.991-3.513,10.648-7.494,21.451-7.494c10.802,0,16.459,3.981,21.451,7.494
				c4.765,3.354,9.266,6.521,18.378,6.521c9.111,0,13.612-3.167,18.377-6.521c4.992-3.513,10.649-7.494,21.453-7.494
				c10.801,0,16.458,3.981,21.448,7.493c4.766,3.354,9.268,6.521,18.381,6.521c9.114,0,13.615-3.167,18.382-6.521
				c4.991-3.513,10.648-7.494,21.451-7.494c10.806,0,16.464,3.981,21.457,7.494c4.766,3.354,9.268,6.521,18.38,6.521
				c1.474,0,2.669,1.195,2.669,2.669S380.698,231.313,379.225,231.313z"/>
		</g>
		<g clip-path="url(#SVGID_2_)">
			<path fill="#E3B8D3" d="M379.225,249.935c-10.802,0-16.46-3.98-21.451-7.492c-4.767-3.354-9.27-6.521-18.386-6.521
				c-9.113,0-13.614,3.167-18.381,6.521c-4.991,3.512-10.648,7.493-21.452,7.493c-10.803,0-16.461-3.981-21.452-7.494
				c-4.765-3.353-9.266-6.52-18.377-6.52c-9.114,0-13.615,3.167-18.382,6.521c-4.99,3.512-10.647,7.493-21.448,7.493
				c-10.802,0-16.459-3.981-21.45-7.493c-4.765-3.354-9.267-6.521-18.379-6.521c-9.113,0-13.614,3.167-18.379,6.521
				c-4.991,3.512-10.647,7.493-21.449,7.493c-10.802,0-16.458-3.981-21.449-7.494c-4.764-3.353-9.264-6.52-18.374-6.52
				c-9.11,0-13.611,3.167-18.375,6.52c-4.991,3.513-10.647,7.494-21.449,7.494c-10.799,0-16.455-3.981-21.444-7.493
				c-4.764-3.354-9.264-6.521-18.374-6.521c-1.474,0-2.668-1.195-2.668-2.669s1.195-2.669,2.668-2.669
				c10.8,0,16.456,3.981,21.446,7.494c4.764,3.353,9.263,6.52,18.372,6.52c9.112,0,13.612-3.167,18.377-6.521
				c4.99-3.512,10.646-7.493,21.447-7.493c10.799,0,16.455,3.981,21.445,7.493c4.765,3.354,9.266,6.521,18.377,6.521
				c9.111,0,13.612-3.167,18.377-6.52c4.991-3.513,10.648-7.494,21.451-7.494c10.802,0,16.459,3.981,21.451,7.493
				c4.765,3.354,9.266,6.521,18.378,6.521c9.111,0,13.612-3.167,18.377-6.52c4.992-3.513,10.649-7.494,21.453-7.494
				c10.801,0,16.458,3.981,21.448,7.493c4.766,3.354,9.268,6.521,18.381,6.521c9.114,0,13.615-3.167,18.382-6.521
				c4.991-3.512,10.648-7.493,21.451-7.493c10.806,0,16.464,3.981,21.457,7.494c4.766,3.353,9.268,6.52,18.38,6.52
				c1.474,0,2.669,1.195,2.669,2.669S380.698,249.935,379.225,249.935z"/>
		</g>
		<g clip-path="url(#SVGID_2_)">
			<path fill="#E3B8D3" d="M379.225,268.555c-10.802,0-16.46-3.98-21.451-7.492c-4.767-3.354-9.27-6.521-18.386-6.521
				c-9.113,0-13.614,3.167-18.381,6.52c-4.991,3.512-10.648,7.493-21.452,7.493c-10.803,0-16.461-3.981-21.452-7.493
				c-4.765-3.353-9.266-6.52-18.377-6.52c-9.114,0-13.616,3.167-18.382,6.521c-4.99,3.512-10.647,7.492-21.448,7.492
				c-10.802,0-16.459-3.98-21.45-7.493c-4.765-3.353-9.266-6.52-18.379-6.52s-13.614,3.167-18.379,6.52
				c-4.991,3.513-10.647,7.493-21.449,7.493c-10.802,0-16.458-3.981-21.449-7.493c-4.764-3.354-9.264-6.52-18.374-6.52
				c-9.11,0-13.611,3.167-18.375,6.52c-4.991,3.512-10.647,7.493-21.449,7.493c-10.799,0-16.454-3.981-21.444-7.493
				c-4.764-3.353-9.264-6.52-18.374-6.52c-1.474,0-2.668-1.195-2.668-2.669s1.195-2.669,2.668-2.669
				c10.8,0,16.456,3.981,21.446,7.493c4.764,3.354,9.263,6.52,18.372,6.52c9.112,0,13.613-3.167,18.377-6.52
				c4.99-3.513,10.646-7.493,21.447-7.493c10.799,0,16.455,3.98,21.445,7.492c4.765,3.354,9.265,6.521,18.377,6.521
				c9.111,0,13.612-3.167,18.377-6.52c4.991-3.512,10.648-7.493,21.451-7.493c10.802,0,16.459,3.981,21.451,7.493
				c4.765,3.353,9.266,6.52,18.378,6.52c9.111,0,13.612-3.166,18.377-6.52c4.992-3.512,10.649-7.493,21.453-7.493
				c10.801,0,16.458,3.98,21.448,7.492c4.766,3.354,9.268,6.521,18.381,6.521c9.114,0,13.615-3.167,18.382-6.52
				c4.991-3.513,10.648-7.493,21.451-7.493c10.806,0,16.464,3.981,21.457,7.493c4.766,3.354,9.268,6.52,18.38,6.52
				c1.474,0,2.669,1.195,2.669,2.669S380.698,268.555,379.225,268.555z"/>
		</g>
		<g clip-path="url(#SVGID_2_)">
			<path fill="#E3B8D3" d="M379.225,287.175c-10.802,0-16.46-3.98-21.451-7.492c-4.767-3.354-9.27-6.521-18.386-6.521
				c-9.113,0-13.614,3.167-18.381,6.52c-4.991,3.512-10.648,7.493-21.452,7.493c-10.803,0-16.461-3.981-21.452-7.493
				c-4.765-3.353-9.266-6.52-18.377-6.52c-9.114,0-13.616,3.167-18.382,6.521c-4.99,3.512-10.647,7.492-21.448,7.492
				c-10.802,0-16.459-3.98-21.45-7.493c-4.765-3.353-9.266-6.52-18.379-6.52s-13.614,3.167-18.379,6.521
				c-4.991,3.512-10.647,7.492-21.449,7.492c-10.802,0-16.458-3.981-21.449-7.493c-4.764-3.354-9.264-6.52-18.374-6.52
				c-9.11,0-13.611,3.167-18.375,6.52c-4.991,3.512-10.647,7.493-21.449,7.493c-10.799,0-16.454-3.98-21.444-7.493
				c-4.764-3.353-9.264-6.52-18.374-6.52c-1.474,0-2.668-1.195-2.668-2.669s1.195-2.669,2.668-2.669
				c10.8,0,16.456,3.981,21.446,7.493c4.764,3.353,9.263,6.52,18.372,6.52c9.112,0,13.613-3.167,18.377-6.52
				c4.99-3.513,10.646-7.493,21.447-7.493c10.799,0,16.455,3.98,21.445,7.492c4.765,3.354,9.265,6.521,18.377,6.521
				c9.111,0,13.612-3.167,18.377-6.52c4.991-3.512,10.648-7.493,21.451-7.493c10.802,0,16.459,3.981,21.451,7.493
				c4.765,3.353,9.266,6.52,18.378,6.52c9.111,0,13.612-3.166,18.377-6.52c4.992-3.512,10.649-7.493,21.453-7.493
				c10.801,0,16.458,3.98,21.448,7.492c4.766,3.354,9.268,6.521,18.381,6.521c9.114,0,13.615-3.167,18.382-6.52
				c4.991-3.513,10.648-7.493,21.451-7.493c10.806,0,16.464,3.981,21.457,7.493c4.766,3.354,9.268,6.52,18.38,6.52
				c1.474,0,2.669,1.195,2.669,2.669S380.698,287.175,379.225,287.175z"/>
		</g>
		<g clip-path="url(#SVGID_2_)">
			<path fill="#E3B8D3" d="M379.225,305.796c-10.802,0-16.46-3.98-21.451-7.492c-4.767-3.354-9.27-6.521-18.386-6.521
				c-9.113,0-13.614,3.167-18.381,6.521c-4.991,3.512-10.648,7.493-21.452,7.493c-10.803,0-16.461-3.981-21.452-7.494
				c-4.765-3.353-9.266-6.52-18.377-6.52c-9.114,0-13.615,3.167-18.382,6.521c-4.99,3.512-10.647,7.493-21.448,7.493
				c-10.802,0-16.459-3.981-21.45-7.493c-4.765-3.354-9.267-6.521-18.379-6.521c-9.113,0-13.614,3.167-18.379,6.521
				c-4.991,3.512-10.647,7.493-21.449,7.493c-10.802,0-16.458-3.981-21.449-7.494c-4.764-3.353-9.264-6.52-18.374-6.52
				c-9.11,0-13.611,3.167-18.375,6.52c-4.991,3.513-10.647,7.494-21.449,7.494c-10.799,0-16.455-3.981-21.444-7.493
				c-4.764-3.354-9.264-6.521-18.374-6.521c-1.474,0-2.668-1.195-2.668-2.669s1.195-2.669,2.668-2.669
				c10.8,0,16.456,3.981,21.446,7.494c4.764,3.353,9.263,6.52,18.372,6.52c9.112,0,13.612-3.167,18.377-6.521
				c4.99-3.512,10.646-7.493,21.447-7.493c10.799,0,16.455,3.981,21.445,7.493c4.765,3.354,9.266,6.521,18.377,6.521
				c9.111,0,13.612-3.167,18.377-6.52c4.991-3.513,10.648-7.494,21.451-7.494c10.802,0,16.459,3.981,21.451,7.493
				c4.765,3.354,9.266,6.521,18.378,6.521c9.111,0,13.612-3.167,18.377-6.52c4.992-3.513,10.649-7.494,21.453-7.494
				c10.801,0,16.458,3.981,21.448,7.493c4.766,3.354,9.268,6.521,18.381,6.521c9.114,0,13.615-3.167,18.382-6.521
				c4.991-3.512,10.648-7.493,21.451-7.493c10.806,0,16.464,3.981,21.457,7.494c4.766,3.353,9.268,6.52,18.38,6.52
				c1.474,0,2.669,1.195,2.669,2.669S380.698,305.796,379.225,305.796z"/>
		</g>
		<g clip-path="url(#SVGID_2_)">
			<path fill="#E3B8D3" d="M379.225,324.416c-10.802,0-16.46-3.98-21.451-7.492c-4.767-3.354-9.27-6.521-18.386-6.521
				c-9.113,0-13.614,3.167-18.381,6.52c-4.991,3.512-10.648,7.493-21.452,7.493c-10.803,0-16.461-3.981-21.452-7.493
				c-4.765-3.353-9.266-6.52-18.377-6.52c-9.114,0-13.616,3.167-18.382,6.521c-4.99,3.512-10.647,7.492-21.448,7.492
				c-10.802,0-16.459-3.98-21.45-7.493c-4.765-3.353-9.266-6.52-18.379-6.52s-13.614,3.167-18.379,6.52
				c-4.991,3.513-10.647,7.493-21.449,7.493c-10.802,0-16.458-3.981-21.449-7.493c-4.764-3.354-9.264-6.52-18.374-6.52
				c-9.11,0-13.611,3.167-18.375,6.52c-4.991,3.512-10.647,7.493-21.449,7.493c-10.799,0-16.454-3.981-21.444-7.493
				c-4.764-3.353-9.264-6.52-18.374-6.52c-1.474,0-2.668-1.195-2.668-2.669s1.195-2.669,2.668-2.669
				c10.8,0,16.456,3.981,21.446,7.493c4.764,3.354,9.263,6.52,18.372,6.52c9.112,0,13.613-3.167,18.377-6.52
				c4.99-3.513,10.646-7.493,21.447-7.493c10.799,0,16.455,3.98,21.445,7.492c4.765,3.354,9.265,6.521,18.377,6.521
				c9.111,0,13.612-3.167,18.377-6.52c4.991-3.512,10.648-7.493,21.451-7.493c10.802,0,16.459,3.981,21.451,7.493
				c4.765,3.353,9.266,6.52,18.378,6.52c9.111,0,13.612-3.166,18.377-6.52c4.992-3.512,10.649-7.493,21.453-7.493
				c10.801,0,16.458,3.98,21.448,7.492c4.766,3.354,9.268,6.521,18.381,6.521c9.114,0,13.615-3.167,18.382-6.52
				c4.991-3.513,10.648-7.493,21.451-7.493c10.806,0,16.464,3.981,21.457,7.493c4.766,3.354,9.268,6.52,18.38,6.52
				c1.474,0,2.669,1.195,2.669,2.669S380.698,324.416,379.225,324.416z"/>
		</g>
		<g clip-path="url(#SVGID_2_)">
			<path fill="#E3B8D3" d="M379.225,343.037c-10.802,0-16.46-3.98-21.451-7.492c-4.767-3.354-9.27-6.521-18.386-6.521
				c-9.113,0-13.614,3.167-18.381,6.521c-4.991,3.512-10.648,7.493-21.452,7.493c-10.803,0-16.461-3.981-21.452-7.494
				c-4.765-3.353-9.266-6.52-18.377-6.52c-9.114,0-13.615,3.167-18.382,6.521c-4.99,3.512-10.647,7.493-21.448,7.493
				c-10.802,0-16.459-3.981-21.45-7.493c-4.765-3.354-9.267-6.521-18.379-6.521c-9.113,0-13.614,3.167-18.379,6.521
				c-4.991,3.512-10.647,7.493-21.449,7.493c-10.802,0-16.458-3.981-21.449-7.494c-4.764-3.353-9.264-6.52-18.374-6.52
				c-9.11,0-13.611,3.167-18.375,6.52c-4.991,3.513-10.647,7.494-21.449,7.494c-10.799,0-16.455-3.981-21.444-7.493
				c-4.764-3.354-9.264-6.521-18.374-6.521c-1.474,0-2.668-1.195-2.668-2.669s1.195-2.669,2.668-2.669
				c10.8,0,16.456,3.981,21.446,7.494c4.764,3.353,9.263,6.52,18.372,6.52c9.112,0,13.612-3.167,18.377-6.521
				c4.99-3.512,10.646-7.493,21.447-7.493c10.799,0,16.455,3.981,21.445,7.493c4.765,3.354,9.266,6.521,18.377,6.521
				c9.111,0,13.612-3.167,18.377-6.52c4.991-3.513,10.648-7.494,21.451-7.494c10.802,0,16.459,3.981,21.451,7.493
				c4.765,3.354,9.266,6.521,18.378,6.521c9.111,0,13.612-3.167,18.377-6.52c4.992-3.513,10.649-7.494,21.453-7.494
				c10.801,0,16.458,3.981,21.448,7.493c4.766,3.354,9.268,6.521,18.381,6.521c9.114,0,13.615-3.167,18.382-6.521
				c4.991-3.512,10.648-7.493,21.451-7.493c10.806,0,16.464,3.981,21.457,7.494c4.766,3.353,9.268,6.52,18.38,6.52
				c1.474,0,2.669,1.195,2.669,2.669S380.698,343.037,379.225,343.037z"/>
		</g>
		<g clip-path="url(#SVGID_2_)">
			<path fill="#E3B8D3" d="M379.225,361.657c-10.802,0-16.46-3.98-21.451-7.492c-4.767-3.354-9.27-6.521-18.386-6.521
				c-9.113,0-13.614,3.167-18.381,6.52c-4.991,3.512-10.648,7.493-21.452,7.493c-10.803,0-16.461-3.981-21.452-7.493
				c-4.765-3.353-9.266-6.52-18.377-6.52c-9.114,0-13.616,3.167-18.382,6.521c-4.99,3.512-10.647,7.492-21.448,7.492
				c-10.802,0-16.459-3.98-21.45-7.493c-4.765-3.353-9.266-6.52-18.379-6.52s-13.614,3.167-18.379,6.521
				c-4.991,3.512-10.647,7.492-21.449,7.492c-10.802,0-16.458-3.981-21.449-7.493c-4.764-3.354-9.264-6.52-18.374-6.52
				c-9.11,0-13.611,3.167-18.375,6.52c-4.991,3.512-10.647,7.493-21.449,7.493c-10.799,0-16.454-3.98-21.444-7.493
				c-4.764-3.353-9.264-6.52-18.374-6.52c-1.474,0-2.668-1.195-2.668-2.669s1.195-2.669,2.668-2.669
				c10.8,0,16.456,3.981,21.446,7.493c4.764,3.353,9.263,6.52,18.372,6.52c9.112,0,13.613-3.167,18.377-6.52
				c4.99-3.513,10.646-7.493,21.447-7.493c10.799,0,16.455,3.98,21.445,7.492c4.765,3.354,9.265,6.521,18.377,6.521
				c9.111,0,13.612-3.167,18.377-6.52c4.991-3.512,10.648-7.493,21.451-7.493c10.802,0,16.459,3.981,21.451,7.493
				c4.765,3.353,9.266,6.52,18.378,6.52c9.111,0,13.612-3.166,18.377-6.52c4.992-3.512,10.649-7.493,21.453-7.493
				c10.801,0,16.458,3.98,21.448,7.492c4.766,3.354,9.268,6.521,18.381,6.521c9.114,0,13.615-3.167,18.382-6.52
				c4.991-3.513,10.648-7.493,21.451-7.493c10.806,0,16.464,3.981,21.457,7.493c4.766,3.354,9.268,6.52,18.38,6.52
				c1.474,0,2.669,1.195,2.669,2.669S380.698,361.657,379.225,361.657z"/>
		</g>
		<g clip-path="url(#SVGID_2_)">
			<path fill="#E3B8D3" d="M379.225,380.281c-10.802,0-16.46-3.981-21.451-7.494c-4.767-3.354-9.27-6.522-18.386-6.522
				c-9.113,0-13.614,3.168-18.38,6.521c-4.992,3.513-10.649,7.495-21.453,7.495c-1.474,0-2.669-1.195-2.669-2.669
				s1.195-2.669,2.669-2.669c9.113,0,13.615-3.168,18.381-6.521c4.992-3.513,10.649-7.495,21.452-7.495
				c10.806,0,16.465,3.982,21.457,7.495c4.766,3.354,9.268,6.521,18.38,6.521c1.474,0,2.669,1.195,2.669,2.669
				S380.698,380.281,379.225,380.281z"/>
		</g>
		<g clip-path="url(#SVGID_2_)">
			<path fill="#E3B8D3" d="M299.555,380.281c-10.804,0-16.461-3.982-21.452-7.495c-4.765-3.354-9.266-6.521-18.377-6.521
				c-9.114,0-13.615,3.168-18.382,6.522c-4.99,3.513-10.647,7.494-21.448,7.494c-1.474,0-2.669-1.195-2.669-2.669
				s1.195-2.669,2.669-2.669c9.111,0,13.612-3.167,18.377-6.521c4.991-3.513,10.649-7.495,21.453-7.495
				c10.801,0,16.458,3.981,21.449,7.495c4.766,3.354,9.267,6.521,18.38,6.521c1.474,0,2.669,1.195,2.669,2.669
				S301.029,380.281,299.555,380.281z"/>
		</g>
	</g>
</g>
</svg>
