<?xml version="1.0" encoding="utf-8"?>
<!-- Generator: Adobe Illustrator 16.0.0, SVG Export Plug-In . SVG Version: 6.00 Build 0)  -->
<!DOCTYPE svg PUBLIC "-//W3C//DTD SVG 1.1//EN" "http://www.w3.org/Graphics/SVG/1.1/DTD/svg11.dtd">
<svg version="1.1" id="Capa_1" xmlns="http://www.w3.org/2000/svg" xmlns:xlink="http://www.w3.org/1999/xlink" x="0px" y="0px"
	 width="400px" height="400px" viewBox="0 0 400 400" enable-background="new 0 0 400 400" xml:space="preserve">
<g id="Capa_1_1_" display="none">
	<g id="XMLID_1169_" display="inline">
		<g id="XMLID_1171_">
			<path fill="#FFFFFF" d="M199.894,233.936c-24.87,0-44.796-11.277-57.627-32.616c-6.393-10.632-9.483-21.189-10.849-27.17
				c-7.322-0.868-12.875-10.112-17.402-28.896c-3.642-15.116-3.129-25.362,1.567-31.325c1.613-2.047,3.468-3.244,5.172-3.938
				c-3.726-27.829-0.061-49.891,10.913-65.623c4.401-6.312,9.221-10.38,13.045-12.905c-6.396-6.964-6.787-15.261-6.803-15.697
				l-0.213-5.813l5.734,0.982c0.154,0.026,15.594,2.634,34.498,2.634c9.829,0,18.885-0.696,26.916-2.07
				c2.457-0.42,4.915-0.634,7.308-0.634c23.341,0,36.142,19.462,40.152,26.833c8.277,0.554,14.981,3.954,19.954,10.131
				c13.324,16.552,9.62,48.983,7.509,61.735c1.77,0.669,3.353,1.806,4.633,3.353c4.391,5.306,5.136,15.167,2.281,30.146
				c-3.636,19.087-9.771,28.932-18.24,29.272c-1.371,6.156-4.465,17.013-10.85,27.951
				C244.744,222.299,224.792,233.936,199.894,233.936z M138.693,157.81l1.14,10.115c0.02,0.138,2.094,14.619,10.688,28.779
				c11.188,18.434,27.799,27.778,49.373,27.778c21.653,0,38.319-9.745,49.538-28.965c8.559-14.664,10.58-29.397,10.601-29.546
				l1.235-9.349l6.284,6.17c0.095,0.041,0.253,0.095,0.433,0.095c1.475,0,6.039-3.88,9.414-21.599
				c3.164-16.604,0.588-21.308-0.277-22.354c-0.373-0.45-0.719-0.625-1.232-0.625c-0.13,0-0.236,0.013-0.303,0.023l-8.307,3.493
				l2.271-9.017c2.54-11.668,6.656-45.024-4.656-59.066c-3.623-4.495-8.543-6.681-15.043-6.681l-3.557,0.049l-1.263-2.866
				c-0.104-0.23-10.919-23.935-32.88-23.935c-1.858,0-3.78,0.167-5.713,0.498c-8.555,1.464-18.146,2.207-28.508,2.208
				c-11.894,0-22.315-0.964-28.868-1.755c1.185,2.367,3.188,4.996,6.565,6.944l9.258,5.341l-10.181,3.253
				c-0.051,0.018-8.541,2.972-15.678,13.544c-9.661,14.309-12.519,36-8.266,62.731l1.097,6.896l-6.395-1.462
				c-0.732,0.01-1.652,0.247-2.454,1.266c-1.246,1.581-3.719,7.013,0.196,23.263c4.126,17.121,8.084,20.848,9.171,21.574
				L138.693,157.81z"/>
		</g>
		<g id="XMLID_1170_">
			<path fill="#FFFFFF" d="M200.009,389.096c-0.013,0.001-0.01,0-0.023,0c-104.156-0.005-149.424-35.768-151.3-37.288l-1.123-0.912
				l-0.421-1.382c-5.74-18.86-3.42-38.166-3.318-38.979c4.797-37.976,31.248-50.27,50.562-59.245
				c1.119-0.521,2.224-1.034,3.31-1.544c19.647-9.247,45.426-24.452,45.685-24.604l5.085-3.005l30.971,95.857l8.057-19.248
				c-4.365-4.925-13.354-16.829-13.354-31.338c0-5.657,1.98-10.438,5.729-13.82c6.918-6.247,17.487-5.895,20.131-5.692
				c2.641-0.198,13.214-0.554,20.132,5.692c3.747,3.383,5.729,8.163,5.729,13.82c0,14.509-8.99,26.413-13.355,31.339l8.059,19.247
				l30.971-95.857l5.085,3.005c0.259,0.151,26.036,15.356,45.685,24.604c1.086,0.511,2.191,1.024,3.313,1.545
				c19.314,8.978,45.768,21.271,50.563,59.237c0.103,0.819,2.424,20.126-3.322,38.986l-0.422,1.382l-1.123,0.911
				C349.432,353.329,304.163,389.091,200.009,389.096L200.009,389.096z M55.756,345.29c7.458,5.307,52.518,34.35,144.242,34.354
				c91.703-0.004,136.764-29.036,144.24-34.354c4.613-16.503,2.58-33.407,2.56-33.583c-4.141-32.777-25.938-42.907-45.168-51.846
				c-1.135-0.526-2.253-1.047-3.354-1.564c-14.721-6.928-32.729-17.083-41.368-22.056l-35.203,108.959l-20.371-48.656l2.376-2.245
				c0.121-0.114,12.697-12.264,12.697-26.89c0-2.993-0.854-5.22-2.61-6.806c-3.757-3.393-11.065-3.494-13.328-3.263l-0.305-2.979
				l-0.153,3.006l-0.166-3.105l-0.315,3.08c-2.437-0.232-9.622-0.105-13.346,3.279c-1.744,1.585-2.592,3.805-2.592,6.788
				c0,14.626,12.577,26.774,12.704,26.896l2.356,2.244l-1.25,3.009l-19.109,45.643l-35.204-108.958
				c-8.639,4.972-26.647,15.127-41.369,22.055c-1.1,0.518-2.218,1.037-3.351,1.563c-19.23,8.938-41.026,19.067-45.167,51.854
				C53.182,311.878,51.169,328.852,55.756,345.29z"/>
		</g>
	</g>
</g>
<g id="XMLID_389_">
	<g id="XMLID_416_">
		<path fill="#FFFFFF" d="M28.198,384.095c-3.815,0-7.445-1.594-10.222-4.487c-5.479-5.707-5.481-13.866-0.006-19.843
			c1.519-1.662,3.108-3.222,4.645-4.73c1.822-1.79,3.549-3.485,5.099-5.276c0.016-0.063,0.029-0.138,0.038-0.205
			c-7.842-19.71-2.628-38.295,14.346-51.031c1.354-1.02,2.675-2.289,3.9-3.509l39.376-39.362
			c45.196-45.181,91.93-91.9,137.955-137.792c1.313-1.307,1.513-1.72,1.104-3.975c-1.037-5.768-1.547-11.652-2.039-17.344
			c-0.199-2.304-0.4-4.625-0.638-6.966c-0.226-2.229,0.977-4.36,3.002-5.32c2.023-0.959,4.436-0.542,6.019,1.045
			c28.295,28.347,55.836,55.934,83.065,83.194c1.353,1.355,1.87,3.336,1.351,5.18c-0.52,1.843-1.994,3.263-3.855,3.713
			c-2.582,0.624-5.393,0.94-8.354,0.94c-5.495,0-11.496-1.01-19.459-3.275c-0.675-0.191-1.062-0.231-1.267-0.231
			c-0.121,0-0.402,0-1.35,0.947c-40.269,40.371-81.262,81.377-120.905,121.034c-18.637,18.644-37.274,37.287-55.908,55.935
			c-1.318,1.318-2.533,2.89-3.649,4.392c-8.221,11.037-20.521,17.366-33.749,17.366c-6.125,0-12.107-1.357-17.782-4.035
			c-0.352-0.165-0.608-0.263-0.784-0.32c-0.134,0.123-0.324,0.31-0.577,0.594c-2.595,2.909-5.608,5.928-9.211,9.226
			C35.427,382.624,31.824,384.095,28.198,384.095z M233.646,103.169c0.314,2.999,0.691,5.932,1.212,8.832
			c1.003,5.534-0.208,9.531-4.05,13.359c-46.02,45.887-92.751,92.604-137.944,137.783l-39.383,39.368
			c-1.501,1.495-3.143,3.068-5.019,4.479c-13.322,9.996-17.033,23.468-10.739,38.965c1.293,3.195,0.534,7.769-1.728,10.418
			c-1.909,2.24-3.967,4.263-5.958,6.219c-1.503,1.475-2.922,2.869-4.253,4.325c-1.184,1.292-2.17,3.266-0.166,5.353
			c1.615,1.687,3.686,1.595,5.571-0.13c3.336-3.055,6.104-5.823,8.459-8.464c1.614-1.81,4.222-4.214,8.216-4.214
			c1.748,0,3.516,0.447,5.562,1.408c4.259,2.009,8.721,3.026,13.271,3.026c9.848,0,19.051-4.774,25.25-13.097
			c1.354-1.822,2.858-3.76,4.657-5.558c18.631-18.646,37.269-37.29,55.907-55.935c39.642-39.654,80.632-80.658,120.901-121.031
			c1.745-1.743,4.552-4.053,8.846-4.053c1.293,0,2.653,0.208,4.159,0.634c4.422,1.258,8.091,2.075,11.322,2.504
			C276.658,146.254,255.36,124.921,233.646,103.169z M209.603,213.034c-13.266,0-24.494-11.156-24.553-24.361
			c-0.025-6.533,2.539-12.719,7.222-17.42c4.676-4.694,10.838-7.279,17.349-7.279l0.26,0.001
			c13.241,0.139,24.34,11.441,24.234,24.681C234.021,202.075,223.025,213.015,209.603,213.034z M209.62,174.568
			c-3.673,0-7.169,1.478-9.842,4.162c-2.68,2.69-4.149,6.207-4.134,9.899c0.034,7.485,6.41,13.811,13.924,13.812
			c7.521-0.011,13.9-6.36,13.953-13.864c0.06-7.517-6.238-13.93-13.753-14.008L209.62,174.568z"/>
	</g>
	<g id="XMLID_415_">
		<path fill="#FFFFFF" d="M344.379,165.721c-3.66,0-6.26-2.195-7.898-3.846c-29.493-29.773-61.387-61.685-97.502-97.56
			c-4.741-4.706-5.091-9.546-1.072-14.795c16.295-21.3,38.582-32.924,64.453-33.614c0.062-0.001,0.121,0,0.188-0.001
			c37.805,0.329,69.182,22.825,79.935,57.312c10.388,33.338-2.04,69.405-30.924,89.75
			C349.619,164.33,347.254,165.721,344.379,165.721z M246.024,56.363c0.111,0.123,0.249,0.268,0.42,0.436
			c36.136,35.896,68.049,67.827,97.562,97.619c0.212,0.214,0.387,0.375,0.527,0.495c0.219-0.13,0.521-0.323,0.928-0.609
			c25.105-17.684,35.92-49.003,26.906-77.933c-9.348-29.979-36.746-49.546-69.819-49.87c-22.843,0.634-41.759,10.545-56.229,29.46
			C246.202,56.113,246.105,56.247,246.024,56.363z"/>
	</g>
</g>
<g id="XMLID_387_">
	<g id="XMLID_391_">
		<path fill="#FFFFFF" d="M369.779,386.129c-3.496,0-7.024-1.363-10.009-4.092c-1.654-1.517-3.201-3.093-4.696-4.616
			c-1.804-1.836-3.512-3.575-5.314-5.136c-0.063-0.016-0.133-0.029-0.197-0.038c-19.723,7.847-38.306,2.632-51.04-14.343
			c-1.013-1.354-2.282-2.671-3.503-3.895l-89.182-89.228c-2.068-2.068-2.066-5.422,0.004-7.49c2.068-2.068,5.422-2.067,7.49,0.003
			l89.182,89.227c1.5,1.503,3.083,3.151,4.488,5.034c9.985,13.309,23.457,17.02,38.954,10.725c3.178-1.299,7.761-0.547,10.418,1.719
			c2.255,1.924,4.29,3.995,6.259,6c1.465,1.492,2.849,2.901,4.292,4.226c1.283,1.173,3.264,2.159,5.354,0.151
			c1.671-1.608,1.623-3.638-0.139-5.564c-3.063-3.343-5.83-6.108-8.462-8.456c-4.473-3.99-5.36-8.373-2.793-13.793
			c6.465-13.723,2.412-29.202-10.089-38.511c-1.724-1.284-3.728-2.839-5.544-4.643c-25.514-25.491-51.007-50.98-76.5-76.47
			l-10.429-10.428c-2.069-2.068-2.069-5.422-0.001-7.49c2.069-2.07,5.424-2.071,7.491-0.002l10.43,10.428
			c25.491,25.488,50.983,50.978,76.483,76.456c1.332,1.321,2.902,2.538,4.399,3.652c16.395,12.208,21.881,33.399,13.338,51.53
			c-0.168,0.354-0.268,0.612-0.327,0.789c0.123,0.134,0.311,0.323,0.592,0.574c2.899,2.586,5.918,5.599,9.226,9.21
			c5.649,6.173,5.506,14.734-0.337,20.357C376.759,384.759,373.285,386.129,369.779,386.129z M137.123,193.786
			c-1.358,0-2.716-0.519-3.751-1.557l-15.511-15.553c-1.309-1.311-1.723-1.512-3.989-1.104c-5.725,1.029-11.571,1.536-17.225,2.025
			c-2.338,0.202-4.693,0.406-7.068,0.648c-2.229,0.229-4.362-0.974-5.323-2.999c-0.961-2.025-0.543-4.436,1.043-6.02l83.196-83.067
			c1.354-1.352,3.331-1.869,5.179-1.35c1.843,0.52,3.263,1.994,3.712,3.855c2.256,9.341,0.086,19.304-2.335,27.817
			c-0.406,1.422-0.422,1.478,0.711,2.608c5.488,5.472,10.979,10.952,16.464,16.426c2.07,2.067,2.087,5.435,0.021,7.505
			c-2.066,2.071-5.407,2.088-7.477,0.021c-5.512-5.502-11.001-10.98-16.49-16.453c-3.839-3.833-4.892-7.845-3.417-13.012
			c0.976-3.435,1.971-7.361,2.492-11.31l-64.185,64.084c2.998-0.314,5.928-0.688,8.828-1.209c5.539-0.996,9.536,0.215,13.361,4.047
			l15.516,15.558c2.065,2.071,2.06,5.425-0.012,7.491C139.829,193.271,138.475,193.786,137.123,193.786z"/>
	</g>
	<g id="XMLID_390_">
		<path fill="#FFFFFF" d="M56.496,164.867c-3.014,0-5.427-1.581-6.98-2.77c-21.302-16.3-32.925-38.587-33.609-64.449
			c-0.001-0.063-0.002-0.125-0.001-0.187c0.329-37.814,22.823-69.193,57.307-79.941c7.749-2.415,15.761-3.638,23.812-3.638
			c26.048,0,50.698,12.922,65.938,34.567c2.702,3.837,5.021,9.019-1.09,15.069c-29.436,29.161-61.347,61.054-97.557,97.5
			C62.672,162.672,60.075,164.867,56.496,164.867z M26.5,97.461c0.629,22.834,10.539,41.75,29.455,56.224
			c0.152,0.116,0.285,0.213,0.4,0.293c0.125-0.113,0.273-0.253,0.446-0.427c36.228-36.464,68.159-68.376,97.615-97.558
			c0.211-0.209,0.37-0.381,0.489-0.52c-0.129-0.219-0.322-0.519-0.606-0.923c-13.258-18.831-34.67-30.073-57.276-30.073
			c-6.982,0-13.933,1.063-20.66,3.159C46.388,36.978,26.823,64.379,26.5,97.461z"/>
	</g>
</g>
</svg>
