<?xml version="1.0" encoding="utf-8"?>
<!-- Generator: Adobe Illustrator 16.0.0, SVG Export Plug-In . SVG Version: 6.00 Build 0)  -->
<!DOCTYPE svg PUBLIC "-//W3C//DTD SVG 1.1//EN" "http://www.w3.org/Graphics/SVG/1.1/DTD/svg11.dtd">
<svg version="1.1" id="Capa_1" xmlns="http://www.w3.org/2000/svg" xmlns:xlink="http://www.w3.org/1999/xlink" x="0px" y="0px"
	 width="400px" height="400px" viewBox="0 0 400 400" enable-background="new 0 0 400 400" xml:space="preserve">
<g id="Capa_1_1_" display="none">
	<g id="XMLID_1169_" display="inline">
		<g id="XMLID_1171_">
			<path fill="#FFFFFF" d="M199.894,233.936c-24.87,0-44.796-11.276-57.627-32.615c-6.393-10.632-9.482-21.189-10.849-27.17
				c-7.322-0.868-12.875-10.112-17.402-28.896c-3.642-15.116-3.129-25.362,1.567-31.325c1.612-2.047,3.468-3.244,5.172-3.938
				c-3.727-27.829-0.062-49.891,10.913-65.623c4.4-6.312,9.221-10.38,13.045-12.905c-6.396-6.964-6.787-15.261-6.803-15.697
				l-0.214-5.813l5.734,0.982c0.154,0.026,15.594,2.634,34.498,2.634c9.829,0,18.885-0.696,26.916-2.07
				c2.457-0.42,4.915-0.634,7.308-0.634c23.342,0,36.143,19.462,40.152,26.833c8.277,0.554,14.981,3.954,19.954,10.131
				c13.324,16.552,9.62,48.983,7.509,61.735c1.771,0.669,3.354,1.806,4.633,3.353c4.392,5.306,5.137,15.167,2.281,30.146
				c-3.636,19.087-9.771,28.932-18.24,29.272c-1.371,6.156-4.465,17.013-10.85,27.951
				C244.744,222.299,224.792,233.936,199.894,233.936z M138.693,157.81l1.141,10.115c0.02,0.138,2.094,14.619,10.688,28.779
				c11.188,18.435,27.799,27.778,49.373,27.778c21.653,0,38.319-9.746,49.538-28.965c8.56-14.664,10.58-29.397,10.602-29.546
				l1.234-9.349l6.284,6.17c0.095,0.041,0.253,0.095,0.433,0.095c1.476,0,6.039-3.88,9.414-21.599
				c3.164-16.604,0.588-21.308-0.276-22.354c-0.373-0.45-0.72-0.625-1.232-0.625c-0.13,0-0.236,0.013-0.303,0.023l-8.308,3.493
				l2.271-9.017c2.54-11.668,6.656-45.024-4.656-59.066c-3.623-4.495-8.543-6.681-15.043-6.681l-3.557,0.049l-1.264-2.866
				c-0.104-0.23-10.919-23.935-32.88-23.935c-1.857,0-3.779,0.167-5.713,0.498c-8.555,1.464-18.146,2.207-28.508,2.208
				c-11.894,0-22.315-0.964-28.868-1.755c1.186,2.367,3.188,4.996,6.565,6.944l9.258,5.341l-10.181,3.253
				c-0.052,0.018-8.541,2.972-15.679,13.544c-9.661,14.309-12.519,36-8.266,62.731l1.097,6.896l-6.395-1.462
				c-0.732,0.01-1.652,0.247-2.454,1.266c-1.246,1.581-3.719,7.013,0.196,23.263c4.126,17.121,8.084,20.848,9.171,21.574
				L138.693,157.81z"/>
		</g>
		<g id="XMLID_1170_">
			<path fill="#FFFFFF" d="M200.009,389.096c-0.013,0.002-0.01,0-0.023,0c-104.155-0.005-149.424-35.768-151.3-37.287l-1.123-0.912
				l-0.421-1.383c-5.74-18.859-3.42-38.166-3.317-38.979c4.797-37.977,31.247-50.27,50.562-59.245
				c1.119-0.521,2.224-1.034,3.31-1.544c19.647-9.247,45.427-24.452,45.686-24.604l5.085-3.006l30.971,95.857l8.058-19.248
				c-4.365-4.925-13.354-16.829-13.354-31.338c0-5.657,1.98-10.438,5.729-13.82c6.918-6.247,17.486-5.895,20.131-5.691
				c2.641-0.198,13.214-0.555,20.132,5.691c3.747,3.383,5.729,8.163,5.729,13.82c0,14.509-8.989,26.412-13.354,31.339l8.059,19.247
				l30.972-95.857l5.085,3.006c0.259,0.15,26.036,15.355,45.685,24.604c1.086,0.511,2.19,1.023,3.313,1.545
				c19.314,8.979,45.769,21.271,50.563,59.236c0.103,0.82,2.424,20.127-3.322,38.986l-0.422,1.383l-1.123,0.91
				C349.432,353.329,304.162,389.091,200.009,389.096L200.009,389.096z M55.756,345.29c7.458,5.308,52.518,34.351,144.242,34.354
				c91.703-0.004,136.764-29.037,144.239-34.354c4.613-16.503,2.58-33.407,2.561-33.583c-4.142-32.777-25.938-42.907-45.168-51.846
				c-1.136-0.526-2.253-1.047-3.354-1.564c-14.721-6.928-32.729-17.083-41.367-22.056L221.705,345.2l-20.371-48.656l2.376-2.245
				c0.121-0.113,12.697-12.264,12.697-26.89c0-2.993-0.854-5.22-2.61-6.806c-3.757-3.394-11.065-3.494-13.328-3.264l-0.305-2.979
				l-0.153,3.006l-0.166-3.105l-0.315,3.08c-2.437-0.232-9.621-0.105-13.346,3.279c-1.744,1.585-2.592,3.805-2.592,6.788
				c0,14.626,12.577,26.774,12.704,26.896l2.355,2.244l-1.25,3.01l-19.108,45.643l-35.204-108.958
				c-8.639,4.972-26.647,15.127-41.369,22.055c-1.1,0.519-2.218,1.037-3.351,1.563c-19.23,8.938-41.026,19.066-45.167,51.854
				C53.182,311.878,51.169,328.852,55.756,345.29z"/>
		</g>
	</g>
</g>
<g id="XMLID_389_">
	<g id="XMLID_416_">
		<path fill="#FFFFFF" d="M58.774,351.33c-3.136,0-6.12-1.311-8.402-3.689c-4.503-4.691-4.505-11.397-0.005-16.31
			c1.248-1.367,2.555-2.649,3.818-3.889c1.498-1.472,2.917-2.865,4.191-4.338c0.013-0.052,0.024-0.113,0.031-0.167
			c-6.446-16.203-2.16-31.48,11.792-41.949c1.113-0.839,2.199-1.881,3.206-2.885l32.368-32.355
			c37.151-37.14,75.567-75.543,113.401-113.268c1.078-1.074,1.243-1.414,0.907-3.268c-0.853-4.741-1.272-9.578-1.677-14.257
			c-0.163-1.894-0.328-3.802-0.524-5.726c-0.186-1.832,0.803-3.584,2.468-4.373c1.663-0.789,3.646-0.446,4.947,0.859
			c23.259,23.302,45.898,45.979,68.281,68.387c1.112,1.114,1.537,2.742,1.11,4.258c-0.427,1.515-1.64,2.683-3.169,3.052
			c-2.122,0.513-4.434,0.773-6.867,0.773c-4.517,0-9.45-0.831-15.995-2.692c-0.555-0.157-0.873-0.19-1.041-0.19
			c-0.1,0-0.331,0-1.11,0.779c-33.102,33.186-66.799,66.893-99.385,99.491c-15.32,15.325-30.64,30.65-45.958,45.979
			c-1.083,1.083-2.083,2.376-3,3.61c-6.757,9.072-16.868,14.275-27.742,14.275c-5.035,0-9.952-1.115-14.616-3.317
			c-0.29-0.136-0.5-0.216-0.645-0.262c-0.11,0.101-0.267,0.254-0.475,0.487c-2.133,2.391-4.61,4.873-7.571,7.584
			C64.716,350.12,61.755,351.33,58.774,351.33z M227.655,120.404c0.259,2.465,0.568,4.876,0.997,7.26
			c0.824,4.549-0.172,7.835-3.329,10.981c-37.829,37.72-76.243,76.122-113.393,113.26l-32.373,32.361
			c-1.234,1.229-2.583,2.521-4.125,3.682c-10.951,8.217-14.001,19.291-8.828,32.03c1.063,2.626,0.439,6.387-1.42,8.563
			c-1.569,1.842-3.261,3.505-4.897,5.111c-1.235,1.213-2.402,2.359-3.496,3.556c-0.974,1.063-1.784,2.686-0.136,4.4
			c1.327,1.387,3.029,1.312,4.579-0.106c2.742-2.512,5.018-4.787,6.954-6.958c1.327-1.487,3.471-3.464,6.753-3.464
			c1.437,0,2.891,0.367,4.573,1.157c3.5,1.651,7.168,2.488,10.908,2.488c8.096,0,15.661-3.925,20.756-10.767
			c1.114-1.498,2.35-3.091,3.829-4.568c15.314-15.327,30.636-30.653,45.957-45.979c32.586-32.597,66.28-66.302,99.383-99.49
			c1.434-1.433,3.741-3.332,7.271-3.332c1.063,0,2.181,0.171,3.418,0.521c3.636,1.035,6.651,1.706,9.307,2.059
			C263.012,155.821,245.504,138.285,227.655,120.404z M207.891,210.715c-10.904,0-20.134-9.17-20.182-20.025
			c-0.021-5.37,2.087-10.455,5.936-14.319c3.844-3.858,8.909-5.983,14.262-5.983l0.214,0.001
			c10.884,0.114,20.008,9.404,19.92,20.288C227.963,201.707,218.924,210.7,207.891,210.715z M207.906,179.095
			c-3.02,0-5.893,1.215-8.091,3.421c-2.203,2.211-3.41,5.103-3.398,8.137c0.028,6.153,5.269,11.352,11.446,11.354
			c6.183-0.01,11.426-5.229,11.47-11.396c0.05-6.179-5.127-11.451-11.306-11.515L207.906,179.095z"/>
	</g>
	<g id="XMLID_415_">
		<path fill="#FFFFFF" d="M318.679,171.823c-3.008,0-5.146-1.805-6.492-3.162c-24.244-24.474-50.461-50.706-80.148-80.196
			c-3.896-3.868-4.185-7.847-0.881-12.162c13.396-17.509,31.715-27.064,52.981-27.631c0.051-0.001,0.1,0,0.154-0.001
			c31.076,0.27,56.869,18.762,65.708,47.111c8.539,27.405-1.677,57.052-25.42,73.776
			C322.987,170.68,321.043,171.823,318.679,171.823z M237.829,81.929c0.092,0.101,0.205,0.22,0.346,0.358
			c29.705,29.507,55.938,55.755,80.197,80.244c0.175,0.176,0.318,0.309,0.434,0.407c0.181-0.107,0.429-0.266,0.763-0.5
			c20.637-14.537,29.527-40.282,22.117-64.063c-7.685-24.643-30.206-40.727-57.393-40.994c-18.776,0.521-34.326,8.668-46.221,24.216
			C237.977,81.724,237.897,81.834,237.829,81.929z"/>
	</g>
</g>
<g id="XMLID_387_">
	<g id="XMLID_391_">
		<path fill="#FFFFFF" d="M339.558,353.002c-2.874,0-5.773-1.121-8.228-3.364c-1.359-1.247-2.631-2.543-3.86-3.794
			c-1.482-1.51-2.887-2.939-4.367-4.222c-0.053-0.013-0.109-0.024-0.162-0.031c-16.213,6.45-31.488,2.163-41.956-11.79
			c-0.832-1.113-1.876-2.196-2.879-3.202l-73.309-73.347c-1.7-1.7-1.699-4.457,0.003-6.157c1.7-1.7,4.457-1.698,6.157,0.003
			l73.309,73.346c1.232,1.235,2.534,2.59,3.689,4.138c8.207,10.94,19.281,13.991,32.02,8.816c2.613-1.068,6.381-0.45,8.563,1.413
			c1.854,1.581,3.527,3.284,5.146,4.932c1.204,1.227,2.341,2.386,3.527,3.474c1.055,0.965,2.683,1.775,4.401,0.125
			c1.373-1.322,1.334-2.99-0.114-4.573c-2.519-2.749-4.793-5.021-6.956-6.952c-3.678-3.279-4.406-6.883-2.296-11.338
			c5.314-11.28,1.983-24.004-8.293-31.655c-1.418-1.057-3.065-2.335-4.558-3.817c-20.973-20.954-41.928-41.906-62.884-62.859
			l-8.573-8.571c-1.7-1.7-1.7-4.458-0.001-6.157c1.701-1.702,4.459-1.703,6.158-0.002l8.574,8.572
			c20.953,20.951,41.908,41.904,62.869,62.847c1.095,1.087,2.386,2.087,3.616,3.002c13.477,10.036,17.986,27.455,10.964,42.359
			c-0.138,0.291-0.221,0.503-0.269,0.648c0.102,0.109,0.256,0.266,0.486,0.472c2.384,2.126,4.865,4.603,7.584,7.571
			c4.644,5.074,4.526,12.111-0.277,16.733C345.296,351.875,342.44,353.002,339.558,353.002z M148.312,194.893
			c-1.117,0-2.232-0.427-3.083-1.28l-12.751-12.785c-1.076-1.077-1.416-1.243-3.278-0.908c-4.707,0.846-9.512,1.263-14.16,1.665
			c-1.922,0.166-3.857,0.333-5.81,0.533c-1.833,0.188-3.586-0.801-4.375-2.465c-0.79-1.665-0.446-3.646,0.857-4.949l68.389-68.282
			c1.113-1.112,2.738-1.537,4.257-1.11c1.515,0.427,2.682,1.639,3.051,3.169c1.854,7.678,0.071,15.868-1.919,22.866
			c-0.334,1.169-0.347,1.215,0.584,2.144c4.512,4.499,9.025,9.003,13.534,13.503c1.702,1.699,1.715,4.467,0.018,6.169
			c-1.699,1.702-4.445,1.716-6.146,0.017c-4.531-4.522-9.043-9.025-13.555-13.524c-3.156-3.151-4.021-6.449-2.809-10.696
			c0.803-2.824,1.621-6.051,2.049-9.297l-52.761,52.678c2.464-0.258,4.873-0.565,7.257-0.994c4.553-0.819,7.839,0.176,10.982,3.326
			l12.755,12.789c1.697,1.702,1.693,4.459-0.01,6.158C150.536,194.47,149.423,194.893,148.312,194.893z"/>
	</g>
	<g id="XMLID_390_">
		<path fill="#FFFFFF" d="M82.035,171.121c-2.478,0-4.461-1.299-5.738-2.277c-17.51-13.399-27.065-31.719-27.626-52.978
			c-0.002-0.052-0.002-0.103-0.002-0.154C48.94,84.629,67.43,58.835,95.777,50c6.37-1.985,12.956-2.991,19.573-2.991
			c21.412,0,41.675,10.622,54.203,28.415c2.221,3.154,4.127,7.414-0.896,12.387c-24.197,23.971-50.429,50.187-80.194,80.146
			C87.112,169.317,84.978,171.121,82.035,171.121z M57.378,115.712c0.517,18.77,8.664,34.319,24.213,46.217
			c0.124,0.095,0.234,0.175,0.328,0.241c0.103-0.093,0.225-0.208,0.367-0.352c29.78-29.974,56.028-56.206,80.241-80.194
			c0.173-0.171,0.304-0.313,0.401-0.427c-0.106-0.18-0.264-0.427-0.498-0.759c-10.898-15.479-28.499-24.72-47.082-24.72
			c-5.739,0-11.453,0.874-16.983,2.596C73.726,65.995,57.643,88.519,57.378,115.712z"/>
	</g>
</g>
</svg>
