<svg xmlns="http://www.w3.org/2000/svg" width="400" height="400"><path d="M58.774 351.33c-3.136 0-6.12-1.31-8.402-3.69-4.503-4.69-4.505-11.397-.005-16.3 1.248-1.367 2.555-2.65 3.818-3.89l4.19-4.338c.013-.052.024-.113.03-.167-6.446-16.203-2.16-31.48 11.792-41.95 1.113-.84 2.2-1.88 3.206-2.885l145.77-145.623c1.078-1.074 1.243-1.414.907-3.268-.853-4.74-1.272-9.578-1.677-14.257l-.524-5.726c-.186-1.832.803-3.584 2.468-4.373s3.646-.446 4.947.86l68.28 68.387c1.112 1.114 1.537 2.742 1.1 4.258s-1.64 2.683-3.17 3.052c-2.122.513-4.434.773-6.867.773-4.517 0-9.45-.83-15.995-2.692-.555-.157-.873-.2-1.04-.2-.1 0-.33 0-1.1.78L121.16 325.552c-1.083 1.083-2.083 2.376-3 3.6-6.757 9.072-16.868 14.275-27.742 14.275-5.035 0-9.952-1.115-14.616-3.317a5.43 5.43 0 0 0-.645-.262c-.1.1-.267.254-.475.487-2.133 2.39-4.6 4.873-7.57 7.584-2.396 2.19-5.357 3.4-8.338 3.4zm168.88-230.926l.997 7.26c.824 4.55-.172 7.835-3.33 10.98L79.557 284.266c-1.234 1.23-2.583 2.52-4.125 3.682-10.95 8.217-14 19.29-8.828 32.03 1.063 2.626.44 6.387-1.42 8.563-1.57 1.842-3.26 3.505-4.897 5.11l-3.496 3.556c-.974 1.063-1.784 2.686-.136 4.4 1.327 1.387 3.03 1.312 4.58-.106 2.742-2.512 5.018-4.787 6.954-6.958 1.327-1.487 3.47-3.464 6.753-3.464 1.437 0 2.89.367 4.573 1.157 3.5 1.65 7.168 2.488 10.908 2.488 8.096 0 15.66-3.925 20.756-10.767 1.114-1.498 2.35-3.09 3.83-4.568l145.34-145.47c1.434-1.433 3.74-3.332 7.27-3.332 1.063 0 2.18.17 3.418.52 3.636 1.035 6.65 1.706 9.307 2.06l-52.688-52.765zm-19.764 90.31c-10.904 0-20.134-9.17-20.182-20.025-.02-5.37 2.087-10.455 5.936-14.32 3.844-3.858 8.91-5.983 14.262-5.983l.214.001c10.884.114 20.008 9.404 19.92 20.288-.078 11.03-9.117 20.023-20.15 20.038zm.015-31.62c-3.02 0-5.893 1.215-8.09 3.42-2.203 2.21-3.4 5.103-3.398 8.137.028 6.153 5.27 11.352 11.446 11.354 6.183-.01 11.426-5.23 11.47-11.396.05-6.18-5.127-11.45-11.306-11.515l-.12-.001zm110.773-7.272c-3.008 0-5.146-1.805-6.492-3.162L232.04 88.465c-3.896-3.868-4.185-7.847-.88-12.162 13.396-17.51 31.715-27.064 52.98-27.63l.154-.001c31.076.27 56.87 18.762 65.708 47.11 8.54 27.405-1.677 57.052-25.42 73.776-1.594 1.122-3.538 2.265-5.902 2.265zM237.83 81.93l.346.358 80.197 80.244a7.13 7.13 0 0 0 .434.407c.18-.107.43-.266.763-.5 20.637-14.537 29.527-40.282 22.117-64.063C334 73.732 311.48 57.648 284.293 57.38c-18.776.52-34.326 8.668-46.22 24.216l-.243.332zm101.73 271.073c-2.874 0-5.773-1.12-8.228-3.364l-3.86-3.794-4.367-4.222a1.58 1.58 0 0 0-.162-.031c-16.213 6.45-31.488 2.163-41.956-11.8-.832-1.113-1.876-2.196-2.88-3.202l-73.31-73.347c-1.7-1.7-1.7-4.457.003-6.157s4.457-1.698 6.157.003l73.31 73.346c1.232 1.235 2.534 2.6 3.69 4.138 8.207 10.94 19.28 13.99 32.02 8.816 2.613-1.068 6.38-.45 8.563 1.413 1.854 1.58 3.527 3.284 5.146 4.932l3.527 3.474c1.055.965 2.683 1.775 4.4.125 1.373-1.322 1.334-3-.114-4.573-2.52-2.75-4.793-5.02-6.956-6.952-3.678-3.28-4.406-6.883-2.296-11.338 5.314-11.28 1.983-24.004-8.293-31.655-1.418-1.057-3.065-2.335-4.558-3.817l-71.457-71.43c-1.7-1.7-1.7-4.458-.001-6.157s4.46-1.703 6.158-.002l71.443 71.42c1.095 1.087 2.386 2.087 3.616 3.002 13.477 10.036 17.986 27.455 10.964 42.36-.138.29-.22.503-.27.648.102.11.256.266.486.472 2.384 2.126 4.865 4.603 7.584 7.57 4.644 5.074 4.526 12.11-.277 16.733-2.346 2.253-5.202 3.38-8.084 3.38zm-191.246-158.11a4.34 4.34 0 0 1-3.083-1.28l-12.75-12.785c-1.076-1.077-1.416-1.243-3.278-.908-4.707.846-9.512 1.263-14.16 1.665l-5.8.533c-1.833.188-3.586-.8-4.375-2.465s-.446-3.646.857-4.95l68.39-68.282a4.35 4.35 0 0 1 4.257-1.11c1.515.427 2.682 1.64 3.05 3.17 1.854 7.678.07 15.868-1.92 22.866-.334 1.17-.347 1.215.584 2.144l13.534 13.503a4.37 4.37 0 0 1 .018 6.169 4.34 4.34 0 0 1-6.146.017l-13.555-13.524c-3.156-3.15-4.02-6.45-2.81-10.696.803-2.824 1.62-6.05 2.05-9.297l-52.76 52.678 7.257-.994c4.553-.82 7.84.176 10.982 3.326l12.755 12.79c1.697 1.702 1.693 4.46-.01 6.158a4.34 4.34 0 0 1-3.076 1.273zM82.035 171.12c-2.478 0-4.46-1.3-5.738-2.277-17.5-13.4-27.065-31.72-27.626-52.978V115.712C48.94 84.63 67.43 58.835 95.777 50c6.37-1.985 12.956-2.99 19.573-2.99 21.412 0 41.675 10.622 54.203 28.415 2.22 3.154 4.127 7.414-.896 12.387l-80.194 80.146c-1.35 1.36-3.485 3.164-6.428 3.164zm-24.657-55.41c.517 18.77 8.664 34.32 24.213 46.217l.328.24.367-.352 80.24-80.194c.173-.17.304-.313.4-.427-.106-.18-.264-.427-.498-.76-10.898-15.48-28.5-24.72-47.082-24.72-5.74 0-11.453.874-16.983 2.596-24.64 7.68-40.722 30.205-40.987 57.398z" fill="#fff"/></svg>