<svg xmlns="http://www.w3.org/2000/svg" width="400" height="400"><g stroke-miterlimit="10" stroke-linejoin="round" stroke-linecap="round" stroke-width="2" stroke="#B61351" fill="none"><path d="M1542.627 505.88c-1.977 0-3.797.653-5.27 1.746-1.688-4.475-5.998-7.663-11.063-7.663a11.83 11.83 0 0 0-11.785 10.882c-.52-.136-1.066-.215-1.63-.215a6.5 6.5 0 1 0 0 13 6.49 6.49 0 0 0 5.504-3.054c2.098 1.893 4.865 3.054 7.912 3.054 1.87 0 3.635-.446 5.21-1.22v5.345a4.25 4.25 0 1 0 8.5 0v-4.52a8.85 8.85 0 0 0 2.625.396 8.88 8.88 0 0 0 8.875-8.875 8.88 8.88 0 0 0-8.875-8.875zm4.375 16.59v37.597a6.21 6.21 0 0 1-6.188 6.188h-23.125a6.21 6.21 0 0 1-6.188-6.188v-36.585m42.44 31.647h-6.94v-24.25h6.94a3.56 3.56 0 0 1 3.561 3.56v17.13c-.001 1.966-1.595 3.56-3.56 3.56zm-33.44-16.625v18.625"/><path d="M1528.94 538.505v18.625m7.687-18.625v18.625"/></g><g fill="#fff"><path d="M221.436 199.414c-16.276 0-29.518-13.24-29.518-29.517V148.3a71.03 71.03 0 0 1-23.659 4.028c-15.755 0-30.983-5.173-43.5-14.676-7.956 9.286-19.5 14.676-31.935 14.676-23.25 0-42.167-18.916-42.167-42.167s18.916-42.167 42.167-42.167a40.38 40.38 0 0 1 4.321.235c2.612-15.662 10.316-30.025 22.076-40.952A71.82 71.82 0 0 1 168.259 8.02c27.492 0 52.686 15.97 64.703 40.38 8.27-4.672 17.527-7.115 27.126-7.115 30.614 0 55.52 24.906 55.52 55.52s-24.906 55.52-55.52 55.52c-3.077 0-6.13-.25-9.136-.75v18.32c0 16.276-13.24 29.517-29.516 29.517zm-23.896-65.188a5.61 5.61 0 0 1 2.972.85 5.62 5.62 0 0 1 2.65 4.772v30.05c0 10.076 8.197 18.273 18.273 18.273s18.272-8.197 18.272-18.273V144.48a5.62 5.62 0 0 1 7.288-5.369 44.13 44.13 0 0 0 13.092 1.971c24.414 0 44.276-19.862 44.276-44.275S284.5 52.532 260.087 52.532c-9.508 0-18.6 3.013-26.3 8.712-1.417 1.05-3.244 1.374-4.935.876s-3.052-1.76-3.674-3.4c-8.897-23.594-31.776-39.446-56.93-39.446-31.507 0-58.152 24.6-60.66 56.006a5.62 5.62 0 0 1-7.021 4.993c-2.617-.68-5.225-1.027-7.752-1.027-17.05 0-30.923 13.872-30.923 30.923s13.872 30.923 30.923 30.923c10.68 0 20.467-5.435 26.183-14.537a5.62 5.62 0 0 1 3.988-2.579c1.644-.228 3.307.282 4.54 1.395 11.237 10.138 25.7 15.72 40.724 15.72 9.307 0 18.324-2.113 26.8-6.28.785-.384 1.634-.575 2.48-.575z"/><path d="M249.898 391.98H119.883c-22.282 0-40.4-18.128-40.4-40.4V145.876c0-3.105 2.517-5.622 5.622-5.622s5.622 2.517 5.622 5.622V351.57c0 16.082 13.084 29.166 29.166 29.166h130.015c16.082 0 29.166-13.084 29.166-29.166V140.188c0-3.105 2.517-5.622 5.622-5.622s5.622 2.517 5.622 5.622V351.57c0 22.283-18.128 40.4-40.4 40.4z"/><path d="M323.7 329.433h-39.016c-3.105 0-5.622-2.517-5.622-5.622V187.467c0-3.105 2.517-5.622 5.622-5.622H323.7c14.14 0 25.64 11.498 25.64 25.632v96.315c0 14.14-11.502 25.64-25.64 25.64zm-33.393-11.245h33.394c7.938 0 14.396-6.458 14.396-14.396v-96.315c0-7.933-6.458-14.388-14.396-14.388h-33.394v125.1zm-154.612 22.49c-3.105 0-5.622-2.517-5.622-5.622V230.34c0-3.105 2.517-5.622 5.622-5.622s5.622 2.517 5.622 5.622v104.715c0 3.105-2.517 5.622-5.622 5.622zm47.438 0c-3.105 0-5.622-2.517-5.622-5.622V230.34c0-3.105 2.517-5.622 5.622-5.622s5.622 2.517 5.622 5.622v104.715c0 3.105-2.517 5.622-5.622 5.622zm43.22 0c-3.105 0-5.622-2.517-5.622-5.622V230.34c0-3.105 2.517-5.622 5.622-5.622s5.622 2.517 5.622 5.622v104.715c0 3.105-2.517 5.622-5.622 5.622z"/></g></svg>