<?xml version="1.0" encoding="utf-8"?>
<!-- Generator: Adobe Illustrator 16.0.0, SVG Export Plug-In . SVG Version: 6.00 Build 0)  -->
<!DOCTYPE svg PUBLIC "-//W3C//DTD SVG 1.1//EN" "http://www.w3.org/Graphics/SVG/1.1/DTD/svg11.dtd">
<svg version="1.1" id="Capa_1" xmlns="http://www.w3.org/2000/svg" xmlns:xlink="http://www.w3.org/1999/xlink" x="0px" y="0px"
	 width="400px" height="400px" viewBox="0 0 400 400" enable-background="new 0 0 400 400" xml:space="preserve">
<g id="Capa_1_1_" display="none">
	<g id="XMLID_1169_" display="inline">
		<g id="XMLID_1171_">
			<path fill="#FFFFFF" d="M199.894,233.936c-24.87,0-44.796-11.276-57.627-32.615c-6.393-10.632-9.482-21.189-10.849-27.17
				c-7.322-0.868-12.875-10.112-17.402-28.896c-3.642-15.116-3.129-25.362,1.567-31.325c1.612-2.047,3.468-3.244,5.172-3.938
				c-3.727-27.829-0.062-49.891,10.913-65.623c4.4-6.312,9.221-10.38,13.045-12.905c-6.396-6.964-6.787-15.261-6.803-15.697
				l-0.214-5.813l5.734,0.982c0.154,0.026,15.594,2.634,34.498,2.634c9.829,0,18.885-0.696,26.916-2.07
				c2.457-0.42,4.915-0.634,7.308-0.634c23.342,0,36.143,19.462,40.152,26.833c8.277,0.554,14.981,3.954,19.954,10.131
				c13.324,16.552,9.62,48.983,7.509,61.735c1.771,0.669,3.354,1.806,4.633,3.353c4.392,5.306,5.137,15.167,2.281,30.146
				c-3.636,19.087-9.771,28.932-18.24,29.272c-1.371,6.156-4.465,17.013-10.85,27.951
				C244.744,222.299,224.792,233.936,199.894,233.936z M138.693,157.81l1.141,10.115c0.02,0.138,2.094,14.619,10.688,28.779
				c11.188,18.435,27.799,27.778,49.373,27.778c21.653,0,38.319-9.746,49.538-28.965c8.56-14.664,10.58-29.397,10.602-29.546
				l1.234-9.349l6.284,6.17c0.095,0.041,0.253,0.095,0.433,0.095c1.476,0,6.039-3.88,9.414-21.599
				c3.164-16.604,0.588-21.308-0.276-22.354c-0.373-0.45-0.72-0.625-1.232-0.625c-0.13,0-0.236,0.013-0.303,0.023l-8.308,3.493
				l2.271-9.017c2.54-11.668,6.656-45.024-4.656-59.066c-3.623-4.495-8.543-6.681-15.043-6.681l-3.557,0.049l-1.264-2.866
				c-0.104-0.23-10.919-23.935-32.88-23.935c-1.857,0-3.779,0.167-5.713,0.498c-8.555,1.464-18.146,2.207-28.508,2.208
				c-11.894,0-22.315-0.964-28.868-1.755c1.186,2.367,3.188,4.996,6.565,6.944l9.258,5.341l-10.181,3.253
				c-0.052,0.018-8.541,2.972-15.679,13.544c-9.661,14.309-12.519,36-8.266,62.731l1.097,6.896l-6.395-1.462
				c-0.732,0.01-1.652,0.247-2.454,1.266c-1.246,1.581-3.719,7.013,0.196,23.263c4.126,17.121,8.084,20.848,9.171,21.574
				L138.693,157.81z"/>
		</g>
		<g id="XMLID_1170_">
			<path fill="#FFFFFF" d="M200.009,389.096c-0.013,0.002-0.01,0-0.023,0c-104.155-0.005-149.424-35.768-151.3-37.287l-1.123-0.912
				l-0.421-1.383c-5.74-18.859-3.42-38.166-3.317-38.979c4.797-37.977,31.247-50.27,50.562-59.245
				c1.119-0.521,2.224-1.034,3.31-1.544c19.647-9.247,45.427-24.452,45.686-24.604l5.085-3.006l30.971,95.857l8.058-19.248
				c-4.365-4.925-13.354-16.829-13.354-31.338c0-5.657,1.98-10.438,5.729-13.82c6.918-6.247,17.486-5.895,20.131-5.691
				c2.641-0.198,13.214-0.555,20.132,5.691c3.747,3.383,5.729,8.163,5.729,13.82c0,14.509-8.989,26.412-13.354,31.339l8.059,19.247
				l30.972-95.857l5.085,3.006c0.259,0.15,26.036,15.355,45.685,24.604c1.086,0.511,2.19,1.023,3.313,1.545
				c19.314,8.979,45.769,21.271,50.563,59.236c0.103,0.82,2.424,20.127-3.322,38.986l-0.422,1.383l-1.123,0.91
				C349.432,353.329,304.162,389.091,200.009,389.096L200.009,389.096z M55.756,345.29c7.458,5.308,52.518,34.351,144.242,34.354
				c91.703-0.004,136.764-29.037,144.239-34.354c4.613-16.503,2.58-33.407,2.561-33.583c-4.142-32.777-25.938-42.907-45.168-51.846
				c-1.136-0.526-2.253-1.047-3.354-1.564c-14.721-6.928-32.729-17.083-41.367-22.056L221.705,345.2l-20.371-48.656l2.376-2.245
				c0.121-0.113,12.697-12.264,12.697-26.89c0-2.993-0.854-5.22-2.61-6.806c-3.757-3.394-11.065-3.494-13.328-3.264l-0.305-2.979
				l-0.153,3.006l-0.166-3.105l-0.315,3.08c-2.437-0.232-9.621-0.105-13.346,3.279c-1.744,1.585-2.592,3.805-2.592,6.788
				c0,14.626,12.577,26.774,12.704,26.896l2.355,2.244l-1.25,3.01l-19.108,45.643l-35.204-108.958
				c-8.639,4.972-26.647,15.127-41.369,22.055c-1.1,0.519-2.218,1.037-3.351,1.563c-19.23,8.938-41.026,19.066-45.167,51.854
				C53.182,311.878,51.169,328.852,55.756,345.29z"/>
		</g>
	</g>
</g>
<g id="XMLID_265_">
	
		<path id="XMLID_481_" fill="none" stroke="#B61351" stroke-width="2" stroke-linecap="round" stroke-linejoin="round" stroke-miterlimit="10" d="
		M1542.627,505.88c-1.977,0-3.797,0.653-5.271,1.746c-1.688-4.475-5.998-7.663-11.063-7.663c-6.215,0-11.299,4.793-11.785,10.882
		c-0.521-0.136-1.066-0.215-1.631-0.215c-3.59,0-6.5,2.91-6.5,6.5s2.91,6.5,6.5,6.5c2.322,0,4.354-1.222,5.504-3.054
		c2.098,1.893,4.865,3.054,7.912,3.054c1.871,0,3.635-0.446,5.209-1.22v5.345c0,2.347,1.902,4.25,4.25,4.25
		c2.346,0,4.25-1.903,4.25-4.25v-4.521c0.828,0.257,1.711,0.396,2.625,0.396c4.9,0,8.875-3.974,8.875-8.875
		S1547.528,505.88,1542.627,505.88z"/>
	
		<path id="XMLID_439_" fill="none" stroke="#B61351" stroke-width="2" stroke-linecap="round" stroke-linejoin="round" stroke-miterlimit="10" d="
		M1547.002,522.471v37.597c0,3.403-2.785,6.188-6.188,6.188h-23.125c-3.404,0-6.188-2.784-6.188-6.188v-36.585"/>
	
		<path id="XMLID_476_" fill="none" stroke="#B61351" stroke-width="2" stroke-linecap="round" stroke-linejoin="round" stroke-miterlimit="10" d="
		M1553.942,555.13h-6.939v-24.25h6.939c1.967,0,3.561,1.594,3.561,3.56v17.13C1557.502,553.536,1555.908,555.13,1553.942,555.13z"/>
	
		<line id="XMLID_365_" fill="none" stroke="#B61351" stroke-width="2" stroke-linecap="round" stroke-linejoin="round" stroke-miterlimit="10" x1="1520.502" y1="538.505" x2="1520.502" y2="557.13"/>
	
		<line id="XMLID_441_" fill="none" stroke="#B61351" stroke-width="2" stroke-linecap="round" stroke-linejoin="round" stroke-miterlimit="10" x1="1528.94" y1="538.505" x2="1528.94" y2="557.13"/>
	
		<line id="XMLID_475_" fill="none" stroke="#B61351" stroke-width="2" stroke-linecap="round" stroke-linejoin="round" stroke-miterlimit="10" x1="1536.627" y1="538.505" x2="1536.627" y2="557.13"/>
</g>
<g id="XMLID_1_">
	<g id="XMLID_7_">
		<path fill="#FFFFFF" d="M221.436,199.414c-16.276,0-29.518-13.241-29.518-29.517v-21.598c-7.615,2.676-15.541,4.028-23.659,4.028
			c-15.755,0-30.983-5.173-43.499-14.676c-7.956,9.286-19.5,14.676-31.935,14.676c-23.251,0-42.167-18.916-42.167-42.167
			s18.916-42.167,42.167-42.167c1.429,0,2.872,0.079,4.321,0.235c2.612-15.662,10.316-30.025,22.076-40.952
			c13.365-12.417,30.78-19.256,49.037-19.256c27.492,0,52.686,15.971,64.703,40.381c8.271-4.672,17.527-7.115,27.126-7.115
			c30.614,0,55.521,24.906,55.521,55.521c0,30.614-24.906,55.52-55.521,55.52c-3.077,0-6.131-0.251-9.136-0.75v18.32
			C250.952,186.173,237.711,199.414,221.436,199.414z M197.54,134.226c1.035,0,2.066,0.285,2.972,0.85
			c1.648,1.026,2.65,2.831,2.65,4.772v30.049c0,10.076,8.197,18.273,18.273,18.273c10.075,0,18.272-8.197,18.272-18.273v-25.416
			c0-1.787,0.849-3.467,2.287-4.526c1.438-1.061,3.296-1.372,5.001-0.843c4.216,1.308,8.62,1.971,13.092,1.971
			c24.414,0,44.276-19.862,44.276-44.275c0-24.414-19.862-44.276-44.276-44.276c-9.508,0-18.599,3.013-26.29,8.712
			c-1.417,1.049-3.244,1.374-4.935,0.876c-1.691-0.498-3.052-1.76-3.674-3.41c-8.897-23.594-31.776-39.446-56.93-39.446
			c-31.507,0-58.152,24.601-60.661,56.006c-0.132,1.657-0.991,3.17-2.346,4.134c-1.354,0.964-3.065,1.278-4.675,0.859
			c-2.617-0.681-5.225-1.027-7.752-1.027c-17.051,0-30.923,13.872-30.923,30.923s13.872,30.923,30.923,30.923
			c10.679,0,20.467-5.435,26.183-14.537c0.883-1.407,2.343-2.351,3.988-2.579c1.644-0.228,3.307,0.282,4.54,1.395
			c11.237,10.138,25.699,15.721,40.724,15.721c9.307,0,18.324-2.113,26.8-6.281C195.844,134.417,196.693,134.226,197.54,134.226z"/>
	</g>
	<g id="XMLID_6_">
		<path fill="#FFFFFF" d="M249.898,391.98H119.883c-22.282,0-40.41-18.128-40.41-40.41V145.876c0-3.105,2.517-5.622,5.622-5.622
			s5.622,2.517,5.622,5.622V351.57c0,16.082,13.084,29.166,29.166,29.166h130.015c16.082,0,29.166-13.084,29.166-29.166V140.188
			c0-3.105,2.517-5.622,5.622-5.622s5.622,2.517,5.622,5.622V351.57C290.308,373.853,272.18,391.98,249.898,391.98z"/>
	</g>
	<g id="XMLID_5_">
		<path fill="#FFFFFF" d="M323.701,329.433h-39.016c-3.105,0-5.622-2.517-5.622-5.622V187.467c0-3.105,2.517-5.622,5.622-5.622
			h39.016c14.139,0,25.641,11.498,25.641,25.632v96.315C349.342,317.931,337.84,329.433,323.701,329.433z M290.308,318.188h33.394
			c7.938,0,14.396-6.458,14.396-14.396v-96.315c0-7.933-6.458-14.388-14.396-14.388h-33.394V318.188z"/>
	</g>
	<g id="XMLID_4_">
		<path fill="#FFFFFF" d="M135.696,340.677c-3.105,0-5.622-2.517-5.622-5.622V230.34c0-3.105,2.517-5.622,5.622-5.622
			s5.622,2.517,5.622,5.622v104.715C141.318,338.16,138.801,340.677,135.696,340.677z"/>
	</g>
	<g id="XMLID_3_">
		<path fill="#FFFFFF" d="M183.134,340.677c-3.105,0-5.622-2.517-5.622-5.622V230.34c0-3.105,2.517-5.622,5.622-5.622
			s5.622,2.517,5.622,5.622v104.715C188.756,338.16,186.239,340.677,183.134,340.677z"/>
	</g>
	<g id="XMLID_2_">
		<path fill="#FFFFFF" d="M226.355,340.677c-3.105,0-5.622-2.517-5.622-5.622V230.34c0-3.105,2.517-5.622,5.622-5.622
			s5.622,2.517,5.622,5.622v104.715C231.977,338.16,229.46,340.677,226.355,340.677z"/>
	</g>
</g>
</svg>
