<?xml version="1.0" encoding="utf-8"?>
<!-- Generator: Adobe Illustrator 16.0.0, SVG Export Plug-In . SVG Version: 6.00 Build 0)  -->
<!DOCTYPE svg PUBLIC "-//W3C//DTD SVG 1.1//EN" "http://www.w3.org/Graphics/SVG/1.1/DTD/svg11.dtd">
<svg version="1.1" id="Capa_1" xmlns="http://www.w3.org/2000/svg" xmlns:xlink="http://www.w3.org/1999/xlink" x="0px" y="0px"
	 width="400px" height="114.667px" viewBox="0 0 400 114.667" enable-background="new 0 0 400 114.667" xml:space="preserve">
<g>
	<g>
		<path fill="#FFFFFF" d="M119.726,37.292v-17.5H132.9v3.425h-9.375v3.55h8.25v3.425h-8.25v3.675h9.5v3.425H119.726z"/>
		<path fill="#FFFFFF" d="M152,37.417h-3.4l-7.075-17.625h4.25l4.575,12.325l4.575-12.325h4.15L152,37.417z"/>
		<path fill="#FFFFFF" d="M168.326,37.292v-17.5H181.5v3.425h-9.375v3.55h8.25v3.425h-8.25v3.675h9.5v3.425H168.326z"/>
		<path fill="#FFFFFF" d="M203.9,37.292l-8.475-11.125v11.125h-3.8v-17.5h3.55l8.2,10.775V19.792h3.801v17.5H203.9z"/>
		<path fill="#FFFFFF" d="M225.85,23.341v13.95H222v-13.95h-5.324v-3.55h14.5v3.55H225.85z"/>
		<path fill="#FFFFFF" d="M257.801,32.054c-0.467,1.092-1.113,2.05-1.938,2.875c-0.826,0.825-1.809,1.475-2.951,1.95
			c-1.141,0.475-2.387,0.712-3.736,0.712c-1.351,0-2.592-0.237-3.726-0.712s-2.112-1.116-2.938-1.925
			c-0.825-0.808-1.467-1.758-1.925-2.85c-0.459-1.091-0.688-2.263-0.688-3.513v-0.05c0-1.25,0.232-2.421,0.699-3.513
			c0.467-1.091,1.113-2.05,1.938-2.875c0.826-0.825,1.809-1.475,2.951-1.95c1.141-0.475,2.387-0.712,3.736-0.712
			c1.351,0,2.592,0.237,3.726,0.712s2.112,1.117,2.938,1.925c0.825,0.809,1.466,1.759,1.925,2.85
			c0.459,1.092,0.688,2.263,0.688,3.513v0.05C258.5,29.792,258.267,30.962,257.801,32.054z M254.475,28.542
			c0-0.75-0.129-1.458-0.387-2.125c-0.259-0.667-0.625-1.25-1.1-1.75c-0.476-0.5-1.038-0.896-1.688-1.188
			c-0.65-0.292-1.359-0.438-2.125-0.438c-0.784,0-1.496,0.142-2.139,0.425c-0.641,0.284-1.191,0.675-1.649,1.175
			s-0.817,1.079-1.075,1.737c-0.258,0.659-0.387,1.363-0.387,2.113v0.05c0,0.75,0.129,1.458,0.387,2.125
			c0.258,0.667,0.625,1.25,1.1,1.75c0.476,0.5,1.033,0.896,1.676,1.188c0.641,0.292,1.354,0.438,2.137,0.438
			c0.768,0,1.476-0.142,2.125-0.425c0.65-0.283,1.205-0.675,1.663-1.175s0.816-1.079,1.075-1.737
			c0.258-0.658,0.387-1.363,0.387-2.113V28.542z"/>
		<path fill="#FFFFFF" d="M280.653,34.429c-0.315,0.675-0.754,1.242-1.316,1.7c-0.563,0.458-1.235,0.809-2.016,1.05
			c-0.781,0.241-1.646,0.362-2.597,0.362c-1.333,0-2.642-0.229-3.925-0.688s-2.45-1.163-3.5-2.112l2.275-2.725
			c0.8,0.65,1.62,1.167,2.462,1.55c0.842,0.384,1.763,0.575,2.763,0.575c0.8,0,1.421-0.146,1.862-0.438s0.663-0.696,0.663-1.212
			v-0.05c0-0.25-0.046-0.471-0.138-0.663c-0.093-0.191-0.268-0.371-0.527-0.537c-0.259-0.167-0.618-0.333-1.077-0.5
			c-0.46-0.167-1.058-0.342-1.792-0.525c-0.887-0.216-1.688-0.458-2.407-0.725s-1.328-0.596-1.829-0.988
			c-0.502-0.391-0.891-0.879-1.166-1.462c-0.275-0.583-0.414-1.308-0.414-2.175v-0.05c0-0.8,0.149-1.521,0.447-2.163
			c0.298-0.641,0.716-1.195,1.254-1.662c0.539-0.467,1.182-0.825,1.929-1.075s1.57-0.375,2.471-0.375
			c1.283,0,2.462,0.192,3.537,0.575s2.063,0.934,2.963,1.65l-2,2.9c-0.784-0.533-1.55-0.954-2.3-1.263
			c-0.75-0.308-1.5-0.462-2.25-0.462s-1.313,0.146-1.688,0.438c-0.375,0.292-0.563,0.654-0.563,1.087v0.05
			c0,0.284,0.054,0.529,0.162,0.737c0.109,0.208,0.305,0.396,0.59,0.563c0.283,0.167,0.672,0.325,1.165,0.475
			s1.115,0.325,1.868,0.525c0.885,0.234,1.675,0.496,2.368,0.788c0.693,0.292,1.278,0.642,1.755,1.05
			c0.477,0.409,0.836,0.888,1.078,1.438c0.242,0.55,0.363,1.209,0.363,1.975v0.05C281.125,32.983,280.968,33.754,280.653,34.429z"/>
		<path fill="#FFFFFF" d="M43.481,71.023c-0.832,0.66-1.741,1.225-2.73,1.697c-0.989,0.475-2.071,0.832-3.247,1.076
			c-1.176,0.242-2.494,0.365-3.956,0.365c-2.208,0-4.257-0.402-6.149-1.205c-1.892-0.801-3.526-1.898-4.902-3.289
			c-1.376-1.389-2.451-3.031-3.225-4.923c-0.774-1.892-1.161-3.913-1.161-6.063v-0.086c0-2.15,0.387-4.164,1.161-6.042
			c0.774-1.877,1.849-3.526,3.225-4.945s3.024-2.537,4.945-3.354c1.92-0.817,4.042-1.226,6.364-1.226
			c1.404,0,2.688,0.115,3.848,0.344c1.161,0.23,2.215,0.545,3.161,0.946c0.946,0.402,1.82,0.889,2.623,1.462
			c0.802,0.574,1.548,1.204,2.236,1.892l-4.214,4.859c-1.176-1.061-2.373-1.892-3.59-2.494c-1.219-0.602-2.587-0.903-4.106-0.903
			c-1.262,0-2.43,0.244-3.505,0.731c-1.075,0.488-2,1.161-2.773,2.021c-0.774,0.86-1.376,1.856-1.806,2.988
			c-0.43,1.133-0.645,2.344-0.645,3.633v0.086c0,1.29,0.215,2.509,0.645,3.655c0.43,1.147,1.024,2.15,1.784,3.01
			c0.759,0.859,1.677,1.541,2.752,2.042c1.075,0.502,2.258,0.753,3.548,0.753c1.72,0,3.174-0.316,4.364-0.947
			c1.189-0.63,2.372-1.49,3.547-2.58l4.214,4.257C45.116,69.619,44.313,70.363,43.481,71.023z"/>
		<path fill="#FFFFFF" d="M80.633,64.637c-0.803,1.878-1.914,3.527-3.333,4.945c-1.419,1.42-3.111,2.537-5.074,3.354
			c-1.964,0.818-4.106,1.227-6.429,1.227c-2.322,0-4.458-0.408-6.407-1.227c-1.95-0.816-3.634-1.92-5.053-3.311
			c-1.419-1.389-2.523-3.024-3.311-4.902c-0.789-1.877-1.183-3.891-1.183-6.041v-0.086c0-2.15,0.401-4.164,1.204-6.042
			c0.802-1.877,1.914-3.526,3.333-4.945s3.11-2.537,5.074-3.354c1.963-0.817,4.106-1.226,6.428-1.226
			c2.322,0,4.458,0.409,6.407,1.226c1.949,0.817,3.633,1.921,5.052,3.311c1.419,1.391,2.522,3.025,3.311,4.902
			c0.788,1.878,1.183,3.892,1.183,6.042v0.086C81.837,60.746,81.435,62.76,80.633,64.637z M74.914,58.596
			c0-1.29-0.223-2.508-0.667-3.655c-0.445-1.146-1.075-2.15-1.892-3.01c-0.817-0.86-1.785-1.541-2.902-2.042
			c-1.118-0.501-2.337-0.752-3.655-0.752c-1.348,0-2.573,0.244-3.676,0.731c-1.104,0.488-2.05,1.161-2.838,2.021
			c-0.789,0.86-1.405,1.856-1.849,2.988c-0.445,1.133-0.667,2.344-0.667,3.633v0.086c0,1.29,0.222,2.509,0.667,3.655
			c0.444,1.147,1.075,2.15,1.892,3.01c0.817,0.859,1.777,1.541,2.881,2.042c1.103,0.502,2.329,0.753,3.676,0.753
			c1.318,0,2.537-0.244,3.655-0.732c1.118-0.487,2.071-1.161,2.859-2.021c0.788-0.86,1.404-1.855,1.849-2.989
			c0.444-1.132,0.667-2.343,0.667-3.633V58.596z"/>
		<path fill="#FFFFFF" d="M106.003,73.646l-6.45-9.632H94.35v9.632h-6.622V43.545h13.76c3.583,0,6.371,0.875,8.363,2.623
			c1.992,1.749,2.989,4.186,2.989,7.31v0.086c0,2.437-0.595,4.422-1.785,5.956c-1.19,1.534-2.745,2.659-4.666,3.375l7.353,10.75
			H106.003z M106.132,53.822c0-1.433-0.459-2.508-1.376-3.225c-0.918-0.716-2.193-1.075-3.827-1.075H94.35v8.643h6.708
			c1.634,0,2.888-0.387,3.763-1.161c0.874-0.774,1.312-1.806,1.312-3.096V53.822z"/>
		<path fill="#FFFFFF" d="M141.692,58.639c-0.631,1.319-1.498,2.423-2.601,3.311c-1.104,0.889-2.394,1.555-3.87,2
			c-1.477,0.444-3.061,0.666-4.751,0.666h-5.031v9.031h-6.622V43.545h12.298c1.806,0,3.418,0.251,4.837,0.752
			c1.419,0.502,2.623,1.211,3.612,2.128c0.989,0.918,1.749,2.015,2.279,3.29c0.53,1.276,0.795,2.688,0.795,4.236v0.086
			C142.639,55.787,142.323,57.32,141.692,58.639z M135.931,54.081c0-1.49-0.48-2.623-1.44-3.397
			c-0.961-0.774-2.272-1.161-3.935-1.161h-5.117v9.202h5.246c1.662,0,2.952-0.437,3.87-1.312c0.917-0.874,1.376-1.957,1.376-3.247
			V54.081z"/>
		<path fill="#FFFFFF" d="M176.995,64.637c-0.803,1.878-1.914,3.527-3.333,4.945c-1.419,1.42-3.111,2.537-5.074,3.354
			c-1.964,0.818-4.106,1.227-6.429,1.227c-2.322,0-4.458-0.408-6.407-1.227c-1.95-0.816-3.634-1.92-5.053-3.311
			c-1.419-1.389-2.523-3.024-3.311-4.902c-0.789-1.877-1.183-3.891-1.183-6.041v-0.086c0-2.15,0.401-4.164,1.204-6.042
			c0.802-1.877,1.914-3.526,3.333-4.945s3.11-2.537,5.074-3.354c1.963-0.817,4.106-1.226,6.428-1.226
			c2.322,0,4.458,0.409,6.407,1.226c1.949,0.817,3.633,1.921,5.052,3.311c1.419,1.391,2.522,3.025,3.311,4.902
			c0.788,1.878,1.183,3.892,1.183,6.042v0.086C178.199,60.746,177.797,62.76,176.995,64.637z M171.276,58.596
			c0-1.29-0.223-2.508-0.667-3.655c-0.445-1.146-1.075-2.15-1.892-3.01c-0.817-0.86-1.785-1.541-2.902-2.042
			c-1.118-0.501-2.337-0.752-3.655-0.752c-1.348,0-2.573,0.244-3.676,0.731c-1.104,0.488-2.05,1.161-2.838,2.021
			c-0.789,0.86-1.405,1.856-1.849,2.988c-0.445,1.133-0.667,2.344-0.667,3.633v0.086c0,1.29,0.222,2.509,0.667,3.655
			c0.444,1.147,1.075,2.15,1.892,3.01c0.817,0.859,1.777,1.541,2.881,2.042c1.103,0.502,2.329,0.753,3.676,0.753
			c1.318,0,2.537-0.244,3.655-0.732c1.118-0.487,2.071-1.161,2.859-2.021c0.788-0.86,1.404-1.855,1.849-2.989
			c0.444-1.132,0.667-2.343,0.667-3.633V58.596z"/>
		<path fill="#FFFFFF" d="M202.365,73.646l-6.45-9.632h-5.203v9.632h-6.622V43.545h13.76c3.583,0,6.371,0.875,8.363,2.623
			c1.992,1.749,2.989,4.186,2.989,7.31v0.086c0,2.437-0.595,4.422-1.784,5.956c-1.19,1.534-2.746,2.659-4.666,3.375l7.354,10.75
			H202.365z M202.494,53.822c0-1.433-0.459-2.508-1.376-3.225c-0.918-0.716-2.193-1.075-3.827-1.075h-6.579v8.643h6.708
			c1.634,0,2.888-0.387,3.763-1.161c0.874-0.774,1.312-1.806,1.312-3.096V53.822z"/>
		<path fill="#FFFFFF" d="M237.582,73.646l-2.752-6.751h-12.729l-2.752,6.751h-6.751l12.899-30.315h6.106l12.899,30.315H237.582z
			 M228.465,51.286l-3.998,9.761h7.998L228.465,51.286z"/>
		<path fill="#FFFFFF" d="M262.779,49.651v23.995h-6.622V49.651h-9.159v-6.106h24.939v6.106H262.779z"/>
		<path fill="#FFFFFF" d="M277.313,73.646V43.545h6.622v30.101H277.313z"/>
		<path fill="#FFFFFF" d="M306.896,73.861h-5.848l-12.168-30.315h7.309l7.869,21.199l7.869-21.199h7.139L306.896,73.861z"/>
		<path fill="#FFFFFF" d="M353.165,64.637c-0.803,1.878-1.913,3.527-3.333,4.945c-1.418,1.42-3.11,2.537-5.073,3.354
			c-1.964,0.818-4.106,1.227-6.429,1.227s-4.458-0.408-6.406-1.227c-1.951-0.816-3.635-1.92-5.053-3.311
			c-1.42-1.389-2.523-3.024-3.312-4.902c-0.788-1.877-1.183-3.891-1.183-6.041v-0.086c0-2.15,0.401-4.164,1.204-6.042
			c0.802-1.877,1.913-3.526,3.333-4.945c1.418-1.419,3.109-2.537,5.074-3.354c1.963-0.817,4.105-1.226,6.428-1.226
			s4.457,0.409,6.407,1.226c1.949,0.817,3.634,1.921,5.052,3.311c1.42,1.391,2.523,3.025,3.312,4.902
			c0.788,1.878,1.183,3.892,1.183,6.042v0.086C354.369,60.746,353.967,62.76,353.165,64.637z M347.446,58.596
			c0-1.29-0.223-2.508-0.667-3.655c-0.444-1.146-1.074-2.15-1.892-3.01c-0.817-0.86-1.784-1.541-2.902-2.042
			c-1.118-0.501-2.337-0.752-3.655-0.752c-1.348,0-2.573,0.244-3.676,0.731c-1.104,0.488-2.051,1.161-2.839,2.021
			c-0.788,0.86-1.405,1.856-1.849,2.988c-0.445,1.133-0.666,2.344-0.666,3.633v0.086c0,1.29,0.221,2.509,0.666,3.655
			c0.443,1.147,1.074,2.15,1.893,3.01c0.816,0.859,1.776,1.541,2.881,2.042c1.103,0.502,2.328,0.753,3.676,0.753
			c1.318,0,2.537-0.244,3.655-0.732c1.118-0.487,2.071-1.161,2.859-2.021c0.788-0.86,1.404-1.855,1.849-2.989
			c0.444-1.132,0.667-2.343,0.667-3.633V58.596z"/>
		<path fill="#FFFFFF" d="M381.206,68.722c-0.542,1.16-1.296,2.135-2.265,2.924s-2.124,1.391-3.467,1.807
			c-1.343,0.414-2.831,0.623-4.465,0.623c-2.294,0-4.545-0.395-6.752-1.184c-2.207-0.787-4.213-1.998-6.02-3.633l3.913-4.687
			c1.376,1.118,2.788,2.007,4.235,2.666c1.447,0.66,3.031,0.99,4.752,0.99c1.376,0,2.443-0.251,3.203-0.753
			c0.76-0.501,1.14-1.196,1.14-2.085v-0.086c0-0.431-0.079-0.81-0.237-1.14c-0.158-0.329-0.46-0.638-0.905-0.925
			c-0.445-0.286-1.063-0.573-1.854-0.86c-0.791-0.286-1.818-0.587-3.083-0.903c-1.523-0.372-2.903-0.788-4.14-1.247
			c-1.235-0.458-2.284-1.024-3.147-1.698c-0.862-0.673-1.529-1.512-2.004-2.516c-0.475-1.003-0.712-2.25-0.712-3.741v-0.086
			c0-1.376,0.256-2.616,0.769-3.719s1.231-2.057,2.158-2.86c0.926-0.802,2.03-1.419,3.316-1.849c1.283-0.43,2.701-0.645,4.249-0.645
			c2.207,0,4.235,0.33,6.084,0.989c1.85,0.66,3.548,1.606,5.096,2.838l-3.439,4.988c-1.349-0.917-2.666-1.641-3.956-2.172
			c-1.29-0.53-2.58-0.795-3.87-0.795s-2.258,0.251-2.903,0.752c-0.645,0.502-0.967,1.125-0.967,1.871v0.086
			c0,0.488,0.094,0.911,0.28,1.269c0.187,0.359,0.524,0.681,1.013,0.968s1.157,0.559,2.006,0.817
			c0.848,0.258,1.918,0.559,3.212,0.903c1.522,0.402,2.881,0.854,4.074,1.354c1.192,0.502,2.198,1.104,3.018,1.806
			c0.819,0.703,1.438,1.526,1.854,2.473c0.417,0.946,0.626,2.079,0.626,3.396v0.086C382.018,66.235,381.747,67.561,381.206,68.722z"
			/>
	</g>
	<g>
		<rect x="119.698" y="81.041" fill="#FFFFFF" width="164.802" height="17.585"/>
	</g>
</g>
</svg>
