<?xml version="1.0" encoding="utf-8"?>
<!-- Generator: Adobe Illustrator 16.0.0, SVG Export Plug-In . SVG Version: 6.00 Build 0)  -->
<!DOCTYPE svg PUBLIC "-//W3C//DTD SVG 1.1//EN" "http://www.w3.org/Graphics/SVG/1.1/DTD/svg11.dtd">
<svg version="1.1" id="Capa_1" xmlns="http://www.w3.org/2000/svg" xmlns:xlink="http://www.w3.org/1999/xlink" x="0px" y="0px"
	 width="30px" height="30px" viewBox="0 0 30 30" enable-background="new 0 0 30 30" xml:space="preserve">
<path id="XMLID_64_" fill="#FFFFFF" d="M15.298,0.373C6.96,0.223,0.342,6.843,0.218,14.758C0.089,23.001,6.839,29.673,14.996,29.63
	c0.005,0,0.01,0,0.015,0c0-2.813,0-5.627,0-8.439c0-0.639-0.003-0.632-0.652-0.613c-0.407,0.01-0.813-0.002-1.221,0.004
	c-0.333,0.004-0.484-0.127-0.479-0.481c0.017-1.04,0.017-2.08,0-3.12c-0.006-0.363,0.154-0.471,0.489-0.459
	c0.439,0.012,0.885-0.031,1.32,0.014c0.479,0.049,0.565-0.153,0.563-0.574c0-1.004-0.014-2.014,0.084-3.012
	c0.217-2.213,1.881-3.708,4.139-3.781c1.217-0.039,2.438-0.045,3.654-0.086c0.434-0.013,0.607,0.135,0.596,0.582
	c-0.027,0.955-0.031,1.913,0.002,2.868c0.016,0.461-0.176,0.583-0.596,0.569c-0.539-0.02-1.084-0.018-1.625,0.003
	c-0.947,0.036-1.307,0.382-1.361,1.316c-0.033,0.536-0.018,1.072-0.037,1.609c-0.012,0.324,0.131,0.447,0.453,0.443
	c0.848-0.009,1.695,0.007,2.543-0.002c0.4-0.006,0.586,0.107,0.531,0.557c-0.127,1.031-0.223,2.064-0.301,3.101
	c-0.029,0.38-0.211,0.478-0.557,0.472c-0.846-0.013-1.691-0.004-2.619-0.004c0,0.842,0,1.611,0,2.379
	c0,1.938,0.002,3.875,0.004,5.813c5.648-1.982,9.717-7.283,9.838-13.477C29.942,7.07,23.278,0.518,15.298,0.373z"/>
</svg>
