<svg xmlns="http://www.w3.org/2000/svg" width="30" height="30"><path d="M15.298.373C6.96.223.342 6.843.218 14.758.09 23 6.84 29.673 14.996 29.63h.015v-8.44c0-.64-.003-.632-.652-.613-.407.01-.813-.002-1.22.004-.333.004-.484-.127-.48-.48v-3.12c-.006-.363.154-.47.49-.46.44.012.885-.03 1.32.014.48.05.565-.153.563-.574 0-1.004-.014-2.014.084-3.012.217-2.213 1.88-3.708 4.14-3.78l3.654-.086c.434-.013.607.135.596.582l.002 2.868c.016.46-.176.583-.596.57a21.48 21.48 0 0 0-1.625.003c-.947.036-1.307.382-1.36 1.316-.033.536-.018 1.072-.037 1.61-.012.324.13.447.453.443l2.543-.002c.4-.006.586.107.53.557l-.3 3.1c-.03.38-.21.478-.557.472l-2.62-.004v2.38l.004 5.813c5.648-1.982 9.717-7.283 9.838-13.477.163-8.242-6.5-14.794-14.48-14.94z" fill="#fff"/></svg>