<svg xmlns="http://www.w3.org/2000/svg" width="851" height="851" viewBox="0 0 850.39 850.39"><g fill="#fff"><path d="M224.585 379.935c-11.434-3.603-25.082 7.192-25.082 7.192l2.03-5.902h-18.258L157.64 441.35c-30.984 0-71.927 49.058-36.148 51.27s54.96-50.902 54.96-50.902c2.213 7.01 11.434 9.222 11.434 9.222 25.267 3.136 39.5-26.454 44.63-37.623 6.27-13.65 5.533-29.14-7.93-33.382zm-97.018 98.47c-16.158-.697 14.542-26 26.014-26 0 0-9.856 26.69-26.014 26zm85.953-61.584s-8.115 19.918-23.238 19.918c-14.386 0-3.873-22.87-3.873-22.87s10.88-23.976 26.004-23.976c12.738.001 1.107 26.927 1.107 26.927zm133.094-12.603c-12.787 0-23.176 11.68-23.176 11.68l19.918-46.106h-15.86l-26.004 59.386c-4.242 8.852-23.053 28.032-23.053 28.032-5.533-.185-1.476-9.037-1.476-9.037l17.336-40.205-16.045.922c-1.106 4.426-24.713 50.717-35.594 50.717s14.938-49.057 14.938-49.057L241 411.656s-4.242 11.988-11.435 28.586-16.604 43.337-4.98 43.34c18.504.005 31.168-22.5 31.168-22.5s-11.065 23.054 1.106 22.5 31.537-26.004 31.537-26.004l-9.037 22.685h15.676l5.35-13.095c-.553 2.95 4.795 11.25 12.172 11.25s28.402-12.726 37.746-31.905 9.098-42.296-3.69-42.296zm-14 39.504c-6.672 12.453-15.545 20.69-19.82 18.4s-2.33-14.24 4.342-26.694 15.546-20.69 19.82-18.4 2.33 14.242-4.342 26.694zm57.25-79.44l15.984-.983-33.197 76.722s-3.197 8.606 0 8.853 31.72-26.804 37.623-50.4l15.738-1.23-18.69 44.263s-2.213 5.655.738 5.655 41.804-47.705 41.804-47.705v9.836l-41.558 50.4s-11.558 11.804-21.148 11.804 4.426-29.51 4.426-29.51-28.28 31.476-38.853 31.476 4.672-33.935 8.853-43.77l28.28-65.412z"/><ellipse transform="matrix(.9121 .41 -.41 .9121 189.702499 -142.393799)" cx="426.899" cy="371.17" rx="9.605" ry="13.506"/><path d="M475.73 361.062l-6.24 12.827 34.027-1.882-20.41 44.64c-26.313-.605-64.427 51.262-35.47 51.262s47.764-39.837 47.764-39.837l25.327-57.664 29.878-1.6 4.672-12.664-79.55 4.918zm-24.59 95.778c-13.67 0 15.123-30.43 28.955-31.167 0-.001-15.287 31.167-28.955 31.167z"/><path d="M528.23 378.274s10.45.37 9.345 8.976c0 0-.738 3.565-2.828 5.164s-3.565 5.655-2.705 7.623 12.173 2.705 12.173 2.705 4.18-.492 2.58 4.18-10.266 24.1-10.266 24.1-2.582 6.086-.922 6.455 26.926-20.226 34.303-49.242l14.754-.492-14.508 34.918s-6.517 12.234.86 12.418 29.324-29.877 34.304-48.69l15.308-1.106-15.308 35.594s-4.98 11.804-1.845 11.804 12.54-13.095 12.54-13.095 13.832-36.517 36.147-36.517 14.017 26.927 8.3 33.75c0 0-5.533 2.03-11.62-4.795 0 0 10.513-15.492 6.086-17.15s-19.364 15.123-21.946 23.606-4.242 21.024 4.795 22.5 30.615-14.2 37.254-28.955L704 346h14.754l-22.868 52.377 22.868-20.287h20.472l-24.713 20.103s13.463 3.688 11.987 15.308c0 0-.553 4.426-1.476 6.455s-1.844 3.504-.737 4.057 7.377-8.115 13.463-8.115 9.6 4.058 9.222 13.463-9.222 30.984-32.09 33.75-139.795 11.804-183.688 39.468l-51.086-24.713L703.07 456.84s35.594-3.32 38.914-22.5c0 0 2.582-8.852-2.95-9.037s-22.315 21.947-27.85 21.947-12.725-1.66-7.93-12.356 7.746-21.947 1.66-22.315-22.5 15.49-31.353 37.254l-15.49 1.29 4.057-10.328s-14.938 12.9-28.954 12.9-20.814-10.697-19.63-19.365c0 0-15.78 23.054-27.77 22.87s-2.58-20.47-2.58-20.47-18.074 21.76-30.062 21.76-6.086-19.733-6.086-19.733-16.23 22.5-30.8 22.5 18.627-49.795 12.9-52.193-19.837-9.9-15.82-21.826 14.897-8.974 14.897-8.974zM746.99 459.18a8.73 8.73 0 0 1 8.725 8.779c-.027 4.78-3.92 8.706-8.794 8.67a8.72 8.72 0 0 1-8.657-8.723c-.001-4.84 3.925-8.728 8.726-8.727zm.001 16.834a8.11 8.11 0 0 0 8.107-8.115 8.11 8.11 0 0 0-8.114-8.103c-4.507.001-8.145 3.683-8.105 8.186.04 4.403 3.626 8.033 8.112 8.032zm-4.106-13.218h3.922c.468 0 .932.033 1.392.117.372.067.733.17 1.07.345.59.304.96.78 1.118 1.424a3.52 3.52 0 0 1 .063 1.289c-.065.5-.255.95-.61 1.32a2.46 2.46 0 0 1-.762.53c-.14.063-.287.115-.43.172-.01.004-.02.01-.042.02l.21.067c.352.13.627.36.864.644.254.306.455.646.632 1l1.046 2.113.354.723c.004.008.007.017.014.033h-.07c-.85 0-1.697-.001-2.546.001-.053 0-.077-.018-.1-.063l-.88-1.797-.35-.706a3.54 3.54 0 0 0-.396-.614c-.24-.297-.552-.464-.927-.507-.19-.02-.387-.018-.58-.02-.155-.003-.3 0-.47 0v3.704h-2.52l.002-9.795zm2.522 1.828l-.003.05-.001 2.4c0 .047.014.06.06.06l1.046-.002a2.52 2.52 0 0 0 .696-.088.93.93 0 0 0 .702-.722 1.96 1.96 0 0 0-.009-.951c-.083-.316-.283-.53-.592-.64-.236-.085-.48-.114-.73-.116l-1.17-.001z"/></g></svg>