<svg xmlns="http://www.w3.org/2000/svg" width="851" height="851" viewBox="0 0 850.39 850.39"><path d="M544.483 511V401.338l-29.472-54.98v134.98l-1.746-1.917-45-55.484c-1.387-1.72-2.795-2.465-5.034-2.43l-43.84.05V511h29.534v-59.93l2.395 2.72 44.56 55.022c1.4 1.74 2.822 2.447 5.042 2.432l40.175-.053c1.106-.001 2.213-.123 3.383-.192zM366.416 405.5c-.963-1.788-2.134-2.213-4.008-2.2-10.545.075-21.093.09-31.638-.01-2.037-.02-3.205.54-4.217 2.392l-27.434 50.104-53.424-.13c-.903.026-2.228.42-2.613 1.08l-12.265 21.604 55.836.174-6.79 12.38-11.78 21.06 32.172.025c2.104.01 3.128-1.025 4.052-2.775l16.526-30.577 48.098.097c1.81-.012 2.868.505 3.67 2.173l5.356 10.362c.807 1.667 1.876 2.188 3.69 2.165l22.146-.04h10.02l-1.178-2.413-46.217-85.47zm-33.2 50.424l11.2-20.718 1.845-3.273 13.068 24.094c-1.402 0-11.957-.044-26.112-.103zM271.65 486.54h-58.124v-88.597h-30.6V511.5h75.3l13.424-24.96zm306.397-145.31l-10.573 18.517-8.118-14.908h-.03l-23.515-44.278c-.982-1.863-2.072-2.505-4.15-2.48l-29.107.058c-.788.001-1.575.123-2.475.198.147.53.176.85.316 1.106l24.768 45.397h-.113l35.91 65.615h34.126l-10.832-19.893 7.342-13.552 14.066-25.755 1.703 3.062 16.707 30.77c1.012 1.896 2.085 2.767 4.348 2.74l31.638-.006c2.11.022 3.188-.752 4.166-2.538l46-83.792c.532-.97.972-1.99 1.637-3.363-10.77 0-21.087.104-31.4-.074-2.514-.043-3.704.854-4.8 2.952l-29.56 55.73-1.754 3.04-1.616-2.886-7.528-14.173h.267l-11.484-21.1-11.19-20.98a6.49 6.49 0 0 0-.928-1.273l-12.128-22.27h-34.304l11.5 21.03h-.08l1.49 3.047 9.746 17.684c.984 1.73 1.056 3.078-.005 4.85l-10.048 17.516zm-80.564 3.416c-.018-2.6-.332-5.275-1.003-7.784-2.39-8.94-11.032-15.62-21.46-16.263l-36-1.572-.018.406c-4.323 0-8.655-.183-12.967.038l-26.746 1.842c-9.348 1.252-19.226 9.478-18.995 22.5l.077 43.02c.004 1.785.02 3.6.374 5.346 1.94 9.483 9.693 16.512 20.18 17.577 8.467.86 17.015 1.4 25.52 1.318l50.192-1.405c11.7-.77 21.07-9.116 20.91-23.585l-.078-41.438zm-28.33 37.424c-.016 1.028-1.353 2.47-2.42 2.94-1.368.604-3.085.546-4.652.55l-46.448.02c-.737 0-1.478.02-2.2-.04-3.985-.334-4.466-.85-4.468-4.788l.001-30.966c.003-3.72.646-4.672 4.555-4.86 5.675-.275 11.37-.133 17.056-.157l8.847-.003 22.75.02c1.465.007 2.927.26 4.394.37 1.942.145 2.727 1.182 2.72 3.11l-.127 33.807zm-257.2-16.39c-2 .584-4.305 1.098-6.465 1.105l-67.772.05c-.33 5.686-.86 11.17 2.703 15.7 4.222 5.37 10.504 6.975 16.853 7.06l58.834.065c3.356-.01 6.736-.237 10.064-.678 9.74-1.288 15.982-6.706 17.973-16.398 1.045-5.092 1.426-10.455 1.18-15.652-.708-14.963-8.65-22.856-22.825-23.11l-46.448-.613c-2.4-.04-4.825-.386-7.18-.875-2.21-.46-3.354-2.067-3.357-4.362-.003-2.23.955-3.992 3.144-4.568 2.005-.527 4.125-.858 6.195-.864l67.185-.037c1.762-15.113-7.15-21.863-18.477-22.393-22.725-1.06-45.534-.5-68.305-.274-8.83.087-15.664 5.303-17.82 13.912a67.23 67.23 0 0 0-1.946 18.696c.54 13.872 8.714 21.78 22.385 22.3l42.653 1.152a111.29 111.29 0 0 1 10.979.873c2.167.28 3.52 1.637 3.608 4.078s-.846 4.186-3.163 4.832zm38.966-109.52v190.2h30.83v-96.38h53.06v43.395H365.6V291.98h-30.95v30.133c-.41.2-.592.387-.776.387l-50.305.103c-1.927.006-1.87-1.223-1.868-2.55l.003-63.89-30.795-.001zm331.458 191.89v-24.946l-27.458-.012c-.588 0-1.175.19-1.796.3v89.728l84.434-.03a87.18 87.18 0 0 0 10.698-.686c12.535-1.58 20.475-10.263 20.592-22.717l.002-43.337c-.086-10.7-5.75-18.396-15.788-21.448-3.083-.937-6.374-1.65-9.573-1.667l-52.47-.127v24.79l44.352-.003c5.294.003 5.847.557 5.848 5.685l-.002 29.705c-.002 4.51-.416 5.042-5.007 5.276-3.362.17-6.74.07-10.11.07l-43.722.002-.001-40.583zm-237.573 92.255c-4.503-4.733-10.35-7.134-17.374-7.134h-.18c-7.225 0-13.244 2.428-17.89 7.216-4.35 4.437-7.526 10.967-9.432 19.403-1.418 6.276-2.138 13.585-2.138 21.723 0 19.277 3.486 32.332 10.658 39.91l.006.008.007.006a3.23 3.23 0 0 0 2.299.996c.807 0 1.563-.32 2.128-.904 1.232-1.27 1.274-3.3.097-4.512-5.92-6.283-8.923-18.23-8.923-35.503 0-12.18 1.686-28.413 9.72-36.6 3.465-3.567 8.025-5.374 13.56-5.374 3.07 0 5.843.594 8.238 1.764 2.378 1.16 4.464 2.932 6.198 5.26 3.408 4.576 5.58 11.41 6.463 20.332l-11.257.942c-.15-4.374-.427-8.527-1.375-11.904-1.362-4.85-3.993-7.31-7.818-7.31h-.09c-4.84 0-7.857 2.424-9.787 7.86-2.264 6.39-2.603 19.004-2.603 25.956v9.44l.465 16.134c.474 6.32 1.324 10.515 2.6 12.824 2.8 5.027 7.204 7.91 12.11 7.91h.09c4.673 0 8.786-1.49 12.223-4.432 2.814-2.407 5.178-5.797 7.027-10.076 3.346-7.742 4.168-16.472 4.367-19.865l.002-.045v-.044c0-1.844-1.238-3.24-2.9-3.276l-17.406-1.296c-1.732 0-3.056 1.173-3.22 2.853-.096.996-.096 2.15-.096 3.37l-.002.13c-.08 3.806-.197 9.558-2.753 11.313l-.035.024-.034.026c-1.387 1.072-1.677 3.01-.66 4.408.632.865 1.61 1.38 2.622 1.38.637 0 1.242-.203 1.753-.587 5.122-3.64 5.28-10.957 5.377-16.34l10.836.787c-.43 3.896-1.448 9.95-3.837 15.165-3.066 6.7-7.505 10.102-13.194 10.137h-.08c-2.663 0-5.064-1.663-6.762-4.685l-.003-.006-.003-.006c-.83-1.448-2.225-6.726-2.225-25.802v-9.347c0-4.134.156-18.065 2.157-23.92.582-1.568 1.165-2.558 1.78-3.024.475-.36 1.086-.5 2.18-.5.88 0 1.72 1.723 2.246 4.607.58 3.17.722 7.178.817 11.013v.628c0 .903.468 1.825 1.22 2.406.434.334 1.123.778 2.095.778h.067l.067-.006 17.72-1.574c1.674-.175 2.9-1.55 2.9-3.27v-.05l-.003-.05c-.87-13.345-4.24-23.19-10.015-29.262zm58.01 64.828h-29.83c-1.384 0-2.345-.09-2.86-.543-.61-.536-.92-1.868-.92-3.957V540.79h10.17l.088 57.062a3.14 3.14 0 0 0 3.135 3.133 3.14 3.14 0 0 0 3.137-3.135l-.1-60.196a3.14 3.14 0 0 0-3.137-3.135h-16.44a3.14 3.14 0 0 0-3.135 3.137v62.98c0 4.138 1.13 7.127 3.363 8.886 2.146 1.7 4.846 1.887 6.69 1.887h26.69v9.72h-33.61a3.14 3.14 0 0 0-3.135 3.136 3.14 3.14 0 0 0 3.135 3.137h36.746a3.14 3.14 0 0 0 3.135-3.137v-15.99a3.14 3.14 0 0 0-3.135-3.139zm59.66-70.615h-16.08a3.14 3.14 0 0 0-3.136 3.137v55.79c0 3.83 0 10.24-1.802 12.044-.6.59-.916 1.368-.917 2.194a3.09 3.09 0 0 0 .917 2.199c.563.563 1.327.874 2.15.874.87 0 1.72-.352 2.334-.965 3.325-3.323 3.6-9.118 3.6-16.347V540.7h9.81v53.286c0 8-.306 16.1-2.53 21.065-1.93 4.32-5.153 6.165-10.776 6.165-2.45 0-4.7-1.104-6.362-3.108-2.014-2.444-3.078-6.126-3.078-10.647v-69.806a3.14 3.14 0 0 0-3.137-3.137h-16.172a3.14 3.14 0 0 0-3.135 3.137v56.33c0 17.034 3.57 26.194 11.938 30.625a2.89 2.89 0 0 0 1.402.361c1.084 0 2.143-.618 2.764-1.614.472-.754.598-1.667.343-2.502a2.78 2.78 0 0 0-1.498-1.73c-6.08-3.228-8.677-10.75-8.677-25.14V540.7h9.9v66.76c0 13.698 8 19.938 15.624 19.938h.09c8.326 0 13.802-3.382 16.74-10.34 2.43-5.75 2.927-13.383 2.927-23.073v-56.33c-.001-1.7-1.478-3.137-3.227-3.137zm58.27 44.392c4.553-3.74 6.772-9.918 6.772-18.795 0-7.87-1.85-13.745-5.823-18.482-5.663-7.115-12.35-7.115-22.47-7.115h-22.2a3.14 3.14 0 0 0-3.136 3.137v13.834a3.14 3.14 0 0 0 3.136 3.137h22.2c5.185 0 5.85 4.23 5.85 7.914 0 1.854-.108 3.744-.894 5.002-.297.476-1.2 1.925-4.956 1.925h-8.354c-3.09 0-6.37 2.232-6.37 6.37v8.355c0 3.52 2.8 6.28 6.37 6.28h8.176c4.785 0 5.27.43 6.128 1.913.613 1.156 1.337 3.083 1.337 5.732 0 3.632-.558 5.986-1.706 7.2-.953 1.005-2.486 1.435-5.13 1.435h-12.04a3.14 3.14 0 0 0-3.137 3.135c0 1.71 1.378 3.047 3.137 3.047h12.04c4.552 0 7.813-1.198 9.97-3.663 2.112-2.414 3.14-6.062 3.14-11.152 0-3.175-.693-6.103-2.062-8.704l-.01-.015-.008-.016c-2.626-4.728-6.49-5.093-11.66-5.093h-8.176c-.06 0-.098-.038-.098-.1v-8.355a.99.99 0 0 1 .004-.087.51.51 0 0 1 .094-.01h8.354c5.144 0 8.718-1.842 10.623-5.475 1.498-2.858 1.498-6.024 1.498-7.726 0-8.827-4.53-14.097-12.12-14.097H480.16V540.8h19.054c4.816 0 8.297 0 11.07.636 2.723.624 4.673 1.875 6.52 4.186 1.905 2.34 4.428 6.377 4.428 14.505 0 5.474-1 9.612-3.003 12.3-1.634 2.205-3.64 3.104-5.254 3.826-1.114.484-1.806 1.6-1.806 2.918a3.07 3.07 0 0 0 2.105 2.876c1.507.576 3.972 1.538 6.14 4.137 2.757 3.307 4.154 8.262 4.154 14.73 0 8.164-3 13.077-5.52 15.762l-.013.015-.013.014c-3.95 4.434-12.046 4.434-15.937 4.434h-21.93v-59.125a3.14 3.14 0 0 0-3.137-3.135 3.14 3.14 0 0 0-3.136 3.135v62.26a3.14 3.14 0 0 0 3.136 3.137h25.066c4.797 0 14.776 0 20.53-6.428 3.296-3.6 7.222-9.983 7.222-20.068.005-12.386-4.572-18.74-9.104-21.994zm203.57-357.268h-607.07c-7.696 0-13.957 6.26-13.957 13.956v335.96c0 7.696 6.26 13.957 13.957 13.957h159.98a4.56 4.56 0 0 0 4.557-4.558 4.56 4.56 0 0 0-4.557-4.557h-159.98a4.85 4.85 0 0 1-4.842-4.843V235.6a4.85 4.85 0 0 1 4.842-4.842h607.068a4.85 4.85 0 0 1 4.842 4.842v335.96a4.85 4.85 0 0 1-4.842 4.843H544.5a4.56 4.56 0 0 0-4.558 4.557 4.56 4.56 0 0 0 4.558 4.558h179.815c7.696 0 13.957-6.26 13.957-13.957V235.6c.001-7.696-6.26-13.956-13.956-13.956z" fill="#fff"/></svg>