<svg xmlns="http://www.w3.org/2000/svg" width="851" height="851" viewBox="0 0 850.39 850.39"><path d="M568.027 357.126l-75.716 57.97-75.715-57.97-75.716 57.97-75.716-57.97V291.12l75.716 57.97 75.716-57.97 75.715 57.97 75.716-57.97zm0-85.694L492.31 329.4l-75.715-57.97-75.716 57.97-75.716-57.97v-66.008l75.716 57.97 75.716-57.97 75.715 57.97 75.716-57.97zM367.105 499.39l-8.41 15.4c-1.175 2.13-1.958 5-3.783 6.1-1.77 1.068-4.65.32-7.042.33-4.478.017-8.956.055-13.43-.047-.706-.017-1.723-.537-2.047-1.128l-28.227-51.636c-.084-.154-.102-.345-.19-.66.538-.045 1.01-.118 1.48-.12l17.404-.034c1.24-.015 1.894.37 2.48 1.483l17.7 33.31 1.188 2.152 6.364-11.144 6.006-10.474c.634-1.06.592-1.864.003-2.9l-5.827-10.573c-.29-.532-.535-1.1-.89-1.82l19.833.064c.567.01 1.32.82 1.65 1.438l18 33.63.966 1.726 1.05-1.818 17.675-33.322c.66-1.255 1.372-1.79 2.875-1.765l18.775.044-.98 2.01-27.5 50.1c-.584 1.068-1.228 1.53-2.5 1.518-6.306-.065-12.612-.07-18.917.003-1.353.017-1.994-.504-2.6-1.638l-10-18.398-1.015-1.832zm207.412-31.765h11.46l14.753-.03c1.34-.02 2.18.425 3 1.452l26.906 33.175c.234.3.502.554 1.043 1.147v-35.613H649.3v53.35l-2.023.115c-8.007.008-16.015-.02-24.02.03-1.327.01-2.177-.413-3.015-1.454L593.607 487c-.354-.437-.742-.846-1.432-1.627v35.833h-17.66l.001-53.48zm78.136 53.84v-53.65c.37-.064.722-.18 1.073-.18l52.957.086c1.913.01 3.88.437 5.724.997 6.002 1.824 9.39 6.42 9.44 12.824l-.001 25.91c-.07 7.446-4.817 12.64-12.312 13.583a52.48 52.48 0 0 1-6.397.41l-50.484.018zm17.492-14.64l26.143-.001 6.044-.043c2.745-.14 2.993-.458 2.994-3.155l.001-17.76c0-3.066-.33-3.397-3.496-3.4-9.95-.005-19.902-.003-29.854.003-.605 0-1.2.06-1.832.09v24.265zm-404.488-40.056l21.52.94c6.234.383 11.4 4.377 12.83 9.724.4 1.5.59 3.1.6 4.654l.046 24.775c.096 8.65-5.508 13.643-12.502 14.102-9.98.656-20.004.758-30.01.84-5.086.042-10.196-.274-15.26-.788-6.27-.638-10.906-4.84-12.066-10.5-.212-1.038-.222-2.13-.224-3.196l-.046-25.722c-.138-7.787 5.77-12.705 11.357-13.454 5.286-.708 10.654-.827 15.992-1.1 2.578-.132 5.168-.023 7.753-.023l.01-.242zm.228 15.388c-1.764 0-3.526-.006-5.3.002-3.4.014-6.805-.07-10.197.094-2.338.113-2.722.683-2.724 2.906l-.001 18.515c.001 2.355.29 2.663 2.672 2.862.438.037.88.025 1.32.025l27.772-.012c.937-.002 1.963.033 2.78-.328.638-.28 1.438-1.144 1.447-1.76l.074-20.214c.004-1.152-.465-1.772-1.627-1.86-.876-.064-1.75-.217-2.627-.22l-13.6-.01zm-112.57-.864h-2.155c-12.672 0-25.344-.015-38.016.02-1.237.004-2.505.202-3.704.518-1.31.344-1.882 1.396-1.88 2.73.002 1.372.686 2.333 2.008 2.608 1.407.292 2.856.5 4.292.522l27.772.367c8.476.15 13.224 4.87 13.647 13.817.146 3.107-.08 6.314-.706 9.358-1.19 5.795-4.923 9.035-10.746 9.806a47.07 47.07 0 0 1-6.018.404c-11.727.037-23.454.118-35.178-.04-3.796-.05-7.552-1-10.076-4.22-2.13-2.7-1.814-5.988-1.616-9.388h2.317l38.204-.03c1.292-.005 2.61-.312 3.866-.66 1.386-.386 1.945-1.43 1.892-2.9s-.86-2.27-2.157-2.438a66.8 66.8 0 0 0-6.564-.522l-25.504-.688c-8.173-.3-13.06-5.04-13.384-13.333-.145-3.716.26-7.573 1.163-11.18 1.288-5.147 5.375-8.266 10.654-8.318l40.84.165c6.773.317 12.102 4.354 11.048 13.4zm55.47 21.2H177.06v18.87h-18.435v-53.575h18.413l-.002 16.804c-.001.794-.035 1.53 1.117 1.525l30.078-.062c.1 0 .22-.105.464-.23v-18.018H227.2v53.516h-18.415l.001-18.83zm313.383 10.24l7.333-12.918c.23-.395 1.022-.63 1.563-.646l7.545-.03-7.813-14.406-1.104 1.957-17.508 32.98c-.552 1.047-1.164 1.666-2.422 1.66l-19.236-.015c.19-.457.337-.915.563-1.33l27.918-50.948c.604-1.108 1.303-1.442 2.52-1.43l18.917.006c1.12-.008 1.82.247 2.396 1.315l27.634 51.103c.204.376.377.77.705 1.443h-5.99c-4.414 0-8.828-.034-13.24.024-1.084.014-1.724-.298-2.206-1.295l-3.202-6.195c-.48-.998-1.113-1.306-2.195-1.3l-22.177.025zm-35.08 8.68h-53.05V467.73h18.295v38.75h34.754v14.923zM166.1 571.166c2.212.76 4.163 1.69 6.217 2.083 3.837.735 7.187-1.01 9.026-4.34 2.144-3.877 1.76-8.83-.93-12.046-2.352-2.812-6.577-4.09-9.916-2.858-3.972 1.463-6.14 4.556-6.27 8.617l-.247 27.842h-4.985c-.042-.547-.12-1.088-.12-1.63l.001-25.334c.038-10.372 8.742-16.935 18.743-14.168 6.022 1.665 10.224 7.447 10.218 14.063-.007 8.375-4.74 13.867-12.944 14.874-2.737.336-5.4-.202-7.825-1.54-.47-.26-.865-1.012-.923-1.575-.136-1.307-.043-2.638-.043-3.988zM308.63 536.3h4.913c.055.562.142 1.044.143 1.525l-.035 26.452c-.11 5.9-2.99 10.457-8.334 12.896-5.365 2.448-10.794 1.91-15.393-1.977-4.502-3.806-5.948-8.96-4.905-14.657 1.03-5.63 4.28-9.603 9.91-11.226 3.495-1.007 6.98-.488 10.313.865.5.202 1.06.9 1.115 1.423.153 1.42.053 2.87.053 4.303-1.93-.664-3.705-1.552-5.576-1.87-7.06-1.2-12.268 4.318-10.94 11.43.934 4.997 4.52 8.094 9.4 8.12 4.37.024 8.006-3.175 8.93-7.96.26-1.35.384-2.746.39-4.122l.017-25.203zm295.728 21.455l-19 10.61-2.295-4.134 13.967-7.753c-1.986-2.734-5.942-3.623-9.612-2.26-3.922 1.458-6.42 5.88-5.958 10.55.406 4.11 3.547 7.803 7.23 8.446 2.818.49 5.81.48 7.836-1.573 1.853-1.876 2.945-4.502 4.552-7.085l4.396.673c-.718 7.476-6.66 12.9-14.265 13.262-7.065.334-13.967-4.91-14.96-11.783-1.192-8.24 2.5-14.71 9.644-17.176 7.577-2.62 14.733.536 18.565 8.223zm-367.554 5.972c.134-8.37 6.926-15.164 15.013-15.02 8.365.15 14.915 6.692 14.75 14.73-.172 8.355-6.735 15.18-14.378 14.948-8.7-.26-15.51-6.74-15.384-14.658zm24.224-.233c.3-6.42-4.83-10.535-10.41-9.8-5.954.795-9.455 6.192-8.024 12.22 1.586 6.683 6.685 8.586 12.513 7.005 4-1.06 5.858-4.393 5.92-9.436zM498.1 548.706c8.446-.025 15.145 6.43 15.13 14.578-.015 8.225-6.577 15.27-14.253 15.093-9.28-.213-15.327-6.413-15.49-14.316-.21-10.127 7.896-15.187 14.613-15.355zm9.512 15.52c.127-4.658-1.317-7.776-4.905-9.565-3.422-1.706-6.868-1.46-9.966.8-3.92 2.858-4.923 8.6-2.496 13.285 2.08 4.02 6.753 5.734 11.5 4.225 3.867-1.232 5.836-4.41 5.868-8.744zm116.115 13.453v-4.725l14.048-.008c.682-.002 1.397.003 2.038-.2 1.975-.595 2.527-2.817.915-4.107-1.045-.836-2.383-1.357-3.657-1.845l-9.517-3.506c-2.245-.963-3.687-2.784-3.89-5.38-.41-5.208 2.27-8.195 8.02-8.457 4.525-.207 9.067-.042 13.76-.042v4.912h-8.598c-1.575 0-3.15.005-4.726-.001-1.45-.005-2.688.456-3.063 1.965-.376 1.514.715 2.387 1.892 2.897 1.486.646 3.078 1.045 4.62 1.564 2.135.72 4.354 1.264 6.378 2.22 3.98 1.876 5.468 4.816 4.81 8.843-.52 3.17-2.84 5.495-6.96 5.772-5.3.36-10.663.088-16.067.088zm-86.084.017h-5.008c-.1-.18-.242-.34-.24-.5l.158-18.12c.364-6.138 6-10.625 12.634-10.434 6 .18 11.36 5.097 11.52 11.07l.035 17.904h-5.065l-.082-1.947.006-13.98c.02-2.437-.56-4.635-2.41-6.307-2.093-1.893-4.573-2.436-7.174-1.33-2.78 1.182-4.33 3.4-4.358 6.482l-.016 17.163zm-185.09-28.226h5.258l-.015 15.893a20.81 20.81 0 0 1-.335 3.558c-1.036 5.677-6.427 9.853-12.14 9.456-6.944-.482-11.583-4.817-11.707-11.168l-.023-17.69h4.986v3.667l.015 12.668c.084 4.99 4.014 8.34 8.54 7.384 2.98-.63 5.396-3.752 5.413-7.104l.008-16.663zm82.254 23.374v4.66c-9.506 1.542-16.775-2.578-18.865-10.82-2.078-8.19 4.237-16.83 12.664-17.262 2.004-.103 4.02-.016 6.163-.016v4.912c-1.6 0-3.212-.06-4.816.012-4.4.196-7.864 3.222-8.684 7.516-1.076 5.64 3.013 10.78 8.776 10.99l4.762.01zm-37.78-23.44v4.9c-1.623 0-3.177-.076-4.722.016-3.672.218-6.527 1.884-8.123 5.24-1.625 3.42-1.182 6.756 1.112 9.76 1.743 2.283 4.158 3.4 7.012 3.513 1.503.06 3.01.01 4.657.01v4.696c-9.244 1.655-16.767-2.722-18.82-10.904-2.054-8.19 4.296-16.813 12.72-17.218 2-.097 4.007-.015 6.163-.015zm-190.01.06h4.714l.12 2.396c1.338-.854 2.588-1.927 4.037-2.493 1.407-.55 3.02-.582 4.75-.877v4.9c-.073.048-.123.11-.173.108-6.188-.082-8.188 4.088-8.48 9.743-.212 4.077-.04 8.174-.04 12.263v2.147h-4.928v-28.188zM461.336 577.7h-4.79v-28.202h4.79V577.7zM459.13 546c-1.746.016-3.323-1.52-3.28-3.19.042-1.608 1.402-2.96 3.03-3.012 1.79-.056 3.282 1.412 3.232 3.18-.048 1.678-1.36 3.007-2.982 3.02zm269.752-96.24a9.94 9.94 0 0 1 9.937 9.998c-.03 5.445-4.465 9.915-10.016 9.875-5.465-.04-9.86-4.478-9.86-9.935-.001-5.5 4.47-9.94 9.94-9.938zm.001 19.172c5.107-.005 9.235-4.137 9.233-9.242-.001-5.082-4.12-9.23-9.24-9.23a9.24 9.24 0 0 0-9.23 9.322c.043 5.015 4.128 9.15 9.238 9.15zm-4.677-15.054h4.468a8.79 8.79 0 0 1 1.585.133c.423.077.835.194 1.22.393.67.347 1.095.888 1.273 1.622.12.485.135.977.07 1.468-.074.57-.3 1.084-.696 1.505-.25.258-.54.457-.867.604-.16.072-.327.13-.5.195-.013.005-.025.012-.048.022l.237.076c.4.147.715.41.984.733.3.348.52.735.72 1.14l1.19 2.407.404.822.015.038h-.08c-.967 0-1.934-.001-2.9.002-.06 0-.09-.02-.115-.073l-1.002-2.046-.397-.805c-.127-.247-.275-.48-.45-.7a1.53 1.53 0 0 0-1.056-.576c-.22-.025-.44-.02-.66-.025l-.535-.001v4.22h-2.87l-.001-11.153zm2.873 2.082l-.004.058-.001 2.745c0 .054.016.068.068.067l1.19-.002a2.83 2.83 0 0 0 .793-.101c.423-.12.697-.388.8-.82a2.23 2.23 0 0 0-.01-1.083 1.01 1.01 0 0 0-.675-.73c-.27-.096-.548-.13-.83-.132H727.08z" fill="#fff"/></svg>