<svg xmlns="http://www.w3.org/2000/svg" width="851" height="851" viewBox="0 0 850.39 850.39"><g fill="#fff"><path d="M323.496 356.358l-40.018 142.81c-3.752 13.507-16.758 17.507-26.262 14.756S243.21 502.17 240.7 493.167l-19.76-75.032-19.76 75.032c-2.252 9.004-6.503 18.258-16.257 20.758-9.504 2.5-22.26-.75-26.262-14.756l-40.018-142.81c-3-11.254 3.503-23.01 14.757-26 11.256-3.252 22.76 3.25 26.012 14.506l23.26 82.536 21.5-81.285c2-7.753 9.254-13.006 16.758-13.006 7.753 0 14.756 5.252 17.007 13.006l21.5 81.285 23.01-82.536c3.253-11.256 15.007-17.76 26.262-14.506 11.255 3 18.007 14.756 14.757 26zm195.068 65.78c0 52.022-42.02 94.04-94.04 94.04-51.772 0-94.04-42.017-94.04-94.04s42.267-94.04 94.04-94.04c52.023 0 94.04 42.02 94.04 94.04zm-148.063 0c0 30.013 23.76 54.272 53.772 54.272 29.515 0 54.274-24.76 54.274-54.272s-24.76-54.273-54.274-54.273c-30.012-.001-53.772 24.26-53.772 54.273zm361.144-65.78l-40.017 142.81c-3.75 13.507-16.757 17.507-26.262 14.756s-14.006-11.754-16.507-20.758l-19.757-75.032-19.76 75.032c-2.25 9.004-6.5 18.258-16.257 20.758-9.505 2.5-22.258-.75-26.262-14.756l-40.017-142.81c-3-11.254 3.5-23.01 14.758-26 11.254-3.252 22.758 3.25 26.01 14.506l23.26 82.536 21.51-81.285c2.002-7.753 9.256-13.006 16.76-13.006 7.75 0 14.755 5.252 17.006 13.006l21.51 81.285 23.01-82.536c3.25-11.256 15.005-17.76 26.26-14.506 11.258 3 18.01 14.756 14.758 26z"/><circle cx="377.209" cy="285.703" r="22.997"/><circle cx="471.84" cy="285.703" r="22.997"/><path d="M231.655 589.042v-.12c0-12.012 9.354-21.85 22.15-21.85 7.604 0 12.19 2.052 16.6 5.794l-5.855 7.06c-3.26-2.715-6.156-4.284-11.044-4.284-6.76 0-12.133 5.974-12.133 13.158v.12c0 7.726 5.312 13.4 12.795 13.4 3.38 0 6.398-.846 8.753-2.535v-6.035h-9.356v-8.03h18.35v18.348c-4.346 3.684-10.32 6.7-18.045 6.7-13.158 0-22.212-9.236-22.212-21.728zm87.83-21.55h8.57l18.106 42.552h-9.72l-3.862-9.477h-17.865l-3.863 9.477h-9.475l18.108-42.552zm9.778 24.866l-5.614-13.7-5.612 13.7h11.226zm47.57-24.562h19.313c5.373 0 9.536 1.507 12.313 4.283 2.355 2.355 3.622 5.674 3.622 9.657v.12c0 6.82-3.68 11.104-9.054 13.1l10.322 15.088h-10.864l-9.053-13.52h-7.305v13.52h-9.295v-42.248zm18.7 20.52c4.528 0 7.122-2.414 7.122-5.977v-.12c0-3.984-2.776-6.036-7.302-6.036h-9.235v12.133h9.415zm63.567-20.824h8.57l18.106 42.552h-9.716l-3.862-9.477h-17.865l-3.863 9.477h-9.478l18.108-42.552zm9.778 24.866l-5.61-13.7-5.615 13.7h11.226zm42.987-3.317v-.12c0-12.012 9.354-21.85 22.148-21.85 7.605 0 12.192 2.052 16.597 5.794l-5.853 7.06c-3.26-2.715-6.157-4.284-11.047-4.284-6.76 0-12.13 5.974-12.13 13.158v.12c0 7.726 5.312 13.4 12.795 13.4 3.38 0 6.398-.846 8.75-2.535v-6.035h-9.354v-8.03h18.35v18.348c-4.346 3.684-10.32 6.7-18.045 6.7-13.16 0-22.2-9.236-22.2-21.728zm73.342-21.245h31.867v8.267h-22.632v8.57h19.915v8.27h-19.915v8.87h22.936v8.27h-32.17v-42.25z"/></g></svg>