<?xml version="1.0" encoding="utf-8"?>
<!-- Generator: Adobe Illustrator 16.0.0, SVG Export Plug-In . SVG Version: 6.00 Build 0)  -->
<!DOCTYPE svg PUBLIC "-//W3C//DTD SVG 1.1//EN" "http://www.w3.org/Graphics/SVG/1.1/DTD/svg11.dtd">
<svg version="1.1" xmlns="http://www.w3.org/2000/svg" xmlns:xlink="http://www.w3.org/1999/xlink" x="0px" y="0px"
	 width="850.39px" height="850.39px" viewBox="0 0 850.39 850.39" enable-background="new 0 0 850.39 850.39" xml:space="preserve">
<g id="Capa_1" display="none">
	<rect display="inline" width="1734.255" height="1734.255"/>
</g>
<g id="Capa_5" display="none">
	<g id="XMLID_1522_" display="inline">
		<polygon id="XMLID_2190_" fill="#FFFFFF" points="1451.893,1240.991 1376.176,1298.961 1300.461,1240.991 1224.745,1298.961 
			1149.029,1240.991 1149.029,1174.984 1224.745,1232.954 1300.461,1174.984 1376.176,1232.954 1451.893,1174.984 		"/>
		<polygon id="XMLID_2189_" fill="#FFFFFF" points="1451.893,1155.297 1376.176,1213.267 1300.461,1155.297 1224.745,1213.267 
			1149.029,1155.297 1149.029,1089.289 1224.745,1147.26 1300.461,1089.289 1376.176,1147.26 1451.893,1089.289 		"/>
		<g id="XMLID_1253_">
			<g id="XMLID_1281_">
				<path id="XMLID_1332_" fill="#FFFFFF" d="M1250.971,1383.256c-2.876,5.271-5.625,10.346-8.411,15.399
					c-1.175,2.131-1.958,5.001-3.783,6.101c-1.771,1.068-4.65,0.32-7.042,0.33c-4.478,0.017-8.956,0.055-13.431-0.047
					c-0.706-0.017-1.723-0.537-2.047-1.127c-9.453-17.188-18.837-34.413-28.227-51.636c-0.084-0.154-0.102-0.345-0.189-0.661
					c0.538-0.045,1.009-0.118,1.479-0.119c5.802-0.008,11.604,0.031,17.404-0.034c1.241-0.015,1.894,0.37,2.48,1.483
					c5.863,11.123,11.79,22.212,17.701,33.309c0.344,0.645,0.705,1.278,1.188,2.152c2.21-3.869,4.288-7.506,6.364-11.144
					c1.994-3.495,3.94-7.021,6.006-10.474c0.634-1.059,0.592-1.864,0.003-2.899c-1.99-3.497-3.897-7.042-5.827-10.573
					c-0.291-0.532-0.535-1.09-0.891-1.821c6.746,0,13.29-0.037,19.833,0.064c0.567,0.009,1.319,0.82,1.65,1.438
					c5.997,11.193,11.942,22.414,17.9,33.629c0.265,0.498,0.551,0.985,0.966,1.726c0.406-0.702,0.747-1.25,1.049-1.818
					c5.902-11.102,11.818-22.196,17.675-33.322c0.661-1.255,1.372-1.791,2.875-1.765c6.167,0.105,12.336,0.044,18.775,0.044
					c-0.398,0.821-0.66,1.432-0.979,2.011c-9.173,16.698-18.36,33.389-27.51,50.101c-0.584,1.068-1.228,1.531-2.49,1.518
					c-6.306-0.065-12.612-0.071-18.917,0.003c-1.353,0.017-1.994-0.504-2.599-1.638c-3.284-6.157-6.651-12.271-9.99-18.398
					C1251.691,1384.543,1251.386,1384.003,1250.971,1383.256z"/>
				<path id="XMLID_1331_" fill="#FFFFFF" d="M1458.382,1351.491c3.907,0,7.683,0,11.459,0c4.918,0,9.837,0.047,14.753-0.031
					c1.339-0.021,2.181,0.425,3.01,1.452c8.941,11.081,17.929,22.124,26.906,33.175c0.234,0.29,0.502,0.554,1.043,1.147
					c0-12.066,0-23.775,0-35.613c6,0,11.759,0,17.622,0c0,17.749,0,35.441,0,53.35c-0.699,0.042-1.361,0.114-2.023,0.115
					c-8.007,0.008-16.015-0.021-24.021,0.031c-1.327,0.009-2.177-0.413-3.015-1.454c-8.85-10.992-17.752-21.94-26.644-32.898
					c-0.354-0.437-0.742-0.846-1.432-1.627c0,12.174,0,23.944,0,35.833c-6.025,0-11.786,0-17.659,0
					C1458.382,1387.172,1458.382,1369.482,1458.382,1351.491z"/>
				<path id="XMLID_1328_" fill="#FFFFFF" d="M1536.519,1405.33c0-18.018,0-35.779,0-53.649c0.371-0.064,0.722-0.18,1.073-0.18
					c17.652,0.008,35.305-0.005,52.957,0.086c1.913,0.01,3.881,0.437,5.724,0.997c6.002,1.824,9.389,6.42,9.44,12.824
					c0.07,8.636,0.08,17.274-0.001,25.911c-0.07,7.446-4.817,12.639-12.312,13.583c-2.117,0.266-4.264,0.405-6.397,0.41
					c-16.266,0.032-32.532,0.018-48.798,0.018C1537.71,1405.33,1537.214,1405.33,1536.519,1405.33z M1554.01,1390.689
					c0.85,0,1.592,0,2.335,0c7.936,0,15.871,0.002,23.808-0.001c2.015-0.001,4.033,0.06,6.044-0.043
					c2.745-0.141,2.993-0.458,2.994-3.155c0.002-5.92,0.001-11.84,0.001-17.761c0-3.066-0.331-3.397-3.496-3.399
					c-9.951-0.005-19.902-0.003-29.854,0.003c-0.605,0-1.21,0.059-1.832,0.091C1554.01,1374.574,1554.01,1382.545,1554.01,1390.689z
					"/>
				<path id="XMLID_1325_" fill="#FFFFFF" d="M1149.522,1350.633c7.174,0.303,14.354,0.5,21.519,0.94
					c6.234,0.383,11.401,4.377,12.831,9.724c0.401,1.5,0.589,3.099,0.6,4.654c0.058,8.258-0.045,16.518,0.046,24.775
					c0.096,8.651-5.508,13.643-12.502,14.102c-9.98,0.656-20.004,0.758-30.011,0.841c-5.086,0.042-10.196-0.274-15.26-0.788
					c-6.271-0.638-10.906-4.84-12.066-10.51c-0.212-1.038-0.222-2.129-0.224-3.196c-0.018-8.574,0.106-17.15-0.046-25.722
					c-0.138-7.787,5.769-12.705,11.357-13.454c5.286-0.708,10.654-0.827,15.992-1.101c2.578-0.132,5.168-0.023,7.753-0.023
					C1149.516,1350.795,1149.519,1350.713,1149.522,1350.633z M1149.75,1366.021c-1.764,0-3.526-0.006-5.29,0.002
					c-3.399,0.014-6.805-0.071-10.197,0.094c-2.338,0.113-2.722,0.683-2.724,2.906c-0.006,6.171-0.004,12.343-0.001,18.515
					c0.001,2.355,0.289,2.663,2.672,2.862c0.438,0.037,0.881,0.025,1.321,0.025c9.258,0.001,18.515,0.009,27.772-0.012
					c0.937-0.002,1.963,0.033,2.781-0.328c0.638-0.281,1.438-1.144,1.447-1.759c0.103-6.736,0.054-13.476,0.074-20.214
					c0.004-1.152-0.465-1.772-1.627-1.859c-0.876-0.064-1.751-0.217-2.627-0.221
					C1158.818,1366.01,1154.284,1366.022,1149.75,1366.021z"/>
				<path id="XMLID_1324_" fill="#FFFFFF" d="M1037.18,1365.157c-0.789,0-1.473,0-2.155,0c-12.672,0-25.344-0.015-38.016,0.021
					c-1.237,0.004-2.505,0.202-3.704,0.518c-1.309,0.344-1.882,1.396-1.88,2.731c0.002,1.372,0.686,2.333,2.008,2.608
					c1.407,0.292,2.856,0.499,4.292,0.522c9.257,0.152,18.516,0.201,27.772,0.367c8.476,0.151,13.224,4.87,13.647,13.817
					c0.146,3.107-0.081,6.314-0.706,9.358c-1.189,5.795-4.923,9.035-10.746,9.806c-1.99,0.263-4.011,0.398-6.018,0.404
					c-11.727,0.037-23.454,0.118-35.178-0.039c-3.796-0.05-7.552-1.01-10.076-4.221c-2.131-2.71-1.814-5.988-1.616-9.388
					c0.835,0,1.576,0,2.317,0c12.735,0,25.47,0.019,38.204-0.029c1.292-0.005,2.611-0.312,3.866-0.661
					c1.386-0.386,1.945-1.43,1.892-2.89c-0.053-1.46-0.861-2.271-2.157-2.438c-2.175-0.282-4.372-0.456-6.564-0.522
					c-8.501-0.254-17.006-0.366-25.504-0.688c-8.173-0.31-13.061-5.039-13.384-13.333c-0.145-3.716,0.261-7.573,1.163-11.18
					c1.288-5.147,5.375-8.266,10.654-8.318c13.615-0.135,27.253-0.47,40.841,0.165
					C1032.904,1352.084,1038.233,1356.121,1037.18,1365.157z"/>
				<path id="XMLID_1323_" fill="#FFFFFF" d="M1092.65,1386.348c-10.669,0-21.097,0-31.726,0c0,6.337,0,12.55,0,18.87
					c-6.229,0-12.258,0-18.435,0c0-17.81,0-35.616,0-53.575c6.051,0,12.118,0,18.413,0c0,2.217,0,4.402,0,6.588
					c0,3.405,0.005,6.811-0.002,10.216c-0.001,0.794-0.035,1.529,1.117,1.525c10.026-0.03,20.052-0.038,30.078-0.062
					c0.11,0,0.22-0.105,0.464-0.23c0-5.902,0-11.875,0-18.018c6.203,0,12.275,0,18.505,0c0,17.747,0,35.556,0,53.516
					c-6.013,0-12.093,0-18.415,0C1092.65,1398.952,1092.65,1392.688,1092.65,1386.348z"/>
				<path id="XMLID_1322_" fill="#FFFFFF" d="M1406.033,1396.588c2.56-4.541,4.901-8.756,7.333-12.918
					c0.23-0.395,1.022-0.63,1.563-0.646c2.383-0.068,4.769-0.029,7.545-0.029c-2.643-4.872-5.137-9.471-7.813-14.406
					c-0.466,0.825-0.799,1.384-1.104,1.957c-5.844,10.989-11.697,21.974-17.508,32.98c-0.552,1.047-1.164,1.666-2.422,1.659
					c-6.363-0.032-12.726-0.015-19.236-0.015c0.191-0.457,0.337-0.915,0.563-1.329c9.31-16.98,18.638-33.951,27.918-50.948
					c0.604-1.108,1.303-1.442,2.521-1.431c6.305,0.061,12.611,0.052,18.917,0.006c1.12-0.008,1.82,0.247,2.396,1.315
					c9.185,17.049,18.416,34.072,27.634,51.103c0.204,0.376,0.377,0.769,0.705,1.443c-2.153,0-4.072,0-5.991,0
					c-4.414,0-8.828-0.034-13.241,0.024c-1.084,0.014-1.724-0.298-2.206-1.295c-1.013-2.092-2.194-4.102-3.202-6.195
					c-0.48-0.998-1.113-1.306-2.195-1.3C1420.96,1396.609,1413.711,1396.588,1406.033,1396.588z"/>
				<path id="XMLID_1282_" fill="#FFFFFF" d="M1370.953,1405.269c-17.737,0-35.317,0-53.049,0c0-17.865,0-35.718,0-53.674
					c6.057,0,12.083,0,18.295,0c0,12.831,0,25.66,0,38.751c11.668,0,23.154,0,34.754,0
					C1370.953,1395.426,1370.953,1400.245,1370.953,1405.269z"/>
			</g>
			<g id="XMLID_1261_">
				<path id="XMLID_1280_" fill="#FFFFFF" d="M1049.964,1455.031c2.212,0.761,4.163,1.689,6.217,2.083
					c3.837,0.735,7.187-1.011,9.026-4.341c2.144-3.877,1.761-8.829-0.931-12.046c-2.352-2.812-6.577-4.089-9.916-2.858
					c-3.972,1.463-6.139,4.556-6.271,8.617c-0.276,8.497-0.188,17.006-0.246,25.51c-0.006,0.742-0.001,1.484-0.001,2.332
					c-1.744,0-3.286,0-4.985,0c-0.042-0.547-0.119-1.088-0.12-1.63c-0.008-8.444-0.029-16.89,0.001-25.334
					c0.038-10.372,8.742-16.935,18.743-14.168c6.022,1.665,10.224,7.447,10.218,14.063c-0.007,8.375-4.741,13.867-12.944,14.874
					c-2.737,0.336-5.399-0.202-7.825-1.539c-0.469-0.259-0.865-1.012-0.923-1.575
					C1049.871,1457.712,1049.964,1456.381,1049.964,1455.031z"/>
				<path id="XMLID_1279_" fill="#FFFFFF" d="M1192.494,1420.164c1.817,0,3.31,0,4.913,0c0.055,0.562,0.142,1.044,0.143,1.525
					c0.009,8.818,0.128,17.638-0.035,26.452c-0.109,5.901-2.989,10.457-8.334,12.896c-5.365,2.448-10.794,1.911-15.393-1.977
					c-4.502-3.806-5.948-8.96-4.905-14.657c1.031-5.63,4.28-9.603,9.909-11.226c3.495-1.007,6.98-0.488,10.313,0.865
					c0.499,0.202,1.059,0.901,1.115,1.423c0.153,1.421,0.053,2.869,0.053,4.303c-1.931-0.664-3.705-1.552-5.576-1.87
					c-7.06-1.199-12.268,4.318-10.939,11.43c0.934,4.997,4.519,8.094,9.399,8.121c4.369,0.024,8.006-3.175,8.929-7.96
					c0.261-1.35,0.384-2.746,0.391-4.122c0.036-7.684,0.018-15.367,0.018-23.051
					C1192.494,1421.639,1192.494,1420.962,1192.494,1420.164z"/>
				<path id="XMLID_1278_" fill="#FFFFFF" d="M1488.223,1441.619c-6.392,3.55-12.646,7.024-19.1,10.609
					c-0.729-1.315-1.441-2.598-2.295-4.134c4.695-2.606,9.324-5.176,13.967-7.753c-1.986-2.734-5.942-3.623-9.612-2.259
					c-3.922,1.458-6.419,5.88-5.958,10.55c0.406,4.111,3.547,7.803,7.231,8.446c2.818,0.491,5.809,0.479,7.836-1.573
					c1.853-1.876,2.945-4.502,4.552-7.085c1.143,0.175,2.779,0.425,4.396,0.673c-0.718,7.476-6.661,12.901-14.265,13.262
					c-7.065,0.334-13.967-4.911-14.961-11.783c-1.192-8.24,2.51-14.709,9.644-17.176
					C1477.234,1430.776,1484.391,1433.933,1488.223,1441.619z"/>
				<path id="XMLID_1275_" fill="#FFFFFF" d="M1120.668,1447.591c0.134-8.369,6.926-15.164,15.013-15.019
					c8.365,0.15,14.915,6.692,14.749,14.729c-0.172,8.355-6.735,15.179-14.378,14.948
					C1127.342,1461.988,1120.541,1455.508,1120.668,1447.591z M1144.893,1447.358c0.29-6.42-4.829-10.535-10.409-9.79
					c-5.954,0.795-9.455,6.192-8.024,12.221c1.586,6.683,6.685,8.586,12.513,7.005
					C1142.872,1455.735,1144.83,1452.401,1144.893,1447.358z"/>
				<path id="XMLID_1271_" fill="#FFFFFF" d="M1381.966,1432.571c8.446-0.025,15.145,6.429,15.129,14.578
					c-0.015,8.225-6.577,15.269-14.253,15.093c-9.279-0.213-15.327-6.413-15.489-14.316
					C1367.145,1437.799,1375.249,1432.739,1381.966,1432.571z M1391.479,1448.09c0.127-4.658-1.317-7.776-4.905-9.565
					c-3.422-1.706-6.868-1.459-9.966,0.799c-3.921,2.858-4.923,8.599-2.496,13.285c2.081,4.019,6.753,5.734,11.499,4.225
					C1389.478,1455.603,1391.446,1452.425,1391.479,1448.09z"/>
				<path id="XMLID_1270_" fill="#FFFFFF" d="M1507.593,1461.543c0-1.598,0-3.072,0-4.725c4.757,0,9.402,0.007,14.048-0.008
					c0.682-0.002,1.397,0.003,2.038-0.19c1.975-0.595,2.527-2.817,0.915-4.107c-1.045-0.836-2.383-1.357-3.657-1.845
					c-3.158-1.206-6.414-2.175-9.517-3.506c-2.245-0.963-3.687-2.784-3.891-5.379c-0.409-5.208,2.271-8.195,8.021-8.457
					c4.525-0.207,9.067-0.042,13.76-0.042c0,1.59,0,3.12,0,4.912c-2.85,0-5.724,0-8.598,0c-1.575,0-3.15,0.005-4.726-0.001
					c-1.451-0.005-2.688,0.456-3.063,1.965c-0.376,1.514,0.715,2.387,1.892,2.897c1.486,0.646,3.078,1.045,4.619,1.564
					c2.135,0.72,4.354,1.264,6.378,2.219c3.979,1.876,5.468,4.816,4.809,8.843c-0.52,3.17-2.841,5.495-6.961,5.772
					C1518.351,1461.814,1512.997,1461.543,1507.593,1461.543z"/>
				<path id="XMLID_1269_" fill="#FFFFFF" d="M1421.509,1461.561c-1.868,0-3.428,0-5.008,0c-0.09-0.179-0.242-0.339-0.241-0.5
					c0.021-6.041-0.2-12.098,0.158-18.12c0.364-6.138,6.1-10.625,12.634-10.434c6.1,0.179,11.359,5.097,11.52,11.069
					c0.159,5.914,0.035,11.834,0.035,17.904c-1.645,0-3.242,0-5.065,0c-0.027-0.615-0.082-1.281-0.082-1.947
					c-0.008-4.66-0.029-9.32,0.006-13.98c0.019-2.437-0.56-4.635-2.409-6.307c-2.093-1.893-4.573-2.436-7.174-1.33
					c-2.78,1.182-4.331,3.4-4.358,6.482c-0.046,4.975-0.014,9.95-0.015,14.925
					C1421.509,1460.008,1421.509,1460.693,1421.509,1461.561z"/>
				<path id="XMLID_1267_" fill="#FFFFFF" d="M1236.42,1433.334c1.83,0,3.438,0,5.258,0c0,5.346,0.021,10.619-0.015,15.893
					c-0.009,1.188-0.122,2.39-0.335,3.558c-1.036,5.677-6.427,9.853-12.139,9.456c-6.944-0.482-11.583-4.817-11.707-11.168
					c-0.114-5.851-0.023-11.705-0.023-17.691c1.622,0,3.162,0,4.986,0c0,1.202,0,2.435,0,3.667c0,4.223-0.056,8.446,0.015,12.668
					c0.084,4.989,4.014,8.34,8.539,7.384c2.98-0.631,5.396-3.752,5.413-7.104C1236.44,1444.518,1236.42,1439.039,1236.42,1433.334z"
					/>
				<path id="XMLID_1266_" fill="#FFFFFF" d="M1318.674,1456.708c0,1.709,0,3.19,0,4.659c-9.506,1.542-16.775-2.578-18.865-10.821
					c-2.078-8.191,4.237-16.829,12.664-17.262c2.004-0.103,4.019-0.016,6.163-0.016c0,1.583,0,3.06,0,4.912
					c-1.601,0-3.212-0.06-4.816,0.012c-4.4,0.196-7.864,3.222-8.684,7.516c-1.076,5.641,3.013,10.779,8.776,10.991
					C1315.467,1456.757,1317.025,1456.708,1318.674,1456.708z"/>
				<path id="XMLID_1265_" fill="#FFFFFF" d="M1280.896,1433.269c0,1.712,0,3.142,0,4.901c-1.623,0-3.177-0.076-4.722,0.016
					c-3.672,0.218-6.527,1.884-8.123,5.239c-1.625,3.419-1.182,6.756,1.112,9.761c1.743,2.283,4.158,3.399,7.012,3.513
					c1.503,0.06,3.011,0.011,4.657,0.011c0,1.651,0,3.178,0,4.696c-9.244,1.655-16.767-2.722-18.819-10.904
					c-2.054-8.189,4.296-16.813,12.72-17.218C1276.731,1433.187,1278.739,1433.269,1280.896,1433.269z"/>
				<path id="XMLID_1264_" fill="#FFFFFF" d="M1090.884,1433.328c1.618,0,3.106,0,4.714,0c0.044,0.866,0.084,1.66,0.121,2.396
					c1.338-0.854,2.588-1.927,4.037-2.493c1.407-0.551,3.019-0.582,4.751-0.877c0,1.862,0,3.389,0,4.901
					c-0.073,0.048-0.123,0.109-0.173,0.108c-6.188-0.082-8.188,4.088-8.481,9.743c-0.212,4.077-0.041,8.174-0.041,12.263
					c0,0.678,0,1.356,0,2.147c-1.716,0-3.256,0-4.928,0C1090.884,1452.174,1090.884,1442.841,1090.884,1433.328z"/>
				<path id="XMLID_1263_" fill="#FFFFFF" d="M1345.201,1461.565c-1.65,0-3.146,0-4.789,0c0-9.405,0-18.746,0-28.202
					c1.565,0,3.11,0,4.789,0C1345.201,1442.711,1345.201,1452.057,1345.201,1461.565z"/>
				<path id="XMLID_1262_" fill="#FFFFFF" d="M1342.995,1429.865c-1.746,0.016-3.323-1.519-3.28-3.189
					c0.042-1.608,1.402-2.96,3.03-3.012c1.789-0.056,3.282,1.412,3.232,3.18C1345.93,1428.522,1344.618,1429.852,1342.995,1429.865z
					"/>
			</g>
			<g id="XMLID_1254_">
				<path id="XMLID_1258_" fill="#FFFFFF" d="M1612.747,1333.625c5.509,0.002,9.969,4.481,9.937,9.998
					c-0.031,5.445-4.465,9.915-10.016,9.875c-5.465-0.04-9.859-4.478-9.86-9.935
					C1602.808,1338.053,1607.277,1333.623,1612.747,1333.625z M1612.748,1352.797c5.107-0.005,9.235-4.137,9.233-9.242
					c-0.001-5.082-4.12-9.229-9.241-9.229c-5.133,0.001-9.275,4.193-9.23,9.322
					C1603.554,1348.663,1607.639,1352.797,1612.748,1352.797z"/>
				<path id="XMLID_1255_" fill="#FFFFFF" d="M1608.071,1337.743c0.027,0,0.053,0,0.077,0c1.464,0,2.928,0,4.391,0
					c0.532,0,1.062,0.037,1.585,0.133c0.423,0.077,0.835,0.194,1.22,0.393c0.671,0.347,1.095,0.888,1.273,1.622
					c0.119,0.485,0.135,0.977,0.071,1.468c-0.074,0.571-0.29,1.084-0.696,1.505c-0.25,0.258-0.541,0.457-0.867,0.604
					c-0.16,0.072-0.327,0.13-0.49,0.195c-0.013,0.005-0.025,0.012-0.048,0.022c0.086,0.027,0.163,0.049,0.237,0.076
					c0.4,0.147,0.715,0.411,0.984,0.733c0.29,0.348,0.519,0.735,0.72,1.139c0.399,0.801,0.795,1.604,1.191,2.407
					c0.135,0.273,0.27,0.548,0.404,0.822c0.004,0.01,0.008,0.02,0.015,0.038c-0.031,0-0.055,0-0.079,0
					c-0.967,0-1.934-0.001-2.899,0.002c-0.061,0-0.089-0.021-0.115-0.073c-0.332-0.683-0.667-1.364-1.002-2.046
					c-0.132-0.269-0.261-0.538-0.397-0.805c-0.127-0.247-0.275-0.481-0.451-0.699c-0.274-0.338-0.629-0.528-1.056-0.576
					c-0.219-0.025-0.44-0.021-0.661-0.025c-0.176-0.003-0.352-0.001-0.535-0.001c0,1.409,0,2.812,0,4.219c-0.96,0-1.913,0-2.871,0
					C1608.071,1345.184,1608.071,1341.47,1608.071,1337.743z M1610.944,1339.825c-0.002,0.024-0.004,0.041-0.004,0.058
					c0,0.915,0.001,1.83-0.001,2.745c0,0.054,0.016,0.068,0.068,0.067c0.396-0.002,0.794,0,1.191-0.002
					c0.268,0,0.533-0.026,0.793-0.101c0.423-0.121,0.697-0.388,0.799-0.821c0.084-0.361,0.084-0.725-0.01-1.083
					c-0.095-0.36-0.322-0.604-0.675-0.73c-0.269-0.096-0.548-0.13-0.831-0.132c-0.425-0.002-0.85-0.001-1.274-0.001
					C1610.984,1339.825,1610.968,1339.825,1610.944,1339.825z"/>
			</g>
		</g>
	</g>
</g>
<g id="Capa_2">
	<g id="XMLID_566_">
		<g id="XMLID_311_">
			<path id="XMLID_321_" fill="#FFFFFF" d="M224.585,379.935c-11.434-3.603-25.082,7.192-25.082,7.192l2.029-5.902h-18.258
				l-25.635,60.124c-30.984,0-71.927,49.058-36.148,51.271s54.959-50.902,54.959-50.902c2.213,7.009,11.434,9.222,11.434,9.222
				c25.267,3.136,39.5-26.454,44.631-37.623C238.786,399.668,238.048,384.176,224.585,379.935z M127.567,478.404
				c-16.158-0.697,14.542-25.99,26.014-25.99C153.581,452.414,143.725,479.103,127.567,478.404z M213.52,416.82
				c0,0-8.115,19.918-23.238,19.918c-14.386,0-3.873-22.869-3.873-22.869s10.881-23.976,26.004-23.976
				C225.151,389.894,213.52,416.82,213.52,416.82z"/>
			<path id="XMLID_318_" fill="#FFFFFF" d="M346.614,404.217c-12.787,0-23.176,11.68-23.176,11.68l19.918-46.106h-15.86
				c0,0-21.763,50.533-26.004,59.386c-4.242,8.852-23.053,28.032-23.053,28.032c-5.533-0.185-1.476-9.037-1.476-9.037l17.336-40.205
				l-16.045,0.922c-1.106,4.426-24.713,50.717-35.594,50.717s14.938-49.057,14.938-49.057L241,411.656
				c0,0-4.242,11.988-11.435,28.586c-7.193,16.598-16.604,43.337-4.979,43.34c18.504,0.005,31.168-22.5,31.168-22.5
				s-11.065,23.054,1.106,22.5c12.172-0.554,31.537-26.004,31.537-26.004l-9.037,22.685h15.676l5.349-13.095
				c-0.553,2.951,4.795,11.25,12.172,11.25c7.377,0,28.402-12.726,37.746-31.905C359.647,427.332,359.401,404.217,346.614,404.217z
				 M332.614,443.721c-6.672,12.453-15.545,20.691-19.82,18.401c-4.274-2.29-2.33-14.241,4.342-26.694
				c6.672-12.453,15.546-20.691,19.82-18.401C341.23,419.316,339.287,431.269,332.614,443.721z"/>
			<path id="XMLID_317_" fill="#FFFFFF" d="M389.863,364.282l15.984-0.983l-33.197,76.722c0,0-3.197,8.606,0,8.853
				c3.196,0.246,31.721-26.804,37.623-50.41l15.738-1.229l-18.689,44.263c0,0-2.213,5.655,0.738,5.655s41.804-47.705,41.804-47.705
				v9.836l-41.558,50.41c0,0-11.558,11.804-21.148,11.804c-9.59,0,4.426-29.509,4.426-29.509s-28.279,31.476-38.853,31.476
				s4.672-33.935,8.853-43.771C365.765,419.856,389.863,364.282,389.863,364.282z"/>
			
				<ellipse id="XMLID_316_" transform="matrix(0.9121 0.41 -0.41 0.9121 189.7025 -142.3938)" fill="#FFFFFF" cx="426.899" cy="371.17" rx="9.605" ry="13.506"/>
			<path id="XMLID_313_" fill="#FFFFFF" d="M475.731,361.062l-6.24,12.827l34.027-1.882l-20.409,44.639
				c-26.313-0.605-64.427,51.262-35.469,51.262s47.764-39.837,47.764-39.837l25.327-57.664l29.878-1.599l4.672-12.664
				L475.731,361.062z M451.142,456.84c-13.669,0,15.123-30.43,28.955-31.167C480.097,425.672,464.81,456.84,451.142,456.84z"/>
			<path id="XMLID_312_" fill="#FFFFFF" d="M528.231,378.274c0,0,10.451,0.369,9.345,8.976c0,0-0.738,3.565-2.828,5.164
				c-2.09,1.598-3.565,5.655-2.705,7.623c0.861,1.967,12.173,2.705,12.173,2.705s4.18-0.492,2.581,4.18
				c-1.598,4.672-10.266,24.099-10.266,24.099s-2.582,6.086-0.922,6.455c1.659,0.369,26.926-20.226,34.303-49.242l14.754-0.492
				l-14.508,34.918c0,0-6.517,12.234,0.86,12.418s29.324-29.877,34.304-48.689l15.308-1.106l-15.308,35.594
				c0,0-4.979,11.804-1.845,11.804c3.136,0,12.541-13.095,12.541-13.095s13.832-36.517,36.147-36.517
				c22.316,0,14.017,26.927,8.3,33.75c0,0-5.533,2.029-11.619-4.795c0,0,10.513-15.492,6.086-17.151
				c-4.426-1.66-19.364,15.123-21.946,23.606s-4.242,21.024,4.795,22.5s30.615-14.201,37.254-28.955
				C681.675,397.271,703.99,346,703.99,346h14.754l-22.868,52.377l22.868-20.287h20.472l-24.713,20.103
				c0,0,13.463,3.688,11.987,15.308c0,0-0.553,4.426-1.476,6.455c-0.922,2.028-1.844,3.504-0.737,4.057s7.377-8.115,13.463-8.115
				s9.59,4.058,9.222,13.463c-0.369,9.406-9.222,30.984-32.091,33.75c-22.868,2.767-139.795,11.804-183.688,39.468l-51.086-24.713
				l222.972-21.025c0,0,35.594-3.319,38.914-22.5c0,0,2.582-8.852-2.951-9.037c-5.532-0.184-22.315,21.947-27.849,21.947
				c-5.532,0-12.725-1.66-7.93-12.356c4.795-10.697,7.746-21.947,1.659-22.315c-6.086-0.369-22.5,15.491-31.353,37.254
				l-15.491,1.291l4.057-10.328c0,0-14.938,12.91-28.954,12.91s-20.814-10.697-19.629-19.365c0,0-15.781,23.054-27.77,22.869
				c-11.987-0.185-2.581-20.471-2.581-20.471S565.117,458.5,553.129,458.5c-11.987,0-6.086-19.733-6.086-19.733
				s-16.229,22.5-30.799,22.5s18.627-49.795,12.91-52.193c-5.718-2.397-19.837-9.901-15.82-21.826
				C517.351,375.324,528.231,378.274,528.231,378.274z"/>
		</g>
		<g id="XMLID_444_">
			<path id="XMLID_448_" fill="#FFFFFF" d="M746.989,459.181c4.837,0.002,8.753,3.936,8.725,8.779
				c-0.027,4.781-3.92,8.706-8.794,8.671c-4.798-0.035-8.657-3.932-8.657-8.723C738.262,463.068,742.188,459.18,746.989,459.181z
				 M746.99,476.015c4.484-0.004,8.109-3.632,8.107-8.115c-0.001-4.462-3.618-8.104-8.114-8.103
				c-4.507,0.001-8.145,3.683-8.105,8.186C738.917,472.386,742.504,476.016,746.99,476.015z"/>
			<path id="XMLID_445_" fill="#FFFFFF" d="M742.884,462.797c0.024,0,0.046,0,0.068,0c1.285,0,2.57,0,3.854,0
				c0.468,0,0.932,0.033,1.392,0.117c0.372,0.067,0.733,0.17,1.071,0.345c0.589,0.304,0.961,0.779,1.118,1.424
				c0.104,0.427,0.118,0.857,0.063,1.289c-0.065,0.501-0.255,0.951-0.611,1.321c-0.22,0.227-0.476,0.401-0.762,0.53
				c-0.141,0.063-0.287,0.115-0.431,0.172c-0.011,0.004-0.021,0.011-0.042,0.02c0.076,0.024,0.144,0.043,0.209,0.067
				c0.352,0.129,0.627,0.36,0.864,0.644c0.254,0.306,0.455,0.646,0.632,1c0.351,0.703,0.697,1.408,1.046,2.113
				c0.119,0.24,0.236,0.481,0.354,0.723c0.004,0.008,0.007,0.017,0.014,0.033c-0.027,0-0.049,0-0.07,0
				c-0.849,0-1.697-0.001-2.546,0.001c-0.053,0-0.077-0.018-0.1-0.063c-0.293-0.6-0.587-1.198-0.881-1.797
				c-0.115-0.235-0.229-0.473-0.349-0.706c-0.112-0.218-0.242-0.424-0.396-0.614c-0.24-0.297-0.552-0.464-0.927-0.507
				c-0.191-0.021-0.387-0.018-0.58-0.021c-0.155-0.003-0.31,0-0.471,0c0,1.236,0,2.468,0,3.704c-0.843,0-1.679,0-2.521,0
				C742.884,469.33,742.884,466.069,742.884,462.797z M745.406,464.625c-0.001,0.021-0.003,0.036-0.003,0.051
				c0,0.804,0,1.607-0.001,2.41c0,0.047,0.014,0.06,0.06,0.06c0.349-0.002,0.697-0.001,1.046-0.002c0.235,0,0.469-0.023,0.696-0.088
				c0.372-0.106,0.612-0.341,0.702-0.722c0.073-0.317,0.074-0.636-0.009-0.951c-0.083-0.316-0.283-0.53-0.592-0.641
				c-0.236-0.085-0.481-0.114-0.73-0.116c-0.373-0.002-0.746-0.001-1.119-0.001C745.441,464.625,745.427,464.625,745.406,464.625z"
				/>
		</g>
	</g>
</g>
<g id="Capa_3" display="none">
	<g id="XMLID_109_" display="inline">
		<path id="XMLID_120_" fill="#FFFFFF" d="M544.483,1394.866c0-29.951,0-79.978,0-109.663l-29.472-54.981
			c0,19.799,0,114.801,0,134.979c-0.906-0.991-1.353-1.433-1.746-1.917c-15.015-18.482-30.045-36.952-44.999-55.484
			c-1.387-1.719-2.795-2.465-5.034-2.429c-8.223,0.13-16.448,0.051-24.674,0.051c-6.315,0-12.631,0-19.165,0
			c0,30.092,0,59.676,0,89.443c9.823,0,19.457,0,29.534,0c0-19.883,0-39.569,0-59.929c1.152,1.306,1.802,1.99,2.395,2.721
			c14.871,18.327,29.761,36.639,44.561,55.022c1.401,1.74,2.822,2.447,5.042,2.432c13.391-0.089,26.783-0.04,40.175-0.053
			C542.206,1395.058,543.313,1394.936,544.483,1394.866z"/>
		<path id="XMLID_129_" fill="#FFFFFF" d="M366.416,1289.355c-0.963-1.788-2.134-2.213-4.008-2.199
			c-10.545,0.075-21.093,0.089-31.638-0.011c-2.037-0.019-3.205,0.539-4.217,2.392c-9.124,16.713-18.276,33.409-27.434,50.104
			c-26.24-0.102-51.509-0.186-53.424-0.131c-0.903,0.026-2.228,0.42-2.613,1.08c-4.068,6.96-7.985,14.009-12.265,21.604
			c5.496,0,29.373,0.084,55.836,0.174c-2.264,4.127-4.528,8.253-6.791,12.38c-0.379,0.692-11.459,20.296-11.78,21.061
			c10.889,0,21.53-0.03,32.172,0.025c2.104,0.011,3.128-1.025,4.052-2.775c4.107-7.78,10.165-18.921,16.526-30.577
			c23.413,0.074,43.386,0.125,48.098,0.097c1.809-0.012,2.868,0.505,3.671,2.173c1.686,3.502,3.663,6.864,5.356,10.362
			c0.807,1.667,1.876,2.188,3.689,2.165c7.381-0.098,14.764-0.041,22.146-0.041c3.209,0,6.418,0,10.019,0
			c-0.548-1.128-0.838-1.784-1.178-2.413C397.217,1346.34,381.778,1317.868,366.416,1289.355z M333.226,1339.779
			c4.32-7.928,8.254-15.18,11.199-20.718c0.509-0.959,1.065-1.894,1.845-3.273c4.477,8.255,8.649,15.946,13.068,24.094
			C357.936,1339.882,347.381,1339.838,333.226,1339.779z"/>
		<path id="XMLID_130_" fill="#FFFFFF" d="M271.651,1370.405c-19.399,0-38.611,0-58.124,0c0-21.893,0-67.138,0-88.597
			c-10.39,0-20.469,0-30.599,0c0,30.032,0,83.677,0,113.556c29.657,0,45.635,0,75.299,0L271.651,1370.405z"/>
		<path id="XMLID_131_" fill="#FFFFFF" d="M578.048,1225.095c-3.448,6.046-6.903,12.09-10.573,18.517l-8.118-14.908h-0.029
			c-7.86-14.748-15.722-29.495-23.515-44.278c-0.982-1.863-2.072-2.505-4.149-2.481c-9.701,0.11-19.404,0.044-29.107,0.058
			c-0.788,0.001-1.575,0.123-2.475,0.198c0.147,0.529,0.176,0.849,0.316,1.106c8.252,15.135,16.503,30.27,24.768,45.397h-0.113
			l35.909,65.615h34.126l-10.832-19.893l7.342-13.552c4.66-8.453,9.258-16.94,14.066-25.755c0.695,1.248,1.206,2.15,1.703,3.062
			c5.585,10.248,11.216,20.473,16.707,30.771c1.012,1.896,2.085,2.767,4.348,2.74c10.545-0.126,21.093-0.115,31.638-0.006
			c2.111,0.022,3.188-0.752,4.166-2.538c15.301-27.95,30.667-55.864,46.01-83.792c0.532-0.969,0.972-1.989,1.637-3.363
			c-10.77,0-21.087,0.104-31.4-0.074c-2.514-0.043-3.704,0.854-4.81,2.952c-9.795,18.607-19.688,37.163-29.56,55.731
			c-0.506,0.949-1.074,1.865-1.754,3.04c-0.694-1.237-1.174-2.053-1.616-2.886c-2.51-4.725-5.02-9.448-7.528-14.173h0.267
			l-11.484-21.09c-3.726-6.997-7.448-13.994-11.191-20.981c-0.22-0.409-0.551-0.866-0.928-1.273l-12.128-22.271h-34.304l11.51,21.03
			c-0.027,0-0.055,0-0.081,0c0.595,1.223,1.003,2.156,1.489,3.047c3.228,5.906,6.417,11.835,9.746,17.684
			c0.984,1.73,1.056,3.078-0.005,4.85C584.639,1213.354,581.384,1219.248,578.048,1225.095z"/>
		<path id="XMLID_134_" fill="#FFFFFF" d="M497.484,1228.51c-0.018-2.601-0.332-5.275-1.003-7.784
			c-2.391-8.94-11.032-15.621-21.459-16.263c-11.984-0.736-23.992-1.066-35.99-1.572c-0.006,0.135-0.012,0.271-0.018,0.406
			c-4.323,0-8.655-0.183-12.967,0.038c-8.927,0.457-17.906,0.657-26.746,1.842c-9.348,1.252-19.226,9.478-18.995,22.501
			c0.254,14.336,0.047,28.68,0.077,43.019c0.004,1.785,0.019,3.61,0.374,5.346c1.94,9.483,9.693,16.512,20.181,17.577
			c8.467,0.86,17.015,1.39,25.521,1.318c16.737-0.139,33.501-0.309,50.192-1.405c11.699-0.769,21.07-9.116,20.911-23.585
			C497.409,1256.137,497.58,1242.322,497.484,1228.51z M469.153,1265.935c-0.016,1.028-1.353,2.471-2.42,2.941
			c-1.368,0.604-3.085,0.546-4.652,0.549c-15.482,0.033-30.966,0.021-46.448,0.019c-0.737,0-1.478,0.02-2.21-0.041
			c-3.985-0.334-4.466-0.849-4.468-4.788c-0.005-10.322-0.008-20.644,0.001-30.966c0.003-3.719,0.646-4.672,4.555-4.86
			c5.675-0.275,11.37-0.133,17.056-0.157c2.949-0.013,5.897-0.003,8.847-0.003c7.584,0.001,15.168-0.02,22.751,0.02
			c1.465,0.007,2.927,0.261,4.394,0.37c1.942,0.145,2.727,1.182,2.721,3.109C469.244,1243.396,469.326,1254.667,469.153,1265.935z"
			/>
		<path id="XMLID_135_" fill="#FFFFFF" d="M211.943,1249.545c-2.1,0.584-4.305,1.098-6.465,1.105
			c-21.299,0.08-42.598,0.049-63.896,0.049c-1.24,0-2.48,0-3.876,0c-0.331,5.686-0.86,11.169,2.703,15.701
			c4.222,5.37,10.504,6.975,16.853,7.06c19.608,0.262,39.222,0.127,58.834,0.065c3.356-0.011,6.736-0.237,10.064-0.678
			c9.739-1.288,15.982-6.706,17.973-16.398c1.045-5.092,1.426-10.455,1.18-15.652c-0.708-14.963-8.65-22.856-22.825-23.109
			c-15.481-0.276-30.966-0.359-46.448-0.613c-2.4-0.039-4.825-0.386-7.179-0.875c-2.211-0.459-3.354-2.067-3.357-4.362
			c-0.003-2.231,0.955-3.992,3.144-4.568c2.005-0.527,4.125-0.858,6.195-0.864c21.193-0.061,42.387-0.037,63.58-0.037
			c1.142,0,2.284,0,3.605,0c1.762-15.113-7.151-21.863-18.477-22.393c-22.725-1.061-45.534-0.501-68.305-0.274
			c-8.83,0.087-15.664,5.303-17.819,13.912c-1.509,6.031-2.188,12.483-1.946,18.696c0.541,13.872,8.714,21.781,22.385,22.3
			c14.212,0.539,28.437,0.727,42.653,1.152c3.667,0.11,7.342,0.401,10.979,0.873c2.167,0.281,3.519,1.637,3.608,4.078
			C215.197,1247.153,214.26,1248.899,211.943,1249.545z"/>
		<path id="XMLID_136_" fill="#FFFFFF" d="M250.909,1140.026c0,30.036,0,160.423,0,190.21c10.33,0,20.412,0,30.831,0
			c0-10.571,0-85.781,0-96.38c17.777,0,35.217,0,53.061,0c0,10.604,0,32.982,0,43.395c10.574,0,20.742,0,30.798,0
			c0-30.038,0-71.725,0-101.405c-10.418,0-20.574,0-30.949,0c0,10.273,0,20.261,0,30.133c-0.409,0.21-0.592,0.387-0.776,0.387
			c-16.769,0.038-33.537,0.052-50.305,0.103c-1.927,0.006-1.871-1.223-1.868-2.551c0.011-5.695,0.003-11.391,0.003-17.086
			c0-3.655,0-43.098,0-46.805C271.176,1140.026,261.027,1140.026,250.909,1140.026z"/>
		<path id="XMLID_137_" fill="#FFFFFF" d="M582.367,1331.917v-24.946c-9.152-0.003-18.306-0.008-27.458-0.012
			c-0.588,0-1.175,0.191-1.796,0.3c0,29.888,0,59.594,0,89.728c1.164,0,1.992,0,2.821,0c27.204,0,54.409,0.025,81.613-0.03
			c3.567-0.007,7.158-0.24,10.698-0.686c12.535-1.579,20.475-10.263,20.592-22.717c0.137-14.444,0.119-28.892,0.002-43.337
			c-0.086-10.71-5.75-18.396-15.788-21.448c-3.083-0.937-6.374-1.65-9.573-1.667c-17.489-0.09-34.979-0.115-52.47-0.127v24.789
			c14.784-0.007,29.567-0.011,44.352-0.003c5.294,0.003,5.847,0.557,5.848,5.685c0,9.901,0.002,19.804-0.002,29.705
			c-0.002,4.511-0.416,5.042-5.007,5.276c-3.362,0.171-6.739,0.07-10.109,0.071c-13.272,0.005-26.545,0.002-39.817,0.002
			c-1.242,0-2.484,0-3.905,0c0-10.19,0-20.218,0-30.33C582.367,1338.765,582.367,1335.351,582.367,1331.917z"/>
		<path id="XMLID_138_" fill="#FFFFFF" d="M344.794,1424.172c-4.503-4.733-10.349-7.134-17.374-7.134h-0.179
			c-7.225,0-13.244,2.428-17.891,7.216c-4.351,4.437-7.526,10.967-9.432,19.403c-1.418,6.276-2.138,13.585-2.138,21.723
			c0,19.277,3.486,32.332,10.658,39.909l0.006,0.008l0.007,0.006c0.614,0.634,1.452,0.996,2.299,0.996
			c0.807,0,1.563-0.32,2.128-0.904c1.232-1.27,1.274-3.29,0.097-4.512c-5.921-6.283-8.923-18.229-8.923-35.503
			c0-12.179,1.686-28.413,9.719-36.6c3.465-3.567,8.025-5.374,13.56-5.374c3.071,0,5.843,0.594,8.238,1.764
			c2.378,1.161,4.464,2.932,6.198,5.259c3.408,4.576,5.58,11.411,6.463,20.332l-11.257,0.942c-0.151-4.374-0.427-8.527-1.375-11.904
			c-1.362-4.85-3.993-7.309-7.818-7.309h-0.091c-4.839,0-7.857,2.424-9.787,7.859c-2.264,6.389-2.603,19.004-2.603,25.956v8.976
			v0.463c0,4.267,0.048,10.581,0.465,16.134c0.474,6.319,1.324,10.515,2.599,12.824c2.79,5.027,7.204,7.909,12.111,7.909h0.091
			c4.673,0,8.786-1.491,12.223-4.432c2.814-2.407,5.178-5.797,7.027-10.076c3.346-7.742,4.168-16.472,4.367-19.865l0.002-0.045
			v-0.044c0-1.844-1.238-3.24-2.89-3.276l-17.292-1.292l-0.057-0.004h-0.057c-1.732,0-3.056,1.173-3.22,2.853
			c-0.096,0.996-0.096,2.149-0.096,3.37l-0.002,0.129c-0.079,3.806-0.197,9.558-2.753,11.313l-0.035,0.024l-0.034,0.026
			c-1.387,1.072-1.677,3.009-0.659,4.408c0.632,0.865,1.611,1.381,2.622,1.381c0.637,0,1.242-0.203,1.753-0.587
			c5.122-3.641,5.281-10.957,5.377-16.341l10.836,0.787c-0.43,3.896-1.448,9.951-3.837,15.165
			c-3.066,6.69-7.505,10.102-13.194,10.137h-0.081c-2.663,0-5.064-1.663-6.762-4.685l-0.003-0.006l-0.003-0.006
			c-0.831-1.448-2.225-6.726-2.225-25.802v-0.463v-8.884c0-4.134,0.156-18.065,2.157-23.92c0.582-1.568,1.165-2.558,1.779-3.024
			c0.475-0.36,1.086-0.501,2.18-0.501c0.879,0,1.719,1.723,2.246,4.607c0.58,3.171,0.722,7.178,0.817,11.013v0.628
			c0,0.903,0.468,1.825,1.221,2.406c0.434,0.334,1.123,0.778,2.095,0.778h0.067l0.067-0.006l17.699-1.572l0.011-0.001l0.011-0.001
			c1.674-0.175,2.89-1.549,2.89-3.27v-0.049l-0.003-0.05C353.939,1440.089,350.568,1430.243,344.794,1424.172z"/>
		<path id="XMLID_139_" fill="#FFFFFF" d="M402.805,1489h-29.829c-1.384,0-2.345-0.091-2.86-0.543
			c-0.611-0.536-0.92-1.868-0.92-3.957v-59.844h10.171l0.088,57.062c0,1.727,1.406,3.133,3.135,3.133
			c1.729,0,3.137-1.406,3.137-3.135l-0.09-60.196c0-1.728-1.407-3.135-3.137-3.135h-16.44c-1.729,0-3.135,1.407-3.135,3.137v62.979
			c0,4.138,1.131,7.127,3.363,8.886c2.146,1.69,4.846,1.887,6.689,1.887h26.691v9.72h-33.609c-1.729,0-3.135,1.407-3.135,3.136
			c0,1.729,1.406,3.137,3.135,3.137h36.746c1.729,0,3.135-1.407,3.135-3.137v-15.991C405.94,1490.407,404.534,1489,402.805,1489z"/>
		<path id="XMLID_140_" fill="#FFFFFF" d="M462.464,1418.385h-16.081c-1.729,0-3.136,1.407-3.136,3.137v55.791
			c0,3.83,0,10.24-1.802,12.044c-0.59,0.589-0.916,1.368-0.917,2.194c0,0.826,0.325,1.607,0.917,2.199
			c0.563,0.563,1.327,0.874,2.15,0.874c0.87,0,1.721-0.352,2.334-0.965c3.325-3.323,3.59-9.118,3.59-16.347v-52.746h9.809v53.286
			c0,8.001-0.306,16.09-2.529,21.065c-1.931,4.321-5.153,6.165-10.776,6.165c-2.45,0-4.71-1.104-6.362-3.108
			c-2.014-2.444-3.078-6.126-3.078-10.647v-69.806c0-1.729-1.407-3.137-3.137-3.137h-16.172c-1.729,0-3.135,1.407-3.135,3.137
			v56.331c0,17.034,3.571,26.194,11.938,30.625c0.438,0.24,0.91,0.361,1.402,0.361c1.084,0,2.143-0.618,2.764-1.614
			c0.472-0.754,0.598-1.667,0.343-2.502c-0.236-0.775-0.768-1.387-1.498-1.73c-6.081-3.228-8.677-10.751-8.677-25.14v-53.286h9.899
			v66.761c0,13.698,8.1,19.938,15.624,19.938h0.089c8.326,0,13.802-3.382,16.741-10.339c2.43-5.75,2.927-13.383,2.927-23.073
			v-56.331C465.69,1419.821,464.213,1418.385,462.464,1418.385z"/>
		<path id="XMLID_141_" fill="#FFFFFF" d="M520.735,1462.777c4.553-3.739,6.772-9.918,6.772-18.795
			c0-7.871-1.851-13.745-5.823-18.482c-5.663-7.115-12.351-7.115-22.47-7.115h-22.19c-1.729,0-3.136,1.407-3.136,3.137v13.834
			c0,1.73,1.406,3.137,3.136,3.137h22.19c5.185,0,5.85,4.229,5.85,7.914c0,1.854-0.108,3.744-0.894,5.002
			c-0.297,0.476-1.201,1.925-4.956,1.925h-8.354c-3.089,0-6.371,2.232-6.371,6.37v8.355c0,3.521,2.799,6.28,6.371,6.28h8.176
			c4.785,0,5.269,0.429,6.128,1.913c0.613,1.156,1.337,3.083,1.337,5.732c0,3.632-0.558,5.986-1.706,7.199
			c-0.953,1.005-2.486,1.435-5.13,1.435h-12.039c-1.729,0-3.137,1.406-3.137,3.135c0,1.709,1.378,3.047,3.137,3.047h12.039
			c4.552,0,7.813-1.198,9.97-3.663c2.112-2.414,3.139-6.062,3.139-11.152c0-3.175-0.693-6.103-2.062-8.704l-0.009-0.015
			l-0.008-0.016c-2.626-4.728-6.489-5.093-11.659-5.093h-8.176c-0.06,0-0.098-0.038-0.098-0.099v-8.355
			c0-0.035,0.002-0.064,0.004-0.087c0.03-0.006,0.064-0.01,0.094-0.01h8.354c5.144,0,8.718-1.842,10.623-5.475
			c1.498-2.858,1.498-6.024,1.498-7.726c0-8.827-4.531-14.097-12.121-14.097h-19.054v-7.653h19.054c4.816,0,8.297,0,11.071,0.636
			c2.723,0.624,4.673,1.875,6.521,4.186c1.905,2.34,4.428,6.377,4.428,14.505c0,5.474-1.01,9.612-3.003,12.301
			c-1.634,2.205-3.641,3.104-5.254,3.826c-1.114,0.484-1.806,1.601-1.806,2.918c0,1.293,0.881,2.489,2.105,2.876
			c1.507,0.576,3.972,1.538,6.139,4.137c2.757,3.307,4.154,8.262,4.154,14.729c0,8.164-3.001,13.077-5.519,15.762l-0.013,0.015
			l-0.013,0.014c-3.951,4.434-12.046,4.434-15.937,4.434h-21.93v-59.125c0-1.729-1.407-3.135-3.137-3.135s-3.136,1.406-3.136,3.135
			v62.261c0,1.729,1.406,3.137,3.136,3.137h25.066c4.797,0,14.776,0,20.531-6.428c3.296-3.59,7.222-9.983,7.222-20.068
			C529.844,1472.385,525.267,1466.031,520.735,1462.777z"/>
		<path id="XMLID_142_" fill="#FFFFFF" d="M724.306,1105.509H117.237c-7.696,0-13.957,6.261-13.957,13.956v335.96
			c0,7.696,6.26,13.957,13.957,13.957h159.979c2.517,0,4.557-2.04,4.557-4.558c0-2.517-2.04-4.557-4.557-4.557H117.237
			c-2.67,0-4.842-2.172-4.842-4.843v-335.96c0-2.67,2.172-4.842,4.842-4.842h607.068c2.67,0,4.842,2.172,4.842,4.842v335.96
			c0,2.671-2.172,4.843-4.842,4.843H544.49c-2.518,0-4.558,2.04-4.558,4.557c0,2.518,2.04,4.558,4.558,4.558h179.815
			c7.696,0,13.957-6.261,13.957-13.957v-335.96C738.263,1111.77,732.002,1105.509,724.306,1105.509z"/>
	</g>
</g>
<g id="Capa_4" display="none">
	<g id="XMLID_53_" display="inline">
		<g id="XMLID_169_">
			<g id="XMLID_172_">
				<path id="XMLID_178_" fill="#FFFFFF" d="M1207.361,356.358l-40.018,142.811c-3.752,13.507-16.758,17.507-26.262,14.756
					s-14.005-11.754-16.506-20.758c-0.751-3.001-10.505-40.267-19.759-75.032c-9.254,34.765-19.008,72.031-19.759,75.032
					c-2.252,9.004-6.503,18.258-16.257,20.758c-9.504,2.501-22.26-0.749-26.262-14.756l-40.018-142.811
					c-3-11.254,3.503-23.009,14.757-26.01c11.256-3.252,22.76,3.25,26.012,14.506l23.259,82.536l21.51-81.285
					c2.001-7.753,9.254-13.006,16.758-13.006c7.753,0,14.756,5.252,17.007,13.006l21.51,81.285l23.009-82.536
					c3.253-11.256,15.007-17.759,26.262-14.506C1203.859,333.349,1210.611,345.104,1207.361,356.358z"/>
				<path id="XMLID_175_" fill="#FFFFFF" d="M1402.43,422.137c0,52.022-42.019,94.039-94.041,94.039
					c-51.772,0-94.039-42.017-94.039-94.039c0-52.022,42.267-94.041,94.039-94.041
					C1360.411,328.096,1402.43,370.115,1402.43,422.137z M1254.366,422.137c0,30.013,23.76,54.272,53.772,54.272
					c29.515,0,54.274-24.76,54.274-54.272c0-29.512-24.76-54.273-54.274-54.273C1278.126,367.863,1254.366,392.124,1254.366,422.137
					z"/>
				<path id="XMLID_173_" fill="#FFFFFF" d="M1615.51,356.358l-40.017,142.811c-3.751,13.507-16.757,17.507-26.262,14.756
					c-9.503-2.751-14.006-11.754-16.507-20.758c-0.75-3.001-10.505-40.267-19.757-75.032c-9.256,34.765-19.011,72.031-19.761,75.032
					c-2.251,9.004-6.501,18.258-16.257,20.758c-9.505,2.501-22.258-0.749-26.262-14.756l-40.017-142.811
					c-3.001-11.254,3.501-23.009,14.758-26.01c11.254-3.252,22.758,3.25,26.009,14.506l23.261,82.536l21.509-81.285
					c2.002-7.753,9.256-13.006,16.76-13.006c7.75,0,14.755,5.252,17.006,13.006l21.509,81.285l23.011-82.536
					c3.251-11.256,15.005-17.759,26.259-14.506C1612.01,333.349,1618.761,345.104,1615.51,356.358z"/>
			</g>
			<circle id="XMLID_171_" fill="#FFFFFF" cx="1261.074" cy="285.703" r="22.997"/>
			<circle id="XMLID_170_" fill="#FFFFFF" cx="1355.706" cy="285.703" r="22.997"/>
		</g>
		<g id="XMLID_167_">
			<path id="XMLID_193_" fill="#FFFFFF" d="M1115.521,589.042v-0.121c0-12.012,9.354-21.849,22.149-21.849
				c7.604,0,12.191,2.052,16.599,5.794l-5.855,7.061c-3.26-2.715-6.156-4.284-11.044-4.284c-6.76,0-12.133,5.974-12.133,13.158v0.12
				c0,7.726,5.312,13.399,12.795,13.399c3.38,0,6.398-0.846,8.753-2.535v-6.035h-9.356v-8.029h18.349v18.348
				c-4.346,3.684-10.319,6.701-18.045,6.701C1124.574,610.77,1115.521,601.534,1115.521,589.042z"/>
			<path id="XMLID_195_" fill="#FFFFFF" d="M1203.351,567.493h8.57l18.106,42.552h-9.719l-3.862-9.477h-17.865l-3.863,9.477h-9.475
				L1203.351,567.493z M1213.128,592.359l-5.614-13.699l-5.612,13.699H1213.128z"/>
			<path id="XMLID_198_" fill="#FFFFFF" d="M1260.699,567.797h19.313c5.373,0,9.536,1.507,12.313,4.283
				c2.355,2.355,3.622,5.674,3.622,9.657v0.121c0,6.821-3.681,11.104-9.054,13.099l10.322,15.088h-10.864l-9.053-13.52h-7.305v13.52
				h-9.295V567.797z M1279.409,588.317c4.528,0,7.122-2.414,7.122-5.977v-0.12c0-3.984-2.776-6.036-7.302-6.036h-9.235v12.133
				H1279.409z"/>
			<path id="XMLID_201_" fill="#FFFFFF" d="M1342.977,567.493h8.57l18.106,42.552h-9.716l-3.862-9.477h-17.865l-3.863,9.477h-9.478
				L1342.977,567.493z M1352.754,592.359l-5.611-13.699l-5.615,13.699H1352.754z"/>
			<path id="XMLID_204_" fill="#FFFFFF" d="M1395.741,589.042v-0.121c0-12.012,9.354-21.849,22.148-21.849
				c7.605,0,12.192,2.052,16.597,5.794l-5.853,7.061c-3.26-2.715-6.157-4.284-11.047-4.284c-6.76,0-12.13,5.974-12.13,13.158v0.12
				c0,7.726,5.312,13.399,12.795,13.399c3.38,0,6.398-0.846,8.75-2.535v-6.035h-9.354v-8.029h18.349v18.348
				c-4.346,3.684-10.319,6.701-18.045,6.701C1404.791,610.77,1395.741,601.534,1395.741,589.042z"/>
			<path id="XMLID_206_" fill="#FFFFFF" d="M1469.083,567.797h31.867v8.267h-22.632v8.571h19.915v8.27h-19.915v8.871h22.936v8.27
				h-32.171V567.797z"/>
		</g>
	</g>
</g>
</svg>
