<?xml version="1.0" encoding="utf-8"?>
<!-- Generator: Adobe Illustrator 16.0.0, SVG Export Plug-In . SVG Version: 6.00 Build 0)  -->
<!DOCTYPE svg PUBLIC "-//W3C//DTD SVG 1.1//EN" "http://www.w3.org/Graphics/SVG/1.1/DTD/svg11.dtd">
<svg version="1.1" id="Capa_1" xmlns="http://www.w3.org/2000/svg" xmlns:xlink="http://www.w3.org/1999/xlink" x="0px" y="0px"
	 width="400px" height="400px" viewBox="0 0 400 400" enable-background="new 0 0 400 400" xml:space="preserve">
<g id="XMLID_1229_">
	<g id="XMLID_1231_">
		<path id="XMLID_1381_" fill="#FFFFFF" d="M431.914,1069.142l-2.882-2.882c-0.338-0.337-0.338-0.886,0-1.224l27.762-27.763
			c0.338-0.338,0.887-0.338,1.225,0l2.882,2.882c0.338,0.338,0.338,0.887,0,1.225l-27.763,27.762
			C432.801,1069.479,432.252,1069.479,431.914,1069.142z M430.868,1065.648l1.658,1.657l26.538-26.538l-1.658-1.658
			L430.868,1065.648z"/>
	</g>
	<g id="XMLID_1356_">
		<path id="XMLID_1378_" fill="#FFFFFF" d="M459.677,1041.38l-2.883-2.882c-0.157-0.158-0.247-0.371-0.252-0.594l-0.052-2.419
			c-0.008-0.396,0.253-0.747,0.636-0.853c0.059-0.017,5.957-1.646,7.505-2.193c1.338-0.475,2.84-0.572,4.591-0.297
			c1.523,0.236,2,2.293,2.05,2.528c0.077,0.365-0.089,0.738-0.41,0.927l-10.138,5.917
			C460.385,1041.713,459.954,1041.657,459.677,1041.38z M458.265,1037.52l2.164,2.164l8.959-5.23
			c-0.146-0.331-0.327-0.583-0.436-0.602c-1.459-0.229-2.683-0.158-3.743,0.219c-1.308,0.463-5.374,1.605-6.975,2.051
			L458.265,1037.52z"/>
	</g>
	<g id="XMLID_1359_">
		
			<rect id="XMLID_1391_" x="464.821" y="1031.234" transform="matrix(0.9616 -0.2744 0.2744 0.9616 -265.3259 167.2786)" fill="#FFFFFF" width="0.826" height="1.496"/>
	</g>
	<g id="XMLID_1361_">
		
			<rect id="XMLID_1390_" x="463.631" y="1031.574" transform="matrix(0.9616 -0.2744 0.2744 0.9616 -265.4648 166.9653)" fill="#FFFFFF" width="0.826" height="1.496"/>
	</g>
	<g id="XMLID_1363_">
		
			<rect id="XMLID_1389_" x="462.477" y="1031.904" transform="matrix(0.9616 -0.2744 0.2744 0.9616 -265.5997 166.6612)" fill="#FFFFFF" width="0.826" height="1.496"/>
	</g>
	<g id="XMLID_1362_">
		
			<rect id="XMLID_1388_" x="461.288" y="1032.244" transform="matrix(0.9616 -0.2744 0.2744 0.9616 -265.7386 166.3478)" fill="#FFFFFF" width="0.826" height="1.496"/>
	</g>
	<g id="XMLID_1365_">
		
			<rect id="XMLID_1387_" x="460.098" y="1032.583" transform="matrix(0.9613 -0.2755 0.2755 0.9613 -266.8633 166.861)" fill="#FFFFFF" width="0.826" height="1.497"/>
	</g>
	<g id="XMLID_1364_">
		
			<rect id="XMLID_1386_" x="458.909" y="1032.924" transform="matrix(0.9613 -0.2755 0.2755 0.9613 -267.0031 166.5464)" fill="#FFFFFF" width="0.826" height="1.496"/>
	</g>
	<g id="XMLID_1366_">
		<path id="XMLID_1377_" fill="#FFFFFF" d="M391.241,1081.205c-0.194-0.194-0.285-0.471-0.244-0.741l0.258-1.698
			c0.052-0.34,0.301-0.617,0.633-0.705l23.309-6.227l0,0c-0.001-0.002,2.891-0.937,3.697-2.846c0.981-2.324,3.478-7.023,3.583-7.222
			c0.177-0.334,0.55-0.514,0.921-0.444l8.336,1.543c0.471,0.088,0.78,0.539,0.693,1.008c-0.087,0.47-0.538,0.781-1.008,0.693
			l-7.71-1.428c-0.702,1.337-2.465,4.73-3.222,6.522c-1.121,2.654-4.659,3.786-4.81,3.834l-22.796,6.091l-0.106,0.693
			c7.289,6.821,26.307,12.623,30.274,13.781l5.774-13.701c0.082-0.195,0.234-0.354,0.426-0.444l16.706-7.93l-0.001-0.016
			l-10.131,1.556c-0.25,0.04-2.54,0.36-3.793-1.098c-0.815-0.955-0.925-2.358-0.326-4.169c0.149-0.454,0.638-0.7,1.093-0.55
			c0.453,0.148,0.699,0.64,0.55,1.092c-0.271,0.822-0.492,1.923-0.003,2.502c0.543,0.607,1.775,0.581,2.213,0.513l11.066-1.699
			c0.24-0.037,0.484,0.029,0.674,0.18c0.188,0.153,0.306,0.376,0.321,0.618l0.103,1.544c0.023,0.354-0.172,0.686-0.492,0.839
			l-16.938,8.04l-5.944,14.104c-0.169,0.4-0.608,0.613-1.028,0.497c-0.973-0.269-23.929-6.688-32.073-14.729
			C391.243,1081.208,391.242,1081.206,391.241,1081.205z"/>
	</g>
	<g id="XMLID_1360_">
		<path id="XMLID_1374_" fill="#FFFFFF" d="M427.898,1074.316l-4.091-4.091c-0.171-0.171-0.171-0.447,0-0.618l1.659-1.659
			c0.171-0.171,0.447-0.171,0.618,0l4.091,4.091c0.17,0.171,0.17,0.447,0,0.617l-1.66,1.66
			C428.345,1074.486,428.069,1074.486,427.898,1074.316z M424.734,1069.917l3.473,3.473l1.042-1.042l-3.474-3.473L424.734,1069.917z
			"/>
	</g>
	<g id="XMLID_1368_">
		<path id="XMLID_1371_" fill="#FFFFFF" d="M423.498,1078.716l-4.091-4.091c-0.17-0.171-0.17-0.447,0-0.617l1.659-1.66
			c0.171-0.17,0.447-0.17,0.618,0l4.09,4.091c0.171,0.171,0.171,0.447,0,0.617l-1.659,1.66
			C423.946,1078.886,423.669,1078.886,423.498,1078.716z M420.333,1074.316l3.474,3.473l1.042-1.042l-3.473-3.473L420.333,1074.316z
			"/>
	</g>
	<g id="XMLID_1367_">
		<circle id="XMLID_1385_" fill="#FFFFFF" cx="423.614" cy="1085.855" r="0.927"/>
	</g>
	<g id="XMLID_1370_">
		<circle id="XMLID_1384_" fill="#FFFFFF" cx="421.298" cy="1090.254" r="0.928"/>
	</g>
	<g id="XMLID_1369_">
		<path id="XMLID_1232_" fill="#FFFFFF" d="M420.288,1081.347l-3.512-3.513c-0.171-0.17-0.171-0.446,0-0.617
			c0.171-0.17,0.447-0.17,0.617,0l3.512,3.512c0.172,0.171,0.172,0.447,0,0.618C420.736,1081.517,420.459,1081.517,420.288,1081.347
			z"/>
	</g>
</g>
<g id="XMLID_1392_">
	<g id="XMLID_1233_">
		<path id="XMLID_1402_" fill="#FFFFFF" d="M187.434,237.243c-1.268,0-2.53-0.485-3.497-1.458l-17.215-17.215
			c-1.938-1.933-1.938-5.066,0-6.993L303.238,75.063c1.927-1.944,5.061-1.944,6.993,0l17.215,17.215
			c1.938,1.933,1.938,5.066,0,6.999L190.931,235.785C189.965,236.758,188.702,237.243,187.434,237.243z M177.213,215.074
			l10.222,10.216L316.95,95.78l-10.222-10.222L177.213,215.074z"/>
	</g>
	<g id="XMLID_1347_">
		<path id="XMLID_1399_" fill="#FFFFFF" d="M330.351,107.169c-1.279,0-2.559-0.486-3.536-1.463l-30.018-30.012
			c-0.938-0.938-1.469-2.206-1.469-3.536c0-1.324,0.53-2.592,1.469-3.53l47.238-47.238c0.938-0.938,2.206-1.463,3.53-1.463l0,0
			c1.329,0,2.598,0.525,3.53,1.463l30.018,30.023c1.949,1.949,1.949,5.111,0,7.06l-47.232,47.233
			C332.904,106.683,331.624,107.169,330.351,107.169z M307.388,72.158l22.963,22.958l40.166-40.173l-22.951-22.957L307.388,72.158z"
			/>
	</g>
	<g id="XMLID_1349_">
		<path id="XMLID_158_" fill="#FFFFFF" d="M327.954,38.716c-2.234-2.234-2.234-5.859,0-8.094c2.239-2.234,5.859-2.234,8.094,0"/>
	</g>
	<g id="XMLID_1350_">
		<path id="XMLID_157_" fill="#FFFFFF" d="M315.448,51.228c-2.234-2.234-2.234-5.859,0-8.094c2.234-2.24,5.859-2.24,8.094,0"/>
	</g>
	<g id="XMLID_1351_">
		<path id="XMLID_156_" fill="#FFFFFF" d="M302.936,63.734c-2.234-2.234-2.234-5.859,0-8.094c2.24-2.234,5.865-2.234,8.1,0"/>
	</g>
	<g id="XMLID_1354_">
		<path id="XMLID_149_" fill="#FFFFFF" d="M347.186,91.797c2.24,2.234,2.24,5.859,0,8.093c-2.234,2.234-5.854,2.234-8.088,0"/>
	</g>
	<g id="XMLID_135_">
		<path id="XMLID_144_" fill="#FFFFFF" d="M359.698,79.291c2.234,2.234,2.234,5.854,0,8.094c-2.234,2.234-5.859,2.234-8.094,0"/>
	</g>
	<g id="XMLID_1352_">
		<path id="XMLID_1448_" fill="#FFFFFF" d="M372.204,66.779c2.234,2.234,2.234,5.859,0,8.094s-5.859,2.234-8.094,0"/>
	</g>
	<g id="XMLID_1348_">
		<path id="XMLID_1396_" fill="#FFFFFF" d="M158.467,277.371c-8.541,0-17.081-3.245-23.583-9.753
			c-13.009-13.003-13.009-34.162,0-47.165c12.992-13.004,34.157-13.004,47.171-0.006c13.009,13.009,13.009,34.168,0,47.171
			C175.553,274.126,167.013,277.371,158.467,277.371z M158.472,220.593c-6.01,0-12.021,2.284-16.595,6.859
			c-9.144,9.144-9.144,24.023,0,33.173c9.149,9.133,24.03,9.145,33.185,0c9.144-9.149,9.144-24.029,0-33.179
			C170.488,222.877,164.477,220.593,158.472,220.593z"/>
	</g>
	<g id="XMLID_122_">
		<path id="XMLID_1395_" fill="#FFFFFF" d="M55.31,352.142c-1.262,0-2.53-0.48-3.497-1.452
			c-48.166-48.16-29.001-92.778-12.138-109.637c18.673-18.679,46.445-18.701,57.002-18.667c7.607,0,19.617-9.328,22.142-16.919
			c3.43-10.267,13.998-20.913,14.439-21.36c22.801-22.806,54.623-11.021,68.269-1.608c2.251,1.553,2.81,4.625,1.262,6.876
			c-1.536,2.246-4.608,2.821-6.876,1.273c-1.335-0.916-33.022-22.175-55.656,0.453c-2.592,2.603-9.82,10.825-12.043,17.495
			c-3.552,10.663-18.64,23.688-31.179,23.688c-9.73,0.162-34.587-0.006-50.367,15.769c-14.439,14.439-30.487,53.014,12.138,95.645
			c1.938,1.933,1.938,5.061,0,6.993C57.84,351.661,56.578,352.142,55.31,352.142z"/>
	</g>
	<g id="XMLID_1357_">
		<path id="XMLID_1394_" fill="#FFFFFF" d="M115.653,381.064c-15.467,0-38.843-5.373-63.839-30.375
			c-1.933-1.933-1.933-5.061,0-6.993c1.933-1.944,5.061-1.944,6.993,0c17.992,17.98,37.625,27.471,56.829,27.471
			c0.229,0,0.469,0,0.704,0c14.444-0.185,28.694-5.916,38.117-15.333c15.774-15.78,15.769-40.642,15.763-49.998
			c0-12.908,13.032-27.995,23.695-31.542c6.669-2.224,14.891-9.457,17.495-12.055c22.723-22.723,0.682-55.31,0.452-55.639
			c-1.547-2.251-0.983-5.329,1.263-6.882c2.251-1.547,5.328-0.983,6.882,1.263c9.417,13.64,21.191,45.462-1.604,68.257
			c-0.447,0.447-11.093,11.021-21.36,14.445c-7.591,2.53-16.919,14.545-16.919,21.789c0,10.837,0.011,38.682-18.673,57.354
			c-11.193,11.211-28.018,18.025-44.987,18.227C116.194,381.064,115.921,381.064,115.653,381.064z"/>
	</g>
	<g id="XMLID_1358_">
		<path id="XMLID_1393_" fill="#FFFFFF" d="M121.758,325.878c-1.273,0-2.536-0.486-3.502-1.452l-40.167-40.173
			c-1.944-1.933-1.944-5.066,0-6.993c1.927-1.944,5.061-1.944,6.993,0l40.167,40.167c1.938,1.933,1.938,5.065,0,6.999
			C124.282,325.392,123.02,325.878,121.758,325.878z"/>
	</g>
</g>
</svg>
