<?xml version="1.0" encoding="utf-8"?>
<!-- Generator: Adobe Illustrator 16.0.0, SVG Export Plug-In . SVG Version: 6.00 Build 0)  -->
<!DOCTYPE svg PUBLIC "-//W3C//DTD SVG 1.1//EN" "http://www.w3.org/Graphics/SVG/1.1/DTD/svg11.dtd">
<svg version="1.1" id="Capa_1" xmlns="http://www.w3.org/2000/svg" xmlns:xlink="http://www.w3.org/1999/xlink" x="0px" y="0px"
	 width="400px" height="400px" viewBox="0 0 400 400" enable-background="new 0 0 400 400" xml:space="preserve">
<g id="XMLID_1229_">
	<g id="XMLID_1231_">
		<path id="XMLID_1381_" fill="#FFFFFF" d="M431.914,1069.142l-2.882-2.882c-0.338-0.337-0.338-0.886,0-1.224l27.762-27.763
			c0.338-0.338,0.887-0.338,1.225,0l2.882,2.882c0.338,0.338,0.338,0.887,0,1.225l-27.763,27.762
			C432.801,1069.479,432.252,1069.479,431.914,1069.142z M430.868,1065.648l1.658,1.657l26.538-26.538l-1.658-1.658
			L430.868,1065.648z"/>
	</g>
	<g id="XMLID_1356_">
		<path id="XMLID_1378_" fill="#FFFFFF" d="M459.677,1041.38l-2.883-2.882c-0.157-0.158-0.247-0.371-0.252-0.594l-0.052-2.419
			c-0.008-0.396,0.253-0.747,0.636-0.853c0.059-0.017,5.957-1.646,7.505-2.193c1.338-0.475,2.84-0.572,4.591-0.297
			c1.523,0.236,2,2.293,2.05,2.528c0.077,0.365-0.089,0.738-0.41,0.927l-10.138,5.917
			C460.385,1041.713,459.954,1041.657,459.677,1041.38z M458.265,1037.52l2.164,2.164l8.959-5.23
			c-0.146-0.331-0.327-0.583-0.436-0.602c-1.459-0.229-2.683-0.158-3.743,0.219c-1.308,0.463-5.374,1.605-6.975,2.051
			L458.265,1037.52z"/>
	</g>
	<g id="XMLID_1359_">
		
			<rect id="XMLID_1391_" x="464.821" y="1031.234" transform="matrix(0.9616 -0.2744 0.2744 0.9616 -265.3259 167.2786)" fill="#FFFFFF" width="0.826" height="1.496"/>
	</g>
	<g id="XMLID_1361_">
		
			<rect id="XMLID_1390_" x="463.631" y="1031.574" transform="matrix(0.9616 -0.2744 0.2744 0.9616 -265.4648 166.9653)" fill="#FFFFFF" width="0.826" height="1.496"/>
	</g>
	<g id="XMLID_1363_">
		
			<rect id="XMLID_1389_" x="462.477" y="1031.904" transform="matrix(0.9616 -0.2744 0.2744 0.9616 -265.5997 166.6612)" fill="#FFFFFF" width="0.826" height="1.496"/>
	</g>
	<g id="XMLID_1362_">
		
			<rect id="XMLID_1388_" x="461.288" y="1032.244" transform="matrix(0.9616 -0.2744 0.2744 0.9616 -265.7386 166.3478)" fill="#FFFFFF" width="0.826" height="1.496"/>
	</g>
	<g id="XMLID_1365_">
		
			<rect id="XMLID_1387_" x="460.098" y="1032.583" transform="matrix(0.9613 -0.2755 0.2755 0.9613 -266.8633 166.861)" fill="#FFFFFF" width="0.826" height="1.497"/>
	</g>
	<g id="XMLID_1364_">
		
			<rect id="XMLID_1386_" x="458.909" y="1032.924" transform="matrix(0.9613 -0.2755 0.2755 0.9613 -267.0031 166.5464)" fill="#FFFFFF" width="0.826" height="1.496"/>
	</g>
	<g id="XMLID_1366_">
		<path id="XMLID_1377_" fill="#FFFFFF" d="M391.241,1081.205c-0.194-0.194-0.285-0.471-0.244-0.741l0.258-1.698
			c0.052-0.34,0.301-0.617,0.633-0.705l23.309-6.227l0,0c-0.001-0.002,2.891-0.937,3.697-2.846c0.981-2.324,3.478-7.023,3.583-7.222
			c0.177-0.334,0.55-0.514,0.921-0.444l8.336,1.543c0.471,0.088,0.78,0.539,0.693,1.008c-0.087,0.47-0.538,0.781-1.008,0.693
			l-7.71-1.428c-0.702,1.337-2.465,4.73-3.222,6.522c-1.121,2.654-4.659,3.786-4.81,3.834l-22.796,6.091l-0.106,0.693
			c7.289,6.821,26.307,12.623,30.274,13.781l5.774-13.701c0.082-0.195,0.234-0.354,0.426-0.444l16.706-7.93l-0.001-0.016
			l-10.131,1.556c-0.25,0.04-2.54,0.36-3.793-1.098c-0.815-0.955-0.925-2.358-0.326-4.169c0.149-0.454,0.638-0.7,1.093-0.55
			c0.453,0.148,0.699,0.64,0.55,1.092c-0.271,0.822-0.492,1.923-0.003,2.502c0.543,0.607,1.775,0.581,2.213,0.513l11.066-1.699
			c0.24-0.037,0.484,0.029,0.674,0.18c0.188,0.153,0.306,0.376,0.321,0.618l0.103,1.544c0.023,0.354-0.172,0.686-0.492,0.839
			l-16.938,8.04l-5.944,14.104c-0.169,0.4-0.608,0.613-1.028,0.497c-0.973-0.269-23.929-6.688-32.073-14.729
			C391.243,1081.208,391.242,1081.206,391.241,1081.205z"/>
	</g>
	<g id="XMLID_1360_">
		<path id="XMLID_1374_" fill="#FFFFFF" d="M427.898,1074.316l-4.091-4.091c-0.171-0.171-0.171-0.447,0-0.618l1.659-1.659
			c0.171-0.171,0.447-0.171,0.618,0l4.091,4.091c0.17,0.171,0.17,0.447,0,0.617l-1.66,1.66
			C428.345,1074.486,428.069,1074.486,427.898,1074.316z M424.734,1069.917l3.473,3.473l1.042-1.042l-3.474-3.473L424.734,1069.917z
			"/>
	</g>
	<g id="XMLID_1368_">
		<path id="XMLID_1371_" fill="#FFFFFF" d="M423.498,1078.716l-4.091-4.091c-0.17-0.171-0.17-0.447,0-0.617l1.659-1.66
			c0.171-0.17,0.447-0.17,0.618,0l4.09,4.091c0.171,0.171,0.171,0.447,0,0.617l-1.659,1.66
			C423.946,1078.886,423.669,1078.886,423.498,1078.716z M420.333,1074.316l3.474,3.473l1.042-1.042l-3.473-3.473L420.333,1074.316z
			"/>
	</g>
	<g id="XMLID_1367_">
		<circle id="XMLID_1385_" fill="#FFFFFF" cx="423.614" cy="1085.855" r="0.927"/>
	</g>
	<g id="XMLID_1370_">
		<circle id="XMLID_1384_" fill="#FFFFFF" cx="421.298" cy="1090.254" r="0.928"/>
	</g>
	<g id="XMLID_1369_">
		<path id="XMLID_1232_" fill="#FFFFFF" d="M420.288,1081.347l-3.512-3.513c-0.171-0.17-0.171-0.446,0-0.617
			c0.171-0.17,0.447-0.17,0.617,0l3.512,3.512c0.172,0.171,0.172,0.447,0,0.618C420.736,1081.517,420.459,1081.517,420.288,1081.347
			z"/>
	</g>
</g>
<g id="XMLID_1_">
	<g id="XMLID_34_">
		<path id="XMLID_35_" fill="#FFFFFF" d="M204.888,226.553l-13.935-13.936c-1.634-1.629-1.634-4.283,0-5.917L325.194,72.455
			c1.635-1.634,4.288-1.634,5.922,0l13.936,13.935c1.634,1.634,1.634,4.288,0,5.921L210.805,226.553
			C209.176,228.187,206.522,228.187,204.888,226.553z M199.83,209.661l8.019,8.014L336.173,89.35l-8.019-8.018L199.83,209.661z"/>
	</g>
	<g id="XMLID_30_">
		<path id="XMLID_31_" fill="#FFFFFF" d="M339.134,92.311l-13.94-13.935c-0.76-0.765-1.194-1.794-1.218-2.871l-0.25-11.697
			c-0.038-1.912,1.223-3.612,3.074-4.123c0.283-0.08,28.805-7.957,36.289-10.605c6.47-2.295,13.732-2.768,22.199-1.436
			c7.366,1.143,9.671,11.087,9.911,12.226c0.373,1.766-0.43,3.57-1.982,4.481l-49.021,28.612
			C342.558,93.921,340.475,93.652,339.134,92.311z M332.306,73.645l10.464,10.464l43.321-25.292
			c-0.704-1.601-1.582-2.819-2.106-2.909c-7.055-1.105-12.972-0.765-18.1,1.058c-6.323,2.238-25.986,7.763-33.726,9.917
			L332.306,73.645z"/>
	</g>
	<g id="XMLID_28_">
		
			<rect id="XMLID_29_" x="364.007" y="43.251" transform="matrix(0.9616 -0.2743 0.2743 0.9616 1.1854 102.211)" fill="#FFFFFF" width="3.992" height="7.234"/>
	</g>
	<g id="XMLID_26_">
		
			<rect id="XMLID_27_" x="358.255" y="44.894" transform="matrix(0.9616 -0.2744 0.2744 0.9616 0.5166 100.7144)" fill="#FFFFFF" width="3.993" height="7.234"/>
	</g>
	<g id="XMLID_24_">
		
			<rect id="XMLID_25_" x="352.674" y="46.49" transform="matrix(0.9616 -0.2743 0.2743 0.9616 -0.1382 99.2261)" fill="#FFFFFF" width="3.992" height="7.234"/>
	</g>
	<g id="XMLID_22_">
		
			<rect id="XMLID_23_" x="346.922" y="48.133" transform="matrix(0.9616 -0.2745 0.2745 0.9616 -0.8043 97.7522)" fill="#FFFFFF" width="3.992" height="7.234"/>
	</g>
	<g id="XMLID_20_">
		
			<rect id="XMLID_21_" x="341.17" y="49.774" transform="matrix(0.9613 -0.2755 0.2755 0.9613 -1.4306 96.6015)" fill="#FFFFFF" width="3.993" height="7.239"/>
	</g>
	<g id="XMLID_18_">
		<polygon id="XMLID_19_" fill="#FFFFFF" points="340.328,57.967 336.49,59.067 334.501,52.111 338.34,51.011 		"/>
	</g>
	<g id="XMLID_16_">
		<path id="XMLID_17_" fill="#FFFFFF" d="M8.215,284.885c-0.94-0.939-1.379-2.275-1.181-3.584l1.247-8.212
			c0.25-1.643,1.455-2.984,3.06-3.409l112.708-30.108l0,0c-0.005-0.01,13.978-4.528,17.878-13.761
			c4.746-11.238,16.815-33.961,17.326-34.92c0.854-1.615,2.658-2.484,4.453-2.148l40.308,7.461c2.276,0.425,3.773,2.606,3.354,4.873
			c-0.421,2.271-2.603,3.778-4.874,3.353l-37.281-6.903c-3.395,6.465-11.918,22.874-15.578,31.539
			c-5.421,12.835-22.529,18.308-23.257,18.539L16.148,277.056l-0.515,3.353c35.246,32.984,127.205,61.039,146.391,66.64
			l27.922-66.252c0.396-0.944,1.133-1.71,2.059-2.148l80.782-38.344l-0.005-0.076l-48.987,7.522
			c-1.209,0.193-12.282,1.742-18.341-5.308c-3.942-4.618-4.472-11.404-1.577-20.159c0.723-2.195,3.084-3.386,5.284-2.658
			c2.191,0.718,3.381,3.093,2.658,5.279c-1.308,3.977-2.38,9.298-0.014,12.099c2.625,2.937,8.585,2.81,10.7,2.479l53.512-8.217
			c1.161-0.179,2.342,0.143,3.258,0.869c0.907,0.741,1.479,1.818,1.554,2.989l0.496,7.466c0.113,1.709-0.831,3.314-2.38,4.057
			l-81.906,38.877l-28.744,68.197c-0.817,1.937-2.942,2.966-4.973,2.403c-4.703-1.298-115.707-32.337-155.089-71.219
			C8.224,284.899,8.22,284.89,8.215,284.885z"/>
	</g>
	<g id="XMLID_12_">
		<path id="XMLID_13_" fill="#FFFFFF" d="M185.466,251.575l-19.781-19.781c-0.826-0.826-0.826-2.163,0-2.989l8.023-8.022
			c0.827-0.827,2.163-0.827,2.989,0l19.781,19.781c0.822,0.826,0.822,2.162,0,2.984l-8.028,8.027
			C187.628,252.396,186.292,252.396,185.466,251.575z M170.166,230.302l16.792,16.792l5.039-5.038l-16.797-16.792L170.166,230.302z"
			/>
	</g>
	<g id="XMLID_8_">
		<path id="XMLID_9_" fill="#FFFFFF" d="M164.192,272.849l-19.781-19.781c-0.822-0.826-0.822-2.163,0-2.984l8.023-8.027
			c0.826-0.822,2.163-0.822,2.989,0l19.776,19.78c0.827,0.827,0.827,2.163,0,2.984l-8.022,8.028
			C166.355,273.67,165.019,273.67,164.192,272.849z M148.888,251.575l16.796,16.792l5.039-5.039l-16.792-16.792L148.888,251.575z"/>
	</g>
	<g id="XMLID_6_">
		<path id="XMLID_7_" fill="#FFFFFF" d="M167.923,310.541c-1.752,1.751-4.59,1.751-6.342,0c-1.752-1.752-1.752-4.591,0-6.343
			c1.752-1.756,4.59-1.756,6.342,0C169.675,305.95,169.675,308.789,167.923,310.541z"/>
	</g>
	<g id="XMLID_4_">
		<path id="XMLID_5_" fill="#FFFFFF" d="M156.727,331.813c-1.752,1.752-4.59,1.752-6.347,0c-1.747-1.752-1.747-4.59,0-6.342
			c1.757-1.752,4.595-1.752,6.347,0S158.479,330.062,156.727,331.813z"/>
	</g>
	<g id="XMLID_2_">
		<path id="XMLID_3_" fill="#FFFFFF" d="M148.671,285.569l-16.981-16.985c-0.826-0.821-0.826-2.158,0-2.984
			c0.827-0.821,2.163-0.821,2.984,0l16.981,16.981c0.831,0.826,0.831,2.162,0,2.988
			C150.833,286.392,149.497,286.392,148.671,285.569z"/>
	</g>
</g>
</svg>
