<?xml version="1.0" encoding="utf-8"?>
<!-- Generator: Adobe Illustrator 23.0.0, SVG Export Plug-In . SVG Version: 6.00 Build 0)  -->
<svg version="1.1" xmlns="http://www.w3.org/2000/svg" xmlns:xlink="http://www.w3.org/1999/xlink" x="0px" y="0px"
	 viewBox="0 0 471 45.3" style="enable-background:new 0 0 471 45.3;" xml:space="preserve">
<style type="text/css">
	.st0{fill:#FFFFFF;}
	.st1{display:none;}
	.st2{display:inline;}
	.st3{fill:#B20053;}
</style>
<g id="Capa_1">
	<path id="XMLID_2766_" class="st0" d="M354.1,1.5c3.1,0,6.1,0,9.1,0c3.9,0,7.8,0,11.7,0c1.1,0,1.7,0.3,2.4,1.2
		c7.1,8.8,14.2,17.5,21.3,26.3c0.2,0.2,0.4,0.4,0.8,0.9c0-9.6,0-18.9,0-28.2c4.8,0,9.3,0,14,0c0,14.1,0,28.1,0,42.3
		c-0.6,0-1.1,0.1-1.6,0.1c-6.4,0-12.7,0-19.1,0c-1.1,0-1.7-0.3-2.4-1.2c-7-8.7-14.1-17.4-21.1-26.1c-0.3-0.3-0.6-0.7-1.1-1.3
		c0,9.7,0,19,0,28.4c-4.8,0-9.3,0-14,0C354.1,29.8,354.1,15.8,354.1,1.5z"/>
	<path id="XMLID_2763_" class="st0" d="M416,44.2c0-14.3,0-28.4,0-42.6c0.3-0.1,0.6-0.1,0.9-0.1c14,0,28,0,42,0.1
		c1.5,0,3.1,0.3,4.5,0.8c4.8,1.4,7.4,5.1,7.5,10.2c0.1,6.9,0.1,13.7,0,20.6c-0.1,5.9-3.8,10-9.8,10.8c-1.7,0.2-3.4,0.3-5.1,0.3
		c-12.9,0-25.8,0-38.7,0C417,44.2,416.6,44.2,416,44.2z M429.9,32.6c0.7,0,1.3,0,1.9,0c6.3,0,12.6,0,18.9,0c1.6,0,3.2,0,4.8,0
		c2.2-0.1,2.4-0.4,2.4-2.5c0-4.7,0-9.4,0-14.1c0-2.4-0.3-2.7-2.8-2.7c-7.9,0-15.8,0-23.7,0c-0.5,0-1,0-1.5,0.1
		C429.9,19.8,429.9,26.2,429.9,32.6z"/>
	<path id="XMLID_2760_" class="st0" d="M139.7,0.8c5.7,0.2,11.4,0.4,17.1,0.7c4.9,0.3,9,3.5,10.2,7.7c0.3,1.2,0.5,2.5,0.5,3.7
		c0,6.6,0,13.1,0,19.7c0.1,6.9-4.4,10.8-9.9,11.2c-7.9,0.5-15.9,0.6-23.8,0.7c-4,0-8.1-0.2-12.1-0.6c-5-0.5-8.7-3.8-9.6-8.3
		c-0.2-0.8-0.2-1.7-0.2-2.5c0-6.8,0.1-13.6,0-20.4c-0.1-6.2,4.6-10.1,9-10.7c4.2-0.6,8.5-0.7,12.7-0.9c2-0.1,4.1,0,6.1,0
		C139.6,1,139.7,0.9,139.7,0.8z M139.8,13c-1.4,0-2.8,0-4.2,0c-2.7,0-5.4-0.1-8.1,0.1c-1.9,0.1-2.2,0.5-2.2,2.3c0,4.9,0,9.8,0,14.7
		c0,1.9,0.2,2.1,2.1,2.3c0.3,0,0.7,0,1,0c7.3,0,14.7,0,22,0c0.7,0,1.6,0,2.2-0.3c0.5-0.2,1.1-0.9,1.1-1.4c0.1-5.3,0-10.7,0.1-16
		c0-0.9-0.4-1.4-1.3-1.5c-0.7-0.1-1.4-0.2-2.1-0.2C147,13,143.4,13,139.8,13z"/>
	<path id="XMLID_2759_" class="st0" d="M50.5,12.4c-0.6,0-1.2,0-1.7,0c-10.1,0-20.1,0-30.2,0c-1,0-2,0.2-2.9,0.4
		c-1,0.3-1.5,1.1-1.5,2.2c0,1.1,0.5,1.9,1.6,2.1c1.1,0.2,2.3,0.4,3.4,0.4c7.3,0.1,14.7,0.2,22,0.3c6.7,0.1,10.5,3.9,10.8,11
		c0.1,2.5-0.1,5-0.6,7.4c-0.9,4.6-3.9,7.2-8.5,7.8c-1.6,0.2-3.2,0.3-4.8,0.3c-9.3,0-18.6,0.1-27.9,0c-3,0-6-0.8-8-3.3
		c-1.7-2.1-1.4-4.8-1.3-7.4c0.7,0,1.3,0,1.8,0c10.1,0,20.2,0,30.3,0c1,0,2.1-0.2,3.1-0.5c1.1-0.3,1.5-1.1,1.5-2.3
		c0-1.2-0.7-1.8-1.7-1.9c-1.7-0.2-3.5-0.4-5.2-0.4c-6.7-0.2-13.5-0.3-20.2-0.5C4.2,27.4,0.3,23.7,0,17.1c-0.1-2.9,0.2-6,0.9-8.9
		c1-4.1,4.3-6.6,8.5-6.6C20.2,1.5,31,1.2,41.8,1.7C47.2,2,51.4,5.2,50.5,12.4z"/>
	<path id="XMLID_2758_" class="st0" d="M94.5,29.2c-8.5,0-16.7,0-25.2,0c0,5,0,10,0,15c-4.9,0-9.7,0-14.6,0c0-14.1,0-28.2,0-42.5
		c4.8,0,9.6,0,14.6,0c0,1.8,0,3.5,0,5.2c0,2.7,0,5.4,0,8.1c0,0.6,0,1.2,0.9,1.2c8,0,15.9,0,23.9,0c0.1,0,0.2-0.1,0.4-0.2
		c0-4.7,0-9.4,0-14.3c4.9,0,9.7,0,14.7,0c0,14.1,0,28.2,0,42.4c-4.8,0-9.6,0-14.6,0C94.5,39.2,94.5,34.2,94.5,29.2z"/>
	<path id="XMLID_2757_" class="st0" d="M312.6,37.3c2-3.6,3.9-6.9,5.8-10.2c0.2-0.3,0.8-0.5,1.2-0.5c1.9-0.1,3.8,0,6,0
		c-2.1-3.9-4.1-7.5-6.2-11.4c-0.4,0.7-0.6,1.1-0.9,1.6c-4.6,8.7-9.3,17.4-13.9,26.2c-0.4,0.8-0.9,1.3-1.9,1.3c-5,0-10.1,0-15.3,0
		c0.2-0.4,0.3-0.7,0.4-1.1c7.4-13.5,14.8-26.9,22.1-40.4c0.5-0.9,1-1.1,2-1.1c5,0,10,0,15,0c0.9,0,1.4,0.2,1.9,1
		c7.3,13.5,14.6,27,21.9,40.5c0.2,0.3,0.3,0.6,0.6,1.1c-1.7,0-3.2,0-4.8,0c-3.5,0-7,0-10.5,0c-0.9,0-1.4-0.2-1.7-1
		c-0.8-1.7-1.7-3.3-2.5-4.9c-0.4-0.8-0.9-1-1.7-1C324.4,37.3,318.6,37.3,312.6,37.3z"/>
	<path id="XMLID_2756_" class="st0" d="M284.7,44.2c-14.1,0-28,0-42.1,0c0-14.2,0-28.3,0-42.6c4.8,0,9.6,0,14.5,0
		c0,10.2,0,20.4,0,30.7c9.3,0,18.4,0,27.6,0C284.7,36.4,284.7,40.2,284.7,44.2z"/>
</g>
<g id="Capa_2" class="st1">
	<g class="st2">
		<polygon id="XMLID_2376_" class="st3" points="236.4,32.4 220.7,44.5 204.9,32.4 189.2,44.5 173.4,32.4 173.4,18.7 189.2,30.8 
			204.9,18.7 220.7,30.8 236.4,18.7 		"/>
		<polygon id="XMLID_2375_" class="st3" points="236.4,14.6 220.7,26.7 204.9,14.6 189.2,26.7 173.4,14.6 173.4,0.8 189.2,12.9 
			204.9,0.8 220.7,12.9 236.4,0.8 		"/>
	</g>
</g>
</svg>
