<svg xmlns="http://www.w3.org/2000/svg" width="400" height="400"><g fill="#E3B8D3"><path d="M226.163 212.918a2.48 2.48 0 0 1-.526-.056c-.422-.1-42.505-9.197-70.755-22.978-27.554-13.44-50.225-44.026-52.65-47.37l-6.098-5.213c-.427-.365-.72-.863-.83-1.414-7.308-36.295 3.634-61.6 14-76.436 11.355-16.098 24.32-23.5 24.865-23.81.376-.21.8-.323 1.23-.323h4.153l1.33-2.067c.19-.294.438-.546.73-.738.762-.503 19.034-12.185 51.266-.26l84.302 33.398c.94.388 1.556 1.305 1.556 2.323v5.99l3.728 1.742a2.51 2.51 0 0 1 1.219 1.227l11.733 25.542c.58 1.26.027 2.752-1.233 3.33a2.51 2.51 0 0 1-3.331-1.234l-11.35-24.705-4.34-2.028a2.51 2.51 0 0 1-1.448-2.276V69.66l-82.578-32.692c-27.112-10.03-43.578-2.035-46.348-.497l-1.748 2.72a2.51 2.51 0 0 1-2.113 1.154h-4.83c-2.514 1.554-13.382 8.738-22.817 22.19-14.145 20.164-18.623 44.223-13.317 71.516l5.665 4.842a2.51 2.51 0 0 1 .412.449c.232.325 23.56 32.668 50.946 46.027 24.466 11.935 59.708 20.337 67.875 22.194l3.434-5.605a2.51 2.51 0 0 1 2.688-1.14l3.418.76 7.357-2.732c1.296-.483 2.745.18 3.23 1.48s-.18 2.747-1.48 3.23l-8.053 3c-.453.168-.946.202-1.42.098l-2.392-.532-3.435 5.606c-.464.757-1.28 1.2-2.143 1.2z"/><path d="M279.544 308.868h-17.947c-.298 0-.594-.053-.873-.156l-45.327-16.8a2.51 2.51 0 0 1-1.639-2.355V256.08c0-.58.2-1.143.568-1.592l26.03-31.776 2.396-98.885c.005-.24.046-.48.12-.7.302-.937 7.728-22.977 36.272-26.228a2.55 2.55 0 0 1 .871.053c6.316 1.517 27.175 6.678 30.374 9.382 2.99 2.533 4.57 5.902 4.57 9.744v128.4c0 1.188-.094 29.214-8.26 41.222-8.033 11.814-25.12 22.374-25.844 22.818a2.5 2.5 0 0 1-1.311.37zm-17.497-5.023h16.77c3.043-1.946 17.1-11.24 23.73-21 7.298-10.73 7.39-38.12 7.39-38.396v-128.4c0-2.384-.914-4.317-2.793-5.908-1.788-1.363-15.767-5.307-27.867-8.228-23.41 2.865-30.537 19.77-31.513 22.413l-2.407 99.35c-.014.56-.214 1.1-.568 1.53l-26.008 31.75V287.8l43.265 16.035zm-116.204-163.11c-2.397 0-4.746-.376-6.98-1.12-16.486-5.468-23.29-29.838-15.168-54.325 6.956-20.965 22.442-35.608 37.66-35.608 2.396 0 4.743.376 6.977 1.117 16.487 5.47 23.29 29.843 15.167 54.33-6.954 20.964-22.438 35.606-37.654 35.606zm15.51-86.028c-12.875 0-26.707 13.528-32.89 32.166-7.25 21.856-1.875 43.378 11.982 47.975 1.724.573 3.54.863 5.4.863 12.873 0 26.704-13.527 32.885-32.164 7.25-21.857 1.876-43.38-11.98-47.98-1.72-.57-3.536-.86-5.394-.86z"/><path d="M138.648 143.17a32.29 32.29 0 0 1-10.188-1.636c-21.34-7.08-31.243-35.32-22.077-62.95 7.6-22.908 26.16-38.907 45.138-38.907a32.29 32.29 0 0 1 10.188 1.636c21.338 7.08 31.24 35.32 22.077 62.95-7.6 22.908-26.16 38.907-45.138 38.907zM151.52 44.7c-16.842 0-33.442 14.584-40.37 35.465-8.294 25 .18 50.39 18.9 56.6 2.762.917 5.658 1.38 8.606 1.38 16.84 0 33.442-14.584 40.37-35.465 8.292-25-.182-50.39-18.9-56.6a27.3 27.3 0 0 0-8.607-1.381zm-14.176 181.56a2.54 2.54 0 0 1-.597-.071c-.752-.185-1.377-.704-1.694-1.4l-21.72-48.318c-.146-.324-.22-.675-.22-1.03v-20.527c0-1.387 1.125-2.512 2.512-2.512s2.512 1.125 2.512 2.512v19.99l20.177 44.888 33.73-26.658a2.51 2.51 0 0 1 3.528.413c.86 1.088.675 2.668-.413 3.528l-36.256 28.656a2.52 2.52 0 0 1-1.558.54z"/><path d="M216.27 258.593c-.317 0-.64-.06-.95-.188l-75.46-30.9v24.536a2.51 2.51 0 1 1-5.024 0v-28.28c0-.837.417-1.62 1.112-2.086s1.578-.557 2.352-.238l78.925 32.33a2.51 2.51 0 0 1 1.372 3.276c-.398.97-1.337 1.56-2.326 1.56zM95.418 101.897c-1.142 0-2.174-.783-2.444-1.943l-3.404-14.6a2.51 2.51 0 0 1 .888-2.54l10.804-8.547c1.088-.86 2.667-.676 3.53.412s.676 2.668-.412 3.53l-9.554 7.558 3.042 13.06a2.51 2.51 0 0 1-1.876 3.016c-.192.044-.384.065-.573.065z"/><path d="M216.265 292.07c-.36 0-.73-.078-1.077-.244l-110.81-52.69a2.51 2.51 0 0 1-1.378-1.746l-7.226-33.998a2.36 2.36 0 0 1-.042-.274c-.001-.007-.465-4.677-2.8-27.428-2.343-22.728-.105-58.94-.008-60.472.087-1.385 1.29-2.428 2.665-2.35a2.51 2.51 0 0 1 2.349 2.665c-.023.37-2.308 37.33-.008 59.64l2.798 27.31 6.94 32.65 109.69 52.156c1.253.596 1.785 2.095 1.19 3.348-.43.903-1.332 1.432-2.27 1.432zm26.58-65.922c-.32 0-.646-.062-.96-.192l-66.04-27.366a2.51 2.51 0 1 1 1.923-4.641l66.04 27.367a2.51 2.51 0 0 1 1.358 3.282c-.4.966-1.336 1.55-2.32 1.55z"/><path d="M287.557 364.324a7.16 7.16 0 0 1-.241-.004H98.24a2.51 2.51 0 0 1-1.281-.351c-13.322-8-12.02-47.483-11.826-51.97.01-.2.04-.396.096-.587l21.194-73.632a2.52 2.52 0 0 1 3.109-1.72 2.51 2.51 0 0 1 1.719 3.108l-21.1 73.343c-.45 11.356.312 40.576 8.85 46.785l188.54.005c.435.025 11.928.2 14.366-22.156 2.576-23.592.224-29.72.2-29.778-.077-.16-.103-.252-.144-.425l-4.054-16.796a2.51 2.51 0 0 1 1.853-3.03c1.34-.324 2.705.503 3.03 1.853l4.013 16.622c.615 1.64 2.61 9.07.097 32-2.78 25.498-16.86 26.634-19.335 26.634z"/><path d="M115.626 373.063H98.24a2.51 2.51 0 0 1-2.512-2.512v-8.743a2.51 2.51 0 0 1 2.512-2.512h17.385a2.51 2.51 0 0 1 2.512 2.512v8.743a2.51 2.51 0 0 1-2.512 2.512zm-14.872-5.023h12.36v-3.72h-12.36v3.72zm189.745 5.023h-17.385a2.51 2.51 0 0 1-2.512-2.512v-8.743a2.51 2.51 0 0 1 2.512-2.512H290.5a2.51 2.51 0 0 1 2.512 2.512v8.743a2.51 2.51 0 0 1-2.512 2.512zm-14.873-5.023h12.36v-3.72h-12.36v3.72zm29.87-41.907c-.656 0-1.31-.256-1.803-.763-.32-.307-17.962-16.502-103.304-16.502-86.46 0-111.052 16.63-111.3 16.798-1.13.8-2.695.536-3.498-.59s-.55-2.683.57-3.49c1.004-.725 25.612-17.74 114.218-17.74 88.882 0 106.238 17.315 106.934 18.053.952 1.01.905 2.6-.104 3.55a2.5 2.5 0 0 1-1.723.684z"/></g></svg>