<svg xmlns="http://www.w3.org/2000/svg" width="30" height="30"><path d="M15 6.132v.01c-.635 0-1.27-.008-1.904.002l-1.904.06a6.57 6.57 0 0 0-1.628.271c-1.074.327-1.926.954-2.54 1.894-.498.763-.735 1.617-.803 2.517l-.074 1.73.04 6.046c.023.517.083 1.028.212 1.532.266 1.04.803 1.906 1.655 2.568.746.582 1.606.88 2.534.983a17.34 17.34 0 0 0 1.688.104l6.2-.025c.604-.023 1.205-.082 1.793-.24 1.19-.32 2.12-.992 2.77-2.04.465-.746.678-1.578.744-2.445l.074-1.722-.04-6.023a7.7 7.7 0 0 0-.209-1.526c-.273-1.092-.848-1.986-1.754-2.657-.715-.527-1.53-.805-2.402-.905a18.59 18.59 0 0 0-1.635-.106L15 6.132M.062 14.99C.073 6.73 6.77.05 15.03.062c8.23.012 14.918 6.717 14.907 14.946-.012 8.26-6.71 14.945-14.96 14.93C6.735 29.922.05 23.224.062 14.99m19.668-3.656a1.07 1.07 0 0 0 1.064-1.066 1.07 1.07 0 0 0-1.063-1.065 1.07 1.07 0 0 0-1.068 1.068c.003.585.485 1.064 1.067 1.063m-4.733-.884a4.55 4.55 0 0 0-4.546 4.552 4.55 4.55 0 0 0 4.553 4.545 4.55 4.55 0 0 0 4.545-4.552c-.002-2.516-2.037-4.547-4.552-4.545m.415 11.823l-3.206-.033c-.486-.012-.974-.04-1.457-.092-.55-.06-1.077-.22-1.543-.53-.622-.416-1.022-.995-1.225-1.713-.12-.43-.178-.87-.196-1.314l-.04-5.903.058-1.543c.036-.582.15-1.15.423-1.673a2.87 2.87 0 0 1 1.569-1.389c.52-.197 1.058-.272 1.606-.297 1.97-.09 3.94-.044 5.91-.04l1.533.057c.586.036 1.156.15 1.682.424a2.89 2.89 0 0 1 1.445 1.724c.156.474.22.962.24 1.458.084 1.97.047 3.94.04 5.91l-.06 1.527c-.035.587-.148 1.16-.428 1.687-.385.73-.98 1.2-1.77 1.456-.465.145-.945.212-1.43.224l-3.154.06m-3.365-7.276c.001-1.632 1.326-2.955 2.957-2.95a2.95 2.95 0 0 1-.01 5.904c-1.63-.003-2.948-1.324-2.947-2.953" fill="#fff"/></svg>