<?xml version="1.0" encoding="utf-8"?>
<!-- Generator: Adobe Illustrator 16.0.0, SVG Export Plug-In . SVG Version: 6.00 Build 0)  -->
<!DOCTYPE svg PUBLIC "-//W3C//DTD SVG 1.1//EN" "http://www.w3.org/Graphics/SVG/1.1/DTD/svg11.dtd">
<svg version="1.1" id="Capa_1" xmlns="http://www.w3.org/2000/svg" xmlns:xlink="http://www.w3.org/1999/xlink" x="0px" y="0px"
	 width="30px" height="30px" viewBox="0 0 30 30" enable-background="new 0 0 30 30" xml:space="preserve">
<g id="XMLID_54_">
	<path id="XMLID_61_" fill="#FFFFFF" d="M15,6.132v0.011c-0.635,0-1.27-0.008-1.904,0.002c-0.636,0.01-1.27,0.032-1.904,0.059
		c-0.553,0.024-1.097,0.11-1.628,0.271C8.49,6.802,7.638,7.429,7.025,8.369C6.527,9.132,6.29,9.986,6.222,10.886
		c-0.043,0.576-0.07,1.153-0.074,1.73c-0.016,2.015-0.049,4.031,0.041,6.046c0.023,0.517,0.083,1.028,0.212,1.532
		c0.266,1.041,0.803,1.906,1.655,2.568c0.746,0.582,1.606,0.879,2.534,0.983c0.56,0.062,1.126,0.097,1.688,0.104
		c2.063,0.028,4.127,0.051,6.19-0.025c0.604-0.023,1.205-0.082,1.793-0.24c1.189-0.32,2.121-0.992,2.771-2.039
		c0.465-0.746,0.678-1.578,0.744-2.445c0.043-0.572,0.07-1.147,0.074-1.722c0.016-2.008,0.049-4.016-0.041-6.023
		c-0.023-0.515-0.084-1.025-0.209-1.526c-0.273-1.092-0.848-1.986-1.754-2.657c-0.715-0.527-1.529-0.805-2.402-0.905
		c-0.541-0.062-1.09-0.092-1.635-0.106C16.873,6.14,15.938,6.141,15,6.132 M0.062,14.991C0.073,6.729,6.77,0.05,15.031,0.062
		c8.231,0.012,14.918,6.717,14.907,14.946c-0.012,8.259-6.711,14.945-14.961,14.931C6.735,29.922,0.051,23.224,0.062,14.991"/>
	<path id="XMLID_56_" fill="#FFFFFF" d="M19.73,11.335c0.586-0.002,1.064-0.481,1.064-1.066c0-0.584-0.479-1.064-1.063-1.065
		c-0.588-0.002-1.07,0.482-1.068,1.068C18.666,10.857,19.148,11.336,19.73,11.335 M14.997,10.451
		c-2.512,0.002-4.547,2.039-4.546,4.552c0.002,2.512,2.041,4.548,4.553,4.545c2.512-0.002,4.547-2.04,4.545-4.552
		C19.547,12.48,17.512,10.449,14.997,10.451 M15.412,22.274c-1.343-0.014-2.275-0.014-3.206-0.033
		c-0.486-0.012-0.974-0.039-1.457-0.092c-0.551-0.06-1.077-0.221-1.543-0.531c-0.622-0.416-1.022-0.995-1.225-1.713
		c-0.121-0.431-0.178-0.87-0.196-1.314c-0.083-1.967-0.046-3.936-0.04-5.903c0.002-0.515,0.027-1.029,0.058-1.543
		c0.036-0.582,0.151-1.151,0.423-1.673c0.346-0.66,0.871-1.123,1.569-1.389c0.519-0.197,1.058-0.272,1.606-0.297
		c1.969-0.089,3.94-0.044,5.911-0.04c0.512,0.001,1.023,0.026,1.533,0.057c0.586,0.036,1.156,0.149,1.682,0.424
		c0.717,0.374,1.191,0.957,1.445,1.724c0.156,0.474,0.221,0.962,0.24,1.458c0.084,1.969,0.047,3.94,0.041,5.911
		c-0.002,0.51-0.025,1.019-0.059,1.527c-0.035,0.587-0.148,1.16-0.428,1.687c-0.385,0.731-0.98,1.21-1.77,1.456
		c-0.465,0.145-0.945,0.212-1.43,0.224C17.379,22.241,16.189,22.259,15.412,22.274"/>
	<path id="XMLID_55_" fill="#FFFFFF" d="M12.047,14.998c0.001-1.632,1.326-2.955,2.957-2.951c1.63,0.004,2.949,1.324,2.947,2.954
		c0,1.632-1.326,2.954-2.957,2.95C13.365,17.948,12.046,16.627,12.047,14.998"/>
</g>
</svg>
