<?xml version="1.0" encoding="utf-8"?>
<!-- Generator: Adobe Illustrator 16.0.0, SVG Export Plug-In . SVG Version: 6.00 Build 0)  -->
<!DOCTYPE svg PUBLIC "-//W3C//DTD SVG 1.1//EN" "http://www.w3.org/Graphics/SVG/1.1/DTD/svg11.dtd">
<svg version="1.1" id="Capa_1" xmlns="http://www.w3.org/2000/svg" xmlns:xlink="http://www.w3.org/1999/xlink" x="0px" y="0px"
	 width="400px" height="114.667px" viewBox="0 0 400 114.667" enable-background="new 0 0 400 114.667" xml:space="preserve">
<g>
	<g>
		<path fill="#FFFFFF" d="M70.132,37.589c-0.629,1.351-1.506,2.483-2.633,3.399c-1.126,0.918-2.47,1.617-4.031,2.101
			c-1.561,0.483-3.291,0.726-5.191,0.726c-2.668,0-5.283-0.459-7.85-1.375c-2.568-0.917-4.9-2.326-7-4.226l4.549-5.45
			c1.601,1.301,3.242,2.334,4.926,3.1c1.683,0.768,3.525,1.15,5.525,1.15c1.6,0,2.841-0.291,3.725-0.875
			c0.883-0.582,1.324-1.391,1.324-2.425v-0.101c0-0.5-0.092-0.941-0.275-1.324s-0.535-0.742-1.053-1.075s-1.236-0.667-2.156-1
			c-0.919-0.333-2.113-0.683-3.584-1.05c-1.771-0.434-3.375-0.916-4.813-1.45c-1.438-0.532-2.658-1.191-3.66-1.976
			c-1.003-0.782-1.779-1.757-2.331-2.924c-0.552-1.167-0.827-2.616-0.827-4.35v-0.1c0-1.6,0.297-3.041,0.894-4.325
			c0.597-1.283,1.433-2.392,2.509-3.325c1.076-0.933,2.361-1.65,3.855-2.15s3.143-0.75,4.941-0.75c2.566,0,4.926,0.384,7.076,1.15
			c2.149,0.767,4.125,1.867,5.924,3.3l-4,5.8c-1.566-1.066-3.1-1.908-4.6-2.525c-1.5-0.617-3-0.925-4.5-0.925
			s-2.625,0.292-3.375,0.875c-0.75,0.584-1.125,1.309-1.125,2.175v0.1c0,0.567,0.109,1.059,0.326,1.475
			c0.217,0.417,0.609,0.792,1.178,1.125c0.568,0.334,1.346,0.65,2.332,0.95c0.985,0.3,2.23,0.65,3.734,1.05
			c1.771,0.467,3.35,0.992,4.738,1.575c1.387,0.583,2.556,1.284,3.509,2.1c0.952,0.816,1.671,1.775,2.155,2.875
			s0.728,2.417,0.728,3.949v0.101C71.076,34.697,70.761,36.238,70.132,37.589z"/>
		<path fill="#FFFFFF" d="M99.677,43.314V29.264H85.476v14.051h-7.699v-35h7.699v13.85h14.201V8.314h7.699v35H99.677z"/>
		<path fill="#FFFFFF" d="M150.026,32.839c-0.934,2.184-2.226,4.101-3.875,5.75c-1.65,1.649-3.617,2.95-5.9,3.899
			c-2.283,0.951-4.775,1.426-7.475,1.426c-2.701,0-5.184-0.475-7.451-1.426c-2.267-0.949-4.225-2.232-5.875-3.85
			c-1.649-1.616-2.934-3.516-3.85-5.699c-0.917-2.184-1.375-4.525-1.375-7.025v-0.1c0-2.5,0.467-4.842,1.4-7.025
			c0.933-2.183,2.225-4.1,3.875-5.75s3.616-2.95,5.9-3.9c2.282-0.95,4.774-1.425,7.475-1.425c2.699,0,5.183,0.475,7.449,1.425
			c2.268,0.95,4.226,2.233,5.875,3.85c1.65,1.617,2.934,3.518,3.851,5.7c0.917,2.184,1.375,4.525,1.375,7.025v0.101
			C151.426,28.314,150.958,30.656,150.026,32.839z M143.376,25.814c0-1.5-0.259-2.917-0.775-4.25c-0.518-1.333-1.25-2.5-2.199-3.5
			c-0.951-1-2.076-1.792-3.375-2.375c-1.301-0.583-2.718-0.875-4.25-0.875c-1.568,0-2.992,0.284-4.275,0.85
			c-1.283,0.567-2.384,1.35-3.301,2.35c-0.916,1-1.633,2.158-2.149,3.475c-0.517,1.317-0.774,2.725-0.774,4.225v0.101
			c0,1.5,0.258,2.916,0.774,4.25c0.517,1.333,1.25,2.5,2.2,3.5c0.949,1,2.066,1.791,3.35,2.375c1.283,0.583,2.708,0.875,4.275,0.875
			c1.533,0,2.949-0.283,4.25-0.851c1.3-0.566,2.408-1.351,3.324-2.351c0.917-1,1.633-2.157,2.15-3.475
			c0.517-1.316,0.775-2.725,0.775-4.225V25.814z"/>
		<path fill="#FFFFFF" d="M196.726,43.564h-6.7l-7.9-22.9l-7.899,22.9h-6.7l-11.95-35.25h8.25l7.25,23.7l7.85-23.8h6.601l7.85,23.8
			l7.25-23.7h8.05L196.726,43.564z"/>
		<path fill="#FFFFFF" d="M214.376,43.314v-35h7.7v28.049h17.449v6.951H214.376z"/>
		<path fill="#FFFFFF" d="M271.375,43.314l-3.2-7.851h-14.8l-3.2,7.851h-7.85l15-35.25h7.1l15,35.25H271.375z M260.775,17.314
			l-4.65,11.35h9.3L260.775,17.314z"/>
		<path fill="#FFFFFF" d="M309.374,43.314l-16.95-22.25v22.25h-7.6v-35h7.1l16.4,21.549V8.314h7.6v35H309.374z"/>
		<path fill="#FFFFFF" d="M355.224,32.714c-0.899,2.134-2.175,3.983-3.824,5.55c-1.65,1.567-3.617,2.801-5.9,3.7
			s-4.792,1.351-7.525,1.351h-13.649v-35h13.649c2.733,0,5.242,0.442,7.525,1.325c2.283,0.883,4.25,2.108,5.9,3.675
			c1.649,1.567,2.925,3.409,3.824,5.525c0.9,2.117,1.351,4.409,1.351,6.875v0.101C356.574,28.281,356.124,30.581,355.224,32.714z
			 M348.524,25.814c0-1.533-0.259-2.951-0.775-4.25c-0.518-1.3-1.233-2.417-2.15-3.35c-0.917-0.933-2.024-1.658-3.324-2.175
			c-1.301-0.517-2.734-0.775-4.301-0.775h-5.949v21.099h5.949c1.566,0,3-0.25,4.301-0.75c1.3-0.5,2.407-1.216,3.324-2.149
			c0.917-0.933,1.633-2.032,2.15-3.3c0.517-1.267,0.775-2.684,0.775-4.25V25.814z"/>
		<path fill="#FFFFFF" d="M98.739,83.554l-10.85-14.9l-4.051,4.199v10.701H76.14v-35h7.699v15.3l14.201-15.3h9.299l-14.25,14.851
			l14.9,20.15H98.739z"/>
		<path fill="#FFFFFF" d="M112.989,83.554v-35h7.7v35H112.989z"/>
		<path fill="#FFFFFF" d="M160.339,72.955c-0.899,2.133-2.175,3.982-3.824,5.549c-1.65,1.568-3.617,2.801-5.9,3.701
			c-2.283,0.898-4.792,1.35-7.525,1.35h-13.649v-35h13.649c2.733,0,5.242,0.442,7.525,1.325s4.25,2.108,5.9,3.675
			c1.649,1.567,2.925,3.409,3.824,5.524c0.9,2.117,1.351,4.409,1.351,6.875v0.101C161.689,68.521,161.239,70.822,160.339,72.955z
			 M153.64,66.054c0-1.532-0.259-2.95-0.775-4.25c-0.518-1.3-1.233-2.417-2.15-3.351c-0.917-0.932-2.024-1.657-3.324-2.174
			c-1.301-0.518-2.734-0.775-4.301-0.775h-5.949v21.099h5.949c1.566,0,3-0.25,4.301-0.75c1.3-0.5,2.407-1.215,3.324-2.148
			s1.633-2.033,2.15-3.301c0.517-1.268,0.775-2.683,0.775-4.25V66.054z"/>
		<path fill="#FFFFFF" d="M192.896,77.83c-0.63,1.35-1.508,2.482-2.633,3.398c-1.127,0.918-2.471,1.617-4.031,2.102
			c-1.563,0.482-3.293,0.725-5.192,0.725c-2.667,0-5.284-0.459-7.851-1.375s-4.899-2.326-7-4.225l4.551-5.451
			c1.6,1.301,3.241,2.334,4.925,3.1c1.683,0.768,3.524,1.15,5.524,1.15c1.601,0,2.842-0.291,3.726-0.875
			c0.883-0.582,1.325-1.391,1.325-2.424v-0.102c0-0.5-0.093-0.941-0.276-1.324c-0.185-0.383-0.535-0.742-1.053-1.074
			c-0.519-0.334-1.237-0.668-2.155-1c-0.92-0.334-2.114-0.684-3.585-1.051c-1.771-0.434-3.376-0.916-4.813-1.451
			c-1.438-0.532-2.656-1.191-3.659-1.975s-1.779-1.758-2.331-2.925s-0.827-2.616-0.827-4.351v-0.1c0-1.6,0.298-3.041,0.894-4.324
			s1.432-2.393,2.509-3.326c1.076-0.932,2.361-1.649,3.856-2.149c1.493-0.5,3.141-0.75,4.941-0.75c2.566,0,4.925,0.384,7.074,1.149
			c2.15,0.768,4.125,1.867,5.926,3.301l-4,5.8c-1.567-1.066-3.101-1.907-4.601-2.524s-3-0.926-4.5-0.926s-2.625,0.293-3.375,0.875
			c-0.75,0.584-1.125,1.309-1.125,2.176v0.1c0,0.566,0.108,1.059,0.326,1.475c0.217,0.418,0.609,0.793,1.178,1.125
			c0.568,0.334,1.346,0.65,2.331,0.95c0.986,0.3,2.23,0.649,3.735,1.05c1.771,0.467,3.351,0.992,4.737,1.575s2.557,1.284,3.51,2.101
			c0.952,0.816,1.671,1.775,2.155,2.875s0.728,2.418,0.728,3.949v0.102C193.839,74.937,193.524,76.478,192.896,77.83z"/>
	</g>
	<g>
		<path fill="#FFFFFF" d="M214.499,68.925c-0.993,0.434-2.13,0.65-3.41,0.65c-1.093,0-2.09-0.18-2.989-0.541
			c-0.9-0.359-1.674-0.859-2.321-1.5c-0.646-0.64-1.149-1.4-1.51-2.279c-0.359-0.881-0.539-1.84-0.539-2.881v-0.039
			c0-1,0.183-1.938,0.549-2.811c0.367-0.873,0.877-1.641,1.531-2.3c0.652-0.66,1.426-1.181,2.319-1.56
			c0.893-0.381,1.873-0.57,2.939-0.57c0.627,0,1.197,0.043,1.711,0.13c0.513,0.087,0.99,0.21,1.43,0.37s0.854,0.359,1.24,0.6
			s0.76,0.514,1.119,0.82l-1.939,2.34c-0.267-0.227-0.533-0.427-0.8-0.6c-0.267-0.174-0.544-0.32-0.83-0.44
			c-0.287-0.12-0.597-0.213-0.931-0.28c-0.333-0.066-0.699-0.1-1.1-0.1c-0.56,0-1.083,0.117-1.57,0.352
			c-0.486,0.232-0.913,0.547-1.279,0.941c-0.367,0.395-0.654,0.855-0.86,1.383c-0.206,0.528-0.31,1.093-0.31,1.694v0.04
			c0,0.641,0.104,1.232,0.31,1.773s0.5,1.013,0.88,1.414c0.381,0.4,0.826,0.711,1.34,0.932s1.084,0.33,1.711,0.33
			c1.146,0,2.113-0.281,2.899-0.846v-2.014h-3.101v-2.66h6.08v6.08C216.35,67.969,215.492,68.492,214.499,68.925z"/>
		<path fill="#FFFFFF" d="M224.168,69.335v-14h3.08v14H224.168z"/>
		<path fill="#FFFFFF" d="M244.569,69.335l-6.78-8.9v8.9h-3.04v-14h2.84l6.561,8.619v-8.619h3.039v14H244.569z"/>
		<path fill="#FFFFFF" d="M265.729,68.115c-0.387,0.307-0.81,0.57-1.271,0.791c-0.459,0.219-0.963,0.387-1.51,0.5
			s-1.16,0.17-1.84,0.17c-1.027,0-1.98-0.188-2.859-0.561c-0.881-0.373-1.641-0.883-2.28-1.53c-0.64-0.646-1.14-1.409-1.5-2.29
			c-0.36-0.88-0.54-1.82-0.54-2.82v-0.039c0-1,0.18-1.938,0.54-2.811s0.86-1.641,1.5-2.3c0.64-0.66,1.406-1.181,2.3-1.56
			c0.893-0.381,1.88-0.57,2.96-0.57c0.653,0,1.25,0.053,1.79,0.16c0.54,0.106,1.03,0.253,1.471,0.439
			c0.439,0.188,0.846,0.414,1.219,0.68c0.373,0.268,0.721,0.561,1.041,0.881l-1.961,2.26c-0.547-0.493-1.104-0.881-1.67-1.16
			s-1.203-0.42-1.91-0.42c-0.586,0-1.129,0.113-1.629,0.34s-0.931,0.54-1.291,0.939c-0.359,0.4-0.64,0.864-0.84,1.391
			c-0.199,0.527-0.3,1.09-0.3,1.689v0.041c0,0.6,0.101,1.166,0.3,1.699c0.2,0.533,0.477,1,0.83,1.4s0.78,0.717,1.28,0.949
			c0.5,0.234,1.05,0.351,1.649,0.351c0.801,0,1.477-0.146,2.031-0.44c0.553-0.293,1.103-0.692,1.649-1.199l1.96,1.98
			C266.489,67.463,266.115,67.809,265.729,68.115z"/>
		<path fill="#FFFFFF" d="M283.729,69.335l-1.28-3.14h-5.92l-1.279,3.14h-3.141l6-14.1h2.84l6,14.1H283.729z M279.488,58.936
			l-1.86,4.54h3.721L279.488,58.936z"/>
		<path fill="#FFFFFF" d="M302.929,69.335l-6.78-8.9v8.9h-3.04v-14h2.84l6.561,8.619v-8.619h3.039v14H302.929z"/>
		<path fill="#FFFFFF" d="M323.329,69.335l-1.281-3.14h-5.92l-1.279,3.14h-3.141l6-14.1h2.84l6,14.1H323.329z M319.089,58.936
			l-1.86,4.54h3.72L319.089,58.936z"/>
		<path fill="#FFFFFF" d="M210.689,76.416v11.16h-3.08v-11.16h-4.261v-2.84h11.601v2.84H210.689z"/>
		<path fill="#FFFFFF" d="M221.309,87.576v-14h10.54v2.74h-7.499v2.84h6.6v2.74h-6.6v2.939h7.599v2.74H221.309z"/>
		<path fill="#FFFFFF" d="M249.129,87.576l-1.28-3.141h-5.92l-1.279,3.141h-3.141l6-14.1h2.84l6,14.1H249.129z M244.889,77.175
			l-1.86,4.541h3.721L244.889,77.175z"/>
		<path fill="#FFFFFF" d="M264.849,76.416v11.16h-3.08v-11.16h-4.26v-2.84h11.6v2.84H264.849z"/>
		<path fill="#FFFFFF" d="M283.969,87.576l-3-4.48h-2.421v4.48h-3.079v-14h6.399c1.667,0,2.963,0.406,3.891,1.221
			c0.926,0.813,1.39,1.945,1.39,3.398v0.041c0,1.133-0.276,2.057-0.83,2.77s-1.276,1.236-2.17,1.57l3.42,5H283.969z M284.028,78.355
			c0-0.666-0.213-1.166-0.64-1.5c-0.427-0.332-1.021-0.5-1.78-0.5h-3.061v4.02h3.121c0.76,0,1.343-0.18,1.75-0.539
			c0.406-0.359,0.609-0.84,0.609-1.439V78.355z"/>
		<path fill="#FFFFFF" d="M307.628,83.386c-0.373,0.873-0.889,1.639-1.549,2.299s-1.447,1.18-2.36,1.561
			c-0.913,0.379-1.91,0.57-2.99,0.57s-2.073-0.191-2.979-0.57c-0.907-0.381-1.69-0.893-2.351-1.541
			c-0.659-0.646-1.173-1.406-1.54-2.279s-0.55-1.811-0.55-2.811v-0.039c0-1,0.187-1.938,0.56-2.811s0.891-1.641,1.551-2.299
			c0.66-0.66,1.446-1.182,2.359-1.561c0.914-0.381,1.91-0.57,2.99-0.57s2.073,0.189,2.98,0.57c0.906,0.379,1.689,0.893,2.35,1.539
			c0.66,0.648,1.173,1.408,1.54,2.281c0.366,0.873,0.55,1.809,0.55,2.809v0.041C308.188,81.576,308.001,82.513,307.628,83.386z
			 M304.969,80.576c0-0.6-0.104-1.166-0.31-1.701c-0.207-0.531-0.5-1-0.881-1.398c-0.38-0.4-0.83-0.717-1.35-0.951
			c-0.52-0.232-1.087-0.35-1.7-0.35c-0.627,0-1.196,0.113-1.71,0.34s-0.953,0.541-1.32,0.939c-0.367,0.4-0.653,0.865-0.859,1.391
			c-0.207,0.527-0.311,1.09-0.311,1.689v0.041c0,0.6,0.104,1.166,0.311,1.699c0.206,0.533,0.5,1,0.88,1.4s0.826,0.717,1.34,0.949
			c0.513,0.234,1.083,0.352,1.71,0.352c0.613,0,1.18-0.113,1.7-0.34s0.963-0.541,1.329-0.941c0.367-0.398,0.654-0.863,0.861-1.389
			c0.206-0.527,0.31-1.09,0.31-1.691V80.576z"/>
		<path fill="#FFFFFF" d="M212.129,103.195c-0.24,0.627-0.576,1.15-1.01,1.57s-0.957,0.734-1.57,0.939
			c-0.613,0.207-1.287,0.311-2.02,0.311c-1.094,0-2.011-0.207-2.751-0.619c-0.739-0.414-1.35-0.906-1.83-1.48l1.941-2.16
			c0.399,0.439,0.803,0.783,1.21,1.029c0.406,0.248,0.855,0.371,1.35,0.371c0.586,0,1.047-0.184,1.38-0.551
			c0.333-0.365,0.5-0.957,0.5-1.77v-9.02h3.159v9.16C212.488,101.83,212.369,102.57,212.129,103.195z"/>
		<path fill="#FFFFFF" d="M231.179,102.496c-0.286,0.787-0.696,1.443-1.229,1.971c-0.533,0.525-1.181,0.92-1.94,1.18
			c-0.761,0.26-1.606,0.389-2.54,0.389c-1.88,0-3.359-0.52-4.439-1.559c-1.08-1.041-1.621-2.594-1.621-4.66v-8h3.08v7.92
			c0,1.146,0.268,2.01,0.801,2.59s1.273,0.869,2.22,0.869s1.687-0.279,2.22-0.84c0.533-0.559,0.801-1.4,0.801-2.52v-8.02h3.08v7.9
			C231.609,100.783,231.465,101.708,231.179,102.496z"/>
		<path fill="#FFFFFF" d="M238.749,105.816v-14h10.54v2.74h-7.5v2.84h6.6v2.74h-6.6v2.939h7.6v2.74H238.749z"/>
		<path fill="#FFFFFF" d="M266.299,105.406c-0.993,0.434-2.13,0.65-3.41,0.65c-1.093,0-2.09-0.182-2.989-0.541
			c-0.9-0.359-1.674-0.859-2.32-1.5c-0.647-0.641-1.15-1.4-1.51-2.279c-0.36-0.881-0.541-1.84-0.541-2.881v-0.039
			c0-1,0.184-1.938,0.551-2.811c0.366-0.873,0.876-1.641,1.529-2.301s1.427-1.18,2.32-1.559c0.893-0.381,1.873-0.57,2.939-0.57
			c0.627,0,1.197,0.043,1.711,0.129c0.513,0.088,0.99,0.211,1.43,0.371s0.854,0.359,1.24,0.6s0.76,0.514,1.119,0.82l-1.939,2.34
			c-0.267-0.227-0.533-0.428-0.8-0.6c-0.267-0.174-0.544-0.32-0.83-0.441c-0.287-0.119-0.597-0.213-0.931-0.279
			c-0.333-0.066-0.699-0.1-1.1-0.1c-0.56,0-1.083,0.117-1.57,0.352c-0.486,0.232-0.913,0.547-1.279,0.941
			c-0.367,0.395-0.654,0.855-0.86,1.383s-0.31,1.094-0.31,1.693v0.041c0,0.641,0.104,1.232,0.31,1.773s0.5,1.014,0.88,1.414
			c0.381,0.4,0.826,0.711,1.34,0.932s1.084,0.33,1.711,0.33c1.146,0,2.113-0.281,2.899-0.846v-2.014h-3.101v-2.66h6.08v6.08
			C268.149,104.449,267.292,104.972,266.299,105.406z"/>
		<path fill="#FFFFFF" d="M289.528,101.625c-0.373,0.875-0.89,1.641-1.55,2.301s-1.446,1.18-2.36,1.561
			c-0.913,0.379-1.91,0.57-2.99,0.57s-2.072-0.191-2.979-0.57c-0.907-0.381-1.69-0.893-2.351-1.541
			c-0.659-0.646-1.173-1.406-1.539-2.279c-0.367-0.873-0.551-1.811-0.551-2.811v-0.039c0-1,0.188-1.938,0.561-2.811
			s0.89-1.641,1.55-2.301s1.446-1.18,2.36-1.559c0.913-0.381,1.91-0.57,2.99-0.57s2.072,0.189,2.979,0.57
			c0.907,0.379,1.69,0.893,2.351,1.539c0.659,0.646,1.172,1.406,1.539,2.281c0.367,0.873,0.551,1.809,0.551,2.809v0.041
			C290.089,99.816,289.901,100.751,289.528,101.625z M286.868,98.816c0-0.6-0.104-1.168-0.31-1.701c-0.207-0.533-0.5-1-0.88-1.4
			c-0.381-0.398-0.83-0.715-1.35-0.949c-0.521-0.232-1.088-0.35-1.701-0.35c-0.627,0-1.196,0.113-1.709,0.34
			c-0.514,0.227-0.954,0.539-1.32,0.939c-0.367,0.4-0.654,0.863-0.86,1.391s-0.31,1.09-0.31,1.689v0.041
			c0,0.6,0.104,1.166,0.31,1.699s0.5,1,0.88,1.4c0.381,0.4,0.826,0.717,1.34,0.949c0.514,0.234,1.084,0.352,1.711,0.352
			c0.613,0,1.18-0.113,1.699-0.342c0.521-0.227,0.963-0.539,1.33-0.939s0.653-0.863,0.86-1.389c0.206-0.527,0.31-1.092,0.31-1.691
			V98.816z"/>
		<path fill="#FFFFFF" d="M306.571,103.525c-0.252,0.541-0.604,0.994-1.054,1.361c-0.45,0.365-0.987,0.646-1.612,0.84
			s-1.316,0.289-2.076,0.289c-1.067,0-2.114-0.184-3.141-0.549c-1.027-0.367-1.96-0.932-2.8-1.691l1.819-2.18
			c0.641,0.52,1.297,0.934,1.971,1.24c0.673,0.307,1.41,0.461,2.21,0.461c0.64,0,1.136-0.117,1.489-0.352
			c0.354-0.232,0.53-0.557,0.53-0.969v-0.041c0-0.199-0.036-0.377-0.11-0.529c-0.073-0.154-0.214-0.297-0.421-0.43
			s-0.495-0.268-0.862-0.4s-0.846-0.273-1.434-0.42c-0.709-0.174-1.351-0.367-1.926-0.58c-0.574-0.213-1.063-0.477-1.463-0.791
			c-0.402-0.313-0.713-0.703-0.934-1.17s-0.33-1.045-0.33-1.74v-0.039c0-0.641,0.119-1.217,0.357-1.73s0.572-0.957,1.004-1.33
			c0.43-0.373,0.943-0.66,1.542-0.859c0.597-0.201,1.257-0.301,1.977-0.301c1.026,0,1.97,0.154,2.83,0.461s1.649,0.746,2.37,1.32
			l-1.601,2.318c-0.626-0.426-1.239-0.762-1.84-1.01c-0.601-0.246-1.2-0.369-1.8-0.369s-1.051,0.117-1.35,0.35
			c-0.301,0.234-0.451,0.523-0.451,0.871v0.039c0,0.227,0.044,0.424,0.131,0.59c0.087,0.168,0.244,0.316,0.471,0.451
			c0.229,0.133,0.539,0.26,0.934,0.379c0.395,0.121,0.892,0.26,1.494,0.42c0.708,0.188,1.34,0.396,1.895,0.631
			c0.555,0.232,1.022,0.514,1.404,0.84c0.381,0.326,0.668,0.709,0.861,1.15c0.193,0.439,0.291,0.967,0.291,1.58v0.039
			C306.948,102.369,306.822,102.986,306.571,103.525z"/>
	</g>
	<rect x="76.138" y="88.23" fill="#FFFFFF" width="116.814" height="18.723"/>
</g>
</svg>
