<?xml version="1.0" encoding="utf-8"?>
<!-- Generator: Adobe Illustrator 16.0.0, SVG Export Plug-In . SVG Version: 6.00 Build 0)  -->
<!DOCTYPE svg PUBLIC "-//W3C//DTD SVG 1.1//EN" "http://www.w3.org/Graphics/SVG/1.1/DTD/svg11.dtd">
<svg version="1.1" id="Capa_1" xmlns="http://www.w3.org/2000/svg" xmlns:xlink="http://www.w3.org/1999/xlink" x="0px" y="0px"
	 width="400px" height="114.667px" viewBox="0 0 400 114.667" enable-background="new 0 0 400 114.667" xml:space="preserve">
<g>
	<g>
		<path fill="#FFFFFF" d="M70.132,37.589c-0.629,1.351-1.506,2.483-2.633,3.399c-1.126,0.918-2.471,1.617-4.031,2.101
			c-1.561,0.483-3.291,0.726-5.191,0.726c-2.668,0-5.282-0.459-7.85-1.375c-2.568-0.917-4.9-2.326-7-4.226l4.549-5.45
			c1.602,1.301,3.242,2.334,4.926,3.1c1.684,0.768,3.525,1.15,5.525,1.15c1.6,0,2.841-0.291,3.725-0.875
			c0.884-0.582,1.324-1.391,1.324-2.425v-0.101c0-0.5-0.092-0.941-0.274-1.324c-0.184-0.383-0.535-0.742-1.054-1.075
			c-0.518-0.333-1.235-0.667-2.155-1c-0.919-0.333-2.113-0.683-3.584-1.05c-1.771-0.434-3.375-0.916-4.813-1.45
			c-1.438-0.532-2.658-1.191-3.66-1.976c-1.003-0.782-1.779-1.757-2.331-2.924s-0.827-2.616-0.827-4.35v-0.1
			c0-1.6,0.298-3.041,0.895-4.325c0.597-1.283,1.433-2.392,2.509-3.325c1.076-0.933,2.361-1.65,3.855-2.15
			c1.493-0.5,3.143-0.75,4.94-0.75c2.566,0,4.926,0.384,7.076,1.15c2.149,0.767,4.125,1.867,5.924,3.3l-4,5.8
			c-1.565-1.066-3.1-1.908-4.6-2.525s-3-0.925-4.5-0.925s-2.625,0.292-3.375,0.875c-0.75,0.584-1.125,1.309-1.125,2.175v0.1
			c0,0.567,0.108,1.059,0.326,1.475c0.217,0.417,0.608,0.792,1.178,1.125c0.568,0.334,1.346,0.65,2.332,0.95
			c0.984,0.3,2.229,0.65,3.733,1.05c1.771,0.467,3.351,0.992,4.738,1.575c1.387,0.583,2.557,1.284,3.509,2.1
			s1.671,1.775,2.155,2.875s0.729,2.417,0.729,3.949v0.101C71.076,34.697,70.761,36.238,70.132,37.589z"/>
		<path fill="#FFFFFF" d="M99.677,43.314v-14.05H85.476v14.051h-7.699v-35h7.699v13.85h14.201V8.314h7.699v35H99.677z"/>
		<path fill="#FFFFFF" d="M150.026,32.839c-0.934,2.184-2.226,4.101-3.875,5.75s-3.616,2.95-5.899,3.899
			c-2.283,0.951-4.775,1.426-7.476,1.426s-5.184-0.475-7.45-1.426c-2.268-0.949-4.226-2.232-5.875-3.85
			c-1.649-1.616-2.935-3.516-3.851-5.699c-0.917-2.184-1.375-4.525-1.375-7.025v-0.1c0-2.5,0.467-4.842,1.4-7.025
			c0.933-2.183,2.225-4.1,3.875-5.75c1.649-1.65,3.616-2.95,5.899-3.9c2.282-0.95,4.774-1.425,7.476-1.425
			c2.699,0,5.183,0.475,7.449,1.425c2.268,0.95,4.226,2.233,5.875,3.85c1.649,1.617,2.934,3.518,3.851,5.7
			c0.917,2.184,1.375,4.525,1.375,7.025v0.101C151.426,28.314,150.958,30.656,150.026,32.839z M143.376,25.814
			c0-1.5-0.259-2.917-0.775-4.25c-0.518-1.333-1.25-2.5-2.199-3.5c-0.95-1-2.075-1.792-3.375-2.375
			c-1.301-0.583-2.718-0.875-4.25-0.875c-1.567,0-2.991,0.284-4.274,0.85c-1.283,0.567-2.384,1.35-3.301,2.35
			c-0.916,1-1.634,2.158-2.149,3.475c-0.517,1.317-0.774,2.725-0.774,4.225v0.101c0,1.5,0.259,2.916,0.774,4.25
			c0.517,1.333,1.25,2.5,2.2,3.5c0.949,1,2.065,1.791,3.35,2.375c1.283,0.583,2.708,0.875,4.275,0.875
			c1.533,0,2.949-0.283,4.25-0.851c1.3-0.566,2.408-1.351,3.324-2.351c0.917-1,1.633-2.157,2.149-3.475
			c0.518-1.316,0.775-2.725,0.775-4.225V25.814L143.376,25.814z"/>
		<path fill="#FFFFFF" d="M196.726,43.564h-6.7l-7.899-22.9l-7.899,22.9h-6.7l-11.949-35.25h8.25l7.25,23.7l7.85-23.8h6.601
			l7.851,23.8l7.25-23.7h8.05L196.726,43.564z"/>
		<path fill="#FFFFFF" d="M214.376,43.314v-35h7.7v28.049h17.448v6.951H214.376z"/>
		<path fill="#FFFFFF" d="M271.375,43.314l-3.2-7.851h-14.8l-3.2,7.851h-7.85l15-35.25h7.1l15,35.25H271.375L271.375,43.314z
			 M260.775,17.314l-4.649,11.35h9.3L260.775,17.314z"/>
		<path fill="#FFFFFF" d="M309.373,43.314l-16.949-22.25v22.25h-7.601v-35h7.101l16.399,21.549V8.314h7.601v35H309.373z"/>
		<path fill="#FFFFFF" d="M355.224,32.714c-0.899,2.134-2.175,3.983-3.824,5.55s-3.617,2.801-5.899,3.7
			c-2.283,0.899-4.793,1.351-7.525,1.351h-13.649v-35h13.649c2.732,0,5.242,0.442,7.525,1.325c2.282,0.883,4.25,2.108,5.899,3.675
			s2.925,3.409,3.824,5.525c0.899,2.117,1.351,4.409,1.351,6.875v0.101C356.573,28.281,356.123,30.581,355.224,32.714z
			 M348.524,25.814c0-1.533-0.259-2.951-0.775-4.25c-0.518-1.3-1.232-2.417-2.149-3.35c-0.917-0.933-2.024-1.658-3.324-2.175
			c-1.301-0.517-2.734-0.775-4.301-0.775h-5.949v21.099h5.949c1.565,0,3-0.25,4.301-0.75c1.3-0.5,2.407-1.216,3.324-2.149
			c0.917-0.933,1.633-2.032,2.149-3.3c0.518-1.267,0.775-2.684,0.775-4.25V25.814z"/>
		<path fill="#FFFFFF" d="M98.739,83.554l-10.85-14.9l-4.051,4.199v10.701H76.14v-35h7.699v15.3l14.201-15.3h9.299l-14.25,14.852
			l14.899,20.149L98.739,83.554L98.739,83.554z"/>
		<path fill="#FFFFFF" d="M112.989,83.554v-35h7.7v35H112.989z"/>
		<path fill="#FFFFFF" d="M160.339,72.955c-0.899,2.133-2.175,3.982-3.824,5.549c-1.649,1.568-3.617,2.802-5.899,3.701
			c-2.283,0.898-4.793,1.351-7.525,1.351h-13.649v-35h13.649c2.733,0,5.242,0.442,7.525,1.325c2.282,0.883,4.25,2.108,5.899,3.675
			c1.649,1.567,2.925,3.409,3.824,5.524c0.899,2.116,1.351,4.408,1.351,6.875v0.101C161.689,68.521,161.239,70.822,160.339,72.955z
			 M153.64,66.054c0-1.532-0.259-2.95-0.774-4.25c-0.519-1.301-1.233-2.417-2.15-3.352c-0.917-0.932-2.024-1.657-3.324-2.174
			c-1.301-0.518-2.733-0.775-4.301-0.775h-5.949v21.099h5.949c1.565,0,3-0.25,4.301-0.75c1.3-0.5,2.407-1.215,3.324-2.148
			c0.917-0.933,1.633-2.033,2.15-3.301c0.517-1.268,0.774-2.683,0.774-4.25V66.054z"/>
		<path fill="#FFFFFF" d="M192.896,77.83c-0.63,1.351-1.508,2.482-2.633,3.398c-1.127,0.918-2.471,1.617-4.031,2.102
			c-1.563,0.482-3.293,0.726-5.191,0.726c-2.667,0-5.284-0.459-7.852-1.375c-2.566-0.916-4.898-2.326-7-4.226l4.551-5.451
			c1.601,1.302,3.241,2.334,4.926,3.101c1.683,0.769,3.523,1.149,5.523,1.149c1.602,0,2.842-0.291,3.727-0.875
			c0.883-0.582,1.324-1.391,1.324-2.424v-0.102c0-0.5-0.093-0.941-0.275-1.324c-0.186-0.383-0.535-0.742-1.053-1.074
			c-0.52-0.334-1.237-0.668-2.155-1c-0.92-0.334-2.114-0.684-3.585-1.051c-1.771-0.434-3.376-0.916-4.813-1.451
			c-1.438-0.531-2.655-1.19-3.658-1.975c-1.004-0.784-1.779-1.758-2.331-2.926c-0.553-1.166-0.827-2.615-0.827-4.35v-0.101
			c0-1.6,0.298-3.041,0.894-4.324c0.596-1.283,1.433-2.393,2.509-3.326c1.076-0.932,2.361-1.649,3.856-2.149
			c1.493-0.5,3.141-0.75,4.941-0.75c2.565,0,4.925,0.384,7.073,1.149c2.15,0.768,4.125,1.867,5.927,3.301l-4,5.799
			c-1.567-1.065-3.102-1.906-4.602-2.523c-1.5-0.617-3-0.926-4.5-0.926s-2.625,0.293-3.375,0.875
			c-0.75,0.584-1.125,1.309-1.125,2.176v0.1c0,0.566,0.108,1.06,0.326,1.476c0.217,0.418,0.609,0.793,1.178,1.125
			c0.568,0.334,1.346,0.649,2.331,0.95c0.986,0.3,2.23,0.648,3.735,1.05c1.771,0.467,3.351,0.992,4.736,1.575
			c1.387,0.583,2.558,1.283,3.511,2.102c0.952,0.815,1.671,1.774,2.154,2.875c0.484,1.1,0.729,2.418,0.729,3.948v0.103
			C193.839,74.937,193.524,76.478,192.896,77.83z"/>
	</g>
	<rect x="76.138" y="88.23" fill="#FFFFFF" width="116.814" height="18.723"/>
	<g>
		<path fill="#FFFFFF" d="M210.689,76.416v11.16h-3.08v-11.16h-4.261v-2.84h11.602v2.84H210.689z"/>
		<path fill="#FFFFFF" d="M221.309,87.576v-14h10.54v2.74h-7.499v2.84h6.601v2.74h-6.601v2.939h7.6v2.74H221.309L221.309,87.576z"/>
		<path fill="#FFFFFF" d="M249.129,87.576l-1.28-3.141h-5.92l-1.279,3.141h-3.141l6-14.1h2.84l6,14.1H249.129z M244.889,77.175
			l-1.86,4.541h3.722L244.889,77.175z"/>
		<path fill="#FFFFFF" d="M264.849,76.416v11.16h-3.08v-11.16h-4.26v-2.84h11.6v2.84H264.849z"/>
		<path fill="#FFFFFF" d="M283.969,87.576l-3-4.479h-2.421v4.479h-3.079v-14h6.399c1.667,0,2.963,0.406,3.891,1.221
			c0.926,0.813,1.39,1.945,1.39,3.398v0.041c0,1.133-0.275,2.057-0.83,2.77c-0.554,0.713-1.275,1.236-2.17,1.57l3.42,5H283.969z
			 M284.028,78.355c0-0.666-0.213-1.166-0.64-1.5c-0.427-0.332-1.021-0.5-1.78-0.5h-3.061v4.02h3.121c0.76,0,1.343-0.18,1.75-0.539
			c0.406-0.358,0.608-0.84,0.608-1.438L284.028,78.355L284.028,78.355z"/>
		<path fill="#FFFFFF" d="M307.628,83.386c-0.373,0.873-0.89,1.639-1.55,2.299c-0.659,0.66-1.446,1.18-2.359,1.561
			c-0.913,0.379-1.91,0.57-2.99,0.57s-2.073-0.191-2.979-0.57c-0.907-0.381-1.69-0.893-2.352-1.541
			c-0.659-0.646-1.173-1.406-1.54-2.279c-0.366-0.873-0.55-1.811-0.55-2.811v-0.039c0-1,0.188-1.938,0.561-2.811
			s0.891-1.641,1.551-2.299c0.66-0.66,1.446-1.182,2.358-1.561c0.914-0.382,1.91-0.57,2.99-0.57s2.073,0.188,2.979,0.57
			c0.906,0.379,1.689,0.893,2.351,1.538c0.66,0.647,1.173,1.408,1.54,2.281c0.366,0.873,0.55,1.81,0.55,2.81v0.041
			C308.188,81.576,308.001,82.513,307.628,83.386z M304.969,80.576c0-0.6-0.104-1.166-0.311-1.701c-0.207-0.531-0.5-1-0.881-1.397
			c-0.38-0.399-0.83-0.718-1.35-0.951c-0.521-0.231-1.087-0.351-1.7-0.351c-0.627,0-1.196,0.113-1.71,0.341s-0.953,0.541-1.32,0.938
			c-0.366,0.4-0.652,0.865-0.858,1.392c-0.207,0.526-0.312,1.09-0.312,1.688v0.041c0,0.6,0.104,1.166,0.312,1.699
			c0.206,0.533,0.5,1,0.88,1.4s0.826,0.717,1.34,0.949c0.513,0.233,1.083,0.352,1.71,0.352c0.613,0,1.18-0.113,1.7-0.34
			c0.52-0.227,0.963-0.541,1.329-0.941c0.366-0.398,0.653-0.863,0.86-1.389c0.206-0.527,0.311-1.09,0.311-1.691V80.576
			L304.969,80.576z"/>
		<path fill="#FFFFFF" d="M212.129,103.195c-0.24,0.627-0.576,1.15-1.01,1.57c-0.435,0.42-0.957,0.734-1.57,0.939
			c-0.613,0.207-1.287,0.311-2.021,0.311c-1.094,0-2.011-0.207-2.751-0.619c-0.738-0.414-1.35-0.906-1.83-1.48l1.941-2.16
			c0.399,0.439,0.803,0.783,1.21,1.029c0.406,0.248,0.855,0.371,1.351,0.371c0.586,0,1.047-0.184,1.38-0.551
			c0.333-0.365,0.5-0.957,0.5-1.77v-9.021h3.158v9.16C212.488,101.83,212.369,102.57,212.129,103.195z"/>
		<path fill="#FFFFFF" d="M231.179,102.496c-0.286,0.787-0.696,1.443-1.229,1.971c-0.533,0.525-1.182,0.921-1.94,1.181
			c-0.761,0.261-1.606,0.39-2.54,0.39c-1.88,0-3.359-0.521-4.439-1.56c-1.079-1.041-1.62-2.595-1.62-4.66v-8h3.08v7.92
			c0,1.146,0.268,2.011,0.801,2.591s1.272,0.868,2.22,0.868s1.687-0.278,2.22-0.84c0.533-0.56,0.802-1.399,0.802-2.521v-8.02h3.079
			v7.9C231.609,100.783,231.465,101.708,231.179,102.496z"/>
		<path fill="#FFFFFF" d="M238.749,105.816v-14h10.54v2.74h-7.5v2.84h6.6v2.74h-6.6v2.939h7.6v2.739L238.749,105.816
			L238.749,105.816z"/>
		<path fill="#FFFFFF" d="M266.299,105.406c-0.993,0.434-2.13,0.65-3.41,0.65c-1.093,0-2.09-0.182-2.989-0.541
			s-1.674-0.859-2.319-1.5c-0.647-0.641-1.15-1.4-1.511-2.279c-0.359-0.881-0.541-1.84-0.541-2.881v-0.039
			c0-1,0.185-1.938,0.552-2.811c0.365-0.873,0.876-1.641,1.528-2.301c0.653-0.66,1.428-1.181,2.32-1.56
			c0.893-0.381,1.873-0.569,2.939-0.569c0.627,0,1.196,0.043,1.711,0.129c0.513,0.088,0.989,0.211,1.43,0.371
			c0.439,0.159,0.854,0.358,1.24,0.6c0.386,0.24,0.76,0.514,1.119,0.82l-1.939,2.34c-0.267-0.228-0.533-0.428-0.8-0.601
			c-0.268-0.174-0.544-0.319-0.83-0.44c-0.287-0.119-0.597-0.213-0.931-0.279c-0.333-0.066-0.699-0.1-1.101-0.1
			c-0.56,0-1.083,0.117-1.57,0.352c-0.485,0.232-0.912,0.547-1.278,0.941c-0.367,0.395-0.654,0.854-0.86,1.383
			c-0.206,0.527-0.31,1.094-0.31,1.693v0.041c0,0.641,0.104,1.231,0.31,1.772s0.5,1.014,0.88,1.414
			c0.381,0.399,0.826,0.711,1.34,0.932c0.515,0.222,1.084,0.33,1.711,0.33c1.146,0,2.113-0.28,2.899-0.847v-2.014h-3.101v-2.66h6.08
			v6.08C268.149,104.449,267.292,104.972,266.299,105.406z"/>
		<path fill="#FFFFFF" d="M289.528,101.625c-0.373,0.875-0.89,1.642-1.55,2.301c-0.66,0.66-1.445,1.181-2.359,1.562
			c-0.913,0.38-1.91,0.57-2.99,0.57s-2.072-0.19-2.979-0.57c-0.906-0.381-1.689-0.894-2.351-1.541
			c-0.659-0.646-1.173-1.405-1.539-2.278c-0.367-0.873-0.551-1.812-0.551-2.812v-0.039c0-1,0.188-1.938,0.561-2.812
			s0.891-1.641,1.55-2.301c0.66-0.66,1.446-1.18,2.36-1.559c0.913-0.381,1.91-0.57,2.99-0.57s2.072,0.189,2.979,0.57
			c0.907,0.379,1.69,0.893,2.352,1.539c0.659,0.646,1.172,1.406,1.539,2.281c0.366,0.873,0.551,1.809,0.551,2.809v0.041
			C290.089,99.816,289.901,100.751,289.528,101.625z M286.868,98.816c0-0.6-0.104-1.168-0.311-1.701c-0.207-0.533-0.5-1-0.88-1.4
			c-0.381-0.397-0.83-0.715-1.35-0.948c-0.521-0.231-1.089-0.351-1.701-0.351c-0.627,0-1.196,0.113-1.709,0.34
			c-0.515,0.228-0.954,0.539-1.32,0.939c-0.367,0.4-0.654,0.863-0.86,1.391c-0.205,0.529-0.31,1.09-0.31,1.689v0.041
			c0,0.6,0.104,1.166,0.31,1.699c0.206,0.533,0.5,1,0.881,1.4c0.381,0.399,0.825,0.717,1.34,0.949
			c0.514,0.233,1.084,0.352,1.711,0.352c0.613,0,1.18-0.113,1.699-0.342c0.521-0.228,0.963-0.539,1.329-0.939
			c0.367-0.4,0.653-0.863,0.86-1.389c0.206-0.527,0.311-1.092,0.311-1.691V98.816L286.868,98.816z"/>
		<path fill="#FFFFFF" d="M306.571,103.525c-0.252,0.541-0.604,0.994-1.054,1.361c-0.45,0.365-0.987,0.646-1.612,0.84
			s-1.315,0.289-2.076,0.289c-1.066,0-2.113-0.184-3.141-0.549c-1.027-0.367-1.96-0.932-2.8-1.691l1.819-2.18
			c0.641,0.52,1.297,0.934,1.971,1.24c0.673,0.307,1.41,0.461,2.21,0.461c0.64,0,1.136-0.117,1.489-0.353
			c0.354-0.231,0.529-0.558,0.529-0.969v-0.041c0-0.199-0.036-0.377-0.109-0.529c-0.073-0.153-0.214-0.297-0.421-0.43
			c-0.207-0.134-0.495-0.269-0.862-0.399c-0.367-0.133-0.846-0.273-1.434-0.421c-0.709-0.174-1.352-0.366-1.927-0.579
			c-0.573-0.214-1.063-0.478-1.463-0.791c-0.401-0.313-0.713-0.703-0.934-1.17c-0.221-0.468-0.33-1.046-0.33-1.74v-0.039
			c0-0.642,0.119-1.217,0.357-1.73c0.237-0.514,0.571-0.957,1.004-1.33c0.43-0.373,0.942-0.66,1.542-0.859
			c0.597-0.201,1.257-0.301,1.977-0.301c1.026,0,1.97,0.154,2.83,0.461c0.859,0.307,1.648,0.746,2.37,1.32l-1.602,2.318
			c-0.626-0.426-1.238-0.762-1.84-1.01c-0.601-0.246-1.2-0.369-1.8-0.369s-1.051,0.117-1.35,0.35
			c-0.302,0.234-0.451,0.523-0.451,0.871v0.039c0,0.227,0.044,0.424,0.131,0.59c0.087,0.168,0.244,0.316,0.471,0.451
			c0.229,0.133,0.539,0.26,0.935,0.379c0.395,0.121,0.892,0.26,1.493,0.42c0.708,0.188,1.341,0.396,1.896,0.631
			c0.555,0.232,1.021,0.514,1.404,0.84c0.381,0.326,0.668,0.709,0.86,1.15c0.193,0.439,0.291,0.967,0.291,1.58v0.039
			C306.948,102.369,306.822,102.986,306.571,103.525z"/>
		<path fill="#FFFFFF" d="M213.056,68.925c-0.993,0.434-2.13,0.65-3.41,0.65c-1.094,0-2.09-0.181-2.99-0.54
			c-0.899-0.36-1.673-0.86-2.319-1.5c-0.647-0.641-1.15-1.4-1.511-2.28c-0.359-0.88-0.54-1.84-0.54-2.88v-0.04
			c0-1,0.184-1.937,0.551-2.81c0.366-0.874,0.876-1.641,1.529-2.3c0.653-0.66,1.427-1.18,2.32-1.56s1.873-0.57,2.94-0.57
			c0.626,0,1.196,0.043,1.71,0.13c0.513,0.087,0.989,0.21,1.43,0.37c0.44,0.16,0.854,0.36,1.24,0.6c0.387,0.24,0.76,0.514,1.12,0.82
			l-1.94,2.339c-0.267-0.227-0.533-0.426-0.8-0.6c-0.267-0.173-0.544-0.32-0.83-0.439c-0.287-0.12-0.597-0.214-0.93-0.28
			c-0.334-0.066-0.7-0.101-1.101-0.101c-0.56,0-1.083,0.117-1.569,0.352c-0.487,0.233-0.914,0.548-1.28,0.942
			c-0.367,0.394-0.653,0.854-0.86,1.383c-0.207,0.527-0.31,1.093-0.31,1.693v0.04c0,0.642,0.103,1.233,0.31,1.774
			s0.5,1.013,0.88,1.413s0.827,0.712,1.34,0.932c0.514,0.221,1.084,0.331,1.71,0.331c1.147,0,2.113-0.282,2.9-0.846v-2.015h-3.1
			v-2.659h6.08v6.079C214.906,67.969,214.049,68.493,213.056,68.925z"/>
		<path fill="#FFFFFF" d="M229.606,63.755v5.58h-3.08v-5.52l-5.38-8.48h3.6l3.34,5.62l3.4-5.62h3.5L229.606,63.755z"/>
		<path fill="#FFFFFF" d="M251.865,69.335v-9.14l-3.939,5.979h-0.08l-3.9-5.92v9.08h-3.04v-14h3.32l3.68,5.92l3.681-5.92h3.319v14
			H251.865z"/>
		<path fill="#FFFFFF" d="M271.305,69.335l-4.34-5.96l-1.62,1.68v4.28h-3.08v-14h3.08v6.12l5.681-6.12h3.72l-5.7,5.94l5.96,8.06
			H271.305z"/>
		<path fill="#FFFFFF" d="M289.626,69.335v-5.62h-5.681v5.62h-3.08v-14h3.08v5.54h5.681v-5.54h3.079v14H289.626z"/>
		<path fill="#FFFFFF" d="M310.485,69.335l-1.279-3.14h-5.92l-1.28,3.14h-3.14l6-14.1h2.84l6,14.1H310.485z M306.245,58.935
			l-1.86,4.54h3.72L306.245,58.935z"/>
		<path fill="#FFFFFF" d="M329.685,69.335l-6.78-8.9v8.9h-3.04v-14h2.84l6.561,8.62v-8.62h3.04v14H329.685z"/>
		<path fill="#FFFFFF" d="M350.084,69.335l-1.279-3.14h-5.92l-1.28,3.14h-3.14l6-14.1h2.84l6,14.1H350.084z M345.845,58.935
			l-1.86,4.54h3.72L345.845,58.935z"/>
	</g>
</g>
</svg>
