<svg xmlns="http://www.w3.org/2000/svg" width="400" height="400"><g fill="#E3B8D3"><path d="M374.5 371.582H155.364c-1.17 0-2.117-.947-2.117-2.116V246.6a2.12 2.12 0 0 1 .634-1.511l30.67-30.11a2.12 2.12 0 0 1 1.483-.605H345.5a2.11 2.11 0 0 1 1.524.648l29 30.11c.38.394.592.92.592 1.468v122.867c0 1.17-.947 2.116-2.116 2.116zm-217.02-4.232h214.903V247.452L344.6 218.605H186.898l-29.417 28.88V367.35zm-27.956-15.44H110.59c-1.17 0-2.117-.947-2.117-2.116v-44.952c0-1.17.948-2.116 2.117-2.116h18.934c1.17 0 2.117.947 2.117 2.116v44.952a2.12 2.12 0 0 1-2.117 2.116zm-16.818-4.232h14.7v-40.72h-14.7v40.72z"/><path d="M155.363 351.9h-25.838c-1.17 0-2.117-.947-2.117-2.116v-15.7c0-1.17.948-2.116 2.117-2.116h25.838c1.17 0 2.117.947 2.117 2.116v15.7c0 1.17-.948 2.116-2.117 2.116zm-23.722-4.232h21.605V336.21H131.64v11.467zm187.884-26.526c0-6.76 5.48-12.243 12.24-12.243s12.244 5.482 12.244 12.243-5.48 12.242-12.244 12.242-12.24-5.48-12.24-12.242m0-47.67c0-6.76 5.48-12.24 12.24-12.24s12.244 5.48 12.244 12.24-5.48 12.24-12.244 12.24-12.24-5.48-12.24-12.24m-216.53-112.23a2.12 2.12 0 0 1-2.058-1.629L86.604 99.1c-4.437.136-15.692-.295-23.364-7.403-4.76-4.41-7.25-10.55-7.42-18.267-5.135-.587-18.652-3.09-26.582-13.47-5.786-7.575-7.295-17.634-4.483-29.9.26-1.14 1.4-1.853 2.536-1.6s1.852 1.396 1.6 2.536c-2.517 10.98-1.265 19.857 3.72 26.384 8.532 11.168 25.26 11.976 25.428 11.982 1.158.047 2.063 1.017 2.03 2.175-.21 7.38 1.822 13.1 6.04 17.028 8.103 7.525 21.797 6.212 21.934 6.2a2.12 2.12 0 0 1 2.279 1.617l14.743 62.254c.27 1.138-.435 2.278-1.572 2.547-.165.04-.33.058-.49.058z"/><path d="M135.66 161.252c-.162 0-.326-.02-.5-.058a2.12 2.12 0 0 1-1.572-2.547l14.743-62.254a2.12 2.12 0 0 1 2.281-1.617c.134.014 13.827 1.326 21.93-6.2 4.22-3.918 6.252-9.647 6.04-17.028-.033-1.16.872-2.128 2.03-2.175.167-.007 16.945-.853 25.444-12.003 4.973-6.524 6.22-15.395 3.705-26.364a2.12 2.12 0 0 1 1.591-2.536c1.143-.262 2.273.45 2.536 1.6 2.81 12.265 1.303 22.325-4.484 29.9-7.93 10.38-21.447 12.882-26.582 13.47-.167 7.718-2.66 13.856-7.42 18.267-7.672 7.108-18.932 7.538-23.364 7.403l-14.333 60.524c-.23.974-1.098 1.63-2.057 1.63zm155.658 102.276h-101.98c-1.915 0-3.48-1.566-3.48-3.484v-1.12a3.49 3.49 0 0 1 3.481-3.481h101.98a3.49 3.49 0 0 1 3.482 3.481v1.12a3.49 3.49 0 0 1-3.482 3.484m0 12.625h-101.98c-1.915 0-3.48-1.57-3.48-3.484v-1.12c0-1.916 1.566-3.482 3.48-3.482h101.98a3.49 3.49 0 0 1 3.482 3.482v1.12c0 1.915-1.565 3.484-3.482 3.484m0 12.584h-101.98c-1.915 0-3.48-1.567-3.48-3.483v-1.122a3.49 3.49 0 0 1 3.481-3.481h101.98a3.49 3.49 0 0 1 3.482 3.481v1.122c0 1.916-1.565 3.483-3.482 3.483m0 12.623h-101.98a3.49 3.49 0 0 1-3.481-3.484v-1.12c0-1.916 1.566-3.483 3.48-3.483h101.98c1.917 0 3.482 1.567 3.482 3.483v1.12a3.49 3.49 0 0 1-3.482 3.484m0 11.57h-101.98a3.49 3.49 0 0 1-3.481-3.483v-1.122a3.49 3.49 0 0 1 3.481-3.481h101.98a3.49 3.49 0 0 1 3.482 3.481v1.122a3.49 3.49 0 0 1-3.482 3.483m0 12.623h-101.98c-1.915 0-3.48-1.568-3.48-3.48v-1.122c0-1.916 1.566-3.483 3.48-3.483h101.98c1.917 0 3.482 1.567 3.482 3.483v1.122c0 1.912-1.565 3.48-3.482 3.48m0 12.586h-101.98c-1.915 0-3.48-1.568-3.48-3.484v-1.12a3.49 3.49 0 0 1 3.481-3.482h101.98a3.49 3.49 0 0 1 3.482 3.482v1.12c0 1.915-1.565 3.484-3.482 3.484m-153.84-31.18h-35.63c-1.138 0-2.073-1-2.115-2.037l-4.917-132.24c-.02-.575.192-1.133.59-1.547s.95-.648 1.524-.648h45.463c.575 0 1.125.234 1.524.648s.612.973.59 1.547l-4.916 132.24c-.04 1.137-.976 2.037-2.114 2.037zm-33.592-4.232h31.553l4.758-128.005h-41.07l4.76 128.005z"/></g></svg>