<?xml version="1.0" encoding="utf-8"?>
<!-- Generator: Adobe Illustrator 16.0.0, SVG Export Plug-In . SVG Version: 6.00 Build 0)  -->
<!DOCTYPE svg PUBLIC "-//W3C//DTD SVG 1.1//EN" "http://www.w3.org/Graphics/SVG/1.1/DTD/svg11.dtd">
<svg version="1.1" id="Capa_1" xmlns="http://www.w3.org/2000/svg" xmlns:xlink="http://www.w3.org/1999/xlink" x="0px" y="0px"
	 width="400px" height="400px" viewBox="0 0 400 400" enable-background="new 0 0 400 400" xml:space="preserve">
<g id="XMLID_1229_">
	<g id="XMLID_1231_">
		<path id="XMLID_1381_" fill="#FFFFFF" d="M431.914,1069.142l-2.882-2.882c-0.338-0.337-0.338-0.886,0-1.224l27.762-27.763
			c0.338-0.338,0.887-0.338,1.225,0l2.882,2.882c0.338,0.338,0.338,0.887,0,1.225l-27.763,27.762
			C432.801,1069.479,432.252,1069.479,431.914,1069.142z M430.868,1065.648l1.658,1.657l26.538-26.538l-1.658-1.658
			L430.868,1065.648z"/>
	</g>
	<g id="XMLID_1356_">
		<path id="XMLID_1378_" fill="#FFFFFF" d="M459.677,1041.38l-2.883-2.882c-0.157-0.158-0.247-0.371-0.252-0.594l-0.052-2.419
			c-0.008-0.396,0.253-0.747,0.636-0.853c0.059-0.017,5.957-1.646,7.505-2.193c1.338-0.475,2.84-0.572,4.591-0.297
			c1.523,0.236,2,2.293,2.05,2.528c0.077,0.365-0.089,0.738-0.41,0.927l-10.138,5.917
			C460.385,1041.713,459.954,1041.657,459.677,1041.38z M458.265,1037.52l2.164,2.164l8.959-5.23
			c-0.146-0.331-0.327-0.583-0.436-0.602c-1.459-0.229-2.683-0.158-3.743,0.219c-1.308,0.463-5.374,1.605-6.975,2.051
			L458.265,1037.52z"/>
	</g>
	<g id="XMLID_1359_">
		
			<rect id="XMLID_1391_" x="464.821" y="1031.234" transform="matrix(0.9616 -0.2744 0.2744 0.9616 -265.3259 167.2786)" fill="#FFFFFF" width="0.826" height="1.496"/>
	</g>
	<g id="XMLID_1361_">
		
			<rect id="XMLID_1390_" x="463.631" y="1031.574" transform="matrix(0.9616 -0.2744 0.2744 0.9616 -265.4648 166.9653)" fill="#FFFFFF" width="0.826" height="1.496"/>
	</g>
	<g id="XMLID_1363_">
		
			<rect id="XMLID_1389_" x="462.477" y="1031.904" transform="matrix(0.9616 -0.2744 0.2744 0.9616 -265.5997 166.6612)" fill="#FFFFFF" width="0.826" height="1.496"/>
	</g>
	<g id="XMLID_1362_">
		
			<rect id="XMLID_1388_" x="461.288" y="1032.244" transform="matrix(0.9616 -0.2744 0.2744 0.9616 -265.7386 166.3478)" fill="#FFFFFF" width="0.826" height="1.496"/>
	</g>
	<g id="XMLID_1365_">
		
			<rect id="XMLID_1387_" x="460.098" y="1032.583" transform="matrix(0.9613 -0.2755 0.2755 0.9613 -266.8633 166.861)" fill="#FFFFFF" width="0.826" height="1.497"/>
	</g>
	<g id="XMLID_1364_">
		
			<rect id="XMLID_1386_" x="458.909" y="1032.924" transform="matrix(0.9613 -0.2755 0.2755 0.9613 -267.0031 166.5464)" fill="#FFFFFF" width="0.826" height="1.496"/>
	</g>
	<g id="XMLID_1366_">
		<path id="XMLID_1377_" fill="#FFFFFF" d="M391.241,1081.205c-0.194-0.194-0.285-0.471-0.244-0.741l0.258-1.698
			c0.052-0.34,0.301-0.617,0.633-0.705l23.309-6.227l0,0c-0.001-0.002,2.891-0.937,3.697-2.846c0.981-2.324,3.478-7.023,3.583-7.222
			c0.177-0.334,0.55-0.514,0.921-0.444l8.336,1.543c0.471,0.088,0.78,0.539,0.693,1.008c-0.087,0.47-0.538,0.781-1.008,0.693
			l-7.71-1.428c-0.702,1.337-2.465,4.73-3.222,6.522c-1.121,2.654-4.659,3.786-4.81,3.834l-22.796,6.091l-0.106,0.693
			c7.289,6.821,26.307,12.623,30.274,13.781l5.774-13.701c0.082-0.195,0.234-0.354,0.426-0.444l16.706-7.93l-0.001-0.016
			l-10.131,1.556c-0.25,0.04-2.54,0.36-3.793-1.098c-0.815-0.955-0.925-2.358-0.326-4.169c0.149-0.454,0.638-0.7,1.093-0.55
			c0.453,0.148,0.699,0.64,0.55,1.092c-0.271,0.822-0.492,1.923-0.003,2.502c0.543,0.607,1.775,0.581,2.213,0.513l11.066-1.699
			c0.24-0.037,0.484,0.029,0.674,0.18c0.188,0.153,0.306,0.376,0.321,0.618l0.103,1.544c0.023,0.354-0.172,0.686-0.492,0.839
			l-16.938,8.04l-5.944,14.104c-0.169,0.4-0.608,0.613-1.028,0.497c-0.973-0.269-23.929-6.688-32.073-14.729
			C391.243,1081.208,391.242,1081.206,391.241,1081.205z"/>
	</g>
	<g id="XMLID_1360_">
		<path id="XMLID_1374_" fill="#FFFFFF" d="M427.898,1074.316l-4.091-4.091c-0.171-0.171-0.171-0.447,0-0.618l1.659-1.659
			c0.171-0.171,0.447-0.171,0.618,0l4.091,4.091c0.17,0.171,0.17,0.447,0,0.617l-1.66,1.66
			C428.345,1074.486,428.069,1074.486,427.898,1074.316z M424.734,1069.917l3.473,3.473l1.042-1.042l-3.474-3.473L424.734,1069.917z
			"/>
	</g>
	<g id="XMLID_1368_">
		<path id="XMLID_1371_" fill="#FFFFFF" d="M423.498,1078.716l-4.091-4.091c-0.17-0.171-0.17-0.447,0-0.617l1.659-1.66
			c0.171-0.17,0.447-0.17,0.618,0l4.09,4.091c0.171,0.171,0.171,0.447,0,0.617l-1.659,1.66
			C423.946,1078.886,423.669,1078.886,423.498,1078.716z M420.333,1074.316l3.474,3.473l1.042-1.042l-3.473-3.473L420.333,1074.316z
			"/>
	</g>
	<g id="XMLID_1367_">
		<circle id="XMLID_1385_" fill="#FFFFFF" cx="423.614" cy="1085.855" r="0.927"/>
	</g>
	<g id="XMLID_1370_">
		<circle id="XMLID_1384_" fill="#FFFFFF" cx="421.298" cy="1090.254" r="0.928"/>
	</g>
	<g id="XMLID_1369_">
		<path id="XMLID_1232_" fill="#FFFFFF" d="M420.288,1081.347l-3.512-3.513c-0.171-0.17-0.171-0.446,0-0.617
			c0.171-0.17,0.447-0.17,0.617,0l3.512,3.512c0.172,0.171,0.172,0.447,0,0.618C420.736,1081.517,420.459,1081.517,420.288,1081.347
			z"/>
	</g>
</g>
<g id="XMLID_159_">
	
		<path id="XMLID_165_" fill="none" stroke="#FFFFFF" stroke-width="7.6173" stroke-linecap="round" stroke-linejoin="round" stroke-miterlimit="10" d="
		M242.902,128.109c-2.969,4.864-8.302,8.472-13.933,11.611c-2.189,1.222-2.922,2.547-2.918,5.018
		c0.072,59.955,0.056,119.914,0.081,179.868c0,1.551,0.191,3.104,0.418,4.643c1.856,12.697-4.92,24.521-16.939,28.84
		c-2.62,0.941-3.212,2.186-3.071,4.63c0.17,2.986,0.137,5.997,0.004,8.987c-0.174,3.991-2.935,6.615-6.644,6.538
		c-3.595-0.072-6.198-2.585-6.368-6.44c-0.153-3.471,0.115-6.968-0.158-10.422c-0.085-1.065-1.129-2.556-2.108-2.969
		c-12.591-5.316-18.571-15.76-16.637-29.313c0.2-1.414,0.234-2.862,0.234-4.293c0.021-60.078,0.004-120.151,0.089-180.23
		c0.004-2.709-0.834-4.144-3.101-5.72c-4.66-3.237-8.898-7.083-13.477-10.814C187.172,128.063,215.198,128.088,242.902,128.109z
		 M190.413,177.577c-5.452,5.337-5.473,14.367-0.042,19.75c5.299,5.256,14.205,5.222,19.491-0.081
		c5.281-5.294,5.303-14.162,0.047-19.495C204.678,172.44,195.746,172.359,190.413,177.577z"/>
	
		<path id="XMLID_161_" fill="none" stroke="#FFFFFF" stroke-width="7.6173" stroke-linecap="round" stroke-linejoin="round" stroke-miterlimit="10" d="
		M162.255,55.185c18.302-17.992,44.165-21.965,65.334-10.853c20.837,10.938,31.987,33.93,27.929,57.331
		c-0.481,2.756-1.227,3.965-4.447,3.948c-33.065-0.153-66.135-0.136-99.2-0.03c-2.896,0.013-3.91-0.852-4.285-3.667
		C145.133,83.471,150.444,67.635,162.255,55.185z"/>
</g>
</svg>
