<svg xmlns="http://www.w3.org/2000/svg" width="50" height="50"><g fill="#868686"><path d="M12.387 45.49c-.327-.042-.58-.32-.58-.664l.002-10.392a.67.67 0 0 1 .661-.67c.387-.01.664.302.664.664V44.83c.002.368-.3.664-.664.664-.025 0-.056-.005-.082-.005m12.53 0c-.327-.042-.58-.317-.582-.66l.002-10.396a.66.66 0 0 1 .662-.665c.39-.016.667.297.667.665l-.002 10.4a.66.66 0 0 1-.664.659c-.027 0-.058 0-.083-.005m12.28 0a.66.66 0 0 1-.581-.659l.005-10.396a.66.66 0 0 1 .658-.665c.384-.01.67.297.664.665V44.83a.66.66 0 0 1-.664.664c-.026.006-.057 0-.082-.005"/><path d="M2.928 45.484c-.145-.016-.28-.09-.386-.188-.125-.125-.194-.29-.194-.472l.006-39.327c-.001-.366.3-.662.662-.664l43.973.005a.63.63 0 0 1 .471.196.63.63 0 0 1 .192.467l-.005 39.33c.005.368-.296.664-.658.67l-43.975-.006c-.032-.005-.058-.005-.086-.01M3.68 6.16l-.005 38 42.65.01.005-38.004L3.68 6.16z"/></g><path d="M9.653 5.5h5.64v29.707h-5.64z"/><path d="M9.53 36.19a1.02 1.02 0 0 1-.586-.28c-.187-.188-.29-.44-.288-.705L8.658 5.5c0-.265.106-.52.29-.703a1 1 0 0 1 .705-.295l5.643.002c.58.013.996.45.998.996l-.008 29.7a1 1 0 0 1-.996 1l-5.642-.005c-.042 0-.083 0-.12-.004m1.12-29.698l-.005 27.712 3.65.005.004-27.715-3.65-.002zM22.182 5.5h5.642v29.707h-5.642z"/><path d="M22.056 36.195c-.22-.03-.423-.13-.583-.3-.187-.187-.29-.44-.288-.7V5.504c.005-.555.448-.998.998-1l5.645.003a1.01 1.01 0 0 1 .705.29c.187.184.29.438.29.706l-.006 29.704c0 .55-.446.99-.995.994H22.18c-.043 0-.084 0-.123-.005m1.123-29.7l-.005 27.7 3.652.005.004-27.713-3.65-.002zm11.283-.993h5.642v29.704h-5.642z"/><path d="M34.335 36.195a1.01 1.01 0 0 1-.581-.284c-.187-.188-.3-.44-.3-.7l.005-29.707c0-.552.445-.998.996-.996l5.643-.002a.99.99 0 0 1 .699.293c.187.184.29.438.296.705l-.005 29.702a1 1 0 0 1-.996.994H34.46c-.042 0-.084 0-.125-.005M35.46 6.497L35.454 34.2h3.652l.005-27.713h-3.65z"/></svg>