<svg xmlns="http://www.w3.org/2000/svg" width="400" height="400"><g fill="#E3B8D3"><path d="M169.413 366.81a2.82 2.82 0 0 1-1.994-.826l-77.357-77.36a2.82 2.82 0 0 1-.771-2.547c.185-.924.82-1.694 1.692-2.054L227.24 227.97l56.892-135.418c.363-.866 1.135-1.494 2.056-1.674s1.872.11 2.536.773l76.512 76.515c.805.804 1.047 2.014.613 3.065l-56.5 137.336c-.286.696-.838 1.248-1.534 1.534l-137.332 56.496a2.81 2.81 0 0 1-1.072.213zM97.04 287.63l73.038 73.04 134.508-55.335 55.337-134.51-72.217-72.22-55.717 132.622a2.82 2.82 0 0 1-1.526 1.515L97.04 287.63z"/><path d="M74.972 296.707a2.82 2.82 0 0 1-1.994-.826l-29.244-29.243c-.666-.666-.955-1.62-.77-2.543a2.82 2.82 0 0 1 1.686-2.055l153.196-63.457 64.76-154.503a2.82 2.82 0 0 1 2.056-1.676c.92-.18 1.874.11 2.537.773l29.24 29.243c.8.81 1.05 2.027.606 3.083l-65.21 155.573a2.82 2.82 0 0 1-1.521 1.515l-154.264 63.9c-.35.145-.715.215-1.078.215zm-24.268-31.072l24.928 24.928 151.452-62.736 64.03-152.758-24.933-24.936-63.585 151.7a2.82 2.82 0 0 1-1.521 1.515l-150.37 62.287z"/><path d="M45.726 267.464a2.81 2.81 0 0 1-1.231-.284 2.82 2.82 0 0 1-1.302-3.769l30.378-62.447c.68-1.4 2.368-1.984 3.768-1.3a2.82 2.82 0 0 1 1.302 3.768l-30.378 62.447a2.82 2.82 0 0 1-2.537 1.586zm154.13-187.35a2.82 2.82 0 0 1-1.235-5.354l64.695-31.473a2.82 2.82 0 0 1 3.769 1.302 2.82 2.82 0 0 1-1.302 3.768L201.086 79.83a2.81 2.81 0 0 1-1.231.285zm-56 86.283c-6.17 0-11.972-2.403-16.334-6.766-9.006-9.006-9.006-23.662 0-32.67a22.95 22.95 0 0 1 16.335-6.766c6.17 0 11.972 2.402 16.336 6.765 9.006 9 9.006 23.666 0 32.67a22.95 22.95 0 0 1-16.337 6.766zm0-40.564c-4.665 0-9.05 1.816-12.348 5.114a17.49 17.49 0 0 0 0 24.698 17.35 17.35 0 0 0 24.698-.001c6.808-6.808 6.808-17.887 0-24.698-3.298-3.297-7.685-5.113-12.35-5.113zm24.658-7.582a2.82 2.82 0 0 1-2.262-1.137c-.278-.37-7-9.005-19.455-9.005-12.667 0-19.382 8.906-19.448 8.996-.586.794-1.554 1.22-2.527 1.134-.983-.09-1.847-.69-2.278-1.577L103.696 77.8c-.186-.383-.282-.804-.282-1.23 0-23.92 19.46-43.38 43.38-43.38s43.382 19.46 43.382 43.38a2.83 2.83 0 0 1-.282 1.23l-18.846 38.862c-.43.888-1.295 1.486-2.278 1.577a2.87 2.87 0 0 1-.259.012zm-21.717-15.78c10.23 0 17.264 4.726 20.958 8.066l16.78-34.604c-.34-20.52-17.14-37.107-37.74-37.107s-37.398 16.587-37.738 37.107l16.78 34.604c3.693-3.34 10.728-8.066 20.957-8.066zM77.322 189.43c-23.922 0-43.384-19.462-43.384-43.385s19.462-43.382 43.384-43.382c.426 0 .847.097 1.23.283l38.862 18.85a2.82 2.82 0 0 1 .442 4.805c-.358.27-8.998 6.9-8.998 19.445 0 12.67 8.908 19.385 8.998 19.45a2.82 2.82 0 0 1-.443 4.806L78.55 189.147a2.81 2.81 0 0 1-1.229.282zm-.637-81.123c-20.52.34-37.1 17.14-37.1 37.74s16.588 37.4 37.1 37.742l34.604-16.78c-3.34-3.694-8.068-10.73-8.068-20.96s4.727-17.263 8.068-20.956l-34.604-16.783zM306.75 310.314c-.722 0-1.442-.275-1.993-.826l-77.51-77.51a2.82 2.82 0 0 1 0-3.986c1.102-1.102 2.885-1.102 3.986 0l77.51 77.51a2.82 2.82 0 0 1 0 3.986c-.55.55-1.27.826-1.993.826z"/></g></svg>