<?xml version="1.0" encoding="utf-8"?>
<!-- Generator: Adobe Illustrator 16.0.0, SVG Export Plug-In . SVG Version: 6.00 Build 0)  -->
<!DOCTYPE svg PUBLIC "-//W3C//DTD SVG 1.1//EN" "http://www.w3.org/Graphics/SVG/1.1/DTD/svg11.dtd">
<svg version="1.1" id="Capa_1" xmlns="http://www.w3.org/2000/svg" xmlns:xlink="http://www.w3.org/1999/xlink" x="0px" y="0px"
	 width="520px" height="95px" viewBox="18.965 224.965 520 95" enable-background="new 18.965 224.965 520 95" xml:space="preserve"
	>
<g>
	<path fill="#FFFFFF" d="M397.553,251.318h9.089c3.9,0,7.802,0.037,11.701-0.025c1.062-0.016,1.729,0.337,2.387,1.153
		c7.092,8.788,14.221,17.547,21.341,26.312c0.187,0.229,0.397,0.439,0.827,0.909v-28.246h13.978v42.313
		c-0.556,0.033-1.08,0.092-1.605,0.092c-6.35,0.007-12.7-0.018-19.052,0.025c-1.052,0.006-1.727-0.328-2.391-1.154
		c-7.02-8.717-14.079-17.401-21.133-26.092c-0.28-0.347-0.59-0.671-1.136-1.29v28.419h-14.006V251.318L397.553,251.318z"/>
	<path fill="#FFFFFF" d="M459.527,294.02v-42.55c0.294-0.052,0.572-0.142,0.853-0.142c14,0.006,28.001-0.005,42.002,0.067
		c1.518,0.008,3.078,0.347,4.54,0.791c4.76,1.447,7.445,5.092,7.486,10.171c0.057,6.85,0.063,13.702-0.001,20.552
		c-0.056,5.906-3.82,10.023-9.766,10.773c-1.679,0.211-3.382,0.32-5.073,0.323c-12.9,0.026-25.803,0.015-38.703,0.015
		C460.471,294.02,460.078,294.02,459.527,294.02 M473.4,282.409c0.674,0,1.263,0,1.853,0c6.294,0,12.588,0.001,18.883-0.002
		c1.599,0,3.199,0.049,4.794-0.033c2.178-0.11,2.373-0.363,2.374-2.502c0.002-4.696,0.001-9.391,0.001-14.087
		c0-2.432-0.262-2.695-2.772-2.696c-7.894-0.004-15.785-0.002-23.679,0.002c-0.479,0-0.959,0.047-1.452,0.073L473.4,282.409
		L473.4,282.409z"/>
	<path fill="#FFFFFF" d="M183.13,250.637c5.69,0.24,11.386,0.397,17.068,0.746c4.945,0.304,9.043,3.472,10.176,7.712
		c0.319,1.19,0.467,2.458,0.477,3.692c0.045,6.55-0.036,13.101,0.037,19.65c0.075,6.861-4.369,10.82-9.917,11.184
		c-7.915,0.521-15.865,0.603-23.803,0.667c-4.034,0.033-8.088-0.217-12.103-0.625c-4.975-0.506-8.65-3.84-9.57-8.336
		c-0.169-0.823-0.176-1.687-0.178-2.535c-0.014-6.8,0.084-13.602-0.036-20.401c-0.11-6.176,4.575-10.077,9.008-10.671
		c4.192-0.561,8.45-0.656,12.685-0.873c2.044-0.104,4.099-0.018,6.148-0.018L183.13,250.637z M183.312,262.843
		c-1.399,0-2.797-0.005-4.196,0.001c-2.696,0.012-5.397-0.056-8.088,0.075c-1.854,0.089-2.158,0.541-2.16,2.305
		c-0.004,4.895-0.003,9.79-0.001,14.685c0.001,1.868,0.229,2.112,2.119,2.271c0.348,0.028,0.699,0.02,1.048,0.02
		c7.343,0.002,14.685,0.008,22.028-0.008c0.743-0.002,1.557,0.024,2.206-0.261c0.506-0.225,1.14-0.907,1.147-1.396
		c0.081-5.344,0.043-10.689,0.06-16.033c0.002-0.914-0.369-1.406-1.291-1.474c-0.695-0.052-1.389-0.173-2.083-0.176
		C190.504,262.834,186.907,262.843,183.312,262.843"/>
	<path fill="#FFFFFF" d="M94.028,262.157c-0.626,0-1.168,0-1.71,0c-10.05,0-20.102-0.011-30.151,0.017
		c-0.981,0.003-1.986,0.16-2.938,0.41c-1.038,0.273-1.493,1.108-1.491,2.167c0.001,1.088,0.543,1.851,1.592,2.069
		c1.116,0.232,2.267,0.396,3.404,0.414c7.342,0.121,14.686,0.16,22.027,0.291c6.723,0.12,10.488,3.864,10.824,10.959
		c0.116,2.465-0.063,5.009-0.56,7.422c-0.943,4.598-3.904,7.166-8.523,7.777c-1.578,0.209-3.181,0.315-4.772,0.32
		c-9.3,0.029-18.603,0.094-27.901-0.031c-3.01-0.039-5.99-0.801-7.992-3.347c-1.689-2.149-1.438-4.75-1.28-7.446h1.838
		c10.1,0,20.2,0.014,30.301-0.023c1.024-0.004,2.071-0.246,3.065-0.523c1.1-0.306,1.544-1.134,1.501-2.292
		c-0.043-1.158-0.683-1.801-1.711-1.934c-1.725-0.224-3.468-0.362-5.207-0.414c-6.741-0.202-13.487-0.291-20.228-0.546
		c-6.483-0.246-10.359-3.997-10.615-10.575c-0.115-2.947,0.207-6.007,0.923-8.867c1.021-4.083,4.263-6.556,8.45-6.598
		c10.798-0.107,21.615-0.372,32.393,0.131C90.636,251.789,94.863,254.99,94.028,262.157"/>
	<path fill="#FFFFFF" d="M138.024,278.964h-25.163v14.967H98.24v-42.493h14.604c0,1.758,0,3.492,0,5.225
		c0,2.701,0.005,5.402-0.002,8.103c-0.001,0.63-0.026,1.212,0.887,1.21c7.952-0.024,15.903-0.031,23.855-0.049
		c0.088,0,0.175-0.084,0.369-0.183v-14.29h14.676v42.444h-14.604V278.964z"/>
	<path fill="#FFFFFF" d="M356.034,287.086c2.029-3.603,3.887-6.943,5.814-10.246c0.185-0.313,0.813-0.5,1.24-0.512
		c1.889-0.055,3.781-0.024,5.984-0.024c-2.098-3.864-4.075-7.511-6.198-11.426c-0.369,0.655-0.633,1.098-0.875,1.552
		c-4.635,8.716-9.277,17.429-13.886,26.158c-0.438,0.829-0.924,1.32-1.922,1.315c-5.047-0.026-10.094-0.012-15.258-0.012
		c0.152-0.363,0.269-0.727,0.447-1.056c7.384-13.467,14.782-26.927,22.143-40.409c0.479-0.878,1.033-1.143,2-1.134
		c5.001,0.047,10.003,0.041,15.004,0.005c0.889-0.007,1.443,0.195,1.899,1.043c7.285,13.522,14.607,27.024,21.918,40.531
		c0.162,0.298,0.3,0.609,0.561,1.145h-4.753c-3.501,0-7.002-0.026-10.502,0.02c-0.859,0.012-1.366-0.235-1.75-1.025
		c-0.804-1.66-1.739-3.254-2.54-4.914c-0.382-0.791-0.884-1.037-1.739-1.031C367.873,287.104,362.124,287.086,356.034,287.086"/>
	<polygon fill="#FFFFFF" points="328.209,293.971 286.134,293.971 286.134,251.4 300.646,251.4 300.646,282.135 328.209,282.135 	
		"/>
	<polygon fill="#B71351" points="279.92,282.221 264.156,294.29 248.393,282.221 232.629,294.29 216.865,282.221 216.865,268.479 
		232.629,280.548 248.393,268.479 264.156,280.548 279.92,268.479 	"/>
	<polygon fill="#B71351" points="279.92,264.379 264.156,276.449 248.393,264.379 232.629,276.449 216.865,264.379 216.865,250.638 
		232.629,262.708 248.393,250.638 264.156,262.708 279.92,250.638 	"/>
</g>
<path fill="#FFFFFF" d="M518.26,238.552c4.368,0.001,7.906,3.554,7.882,7.93c-0.026,4.318-3.542,7.864-7.944,7.832
	c-4.334-0.032-7.819-3.551-7.82-7.879C510.376,242.064,513.921,238.55,518.26,238.552 M518.261,253.758
	c4.051-0.004,7.323-3.281,7.323-7.331c-0.002-4.031-3.269-7.32-7.33-7.319c-4.07,0.001-7.356,3.326-7.32,7.394
	C510.969,250.48,514.207,253.758,518.261,253.758"/>
<path fill="#FFFFFF" d="M514.552,241.819h0.061c1.161,0,2.322,0,3.482,0c0.422,0,0.842,0.029,1.257,0.105
	c0.336,0.061,0.663,0.154,0.967,0.311c0.533,0.275,0.869,0.704,1.012,1.287c0.095,0.385,0.105,0.774,0.057,1.164
	c-0.061,0.453-0.23,0.86-0.552,1.193c-0.198,0.205-0.431,0.363-0.688,0.48c-0.127,0.058-0.259,0.103-0.389,0.155
	c-0.01,0.004-0.021,0.009-0.038,0.018c0.068,0.022,0.13,0.038,0.188,0.06c0.317,0.117,0.566,0.326,0.78,0.582
	c0.23,0.276,0.411,0.583,0.571,0.903c0.316,0.635,0.63,1.273,0.944,1.909c0.106,0.217,0.215,0.435,0.32,0.652
	c0.003,0.008,0.006,0.015,0.013,0.031h-0.063c-0.766,0-1.533-0.001-2.299,0.001c-0.048,0-0.071-0.016-0.092-0.058
	c-0.265-0.541-0.529-1.082-0.795-1.623c-0.104-0.213-0.207-0.427-0.314-0.638c-0.102-0.196-0.219-0.382-0.358-0.554
	c-0.218-0.269-0.499-0.419-0.837-0.458c-0.174-0.02-0.35-0.016-0.523-0.019c-0.141-0.003-0.279-0.001-0.424-0.001v3.346h-2.277
	L514.552,241.819L514.552,241.819z M516.829,243.47c-0.001,0.019-0.004,0.033-0.004,0.046c0,0.726,0.002,1.451,0,2.177
	c0,0.043,0.014,0.054,0.056,0.054c0.313-0.002,0.629-0.001,0.942-0.002c0.214-0.001,0.425-0.021,0.63-0.08
	c0.336-0.096,0.555-0.307,0.635-0.651c0.065-0.287,0.065-0.575-0.009-0.86c-0.074-0.285-0.256-0.479-0.533-0.578
	c-0.215-0.077-0.437-0.104-0.66-0.105c-0.337-0.002-0.674-0.001-1.011-0.001H516.829z"/>
</svg>
