<?xml version="1.0" encoding="utf-8"?>
<!-- Generator: Adobe Illustrator 16.0.0, SVG Export Plug-In . SVG Version: 6.00 Build 0)  -->
<!DOCTYPE svg PUBLIC "-//W3C//DTD SVG 1.1//EN" "http://www.w3.org/Graphics/SVG/1.1/DTD/svg11.dtd">
<svg version="1.1" id="Capa_1" xmlns="http://www.w3.org/2000/svg" xmlns:xlink="http://www.w3.org/1999/xlink" x="0px" y="0px"
	 width="566.93px" height="180.756px" viewBox="0 0 566.93 180.756" enable-background="new 0 0 566.93 180.756"
	 xml:space="preserve">
<path fill="#FFFFFF" d="M256.382,169.056c-1.654,3.029-3.234,5.947-4.837,8.854c-0.676,1.226-1.126,2.876-2.176,3.508
	c-1.018,0.615-2.674,0.185-4.049,0.19c-2.575,0.01-5.15,0.031-7.724-0.027c-0.406-0.01-0.991-0.309-1.177-0.646
	c-5.436-9.885-10.833-19.791-16.233-29.695c-0.048-0.09-0.058-0.198-0.108-0.381c0.309-0.025,0.579-0.067,0.85-0.068
	c3.337-0.004,6.673,0.02,10.009-0.02c0.714-0.009,1.089,0.213,1.427,0.854c3.371,6.396,6.78,12.773,10.179,19.154
	c0.198,0.371,0.406,0.736,0.684,1.238c1.271-2.227,2.466-4.315,3.66-6.408c1.147-2.01,2.266-4.037,3.454-6.023
	c0.364-0.607,0.34-1.07,0.001-1.667c-1.144-2.012-2.241-4.05-3.351-6.08c-0.167-0.307-0.307-0.628-0.512-1.049
	c3.879,0,7.643-0.021,11.405,0.038c0.327,0.005,0.759,0.472,0.95,0.826c3.449,6.438,6.867,12.891,10.294,19.34
	c0.152,0.287,0.317,0.566,0.555,0.992c0.234-0.403,0.43-0.719,0.604-1.045c3.394-6.385,6.796-12.766,10.164-19.164
	c0.38-0.721,0.789-1.029,1.653-1.015c3.546,0.062,7.094,0.024,10.796,0.024c-0.229,0.474-0.379,0.824-0.563,1.156
	c-5.275,9.604-10.56,19.201-15.821,28.813c-0.336,0.613-0.706,0.88-1.432,0.872c-3.626-0.037-7.253-0.041-10.879,0.002
	c-0.778,0.01-1.147-0.29-1.495-0.941c-1.888-3.541-3.824-7.057-5.745-10.58C256.797,169.794,256.621,169.483,256.382,169.056"/>
<path fill="#FFFFFF" d="M375.66,150.787h6.59c2.828,0,5.657,0.026,8.484-0.019c0.771-0.012,1.254,0.244,1.73,0.836
	c5.143,6.373,10.311,12.723,15.474,19.078c0.135,0.166,0.287,0.318,0.6,0.659v-20.479h10.135v30.681
	c-0.402,0.022-0.784,0.065-1.163,0.065c-4.604,0.005-9.21-0.012-13.814,0.02c-0.764,0.005-1.251-0.238-1.732-0.837
	c-5.09-6.321-10.209-12.617-15.323-18.92c-0.203-0.251-0.426-0.486-0.822-0.937v20.607H375.66V150.787z"/>
<path fill="#FFFFFF" d="M420.595,181.75v-30.854c0.214-0.037,0.416-0.103,0.618-0.103c10.151,0.004,20.303-0.003,30.454,0.049
	c1.102,0.005,2.232,0.251,3.292,0.573c3.451,1.049,5.399,3.691,5.429,7.375c0.04,4.967,0.047,9.936-0.001,14.9
	c-0.04,4.283-2.77,7.27-7.08,7.812c-1.218,0.154-2.45,0.233-3.679,0.235c-9.354,0.02-18.709,0.012-28.063,0.012L420.595,181.75
	L420.595,181.75z M430.654,173.33h1.343c4.563,0,9.127,0.001,13.691-0.001c1.157,0,2.318,0.035,3.476-0.023
	c1.579-0.082,1.721-0.264,1.722-1.813c0.001-3.405,0-6.812,0-10.216c0-1.764-0.188-1.952-2.01-1.953
	c-5.723-0.004-11.446-0.004-17.169,0.001c-0.347,0-0.695,0.032-1.053,0.053V173.33L430.654,173.33z"/>
<path fill="#FFFFFF" d="M198.041,150.293c4.125,0.174,8.255,0.287,12.375,0.541c3.585,0.22,6.557,2.517,7.379,5.592
	c0.231,0.863,0.338,1.782,0.345,2.677c0.033,4.75-0.026,9.5,0.026,14.248c0.055,4.977-3.167,7.846-7.19,8.109
	c-5.739,0.378-11.503,0.436-17.258,0.484c-2.925,0.022-5.864-0.158-8.776-0.454c-3.606-0.366-6.272-2.783-6.939-6.044
	c-0.122-0.598-0.127-1.226-0.129-1.838c-0.01-4.933,0.062-9.862-0.026-14.793c-0.079-4.479,3.317-7.307,6.532-7.735
	c3.039-0.408,6.127-0.478,9.196-0.634c1.483-0.075,2.972-0.014,4.459-0.014C198.037,150.386,198.039,150.34,198.041,150.293
	 M198.172,159.144c-1.014,0-2.028-0.004-3.042,0c-1.955,0.01-3.914-0.041-5.865,0.056c-1.344,0.063-1.565,0.392-1.566,1.671
	c-0.003,3.549-0.002,7.099,0,10.646c0,1.355,0.166,1.531,1.536,1.647c0.252,0.021,0.507,0.013,0.76,0.013
	c5.324,0.002,10.648,0.006,15.971-0.006c0.539-0.001,1.129,0.02,1.6-0.189c0.367-0.16,0.827-0.656,0.832-1.01
	c0.059-3.875,0.031-7.75,0.043-11.625c0.002-0.664-0.268-1.021-0.936-1.068c-0.504-0.038-1.007-0.125-1.51-0.129
	C203.387,159.136,200.78,159.144,198.172,159.144"/>
<path fill="#FFFFFF" d="M133.435,158.646h-1.24c-7.287,0-14.574-0.008-21.862,0.015c-0.711,0.002-1.44,0.114-2.13,0.297
	c-0.753,0.198-1.082,0.803-1.081,1.569c0.001,0.789,0.394,1.344,1.154,1.5c0.81,0.168,1.644,0.287,2.469,0.302
	c5.323,0.088,10.648,0.114,15.971,0.211c4.874,0.086,7.605,2.801,7.849,7.946c0.084,1.787-0.047,3.632-0.406,5.383
	c-0.684,3.332-2.831,5.193-6.18,5.638c-1.144,0.152-2.307,0.229-3.461,0.233c-6.743,0.021-13.488,0.066-20.23-0.022
	c-2.183-0.028-4.343-0.581-5.795-2.427c-1.225-1.561-1.043-3.445-0.929-5.4h1.333c7.323,0,14.647,0.012,21.97-0.016
	c0.743-0.003,1.502-0.182,2.224-0.381c0.796-0.223,1.118-0.822,1.088-1.661c-0.031-0.84-0.496-1.308-1.241-1.403
	c-1.251-0.162-2.515-0.261-3.775-0.3c-4.889-0.146-9.78-0.211-14.667-0.396c-4.7-0.178-7.511-2.897-7.697-7.668
	c-0.083-2.137,0.15-4.354,0.669-6.428c0.741-2.962,3.091-4.755,6.127-4.785c7.83-0.078,15.673-0.269,23.487,0.096
	C130.976,151.128,134.041,153.45,133.435,158.646"/>
<path fill="#FFFFFF" d="M165.335,170.833H147.09v10.854h-10.601v-30.812h10.589v3.788c0,1.959,0.002,3.917-0.001,5.875
	c-0.001,0.457-0.021,0.879,0.642,0.877c5.766-0.018,11.532-0.021,17.297-0.035c0.064,0,0.127-0.061,0.267-0.133v-10.361h10.642
	v30.776h-10.59V170.833L165.335,170.833z"/>
<path fill="#FFFFFF" d="M345.556,176.722c1.473-2.611,2.819-5.035,4.218-7.43c0.133-0.227,0.588-0.361,0.898-0.371
	c1.37-0.039,2.742-0.018,4.339-0.018c-1.521-2.801-2.954-5.445-4.494-8.283c-0.268,0.474-0.459,0.795-0.634,1.125
	c-3.36,6.32-6.728,12.637-10.068,18.967c-0.317,0.602-0.67,0.957-1.394,0.954c-3.659-0.019-7.318-0.008-11.063-0.008
	c0.109-0.265,0.193-0.527,0.323-0.767c5.354-9.766,10.719-19.523,16.056-29.3c0.349-0.637,0.749-0.829,1.449-0.821
	c3.627,0.033,7.253,0.028,10.879,0.004c0.646-0.004,1.047,0.142,1.378,0.757c5.282,9.804,10.592,19.594,15.894,29.388
	c0.116,0.216,0.216,0.441,0.404,0.829h-3.445c-2.538,0-5.077-0.019-7.615,0.014c-0.623,0.011-0.99-0.171-1.269-0.743
	c-0.581-1.203-1.262-2.358-1.842-3.563c-0.275-0.574-0.641-0.751-1.263-0.747C354.14,176.733,349.971,176.722,345.556,176.722"/>
<polygon fill="#FFFFFF" points="325.382,181.713 294.874,181.713 294.874,150.847 305.396,150.847 305.396,173.131 325.382,173.131 
	"/>
<rect y="-172.751" fill="none" width="566.93" height="566.93"/>
<polygon fill="#B71351" points="367.479,87.241 323.937,120.579 280.395,87.241 236.852,120.579 193.309,87.241 193.309,49.282 
	236.852,82.619 280.395,49.282 323.937,82.619 367.479,49.282 "/>
<polygon fill="#B71351" points="367.479,37.959 323.937,71.297 280.395,37.959 236.852,71.297 193.309,37.959 193.309,0 
	236.852,33.337 280.395,0 323.937,33.337 367.479,0 "/>
</svg>
