<?xml version="1.0" encoding="utf-8"?>
<!-- Generator: Adobe Illustrator 16.0.0, SVG Export Plug-In . SVG Version: 6.00 Build 0)  -->
<!DOCTYPE svg PUBLIC "-//W3C//DTD SVG 1.1//EN" "http://www.w3.org/Graphics/SVG/1.1/DTD/svg11.dtd">
<svg version="1.1" id="Capa_1" xmlns="http://www.w3.org/2000/svg" xmlns:xlink="http://www.w3.org/1999/xlink" x="0px" y="0px"
	 width="566.93px" height="566.93px" viewBox="0 0 566.93 566.93" enable-background="new 0 0 566.93 566.93" xml:space="preserve">
<polygon fill="#B71351" points="566.848,354.484 425.156,462.967 283.464,354.484 141.775,462.967 0.083,354.484 0.083,230.964 
	141.775,339.447 283.464,230.964 425.156,339.447 566.848,230.964 "/>
<polygon fill="#B71351" points="566.848,194.119 425.156,302.602 283.464,194.119 141.775,302.602 0.083,194.119 0.083,70.598 
	141.775,179.081 283.464,70.598 425.156,179.081 566.848,70.598 "/>
<path fill="#B71351" d="M473.448,456.942c10.919,0.003,19.762,8.883,19.695,19.818c-0.06,10.793-8.847,19.654-19.849,19.572
	c-10.834-0.077-19.547-8.875-19.547-19.69C453.748,465.715,462.609,456.936,473.448,456.942 M473.451,494.943
	c10.127-0.011,18.309-8.198,18.307-18.317c-0.009-10.074-8.171-18.297-18.32-18.295c-10.174,0.003-18.386,8.313-18.301,18.479
	C455.228,486.75,463.324,494.943,473.451,494.943"/>
<path fill="#B71351" d="M464.182,465.104h0.153c2.902,0,5.801,0,8.703,0c1.055,0,2.104,0.074,3.143,0.264
	c0.838,0.155,1.652,0.386,2.416,0.777c1.329,0.688,2.171,1.76,2.524,3.215c0.235,0.964,0.269,1.937,0.14,2.909
	c-0.146,1.135-0.573,2.151-1.379,2.984c-0.495,0.512-1.071,0.907-1.718,1.197c-0.317,0.146-0.649,0.258-0.973,0.387
	c-0.027,0.014-0.049,0.027-0.096,0.046c0.17,0.055,0.326,0.099,0.471,0.151c0.795,0.293,1.417,0.813,1.951,1.454
	c0.575,0.688,1.027,1.455,1.428,2.256c0.792,1.586,1.572,3.181,2.362,4.772c0.266,0.543,0.534,1.085,0.8,1.631
	c0.008,0.019,0.017,0.035,0.03,0.073h-0.156c-1.918,0-3.833,0-5.749,0.003c-0.117,0-0.175-0.038-0.225-0.143
	c-0.663-1.354-1.326-2.704-1.989-4.058c-0.263-0.529-0.518-1.065-0.789-1.592c-0.249-0.493-0.545-0.956-0.894-1.387
	c-0.542-0.671-1.246-1.047-2.093-1.146c-0.431-0.046-0.871-0.038-1.31-0.046c-0.349-0.009-0.699-0.003-1.061-0.003v8.362h-5.691
	V465.104z M469.876,469.231c-0.003,0.049-0.006,0.082-0.006,0.115c0,1.813,0,3.627-0.003,5.441c0,0.106,0.03,0.134,0.135,0.134
	c0.789-0.005,1.575-0.003,2.361-0.005c0.532,0,1.056-0.053,1.573-0.2c0.838-0.238,1.384-0.765,1.581-1.628
	c0.17-0.715,0.17-1.436-0.02-2.146c-0.184-0.715-0.636-1.197-1.334-1.446c-0.534-0.192-1.088-0.261-1.649-0.263
	c-0.845-0.006-1.686-0.003-2.526-0.003H469.876z"/>
</svg>
