<?xml version="1.0" encoding="utf-8"?>
<!-- Generator: Adobe Illustrator 16.0.0, SVG Export Plug-In . SVG Version: 6.00 Build 0)  -->
<!DOCTYPE svg PUBLIC "-//W3C//DTD SVG 1.1//EN" "http://www.w3.org/Graphics/SVG/1.1/DTD/svg11.dtd">
<svg version="1.1" id="Capa_1" xmlns="http://www.w3.org/2000/svg" xmlns:xlink="http://www.w3.org/1999/xlink" x="0px" y="0px"
	 width="566.93px" height="180.756px" viewBox="0 0 566.93 180.756" enable-background="new 0 0 566.93 180.756"
	 xml:space="preserve">
<path fill="#FFFFFF" d="M256.382,169.055c-1.654,3.03-3.234,5.948-4.837,8.855c-0.676,1.226-1.126,2.876-2.176,3.508
	c-1.018,0.615-2.674,0.185-4.049,0.19c-2.575,0.01-5.15,0.031-7.724-0.027c-0.406-0.01-0.991-0.309-1.177-0.647
	c-5.436-9.884-10.833-19.791-16.233-29.695c-0.048-0.089-0.058-0.198-0.108-0.38c0.309-0.026,0.579-0.068,0.85-0.069
	c3.337-0.004,6.673,0.019,10.009-0.02c0.714-0.008,1.089,0.213,1.427,0.854c3.371,6.396,6.78,12.773,10.179,19.155
	c0.198,0.37,0.406,0.735,0.684,1.238c1.271-2.227,2.466-4.316,3.66-6.409c1.147-2.01,2.266-4.037,3.454-6.023
	c0.364-0.608,0.34-1.071,0.001-1.667c-1.144-2.012-2.241-4.05-3.351-6.08c-0.167-0.307-0.307-0.628-0.512-1.049
	c3.879,0,7.643-0.021,11.405,0.038c0.327,0.005,0.759,0.472,0.95,0.827c3.449,6.438,6.867,12.89,10.294,19.339
	c0.152,0.287,0.317,0.567,0.555,0.993c0.234-0.404,0.43-0.719,0.604-1.046c3.394-6.384,6.796-12.765,10.164-19.163
	c0.38-0.722,0.789-1.03,1.653-1.015c3.546,0.061,7.094,0.024,10.797,0.024c-0.229,0.474-0.38,0.824-0.563,1.157
	c-5.276,9.604-10.56,19.201-15.821,28.813c-0.336,0.613-0.706,0.88-1.432,0.872c-3.626-0.037-7.253-0.041-10.879,0.002
	c-0.778,0.01-1.147-0.29-1.495-0.942c-1.888-3.541-3.824-7.056-5.745-10.58C256.797,169.794,256.621,169.484,256.382,169.055"/>
<path fill="#FFFFFF" d="M375.66,150.787h6.59c2.828,0,5.657,0.027,8.484-0.018c0.771-0.012,1.254,0.244,1.731,0.836
	c5.142,6.372,10.31,12.722,15.473,19.078c0.135,0.165,0.288,0.318,0.6,0.659v-20.48h10.135v30.681
	c-0.402,0.023-0.784,0.065-1.163,0.065c-4.605,0.005-9.21-0.012-13.815,0.02c-0.763,0.005-1.251-0.238-1.732-0.837
	c-5.09-6.321-10.209-12.617-15.323-18.92c-0.203-0.251-0.426-0.486-0.823-0.936v20.607H375.66V150.787z"/>
<path fill="#FFFFFF" d="M420.595,181.75v-30.854c0.214-0.037,0.416-0.103,0.618-0.103c10.151,0.004,20.303-0.003,30.454,0.049
	c1.101,0.005,2.232,0.251,3.292,0.573c3.451,1.049,5.399,3.691,5.429,7.375c0.04,4.967,0.047,9.936-0.001,14.9
	c-0.04,4.283-2.77,7.27-7.08,7.812c-1.218,0.154-2.451,0.233-3.679,0.236c-9.354,0.019-18.709,0.011-28.063,0.011H420.595z
	 M430.654,173.33h1.343c4.564,0,9.127,0.001,13.691-0.001c1.158,0,2.319,0.035,3.476-0.024c1.579-0.081,1.721-0.263,1.722-1.813
	c0.001-3.405,0-6.811,0-10.215c0-1.764-0.189-1.953-2.01-1.954c-5.723-0.004-11.446-0.003-17.169,0.001
	c-0.347,0-0.695,0.033-1.053,0.053V173.33z"/>
<path fill="#FFFFFF" d="M198.041,150.293c4.125,0.174,8.255,0.287,12.375,0.541c3.585,0.22,6.557,2.517,7.379,5.592
	c0.231,0.863,0.338,1.782,0.345,2.676c0.033,4.75-0.026,9.5,0.026,14.249c0.055,4.976-3.167,7.846-7.19,8.109
	c-5.739,0.378-11.503,0.436-17.258,0.484c-2.925,0.023-5.864-0.158-8.776-0.454c-3.606-0.366-6.272-2.783-6.939-6.044
	c-0.122-0.598-0.127-1.225-0.129-1.838c-0.01-4.932,0.062-9.862-0.026-14.793c-0.079-4.478,3.317-7.306,6.532-7.735
	c3.039-0.408,6.127-0.478,9.196-0.634c1.483-0.075,2.972-0.014,4.459-0.014C198.037,150.386,198.039,150.34,198.041,150.293
	 M198.172,159.143c-1.014,0-2.028-0.004-3.042,0.001c-1.955,0.009-3.914-0.041-5.865,0.055c-1.344,0.064-1.565,0.392-1.566,1.671
	c-0.003,3.549-0.002,7.099,0,10.647c0,1.355,0.166,1.531,1.536,1.647c0.252,0.02,0.507,0.013,0.76,0.013
	c5.324,0.001,10.648,0.005,15.971-0.006c0.539-0.001,1.129,0.019,1.6-0.189c0.367-0.161,0.827-0.657,0.832-1.011
	c0.059-3.875,0.031-7.75,0.043-11.625c0.002-0.663-0.268-1.02-0.936-1.068c-0.504-0.038-1.007-0.125-1.51-0.128
	C203.387,159.136,200.78,159.143,198.172,159.143"/>
<path fill="#FFFFFF" d="M133.435,158.646h-1.24c-7.287,0-14.574-0.008-21.862,0.014c-0.711,0.002-1.44,0.114-2.13,0.297
	c-0.753,0.198-1.082,0.803-1.081,1.57c0.001,0.789,0.394,1.343,1.154,1.5c0.81,0.168,1.644,0.287,2.469,0.301
	c5.323,0.088,10.648,0.115,15.971,0.211c4.874,0.086,7.605,2.801,7.849,7.946c0.084,1.787-0.047,3.632-0.406,5.383
	c-0.684,3.332-2.831,5.194-6.18,5.638c-1.144,0.152-2.307,0.229-3.461,0.233c-6.743,0.021-13.488,0.067-20.23-0.022
	c-2.183-0.029-4.343-0.581-5.795-2.427c-1.225-1.56-1.043-3.445-0.929-5.4h1.333c7.323,0,14.647,0.011,21.97-0.016
	c0.743-0.003,1.502-0.181,2.224-0.381c0.796-0.222,1.118-0.822,1.088-1.661c-0.031-0.84-0.496-1.307-1.241-1.403
	c-1.251-0.162-2.515-0.261-3.775-0.3c-4.889-0.146-9.78-0.211-14.667-0.396c-4.7-0.178-7.511-2.897-7.697-7.668
	c-0.083-2.136,0.15-4.354,0.669-6.428c0.741-2.961,3.091-4.754,6.127-4.784c7.83-0.078,15.673-0.269,23.487,0.095
	C130.976,151.128,134.041,153.45,133.435,158.646"/>
<path fill="#FFFFFF" d="M165.335,170.833H147.09v10.853h-10.601v-30.811h10.589v3.788c0,1.959,0.002,3.917-0.001,5.875
	c-0.001,0.457-0.021,0.879,0.642,0.877c5.766-0.017,11.532-0.021,17.297-0.035c0.064,0,0.127-0.061,0.267-0.133v-10.361h10.642
	v30.776h-10.59V170.833z"/>
<path fill="#FFFFFF" d="M345.556,176.721c1.472-2.611,2.819-5.035,4.217-7.429c0.133-0.226,0.588-0.362,0.899-0.371
	c1.37-0.039,2.742-0.017,4.339-0.017c-1.521-2.802-2.954-5.446-4.494-8.284c-0.268,0.474-0.459,0.795-0.634,1.125
	c-3.361,6.32-6.728,12.637-10.069,18.967c-0.317,0.602-0.669,0.957-1.393,0.954c-3.659-0.019-7.318-0.008-11.063-0.008
	c0.11-0.265,0.194-0.527,0.324-0.766c5.354-9.766,10.718-19.524,16.055-29.3c0.349-0.637,0.749-0.829,1.45-0.821
	c3.626,0.033,7.252,0.028,10.878,0.003c0.646-0.004,1.047,0.142,1.378,0.757c5.283,9.804,10.592,19.594,15.894,29.388
	c0.116,0.216,0.216,0.441,0.404,0.829h-3.445c-2.538,0-5.077-0.019-7.615,0.014c-0.623,0.01-0.991-0.171-1.269-0.744
	c-0.581-1.202-1.262-2.358-1.842-3.563c-0.275-0.574-0.64-0.751-1.262-0.747C354.14,176.734,349.971,176.721,345.556,176.721"/>
<polygon fill="#FFFFFF" points="325.382,181.713 294.874,181.713 294.874,150.847 305.396,150.847 305.396,173.131 325.382,173.131 
	"/>
<path fill="#FFFFFF" d="M464.434,140.513c3.167,0.001,5.731,2.577,5.714,5.749c-0.019,3.132-2.567,5.702-5.76,5.679
	c-3.143-0.022-5.67-2.574-5.67-5.713C458.718,143.06,461.287,140.511,464.434,140.513 M464.434,151.539
	c2.937-0.003,5.311-2.379,5.31-5.315c-0.001-2.923-2.369-5.308-5.313-5.307c-2.952,0-5.335,2.411-5.31,5.36
	C459.146,149.162,461.495,151.539,464.434,151.539"/>
<path fill="#FFFFFF" d="M461.744,142.881h0.045h2.525c0.305,0,0.609,0.021,0.911,0.076c0.242,0.045,0.479,0.112,0.7,0.225
	c0.387,0.2,0.631,0.512,0.733,0.935c0.068,0.278,0.077,0.561,0.04,0.844c-0.042,0.328-0.166,0.623-0.4,0.865
	c-0.144,0.147-0.311,0.263-0.499,0.348c-0.091,0.041-0.188,0.075-0.281,0.112c-0.008,0.003-0.015,0.007-0.027,0.013
	c0.05,0.016,0.094,0.028,0.137,0.044c0.23,0.084,0.41,0.236,0.565,0.422c0.167,0.199,0.299,0.422,0.414,0.654
	c0.229,0.461,0.457,0.923,0.686,1.385c0.077,0.157,0.155,0.315,0.232,0.474c0.003,0.005,0.004,0.011,0.009,0.021h-0.046
	c-0.556,0-1.113,0-1.668,0.001c-0.034,0-0.051-0.011-0.065-0.041c-0.191-0.393-0.384-0.785-0.577-1.177
	c-0.075-0.154-0.149-0.311-0.229-0.463c-0.074-0.144-0.158-0.277-0.259-0.402c-0.158-0.194-0.362-0.304-0.606-0.332
	c-0.127-0.014-0.254-0.011-0.381-0.014c-0.101-0.002-0.203,0-0.308,0v2.426h-1.651V142.881z M463.396,144.079
	c-0.001,0.014-0.002,0.023-0.002,0.033c0,0.525,0,1.053-0.001,1.578c0,0.031,0.01,0.039,0.04,0.039
	c0.228-0.002,0.456-0.001,0.685-0.001c0.154-0.001,0.306-0.016,0.456-0.058c0.243-0.071,0.401-0.223,0.459-0.473
	c0.049-0.208,0.049-0.416-0.005-0.623c-0.055-0.207-0.187-0.348-0.388-0.419c-0.155-0.057-0.315-0.075-0.479-0.076
	c-0.243-0.002-0.488-0.001-0.731-0.001H463.396z"/>
<rect y="-172.751" fill="none" width="566.93" height="566.93"/>
<polygon fill="#B71351" points="367.479,87.241 323.937,120.579 280.395,87.241 236.852,120.579 193.309,87.241 193.309,49.282 
	236.852,82.619 280.395,49.282 323.937,82.619 367.479,49.282 "/>
<polygon fill="#B71351" points="367.479,37.959 323.937,71.297 280.395,37.959 236.852,71.297 193.309,37.959 193.309,0 
	236.852,33.337 280.395,0 323.937,33.337 367.479,0 "/>
</svg>
