<?xml version="1.0" encoding="utf-8"?>
<!-- Generator: Adobe Illustrator 23.0.0, SVG Export Plug-In . SVG Version: 6.00 Build 0)  -->
<svg version="1.1" id="Capa_1" xmlns="http://www.w3.org/2000/svg" xmlns:xlink="http://www.w3.org/1999/xlink" x="0px" y="0px"
	 viewBox="0 0 74.8 52.4" style="enable-background:new 0 0 74.8 52.4;" xml:space="preserve">
<style type="text/css">
	.st0{display:none;}
	.st1{display:inline;fill:#FFFFFF;}
	.st2{fill:#222221;}
	.st3{enable-background:new    ;}
	.st4{fill:#FFFFFF;}
</style>
<g class="st0">
	<path class="st1" d="M23,41.2V27.8h-4.5v-5.3H23v-4.3c0-4.6,2.8-7,6.9-7c2,0,3.6,0.1,4.1,0.2v4.8h-2.8c-2.2,0-2.6,1.1-2.6,2.6v3.7
		h5l-0.7,5.3h-4.3v13.4"/>
</g>
<g>
	<g id="XMLID_3871_">
		<path class="st2" d="M74.2,15.3c0-0.7-0.5-1.5-1.2-1.9c-0.5-0.3-1.3-0.5-2-0.4c-0.8,0.1-1.4,0.5-1.7,0.8c0,0-0.8,0.7-1,1
			c0,0-0.2,0.2-0.2,0.2l-0.1,0.2c0,0-0.4,0.5-0.4,0.5l0,0c0,0-0.5,0.6-0.5,0.6c0,0,0,0,0,0c0,0-0.2,0.2-0.3,0.3
			c-0.4,0.4-0.5,0.5-0.6,0.6c0,0-0.1,0.1-0.1,0.1c-0.4,0.6-0.7,0.9-0.8,1l0,0c-0.1,0.1-0.5,0.6-0.6,0.8c-0.2,0.2-0.4,0.5-0.4,0.6
			c-0.1,0.1-0.2,0.2-0.2,0.3l0,0l-0.7,0.9l0,0c-0.2,0.3-0.4,0.6-0.5,0.8c0,0,0,0.1,0,0.1c-0.2,0.6-0.4,0.7-0.4,0.8
			c-0.3,0.3-0.4,0.8-0.5,1.1c0,0-0.1,0.2-0.1,0.3c-0.1,0.2-0.2,0.5-0.3,0.6c-0.5,0.8-0.6,0.9-0.6,0.9c-0.1,0.1-0.2,0.3-0.3,0.4
			c0,0,0,0,0,0c-0.3,0.4-0.4,0.6-0.5,0.8l0,0l0,0c-0.1,0.2-0.2,0.4-0.2,0.5l0,0c-0.1,0.1-0.2,0.3-0.2,0.4c-0.1,0.4-0.2,0.7-0.3,0.8
			c-0.1-0.1-0.1-0.2-0.2-0.5c0-0.2-0.1-0.7-0.1-0.9l0,0c0-0.2,0-0.4,0-0.6L59,25.6c0-0.3-0.1-1.3-0.1-1.3c-0.1-1-0.1-1.7-1-2.3
			c-0.3-0.2-0.6-0.2-0.9-0.2l0,0c-0.4,0-0.8,0-1.1,0l0.1-1.1c0.1-0.1,0.1-0.1,0.2-0.2c0,0,0,0,0,0c0.1,0,0.5-0.3,0.5-0.3l0.2-0.2
			c0.1,0,0.1-0.1,0.1-0.1c0.1,0,0.3-0.1,0.4-0.2c0.1,0,0.1-0.1,0.2-0.1l0.1,0c0.2-0.1,0.3-0.1,0.4-0.2l0,0c0.5-0.3,1.3-1.2,1.3-2.2
			c0-0.1,0-0.3,0-0.4c-0.1-0.3-0.3-0.6-0.4-0.8L58.9,16c-0.5-0.7-1.2-0.7-1.4-0.7c0,0-0.1,0-0.2,0c-0.2,0-0.4,0-0.6,0l0,0
			c0,0-0.1,0-0.1,0l0.5-4.4c0-0.1,0-0.2-0.1-0.2l-6.1-3c0,0,0,0,0,0c0,0,0,0,0,0c0,0,0,0-0.1,0c0,0,0,0,0,0c0,0,0,0,0,0c0,0,0,0,0,0
			c0,0,0,0,0,0c0,0,0,0,0,0c0,0,0,0,0,0l-11.1,8.2l-6.2-5.7c0,0,0,0-0.1,0l-6.1-3c0,0,0,0,0,0c0,0,0,0,0,0c0,0,0,0,0,0c0,0,0,0,0,0
			c0,0,0,0,0,0c0,0,0,0,0,0c0,0,0,0,0,0c0,0,0,0,0,0l-11.1,8.2L9.7,9.5c0,0,0,0-0.1,0l-6.1-3l0,0l0,0c0,0,0,0,0,0c0,0,0,0-0.1,0
			c0,0,0,0,0,0c0,0,0,0,0,0c0,0,0,0,0,0c0,0,0,0,0,0c0,0,0,0,0,0c0,0,0,0,0,0c0,0,0,0-0.1,0.1c0,0,0,0,0,0c0,0,0,0,0,0c0,0,0,0,0,0
			c0,0,0,0,0,0c0,0,0,0,0,0L2.1,17.7c0,0.1,0,0.1,0.1,0.2l10.8,10.1c0,0,0,0,0,0c0,0,0,0,0.1,0l2.1,1.1l-0.8,0.6l-6.2-5.7
			c0,0,0,0-0.1,0l-6.1-3h0l0,0c0,0,0,0,0,0c0,0,0,0-0.1,0c0,0,0,0,0,0c0,0,0,0,0,0c0,0,0,0,0,0c0,0,0,0,0,0c0,0,0,0,0,0c0,0,0,0,0,0
			c0,0,0,0-0.1,0.1c0,0,0,0,0,0c0,0,0,0,0,0c0,0,0,0,0,0c0,0,0,0,0,0c0,0,0,0,0,0L0.5,32.1c0,0.1,0,0.1,0.1,0.2l10.8,10.1
			c0,0,0,0,0,0c0,0,0,0,0.1,0l6.1,3c0,0,0.1,0,0.1,0c0,0,0.1,0,0.1,0l11.1-8.2L35,43c0,0,0,0,0,0c0,0,0,0,0.1,0l6.1,3
			c0,0,0.1,0,0.1,0c0,0,0.1,0,0.1,0l7.8-5.7c0.1,0.3,0.2,1.1,0.8,1.4c0.4,0.2,0.7,0.3,1,0.3c0.1,0,0.1,0,0.1,0
			c0.7,0.2,1.6,0.1,2-0.1c0.3-0.1,0.5-0.3,0.6-0.5l0.1-0.1c0.1-0.1,0.2-0.2,0.3-0.3c0.1-0.2,0.2-0.5,0.3-0.9c0-0.2,0.1-0.3,0.1-0.4
			c0.1-0.2,0.1-0.4,0.1-0.6c0-0.5-0.2-1.1-0.2-1.1c0-0.1-0.3-0.8-0.4-1c0-0.1,0-0.2,0-0.3l0.2-0.2c0,0,0,0,0,0c0,0,0,0,0,0
			c0,0,0,0,0,0c0,0,0,0,0,0c0,0,0,0,0,0c0,0,0,0,0,0c0,0,0,0,0,0c0,0,0,0,0,0l0.8-7.6l0.2,0.6l0,0c0.1,0.3,0.3,0.8,0.3,1.1
			c0.1,0.4,0.2,0.7,0.3,1.1c0,0,0,0,0,0c0.1,0.3,0.2,0.6,0.2,1c0,0,0.1,0.3,0.1,0.3l0.1,0.4l0,0c0,0.2,0.2,0.7,0.3,0.9c0,0,0,0,0,0
			c0.1,0.1,0.1,0.3,0.1,0.4c0.2,0.6,0.3,1,0.6,1.5c0.2,0.4,0.3,0.6,0.4,0.8c0.5,0.7,1,1.2,2.1,1.2c0.5,0,1.1-0.1,1.5-0.4
			c0.4-0.3,0.6-0.7,0.6-0.8c0.3-0.4,0.5-1,0.6-1.5c0-0.2,0-0.4,0-0.6c0-0.1,0-0.3,0-0.4c0-0.1,0-0.2,0-0.4c0-0.1,0-0.2,0-0.3
			c0-0.2,0.1-0.7,0.3-1.1c0,0,0,0,0,0c0.1-0.2,0.2-0.4,0.2-0.6c0.1-0.2,0.2-0.4,0.3-0.7l0.2-0.4c0.1-0.2,0.7-1.2,0.8-1.3l0.2-0.2
			l0,0l0.7-1.2l0,0c0.1-0.1,0.2-0.4,0.3-0.6c0-0.1,0.1-0.2,0.1-0.3c0,0,0.1-0.1,0.1-0.1c0.2-0.3,0.4-0.4,0.5-0.6c0,0,0,0,0,0
			l0.1-0.2c0.2-0.3,0.3-0.5,0.3-0.6c0.1-0.2,0.2-0.5,0.3-0.6c0.1-0.1,0.1-0.2,0.2-0.3c0.1-0.2,0.2-0.4,0.3-0.6
			c0.1-0.1,0.3-0.4,0.5-0.7c0.1-0.2,0.3-0.5,0.4-0.5c0.3-0.3,0.5-0.7,0.7-1c0,0,0.1-0.2,0.2-0.3c0.3-0.4,0.5-0.6,0.6-0.9
			c0.1-0.1,0.2-0.2,0.4-0.4l0.2-0.1c0.1-0.1,0.2-0.2,0.3-0.3c0.1-0.2,0.2-0.3,0.5-0.4c0.1-0.1,0.7-0.4,0.8-0.4
			c0.2-0.1,0.6-0.3,0.9-0.5c0.4-0.3,0.7-0.8,0.8-1c0.2-0.4,0.4-1,0.4-1.3c0.1-0.4,0.1-0.6,0.1-1C74.2,15.5,74.2,15.4,74.2,15.3z
			 M53.9,24.3l-0.3-0.2c0-0.2,0-0.3,0-0.5l0.4-0.3c0,0.2-0.1,0.5-0.1,0.7C53.9,24.2,53.9,24.3,53.9,24.3z M36.5,28.5
			C36.5,28.5,36.5,28.5,36.5,28.5C36.5,28.6,36.6,28.6,36.5,28.5l2.2,1.1l-0.8,0.6l-6.2-5.7c0,0,0,0-0.1,0l-2.1-1.1l0.8-0.6
			L36.5,28.5z"/>
		<path class="st2" d="M41.2,46.5c-0.1,0-0.2,0-0.3-0.1l-6.1-3c0,0-0.1,0-0.1-0.1l-0.1,0l-0.1-0.1l-5.8-5.4L18,45.8
			c-0.2,0.2-0.5,0.2-0.8,0.1l-6.1-3c0,0-0.1,0-0.1-0.1l0,0c0,0,0,0,0,0l0,0L0.2,32.7C0.1,32.5,0,32.3,0,32l1.2-11.2c0,0,0,0,0,0
			c0,0,0-0.1,0-0.1l0,0l0.1-0.1c0,0,0.1-0.1,0.1-0.1l0.1,0c0,0,0.1,0,0.1,0l0.1,0c0,0,0,0,0,0c0,0,0.1,0,0.2,0l0.1,0
			c0,0,0.1,0,0.1,0l0.1,0L6,22.2l-4.2-3.9c-0.2-0.2-0.3-0.4-0.2-0.6L2.7,6.5c0,0,0,0,0-0.1c0,0,0-0.1,0-0.1l0,0l0.1-0.1
			C3,6.1,3,6,3,6l0.1,0c0,0,0.1,0,0.1-0.1l0.1,0c0,0,0,0,0,0c0.1,0,0.1,0,0.2,0l0.1,0c0.1,0,0.1,0,0.2,0l0.1,0l6.1,3
			C9.9,9,10,9,10.1,9.1l5.8,5.4l10.8-7.9l0.1,0c0,0,0.1,0,0.1,0l0.1,0c0,0,0.1,0,0.1,0l0.1,0c0,0,0,0,0.1,0l0,0l0.1,0l6.1,3
			c0.1,0,0.1,0.1,0.2,0.1l5.8,5.4l10.8-8c0,0,0,0,0.1,0l0,0c0.1,0,0.1,0,0.2,0l0,0l0,0c0.1,0,0.1,0,0.2,0l0.1,0c0,0,0.1,0,0.1,0
			l6.1,3c0.3,0.1,0.4,0.4,0.4,0.8l-0.4,3.8c0.1,0,0.1,0,0.2,0c0.1,0,0.1,0,0.2,0c0,0,0,0,0,0c0.8,0,1.4,0.3,1.8,0.9l0.1,0.1
			c0.1,0.2,0.4,0.5,0.5,1c0,0.2,0.1,0.3,0.1,0.5c0,1.2-0.8,2.2-1.5,2.6c-0.2,0.1-0.3,0.2-0.5,0.2l-0.1,0c0,0-0.1,0-0.1,0.1
			c-0.1,0.1-0.2,0.1-0.4,0.2l0,0l-0.3,0.2l-0.5,0.3c0,0,0,0,0,0l0,0.3c0.2,0,0.4,0,0.5,0c0.4,0,0.8,0.1,1.2,0.3
			c1,0.7,1.1,1.7,1.2,2.7c0,0,0.1,1,0.1,1.3l0.1,0.9c0,0.2,0,0.4,0,0.5c0.1-0.1,0.1-0.2,0.1-0.3l0,0c0.1-0.3,0.2-0.5,0.6-1l0,0
			c0.1-0.1,0.2-0.3,0.2-0.4c0,0,0-0.1,0.6-0.9c0.1-0.2,0.2-0.5,0.3-0.6c0-0.1,0.1-0.2,0.1-0.2c0.1-0.3,0.2-0.8,0.6-1.2
			c0,0,0.1-0.1,0.3-0.6c0,0,0-0.1,0-0.1c0.1-0.2,0.3-0.6,0.5-0.8l0.1-0.1l0.7-0.9c0.1-0.1,0.2-0.2,0.2-0.3c0.1-0.1,0.3-0.4,0.4-0.6
			c0.1-0.2,0.4-0.6,0.6-0.8c0,0,0.1-0.2,0.5-0.7l0,0l0.3-0.4c0.1-0.1,0.2-0.2,0.6-0.7c0.1-0.1,0.2-0.2,0.3-0.3
			c0.3-0.4,0.4-0.5,0.4-0.5l0,0c0.2-0.2,0.3-0.4,0.4-0.5l0,0l0,0l0.3-0.4c0.3-0.3,1.1-1.1,1.1-1.1c0.3-0.3,1-0.8,2-0.9
			c0.9-0.1,1.8,0.1,2.4,0.5c0.8,0.5,1.4,1.5,1.4,2.4l0,0c0,0.1,0,0.2,0,0.3c0,0.4-0.1,0.7-0.1,1.1c-0.1,0.4-0.2,1-0.5,1.4
			c-0.1,0.2-0.5,0.8-1,1.2c-0.3,0.2-0.8,0.5-1,0.6c-0.1,0-0.6,0.3-0.8,0.4c-0.1,0.1-0.2,0.1-0.3,0.3c-0.1,0.1-0.2,0.2-0.4,0.4
			l-0.1,0l-0.2,0.1c-0.1,0.1-0.2,0.1-0.2,0.1c-0.1,0.3-0.4,0.6-0.7,1c-0.1,0.1-0.1,0.2-0.2,0.2c-0.2,0.3-0.4,0.8-0.7,1.1
			c0,0-0.2,0.3-0.3,0.4c-0.2,0.4-0.4,0.6-0.5,0.8c-0.1,0.1-0.2,0.3-0.2,0.4c-0.1,0.1-0.1,0.2-0.2,0.4c-0.1,0.1-0.3,0.4-0.3,0.5
			c-0.1,0.2-0.2,0.4-0.3,0.7l-0.1,0.2c-0.1,0.3-0.3,0.5-0.5,0.7l0,0c0,0.1,0,0.1-0.1,0.2c-0.1,0.2-0.2,0.6-0.3,0.7l0,0.1L65,29.7
			L64.9,30c-0.1,0.1-0.6,1-0.7,1.2l-0.2,0.4c-0.1,0.2-0.2,0.4-0.3,0.5c-0.1,0.2-0.2,0.5-0.3,0.7c-0.2,0.4-0.2,0.9-0.3,1
			c0,0.1,0,0.2,0,0.3c0,0.1,0,0.2,0,0.3l0,0c0,0.1,0,0.3,0,0.4c0,0.3,0,0.5-0.1,0.7c-0.1,0.6-0.4,1.2-0.7,1.7
			c-0.1,0.1-0.3,0.5-0.7,0.9c-0.5,0.5-1.3,0.6-1.9,0.6c-1.4,0-2-0.7-2.5-1.4c-0.1-0.2-0.3-0.4-0.4-0.9c-0.2-0.5-0.4-0.9-0.6-1.5
			c0-0.1-0.1-0.3-0.1-0.4L55.9,34l0,0c-0.1-0.2-0.1-0.4-0.1-0.5l-0.1-0.2l0,0l-0.1-0.5c-0.1-0.3-0.1-0.6-0.2-0.9l-0.1-0.2l-0.6,5
			c0,0,0,0.1,0,0.1l-0.1,0.1c0,0,0,0-0.1,0.1l0,0c0.1,0.3,0.3,0.7,0.4,0.9c0,0.1,0.2,0.7,0.2,1.3c0,0.3,0,0.5-0.1,0.8
			c0,0.1-0.1,0.2-0.1,0.4c-0.1,0.5-0.2,0.8-0.4,1.1c-0.1,0.2-0.3,0.3-0.4,0.4l0,0c-0.2,0.3-0.5,0.5-0.8,0.6
			c-0.6,0.2-1.5,0.4-2.4,0.1c0,0,0,0-0.1,0c-0.3,0-0.7-0.1-1.2-0.4c-0.3-0.2-0.6-0.5-0.8-1l-7.2,5.3C41.5,46.5,41.4,46.5,41.2,46.5z
			 M35.3,42.5l5.9,2.9l8.3-6.1l0.1,0.8c0.1,0.7,0.4,0.9,0.5,1c0.3,0.2,0.6,0.2,0.8,0.3c0.1,0,0.2,0,0.2,0c0.6,0.2,1.3,0.1,1.7-0.1
			c0.2-0.1,0.3-0.2,0.4-0.3l0.1-0.1c0.1-0.1,0.2-0.1,0.2-0.2c0.1-0.1,0.2-0.5,0.3-0.8c0.1-0.2,0.1-0.4,0.1-0.5
			c0-0.1,0.1-0.2,0.1-0.4c0-0.5-0.1-0.9-0.2-0.9c0-0.1-0.3-0.7-0.4-0.9l0-0.1c0-0.1,0-0.2-0.1-0.3l0-0.3l0.4-0.3l1.1-10l0.9,3.1h0
			c0.2,0.5,0.3,0.9,0.3,1.2c0.1,0.3,0.2,0.7,0.2,1l0.1,0.5l0,0c0,0.2,0.1,0.3,0.1,0.5l0,0c0,0.1,0.1,0.2,0.1,0.3l0.1,0.4l-0.2,0.1
			l0.2,0l-0.1,0l0.1,0c0,0.1,0.2,0.6,0.2,0.8l0.2,0.5l0,0c0,0,0,0,0,0c0.1,0.5,0.3,0.9,0.5,1.4c0.2,0.5,0.3,0.6,0.4,0.7
			c0.4,0.6,0.8,0.9,1.6,0.9c0,0,0,0,0,0c0.4,0,0.9,0,1.2-0.3c0.3-0.3,0.6-0.7,0.6-0.7c0.2-0.4,0.4-0.8,0.5-1.3c0-0.1,0-0.3,0-0.5
			c0-0.1,0-0.2,0-0.3l0.5-0.1l-0.5,0c0-0.1,0-0.2,0-0.4c0-0.2,0-0.3,0-0.4c0-0.2,0.1-0.8,0.3-1.3l0,0c0-0.1,0.2-0.4,0.2-0.6
			c0.1-0.3,0.3-0.6,0.4-0.8l0.2-0.4c0.1-0.2,0.7-1.2,0.8-1.3l0.2-0.2l0.7-1.1c0.1-0.1,0.2-0.4,0.2-0.6c0-0.1,0.1-0.2,0.1-0.3l0-0.1
			l0.1-0.2c0.2-0.2,0.3-0.4,0.4-0.5h0h0c0,0,0,0,0,0l0.3,0.1l-0.2-0.1l0.1-0.2c0.1-0.2,0.2-0.4,0.3-0.5c0.1-0.2,0.2-0.5,0.4-0.7
			c0.1-0.1,0.1-0.2,0.1-0.2c0.1-0.2,0.2-0.5,0.4-0.7c0.1-0.1,0.2-0.3,0.4-0.6c0.2-0.4,0.3-0.5,0.4-0.6c0.2-0.2,0.4-0.6,0.6-0.9l0,0
			c0,0,0.1-0.2,0.2-0.3c0.3-0.3,0.5-0.6,0.5-0.8c0.1-0.2,0.3-0.4,0.7-0.6l0.1-0.1c0.1-0.1,0.2-0.2,0.2-0.3c0.2-0.2,0.3-0.3,0.6-0.5
			c0.2-0.1,0.8-0.4,0.9-0.4c0.2-0.1,0.5-0.2,0.8-0.4c0.3-0.2,0.6-0.7,0.7-0.8c0.1-0.2,0.3-0.7,0.4-1.2c0.1-0.4,0.1-0.6,0.1-0.9
			c0-0.1,0-0.1,0-0.2v0c0-0.5-0.4-1.2-0.9-1.5c-0.4-0.2-1-0.4-1.7-0.3c-0.7,0.1-1.1,0.4-1.4,0.6c-0.2,0.1-0.8,0.7-0.9,0.9l0,0
			c0,0.1-0.1,0.1-0.1,0.2l-0.2,0.4l0,0c-0.1,0.1-0.3,0.4-0.3,0.4l0,0l-0.5,0.6l0,0c0,0-0.2,0.2-0.3,0.3c-0.4,0.4-0.5,0.5-0.5,0.6
			l0,0c0,0-0.1,0.1-0.1,0.1c-0.7,0.9-0.7,1-0.8,1v0v0c0,0,0,0,0,0l-0.2-0.1l0.2,0.2c-0.1,0.1-0.4,0.5-0.5,0.7
			c-0.2,0.2-0.4,0.6-0.5,0.7c-0.1,0.1-0.2,0.2-0.3,0.3l-0.7,0.8c-0.2,0.2-0.4,0.6-0.4,0.8l0,0.1c-0.2,0.5-0.4,0.8-0.5,0.9
			c-0.2,0.2-0.3,0.7-0.3,0.8l0,0c0,0.1-0.1,0.2-0.2,0.4c-0.1,0.2-0.2,0.5-0.3,0.6l0,0.1c-0.5,0.7-0.5,0.8-0.6,0.9
			c-0.1,0.1-0.2,0.3-0.3,0.5l0,0c-0.2,0.3-0.4,0.5-0.4,0.6c-0.1,0.3-0.2,0.6-0.3,0.7c-0.1,0.1-0.1,0.2-0.1,0.2
			c-0.1,0.4-0.3,0.8-0.5,1.1l-0.3,0.4l-0.4-0.3c-0.2-0.2-0.3-0.4-0.4-0.7l0-0.1c0-0.1-0.1-0.7-0.1-1c0-0.2,0-0.4,0-0.6l-0.1-0.8
			c0-0.3-0.1-1.3-0.1-1.3c-0.1-1-0.1-1.5-0.7-1.9c-0.1-0.1-0.4-0.1-0.7-0.1l0,0c-0.3,0-0.7,0-0.9,0l-0.7,0.1l0.2-2.1l0.2-0.1
			c0.1,0,0.1-0.1,0.1-0.1l0.1-0.1l0.5-0.3l0.2-0.1c0.1-0.1,0.2-0.1,0.3-0.2c0.1,0,0.2-0.1,0.3-0.1c0.1-0.1,0.2-0.1,0.3-0.1l0.1,0
			c0.2-0.1,0.3-0.1,0.3-0.1c0.4-0.2,1-0.9,1-1.8c0-0.1,0-0.2,0-0.3c0-0.2-0.2-0.4-0.3-0.5l-0.1-0.1c-0.3-0.4-0.7-0.5-0.9-0.5
			c0,0,0,0,0,0c-0.1,0-0.2,0-0.3,0c-0.2,0-0.3,0-0.4,0c0,0,0,0,0,0l-0.8,0.3l0.1-0.8l0.5-4.2l-5.7-2.8l-11.3,8.3l-6.4-6l-5.9-2.9
			l-11.3,8.3l-6.4-6L3.7,7.1L2.6,17.6l10.6,9.9l2.9,1.4l-1.8,1.3l-6.4-6l-5.6-2.8L1.1,32l10.6,9.9l5.9,2.9l11.3-8.3L35.3,42.5z
			 M54.5,36.9C54.5,36.9,54.5,36.9,54.5,36.9C54.6,36.9,54.6,36.9,54.5,36.9L54.5,36.9z M7.9,24.3C7.9,24.3,7.9,24.3,7.9,24.3
			L7.9,24.3z M1.8,21.3C1.8,21.3,1.8,21.3,1.8,21.3L1.8,21.3z M70.2,21.2C70.2,21.2,70.2,21.2,70.2,21.2
			C70.2,21.2,70.2,21.2,70.2,21.2z M57.2,20.4C57.2,20.4,57.2,20.4,57.2,20.4C57.2,20.4,57.2,20.4,57.2,20.4z M33,10.5
			C33,10.5,33,10.5,33,10.5L33,10.5z M9.4,9.9C9.4,9.9,9.4,9.9,9.4,9.9L9.4,9.9z M27,7.5C27,7.5,27,7.5,27,7.5L27,7.5z M27,7.5
			C27,7.5,27,7.5,27,7.5L27,7.5z M3.4,6.9C3.4,6.9,3.4,6.9,3.4,6.9L3.4,6.9z M37.9,30.9l-6.4-6l-2.9-1.4l1.8-1.3l6.4,6l2.9,1.4
			L37.9,30.9z M31.5,24.9C31.5,24.9,31.5,24.9,31.5,24.9L31.5,24.9z M54.4,25.2l-1.4-0.7l0-0.3c0-0.2,0-0.3,0-0.5l0-0.3l1.7-1.3
			l-0.3,1.3c0,0.2-0.1,0.4-0.1,0.6c0,0,0,0.1,0,0.1L54.4,25.2z"/>
	</g>
	<g id="XMLID_3845_">
		<g id="XMLID_3846_" class="st3">
			<g id="XMLID_3869_">
				<g id="XMLID_3870_">
					<polygon class="st4" points="3.5,6.6 9.5,9.6 20.3,19.7 14.2,16.7 					"/>
					<path class="st2" d="M20.3,19.9C20.3,19.9,20.2,19.9,20.3,19.9l-6.2-3c0,0,0,0-0.1,0L3.3,6.8c-0.1-0.1-0.1-0.2,0-0.3
						c0.1-0.1,0.2-0.1,0.3-0.1l6.1,3c0,0,0,0,0.1,0l10.8,10.1c0.1,0.1,0.1,0.2,0,0.3C20.5,19.9,20.4,19.9,20.3,19.9z M14.4,16.5
						l4.7,2.3l-9.6-9L4.8,7.5L14.4,16.5z"/>
				</g>
			</g>
			<g id="XMLID_3867_">
				<g id="XMLID_3868_">
					<polygon class="st4" points="1.9,21 8,24 18.8,34.1 12.7,31.1 					"/>
					<path class="st2" d="M18.8,34.3C18.7,34.3,18.7,34.3,18.8,34.3l-6.2-3c0,0,0,0-0.1,0L1.8,21.2c-0.1-0.1-0.1-0.2,0-0.3
						c0.1-0.1,0.2-0.1,0.3-0.1l6.1,3c0,0,0,0,0.1,0l10.8,10.1c0.1,0.1,0.1,0.2,0,0.3C18.9,34.3,18.8,34.3,18.8,34.3z M12.8,30.9
						l4.7,2.3l-9.6-9l-4.7-2.3L12.8,30.9z"/>
				</g>
			</g>
			<g id="XMLID_3865_">
				<g id="XMLID_3866_">
					<polygon class="st4" points="25.9,18.3 32,21.3 19.1,30.8 13.1,27.8 					"/>
					<path class="st2" d="M19.1,31C19.1,31,19.1,31,19.1,31L13,28c-0.1,0-0.1-0.1-0.1-0.2c0-0.1,0-0.2,0.1-0.2l12.8-9.4
						c0.1-0.1,0.2-0.1,0.2,0l6.1,3c0.1,0,0.1,0.1,0.1,0.2c0,0.1,0,0.2-0.1,0.2L19.3,31C19.2,31,19.2,31,19.1,31z M13.5,27.7l5.6,2.8
						l12.4-9.1l-5.6-2.8L13.5,27.7z"/>
				</g>
			</g>
			<g id="XMLID_3863_">
				<g id="XMLID_3864_">
					<polygon class="st4" points="24.4,32.7 30.4,35.7 17.6,45.2 11.5,42.2 					"/>
					<path class="st2" d="M17.6,45.4C17.6,45.4,17.5,45.4,17.6,45.4l-6.2-3c-0.1,0-0.1-0.1-0.1-0.2c0-0.1,0-0.2,0.1-0.2l12.8-9.4
						c0.1-0.1,0.2-0.1,0.2,0l6.1,3c0.1,0,0.1,0.1,0.1,0.2c0,0.1,0,0.2-0.1,0.2l-12.8,9.4C17.7,45.4,17.6,45.4,17.6,45.4z M11.9,42.1
						l5.6,2.8L30,35.8L24.4,33L11.9,42.1z"/>
				</g>
			</g>
			<g id="XMLID_3861_">
				<g id="XMLID_3862_">
					<polygon class="st4" points="27.1,7.2 33.2,10.2 43.9,20.3 37.9,17.3 					"/>
					<path class="st2" d="M43.9,20.5c0,0-0.1,0-0.1,0l-6.1-3c0,0,0,0-0.1,0L26.9,7.4c-0.1-0.1-0.1-0.2,0-0.3C27,7,27.1,7,27.2,7
						l6.1,3c0,0,0,0,0.1,0l10.8,10.1c0.1,0.1,0.1,0.2,0,0.3C44.1,20.5,44,20.5,43.9,20.5z M38,17.1l4.7,2.3l-9.6-9l-4.7-2.3L38,17.1
						z"/>
				</g>
			</g>
			<g id="XMLID_3859_">
				<g id="XMLID_3860_">
					<polygon class="st4" points="25.5,21.6 31.6,24.7 42.4,34.7 36.3,31.7 					"/>
					<path class="st2" d="M42.4,34.9c0,0-0.1,0-0.1,0l-6.1-3c0,0,0,0-0.1,0L25.4,21.8c-0.1-0.1-0.1-0.2,0-0.3
						c0.1-0.1,0.2-0.1,0.3-0.1l6.1,3c0,0,0,0,0.1,0l10.8,10.1c0.1,0.1,0.1,0.2,0,0.3C42.5,34.9,42.5,34.9,42.4,34.9z M36.4,31.5
						l4.7,2.3l-9.6-9l-4.7-2.3L36.4,31.5z"/>
				</g>
			</g>
			<g id="XMLID_3857_">
				<g id="XMLID_3858_">
					<polygon class="st4" points="50.7,7.8 49.5,18.9 36.7,28.4 25.9,18.3 13.1,27.8 2.3,17.7 3.5,6.6 14.2,16.7 27.1,7.2 
						37.9,17.3 					"/>
					<path class="st2" d="M36.7,28.6c-0.1,0-0.1,0-0.2-0.1l-10.6-9.9L13.2,28c-0.1,0.1-0.2,0.1-0.3,0L2.1,17.9
						c-0.1,0-0.1-0.1-0.1-0.2L3.3,6.6c0-0.1,0.1-0.2,0.1-0.2c0.1,0,0.2,0,0.2,0l10.6,9.9L27,7.1C27,7,27.2,7,27.2,7.1L37.9,17
						l12.7-9.3c0.1-0.1,0.2-0.1,0.2,0c0.1,0,0.1,0.1,0.1,0.2L49.7,19c0,0.1,0,0.1-0.1,0.2l-12.8,9.4C36.8,28.6,36.7,28.6,36.7,28.6z
						 M25.9,18.1c0.1,0,0.1,0,0.2,0.1l10.6,9.9l12.6-9.3l1.1-10.5L38,17.5c-0.1,0.1-0.2,0.1-0.3,0L27.1,7.5l-12.7,9.3
						c-0.1,0.1-0.2,0.1-0.3,0L3.7,7.1L2.5,17.6l10.5,9.8l12.7-9.3C25.8,18.1,25.9,18.1,25.9,18.1z"/>
				</g>
			</g>
			<g id="XMLID_3855_">
				<g id="XMLID_3856_">
					<polygon class="st4" points="50.7,7.8 56.8,10.9 55.6,22 49.5,18.9 					"/>
					<path class="st2" d="M55.6,22.2c0,0-0.1,0-0.1,0l-6.1-3c-0.1,0-0.1-0.1-0.1-0.2l1.2-11.1c0-0.1,0.1-0.1,0.1-0.2
						c0.1,0,0.1,0,0.2,0l6.1,3c0.1,0,0.1,0.1,0.1,0.2L55.8,22c0,0.1-0.1,0.1-0.1,0.2C55.7,22.2,55.6,22.2,55.6,22.2z M49.8,18.8
						l5.6,2.8L56.5,11l-5.6-2.8L49.8,18.8z"/>
				</g>
			</g>
			<g id="XMLID_3853_">
				<g id="XMLID_3854_">
					<polygon class="st4" points="49.5,18.9 55.6,22 42.7,31.4 36.7,28.4 					"/>
					<path class="st2" d="M42.7,31.6c0,0-0.1,0-0.1,0l-6.1-3c-0.1,0-0.1-0.1-0.1-0.2c0-0.1,0-0.2,0.1-0.2l12.8-9.4
						c0.1-0.1,0.2-0.1,0.2,0l6.1,3c0.1,0,0.1,0.1,0.1,0.2c0,0.1,0,0.2-0.1,0.2l-12.8,9.4C42.8,31.6,42.8,31.6,42.7,31.6z M37.1,28.3
						l5.6,2.8L55.2,22l-5.6-2.8L37.1,28.3z"/>
				</g>
			</g>
			<g id="XMLID_3851_">
				<g id="XMLID_3852_">
					<polygon class="st4" points="49.2,22.3 48,33.3 35.1,42.8 24.4,32.7 11.5,42.2 0.8,32.1 1.9,21 12.7,31.1 25.5,21.6 36.3,31.7 
											"/>
					<path class="st2" d="M35.1,43C35.1,43,35,43,35,43L24.3,33l-12.7,9.3c-0.1,0.1-0.2,0.1-0.3,0L0.6,32.3c-0.1,0-0.1-0.1-0.1-0.2
						L1.7,21c0-0.1,0.1-0.2,0.1-0.2c0.1,0,0.2,0,0.2,0l10.6,9.9l12.7-9.3c0.1-0.1,0.2-0.1,0.3,0l10.6,9.9L49,22.1
						c0.1-0.1,0.2-0.1,0.2,0c0.1,0,0.1,0.1,0.1,0.2l-1.2,11.1c0,0.1,0,0.1-0.1,0.2L35.3,43C35.2,43,35.2,43,35.1,43z M24.4,32.5
						c0.1,0,0.1,0,0.2,0.1l10.6,9.9l12.6-9.3l1.1-10.5l-12.4,9.1c-0.1,0.1-0.2,0.1-0.3,0l-10.6-9.9l-12.7,9.3
						c-0.1,0.1-0.2,0.1-0.3,0L2.1,21.5L1,32l10.5,9.8l12.7-9.3C24.3,32.5,24.3,32.5,24.4,32.5z"/>
				</g>
			</g>
			<g id="XMLID_3849_">
				<g id="XMLID_3850_">
					<polygon class="st4" points="48,33.3 54.1,36.4 41.2,45.8 35.1,42.8 					"/>
					<path class="st2" d="M41.2,46c0,0-0.1,0-0.1,0L35,43c-0.1,0-0.1-0.1-0.1-0.2c0-0.1,0-0.2,0.1-0.2l12.8-9.4
						c0.1-0.1,0.2-0.1,0.2,0l6.1,3c0.1,0,0.1,0.1,0.1,0.2c0,0.1,0,0.2-0.1,0.2L41.3,46C41.3,46,41.3,46,41.2,46z M35.6,42.8l5.6,2.8
						l12.4-9.1L48,33.6L35.6,42.8z"/>
				</g>
			</g>
			<g id="XMLID_3847_">
				<g id="XMLID_3848_">
					<polygon class="st4" points="49.2,22.3 55.2,25.3 54.1,36.4 48,33.3 					"/>
					<path class="st2" d="M54.1,36.6c0,0-0.1,0-0.1,0l-6.1-3c-0.1,0-0.1-0.1-0.1-0.2l1.2-11.1c0-0.1,0.1-0.1,0.1-0.2
						c0.1,0,0.1,0,0.2,0l6.1,3c0.1,0,0.1,0.1,0.1,0.2l-1.2,11.1c0,0.1-0.1,0.1-0.1,0.2C54.1,36.6,54.1,36.6,54.1,36.6z M48.2,33.2
						l5.6,2.8L55,25.4l-5.6-2.8L48.2,33.2z"/>
				</g>
			</g>
		</g>
	</g>
	<g id="XMLID_3837_">
		<g id="XMLID_3842_">
			<path class="st2" d="M56.6,15.3L56.6,15.3c-0.4,0.1-0.8,0.4-1,0.6c0,0-0.1,0.1-0.1,0.1c-0.4,0.3-0.6,0.4-0.7,0.6l-0.1,0.1
				c-0.2,0.2-0.3,0.4-0.3,0.4c0,0-0.2,0.1-0.3,0.1c-0.1,0.1-0.3,0.1-0.4,0.2c0,0,0,0,0,0c-0.2,0-0.4,0.1-0.5,0.1
				c-0.1,0-0.2,0.1-0.4,0.2c0,0-0.3,0.1-0.3,0.1c0,0-0.1,0-0.1,0L52,17.9c-0.1,0-0.2,0.1-0.3,0.2c0,0,0,0,0,0c-0.1,0-0.2,0-0.3,0
				c0,0,0,0,0,0c-0.3-0.1-0.9-0.4-1.6-0.3c-0.3,0-0.6,0.2-0.8,0.3c-0.2,0.1-0.5,0.2-0.6,0.5c-0.1,0.1-0.2,0.2-0.3,0.3
				c-0.2,0.3-0.3,0.8-0.3,1c0,0.1,0,0.1,0,0.2c0,0.2,0,0.4,0.1,0.6l0,0.1c0,0.1,0,0.1,0,0.2c0,0,0,0,0,0c0,0,0,0-0.1,0.1
				c0,0-0.3,0.2-0.3,0.2s-0.1,0.1-0.2,0.1c0,0-0.2,0.1-0.2,0.1c-0.3,0.1-0.4,0.1-0.5,0.2c-0.2,0.1-0.3,0.2-0.5,0.3
				c-0.2,0.1-0.4,0.2-0.5,0.3c-0.3,0.3-0.7,0.5-0.8,0.6l0,0l0,0c-0.2,0.1-0.6,0.3-0.9,0.5c-0.2,0.1-0.5,0.3-0.7,0.5c0,0,0,0-0.1,0.1
				c0,0-0.2,0.1-0.2,0.1c-0.2,0.1-0.3,0.2-0.4,0.2l-0.2,0.1c-0.1,0.1-0.3,0.2-0.3,0.2c-0.1,0.1-0.4,0.1-0.6,0.2
				c-0.5,0.2-1.1,0.3-1.6,0.8c-0.5,0.5-0.7,1.2-0.7,1.8c0,0.3,0,0.6,0.1,0.8c0.3,0.8,0.9,1.3,1.4,1.5c0.6,0.2,1.5,0.2,2.1-0.2
				c0.3-0.3,0.5-0.6,0.6-0.8c0.1-0.2,0.2-0.3,0.2-0.3c0.2-0.1,0.3-0.4,0.5-0.6c0,0,0.1-0.1,0.1-0.2c0.1-0.1,0.3-0.2,0.5-0.3
				c0.6-0.3,0.9-0.6,1.2-0.8l0.1-0.1c0,0,0.1-0.1,0.1-0.1c0,0,0.1-0.1,0.1-0.1c0.6-0.3,0.9-0.5,1.1-0.7l0,0c0.1,0,0.3-0.2,0.5-0.3
				l0.3-0.1c0.1-0.1,0.3-0.2,0.4-0.3c0.1,0.2,0.1,0.7,0.2,1.3c0,0,0,0.2,0,0.8l0,0.1c0,0.1,0,0.3,0,0.6c0,0,0,0.2,0,0.2
				c0,0.1,0,0.2,0,0.3c0,0.3,0,0.5,0,0.8c0,0.1,0,0.1,0,0.2c0,0.2,0,0.4,0,0.6c0,0.1,0,0.2,0,0.3c0,0.2,0,0.3,0,0.5
				c0,0.1,0,0.2,0,0.3c0,0.1,0,0.2,0,0.2l0,0.1c0,0,0,0,0,0.1c0,0.3,0,0.5,0,0.7l0,0.2l0,0.1c0,0.4,0,0.5,0,0.6c0,0,0,0.1,0,0.1
				c0,0.2-0.1,0.3-0.1,0.4c0,0,0,0.1,0,0.1c0,0.2,0,0.4,0,0.6c0,0.1,0,0.2,0,0.3c0,0.1-0.1,0.3-0.1,0.5c-0.1,0.3-0.2,0.7-0.2,1.2
				c0,0.1,0,0.2,0,0.3c0,0.4,0.1,0.7,0.2,1c0,0.1,0.1,0.4,0.1,0.6l0,0l0,0c0,0.1,0.1,0.5,0.2,0.7c0,0,0,0.1,0,0.2c0,0.1,0,0.2,0,0.2
				l0,0.1c0,0.1,0,0.3,0.1,0.7c0,0,0,0.1,0,0.1c0,0,0,0.1,0,0.1c0,0.1,0,0.2,0,0.3c0,0.1,0,0.2,0,0.2c0,0.3,0.2,1.1,0.8,1.5
				c0.4,0.2,0.7,0.3,1,0.3c0.1,0,0.1,0,0.1,0c0.7,0.2,1.6,0.1,2-0.1c0.3-0.1,0.5-0.3,0.7-0.5c0,0,0,0,0,0l0.1-0.1
				c0.1-0.1,0.2-0.2,0.3-0.3c0.1-0.2,0.2-0.5,0.3-0.9c0-0.2,0.1-0.3,0.1-0.4c0.1-0.2,0.1-0.4,0.1-0.6c0-0.5-0.2-1.1-0.2-1.1
				c0-0.1-0.3-0.8-0.4-1c0-0.1-0.1-0.4-0.1-0.6l0-0.3l-0.1-0.4c0,0,0-0.2-0.1-0.2c0,0,0-0.1,0-0.1c0-0.1,0-0.1,0-0.2
				c0-0.1,0-0.2,0-0.3c0-0.2,0-0.3,0-0.5c0-0.3,0-0.7,0.1-1l0,0l0,0c0-0.2,0-0.4,0-0.5c0,0,0-0.1,0-0.1l0,0c0-0.3,0-0.7,0.1-1.1l0,0
				c0,0,0-0.6,0-0.6c0,0,0,0,0-0.1c0-0.1,0-0.2,0-0.2c0-0.1,0-0.2,0-0.2c0,0,0,0,0-0.1c0,0,0-0.1,0-0.2c0-0.1,0-0.3-0.1-0.5
				c0,0,0,0,0,0c0,0,0,0,0,0c0-0.1,0-0.4,0-0.6c0-0.3,0-0.5,0-0.7c0-0.1,0-0.1,0-0.2c0,0,0-0.3,0-0.3c0-0.2-0.1-0.6-0.1-0.9
				c0-0.2,0-0.5,0-0.6c0,0,0-0.1,0-0.1c0-0.1,0-0.1,0-0.2c0-0.1,0-0.3,0-0.5l0-0.7c0,0,0,0,0,0c0-0.2-0.1-1.3-0.1-1.5
				c0-0.1,0-0.3,0-0.4c0-0.1,0-0.2,0-0.3c0-0.3,0-0.5,0.1-0.7c0-0.1,0-0.2,0-0.3c0.1-0.1,0.2-0.1,0.3-0.2c0.5-0.1,0.8-0.2,1-0.4
				c0.2-0.2,0.4-0.2,0.6-0.3l0,0c0.3-0.1,0.5-0.3,0.7-0.4c0,0,0,0,0,0c0.1,0,0.5-0.3,0.5-0.3l0.2-0.2c0.1,0,0.1-0.1,0.1-0.1
				c0.1,0,0.3-0.1,0.4-0.2c0.1,0,0.1-0.1,0.2-0.1l0.1,0c0.2-0.1,0.3-0.1,0.4-0.2l0,0c0.5-0.3,1.3-1.2,1.3-2.2c0-0.1,0-0.3,0-0.4
				c-0.1-0.3-0.3-0.6-0.4-0.8L58.9,16c-0.5-0.7-1.2-0.7-1.4-0.7c0,0-0.1,0-0.2,0C57,15.2,56.8,15.2,56.6,15.3z M48.4,18.6
				C48.4,18.6,48.4,18.7,48.4,18.6C48.4,18.7,48.4,18.6,48.4,18.6z"/>
		</g>
		<g id="XMLID_3840_">
			<path class="st4" d="M58.7,17c-0.1-0.3-0.3-0.5-0.4-0.6C58,16,57.7,16,57.5,16c-0.2,0-0.6-0.1-0.7,0c-0.2,0.1-0.6,0.3-0.8,0.4
				c-0.1,0.1-0.5,0.4-0.6,0.5c-0.1,0.1-0.3,0.5-0.5,0.6c-0.2,0.1-0.6,0.3-0.8,0.5c-0.1,0-0.4,0.1-0.6,0.1c-0.1,0-0.6,0.3-0.7,0.3
				c-0.1,0-0.4,0.1-0.5,0.2c-0.1,0-0.3,0.2-0.3,0.2c-0.2,0-0.5,0.1-0.7,0c-0.1,0-0.8-0.4-1.3-0.3c-0.2,0-0.4,0.1-0.5,0.2
				c-0.1,0-0.4,0.1-0.4,0.3c-0.1,0.1-0.2,0.1-0.2,0.2c-0.1,0.3-0.2,0.6-0.2,0.7c0,0.2,0,0.5,0.1,0.7c0.1,0.6-0.1,0.8-0.5,1
				c-0.1,0-0.4,0.3-0.5,0.3c-0.1,0-0.5,0.2-0.6,0.2c-0.4,0.2-0.8,0.4-0.9,0.4c-0.4,0.4-1,0.7-1,0.7c-0.2,0.1-0.5,0.3-1,0.6
				c-0.3,0.1-0.6,0.5-0.7,0.5c-0.1,0-0.4,0.2-0.5,0.3c-0.1,0-0.4,0.3-0.5,0.3c-0.2,0.1-0.5,0.2-0.8,0.3c-0.5,0.1-0.9,0.3-1.2,0.6
				c-0.5,0.5-0.7,1.3-0.4,1.9c0.2,0.6,0.8,1,1,1.1c0.4,0.2,1.1,0.1,1.4-0.1c0.2-0.2,0.3-0.4,0.4-0.6c0-0.1,0.2-0.3,0.3-0.5
				c0.2-0.2,0.5-0.7,0.6-0.8c0.2-0.2,0.4-0.3,0.7-0.5c0.6-0.3,0.9-0.6,1.1-0.8c0.1-0.1,0.2-0.2,0.4-0.3c0.5-0.3,0.8-0.5,1-0.6
				c0.1-0.1,0.6-0.3,0.8-0.4c0.2-0.1,0.5-0.4,0.6-0.4c0.1-0.1,0.4-0.1,0.5,0c0.1,0.1,0.3,0.4,0.5,2.1c0,0.1,0,0.8,0,0.9
				c0,0.2,0.1,0.7,0.1,0.8c0,0.3,0,0.7,0,1.1c0,0,0,0.3,0,0.7c0,0.2,0,0.7,0,0.9c0,0.2,0,0.4,0,0.5c0,0.4-0.1,0.9-0.1,1
				c0,0.1,0,0.6,0,0.8c0,0-0.1,0.3-0.1,0.4c0,0.2,0.1,0.9,0.1,1c0,0.2-0.1,0.4-0.1,0.6c-0.1,0.4-0.2,0.8-0.2,1.3
				c0,0.3,0.1,0.6,0.2,0.9c0,0,0.1,0.4,0.2,0.6c0,0,0.1,0.5,0.2,0.8c0,0.2,0,0.6,0,0.7c0,0.2,0.1,0.7,0.1,0.8c0,0.1,0,0.4,0,0.5
				c0,0.3,0.2,0.8,0.5,1c0.4,0.2,0.7,0.2,1,0.3c0.6,0.2,1.2,0.1,1.6-0.1c0.1,0,0.3-0.1,0.3-0.3c0.1-0.1,0.2-0.2,0.3-0.4
				c0.1-0.2,0.3-0.9,0.4-1.2c0.1-0.3,0-1-0.1-1.2c0-0.1-0.3-0.8-0.4-1c-0.1-0.2-0.1-0.9-0.2-1c0-0.1-0.1-0.6-0.2-0.6
				c0-0.1,0-0.5,0-0.6c-0.1-0.6,0-1.2,0-1.7c0,0,0-0.6,0-0.6c0-0.3,0-0.7,0.1-1.1c0-0.2,0-0.5,0-0.7c0-0.1-0.1-0.4,0-0.7
				c0-0.1-0.1-0.5-0.1-0.5c0-0.2,0.1-1.2,0-1.4c0-0.1-0.1-0.6-0.2-1.1c0,0,0-0.6,0-0.8c0-0.2,0-0.8,0-1.4c0-0.2-0.1-1.3-0.1-1.4
				c0-0.2-0.1-0.6,0-1c0.1-0.6,0-0.7,0.1-1c0.1-0.4,0.7-0.6,0.7-0.7c0.1,0,0.6-0.1,0.8-0.2c0.3-0.3,0.7-0.4,0.8-0.4
				c0.3-0.1,0.4-0.3,0.5-0.3c0.1-0.1,0.5-0.3,0.6-0.3c0.1-0.1,0.2-0.2,0.5-0.3c0.1,0,0.3-0.2,0.5-0.2c0.1,0,0.4-0.1,0.4-0.1
				C58.2,18.6,58.8,17.8,58.7,17z"/>
		</g>
		<g id="XMLID_3839_">
			<path class="st2" d="M71,13c-0.8,0.1-1.4,0.5-1.7,0.8c0,0-0.8,0.7-1,1c0,0-0.2,0.2-0.2,0.2l-0.1,0.2c0,0-0.4,0.5-0.4,0.5l0,0
				c0,0-0.5,0.6-0.5,0.6c0,0,0,0,0,0c0,0-0.2,0.2-0.3,0.3c-0.4,0.4-0.5,0.5-0.6,0.6c0,0-0.1,0.1-0.1,0.1c-0.4,0.6-0.7,0.9-0.8,1l0,0
				c-0.1,0.1-0.5,0.6-0.6,0.8c-0.2,0.2-0.4,0.5-0.4,0.6c-0.1,0.1-0.2,0.2-0.2,0.3l0,0l-0.7,0.9l0,0c-0.2,0.3-0.4,0.6-0.5,0.8
				c0,0,0,0.1,0,0.1c-0.2,0.6-0.4,0.7-0.4,0.8c-0.3,0.3-0.4,0.8-0.5,1.1c0,0-0.1,0.2-0.1,0.3c-0.1,0.2-0.2,0.5-0.3,0.6
				c-0.5,0.8-0.6,0.9-0.6,0.9c-0.1,0.1-0.2,0.3-0.3,0.4c0,0,0,0,0,0c-0.3,0.4-0.4,0.6-0.5,0.8l0,0l0,0c-0.1,0.2-0.2,0.4-0.2,0.5l0,0
				c-0.1,0.1-0.2,0.3-0.2,0.4c-0.1,0.4-0.2,0.7-0.3,0.8c-0.1-0.1-0.1-0.2-0.2-0.5c0-0.2-0.1-0.7-0.1-0.9l0,0c0-0.2,0-0.4,0-0.6
				L59,25.6c0-0.3-0.1-1.3-0.1-1.3c-0.1-1-0.1-1.7-1-2.3c-0.3-0.2-0.6-0.2-0.9-0.2l0,0l0,0c-0.4,0-0.9,0-1.2,0.1
				c-0.1,0-0.3,0.1-0.6,0.3L55,22.2c-0.3,0.2-0.7,0.4-0.9,0.8c-0.2,0.3-0.2,0.8-0.2,1.2c0,0.5,0.1,1,0.1,1.5c0,0.1,0.1,0.3,0.5,1.4
				c0,0.1,0.3,1,0.4,1.3l0.3,1.1l0,0c0.1,0.3,0.3,0.8,0.3,1.1c0.1,0.4,0.2,0.7,0.3,1.1c0,0,0,0,0,0c0.1,0.3,0.2,0.6,0.2,1
				c0,0,0.1,0.3,0.1,0.3l0.1,0.4l0,0c0,0.2,0.2,0.7,0.3,0.9c0,0,0,0,0,0c0.1,0.1,0.1,0.3,0.1,0.4c0.2,0.6,0.3,1,0.6,1.5
				c0.2,0.4,0.3,0.6,0.4,0.8c0.5,0.7,1,1.2,2.1,1.2c0.5,0,1.1-0.1,1.5-0.4c0.4-0.3,0.6-0.7,0.6-0.8c0.3-0.4,0.5-1,0.6-1.5
				c0-0.2,0-0.4,0-0.6c0-0.1,0-0.3,0-0.4c0-0.1,0-0.2,0-0.4c0-0.1,0-0.2,0-0.3c0-0.2,0.1-0.7,0.3-1.1c0,0,0,0,0,0
				c0.1-0.2,0.2-0.4,0.2-0.6c0.1-0.2,0.2-0.4,0.3-0.7l0.2-0.4c0.1-0.2,0.7-1.2,0.8-1.3l0.2-0.2l0,0l0.7-1.2l0,0
				c0.1-0.1,0.2-0.4,0.3-0.6c0-0.1,0.1-0.2,0.1-0.3c0,0,0.1-0.1,0.1-0.1c0.2-0.3,0.4-0.4,0.5-0.6c0,0,0,0,0,0l0.1-0.2
				c0.2-0.3,0.3-0.5,0.3-0.6c0.1-0.2,0.2-0.5,0.3-0.6c0.1-0.1,0.1-0.2,0.2-0.3c0.1-0.2,0.2-0.4,0.3-0.6c0.1-0.1,0.3-0.4,0.5-0.7
				c0.1-0.2,0.3-0.5,0.4-0.5c0.3-0.3,0.5-0.7,0.7-1c0,0,0.1-0.2,0.2-0.3c0.3-0.4,0.5-0.6,0.6-0.9c0.1-0.1,0.2-0.2,0.4-0.4l0.2-0.1
				c0.1-0.1,0.2-0.2,0.3-0.3c0.1-0.2,0.2-0.3,0.5-0.4c0.1-0.1,0.7-0.4,0.8-0.4c0.2-0.1,0.6-0.3,0.9-0.5c0.4-0.3,0.7-0.8,0.8-1
				c0.2-0.4,0.4-1,0.4-1.3c0.1-0.4,0.1-0.6,0.1-1c0-0.1,0-0.2,0-0.2c0-0.7-0.5-1.5-1.2-1.9C72.6,13.1,71.8,12.9,71,13z"/>
		</g>
		<g id="XMLID_3838_">
			<path class="st4" d="M64.7,27.9c0-0.1,0.2-0.4,0.2-0.5c0.1-0.2,0.1-0.3,0.2-0.4c0-0.1,0.4-0.5,0.5-0.6c0-0.1,0.3-0.6,0.4-0.8
				c0.1-0.4,0.5-0.9,0.5-1c0.1-0.2,0.2-0.5,0.4-0.8c0.1-0.1,0.2-0.3,0.4-0.6c0.2-0.3,0.3-0.5,0.5-0.7c0.2-0.2,0.4-0.6,0.6-0.8
				c0.1-0.2,0.7-0.8,0.8-1.1c0.2-0.5,0.8-0.7,0.8-0.7c0.1-0.1,0.2-0.2,0.3-0.3c0.2-0.2,0.3-0.4,0.6-0.5c0.2-0.1,0.8-0.4,0.9-0.4
				c0.1-0.1,0.5-0.2,0.7-0.4c0.2-0.2,0.5-0.6,0.6-0.8c0.2-0.3,0.3-0.9,0.4-1.1c0.1-0.5,0.1-0.6,0.1-1.1c0-0.5-0.4-1.1-0.9-1.4
				c-0.3-0.2-1-0.3-1.6-0.3c-0.6,0-0.9,0.3-1.3,0.6c0,0-0.8,0.7-0.9,0.9c0,0.1-0.2,0.3-0.3,0.4c-0.1,0.2-0.3,0.4-0.4,0.5
				c-0.1,0.2-0.3,0.4-0.4,0.6c0,0-0.1,0.1-0.4,0.4c-0.2,0.2-0.5,0.5-0.5,0.5c-0.1,0.1-0.8,1.1-0.9,1.2c-0.1,0.1-0.4,0.5-0.5,0.7
				c-0.2,0.3-0.4,0.6-0.5,0.7c-0.1,0.1-0.2,0.2-0.3,0.3L64,21.3c-0.2,0.3-0.4,0.6-0.4,0.7c0,0-0.3,0.7-0.5,1
				c-0.2,0.2-0.3,0.6-0.3,0.8c0,0-0.1,0.3-0.2,0.4c-0.1,0.2-0.3,0.7-0.3,0.7s-0.6,0.9-0.6,0.9c-0.1,0.1-0.2,0.3-0.3,0.5
				c-0.1,0.2-0.4,0.5-0.4,0.6c-0.1,0.4-0.2,0.6-0.4,0.8c0,0.1-0.1,0.1-0.1,0.2c-0.1,0.6-0.4,1.2-0.8,1.4c-0.1,0.1-0.3,0.1-0.4,0
				c-0.5-0.2-0.6-0.6-0.7-1c0,0-0.1-0.7-0.1-1.1c0-0.2,0-0.4,0-0.6c0-0.3-0.1-0.6-0.1-0.8c0-0.4-0.1-1.3-0.1-1.3
				c-0.1-0.9-0.1-1.4-0.7-1.8c-0.2-0.1-0.6-0.1-0.6-0.1c-0.3,0-0.7,0-1,0.1c-0.1,0-0.5,0.3-0.5,0.3c-0.2,0.1-0.5,0.3-0.6,0.5
				c-0.2,0.4-0.2,1.2,0,2.3c0,0.1,0.3,0.9,0.5,1.3c0,0,0.3,1,0.4,1.4c0.1,0.3,0.3,1,0.3,1c0.1,0.4,0.3,0.9,0.4,1.2
				c0.1,0.3,0.1,0.7,0.2,1c0.1,0.3,0.2,0.7,0.3,1c0,0.1,0.2,0.7,0.2,0.7c0,0.1,0.2,0.6,0.2,0.8c0.1,0.2,0.1,0.3,0.2,0.5
				c0.1,0.5,0.3,0.9,0.5,1.3c0.2,0.3,0.3,0.6,0.4,0.7c0.4,0.6,0.7,0.9,1.5,0.9c0.6,0,0.9-0.1,1.1-0.3c0.3-0.2,0.5-0.5,0.5-0.6
				c0.2-0.4,0.4-0.8,0.5-1.2c0-0.2,0-0.5,0-0.8c0-0.3,0-0.5,0-0.8c0-0.2,0.1-0.8,0.3-1.3c0,0,0.2-0.4,0.2-0.6
				c0.1-0.3,0.3-0.6,0.4-0.9c0.1-0.1,0.1-0.2,0.2-0.3c0.1-0.2,0.7-1.2,0.8-1.3c0-0.1,0.1-0.2,0.2-0.2L64.7,27.9z"/>
		</g>
	</g>
</g>
</svg>
