<?xml version="1.0" encoding="utf-8"?>
<!-- Generator: Adobe Illustrator 16.0.0, SVG Export Plug-In . SVG Version: 6.00 Build 0)  -->
<!DOCTYPE svg PUBLIC "-//W3C//DTD SVG 1.1//EN" "http://www.w3.org/Graphics/SVG/1.1/DTD/svg11.dtd">
<svg version="1.1" id="Capa_1" xmlns="http://www.w3.org/2000/svg" xmlns:xlink="http://www.w3.org/1999/xlink" x="0px" y="0px"
	 width="850.391px" height="554.973px" viewBox="0 142.799 850.391 554.973" enable-background="new 0 142.799 850.391 554.973"
	 xml:space="preserve">
<g id="Capa_1_1_" display="none">
	<rect x="0" y="-883.865" display="inline" width="1734.256" height="1734.255"/>
</g>
<g id="Capa_5" display="none">
	<g id="XMLID_1522_" display="inline">
		<polygon id="XMLID_2190_" fill="#FFFFFF" points="1451.893,357.126 1376.177,415.096 1300.462,357.126 1224.745,415.096 
			1149.029,357.126 1149.029,291.119 1224.745,349.089 1300.462,291.119 1376.177,349.089 1451.893,291.119 		"/>
		<polygon id="XMLID_2189_" fill="#FFFFFF" points="1451.893,271.432 1376.177,329.401 1300.462,271.432 1224.745,329.401 
			1149.029,271.432 1149.029,205.424 1224.745,263.395 1300.462,205.424 1376.177,263.395 1451.893,205.424 		"/>
		<g id="XMLID_1253_">
			<g id="XMLID_1281_">
				<path id="XMLID_1332_" fill="#FFFFFF" d="M1250.971,499.39c-2.876,5.271-5.625,10.348-8.411,15.4
					c-1.175,2.131-1.958,5-3.783,6.1c-1.771,1.068-4.649,0.32-7.042,0.33c-4.478,0.018-8.956,0.057-13.431-0.047
					c-0.706-0.016-1.724-0.537-2.047-1.127c-9.453-17.188-18.837-34.412-28.228-51.635c-0.084-0.154-0.102-0.346-0.188-0.662
					c0.538-0.045,1.009-0.117,1.479-0.119c5.802-0.008,11.604,0.031,17.404-0.033c1.241-0.016,1.894,0.369,2.479,1.482
					c5.863,11.123,11.79,22.213,17.701,33.309c0.344,0.646,0.705,1.279,1.188,2.152c2.21-3.869,4.288-7.506,6.364-11.143
					c1.993-3.496,3.939-7.021,6.006-10.475c0.634-1.059,0.592-1.865,0.003-2.898c-1.99-3.498-3.897-7.043-5.827-10.574
					c-0.291-0.531-0.535-1.09-0.891-1.82c6.745,0,13.289-0.037,19.832,0.064c0.567,0.008,1.319,0.818,1.65,1.438
					c5.997,11.193,11.942,22.414,17.9,33.629c0.265,0.498,0.551,0.984,0.966,1.727c0.406-0.703,0.747-1.25,1.049-1.818
					c5.902-11.102,11.818-22.197,17.675-33.322c0.661-1.256,1.372-1.791,2.875-1.766c6.167,0.105,12.336,0.045,18.775,0.045
					c-0.398,0.82-0.66,1.432-0.979,2.01c-9.173,16.699-18.359,33.391-27.51,50.102c-0.584,1.068-1.228,1.531-2.49,1.518
					c-6.306-0.064-12.611-0.07-18.917,0.004c-1.353,0.018-1.994-0.504-2.599-1.639c-3.284-6.156-6.651-12.271-9.99-18.398
					C1251.691,500.677,1251.386,500.138,1250.971,499.39z"/>
				<path id="XMLID_1331_" fill="#FFFFFF" d="M1458.383,467.626c3.906,0,7.683,0,11.459,0c4.918,0,9.837,0.047,14.753-0.031
					c1.339-0.021,2.181,0.424,3.01,1.451c8.941,11.082,17.929,22.125,26.906,33.176c0.233,0.289,0.502,0.555,1.043,1.146
					c0-12.066,0-23.775,0-35.613c6,0,11.759,0,17.622,0c0,17.75,0,35.441,0,53.35c-0.699,0.043-1.361,0.115-2.023,0.115
					c-8.007,0.008-16.015-0.02-24.021,0.031c-1.327,0.01-2.178-0.412-3.016-1.453c-8.85-10.992-17.752-21.939-26.644-32.898
					c-0.354-0.438-0.742-0.846-1.433-1.627c0,12.174,0,23.943,0,35.832c-6.024,0-11.785,0-17.658,0
					C1458.383,503.306,1458.383,485.617,1458.383,467.626z"/>
				<path id="XMLID_1328_" fill="#FFFFFF" d="M1536.519,521.464c0-18.018,0-35.779,0-53.648c0.371-0.064,0.722-0.18,1.073-0.18
					c17.651,0.008,35.305-0.006,52.957,0.086c1.913,0.01,3.881,0.438,5.724,0.996c6.002,1.824,9.39,6.42,9.44,12.824
					c0.069,8.637,0.08,17.275-0.001,25.912c-0.07,7.445-4.817,12.639-12.313,13.582c-2.117,0.266-4.264,0.406-6.396,0.41
					c-16.267,0.031-32.532,0.018-48.798,0.018C1537.71,521.464,1537.215,521.464,1536.519,521.464z M1554.01,506.824
					c0.85,0,1.592,0,2.335,0c7.936,0,15.871,0.002,23.808,0c2.016-0.002,4.033,0.059,6.044-0.043
					c2.745-0.143,2.993-0.459,2.994-3.156c0.002-5.92,0.001-11.84,0.001-17.76c0-3.066-0.331-3.398-3.496-3.4
					c-9.951-0.004-19.902-0.002-29.854,0.004c-0.605,0-1.21,0.059-1.832,0.09C1554.01,490.708,1554.01,498.679,1554.01,506.824z"/>
				<path id="XMLID_1325_" fill="#FFFFFF" d="M1149.522,466.767c7.174,0.305,14.354,0.5,21.52,0.941
					c6.233,0.383,11.4,4.377,12.83,9.723c0.401,1.5,0.59,3.1,0.601,4.654c0.058,8.258-0.045,16.518,0.046,24.775
					c0.096,8.65-5.508,13.643-12.502,14.102c-9.98,0.656-20.004,0.758-30.011,0.842c-5.086,0.041-10.196-0.273-15.261-0.789
					c-6.271-0.637-10.905-4.84-12.065-10.51c-0.212-1.037-0.222-2.129-0.224-3.195c-0.019-8.574,0.105-17.15-0.047-25.723
					c-0.138-7.787,5.77-12.705,11.357-13.453c5.286-0.709,10.654-0.828,15.992-1.102c2.578-0.131,5.168-0.023,7.753-0.023
					C1149.516,466.929,1149.519,466.847,1149.522,466.767z M1149.751,482.156c-1.765,0-3.526-0.006-5.291,0.002
					c-3.398,0.014-6.805-0.07-10.196,0.094c-2.338,0.113-2.723,0.684-2.725,2.906c-0.006,6.172-0.004,12.344-0.001,18.516
					c0.001,2.355,0.289,2.662,2.672,2.861c0.438,0.037,0.882,0.025,1.321,0.025c9.259,0,18.516,0.01,27.772-0.012
					c0.937-0.002,1.963,0.033,2.781-0.328c0.638-0.281,1.438-1.145,1.446-1.76c0.104-6.736,0.054-13.475,0.074-20.213
					c0.004-1.152-0.465-1.773-1.627-1.859c-0.876-0.064-1.751-0.217-2.627-0.221
					C1158.818,482.144,1154.284,482.158,1149.751,482.156z"/>
				<path id="XMLID_1324_" fill="#FFFFFF" d="M1037.18,481.292c-0.789,0-1.473,0-2.155,0c-12.672,0-25.344-0.016-38.016,0.02
					c-1.237,0.006-2.505,0.203-3.704,0.52c-1.31,0.344-1.882,1.395-1.88,2.73c0.002,1.371,0.686,2.332,2.008,2.607
					c1.407,0.293,2.856,0.5,4.292,0.523c9.257,0.15,18.516,0.199,27.771,0.365c8.477,0.152,13.225,4.871,13.647,13.818
					c0.146,3.107-0.081,6.314-0.706,9.357c-1.189,5.795-4.923,9.035-10.746,9.807c-1.99,0.262-4.011,0.396-6.018,0.404
					c-11.728,0.035-23.454,0.117-35.179-0.039c-3.796-0.051-7.552-1.012-10.075-4.223c-2.131-2.709-1.814-5.986-1.616-9.387
					c0.835,0,1.576,0,2.316,0c12.735,0,25.471,0.02,38.204-0.029c1.292-0.006,2.611-0.313,3.866-0.662
					c1.386-0.385,1.945-1.43,1.893-2.889c-0.054-1.461-0.861-2.271-2.157-2.438c-2.175-0.283-4.372-0.457-6.564-0.523
					c-8.501-0.254-17.006-0.365-25.504-0.688c-8.173-0.311-13.061-5.039-13.384-13.332c-0.146-3.717,0.261-7.574,1.163-11.182
					c1.288-5.146,5.375-8.266,10.654-8.316c13.614-0.137,27.253-0.471,40.841,0.164
					C1032.904,468.218,1038.233,472.255,1037.18,481.292z"/>
				<path id="XMLID_1323_" fill="#FFFFFF" d="M1092.65,502.482c-10.669,0-21.097,0-31.726,0c0,6.338,0,12.551,0,18.869
					c-6.229,0-12.258,0-18.436,0c0-17.809,0-35.615,0-53.574c6.051,0,12.118,0,18.413,0c0,2.217,0,4.402,0,6.588
					c0,3.404,0.005,6.811-0.002,10.217c-0.001,0.793-0.035,1.529,1.117,1.525c10.026-0.031,20.052-0.039,30.078-0.063
					c0.109,0,0.22-0.105,0.464-0.23c0-5.902,0-11.875,0-18.018c6.203,0,12.275,0,18.505,0c0,17.746,0,35.555,0,53.516
					c-6.013,0-12.093,0-18.415,0C1092.65,515.087,1092.65,508.824,1092.65,502.482z"/>
				<path id="XMLID_1322_" fill="#FFFFFF" d="M1406.033,512.722c2.561-4.541,4.901-8.756,7.333-12.918
					c0.23-0.395,1.022-0.629,1.563-0.645c2.383-0.068,4.769-0.029,7.545-0.029c-2.644-4.873-5.137-9.471-7.813-14.406
					c-0.466,0.824-0.799,1.385-1.104,1.957c-5.844,10.988-11.697,21.975-17.508,32.98c-0.553,1.047-1.164,1.666-2.422,1.658
					c-6.363-0.031-12.727-0.016-19.236-0.016c0.191-0.457,0.337-0.914,0.563-1.328c9.311-16.98,18.639-33.951,27.918-50.947
					c0.604-1.109,1.304-1.443,2.521-1.432c6.305,0.061,12.611,0.053,18.917,0.006c1.12-0.008,1.819,0.246,2.396,1.314
					c9.186,17.049,18.416,34.072,27.635,51.104c0.203,0.377,0.377,0.77,0.705,1.443c-2.153,0-4.072,0-5.991,0
					c-4.414,0-8.828-0.035-13.241,0.023c-1.084,0.014-1.724-0.297-2.206-1.295c-1.013-2.092-2.194-4.102-3.202-6.195
					c-0.479-0.998-1.113-1.305-2.195-1.299C1420.96,512.744,1413.712,512.722,1406.033,512.722z"/>
				<path id="XMLID_1282_" fill="#FFFFFF" d="M1370.953,521.404c-17.736,0-35.316,0-53.049,0c0-17.865,0-35.719,0-53.676
					c6.058,0,12.083,0,18.295,0c0,12.832,0,25.66,0,38.752c11.668,0,23.154,0,34.755,0
					C1370.953,511.56,1370.953,516.38,1370.953,521.404z"/>
			</g>
			<g id="XMLID_1261_">
				<path id="XMLID_1280_" fill="#FFFFFF" d="M1049.965,571.166c2.212,0.762,4.163,1.689,6.217,2.084
					c3.837,0.734,7.187-1.012,9.026-4.342c2.144-3.877,1.761-8.828-0.932-12.045c-2.352-2.813-6.577-4.09-9.916-2.859
					c-3.972,1.463-6.139,4.557-6.271,8.617c-0.276,8.498-0.188,17.006-0.246,25.51c-0.006,0.742-0.001,1.484-0.001,2.332
					c-1.744,0-3.286,0-4.985,0c-0.042-0.547-0.119-1.088-0.12-1.629c-0.008-8.445-0.029-16.891,0.001-25.334
					c0.038-10.373,8.742-16.936,18.743-14.168c6.022,1.664,10.225,7.447,10.218,14.063c-0.007,8.375-4.74,13.867-12.943,14.873
					c-2.737,0.336-5.399-0.201-7.825-1.539c-0.469-0.258-0.865-1.012-0.923-1.574
					C1049.871,573.847,1049.965,572.515,1049.965,571.166z"/>
				<path id="XMLID_1279_" fill="#FFFFFF" d="M1192.494,536.298c1.817,0,3.311,0,4.913,0c0.056,0.563,0.143,1.045,0.144,1.525
					c0.009,8.818,0.128,17.639-0.035,26.453c-0.109,5.9-2.989,10.457-8.334,12.895c-5.365,2.449-10.794,1.912-15.394-1.977
					c-4.502-3.807-5.947-8.959-4.904-14.656c1.03-5.631,4.279-9.604,9.908-11.227c3.495-1.008,6.98-0.488,10.313,0.865
					c0.499,0.201,1.059,0.9,1.115,1.422c0.152,1.422,0.053,2.869,0.053,4.305c-1.931-0.664-3.705-1.553-5.576-1.871
					c-7.06-1.199-12.268,4.318-10.938,11.43c0.934,4.998,4.519,8.094,9.398,8.121c4.369,0.025,8.006-3.174,8.93-7.959
					c0.261-1.35,0.384-2.746,0.391-4.123c0.036-7.684,0.018-15.367,0.018-23.051
					C1192.494,537.773,1192.494,537.097,1192.494,536.298z"/>
				<path id="XMLID_1278_" fill="#FFFFFF" d="M1488.223,557.753c-6.393,3.551-12.646,7.025-19.1,10.609
					c-0.729-1.314-1.441-2.598-2.296-4.133c4.695-2.607,9.324-5.178,13.968-7.754c-1.986-2.734-5.942-3.623-9.612-2.26
					c-3.922,1.459-6.419,5.881-5.958,10.551c0.406,4.111,3.547,7.803,7.23,8.445c2.818,0.492,5.81,0.48,7.836-1.572
					c1.854-1.877,2.945-4.502,4.553-7.086c1.143,0.176,2.779,0.426,4.396,0.674c-0.718,7.477-6.661,12.9-14.265,13.262
					c-7.065,0.334-13.967-4.91-14.961-11.783c-1.192-8.24,2.51-14.709,9.644-17.176
					C1477.234,546.912,1484.391,550.068,1488.223,557.753z"/>
				<path id="XMLID_1275_" fill="#FFFFFF" d="M1120.669,563.726c0.134-8.369,6.926-15.164,15.013-15.02
					c8.364,0.15,14.915,6.693,14.749,14.729c-0.172,8.355-6.735,15.18-14.378,14.949
					C1127.343,578.123,1120.542,571.642,1120.669,563.726z M1144.893,563.494c0.29-6.42-4.829-10.535-10.409-9.791
					c-5.954,0.795-9.455,6.191-8.024,12.221c1.586,6.684,6.686,8.586,12.514,7.006
					C1142.872,571.871,1144.83,568.537,1144.893,563.494z"/>
				<path id="XMLID_1271_" fill="#FFFFFF" d="M1381.967,548.707c8.445-0.025,15.145,6.428,15.129,14.578
					c-0.016,8.225-6.577,15.268-14.253,15.092c-9.279-0.213-15.327-6.412-15.489-14.316
					C1367.145,553.933,1375.249,548.875,1381.967,548.707z M1391.479,564.224c0.127-4.656-1.317-7.775-4.905-9.564
					c-3.422-1.705-6.868-1.459-9.966,0.799c-3.921,2.859-4.923,8.6-2.496,13.285c2.081,4.02,6.753,5.734,11.499,4.225
					C1389.478,571.738,1391.446,568.56,1391.479,564.224z"/>
				<path id="XMLID_1270_" fill="#FFFFFF" d="M1507.594,577.677c0-1.598,0-3.072,0-4.725c4.757,0,9.401,0.008,14.048-0.008
					c0.682-0.002,1.396,0.004,2.038-0.189c1.975-0.596,2.526-2.818,0.915-4.107c-1.045-0.836-2.383-1.357-3.657-1.846
					c-3.158-1.205-6.414-2.174-9.517-3.506c-2.245-0.963-3.688-2.783-3.892-5.379c-0.409-5.207,2.271-8.195,8.021-8.457
					c4.524-0.207,9.066-0.041,13.76-0.041c0,1.59,0,3.119,0,4.912c-2.85,0-5.724,0-8.598,0c-1.575,0-3.15,0.004-4.727-0.002
					c-1.451-0.004-2.688,0.457-3.063,1.965c-0.376,1.514,0.715,2.387,1.892,2.898c1.486,0.645,3.078,1.045,4.619,1.563
					c2.135,0.721,4.354,1.266,6.378,2.219c3.979,1.877,5.468,4.816,4.81,8.844c-0.521,3.17-2.842,5.496-6.962,5.771
					C1518.351,577.949,1512.997,577.677,1507.594,577.677z"/>
				<path id="XMLID_1269_" fill="#FFFFFF" d="M1421.51,577.695c-1.868,0-3.429,0-5.009,0c-0.09-0.18-0.241-0.338-0.24-0.5
					c0.021-6.041-0.2-12.098,0.158-18.119c0.363-6.139,6.1-10.625,12.634-10.436c6.1,0.18,11.358,5.098,11.52,11.07
					c0.159,5.914,0.035,11.834,0.035,17.904c-1.645,0-3.242,0-5.064,0c-0.027-0.615-0.082-1.281-0.082-1.947
					c-0.009-4.66-0.029-9.32,0.006-13.98c0.019-2.438-0.561-4.635-2.409-6.307c-2.093-1.893-4.573-2.436-7.174-1.33
					c-2.78,1.182-4.331,3.4-4.358,6.482c-0.046,4.975-0.014,9.949-0.015,14.924C1421.51,576.142,1421.51,576.828,1421.51,577.695z"
					/>
				<path id="XMLID_1267_" fill="#FFFFFF" d="M1236.421,549.468c1.83,0,3.438,0,5.258,0c0,5.348,0.021,10.619-0.016,15.895
					c-0.009,1.188-0.121,2.389-0.334,3.557c-1.036,5.678-6.428,9.854-12.14,9.457c-6.944-0.482-11.583-4.818-11.707-11.168
					c-0.114-5.852-0.022-11.705-0.022-17.691c1.621,0,3.162,0,4.985,0c0,1.201,0,2.436,0,3.666c0,4.225-0.056,8.447,0.016,12.668
					c0.084,4.99,4.014,8.342,8.538,7.385c2.98-0.631,5.396-3.752,5.413-7.104C1236.44,560.652,1236.421,555.173,1236.421,549.468z"
					/>
				<path id="XMLID_1266_" fill="#FFFFFF" d="M1318.675,572.843c0,1.709,0,3.189,0,4.658c-9.506,1.543-16.775-2.578-18.865-10.82
					c-2.078-8.191,4.237-16.83,12.664-17.262c2.004-0.104,4.019-0.016,6.163-0.016c0,1.582,0,3.059,0,4.912
					c-1.602,0-3.212-0.061-4.816,0.012c-4.4,0.195-7.864,3.221-8.684,7.516c-1.076,5.641,3.013,10.779,8.775,10.99
					C1315.468,572.892,1317.025,572.843,1318.675,572.843z"/>
				<path id="XMLID_1265_" fill="#FFFFFF" d="M1280.896,549.404c0,1.711,0,3.141,0,4.9c-1.623,0-3.177-0.076-4.722,0.016
					c-3.672,0.219-6.527,1.885-8.123,5.238c-1.625,3.42-1.183,6.758,1.111,9.762c1.743,2.283,4.158,3.398,7.013,3.514
					c1.503,0.059,3.011,0.01,4.656,0.01c0,1.652,0,3.178,0,4.697c-9.243,1.654-16.767-2.723-18.818-10.904
					c-2.054-8.189,4.296-16.813,12.72-17.219C1276.731,549.322,1278.739,549.404,1280.896,549.404z"/>
				<path id="XMLID_1264_" fill="#FFFFFF" d="M1090.885,549.462c1.618,0,3.105,0,4.714,0c0.044,0.867,0.084,1.66,0.121,2.396
					c1.338-0.854,2.588-1.928,4.037-2.492c1.406-0.551,3.019-0.582,4.751-0.877c0,1.861,0,3.389,0,4.9
					c-0.073,0.047-0.123,0.109-0.173,0.107c-6.188-0.082-8.188,4.088-8.481,9.744c-0.212,4.076-0.041,8.174-0.041,12.262
					c0,0.678,0,1.357,0,2.148c-1.716,0-3.256,0-4.928,0C1090.885,568.308,1090.885,558.976,1090.885,549.462z"/>
				<path id="XMLID_1263_" fill="#FFFFFF" d="M1345.201,577.701c-1.649,0-3.146,0-4.788,0c0-9.406,0-18.746,0-28.203
					c1.564,0,3.109,0,4.788,0C1345.201,558.845,1345.201,568.191,1345.201,577.701z"/>
				<path id="XMLID_1262_" fill="#FFFFFF" d="M1342.995,546c-1.746,0.016-3.322-1.518-3.279-3.189
					c0.042-1.607,1.401-2.959,3.029-3.012c1.789-0.055,3.282,1.412,3.232,3.18C1345.93,544.658,1344.618,545.986,1342.995,546z"/>
			</g>
			<g id="XMLID_1254_">
				<path id="XMLID_1258_" fill="#FFFFFF" d="M1612.747,449.759c5.51,0.002,9.97,4.482,9.938,9.998
					c-0.031,5.445-4.465,9.916-10.016,9.875c-5.466-0.039-9.859-4.477-9.86-9.934
					C1602.808,454.187,1607.277,449.757,1612.747,449.759z M1612.749,468.931c5.106-0.004,9.234-4.137,9.232-9.24
					c-0.001-5.082-4.12-9.23-9.241-9.23c-5.133,0.002-9.274,4.193-9.229,9.322C1603.554,464.798,1607.639,468.931,1612.749,468.931z
					"/>
				<path id="XMLID_1255_" fill="#FFFFFF" d="M1608.071,453.878c0.027,0,0.053,0,0.077,0c1.464,0,2.928,0,4.392,0
					c0.531,0,1.062,0.037,1.584,0.133c0.424,0.076,0.836,0.193,1.221,0.393c0.671,0.348,1.095,0.889,1.272,1.623
					c0.119,0.484,0.136,0.977,0.071,1.467c-0.074,0.572-0.29,1.084-0.696,1.506c-0.25,0.258-0.541,0.457-0.866,0.604
					c-0.16,0.072-0.327,0.131-0.49,0.195c-0.014,0.004-0.025,0.012-0.048,0.021c0.086,0.027,0.163,0.049,0.236,0.076
					c0.4,0.146,0.716,0.41,0.984,0.732c0.29,0.348,0.519,0.736,0.72,1.139c0.399,0.803,0.795,1.605,1.191,2.408
					c0.135,0.273,0.27,0.547,0.404,0.822c0.004,0.01,0.008,0.02,0.015,0.037c-0.031,0-0.055,0-0.079,0c-0.967,0-1.934,0-2.898,0.002
					c-0.062,0-0.09-0.021-0.115-0.072c-0.332-0.684-0.667-1.365-1.002-2.047c-0.132-0.268-0.262-0.537-0.397-0.805
					c-0.127-0.246-0.274-0.48-0.451-0.699c-0.273-0.338-0.629-0.527-1.056-0.576c-0.219-0.023-0.439-0.02-0.661-0.023
					c-0.176-0.004-0.352-0.002-0.535-0.002c0,1.408,0,2.813,0,4.219c-0.96,0-1.913,0-2.871,0
					C1608.071,461.318,1608.071,457.603,1608.071,453.878z M1610.944,455.96c-0.002,0.023-0.004,0.041-0.004,0.057
					c0,0.916,0.001,1.83-0.001,2.746c0,0.055,0.016,0.068,0.068,0.066c0.396-0.002,0.794,0,1.19-0.002
					c0.269,0,0.533-0.025,0.793-0.102c0.423-0.121,0.697-0.387,0.799-0.82c0.084-0.361,0.084-0.725-0.01-1.082
					c-0.095-0.361-0.322-0.605-0.675-0.73c-0.27-0.096-0.548-0.131-0.831-0.133c-0.425-0.002-0.85,0-1.274,0
					C1610.984,455.96,1610.969,455.96,1610.944,455.96z"/>
			</g>
		</g>
	</g>
</g>
<g id="Capa_2" display="none">
	<g id="XMLID_566_" display="inline">
		<g id="XMLID_311_">
			<path id="XMLID_321_" fill="#FFFFFF" d="M224.585-503.931c-11.434-3.603-25.082,7.192-25.082,7.192l2.029-5.902h-18.258
				l-25.635,60.124c-30.984,0-71.928,49.058-36.148,51.271s54.959-50.902,54.959-50.902c2.213,7.009,11.435,9.222,11.435,9.222
				c25.267,3.136,39.5-26.454,44.631-37.623C238.786-484.197,238.048-499.689,224.585-503.931z M127.567-405.461
				c-16.158-0.697,14.542-25.99,26.014-25.99C153.581-431.451,143.725-404.763,127.567-405.461z M213.52-467.045
				c0,0-8.115,19.918-23.238,19.918c-14.386,0-3.873-22.869-3.873-22.869s10.881-23.976,26.004-23.976
				C225.151-493.972,213.52-467.045,213.52-467.045z"/>
			<path id="XMLID_318_" fill="#FFFFFF" d="M346.614-479.648c-12.787,0-23.176,11.68-23.176,11.68l19.918-46.106h-15.86
				c0,0-21.763,50.533-26.004,59.386c-4.242,8.852-23.053,28.032-23.053,28.032c-5.533-0.185-1.477-9.037-1.477-9.037l17.336-40.205
				l-16.045,0.922c-1.105,4.426-24.713,50.717-35.594,50.717s14.938-49.057,14.938-49.057L241-472.209
				c0,0-4.242,11.988-11.435,28.586c-7.193,16.598-16.604,43.337-4.979,43.34c18.504,0.005,31.168-22.5,31.168-22.5
				s-11.064,23.054,1.106,22.5c12.172-0.554,31.537-26.004,31.537-26.004l-9.037,22.685h15.676l5.35-13.095
				c-0.554,2.951,4.795,11.25,12.172,11.25s28.402-12.726,37.746-31.905C359.647-456.533,359.401-479.648,346.614-479.648z
				 M332.614-440.145c-6.672,12.453-15.545,20.691-19.819,18.401s-2.33-14.241,4.342-26.694s15.546-20.691,19.819-18.401
				C341.23-464.549,339.287-452.597,332.614-440.145z"/>
			<path id="XMLID_317_" fill="#FFFFFF" d="M389.863-519.583l15.984-0.983l-33.197,76.722c0,0-3.197,8.605,0,8.853
				c3.196,0.246,31.721-26.804,37.623-50.41l15.738-1.229l-18.689,44.263c0,0-2.213,5.655,0.738,5.655s41.804-47.705,41.804-47.705
				v9.836l-41.558,50.41c0,0-11.559,11.804-21.148,11.804s4.427-29.509,4.427-29.509S363.305-410.4,352.731-410.4
				s4.672-33.935,8.854-43.771C365.765-464.009,389.863-519.583,389.863-519.583z"/>
			
				<ellipse id="XMLID_316_" transform="matrix(0.41 -0.9121 0.9121 0.41 719.5162 86.8798)" fill="#FFFFFF" cx="426.91" cy="-512.694" rx="13.506" ry="9.605"/>
			<path id="XMLID_313_" fill="#FFFFFF" d="M475.731-522.804l-6.24,12.827l34.027-1.882l-20.409,44.639
				c-26.313-0.605-64.427,51.262-35.469,51.262s47.764-39.837,47.764-39.837l25.327-57.664l29.878-1.599l4.672-12.664
				L475.731-522.804z M451.142-427.025c-13.669,0,15.123-30.43,28.955-31.167C480.097-458.193,464.81-427.025,451.142-427.025z"/>
			<path id="XMLID_312_" fill="#FFFFFF" d="M528.231-505.591c0,0,10.451,0.369,9.345,8.976c0,0-0.737,3.565-2.828,5.164
				c-2.09,1.598-3.564,5.655-2.704,7.623c0.86,1.967,12.173,2.705,12.173,2.705s4.18-0.492,2.581,4.18
				c-1.599,4.672-10.267,24.099-10.267,24.099s-2.582,6.086-0.922,6.455c1.659,0.369,26.926-20.226,34.303-49.242l14.754-0.492
				l-14.508,34.918c0,0-6.517,12.234,0.86,12.418s29.324-29.877,34.304-48.689l15.309-1.106l-15.309,35.594
				c0,0-4.979,11.804-1.845,11.804c3.136,0,12.541-13.095,12.541-13.095s13.832-36.517,36.146-36.517
				c22.316,0,14.018,26.927,8.301,33.75c0,0-5.533,2.029-11.619-4.795c0,0,10.513-15.492,6.086-17.151
				c-4.426-1.66-19.364,15.123-21.946,23.606s-4.242,21.024,4.795,22.5s30.615-14.201,37.254-28.955
				c6.641-14.754,28.955-66.024,28.955-66.024h14.754l-22.867,52.377l22.867-20.287h20.473l-24.713,20.103
				c0,0,13.463,3.688,11.986,15.308c0,0-0.553,4.426-1.476,6.455c-0.922,2.028-1.844,3.504-0.737,4.057
				c1.107,0.553,7.377-8.115,13.463-8.115s9.59,4.058,9.223,13.463c-0.369,9.406-9.223,30.984-32.092,33.75
				c-22.867,2.767-139.795,11.804-183.688,39.468L480.097-406l222.972-21.025c0,0,35.594-3.319,38.914-22.5
				c0,0,2.582-8.852-2.951-9.037c-5.531-0.184-22.314,21.947-27.849,21.947c-5.532,0-12.726-1.66-7.93-12.355
				c4.795-10.697,7.745-21.947,1.658-22.315c-6.086-0.369-22.5,15.491-31.353,37.254l-15.491,1.291l4.057-10.328
				c0,0-14.938,12.91-28.953,12.91c-14.017,0-20.814-10.697-19.63-19.365c0,0-15.78,23.054-27.77,22.869
				c-11.987-0.185-2.581-20.471-2.581-20.471s-18.074,21.762-30.063,21.762c-11.986,0-6.086-19.733-6.086-19.733
				s-16.229,22.5-30.799,22.5c-14.569,0,18.627-49.795,12.91-52.193c-5.718-2.397-19.837-9.901-15.82-21.826
				C517.351-508.542,528.231-505.591,528.231-505.591z"/>
		</g>
		<g id="XMLID_444_">
			<path id="XMLID_448_" fill="#FFFFFF" d="M746.989-424.685c4.837,0.002,8.753,3.936,8.726,8.779
				c-0.027,4.781-3.92,8.706-8.794,8.671c-4.799-0.035-8.657-3.932-8.657-8.723C738.262-420.797,742.188-424.686,746.989-424.685z
				 M746.99-407.851c4.484-0.004,8.109-3.632,8.107-8.115c-0.001-4.462-3.618-8.104-8.114-8.103
				c-4.507,0.001-8.145,3.683-8.104,8.186C738.917-411.479,742.505-407.85,746.99-407.851z"/>
			<path id="XMLID_445_" fill="#FFFFFF" d="M742.885-421.068c0.023,0,0.046,0,0.067,0c1.285,0,2.57,0,3.854,0
				c0.468,0,0.932,0.033,1.392,0.117c0.372,0.067,0.733,0.17,1.071,0.345c0.589,0.304,0.961,0.779,1.118,1.424
				c0.104,0.427,0.118,0.857,0.063,1.289c-0.064,0.501-0.255,0.951-0.61,1.321c-0.221,0.228-0.477,0.401-0.763,0.53
				c-0.141,0.063-0.287,0.115-0.431,0.172c-0.011,0.004-0.021,0.011-0.042,0.02c0.076,0.024,0.144,0.043,0.209,0.067
				c0.352,0.129,0.627,0.36,0.864,0.645c0.254,0.306,0.455,0.646,0.632,1c0.351,0.703,0.697,1.408,1.046,2.113
				c0.119,0.24,0.236,0.481,0.354,0.723c0.005,0.008,0.008,0.017,0.015,0.033c-0.027,0-0.049,0-0.07,0
				c-0.849,0-1.697-0.001-2.546,0.001c-0.053,0-0.077-0.018-0.1-0.063c-0.294-0.6-0.587-1.198-0.882-1.797
				c-0.114-0.235-0.229-0.473-0.349-0.706c-0.112-0.218-0.242-0.424-0.396-0.614c-0.24-0.297-0.553-0.464-0.928-0.507
				c-0.19-0.021-0.387-0.018-0.58-0.021c-0.154-0.003-0.31,0-0.471,0c0,1.236,0,2.468,0,3.704c-0.843,0-1.679,0-2.521,0
				C742.885-414.535,742.885-417.796,742.885-421.068z M745.406-419.24c-0.001,0.021-0.003,0.036-0.003,0.051
				c0,0.804,0,1.607-0.001,2.41c0,0.047,0.015,0.061,0.061,0.061c0.349-0.002,0.696-0.001,1.046-0.002
				c0.234,0,0.469-0.023,0.695-0.088c0.372-0.106,0.612-0.341,0.702-0.722c0.073-0.317,0.074-0.636-0.009-0.951
				c-0.083-0.316-0.283-0.53-0.592-0.641c-0.236-0.085-0.481-0.114-0.73-0.116c-0.373-0.002-0.745-0.001-1.118-0.001
				C745.441-419.24,745.427-419.24,745.406-419.24z"/>
		</g>
	</g>
</g>
<path id="XMLID_120_" fill="#FFFFFF" d="M571.368,529.649c0-36.46,0-97.359,0-133.496l-35.877-66.929c0,24.102,0,139.749,0,164.312
	c-1.103-1.205-1.647-1.743-2.125-2.332c-18.277-22.499-36.574-44.984-54.778-67.543c-1.688-2.092-3.402-3-6.128-2.957
	c-10.01,0.158-20.022,0.062-30.036,0.062c-7.688,0-15.376,0-23.33,0c0,36.633,0,72.646,0,108.88c11.958,0,23.685,0,35.953,0
	c0-24.203,0-48.167,0-72.951c1.401,1.589,2.193,2.421,2.915,3.313c18.103,22.309,36.228,44.601,54.245,66.979
	c1.705,2.118,3.435,2.979,6.138,2.96c16.301-0.106,32.603-0.048,48.905-0.064C568.595,529.881,569.944,529.732,571.368,529.649z"/>
<path id="XMLID_129_" fill="#FFFFFF" d="M354.603,401.208c-1.172-2.177-2.597-2.694-4.878-2.677
	c-12.837,0.092-25.677,0.108-38.513-0.014c-2.48-0.023-3.902,0.656-5.133,2.912c-11.107,20.345-22.248,40.67-33.396,60.993
	c-31.943-0.126-62.703-0.228-65.034-0.161c-1.1,0.033-2.713,0.514-3.181,1.314c-4.951,8.474-9.72,17.055-14.93,26.301
	c6.69,0,35.756,0.103,67.97,0.212c-2.756,5.023-5.513,10.045-8.267,15.069c-0.461,0.844-13.949,24.707-14.34,25.64
	c13.256,0,26.209-0.038,39.165,0.028c2.561,0.014,3.808-1.246,4.933-3.376c4.999-9.473,12.374-23.034,20.117-37.224
	c28.501,0.091,52.815,0.152,58.551,0.119c2.201-0.015,3.491,0.613,4.468,2.644c2.052,4.263,4.459,8.357,6.52,12.615
	c0.983,2.028,2.284,2.663,4.491,2.635c8.985-0.119,17.972-0.05,26.958-0.05c3.906,0,7.813,0,12.197,0
	c-0.667-1.372-1.02-2.171-1.434-2.937C392.099,470.576,373.304,435.917,354.603,401.208z M314.201,462.589
	c5.259-9.65,10.047-18.479,13.633-25.219c0.62-1.168,1.296-2.307,2.246-3.985c5.45,10.048,10.529,19.411,15.909,29.33
	C344.281,462.715,331.433,462.661,314.201,462.589z"/>
<path id="XMLID_130_" fill="#FFFFFF" d="M239.245,499.872c-23.615,0-47.002,0-70.755,0c0-26.649,0-81.729,0-107.851
	c-12.647,0-24.917,0-37.248,0c0,36.557,0,101.863,0,138.235c36.101,0,55.552,0,91.662,0L239.245,499.872z"/>
<path id="XMLID_131_" fill="#FFFFFF" d="M612.227,322.982c-4.197,7.36-8.403,14.717-12.871,22.541l-9.882-18.148h-0.036
	c-9.567-17.953-19.138-35.905-28.624-53.9c-1.196-2.269-2.523-3.049-5.052-3.021c-11.808,0.134-23.62,0.054-35.432,0.071
	c-0.959,0.001-1.917,0.149-3.014,0.241c0.18,0.645,0.215,1.034,0.386,1.346c10.045,18.425,20.089,36.849,30.15,55.263h-0.138
	l43.713,79.875h41.542l-13.186-24.216l8.938-16.497c5.673-10.29,11.27-20.622,17.122-31.352c0.846,1.52,1.468,2.617,2.073,3.728
	c6.798,12.475,13.652,24.922,20.337,37.458c1.233,2.308,2.538,3.368,5.294,3.336c12.837-0.153,25.677-0.141,38.513-0.008
	c2.57,0.026,3.881-0.916,5.072-3.089c18.625-34.024,37.331-68.004,56.008-102.001c0.648-1.18,1.183-2.421,1.994-4.094
	c-13.111,0-25.671,0.126-38.225-0.09c-3.06-0.052-4.509,1.04-5.855,3.593c-11.924,22.651-23.967,45.239-35.983,67.842
	c-0.616,1.156-1.308,2.271-2.136,3.701c-0.845-1.505-1.429-2.499-1.967-3.513c-3.056-5.752-6.11-11.501-9.165-17.253h0.326
	l-13.98-25.673c-4.535-8.518-9.066-17.036-13.622-25.541c-0.269-0.498-0.672-1.055-1.131-1.55l-14.763-27.111h-41.759l14.011,25.6
	c-0.032,0-0.066,0-0.099,0c0.726,1.489,1.221,2.625,1.813,3.709c3.93,7.189,7.811,14.407,11.863,21.526
	c1.198,2.106,1.285,3.747-0.006,5.904C620.251,308.689,616.289,315.865,612.227,322.982z"/>
<path id="XMLID_134_" fill="#FFFFFF" d="M514.155,327.14c-0.021-3.166-0.404-6.421-1.221-9.476
	c-2.91-10.883-13.43-19.015-26.122-19.797c-14.589-0.896-29.206-1.298-43.812-1.914c-0.008,0.165-0.015,0.33-0.021,0.495
	c-5.263,0-10.536-0.223-15.785,0.046c-10.868,0.556-21.797,0.799-32.558,2.242c-11.38,1.524-23.405,11.538-23.123,27.391
	c0.309,17.451,0.057,34.913,0.094,52.368c0.005,2.173,0.022,4.395,0.455,6.508c2.361,11.543,11.799,20.1,24.566,21.396
	c10.307,1.047,20.712,1.692,31.068,1.605c20.373-0.169,40.781-0.376,61.099-1.71c14.242-0.937,25.649-11.097,25.455-28.71
	C514.063,360.77,514.271,343.954,514.155,327.14z M479.668,372.697c-0.02,1.252-1.646,3.008-2.946,3.58
	c-1.665,0.736-3.755,0.665-5.663,0.669c-18.846,0.04-37.695,0.025-56.542,0.023c-0.897,0-1.8,0.024-2.69-0.05
	c-4.852-0.407-5.438-1.034-5.44-5.829c-0.006-12.565-0.01-25.13,0.001-37.695c0.005-4.527,0.787-5.688,5.546-5.917
	c6.908-0.334,13.841-0.162,20.762-0.191c3.59-0.016,7.179-0.003,10.77-0.003c9.231,0.001,18.464-0.024,27.694,0.024
	c1.785,0.008,3.564,0.317,5.35,0.45c2.365,0.177,3.319,1.439,3.313,3.785C479.778,345.261,479.878,358.981,479.668,372.697z"/>
<path id="XMLID_135_" fill="#FFFFFF" d="M166.561,352.747c-2.557,0.711-5.24,1.336-7.87,1.345
	c-25.928,0.098-51.856,0.06-77.782,0.06c-1.51,0-3.019,0-4.718,0c-0.403,6.921-1.046,13.596,3.291,19.113
	c5.139,6.537,12.787,8.49,20.516,8.594c23.868,0.318,47.745,0.154,71.62,0.079c4.084-0.014,8.199-0.289,12.25-0.826
	c11.856-1.568,19.456-8.164,21.878-19.961c1.273-6.198,1.737-12.727,1.438-19.053c-0.862-18.215-10.53-27.823-27.786-28.131
	c-18.846-0.336-37.695-0.437-56.542-0.746c-2.921-0.048-5.874-0.47-8.739-1.065c-2.691-0.559-4.083-2.516-4.087-5.31
	c-0.004-2.716,1.163-4.86,3.828-5.561c2.44-0.642,5.021-1.044,7.541-1.052c25.799-0.074,51.599-0.045,77.397-0.045
	c1.391,0,2.781,0,4.389,0c2.145-18.397-8.706-26.614-22.493-27.259c-27.663-1.292-55.428-0.61-83.148-0.333
	c-10.749,0.105-19.068,6.456-21.69,16.935c-1.838,7.342-2.664,15.196-2.369,22.759c0.658,16.887,10.607,26.515,27.249,27.146
	c17.3,0.656,34.618,0.885,51.923,1.402c4.464,0.134,8.937,0.488,13.364,1.063c2.638,0.341,4.284,1.992,4.393,4.964
	C170.522,349.834,169.381,351.96,166.561,352.747z"/>
<path id="XMLID_136_" fill="#FFFFFF" d="M213.995,219.427c0,36.563,0,195.286,0,231.545c12.575,0,24.848,0,37.531,0
	c0-12.867,0-104.422,0-117.324c21.641,0,42.87,0,64.593,0c0,12.908,0,40.149,0,52.825c12.872,0,25.25,0,37.491,0
	c0-36.566,0-87.312,0-123.442c-12.682,0-25.045,0-37.675,0c0,12.505,0,24.665,0,36.682c-0.499,0.255-0.721,0.471-0.945,0.471
	c-20.413,0.046-40.824,0.063-61.237,0.125c-2.345,0.007-2.278-1.489-2.274-3.105c0.013-6.933,0.003-13.867,0.003-20.799
	c0-4.449,0-52.464,0-56.976C238.666,219.427,226.312,219.427,213.995,219.427z"/>
<path id="XMLID_137_" fill="#FFFFFF" d="M617.484,453.02v-30.367c-11.14-0.004-22.283-0.011-33.425-0.016
	c-0.716,0-1.431,0.233-2.187,0.365c0,36.384,0,72.545,0,109.229c1.417,0,2.426,0,3.435,0c33.116,0,66.233,0.03,99.35-0.038
	c4.341-0.008,8.712-0.293,13.021-0.835c15.26-1.921,24.926-12.494,25.067-27.653c0.167-17.582,0.145-35.172,0.003-52.756
	c-0.105-13.036-6.999-22.392-19.219-26.107c-3.753-1.142-7.76-2.009-11.654-2.029c-21.289-0.109-42.581-0.141-63.872-0.155v30.177
	c17.996-0.01,35.992-0.015,53.99-0.005c6.444,0.005,7.117,0.678,7.118,6.921c0,12.052,0.003,24.106-0.002,36.16
	c-0.003,5.49-0.507,6.137-6.095,6.422c-4.094,0.209-8.204,0.086-12.306,0.086c-16.156,0.007-32.313,0.002-48.47,0.002
	c-1.513,0-3.024,0-4.755,0c0-12.403,0-24.61,0-36.921C617.484,461.355,617.484,457.2,617.484,453.02z"/>
<path id="XMLID_138_" fill="#FFFFFF" d="M328.284,565.322c-5.482-5.761-12.599-8.683-21.15-8.683h-0.219
	c-8.794,0-16.122,2.955-21.778,8.782c-5.297,5.402-9.162,13.353-11.481,23.621c-1.726,7.64-2.604,16.536-2.604,26.443
	c0,23.467,4.244,39.358,12.975,48.581l0.007,0.01l0.008,0.01c0.748,0.77,1.768,1.21,2.8,1.21c0.982,0,1.902-0.388,2.59-1.099
	c1.499-1.548,1.55-4.006,0.118-5.494c-7.208-7.646-10.862-22.19-10.862-43.218c0-14.826,2.052-34.589,11.831-44.553
	c4.218-4.344,9.77-6.543,16.506-6.543c3.739,0,7.114,0.723,10.029,2.146c2.895,1.415,5.434,3.571,7.545,6.403
	c4.149,5.57,6.793,13.89,7.868,24.75l-13.703,1.146c-0.185-5.324-0.52-10.381-1.674-14.492c-1.659-5.903-4.861-8.896-9.518-8.896
	h-0.111c-5.89,0-9.563,2.95-11.914,9.567c-2.756,7.777-3.168,23.134-3.168,31.598v10.925v0.563c0,5.195,0.059,12.882,0.566,19.642
	c0.577,7.691,1.612,12.801,3.164,15.611c3.396,6.12,8.77,9.627,14.743,9.627h0.11c5.688,0,10.696-1.814,14.879-5.396
	c3.426-2.929,6.304-7.057,8.555-12.266c4.073-9.425,5.074-20.053,5.316-24.183l0.002-0.055v-0.052c0-2.244-1.508-3.944-3.518-3.989
	l-21.05-1.572l-0.07-0.005h-0.069c-2.109,0-3.72,1.427-3.919,3.474c-0.118,1.211-0.118,2.616-0.118,4.102l-0.002,0.157
	c-0.097,4.634-0.24,11.636-3.352,13.771l-0.042,0.031l-0.042,0.031c-1.688,1.305-2.042,3.661-0.801,5.366
	c0.769,1.053,1.96,1.681,3.192,1.681c0.775,0,1.511-0.247,2.134-0.716c6.235-4.432,6.428-13.338,6.545-19.891l13.191,0.958
	c-0.524,4.741-1.763,12.113-4.671,18.46c-3.733,8.143-9.136,12.296-16.062,12.339h-0.099c-3.242,0-6.164-2.023-8.231-5.701
	l-0.003-0.01l-0.004-0.007c-1.011-1.762-2.709-8.186-2.709-31.408v-0.563v-10.815c0-5.03,0.19-21.99,2.626-29.118
	c0.708-1.909,1.418-3.114,2.166-3.68c0.578-0.438,1.322-0.611,2.653-0.611c1.07,0,2.092,2.1,2.734,5.608
	c0.706,3.861,0.878,8.737,0.995,13.407v0.764c0,1.101,0.569,2.223,1.486,2.929c0.528,0.406,1.367,0.948,2.55,0.948h0.082
	l0.081-0.009l21.545-1.912l0.013-0.002h0.014c2.038-0.214,3.518-1.888,3.518-3.982v-0.06l-0.003-0.06
	C339.415,584.699,335.312,572.713,328.284,565.322z"/>
<path id="XMLID_139_" fill="#FFFFFF" d="M398.901,644.238H362.59c-1.685,0-2.854-0.109-3.482-0.661
	c-0.743-0.651-1.12-2.272-1.12-4.816v-72.849h12.381l0.107,69.463c0,2.102,1.711,3.813,3.817,3.813c2.104,0,3.818-1.712,3.818-3.815
	l-0.109-73.277c0-2.104-1.713-3.818-3.818-3.818h-20.013c-2.105,0-3.816,1.715-3.816,3.821v76.664c0,5.038,1.376,8.676,4.093,10.818
	c2.613,2.057,5.9,2.297,8.144,2.297h32.492v11.831H354.17c-2.105,0-3.816,1.714-3.816,3.818c0,2.104,1.711,3.818,3.816,3.818h44.731
	c2.104,0,3.816-1.712,3.816-3.818v-19.466C402.717,645.953,401.005,644.238,398.901,644.238z"/>
<path id="XMLID_140_" fill="#FFFFFF" d="M471.525,558.277H451.95c-2.105,0-3.818,1.715-3.818,3.821v67.915
	c0,4.662,0,12.466-2.193,14.66c-0.719,0.718-1.115,1.667-1.116,2.67c0,1.006,0.396,1.957,1.116,2.677
	c0.686,0.688,1.615,1.065,2.617,1.065c1.06,0,2.095-0.428,2.841-1.175c4.048-4.046,4.37-11.101,4.37-19.9v-64.208h11.94v64.867
	c0,9.738-0.372,19.586-3.078,25.642c-2.351,5.26-6.272,7.504-13.118,7.504c-2.982,0-5.733-1.343-7.744-3.782
	c-2.452-2.975-3.747-7.456-3.747-12.961v-84.977c0-2.104-1.712-3.818-3.818-3.818h-19.687c-2.104,0-3.816,1.712-3.816,3.818v68.574
	c0,20.734,4.348,31.886,14.532,37.28c0.533,0.292,1.107,0.438,1.707,0.438c1.319,0,2.608-0.751,3.364-1.964
	c0.575-0.918,0.729-2.028,0.418-3.046c-0.287-0.943-0.936-1.688-1.823-2.106c-7.403-3.928-10.563-13.086-10.563-30.602v-64.867
	h12.051v81.27c0,16.674,9.859,24.271,19.02,24.271h0.107c10.136,0,16.802-4.118,20.38-12.584c2.957-7,3.563-16.294,3.563-28.089
	v-68.571C475.452,560.027,473.654,558.277,471.525,558.277z"/>
<path id="XMLID_141_" fill="#FFFFFF" d="M542.459,612.317c5.542-4.551,8.244-12.073,8.244-22.88c0-9.581-2.254-16.73-7.089-22.498
	c-6.894-8.662-15.035-8.662-27.353-8.662h-27.013c-2.104,0-3.817,1.715-3.817,3.821v16.84c0,2.104,1.712,3.818,3.817,3.818h27.013
	c6.312,0,7.121,5.147,7.121,9.634c0,2.257-0.132,4.558-1.088,6.089c-0.362,0.58-1.462,2.342-6.033,2.342h-10.17
	c-3.76,0-7.756,2.718-7.756,7.756v10.172c0,4.284,3.407,7.644,7.756,7.644h9.952c5.825,0,6.415,0.523,7.46,2.327
	c0.747,1.408,1.628,3.755,1.628,6.979c0,4.423-0.68,7.287-2.076,8.764c-1.16,1.225-3.026,1.748-6.246,1.748h-14.655
	c-2.104,0-3.818,1.712-3.818,3.815c0,2.081,1.678,3.709,3.818,3.709h14.655c5.542,0,9.512-1.457,12.138-4.458
	c2.57-2.938,3.821-7.38,3.821-13.575c0-3.866-0.845-7.431-2.511-10.598l-0.011-0.017l-0.01-0.021
	c-3.196-5.753-7.899-6.198-14.193-6.198h-9.952c-0.072,0-0.119-0.047-0.119-0.121v-10.171c0-0.043,0.003-0.076,0.005-0.104
	c0.037-0.008,0.077-0.012,0.114-0.012h10.17c6.262,0,10.612-2.242,12.931-6.667c1.823-3.479,1.823-7.333,1.823-9.403
	c0-10.747-5.515-17.161-14.754-17.161h-23.195v-9.315h23.195c5.862,0,10.1,0,13.477,0.772c3.315,0.761,5.688,2.282,7.938,5.098
	c2.319,2.849,5.39,7.763,5.39,17.655c0,6.665-1.229,11.703-3.655,14.975c-1.989,2.684-4.432,3.78-6.396,4.657
	c-1.356,0.59-2.198,1.95-2.198,3.553c0,1.573,1.072,3.031,2.562,3.502c1.835,0.701,4.835,1.871,7.473,5.035
	c3.357,4.025,5.058,10.058,5.058,17.93c0,9.938-3.653,15.92-6.718,19.187l-0.017,0.02l-0.016,0.017
	c-4.81,5.397-14.664,5.397-19.401,5.397h-26.695v-71.975c0-2.104-1.713-3.815-3.818-3.815c-2.106,0-3.817,1.712-3.817,3.815v75.793
	c0,2.104,1.711,3.818,3.817,3.818h30.514c5.84,0,17.986,0,24.992-7.825c4.012-4.37,8.792-12.151,8.792-24.43
	C553.548,624.012,547.976,616.278,542.459,612.317z"/>
<path id="XMLID_142_" fill="#E3B8D4" d="M790.269,177.409H51.274c-9.369,0-16.99,7.621-16.99,16.989v408.97
	c0,9.367,7.62,16.99,16.99,16.99h194.744c3.065,0,5.548-2.484,5.548-5.55c0-3.062-2.483-5.547-5.548-5.547H51.274
	c-3.25,0-5.894-2.644-5.894-5.896V194.398c0-3.25,2.644-5.895,5.894-5.895h738.994c3.25,0,5.894,2.645,5.894,5.895v408.97
	c0,3.253-2.644,5.896-5.894,5.896H571.376c-3.064,0-5.548,2.482-5.548,5.547s2.483,5.547,5.548,5.547h218.893
	c9.368,0,16.99-7.62,16.99-16.99v-408.97C807.26,185.029,799.638,177.409,790.269,177.409z"/>
<g id="Capa_4" display="none">
	<g id="XMLID_53_" display="inline">
		<g id="XMLID_169_">
			<g id="XMLID_172_">
				<path id="XMLID_178_" fill="#FFFFFF" d="M1207.361-527.507l-40.018,142.811c-3.752,13.507-16.759,17.507-26.263,14.756
					s-14.005-11.754-16.506-20.758c-0.751-3.001-10.505-40.267-19.759-75.032c-9.254,34.765-19.008,72.031-19.759,75.032
					c-2.252,9.004-6.503,18.258-16.257,20.758c-9.504,2.501-22.261-0.749-26.263-14.756l-40.018-142.811
					c-3-11.254,3.503-23.009,14.757-26.01c11.256-3.252,22.761,3.25,26.013,14.506l23.259,82.536l21.51-81.285
					c2.001-7.753,9.254-13.006,16.758-13.006c7.753,0,14.756,5.252,17.007,13.006l21.511,81.285l23.009-82.536
					c3.253-11.256,15.007-17.759,26.262-14.506C1203.859-550.517,1210.611-538.762,1207.361-527.507z"/>
				<path id="XMLID_175_" fill="#FFFFFF" d="M1402.43-461.729c0,52.022-42.02,94.039-94.041,94.039
					c-51.772,0-94.039-42.017-94.039-94.039s42.267-94.041,94.039-94.041C1360.411-555.769,1402.43-513.75,1402.43-461.729z
					 M1254.366-461.729c0,30.013,23.76,54.272,53.772,54.272c29.515,0,54.273-24.76,54.273-54.272s-24.76-54.273-54.273-54.273
					C1278.126-516.002,1254.366-491.742,1254.366-461.729z"/>
				<path id="XMLID_173_" fill="#FFFFFF" d="M1615.51-527.507l-40.018,142.811c-3.751,13.507-16.757,17.507-26.262,14.756
					c-9.503-2.751-14.006-11.754-16.507-20.758c-0.75-3.001-10.505-40.267-19.757-75.032c-9.256,34.765-19.011,72.031-19.761,75.032
					c-2.251,9.004-6.501,18.258-16.257,20.758c-9.506,2.501-22.259-0.749-26.263-14.756l-40.017-142.811
					c-3.001-11.254,3.501-23.009,14.758-26.01c11.254-3.252,22.758,3.25,26.009,14.506l23.262,82.536l21.509-81.285
					c2.002-7.753,9.256-13.006,16.76-13.006c7.75,0,14.755,5.252,17.006,13.006l21.51,81.285l23.011-82.536
					c3.251-11.256,15.005-17.759,26.259-14.506C1612.01-550.517,1618.761-538.762,1615.51-527.507z"/>
			</g>
			<circle id="XMLID_171_" fill="#FFFFFF" cx="1261.074" cy="-598.163" r="22.997"/>
			<circle id="XMLID_170_" fill="#FFFFFF" cx="1355.706" cy="-598.163" r="22.997"/>
		</g>
		<g id="XMLID_167_">
			<path id="XMLID_193_" fill="#FFFFFF" d="M1115.521-294.823v-0.121c0-12.012,9.354-21.849,22.149-21.849
				c7.604,0,12.19,2.052,16.599,5.794l-5.854,7.061c-3.261-2.715-6.156-4.284-11.045-4.284c-6.76,0-12.133,5.974-12.133,13.158v0.12
				c0,7.726,5.313,13.399,12.795,13.399c3.381,0,6.398-0.846,8.754-2.535v-6.035h-9.356v-8.029h18.349v18.348
				c-4.346,3.684-10.318,6.701-18.045,6.701C1124.574-273.096,1115.521-282.331,1115.521-294.823z"/>
			<path id="XMLID_195_" fill="#FFFFFF" d="M1203.351-316.372h8.569l18.106,42.552h-9.719l-3.862-9.477h-17.865l-3.863,9.477h-9.475
				L1203.351-316.372z M1213.129-291.506l-5.614-13.699l-5.612,13.699H1213.129z"/>
			<path id="XMLID_198_" fill="#FFFFFF" d="M1260.699-316.068h19.313c5.373,0,9.536,1.507,12.313,4.283
				c2.355,2.355,3.622,5.674,3.622,9.657v0.121c0,6.821-3.681,11.104-9.054,13.099l10.322,15.088h-10.864l-9.053-13.52h-7.306v13.52
				h-9.295L1260.699-316.068L1260.699-316.068z M1279.409-295.548c4.528,0,7.122-2.414,7.122-5.977v-0.12
				c0-3.984-2.775-6.036-7.302-6.036h-9.235v12.133H1279.409z"/>
			<path id="XMLID_201_" fill="#FFFFFF" d="M1342.977-316.372h8.57l18.105,42.552h-9.716l-3.862-9.477h-17.865l-3.862,9.477h-9.479
				L1342.977-316.372z M1352.755-291.506l-5.611-13.699l-5.615,13.699H1352.755z"/>
			<path id="XMLID_204_" fill="#FFFFFF" d="M1395.741-294.823v-0.121c0-12.012,9.354-21.849,22.148-21.849
				c7.604,0,12.191,2.052,16.597,5.794l-5.853,7.061c-3.261-2.715-6.157-4.284-11.047-4.284c-6.761,0-12.131,5.974-12.131,13.158
				v0.12c0,7.726,5.313,13.399,12.795,13.399c3.381,0,6.398-0.846,8.75-2.535v-6.035h-9.354v-8.029h18.349v18.348
				c-4.346,3.684-10.318,6.701-18.045,6.701C1404.792-273.096,1395.741-282.331,1395.741-294.823z"/>
			<path id="XMLID_206_" fill="#FFFFFF" d="M1469.083-316.068h31.867v8.267h-22.632v8.571h19.915v8.27h-19.915v8.871h22.937v8.27
				h-32.172V-316.068z"/>
		</g>
	</g>
</g>
</svg>
