<?xml version="1.0" encoding="utf-8"?>
<!-- Generator: Adobe Illustrator 16.0.0, SVG Export Plug-In . SVG Version: 6.00 Build 0)  -->
<!DOCTYPE svg PUBLIC "-//W3C//DTD SVG 1.1//EN" "http://www.w3.org/Graphics/SVG/1.1/DTD/svg11.dtd">
<svg version="1.1" id="Capa_1" xmlns="http://www.w3.org/2000/svg" xmlns:xlink="http://www.w3.org/1999/xlink" x="0px" y="0px"
	 width="520px" height="95px" viewBox="0 0 520 95" enable-background="new 0 0 520 95" xml:space="preserve">
<g>
	<path fill="#FFFFFF" d="M391.094,24.125h10.047c4.311,0,8.625,0.041,12.936-0.028c1.173-0.018,1.91,0.372,2.638,1.274
		c7.84,9.716,15.721,19.398,23.592,29.087c0.207,0.252,0.439,0.485,0.914,1.005V24.238h15.452v46.776
		c-0.615,0.036-1.193,0.102-1.774,0.102c-7.019,0.008-14.039-0.02-21.061,0.028c-1.164,0.006-1.91-0.363-2.644-1.276
		c-7.76-9.636-15.564-19.236-23.361-28.843c-0.311-0.384-0.652-0.743-1.256-1.427v31.417h-15.482V24.125L391.094,24.125z"/>
	<path fill="#FFFFFF" d="M459.603,71.329V24.292c0.325-0.057,0.633-0.157,0.943-0.157c15.477,0.007,30.954-0.005,46.432,0.074
		c1.677,0.008,3.402,0.384,5.019,0.874c5.262,1.6,8.229,5.629,8.274,11.245c0.063,7.572,0.07,15.146-0.001,22.719
		c-0.062,6.528-4.222,11.079-10.796,11.908c-1.855,0.233-3.738,0.354-5.607,0.357c-14.26,0.029-28.524,0.017-42.785,0.017
		C460.647,71.329,460.211,71.329,459.603,71.329 M474.939,58.494c0.745,0,1.396,0,2.049,0c6.958,0,13.915,0.001,20.874-0.002
		c1.768,0,3.537,0.054,5.3-0.037c2.407-0.122,2.623-0.401,2.624-2.766c0.002-5.191,0.001-10.382,0.001-15.572
		c0-2.688-0.289-2.979-3.064-2.981c-8.727-0.004-17.45-0.002-26.176,0.002c-0.529,0-1.061,0.053-1.605,0.081L474.939,58.494
		L474.939,58.494z"/>
	<path fill="#FFFFFF" d="M154.058,23.371c6.29,0.266,12.586,0.439,18.867,0.825c5.467,0.337,9.998,3.839,11.25,8.526
		c0.352,1.315,0.516,2.716,0.527,4.081c0.05,7.241-0.04,14.483,0.041,21.723c0.083,7.584-4.83,11.96-10.962,12.363
		c-8.75,0.576-17.539,0.667-26.313,0.737c-4.459,0.035-8.941-0.241-13.38-0.691c-5.499-0.561-9.562-4.246-10.579-9.215
		c-0.187-0.91-0.195-1.864-0.197-2.803c-0.015-7.517,0.093-15.037-0.039-22.553c-0.122-6.827,5.057-11.139,9.958-11.796
		c4.634-0.62,9.341-0.725,14.022-0.964c2.259-0.116,4.532-0.021,6.797-0.021L154.058,23.371z M154.26,36.864
		c-1.546,0-3.092-0.005-4.638,0.001c-2.981,0.013-5.967-0.062-8.942,0.083c-2.049,0.098-2.385,0.598-2.387,2.549
		c-0.005,5.411-0.004,10.821-0.001,16.233c0.001,2.065,0.252,2.335,2.342,2.51c0.385,0.031,0.773,0.022,1.159,0.022
		c8.117,0.003,16.233,0.009,24.35-0.01c0.822-0.002,1.722,0.027,2.439-0.287c0.559-0.249,1.261-1.004,1.269-1.543
		c0.089-5.907,0.047-11.817,0.065-17.725c0.002-1.01-0.408-1.554-1.427-1.63c-0.769-0.056-1.535-0.19-2.303-0.194
		C162.21,36.854,158.234,36.864,154.26,36.864"/>
	<path fill="#FFFFFF" d="M55.56,36.106c-0.692,0-1.291,0-1.89,0c-11.11,0-22.222-0.012-33.33,0.019
		c-1.085,0.003-2.196,0.177-3.248,0.453c-1.148,0.302-1.651,1.224-1.648,2.396c0.001,1.203,0.6,2.046,1.761,2.288
		c1.232,0.256,2.505,0.438,3.762,0.458c8.117,0.134,16.235,0.177,24.35,0.321c7.432,0.132,11.594,4.271,11.965,12.115
		c0.129,2.725-0.07,5.537-0.62,8.205c-1.042,5.082-4.315,7.921-9.421,8.597c-1.745,0.231-3.517,0.348-5.276,0.354
		c-10.28,0.032-20.564,0.104-30.843-0.033c-3.328-0.044-6.622-0.887-8.835-3.701c-1.867-2.375-1.59-5.251-1.415-8.23h2.032
		c11.166,0,22.33,0.016,33.496-0.025c1.132-0.005,2.29-0.272,3.389-0.579c1.215-0.338,1.707-1.253,1.659-2.533
		c-0.047-1.279-0.754-1.991-1.891-2.138c-1.907-0.247-3.833-0.4-5.756-0.458c-7.452-0.224-14.91-0.321-22.361-0.604
		C4.273,52.737-0.012,48.59-0.295,41.318c-0.127-3.258,0.229-6.64,1.02-9.802c1.128-4.513,4.712-7.247,9.341-7.293
		c11.937-0.119,23.894-0.411,35.809,0.145C51.811,24.645,56.483,28.184,55.56,36.106"/>
	<path fill="#FFFFFF" d="M104.196,54.686H76.379v16.546H60.217V24.256h16.144c0,1.943,0,3.86,0,5.777
		c0,2.985,0.005,5.971-0.002,8.957c-0.001,0.698-0.029,1.341,0.98,1.339c8.791-0.027,17.581-0.035,26.371-0.055
		c0.097,0,0.193-0.093,0.408-0.202V24.275h16.223v46.92h-16.145L104.196,54.686L104.196,54.686z"/>
	<path fill="#FFFFFF" d="M345.196,63.664c2.243-3.983,4.298-7.676,6.428-11.326c0.204-0.346,0.898-0.553,1.371-0.566
		c2.088-0.061,4.179-0.025,6.614-0.025c-2.318-4.273-4.505-8.304-6.852-12.632c-0.407,0.724-0.7,1.214-0.968,1.715
		c-5.123,9.636-10.254,19.268-15.35,28.917c-0.483,0.917-1.021,1.46-2.125,1.453c-5.579-0.028-11.158-0.013-16.866-0.013
		c0.168-0.401,0.297-0.804,0.494-1.167c8.162-14.887,16.34-29.767,24.478-44.671c0.53-0.97,1.143-1.263,2.211-1.253
		c5.528,0.052,11.058,0.045,16.586,0.005c0.983-0.008,1.596,0.216,2.1,1.153c8.054,14.947,16.147,29.874,24.229,44.806
		c0.18,0.329,0.331,0.673,0.62,1.265h-5.255c-3.87,0-7.74-0.027-11.609,0.022c-0.949,0.014-1.51-0.26-1.935-1.132
		c-0.888-1.835-1.922-3.599-2.808-5.433c-0.422-0.874-0.977-1.146-1.923-1.14C358.283,63.684,351.928,63.664,345.196,63.664"/>
	<polygon fill="#FFFFFF" points="314.438,71.274 267.925,71.274 267.925,24.215 283.967,24.215 283.967,58.19 314.438,58.19 	"/>
	<polygon fill="#B71351" points="261.056,58.286 243.628,71.628 226.203,58.286 208.778,71.628 191.351,58.286 191.351,43.094 
		208.778,56.437 226.203,43.094 243.628,56.437 261.056,43.094 	"/>
	<polygon fill="#B71351" points="261.056,38.563 243.628,51.905 226.203,38.563 208.778,51.905 191.351,38.563 191.351,23.373 
		208.778,36.715 226.203,23.373 243.628,36.715 261.056,23.373 	"/>
</g>
</svg>
