<svg xmlns="http://www.w3.org/2000/svg" width="567" height="567" viewBox="0 0 566.93 566.93"><path d="M566.848 354.484L425.156 462.967 283.464 354.484l-141.69 108.483L.083 354.484v-123.52l141.692 108.483 141.69-108.483 141.692 108.483 141.692-108.483zm0-160.365L425.156 302.602 283.464 194.12l-141.69 108.483L.083 194.12V70.598L141.775 179.08l141.69-108.483L425.156 179.08 566.848 70.598zm-93.4 262.823a19.7 19.7 0 0 1 19.695 19.818c-.06 10.793-8.847 19.654-19.85 19.572-10.834-.077-19.547-8.875-19.547-19.7.001-10.927 8.862-19.706 19.7-19.7m.003 38a18.31 18.31 0 0 0 18.307-18.317c-.01-10.074-8.17-18.297-18.32-18.295-10.174.003-18.386 8.313-18.3 18.48.09 9.94 8.187 18.133 18.314 18.133m-9.27-29.84h8.856c1.055 0 2.104.074 3.143.264.838.155 1.652.386 2.416.777 1.33.688 2.17 1.76 2.524 3.215.235.964.27 1.937.14 2.91-.146 1.135-.573 2.15-1.38 2.984a5.48 5.48 0 0 1-1.718 1.197c-.317.146-.65.258-.973.387-.027.014-.05.027-.096.046l.47.15c.795.293 1.417.813 1.95 1.454.575.688 1.027 1.455 1.428 2.256l2.362 4.772.8 1.63c.008.02.017.035.03.073h-.156l-5.75.003c-.117 0-.175-.038-.225-.143l-1.99-4.058-.79-1.592a7.74 7.74 0 0 0-.894-1.387 3.05 3.05 0 0 0-2.093-1.146c-.43-.046-.87-.038-1.3-.046l-1.06-.003v8.362h-5.69v-22.106zm5.694 4.127l-.006.115-.003 5.44c0 .106.03.134.135.134l2.36-.005c.532 0 1.056-.053 1.573-.2.838-.238 1.384-.765 1.58-1.628a4.33 4.33 0 0 0-.02-2.146c-.184-.715-.636-1.197-1.334-1.446-.534-.192-1.088-.26-1.65-.263l-2.638-.003z" fill="#B71351"/></svg>