<svg xmlns="http://www.w3.org/2000/svg" width="567" height="181" viewBox="0 0 566.93 180.756"><g fill="#fff"><path d="M256.382 169.056l-4.837 8.854c-.676 1.226-1.126 2.876-2.176 3.508-1.018.615-2.674.185-4.05.2-2.575.01-5.15.03-7.724-.027-.406-.01-.99-.31-1.177-.646l-16.233-29.695c-.048-.1-.058-.198-.108-.38.31-.025.58-.067.85-.068l10.01-.02c.714-.01 1.09.213 1.427.854l10.18 19.154.684 1.238 3.66-6.408 3.454-6.023c.364-.607.34-1.07.001-1.667l-3.35-6.08c-.167-.307-.307-.628-.512-1.05l11.405.038c.327.005.76.472.95.826l10.294 19.34.555.992.604-1.045 10.164-19.164c.38-.72.79-1.03 1.653-1.015l10.796.024-.563 1.156-15.82 28.813c-.336.613-.706.88-1.432.872a493.15 493.15 0 0 0-10.879.002c-.778.01-1.147-.3-1.495-.94l-5.745-10.58-.583-1.052m119.278-18.27h6.6l8.484-.02c.77-.012 1.254.244 1.73.836l15.474 19.078c.135.166.287.318.6.66v-20.48h10.135v30.68l-1.163.065c-4.604.005-9.2-.012-13.814.02-.764.005-1.25-.238-1.732-.837l-15.323-18.92c-.203-.25-.426-.486-.822-.937v20.607h-10.16v-30.754zm44.935 30.963v-30.854c.214-.037.416-.103.618-.103l30.454.05c1.102.005 2.232.25 3.292.573 3.45 1.05 5.4 3.69 5.43 7.375l-.001 15c-.04 4.283-2.77 7.27-7.08 7.812-1.218.154-2.45.233-3.68.235l-29.033.013zm10.06-8.42H445.688l3.476-.023c1.58-.082 1.72-.264 1.722-1.813v-10.216c0-1.764-.188-1.952-2-1.953-5.723-.004-11.446-.004-17.17.001-.347 0-.695.032-1.053.053v13.952zM198.04 150.293l12.375.54c3.585.22 6.557 2.517 7.38 5.592.23.863.338 1.782.345 2.677l.026 14.248c.055 4.977-3.167 7.846-7.2 8.11-5.74.378-11.503.436-17.258.484-2.925.022-5.864-.158-8.776-.454-3.606-.366-6.272-2.783-6.94-6.044-.122-.598-.127-1.226-.13-1.838l-.026-14.793c-.08-4.48 3.317-7.307 6.532-7.735 3.04-.408 6.127-.478 9.196-.634 1.483-.075 2.972-.014 4.46-.014l.006-.14m.13 8.85c-1.014 0-2.028-.004-3.042 0-1.955.01-3.914-.04-5.865.056-1.344.063-1.565.392-1.566 1.67v10.646c0 1.355.166 1.53 1.536 1.647.252.02.507.013.76.013l15.97-.006c.54-.001 1.13.02 1.6-.19.367-.16.827-.656.832-1l.043-11.625c.002-.664-.268-1.02-.936-1.068-.504-.038-1.007-.125-1.5-.13l-7.823-.006"/><path d="M133.435 158.646h-1.24c-7.287 0-14.574-.008-21.862.015-.71.002-1.44.114-2.13.297-.753.198-1.082.803-1.08 1.57.001.79.394 1.344 1.154 1.5.8.168 1.644.287 2.47.302l15.97.21c4.874.086 7.605 2.8 7.85 7.946a21.94 21.94 0 0 1-.406 5.383c-.684 3.332-2.83 5.193-6.18 5.638-1.144.152-2.307.23-3.46.233-6.743.02-13.488.066-20.23-.022-2.183-.028-4.343-.58-5.795-2.427-1.225-1.56-1.043-3.445-.93-5.4h1.333l21.97-.016c.743-.003 1.502-.182 2.224-.38.796-.223 1.118-.822 1.088-1.66s-.496-1.308-1.24-1.403c-1.25-.162-2.515-.26-3.775-.3l-14.667-.396c-4.7-.178-7.51-2.897-7.697-7.668-.083-2.137.15-4.354.67-6.428.74-2.962 3.09-4.755 6.127-4.785l23.487.096c3.894.18 6.96 2.5 6.353 7.697m32 12.187H147.1v10.854h-10.6v-30.812h10.59l-.001 9.663c-.001.457-.02.88.642.877l17.297-.035c.064 0 .127-.06.267-.133v-10.36h10.642v30.776h-10.6v-10.83zm180.22 5.89l4.218-7.43c.133-.227.588-.36.898-.37l4.34-.018-4.494-8.283-.634 1.125-10.068 18.967c-.317.602-.67.957-1.394.954l-11.063-.008c.11-.265.193-.527.323-.767l16.056-29.3c.35-.637.75-.83 1.45-.82l10.88.004c.646-.004 1.047.142 1.378.757l15.894 29.388c.116.216.216.44.404.83h-3.445c-2.538 0-5.077-.02-7.615.014-.623.01-1-.17-1.27-.743l-1.842-3.563c-.275-.574-.64-.75-1.263-.747l-12.75.013m-20.174 4.99h-30.508v-30.866h10.522v22.284h19.986z"/></g><path d="M0-172.75h566.93v566.93H0z" fill="none"/><path d="M367.48 87.24l-43.542 33.338-43.542-33.338-43.543 33.338L193.31 87.24v-37.96l43.543 33.337 43.543-33.337 43.542 33.337 43.542-33.337zm0-49.282l-43.542 33.338-43.542-33.338-43.543 33.338L193.31 37.96V0l43.543 33.337L280.395 0l43.542 33.337L367.48 0z" fill="#B71351"/></svg>