<?xml version="1.0" encoding="utf-8"?>
<!-- Generator: Adobe Illustrator 16.0.0, SVG Export Plug-In . SVG Version: 6.00 Build 0)  -->
<!DOCTYPE svg PUBLIC "-//W3C//DTD SVG 1.1//EN" "http://www.w3.org/Graphics/SVG/1.1/DTD/svg11.dtd">
<svg version="1.1" id="Capa_1" xmlns="http://www.w3.org/2000/svg" xmlns:xlink="http://www.w3.org/1999/xlink" x="0px" y="0px"
	 width="567px" height="181px" viewBox="0 0 567 181" enable-background="new 0 0 567 181" xml:space="preserve">
<g>
	<path fill="#FFFFFF" d="M256.413,169.188l-4.837,8.855c-0.677,1.227-1.127,2.876-2.177,3.508c-1.018,0.615-2.674,0.186-4.051,0.201
		c-2.575,0.01-5.15,0.029-7.725-0.027c-0.406-0.01-0.99-0.311-1.177-0.646l-16.235-29.699c-0.048-0.1-0.058-0.197-0.108-0.379
		c0.311-0.025,0.58-0.067,0.851-0.068l10.011-0.02c0.715-0.011,1.091,0.213,1.428,0.854l10.181,19.156l0.685,1.238l3.66-6.408
		l3.455-6.024c0.363-0.606,0.34-1.07,0.001-1.667l-3.351-6.081c-0.167-0.308-0.308-0.628-0.513-1.05l11.407,0.037
		c0.326,0.006,0.76,0.473,0.95,0.826l10.295,19.343l0.555,0.992l0.604-1.045l10.165-19.167c0.38-0.72,0.79-1.029,1.653-1.015
		l10.797,0.024l-0.563,1.156l-15.822,28.816c-0.336,0.613-0.706,0.88-1.432,0.872c-3.627-0.04-7.254-0.039-10.881,0.002
		c-0.778,0.01-1.147-0.3-1.495-0.94l-5.746-10.581l-0.583-1.052 M375.709,150.926h6.601l8.485-0.02
		c0.77-0.012,1.254,0.244,1.73,0.836l15.476,19.08c0.135,0.166,0.287,0.318,0.6,0.66V151h10.137v30.684l-1.163,0.065
		c-4.604,0.005-9.201-0.012-13.815,0.021c-0.765,0.005-1.251-0.238-1.732-0.838l-15.325-18.922c-0.203-0.25-0.426-0.486-0.822-0.938
		v20.609h-10.161v-30.758L375.709,150.926z M420.65,181.893v-30.857c0.214-0.037,0.416-0.103,0.618-0.103l30.458,0.05
		c1.102,0.005,2.232,0.25,3.292,0.573c3.45,1.05,5.4,3.69,5.431,7.376l-0.001,15.002c-0.04,4.283-2.771,7.271-7.081,7.813
		c-1.218,0.154-2.45,0.233-3.68,0.235l-29.037,0.013V181.893z M430.711,173.473h15.031l3.477-0.023
		c1.58-0.082,1.721-0.264,1.723-1.813v-10.218c0-1.765-0.188-1.952-2-1.954c-5.725-0.004-11.448-0.004-17.173,0.002
		c-0.347,0-0.695,0.031-1.053,0.053v13.953H430.711z M198.065,150.422l12.376,0.541c3.586,0.22,6.559,2.518,7.381,5.592
		c0.23,0.863,0.339,1.783,0.346,2.678l0.025,14.25c0.056,4.978-3.167,7.847-7.2,8.111c-5.741,0.377-11.505,0.436-17.261,0.483
		c-2.925,0.022-5.864-0.157-8.776-0.454c-3.606-0.365-6.273-2.783-6.941-6.045c-0.122-0.598-0.127-1.226-0.13-1.838l-0.026-14.795
		c-0.08-4.48,3.317-7.308,6.533-7.736c3.04-0.408,6.128-0.478,9.197-0.634c1.483-0.075,2.972-0.014,4.46-0.014l0.007-0.14
		 M198.185,159.272c-1.015,0-2.028-0.004-3.043,0c-1.955,0.01-3.914-0.04-5.865,0.056c-1.345,0.063-1.565,0.393-1.566,1.67v10.648
		c0,1.354,0.166,1.529,1.536,1.646c0.252,0.021,0.507,0.014,0.76,0.014l15.973-0.006c0.54-0.002,1.13,0.02,1.6-0.19
		c0.367-0.16,0.827-0.656,0.832-1.001l0.043-11.626c0.002-0.664-0.268-1.021-0.936-1.067c-0.504-0.039-1.008-0.125-1.5-0.131
		l-7.824-0.006"/>
	<path fill="#FFFFFF" d="M133.451,158.776h-1.24c-7.288,0-14.575-0.008-21.864,0.015c-0.71,0.002-1.44,0.114-2.131,0.297
		c-0.753,0.199-1.082,0.804-1.08,1.57c0.001,0.791,0.395,1.345,1.154,1.5c0.8,0.168,1.645,0.287,2.471,0.303l15.972,0.21
		c4.875,0.086,7.605,2.8,7.851,7.947c0.087,1.804-0.049,3.612-0.405,5.384c-0.685,3.332-2.831,5.193-6.182,5.639
		c-1.144,0.152-2.307,0.229-3.46,0.232c-6.744,0.021-13.489,0.066-20.232-0.021c-2.184-0.028-4.344-0.58-5.796-2.428
		c-1.225-1.561-1.043-3.445-0.93-5.4h1.333l21.973-0.016c0.743-0.004,1.502-0.183,2.225-0.381c0.796-0.223,1.118-0.822,1.088-1.66
		s-0.496-1.309-1.24-1.402c-1.25-0.162-2.516-0.261-3.775-0.301l-14.669-0.396c-4.7-0.178-7.511-2.896-7.698-7.668
		c-0.083-2.138,0.15-4.355,0.67-6.43c0.74-2.962,3.091-4.755,6.128-4.785l23.49,0.096c3.895,0.181,6.961,2.5,6.354,7.698
		 M165.459,170.967h-18.341v10.855h-10.602v-30.816h10.592l-0.002,9.665c-0.001,0.457-0.02,0.88,0.643,0.877l17.299-0.035
		c0.064,0,0.127-0.06,0.268-0.133v-10.361h10.643v30.78h-10.601v-10.832H165.459z M345.701,176.857l4.219-7.431
		c0.133-0.228,0.588-0.36,0.897-0.37l4.341-0.018l-4.494-8.284l-0.635,1.125l-10.068,18.97c-0.317,0.602-0.671,0.957-1.395,0.953
		l-11.064-0.008c0.11-0.265,0.193-0.527,0.323-0.767l16.058-29.304c0.351-0.637,0.75-0.83,1.45-0.82l10.882,0.004
		c0.646-0.004,1.047,0.143,1.378,0.758l15.896,29.391c0.116,0.217,0.217,0.44,0.404,0.83h-3.445c-2.538,0-5.078-0.02-7.616,0.015
		c-0.623,0.01-1-0.17-1.27-0.743l-1.843-3.563c-0.274-0.574-0.64-0.75-1.263-0.747l-12.752,0.014 M325.528,181.852h-30.511v-30.87
		h10.522v22.286h19.988V181.852z"/>
</g>
<path fill="none" d="M0-172.661h567v567H0V-172.661z"/>
<path fill="#FF0066" d="M367.526,87.362l-43.548,33.341l-43.547-33.341l-43.549,33.341l-43.548-33.341V49.397l43.548,33.341
	l43.549-33.341l43.547,33.341l43.547-33.341L367.526,87.362z M367.526,38.074l-43.548,33.342l-43.547-33.342l-43.549,33.342
	l-43.548-33.34V0.111l43.548,33.341L280.43,0.111l43.547,33.341l43.549-33.341V38.074z"/>
</svg>
