<svg xmlns="http://www.w3.org/2000/svg" width="851" height="555" viewBox="0 142.799 850.391 554.973"><path d="M571.37 529.65v-133.5l-35.877-66.93v164.3l-2.125-2.332-54.778-67.543c-1.688-2.092-3.402-3-6.128-2.957l-53.366.062v108.88h35.953V456.7l2.915 3.313 54.245 66.98c1.705 2.118 3.435 2.98 6.138 2.96l48.905-.064c1.345-.002 2.694-.15 4.118-.234zM354.6 401.2c-1.172-2.177-2.597-2.694-4.878-2.677-12.837.092-25.677.108-38.513-.014-2.48-.023-3.902.656-5.133 2.912l-33.396 60.993-65.034-.16c-1 .033-2.713.514-3.18 1.314l-14.93 26.3 67.97.212-8.267 15.07-14.34 25.64 39.165.028c2.56.014 3.808-1.246 4.933-3.376l20.117-37.224 58.55.12c2.2-.015 3.49.613 4.468 2.644l6.52 12.615c.983 2.028 2.284 2.663 4.49 2.635l26.958-.05h12.197l-1.434-2.937-56.264-104.04zm-40.402 61.38l13.633-25.22 2.246-3.985 15.91 29.33c-1.708 0-14.556-.054-31.788-.126zm-74.958 37.28h-70.755V392.02h-37.248v138.24H222.9l16.34-30.384zm373-176.9l-12.87 22.54-9.882-18.148h-.036l-28.624-54c-1.196-2.27-2.523-3.05-5.052-3.02l-35.432.07c-.96.001-1.917.15-3.014.24.18.645.215 1.034.386 1.346l30.15 55.263h-.138l43.713 79.875h41.542l-13.186-24.216 8.938-16.497 17.122-31.352 2.073 3.728 20.337 37.458c1.233 2.308 2.538 3.368 5.294 3.336l38.513-.008c2.57.026 3.88-.916 5.072-3.09l56.008-102c.648-1.18 1.183-2.42 1.994-4.094-13.11 0-25.67.126-38.225-.1-3.06-.052-4.51 1.04-5.855 3.593l-35.983 67.842-2.136 3.7-1.967-3.513-9.165-17.253h.326l-13.98-25.673-13.622-25.54c-.27-.498-.672-1.055-1.13-1.55l-14.763-27.11h-41.76l14.01 25.6h-.1l1.813 3.71 11.863 21.526c1.198 2.106 1.285 3.747-.006 5.904l-12.23 21.323zm-98.07 4.16c-.02-3.166-.404-6.42-1.22-9.476-2.9-10.883-13.43-19.015-26.122-19.797l-43.812-1.914-.02.495c-5.263 0-10.536-.223-15.785.046l-32.558 2.242c-11.38 1.524-23.405 11.538-23.123 27.39l.094 52.368c.005 2.173.022 4.395.455 6.508 2.36 11.543 11.8 20 24.566 21.396 10.307 1.047 20.712 1.692 31.068 1.605l61.1-1.7c14.242-.937 25.65-11.097 25.455-28.7l-.095-50.444zm-34.487 45.557c-.02 1.252-1.646 3.008-2.946 3.58-1.665.736-3.755.665-5.663.67l-56.542.023c-.897 0-1.8.024-2.7-.05-4.852-.407-5.438-1.034-5.44-5.83l.001-37.695c.005-4.527.787-5.688 5.546-5.917 6.908-.334 13.84-.162 20.762-.19l10.77-.003 27.694.024c1.785.008 3.564.317 5.35.45 2.365.177 3.32 1.44 3.313 3.785l-.155 41.154zM166.56 352.75c-2.557.71-5.24 1.336-7.87 1.345l-82.5.06c-.403 6.92-1.046 13.596 3.29 19.113 5.14 6.537 12.787 8.5 20.516 8.594l71.62.08a95.99 95.99 0 0 0 12.25-.826c11.856-1.568 19.456-8.164 21.878-19.96 1.273-6.198 1.737-12.727 1.438-19.053-.862-18.215-10.53-27.823-27.786-28.13l-56.542-.746c-2.92-.048-5.874-.47-8.74-1.065-2.69-.56-4.083-2.516-4.087-5.3-.004-2.716 1.163-4.86 3.828-5.56 2.44-.642 5.02-1.044 7.54-1.052l81.786-.045c2.145-18.397-8.706-26.614-22.493-27.26-27.663-1.292-55.428-.6-83.148-.333-10.75.105-19.068 6.456-21.7 16.935-1.838 7.342-2.664 15.196-2.37 22.76.658 16.887 10.607 26.515 27.25 27.146l51.923 1.402c4.464.134 8.937.488 13.364 1.063 2.638.34 4.284 1.992 4.393 4.964s-1.033 5.095-3.853 5.882zM214 219.43v231.54h37.53V333.65h64.593v52.825h37.49v-123.44H315.94v36.682c-.5.255-.72.47-.945.47l-61.237.125c-2.345.007-2.278-1.49-2.274-3.105l.003-77.775L214 219.43zm403.48 233.6v-30.367l-33.425-.016c-.716 0-1.43.233-2.187.365v109.23l102.785-.038c4.34-.008 8.712-.293 13.02-.835 15.26-1.92 24.926-12.494 25.067-27.653l.003-52.756c-.105-13.036-7-22.392-19.22-26.107-3.753-1.142-7.76-2.01-11.654-2.03L628 422.66v30.177l54-.005c6.444.005 7.117.678 7.118 6.92l-.002 36.16c-.003 5.5-.507 6.137-6.095 6.422-4.094.21-8.204.086-12.306.086l-53.225.002V453.02zm-289.2 112.3c-5.482-5.76-12.6-8.683-21.15-8.683h-.22c-8.794 0-16.122 2.955-21.778 8.782-5.297 5.402-9.162 13.353-11.48 23.62-1.726 7.64-2.604 16.536-2.604 26.443 0 23.467 4.244 39.358 12.975 48.58l.007.01.008.01c.748.77 1.768 1.2 2.8 1.2.982 0 1.902-.388 2.6-1.1 1.5-1.548 1.55-4.006.118-5.494-7.208-7.646-10.862-22.2-10.862-43.218 0-14.826 2.052-34.59 11.83-44.553 4.218-4.344 9.77-6.543 16.506-6.543 3.74 0 7.114.723 10.03 2.146 2.895 1.415 5.434 3.57 7.545 6.403 4.15 5.57 6.793 13.9 7.868 24.75l-13.703 1.146c-.185-5.324-.52-10.38-1.674-14.492-1.66-5.903-4.86-8.896-9.518-8.896h-.11c-5.9 0-9.563 2.95-11.914 9.567-2.756 7.777-3.168 23.134-3.168 31.598v11.488l.566 19.642c.577 7.69 1.612 12.8 3.164 15.61 3.396 6.12 8.77 9.627 14.743 9.627h.1c5.688 0 10.696-1.814 14.88-5.396 3.426-2.93 6.304-7.057 8.555-12.266 4.073-9.425 5.074-20.053 5.316-24.183l.002-.055v-.052c0-2.244-1.508-3.944-3.518-3.99l-21.19-1.577c-2.11 0-3.72 1.427-3.92 3.474-.118 1.21-.118 2.616-.118 4.102l-.002.157c-.097 4.634-.24 11.636-3.352 13.77l-.042.03-.042.03c-1.688 1.305-2.042 3.66-.8 5.366.77 1.053 1.96 1.68 3.192 1.68.775 0 1.51-.247 2.134-.716 6.235-4.432 6.428-13.338 6.545-19.89l13.19.958c-.524 4.74-1.763 12.113-4.67 18.46-3.733 8.143-9.136 12.296-16.062 12.34h-.1c-3.242 0-6.164-2.023-8.23-5.7l-.003-.01-.004-.007c-1.01-1.762-2.71-8.186-2.71-31.408v-11.378c0-5.03.2-22 2.626-29.118.708-1.91 1.418-3.114 2.166-3.68.578-.438 1.322-.61 2.653-.61 1.07 0 2.092 2 2.734 5.608.706 3.86.878 8.737.995 13.407v.764c0 1.1.57 2.223 1.486 2.93.528.406 1.367.948 2.55.948h.082l.08-.01 21.558-1.914h.014c2.038-.214 3.518-1.888 3.518-3.982V601l-.003-.06c-1.06-16.243-5.162-28.23-12.2-35.62zM399 644.24h-36.31c-1.685 0-2.854-.11-3.482-.66-.743-.65-1.12-2.272-1.12-4.816v-72.85h12.38l.107 69.463a3.82 3.82 0 0 0 3.817 3.813c2.104 0 3.818-1.712 3.818-3.815l-.11-73.277c0-2.104-1.713-3.818-3.818-3.818H354.17c-2.105 0-3.816 1.715-3.816 3.82v76.664c0 5.038 1.376 8.676 4.093 10.818 2.613 2.057 6 2.297 8.144 2.297h32.492v11.83H354.17c-2.105 0-3.816 1.714-3.816 3.818s1.71 3.818 3.816 3.818H399a3.82 3.82 0 0 0 3.816-3.818v-19.466c0-2.108-1.712-3.823-3.816-3.823zm72.62-85.96h-19.575c-2.105 0-3.818 1.715-3.818 3.82v67.915c0 4.662 0 12.466-2.193 14.66a3.76 3.76 0 0 0-1.116 2.67c0 1.006.396 1.957 1.116 2.677.686.688 1.615 1.065 2.617 1.065a4.04 4.04 0 0 0 2.841-1.175c4.048-4.046 4.37-11.1 4.37-20v-64.208h11.94v64.867c0 9.738-.372 19.586-3.078 25.642-2.35 5.26-6.272 7.504-13.118 7.504-2.982 0-5.733-1.343-7.744-3.782-2.452-2.975-3.747-7.456-3.747-12.96v-84.977c0-2.104-1.712-3.818-3.818-3.818H416.5c-2.104 0-3.816 1.712-3.816 3.818v68.574c0 20.734 4.348 31.886 14.532 37.28.533.292 1.107.438 1.707.438 1.32 0 2.608-.75 3.364-1.964.575-.918.73-2.028.418-3.046-.287-.943-.936-1.688-1.823-2.106-7.403-3.928-10.563-13.086-10.563-30.602v-64.867h12.05v81.27c0 16.674 9.86 24.27 19.02 24.27h.107c10.136 0 16.802-4.118 20.38-12.584 2.957-7 3.563-16.294 3.563-28.09v-68.57c-.003-2.072-1.8-3.822-3.93-3.822zm70.94 54.04c5.542-4.55 8.244-12.073 8.244-22.88 0-9.58-2.254-16.73-7.09-22.498-6.894-8.662-15.035-8.662-27.353-8.662H489.25c-2.104 0-3.817 1.715-3.817 3.82v16.84c0 2.104 1.712 3.818 3.817 3.818h27.013c6.312 0 7.12 5.147 7.12 9.634 0 2.257-.132 4.558-1.088 6.09-.362.58-1.462 2.342-6.033 2.342h-10.17c-3.76 0-7.756 2.718-7.756 7.756v10.172c0 4.284 3.407 7.644 7.756 7.644h9.952c5.825 0 6.415.523 7.46 2.327.747 1.408 1.628 3.755 1.628 6.98 0 4.423-.68 7.287-2.076 8.764-1.16 1.225-3.026 1.748-6.246 1.748h-14.655c-2.104 0-3.818 1.712-3.818 3.815 0 2.08 1.678 3.71 3.818 3.71H516.8c5.542 0 9.512-1.457 12.138-4.458 2.57-2.938 3.82-7.38 3.82-13.575 0-3.866-.845-7.43-2.51-10.598l-.01-.017-.01-.02c-3.196-5.753-7.9-6.198-14.193-6.198h-9.952c-.072 0-.12-.047-.12-.12v-10.17c0-.043.003-.076.005-.104.037-.008.077-.012.114-.012h10.17c6.262 0 10.612-2.242 12.93-6.667 1.823-3.48 1.823-7.333 1.823-9.403 0-10.747-5.515-17.16-14.754-17.16h-23.195v-9.315h23.195c5.862 0 10 0 13.477.772 3.315.76 5.688 2.282 7.938 5.098 2.32 2.85 5.4 7.763 5.4 17.655 0 6.665-1.23 11.703-3.655 14.975-1.99 2.684-4.432 3.78-6.396 4.657-1.356.6-2.198 1.95-2.198 3.553 0 1.573 1.072 3.03 2.562 3.502 1.835.7 4.835 1.87 7.473 5.035 3.357 4.025 5.058 10.058 5.058 17.93 0 9.938-3.653 15.92-6.718 19.187l-.017.02-.016.017c-4.8 5.397-14.664 5.397-19.4 5.397h-26.695V591.74a3.82 3.82 0 0 0-3.818-3.815 3.82 3.82 0 0 0-3.817 3.815v75.793c0 2.104 1.71 3.818 3.817 3.818h30.514c5.84 0 17.986 0 24.992-7.825 4.012-4.37 8.792-12.15 8.792-24.43.005-15.08-5.567-22.815-11.084-26.776z" fill="#fff"/><path d="M790.27 177.4h-739c-9.37 0-17 7.62-17 16.99v408.97c0 9.367 7.62 17 17 17H246a5.55 5.55 0 0 0 5.548-5.55 5.55 5.55 0 0 0-5.548-5.547H51.27c-3.25 0-5.894-2.644-5.894-5.896v-408.97c0-3.25 2.644-5.895 5.894-5.895h739c3.25 0 5.894 2.645 5.894 5.895v408.97c0 3.253-2.644 5.896-5.894 5.896h-218.9a5.55 5.55 0 0 0-5.548 5.547c0 3.065 2.483 5.547 5.548 5.547h218.9c9.368 0 17-7.62 17-17v-408.97c.001-9.37-7.62-16.99-17-16.99z" fill="#E3B8D4"/></svg>