<?xml version="1.0" encoding="utf-8"?>
<!-- Generator: Adobe Illustrator 16.0.0, SVG Export Plug-In . SVG Version: 6.00 Build 0)  -->
<!DOCTYPE svg PUBLIC "-//W3C//DTD SVG 1.1//EN" "http://www.w3.org/Graphics/SVG/1.1/DTD/svg11.dtd">
<svg version="1.1" id="Capa_1" xmlns="http://www.w3.org/2000/svg" xmlns:xlink="http://www.w3.org/1999/xlink" x="0px" y="0px"
	 width="400px" height="114.667px" viewBox="0 0 400 114.667" enable-background="new 0 0 400 114.667" xml:space="preserve">
<g>
	<g>
		<path fill="#FFFFFF" d="M62.146,36.57c-0.637,1.365-1.524,2.512-2.663,3.438c-1.139,0.928-2.499,1.636-4.077,2.124
			c-1.58,0.488-3.33,0.733-5.251,0.733c-2.698,0-5.344-0.464-7.939-1.391c-2.596-0.927-4.956-2.352-7.08-4.273l4.602-5.512
			c1.618,1.314,3.278,2.36,4.981,3.135c1.702,0.776,3.565,1.163,5.588,1.163c1.618,0,2.874-0.295,3.768-0.885
			c0.893-0.589,1.34-1.407,1.34-2.452V32.55c0-0.505-0.093-0.952-0.279-1.34c-0.187-0.387-0.541-0.75-1.065-1.087
			c-0.524-0.336-1.251-0.674-2.18-1.011c-0.93-0.336-2.138-0.69-3.625-1.062c-1.792-0.438-3.414-0.927-4.868-1.466
			c-1.454-0.539-2.687-1.205-3.701-1.998c-1.015-0.792-1.8-1.778-2.358-2.958c-0.558-1.18-0.837-2.646-0.837-4.399v-0.101
			c0-1.618,0.301-3.076,0.904-4.374c0.603-1.297,1.449-2.419,2.537-3.363c1.089-0.943,2.389-1.669,3.9-2.175
			c1.511-0.505,3.177-0.758,4.998-0.758c2.596,0,4.981,0.388,7.155,1.163c2.175,0.776,4.172,1.888,5.993,3.337l-4.045,5.866
			c-1.585-1.079-3.135-1.93-4.652-2.554c-1.517-0.624-3.034-0.936-4.551-0.936s-2.655,0.295-3.414,0.885
			c-0.758,0.59-1.138,1.324-1.138,2.2v0.101c0,0.574,0.11,1.071,0.33,1.492c0.22,0.422,0.616,0.801,1.191,1.138
			c0.574,0.337,1.361,0.657,2.358,0.96c0.997,0.304,2.256,0.658,3.777,1.062c1.792,0.473,3.388,1.003,4.792,1.593
			c1.402,0.59,2.585,1.298,3.549,2.124c0.963,0.827,1.69,1.795,2.18,2.908c0.49,1.113,0.735,2.445,0.735,3.995v0.101
			C63.101,33.646,62.782,35.205,62.146,36.57z"/>
		<path fill="#FFFFFF" d="M104.517,31.766c-0.944,2.208-2.25,4.146-3.919,5.815c-1.668,1.669-3.658,2.983-5.967,3.944
			c-2.31,0.961-4.829,1.441-7.56,1.441c-2.731,0-5.243-0.48-7.535-1.441c-2.293-0.961-4.273-2.258-5.942-3.894
			c-1.668-1.635-2.967-3.557-3.894-5.765c-0.928-2.208-1.391-4.576-1.391-7.105v-0.101c0-2.528,0.472-4.896,1.416-7.105
			c0.943-2.208,2.25-4.146,3.919-5.815c1.669-1.668,3.658-2.983,5.967-3.944c2.309-0.96,4.829-1.441,7.56-1.441
			c2.73,0,5.242,0.48,7.535,1.441c2.292,0.961,4.273,2.259,5.942,3.894c1.668,1.636,2.966,3.557,3.894,5.765
			c0.927,2.208,1.391,4.577,1.391,7.105v0.101C105.933,27.19,105.46,29.559,104.517,31.766z M97.791,24.661
			c0-1.517-0.261-2.949-0.784-4.298c-0.523-1.348-1.264-2.528-2.225-3.54c-0.961-1.012-2.099-1.812-3.413-2.402
			c-1.315-0.589-2.749-0.885-4.298-0.885c-1.585,0-3.026,0.287-4.324,0.86c-1.298,0.573-2.411,1.365-3.338,2.376
			s-1.652,2.183-2.174,3.515c-0.523,1.332-0.784,2.756-0.784,4.273v0.101c0,1.517,0.261,2.951,0.784,4.298
			c0.522,1.349,1.264,2.529,2.225,3.54s2.09,1.813,3.388,2.402c1.297,0.59,2.739,0.885,4.324,0.885c1.55,0,2.983-0.286,4.298-0.86
			c1.314-0.573,2.435-1.365,3.363-2.377c0.927-1.011,1.651-2.182,2.174-3.514c0.522-1.332,0.784-2.756,0.784-4.273V24.661z"/>
		<path fill="#FFFFFF" d="M137.689,42.36l-17.143-22.503V42.36h-7.687V6.962h7.181l16.586,21.795V6.962h7.687V42.36H137.689z"/>
		<path fill="#FFFFFF" d="M153.163,42.36V6.962h7.788V42.36H153.163z"/>
		<path fill="#FFFFFF" d="M201.051,31.64c-0.91,2.158-2.199,4.029-3.868,5.613c-1.669,1.585-3.658,2.832-5.967,3.742
			c-2.31,0.91-4.847,1.365-7.611,1.365H169.8V6.962h13.806c2.764,0,5.301,0.447,7.611,1.34c2.309,0.894,4.298,2.133,5.967,3.717
			c1.669,1.585,2.958,3.447,3.868,5.588c0.91,2.141,1.365,4.458,1.365,6.953v0.101C202.416,27.157,201.961,29.483,201.051,31.64z
			 M194.275,24.661c0-1.55-0.261-2.983-0.783-4.298c-0.523-1.314-1.248-2.444-2.175-3.388c-0.928-0.943-2.048-1.676-3.363-2.2
			c-1.314-0.522-2.765-0.784-4.349-0.784h-6.018v21.34h6.018c1.584,0,3.034-0.252,4.349-0.758c1.315-0.506,2.435-1.23,3.363-2.174
			c0.927-0.943,1.651-2.056,2.175-3.338c0.522-1.281,0.783-2.713,0.783-4.298V24.661z"/>
		<path fill="#FFFFFF" d="M243.984,31.766c-0.943,2.208-2.25,4.146-3.918,5.815c-1.67,1.669-3.66,2.983-5.969,3.944
			s-4.828,1.441-7.559,1.441s-5.244-0.48-7.535-1.441c-2.293-0.961-4.273-2.258-5.941-3.894c-1.67-1.635-2.967-3.557-3.895-5.765
			c-0.928-2.208-1.391-4.576-1.391-7.105v-0.101c0-2.528,0.473-4.896,1.416-7.105c0.943-2.208,2.25-4.146,3.92-5.815
			c1.668-1.668,3.656-2.983,5.967-3.944c2.309-0.96,4.828-1.441,7.559-1.441c2.732,0,5.242,0.48,7.535,1.441
			c2.293,0.961,4.273,2.259,5.941,3.894c1.67,1.636,2.967,3.557,3.895,5.765c0.928,2.208,1.391,4.577,1.391,7.105v0.101
			C245.4,27.19,244.928,29.559,243.984,31.766z M237.26,24.661c0-1.517-0.262-2.949-0.785-4.298
			c-0.523-1.348-1.264-2.528-2.225-3.54c-0.961-1.012-2.098-1.812-3.414-2.402c-1.314-0.589-2.748-0.885-4.297-0.885
			c-1.586,0-3.027,0.287-4.324,0.86c-1.299,0.573-2.41,1.365-3.338,2.376s-1.652,2.183-2.174,3.515
			c-0.523,1.332-0.785,2.756-0.785,4.273v0.101c0,1.517,0.262,2.951,0.785,4.298c0.521,1.349,1.264,2.529,2.225,3.54
			s2.09,1.813,3.389,2.402c1.297,0.59,2.738,0.885,4.322,0.885c1.551,0,2.984-0.286,4.299-0.86c1.314-0.573,2.436-1.365,3.363-2.377
			c0.926-1.011,1.65-2.182,2.174-3.514c0.523-1.332,0.785-2.756,0.785-4.273V24.661z"/>
		<path fill="#FFFFFF" d="M257.789,33.932V16.233h13.326v3.464h-9.482v3.591h8.344v3.464h-8.344v3.717h9.607v3.464H257.789z"/>
		<path fill="#FFFFFF" d="M22.697,82.713V47.315h7.788v35.398H22.697z"/>
		<path fill="#FFFFFF" d="M39.334,82.713V47.315h7.788v28.369h17.649v7.029H39.334z"/>
		<path fill="#FFFFFF" d="M99.839,74.319c-0.725,1.989-1.762,3.649-3.11,4.981c-1.349,1.332-2.983,2.326-4.905,2.983
			c-1.921,0.657-4.063,0.986-6.422,0.986c-4.753,0-8.495-1.315-11.226-3.944c-2.731-2.63-4.096-6.557-4.096-11.783V47.315h7.788
			V67.34c0,2.9,0.674,5.082,2.023,6.549c1.348,1.467,3.219,2.199,5.613,2.199c2.393,0,4.264-0.707,5.613-2.123
			c1.348-1.416,2.023-3.54,2.023-6.372V47.315h7.788V67.29C100.926,69.988,100.563,72.331,99.839,74.319z"/>
		<path fill="#FFFFFF" d="M136.577,82.713v-23.11l-9.962,15.12h-0.203l-9.861-14.968v22.958h-7.687V47.315h8.395l9.305,14.968
			l9.305-14.968h8.395v35.398H136.577z"/>
		<path fill="#FFFFFF" d="M153.113,82.713V47.315h7.788v35.398H153.113z"/>
		<path fill="#FFFFFF" d="M194.58,82.713L177.436,60.21v22.503h-7.687V47.315h7.181l16.586,21.795V47.315h7.686v35.398H194.58z"/>
		<path fill="#FFFFFF" d="M236.045,82.713l-3.236-7.939h-14.967l-3.236,7.939h-7.939l15.17-35.651h7.182l15.17,35.651H236.045z
			 M225.326,56.417l-4.703,11.479h9.404L225.326,56.417z"/>
		<path fill="#FFFFFF" d="M277.916,79.628c-0.979,0.776-2.049,1.441-3.211,1.998c-1.164,0.556-2.438,0.978-3.818,1.264
			c-1.383,0.286-2.934,0.43-4.652,0.43c-2.596,0-5.006-0.472-7.232-1.416c-2.225-0.943-4.146-2.232-5.764-3.868
			c-1.619-1.635-2.883-3.565-3.793-5.79s-1.365-4.602-1.365-7.13v-0.101c0-2.528,0.455-4.896,1.365-7.105
			c0.91-2.208,2.174-4.146,3.793-5.815c1.617-1.668,3.557-2.983,5.814-3.944c2.26-0.96,4.754-1.441,7.484-1.441
			c1.652,0,3.16,0.135,4.527,0.404c1.365,0.271,2.604,0.641,3.717,1.113c1.111,0.472,2.139,1.045,3.084,1.719
			c0.943,0.675,1.82,1.416,2.629,2.225l-4.955,5.714c-1.383-1.247-2.791-2.225-4.223-2.933c-1.434-0.708-3.043-1.062-4.83-1.062
			c-1.482,0-2.855,0.287-4.121,0.86c-1.264,0.573-2.352,1.365-3.262,2.376s-1.617,2.183-2.123,3.515
			c-0.506,1.332-0.76,2.756-0.76,4.273v0.101c0,1.517,0.254,2.951,0.76,4.299c0.506,1.349,1.205,2.528,2.098,3.539
			c0.893,1.012,1.973,1.813,3.236,2.402c1.266,0.59,2.656,0.885,4.172,0.885c2.023,0,3.734-0.37,5.133-1.112
			c1.398-0.741,2.789-1.753,4.172-3.034L280.748,77C279.838,77.977,278.893,78.854,277.916,79.628z"/>
		<path fill="#FFFFFF" d="M287.32,82.713V47.315h7.789v35.398H287.32z"/>
		<path fill="#FFFFFF" d="M338.598,72.12c-0.943,2.208-2.25,4.146-3.918,5.815c-1.67,1.668-3.66,2.983-5.969,3.944
			c-2.309,0.96-4.828,1.44-7.559,1.44s-5.244-0.48-7.535-1.44c-2.293-0.961-4.273-2.259-5.941-3.895
			c-1.67-1.635-2.967-3.556-3.895-5.765c-0.928-2.207-1.391-4.576-1.391-7.105v-0.101c0-2.528,0.473-4.896,1.416-7.105
			c0.943-2.208,2.25-4.146,3.92-5.815c1.668-1.668,3.656-2.983,5.967-3.944c2.309-0.96,4.828-1.441,7.559-1.441
			c2.732,0,5.242,0.48,7.535,1.441c2.293,0.961,4.273,2.259,5.941,3.894c1.67,1.636,2.967,3.557,3.895,5.765
			c0.928,2.208,1.391,4.577,1.391,7.105v0.101C340.014,67.543,339.541,69.912,338.598,72.12z M331.873,65.014
			c0-1.517-0.262-2.949-0.785-4.298c-0.523-1.348-1.264-2.528-2.225-3.54c-0.961-1.012-2.098-1.812-3.414-2.402
			c-1.314-0.589-2.748-0.885-4.297-0.885c-1.586,0-3.027,0.287-4.324,0.86c-1.299,0.573-2.41,1.365-3.338,2.376
			s-1.652,2.183-2.174,3.515c-0.523,1.332-0.785,2.756-0.785,4.273v0.101c0,1.517,0.262,2.951,0.785,4.299
			c0.521,1.349,1.264,2.528,2.225,3.539c0.961,1.012,2.09,1.813,3.389,2.402c1.297,0.59,2.738,0.885,4.322,0.885
			c1.551,0,2.984-0.286,4.299-0.859s2.436-1.365,3.363-2.377c0.926-1.011,1.65-2.183,2.174-3.515
			c0.523-1.331,0.785-2.756,0.785-4.273V65.014z M318.471,44.534l5.715-8.951l6.625,2.883l-6.473,6.068H318.471z"/>
		<path fill="#FFFFFF" d="M371.771,82.713L354.629,60.21v22.503h-7.688V47.315h7.182l16.586,21.795V47.315h7.686v35.398H371.771z"/>
		<path fill="#FFFFFF" d="M151.87,97.588c-0.371,0.775-0.881,1.425-1.53,1.947s-1.408,0.914-2.275,1.176
			c-0.869,0.261-1.8,0.392-2.794,0.392h-2.958v5.31h-3.894V88.713h7.231c1.062,0,2.01,0.147,2.844,0.442s1.542,0.713,2.124,1.252
			s1.028,1.185,1.34,1.935s0.468,1.58,0.468,2.49v0.051C152.426,95.912,152.24,96.813,151.87,97.588z M148.481,94.908
			c0-0.876-0.282-1.542-0.847-1.997s-1.336-0.683-2.313-0.683h-3.009v5.411h3.085c0.977,0,1.736-0.257,2.275-0.771
			c0.54-0.514,0.809-1.15,0.809-1.909V94.908z"/>
		<path fill="#FFFFFF" d="M171.111,106.413l-3.792-5.664h-3.06v5.664h-3.894V88.713h8.091c2.107,0,3.746,0.515,4.918,1.543
			c1.171,1.028,1.757,2.461,1.757,4.298v0.051c0,1.433-0.35,2.601-1.049,3.502c-0.7,0.901-1.614,1.563-2.744,1.984l4.324,6.321
			H171.111z M171.187,94.756c0-0.843-0.27-1.475-0.809-1.896c-0.54-0.421-1.29-0.632-2.25-0.632h-3.869v5.082h3.944
			c0.961,0,1.698-0.228,2.212-0.683s0.771-1.062,0.771-1.82V94.756z"/>
		<path fill="#FFFFFF" d="M201.021,101.116c-0.471,1.104-1.125,2.073-1.958,2.907c-0.835,0.835-1.829,1.492-2.983,1.973
			c-1.155,0.48-2.415,0.721-3.78,0.721s-2.621-0.24-3.768-0.721s-2.136-1.129-2.971-1.947c-0.834-0.817-1.483-1.778-1.947-2.882
			c-0.463-1.104-0.695-2.289-0.695-3.553v-0.051c0-1.264,0.236-2.448,0.708-3.553c0.472-1.104,1.125-2.073,1.96-2.907
			c0.834-0.835,1.829-1.492,2.983-1.973c1.154-0.48,2.415-0.721,3.78-0.721s2.62,0.24,3.767,0.721s2.137,1.13,2.972,1.947
			c0.834,0.817,1.482,1.778,1.947,2.883c0.463,1.104,0.695,2.288,0.695,3.552v0.051C201.73,98.828,201.494,100.011,201.021,101.116z
			 M197.66,97.563c0-0.759-0.131-1.475-0.392-2.149c-0.262-0.674-0.633-1.264-1.113-1.77s-1.049-0.906-1.706-1.201
			c-0.658-0.295-1.374-0.442-2.149-0.442c-0.793,0-1.514,0.144-2.162,0.43c-0.648,0.287-1.205,0.683-1.669,1.188
			c-0.463,0.506-0.826,1.092-1.087,1.757c-0.262,0.667-0.392,1.379-0.392,2.137v0.051c0,0.759,0.13,1.476,0.392,2.149
			c0.261,0.674,0.632,1.264,1.112,1.77c0.48,0.506,1.045,0.906,1.694,1.201c0.648,0.295,1.369,0.442,2.162,0.442
			c0.774,0,1.491-0.143,2.148-0.43c0.658-0.286,1.218-0.683,1.682-1.188s0.826-1.091,1.088-1.757
			c0.261-0.666,0.392-1.378,0.392-2.137V97.563z"/>
		<path fill="#FFFFFF" d="M214.145,92.228v3.818h8.445v3.514h-8.445v6.853h-3.893V88.713h13.477v3.515H214.145z"/>
		<path fill="#FFFFFF" d="M231.895,106.413V88.713h13.324v3.464h-9.482v3.591h8.344v3.464h-8.344v3.717h9.609v3.464H231.895z"/>
		<path fill="#FFFFFF" d="M266.207,103.517c-0.318,0.684-0.762,1.257-1.33,1.72c-0.57,0.464-1.25,0.817-2.039,1.062
			c-0.789,0.245-1.664,0.367-2.625,0.367c-1.35,0-2.672-0.232-3.971-0.695c-1.299-0.464-2.479-1.176-3.539-2.137l2.301-2.756
			c0.809,0.657,1.639,1.18,2.49,1.567s1.783,0.582,2.793,0.582c0.811,0,1.438-0.147,1.885-0.442c0.445-0.295,0.67-0.704,0.67-1.227
			v-0.051c0-0.253-0.047-0.476-0.139-0.67c-0.094-0.193-0.271-0.375-0.533-0.544c-0.262-0.168-0.625-0.337-1.09-0.506
			c-0.465-0.168-1.07-0.345-1.813-0.53c-0.896-0.219-1.707-0.464-2.434-0.733c-0.729-0.27-1.344-0.603-1.852-0.999
			c-0.508-0.396-0.9-0.889-1.18-1.479c-0.277-0.59-0.418-1.323-0.418-2.2v-0.051c0-0.809,0.15-1.538,0.453-2.187
			c0.301-0.649,0.723-1.21,1.268-1.682s1.195-0.834,1.951-1.087c0.754-0.253,1.588-0.38,2.498-0.38c1.297,0,2.49,0.194,3.578,0.582
			c1.086,0.388,2.086,0.944,2.996,1.669l-2.023,2.933c-0.793-0.539-1.566-0.965-2.326-1.277c-0.758-0.312-1.518-0.468-2.275-0.468
			s-1.328,0.148-1.707,0.443s-0.568,0.661-0.568,1.1v0.051c0,0.286,0.055,0.535,0.164,0.745c0.111,0.211,0.309,0.401,0.596,0.569
			c0.287,0.169,0.682,0.329,1.18,0.48s1.127,0.328,1.889,0.531c0.896,0.235,1.693,0.501,2.396,0.796
			c0.701,0.295,1.291,0.649,1.773,1.063s0.846,0.897,1.09,1.453c0.246,0.557,0.369,1.223,0.369,1.998v0.051
			C266.686,102.055,266.525,102.834,266.207,103.517z"/>
		<path fill="#FFFFFF" d="M275.307,106.413V88.713h3.893v17.699H275.307z"/>
		<path fill="#FFFFFF" d="M306.002,101.116c-0.473,1.104-1.125,2.073-1.959,2.907c-0.836,0.835-1.83,1.492-2.984,1.973
			s-2.414,0.721-3.779,0.721s-2.621-0.24-3.768-0.721s-2.137-1.129-2.971-1.947c-0.836-0.817-1.484-1.778-1.947-2.882
			c-0.465-1.104-0.695-2.289-0.695-3.553v-0.051c0-1.264,0.236-2.448,0.707-3.553c0.473-1.104,1.125-2.073,1.961-2.907
			c0.834-0.835,1.828-1.492,2.982-1.973s2.416-0.721,3.781-0.721s2.619,0.24,3.766,0.721s2.137,1.13,2.973,1.947
			c0.834,0.817,1.482,1.778,1.945,2.883c0.465,1.104,0.695,2.288,0.695,3.552v0.051C306.709,98.828,306.473,100.011,306.002,101.116
			z M302.639,97.563c0-0.759-0.131-1.475-0.391-2.149c-0.262-0.674-0.633-1.264-1.113-1.77s-1.049-0.906-1.707-1.201
			S298.055,92,297.279,92c-0.793,0-1.514,0.144-2.162,0.43c-0.648,0.287-1.205,0.683-1.67,1.188
			c-0.463,0.506-0.826,1.092-1.086,1.757c-0.262,0.667-0.393,1.379-0.393,2.137v0.051c0,0.759,0.131,1.476,0.393,2.149
			c0.26,0.674,0.631,1.264,1.111,1.77s1.045,0.906,1.695,1.201c0.648,0.295,1.369,0.442,2.162,0.442c0.773,0,1.49-0.143,2.148-0.43
			c0.658-0.286,1.217-0.683,1.682-1.188c0.463-0.506,0.826-1.091,1.088-1.757c0.26-0.666,0.391-1.378,0.391-2.137V97.563z"/>
		<path fill="#FFFFFF" d="M327.645,106.413l-8.572-11.252v11.252h-3.842V88.713h3.59l8.293,10.897V88.713h3.844v17.699H327.645z"/>
		<path fill="#FFFFFF" d="M353.434,106.413l-1.617-3.97h-7.484l-1.619,3.97h-3.969l7.586-17.825h3.59l7.586,17.825H353.434z
			 M348.074,93.265l-2.352,5.739h4.703L348.074,93.265z"/>
		<path fill="#FFFFFF" d="M365.293,106.413V88.713h3.893v14.185h8.824v3.515H365.293z"/>
	</g>
	<rect x="21.605" y="88.79" fill="#FFFFFF" width="108.875" height="17.585"/>
</g>
</svg>
