<?xml version="1.0" encoding="utf-8"?>
<!-- Generator: Adobe Illustrator 16.0.0, SVG Export Plug-In . SVG Version: 6.00 Build 0)  -->
<!DOCTYPE svg PUBLIC "-//W3C//DTD SVG 1.1//EN" "http://www.w3.org/Graphics/SVG/1.1/DTD/svg11.dtd">
<svg version="1.1" id="Capa_1" xmlns="http://www.w3.org/2000/svg" xmlns:xlink="http://www.w3.org/1999/xlink" x="0px" y="0px"
	 width="400px" height="114.667px" viewBox="0 0 400 114.667" enable-background="new 0 0 400 114.667" xml:space="preserve">
<g>
	<g>
		<path fill="#FFFFFF" d="M23.155,57.586c-0.497,1.066-1.19,1.961-2.079,2.685c-0.889,0.724-1.95,1.276-3.182,1.657
			S15.296,62.5,13.796,62.5c-2.105,0-4.171-0.362-6.197-1.085c-2.026-0.724-3.868-1.836-5.525-3.335l3.591-4.303
			c1.263,1.026,2.559,1.843,3.888,2.447c1.329,0.605,2.783,0.908,4.361,0.908c1.263,0,2.243-0.23,2.94-0.691
			c0.697-0.46,1.046-1.098,1.046-1.914v-0.079c0-0.395-0.073-0.743-0.218-1.046c-0.146-0.302-0.422-0.585-0.831-0.849
			c-0.409-0.263-0.977-0.525-1.702-0.789c-0.726-0.263-1.669-0.539-2.83-0.829c-1.398-0.341-2.665-0.723-3.799-1.145
			c-1.135-0.42-2.097-0.94-2.889-1.559s-1.405-1.388-1.84-2.309c-0.436-0.92-0.653-2.065-0.653-3.434v-0.079
			c0-1.263,0.235-2.4,0.706-3.414c0.471-1.012,1.13-1.887,1.98-2.625c0.85-0.736,1.864-1.302,3.044-1.697
			c1.179-0.395,2.479-0.592,3.9-0.592c2.026,0,3.888,0.303,5.585,0.908c1.697,0.605,3.256,1.474,4.677,2.605l-3.158,4.578
			c-1.237-0.842-2.447-1.506-3.631-1.993c-1.184-0.486-2.368-0.73-3.552-0.73s-2.072,0.23-2.664,0.691
			c-0.592,0.46-0.888,1.033-0.888,1.717v0.079c0,0.448,0.086,0.836,0.257,1.165c0.171,0.329,0.481,0.625,0.93,0.888
			c0.448,0.263,1.062,0.513,1.84,0.75c0.778,0.237,1.761,0.513,2.949,0.829c1.398,0.369,2.644,0.783,3.74,1.243
			c1.094,0.46,2.018,1.013,2.77,1.658c0.751,0.645,1.319,1.4,1.701,2.269s0.574,1.908,0.574,3.118v0.079
			C23.9,55.304,23.651,56.521,23.155,57.586z"/>
		<path fill="#FFFFFF" d="M56.225,53.837c-0.737,1.724-1.756,3.236-3.059,4.539c-1.303,1.302-2.855,2.328-4.657,3.078
			c-1.803,0.75-3.77,1.125-5.901,1.125s-4.092-0.375-5.88-1.125c-1.79-0.75-3.335-1.763-4.638-3.039
			c-1.303-1.275-2.316-2.775-3.039-4.499c-0.724-1.724-1.085-3.572-1.085-5.545v-0.079c0-1.973,0.368-3.822,1.105-5.545
			c0.736-1.723,1.756-3.236,3.059-4.539c1.302-1.303,2.854-2.329,4.657-3.079c1.802-0.75,3.769-1.125,5.9-1.125
			s4.091,0.375,5.881,1.125c1.789,0.75,3.335,1.763,4.637,3.039c1.303,1.276,2.315,2.776,3.039,4.5
			c0.724,1.724,1.085,3.572,1.085,5.545v0.079C57.33,50.265,56.961,52.114,56.225,53.837z M50.975,48.292
			c0-1.184-0.204-2.302-0.611-3.354c-0.409-1.052-0.987-1.974-1.737-2.763c-0.75-0.789-1.638-1.414-2.664-1.875
			c-1.026-0.46-2.145-0.691-3.355-0.691c-1.237,0-2.362,0.224-3.375,0.671c-1.013,0.448-1.881,1.066-2.605,1.855
			c-0.724,0.789-1.289,1.704-1.697,2.743c-0.408,1.04-0.612,2.151-0.612,3.335v0.079c0,1.184,0.204,2.303,0.612,3.355
			c0.408,1.053,0.986,1.974,1.736,2.763s1.631,1.415,2.645,1.875c1.013,0.46,2.137,0.69,3.375,0.69c1.21,0,2.329-0.224,3.355-0.671
			c1.026-0.447,1.9-1.065,2.625-1.855c0.723-0.789,1.289-1.703,1.697-2.742c0.407-1.04,0.611-2.151,0.611-3.335V48.292z"/>
		<path fill="#FFFFFF" d="M81.326,62.105l-13.38-17.563v17.563h-5.999V34.478h5.604l12.945,17.011V34.478h6v27.628H81.326z"/>
		<path fill="#FFFFFF" d="M120.163,53.837c-0.737,1.724-1.756,3.236-3.059,4.539c-1.303,1.302-2.855,2.328-4.657,3.078
			c-1.803,0.75-3.77,1.125-5.901,1.125s-4.092-0.375-5.88-1.125c-1.79-0.75-3.335-1.763-4.638-3.039
			c-1.303-1.275-2.316-2.775-3.039-4.499c-0.724-1.724-1.085-3.572-1.085-5.545v-0.079c0-1.973,0.368-3.822,1.105-5.545
			c0.736-1.723,1.756-3.236,3.059-4.539c1.302-1.303,2.854-2.329,4.657-3.079c1.802-0.75,3.769-1.125,5.9-1.125
			s4.091,0.375,5.881,1.125c1.789,0.75,3.335,1.763,4.637,3.039c1.303,1.276,2.315,2.776,3.039,4.5
			c0.724,1.724,1.085,3.572,1.085,5.545v0.079C121.268,50.265,120.899,52.114,120.163,53.837z M114.913,48.292
			c0-1.184-0.204-2.302-0.611-3.354c-0.409-1.052-0.987-1.974-1.737-2.763c-0.75-0.789-1.638-1.414-2.664-1.875
			c-1.026-0.46-2.145-0.691-3.355-0.691c-1.237,0-2.362,0.224-3.375,0.671c-1.013,0.448-1.881,1.066-2.605,1.855
			c-0.724,0.789-1.289,1.704-1.697,2.743c-0.408,1.04-0.612,2.151-0.612,3.335v0.079c0,1.184,0.204,2.303,0.612,3.355
			c0.408,1.053,0.986,1.974,1.736,2.763s1.631,1.415,2.645,1.875c1.013,0.46,2.137,0.69,3.375,0.69c1.21,0,2.329-0.224,3.355-0.671
			c1.026-0.447,1.9-1.065,2.625-1.855c0.723-0.789,1.289-1.703,1.697-2.742c0.407-1.04,0.611-2.151,0.611-3.335V48.292z"/>
		<path fill="#FFFFFF" d="M143.448,62.105l-5.92-8.841h-4.775v8.841h-6.078V34.478h12.63c3.289,0,5.847,0.803,7.676,2.408
			c1.829,1.605,2.743,3.842,2.743,6.709v0.079c0,2.237-0.546,4.059-1.638,5.467c-1.092,1.407-2.52,2.44-4.283,3.098l6.75,9.867
			H143.448z M143.566,43.911c0-1.315-0.421-2.302-1.263-2.96c-0.842-0.658-2.013-0.987-3.513-0.987h-6.039v7.933h6.157
			c1.5,0,2.651-0.355,3.454-1.066c0.802-0.71,1.204-1.657,1.204-2.841V43.911z"/>
		<path fill="#FFFFFF" d="M155.486,62.105V34.478h6.078v27.628H155.486z"/>
		<path fill="#FFFFFF" d="M167.642,62.105v-4.618l15.195-17.681h-14.722v-5.329h22.536v4.618l-15.194,17.682h15.194v5.328H167.642z"
			/>
		<path fill="#FFFFFF" d="M216.976,62.105l-2.525-6.196h-11.683l-2.526,6.196h-6.196l11.84-27.825h5.604l11.84,27.825H216.976z
			 M208.608,41.582l-3.67,8.959h7.341L208.608,41.582z"/>
		<path fill="#FFFFFF" d="M249.655,59.698c-0.764,0.605-1.599,1.124-2.506,1.559c-0.908,0.435-1.901,0.764-2.98,0.986
			c-1.079,0.224-2.289,0.336-3.631,0.336c-2.026,0-3.907-0.369-5.644-1.105c-1.737-0.736-3.236-1.742-4.5-3.019
			c-1.263-1.276-2.249-2.783-2.96-4.52c-0.71-1.736-1.065-3.592-1.065-5.565v-0.079c0-1.973,0.355-3.822,1.065-5.545
			c0.711-1.723,1.697-3.236,2.96-4.539c1.264-1.303,2.776-2.329,4.539-3.079s3.71-1.125,5.842-1.125
			c1.288,0,2.467,0.105,3.532,0.316c1.065,0.211,2.032,0.5,2.9,0.868c0.869,0.369,1.671,0.816,2.408,1.342
			c0.736,0.526,1.421,1.105,2.052,1.736l-3.867,4.46c-1.079-0.973-2.178-1.737-3.296-2.289c-1.119-0.553-2.375-0.829-3.77-0.829
			c-1.158,0-2.229,0.224-3.217,0.671c-0.986,0.448-1.835,1.066-2.545,1.855c-0.711,0.789-1.264,1.704-1.658,2.743
			c-0.395,1.04-0.592,2.151-0.592,3.335v0.079c0,1.184,0.197,2.303,0.592,3.355c0.395,1.053,0.94,1.974,1.638,2.763
			s1.54,1.415,2.526,1.875s2.072,0.69,3.256,0.69c1.579,0,2.914-0.289,4.006-0.868c1.092-0.578,2.178-1.368,3.257-2.368l3.867,3.907
			C251.155,58.409,250.418,59.093,249.655,59.698z"/>
		<path fill="#FFFFFF" d="M256.997,62.105V34.478h6.078v27.628H256.997z"/>
		<path fill="#FFFFFF" d="M297.017,53.837c-0.736,1.724-1.756,3.236-3.059,4.539c-1.302,1.302-2.855,2.328-4.657,3.078
			c-1.803,0.75-3.769,1.125-5.9,1.125c-2.131,0-4.092-0.375-5.881-1.125s-3.335-1.763-4.638-3.039
			c-1.302-1.275-2.315-2.775-3.039-4.499s-1.085-3.572-1.085-5.545v-0.079c0-1.973,0.368-3.822,1.105-5.545
			c0.736-1.723,1.756-3.236,3.059-4.539c1.303-1.303,2.854-2.329,4.657-3.079c1.802-0.75,3.77-1.125,5.9-1.125
			s4.091,0.375,5.881,1.125c1.789,0.75,3.335,1.763,4.638,3.039c1.302,1.276,2.314,2.776,3.039,4.5
			c0.723,1.724,1.085,3.572,1.085,5.545v0.079C298.122,50.265,297.753,52.114,297.017,53.837z M291.768,48.292
			c0-1.184-0.204-2.302-0.611-3.354c-0.408-1.052-0.987-1.974-1.736-2.763c-0.75-0.789-1.639-1.414-2.665-1.875
			c-1.025-0.46-2.145-0.691-3.354-0.691c-1.237,0-2.361,0.224-3.374,0.671c-1.014,0.448-1.882,1.066-2.605,1.855
			c-0.724,0.789-1.289,1.704-1.697,2.743c-0.408,1.04-0.611,2.151-0.611,3.335v0.079c0,1.184,0.203,2.303,0.611,3.355
			c0.408,1.053,0.987,1.974,1.737,2.763s1.631,1.415,2.644,1.875s2.138,0.69,3.375,0.69c1.21,0,2.329-0.224,3.354-0.671
			c1.026-0.447,1.901-1.065,2.625-1.855c0.724-0.789,1.289-1.703,1.697-2.742c0.407-1.04,0.611-2.151,0.611-3.335V48.292z
			 M281.309,32.307l4.46-6.986l5.171,2.25l-5.053,4.736H281.309z"/>
		<path fill="#FFFFFF" d="M322.908,62.105l-13.38-17.563v17.563h-5.999V34.478h5.604l12.945,17.011V34.478h5.999v27.628H322.908z"/>
		<path fill="#FFFFFF" d="M61.818,85.365v-16.1h12.121v3.15h-8.625v3.268h7.59v3.15h-7.59v3.381h8.74v3.15H61.818z"/>
		<path fill="#FFFFFF" d="M85.485,85.48h-3.128l-6.509-16.215h3.91l4.209,11.34l4.209-11.34h3.818L85.485,85.48z"/>
		<path fill="#FFFFFF" d="M94.478,85.365v-16.1h12.121v3.15h-8.625v3.268h7.59v3.15h-7.59v3.381h8.74v3.15H94.478z"/>
		<path fill="#FFFFFF" d="M121.181,85.365l-7.797-10.234v10.234h-3.496v-16.1h3.266l7.544,9.914v-9.914h3.496v16.1H121.181z"/>
		<path fill="#FFFFFF" d="M135.349,72.531v12.834h-3.542V72.531h-4.899v-3.266h13.34v3.266H135.349z"/>
		<path fill="#FFFFFF" d="M158.716,80.546c-0.43,1.004-1.023,1.887-1.783,2.645c-0.759,0.76-1.664,1.357-2.714,1.795
			s-2.196,0.656-3.438,0.656s-2.384-0.219-3.427-0.656c-1.043-0.438-1.944-1.027-2.703-1.771c-0.759-0.744-1.35-1.617-1.771-2.621
			c-0.422-1.004-0.632-2.082-0.632-3.232v-0.045c0-1.15,0.214-2.229,0.644-3.232s1.024-1.887,1.783-2.645
			c0.759-0.76,1.664-1.357,2.714-1.795c1.05-0.436,2.197-0.654,3.438-0.654c1.242,0,2.384,0.219,3.427,0.654
			c1.042,0.438,1.943,1.027,2.703,1.771c0.759,0.744,1.349,1.617,1.771,2.623c0.421,1.004,0.632,2.08,0.632,3.23v0.047
			C159.36,78.464,159.146,79.542,158.716,80.546z M155.657,77.316c0-0.691-0.119-1.342-0.356-1.955s-0.575-1.15-1.012-1.611
			c-0.437-0.459-0.954-0.824-1.552-1.092s-1.25-0.402-1.955-0.402c-0.721,0-1.376,0.131-1.966,0.391
			c-0.591,0.262-1.097,0.621-1.518,1.082c-0.422,0.459-0.751,0.992-0.989,1.598s-0.356,1.254-0.356,1.943v0.047
			c0,0.689,0.119,1.342,0.356,1.955s0.575,1.148,1.012,1.609c0.437,0.459,0.951,0.824,1.541,1.092
			c0.59,0.27,1.246,0.402,1.966,0.402c0.705,0,1.357-0.129,1.955-0.391c0.598-0.26,1.107-0.621,1.53-1.08
			c0.421-0.461,0.751-0.994,0.989-1.6s0.356-1.254,0.356-1.943V77.316z"/>
		<path fill="#FFFFFF" d="M173.715,82.732c-0.29,0.621-0.693,1.143-1.211,1.564s-1.136,0.744-1.854,0.965
			c-0.718,0.223-1.514,0.334-2.388,0.334c-1.227,0-2.431-0.211-3.611-0.633s-2.254-1.068-3.22-1.943l2.093-2.506
			c0.736,0.598,1.491,1.072,2.266,1.426c0.774,0.352,1.622,0.527,2.542,0.527c0.736,0,1.307-0.133,1.713-0.402
			c0.406-0.268,0.61-0.639,0.61-1.115v-0.045c0-0.23-0.042-0.434-0.127-0.609c-0.085-0.178-0.246-0.342-0.484-0.496
			c-0.238-0.152-0.569-0.305-0.992-0.459c-0.423-0.152-0.973-0.314-1.649-0.482c-0.815-0.199-1.553-0.422-2.214-0.668
			c-0.662-0.244-1.222-0.547-1.684-0.908c-0.461-0.359-0.818-0.809-1.072-1.346s-0.38-1.203-0.38-2v-0.047
			c0-0.736,0.137-1.398,0.411-1.99c0.274-0.59,0.659-1.1,1.154-1.529c0.495-0.428,1.086-0.758,1.774-0.988
			c0.687-0.23,1.445-0.346,2.273-0.346c1.181,0,2.266,0.178,3.254,0.529c0.989,0.354,1.897,0.859,2.726,1.518l-1.84,2.668
			c-0.721-0.49-1.426-0.877-2.116-1.16s-1.38-0.426-2.07-0.426s-1.208,0.135-1.553,0.402c-0.345,0.268-0.518,0.602-0.518,1v0.047
			c0,0.26,0.05,0.486,0.15,0.678c0.1,0.191,0.28,0.365,0.542,0.518c0.261,0.154,0.619,0.299,1.072,0.438
			c0.454,0.137,1.026,0.299,1.718,0.482c0.815,0.215,1.541,0.457,2.179,0.725s1.176,0.59,1.615,0.967
			c0.438,0.375,0.769,0.816,0.991,1.322s0.334,1.111,0.334,1.816v0.047C174.149,81.402,174.004,82.111,173.715,82.732z"/>
		<path fill="#FFFFFF" d="M192.204,78.949v6.416h-3.542v-6.348l-6.187-9.752h4.14l3.841,6.463l3.91-6.463h4.025L192.204,78.949z"/>
		<path fill="#FFFFFF" d="M207.497,85.365v-16.1h12.121v3.15h-8.625v3.268h7.59v3.15h-7.59v3.381h8.74v3.15H207.497z"/>
		<path fill="#FFFFFF" d="M234.111,82.732c-0.289,0.621-0.693,1.143-1.211,1.564c-0.519,0.422-1.137,0.744-1.854,0.965
			c-0.719,0.223-1.515,0.334-2.389,0.334c-1.227,0-2.43-0.211-3.61-0.633c-1.182-0.422-2.254-1.068-3.221-1.943l2.094-2.506
			c0.735,0.598,1.49,1.072,2.266,1.426c0.773,0.352,1.621,0.527,2.541,0.527c0.736,0,1.307-0.133,1.714-0.402
			c0.405-0.268,0.609-0.639,0.609-1.115v-0.045c0-0.23-0.043-0.434-0.127-0.609c-0.085-0.178-0.246-0.342-0.484-0.496
			c-0.238-0.152-0.569-0.305-0.992-0.459c-0.423-0.152-0.972-0.314-1.648-0.482c-0.815-0.199-1.553-0.422-2.214-0.668
			c-0.661-0.244-1.223-0.547-1.684-0.908c-0.461-0.359-0.818-0.809-1.072-1.346s-0.381-1.203-0.381-2v-0.047
			c0-0.736,0.138-1.398,0.411-1.99c0.274-0.59,0.659-1.1,1.154-1.529c0.495-0.428,1.086-0.758,1.773-0.988s1.445-0.346,2.273-0.346
			c1.181,0,2.266,0.178,3.255,0.529c0.988,0.354,1.897,0.859,2.726,1.518l-1.841,2.668c-0.721-0.49-1.426-0.877-2.115-1.16
			c-0.69-0.283-1.381-0.426-2.07-0.426c-0.69,0-1.208,0.135-1.553,0.402s-0.518,0.602-0.518,1v0.047c0,0.26,0.05,0.486,0.15,0.678
			c0.1,0.191,0.28,0.365,0.542,0.518c0.261,0.154,0.618,0.299,1.072,0.438c0.453,0.137,1.025,0.299,1.718,0.482
			c0.814,0.215,1.541,0.457,2.18,0.725c0.638,0.268,1.176,0.59,1.614,0.967c0.438,0.375,0.769,0.816,0.991,1.322
			s0.335,1.111,0.335,1.816v0.047C234.546,81.402,234.4,82.111,234.111,82.732z"/>
		<path fill="#FFFFFF" d="M249.863,77.337c-0.338,0.707-0.802,1.297-1.392,1.771c-0.59,0.477-1.28,0.832-2.07,1.07
			c-0.789,0.238-1.637,0.355-2.541,0.355h-2.691v4.83h-3.542v-16.1h6.578c0.966,0,1.829,0.135,2.588,0.402
			c0.759,0.27,1.403,0.648,1.932,1.139c0.529,0.49,0.936,1.078,1.219,1.76c0.284,0.682,0.426,1.438,0.426,2.266v0.045
			C250.369,75.812,250.2,76.632,249.863,77.337z M246.781,74.9c0-0.797-0.257-1.402-0.771-1.816s-1.216-0.621-2.104-0.621h-2.737
			v4.922h2.807c0.889,0,1.579-0.234,2.069-0.701c0.491-0.469,0.736-1.047,0.736-1.736V74.9z"/>
		<path fill="#FFFFFF" d="M252.991,85.365v-16.1h12.121v3.15h-8.625v3.268h7.59v3.15h-7.59v3.381h8.74v3.15H252.991z"/>
		<path fill="#FFFFFF" d="M281.259,83.962c-0.445,0.354-0.932,0.656-1.461,0.908c-0.528,0.254-1.107,0.445-1.736,0.574
			c-0.629,0.131-1.334,0.197-2.116,0.197c-1.181,0-2.276-0.215-3.289-0.645c-1.012-0.43-1.886-1.016-2.621-1.76
			c-0.736-0.744-1.312-1.621-1.726-2.633c-0.414-1.014-0.621-2.094-0.621-3.244v-0.045c0-1.15,0.207-2.229,0.621-3.232
			s0.989-1.887,1.726-2.645c0.735-0.76,1.617-1.357,2.645-1.795c1.027-0.436,2.162-0.654,3.404-0.654
			c0.751,0,1.438,0.061,2.059,0.184s1.185,0.291,1.69,0.506s0.974,0.475,1.402,0.781c0.43,0.309,0.828,0.645,1.196,1.014
			l-2.254,2.598c-0.629-0.566-1.269-1.012-1.921-1.334c-0.651-0.322-1.384-0.482-2.196-0.482c-0.675,0-1.3,0.131-1.874,0.391
			c-0.575,0.262-1.069,0.621-1.483,1.082c-0.414,0.459-0.736,0.992-0.967,1.598c-0.229,0.605-0.345,1.254-0.345,1.943v0.047
			c0,0.689,0.115,1.342,0.345,1.955c0.23,0.613,0.549,1.148,0.955,1.609c0.406,0.459,0.896,0.824,1.472,1.092
			c0.575,0.27,1.208,0.402,1.897,0.402c0.92,0,1.698-0.168,2.335-0.506c0.636-0.336,1.269-0.797,1.897-1.379l2.254,2.277
			C282.133,83.21,281.703,83.609,281.259,83.962z"/>
		<path fill="#FFFFFF" d="M292.666,72.531v12.834h-3.542V72.531h-4.898v-3.266h13.34v3.266H292.666z"/>
		<path fill="#FFFFFF" d="M312.263,85.365l-1.472-3.611h-6.809l-1.472,3.611h-3.611l6.9-16.215h3.266l6.9,16.215H312.263z
			 M307.387,73.406l-2.139,5.221h4.277L307.387,73.406z M305.961,68l2.599-4.07l3.013,1.311L308.629,68H305.961z"/>
		<path fill="#FFFFFF" d="M331.307,83.962c-0.445,0.354-0.932,0.656-1.461,0.908c-0.528,0.254-1.107,0.445-1.736,0.574
			c-0.629,0.131-1.334,0.197-2.116,0.197c-1.181,0-2.276-0.215-3.289-0.645c-1.012-0.43-1.886-1.016-2.621-1.76
			c-0.736-0.744-1.312-1.621-1.726-2.633c-0.414-1.014-0.621-2.094-0.621-3.244v-0.045c0-1.15,0.207-2.229,0.621-3.232
			s0.989-1.887,1.726-2.645c0.735-0.76,1.617-1.357,2.645-1.795c1.027-0.436,2.162-0.654,3.404-0.654
			c0.751,0,1.438,0.061,2.059,0.184s1.185,0.291,1.69,0.506s0.974,0.475,1.402,0.781c0.43,0.309,0.828,0.645,1.196,1.014
			l-2.254,2.598c-0.629-0.566-1.269-1.012-1.921-1.334c-0.651-0.322-1.384-0.482-2.196-0.482c-0.675,0-1.3,0.131-1.874,0.391
			c-0.575,0.262-1.069,0.621-1.483,1.082c-0.414,0.459-0.736,0.992-0.967,1.598c-0.229,0.605-0.345,1.254-0.345,1.943v0.047
			c0,0.689,0.115,1.342,0.345,1.955c0.23,0.613,0.549,1.148,0.955,1.609c0.406,0.459,0.896,0.824,1.472,1.092
			c0.575,0.27,1.208,0.402,1.897,0.402c0.92,0,1.698-0.168,2.335-0.506c0.636-0.336,1.269-0.797,1.897-1.379l2.254,2.277
			C332.181,83.21,331.751,83.609,331.307,83.962z"/>
		<path fill="#FFFFFF" d="M348.706,81.546c-0.33,0.906-0.802,1.66-1.415,2.266c-0.613,0.607-1.356,1.059-2.23,1.357
			s-1.849,0.449-2.921,0.449c-2.162,0-3.864-0.598-5.106-1.795c-1.242-1.195-1.863-2.982-1.863-5.359v-9.199h3.542v9.107
			c0,1.32,0.307,2.313,0.92,2.979c0.613,0.668,1.465,1.002,2.554,1.002c1.088,0,1.939-0.322,2.553-0.967s0.92-1.609,0.92-2.898
			v-9.223h3.542v9.086C349.2,79.578,349.035,80.642,348.706,81.546z"/>
		<path fill="#FFFFFF" d="M352.811,85.365v-16.1h3.542v12.902h8.027v3.197H352.811z"/>
		<path fill="#FFFFFF" d="M382.803,80.546c-0.429,1.004-1.023,1.887-1.782,2.645c-0.759,0.76-1.664,1.357-2.714,1.795
			c-1.051,0.438-2.196,0.656-3.438,0.656s-2.385-0.219-3.427-0.656c-1.043-0.438-1.943-1.027-2.703-1.771
			c-0.759-0.744-1.349-1.617-1.771-2.621s-0.633-2.082-0.633-3.232v-0.045c0-1.15,0.215-2.229,0.645-3.232
			c0.429-1.004,1.023-1.887,1.782-2.645c0.759-0.76,1.663-1.357,2.714-1.795c1.05-0.436,2.196-0.654,3.438-0.654
			s2.384,0.219,3.427,0.654c1.043,0.438,1.944,1.027,2.703,1.771s1.349,1.617,1.771,2.623c0.422,1.004,0.633,2.08,0.633,3.23v0.047
			C383.447,78.464,383.232,79.542,382.803,80.546z M379.744,77.316c0-0.691-0.119-1.342-0.356-1.955
			c-0.238-0.613-0.575-1.15-1.012-1.611c-0.438-0.459-0.955-0.824-1.553-1.092s-1.25-0.402-1.955-0.402
			c-0.721,0-1.376,0.131-1.967,0.391c-0.59,0.262-1.096,0.621-1.518,1.082c-0.422,0.459-0.752,0.992-0.989,1.598
			s-0.356,1.254-0.356,1.943v0.047c0,0.689,0.119,1.342,0.356,1.955s0.575,1.148,1.012,1.609c0.438,0.459,0.951,0.824,1.541,1.092
			c0.591,0.27,1.246,0.402,1.967,0.402c0.705,0,1.357-0.129,1.955-0.391c0.598-0.26,1.107-0.621,1.529-1.08
			c0.422-0.461,0.751-0.994,0.989-1.6c0.237-0.605,0.356-1.254,0.356-1.943V77.316z"/>
		<path fill="#FFFFFF" d="M397.802,82.732c-0.289,0.621-0.693,1.143-1.211,1.564c-0.519,0.422-1.137,0.744-1.854,0.965
			c-0.719,0.223-1.515,0.334-2.389,0.334c-1.227,0-2.43-0.211-3.61-0.633c-1.182-0.422-2.254-1.068-3.221-1.943l2.094-2.506
			c0.735,0.598,1.49,1.072,2.266,1.426c0.773,0.352,1.621,0.527,2.541,0.527c0.736,0,1.307-0.133,1.714-0.402
			c0.405-0.268,0.609-0.639,0.609-1.115v-0.045c0-0.23-0.043-0.434-0.127-0.609c-0.085-0.178-0.246-0.342-0.484-0.496
			c-0.238-0.152-0.569-0.305-0.992-0.459c-0.423-0.152-0.972-0.314-1.648-0.482c-0.815-0.199-1.553-0.422-2.214-0.668
			c-0.661-0.244-1.223-0.547-1.684-0.908c-0.461-0.359-0.818-0.809-1.072-1.346s-0.381-1.203-0.381-2v-0.047
			c0-0.736,0.138-1.398,0.411-1.99c0.274-0.59,0.659-1.1,1.154-1.529c0.495-0.428,1.086-0.758,1.773-0.988s1.445-0.346,2.273-0.346
			c1.181,0,2.266,0.178,3.255,0.529c0.988,0.354,1.897,0.859,2.726,1.518l-1.841,2.668c-0.721-0.49-1.426-0.877-2.115-1.16
			c-0.69-0.283-1.381-0.426-2.07-0.426c-0.69,0-1.208,0.135-1.553,0.402s-0.518,0.602-0.518,1v0.047c0,0.26,0.05,0.486,0.15,0.678
			c0.1,0.191,0.28,0.365,0.542,0.518c0.261,0.154,0.618,0.299,1.072,0.438c0.453,0.137,1.025,0.299,1.718,0.482
			c0.814,0.215,1.541,0.457,2.18,0.725c0.638,0.268,1.176,0.59,1.614,0.967c0.438,0.375,0.769,0.816,0.991,1.322
			s0.335,1.111,0.335,1.816v0.047C398.236,81.402,398.091,82.111,397.802,82.732z"/>
	</g>
	<g>
		<rect x="3.674" y="69.439" fill="#FFFFFF" width="51.25" height="15.855"/>
	</g>
	<g>
		<path fill="#FFFFFF" d="M343.74,59.093c-0.252,0.598-0.609,1.115-1.072,1.554c-0.461,0.438-1.012,0.784-1.65,1.036
			c-0.641,0.252-1.342,0.378-2.107,0.378h-3.822v-9.8h3.822c0.766,0,1.467,0.124,2.107,0.371c0.639,0.247,1.189,0.59,1.65,1.028
			c0.463,0.439,0.82,0.955,1.072,1.548s0.377,1.234,0.377,1.925v0.027C344.117,57.852,343.992,58.495,343.74,59.093z M341.863,57.16
			c0-0.429-0.072-0.825-0.217-1.189s-0.346-0.677-0.602-0.938c-0.258-0.261-0.566-0.464-0.932-0.608
			c-0.363-0.145-0.766-0.217-1.203-0.217h-1.666v5.907h1.666c0.438,0,0.84-0.069,1.203-0.21c0.365-0.14,0.674-0.341,0.932-0.602
			c0.256-0.262,0.457-0.569,0.602-0.924s0.217-0.752,0.217-1.19V57.16z"/>
		<path fill="#FFFFFF" d="M346.596,62.061v-9.8h7.377v1.918h-5.25v1.988h4.621v1.918h-4.621v2.058h5.32v1.918H346.596z"/>
	</g>
</g>
</svg>
