<svg xmlns="http://www.w3.org/2000/svg" width="400" height="400"><g fill="#fff"><path d="M139.786 268.048c-1.997 0-3.81-1.354-4.3-3.38-.588-2.383.867-4.8 3.25-5.378l53.536-13.208c2.384-.585 4.8.867 5.377 3.25s-.867 4.8-3.25 5.378l-53.535 13.208c-.357.088-.716.13-1.068.13zm.45-11.968c-.04 0-.08-.001-.118-.002-2.453-.063-4.4-2.104-4.326-4.557.397-15.3-9.522-31.28-18.938-41.136-9.815-10.274-16.745-22.777-17.035-23.304l-.065-.123c-6-11.56-8.89-24.047-8.89-37.11 0-45.056 36.657-81.71 81.715-81.71 32.913 0 62.465 19.588 75.287 49.904.956 2.26-.1 4.867-2.36 5.823s-4.867-.102-5.823-2.36c-11.428-27.02-37.768-44.48-67.104-44.48-40.158 0-72.83 32.67-72.83 72.826 0 11.62 2.653 22.724 7.886 33.002.498.9 6.965 12.31 15.646 21.397 10.65 11.148 21.863 29.482 21.395 47.506-.063 2.412-2.04 4.326-4.44 4.326zm-2.886 35.012c-1.955 0-3.745-1.3-4.284-3.276-.646-2.367.75-4.8 3.12-5.455l56.082-15.28c2.366-.642 4.81.753 5.454 3.12s-.75 4.8-3.12 5.455l-56.082 15.28a4.47 4.47 0 0 1-1.17.157zm0 23.486c-1.955 0-3.745-1.3-4.284-3.276-.646-2.367.75-4.8 3.118-5.455l55.862-15.224c2.368-.64 4.8.752 5.455 3.12s-.75 4.8-3.118 5.455l-55.862 15.224c-.392.105-.785.157-1.17.157zm24.383-73a4.48 4.48 0 0 1-.54-.033c-2.435-.295-4.17-2.506-3.877-4.94.033-.28 3.167-28.315-10.617-55.054-.6-1.166-.656-2.537-.15-3.748a4.45 4.45 0 0 1 2.771-2.528c5.882-1.844 19.015-1.388 26.624 13.525 1.115 2.185.248 4.86-1.938 5.977s-4.86.248-5.977-1.938c-3.177-6.226-7.257-8.475-10.51-9.178 11.695 27.11 8.76 52.846 8.62 54.008-.272 2.253-2.19 3.908-4.404 3.908z"/><path d="M182.238 241.678c-2.214 0-4.13-1.654-4.405-3.908-.14-1.162-3.073-26.887 8.613-53.988-3.264.708-7.34 2.96-10.5 9.157-1.115 2.186-3.8 3.054-5.976 1.94s-3.054-3.79-1.938-5.977c7.607-14.914 20.74-15.366 26.623-13.525a4.44 4.44 0 0 1 2.62 6.276c-13.84 26.843-10.653 54.77-10.62 55.048.295 2.436-1.44 4.65-3.876 4.944a4.32 4.32 0 0 1-.541.034zm-9.66-185.92c-2.454 0-4.442-1.99-4.442-4.443v-35.9c0-2.454 1.99-4.443 4.442-4.443s4.442 1.99 4.442 4.443v35.9a4.44 4.44 0 0 1-4.442 4.443zM104.93 90.656a4.42 4.42 0 0 1-2.648-.878L73.55 68.402c-1.968-1.465-2.377-4.248-.913-6.217s4.248-2.377 6.216-.913l28.732 21.376c1.97 1.465 2.377 4.248.913 6.217-.872 1.172-2.21 1.79-3.568 1.79zm135.307 0c-1.357 0-2.696-.62-3.568-1.79-1.465-1.97-1.056-4.752.912-6.217l28.733-21.376c1.97-1.465 4.752-1.055 6.216.913s1.056 4.752-.912 6.217l-28.733 21.376c-.797.592-1.727.878-2.648.878zM75.266 152.902H38.48c-2.454 0-4.442-1.99-4.442-4.442s1.99-4.443 4.442-4.443h36.787c2.454 0 4.442 1.99 4.442 4.443s-1.99 4.442-4.442 4.442zm-18.392 88.776c-1.28 0-2.547-.55-3.426-1.61-1.564-1.89-1.3-4.7.59-6.256l30.803-25.483c1.89-1.563 4.7-1.3 6.255.592s1.3 4.7-.59 6.256L59.703 240.66c-.828.684-1.832 1.02-2.83 1.02zm304.52-120.558v5.212l.184 192.416c.19 22.326-13.135 35.37-32.46 39.964-4.165.99-8.29 1.53-12.36 1.53-7.194 0-14.227-1.682-21.033-5.517-12.598-7.1-16.586-23.534-9.053-35.845 8.172-13.354 25.282-20.91 40.476-20.907 3.714 0 7.315.45 10.642 1.38 1.16.32 2.347.554 3.803.894V177.862l-19.435 3.438-79 14.703-5.436.868c-6.947 1.08-5.9.254-5.925 6.866l-.4 143.214c-.013 14.9-7.584 24.862-20.045 31.65-7.403 4.034-15.077 6.043-22.898 6.043-5.214 0-10.496-.894-15.803-2.674-22.527-7.554-24.502-29.618-10.78-44 9.694-10.16 21.226-14.81 34.06-14.81 4.093 0 8.317.474 12.658 1.392.933.198 1.89.25 3.265.426l-.103-174.99c-.008-3.85 1.023-5.208 4.81-5.796l92.02-14.678 48.157-7.855c1.31-.214 2.637-.308 4.657-.54m0-8.886a8.82 8.82 0 0 0-1.013.058l-1.797.193-3.286.407-59.465 9.675-80.642 12.846c-5.635.876-12.348 4.12-12.326 14.594l.102 164.657a65.71 65.71 0 0 0-7.038-.388c-15.746 0-29.368 5.907-40.488 17.562-9.228 9.67-13.02 22.378-10.145 34 2.845 11.493 11.556 20.217 24.528 24.566 6.2 2.08 12.467 3.135 18.627 3.135 9.34 0 18.473-2.397 27.15-7.126 16.36-8.912 24.662-22.184 24.677-39.444l.395-141.55 4.104-.668 78.997-14.704 8.93-1.604v100.946c-1.812-.193-3.668-.29-5.56-.29-19.536-.001-38.85 10.107-48.056 25.155-4.905 8.017-6.356 17.856-3.98 26.998 2.37 9.118 8.14 16.656 16.25 21.226a51.13 51.13 0 0 0 25.396 6.66c4.63 0 9.48-.596 14.42-1.77 11.897-2.827 21.392-8.268 28.216-16.168 7.457-8.633 11.183-19.572 11.072-32.515l-.24-137.784.056-59.77c0-2.533-1.08-4.945-2.97-6.632-1.636-1.458-3.746-2.253-5.914-2.253z"/><path d="M361.395 121.12v5.212l.184 192.416c.19 22.326-13.135 35.37-32.46 39.964-4.164 1-8.29 1.53-12.36 1.53-7.195 0-14.226-1.682-21.033-5.517-12.598-7.1-16.586-23.534-9.053-35.845 8.17-13.354 25.283-20.907 40.476-20.907 3.715 0 7.314.45 10.642 1.38 1.16.32 2.347.554 3.803.894V177.862l-19.435 3.438-79 14.703-5.436.868c-6.947 1.08-5.9.254-5.925 6.866l-.4 143.214c-.013 14.9-7.584 24.862-20.045 31.65-7.402 4.034-15.078 6.043-22.898 6.043-5.215 0-10.495-.894-15.803-2.674-22.527-7.554-24.502-29.618-10.78-44 9.693-10.158 21.227-14.81 34.06-14.81 4.093 0 8.316.474 12.658 1.392.933.198 1.89.25 3.265.426l-.103-174.99c-.008-3.85 1.023-5.208 4.81-5.796l92.02-14.678 48.157-7.855c1.31-.214 2.637-.308 4.657-.54m0-8.886c-.337 0-.675.02-1.013.058l-1.797.193-3.286.407-59.465 9.675-80.642 12.846c-5.635.876-12.348 4.12-12.326 14.594l.102 164.657a65.66 65.66 0 0 0-7.038-.388c-15.746 0-29.37 5.908-40.488 17.562-9.228 9.67-13.02 22.378-10.145 34 2.845 11.493 11.556 20.217 24.528 24.566 6.2 2.08 12.467 3.135 18.627 3.135 9.34 0 18.473-2.397 27.15-7.126 16.36-8.912 24.663-22.184 24.678-39.444l.395-141.55 4.104-.668 78.997-14.704 8.93-1.604v100.946a52.27 52.27 0 0 0-5.56-.291c-19.536 0-38.85 10.11-48.055 25.155-4.905 8.017-6.356 17.856-3.98 26.998 2.37 9.118 8.14 16.656 16.25 21.226a51.13 51.13 0 0 0 25.396 6.66c4.63 0 9.48-.596 14.42-1.77 11.897-2.827 21.392-8.268 28.216-16.168 7.457-8.633 11.183-19.572 11.072-32.515l-.24-137.784.056-59.77c0-2.533-1.08-4.945-2.97-6.632-1.636-1.458-3.746-2.253-5.914-2.253z"/></g></svg>