<svg xmlns="http://www.w3.org/2000/svg" width="50" height="50"><path d="M38.75 14.83L24.944 1.684l-13.77 13.183 10.6-.013.016 10.55 6.377-.008-.017-10.55z"/><path d="M28.503 27.03a1.71 1.71 0 0 1-.332.036l-6.374.012c-.443 0-.875-.175-1.185-.487s-.486-.74-.49-1.18l-.017-8.88-8.932.013c-.682.002-1.296-.418-1.55-1.048a1.67 1.67 0 0 1 .392-1.83L23.79.48A1.68 1.68 0 0 1 26.097.47l13.808 13.143a1.69 1.69 0 0 1 .404 1.835c-.26.636-.878 1.042-1.555 1.05l-8.932.013.016 8.88c.003.813-.57 1.485-1.335 1.64m-5.038-3.3l3.026-.005-.013-8.877c-.003-.925.737-1.68 1.672-1.678l6.425-.01-9.627-9.166-9.61 9.195 6.438-.01a1.67 1.67 0 0 1 1.181.49c.314.313.5.738.5 1.18l.017 8.88zm-6.74 11.185l.003 2.6-4.384.008.012 12.072-3.08.003-.02-12.07-4.407.01-.007-2.604zm12.75 13.343c-1.1 1.15-2.706 1.725-4.806 1.725s-3.7-.564-4.81-1.704c-1.49-1.397-2.23-3.41-2.237-6.05-.006-2.687.73-4.705 2.224-6.05 1.107-1.142 2.703-1.718 4.8-1.724 2.1 0 3.702.568 4.81 1.707 1.482 1.346 2.23 3.367 2.224 6.047.015 2.638-.73 4.652-2.204 6.05m-1.92-2.22c.712-.896 1.067-2.17 1.067-3.827-.007-1.645-.37-2.915-1.077-3.813-.714-.895-1.678-1.345-2.896-1.342-1.21.004-2.184.447-2.9 1.35-.72.895-1.084 2.17-1.08 3.82s.366 2.924 1.1 3.826c.722.892 1.695 1.338 2.91 1.332 1.212 0 2.176-.45 2.887-1.345m16.32-2.84c-.858.715-2.087 1.078-3.676 1.078l-3.06.006.013 5.275-3.05.003-.024-14.668 6.3-.013c1.453.003 2.608.378 3.48 1.13.857.758 1.293 1.927 1.3 3.513 0 1.73-.425 2.956-1.283 3.677m-2.352-5.282c-.385-.327-.934-.486-1.632-.483h-2.76l.007 4.315 2.76-.003c.7.003 1.24-.176 1.632-.525.386-.35.578-.9.58-1.672-.003-.767-.202-1.306-.588-1.632"/></svg>