<?xml version="1.0" encoding="utf-8"?>
<!-- Generator: Adobe Illustrator 16.0.0, SVG Export Plug-In . SVG Version: 6.00 Build 0)  -->
<!DOCTYPE svg PUBLIC "-//W3C//DTD SVG 1.1//EN" "http://www.w3.org/Graphics/SVG/1.1/DTD/svg11.dtd">
<svg version="1.1" id="Capa_1" xmlns="http://www.w3.org/2000/svg" xmlns:xlink="http://www.w3.org/1999/xlink" x="0px" y="0px"
	 width="400px" height="400px" viewBox="0 0 400 400" enable-background="new 0 0 400 400" xml:space="preserve">
<g id="Capa_1_1_" display="none">
	<g id="XMLID_1169_" display="inline">
		<g id="XMLID_1171_">
			<path fill="#FFFFFF" d="M199.894,233.936c-24.87,0-44.796-11.277-57.627-32.615c-6.393-10.632-9.482-21.19-10.849-27.17
				c-7.322-0.868-12.875-10.113-17.402-28.897c-3.642-15.116-3.129-25.362,1.567-31.325c1.612-2.047,3.468-3.244,5.172-3.938
				c-3.727-27.83-0.062-49.891,10.913-65.624c4.4-6.311,9.221-10.379,13.045-12.905c-6.396-6.964-6.787-15.261-6.803-15.697
				l-0.214-5.813l5.734,0.983c0.154,0.026,15.594,2.634,34.498,2.634c9.829,0,18.885-0.697,26.916-2.071
				c2.457-0.42,4.915-0.633,7.307-0.633c23.342,0,36.143,19.461,40.153,26.833c8.277,0.553,14.981,3.954,19.954,10.13
				c13.324,16.552,9.62,48.984,7.508,61.736c1.771,0.669,3.354,1.805,4.633,3.352c4.392,5.306,5.137,15.167,2.281,30.147
				c-3.635,19.087-9.77,28.931-18.239,29.272c-1.372,6.157-4.466,17.013-10.85,27.951
				C244.744,222.299,224.792,233.936,199.894,233.936z M138.693,157.81l1.141,10.115c0.02,0.138,2.094,14.619,10.688,28.779
				c11.188,18.435,27.799,27.778,49.373,27.778c21.653,0,38.319-9.744,49.537-28.964c8.559-14.664,10.581-29.398,10.602-29.546
				l1.234-9.349l6.285,6.17c0.094,0.041,0.252,0.095,0.433,0.095c1.475,0,6.039-3.88,9.414-21.599
				c3.164-16.604,0.587-21.307-0.277-22.353c-0.373-0.45-0.72-0.625-1.232-0.625c-0.13,0-0.236,0.013-0.303,0.023l-8.308,3.493
				l2.272-9.016c2.54-11.668,6.656-45.025-4.657-59.067c-3.622-4.495-8.542-6.68-15.042-6.68l-3.557,0.049l-1.264-2.867
				c-0.103-0.23-10.919-23.934-32.879-23.934c-1.858,0-3.78,0.167-5.713,0.498c-8.555,1.464-18.146,2.207-28.509,2.208
				c-11.894,0-22.314-0.964-28.868-1.755c1.186,2.367,3.188,4.996,6.565,6.944l9.258,5.341l-10.181,3.253
				c-0.052,0.018-8.541,2.972-15.679,13.544c-9.66,14.309-12.519,36-8.266,62.731l1.097,6.896l-6.395-1.462
				c-0.732,0.01-1.652,0.247-2.454,1.266c-1.246,1.581-3.719,7.012,0.196,23.262c4.126,17.121,8.084,20.848,9.171,21.575
				L138.693,157.81z"/>
		</g>
		<g id="XMLID_1170_">
			<path fill="#FFFFFF" d="M200.009,389.096c-0.013,0.002-0.01,0-0.023,0c-104.155-0.005-149.424-35.767-151.3-37.287l-1.123-0.912
				l-0.421-1.383c-5.74-18.859-3.42-38.166-3.317-38.979c4.797-37.977,31.247-50.27,50.562-59.246
				c1.119-0.52,2.224-1.034,3.31-1.544c19.647-9.247,45.427-24.452,45.686-24.604l5.085-3.004l30.971,95.857l8.058-19.248
				c-4.365-4.925-13.354-16.83-13.354-31.339c0-5.657,1.98-10.438,5.729-13.82c6.918-6.247,17.486-5.894,20.131-5.692
				c2.641-0.197,13.214-0.554,20.132,5.692c3.747,3.384,5.729,8.163,5.729,13.82c0,14.509-8.989,26.414-13.354,31.34l8.058,19.247
				l30.972-95.857l5.085,3.004c0.259,0.151,26.036,15.356,45.685,24.604c1.086,0.511,2.19,1.024,3.312,1.545
				c19.314,8.978,45.769,21.271,50.563,59.237c0.102,0.82,2.423,20.127-3.323,38.986l-0.422,1.383l-1.122,0.91
				C349.431,353.33,304.162,389.091,200.009,389.096L200.009,389.096z M55.756,345.291c7.458,5.307,52.518,34.35,144.242,34.354
				c91.703-0.004,136.764-29.037,144.239-34.354c4.614-16.503,2.581-33.408,2.561-33.583c-4.142-32.778-25.938-42.908-45.168-51.846
				c-1.136-0.527-2.253-1.047-3.354-1.565c-14.722-6.928-32.729-17.083-41.368-22.055L221.704,345.2l-20.371-48.657l2.376-2.245
				c0.121-0.114,12.696-12.264,12.696-26.89c0-2.993-0.854-5.219-2.609-6.805c-3.757-3.394-11.066-3.494-13.328-3.264l-0.305-2.979
				l-0.153,3.005l-0.166-3.104l-0.315,3.079c-2.437-0.231-9.621-0.104-13.346,3.279c-1.744,1.585-2.592,3.805-2.592,6.788
				c0,14.626,12.577,26.775,12.704,26.896l2.355,2.243l-1.25,3.009L178.292,345.2l-35.204-108.959
				c-8.639,4.972-26.647,15.127-41.369,22.055c-1.1,0.519-2.218,1.037-3.351,1.563c-19.23,8.938-41.026,19.067-45.167,51.854
				C53.182,311.878,51.169,328.852,55.756,345.291z"/>
		</g>
	</g>
</g>
<g id="Capa_2" display="none">
	<g display="inline">
		<g id="XMLID_1179_">
			<g id="XMLID_1190_">
				<path fill="#FFFFFF" d="M139.786,268.048c-1.997,0-3.812-1.354-4.311-3.38c-0.588-2.383,0.867-4.79,3.249-5.378l53.536-13.208
					c2.384-0.585,4.79,0.867,5.377,3.25c0.588,2.382-0.867,4.79-3.249,5.378l-53.535,13.208
					C140.497,268.006,140.138,268.048,139.786,268.048z"/>
			</g>
			<g id="XMLID_1189_">
				<path fill="#FFFFFF" d="M140.237,256.08c-0.04,0-0.078-0.001-0.117-0.002c-2.453-0.063-4.391-2.104-4.326-4.557
					c0.396-15.299-9.522-31.28-18.938-41.137c-9.814-10.274-16.745-22.777-17.035-23.304c-0.021-0.041-0.044-0.082-0.064-0.123
					c-5.9-11.561-8.892-24.047-8.892-37.111c0-45.056,36.657-81.711,81.716-81.711c32.913,0,62.465,19.588,75.287,49.904
					c0.955,2.26-0.102,4.867-2.36,5.823s-4.867-0.102-5.823-2.361c-11.428-27.02-37.768-44.479-67.104-44.479
					c-40.158,0-72.83,32.669-72.83,72.826c0,11.621,2.652,22.724,7.886,33.002c0.498,0.89,6.965,12.311,15.646,21.397
					c10.65,11.148,21.863,29.482,21.396,47.506C144.613,254.166,142.637,256.08,140.237,256.08z"/>
			</g>
			<g id="XMLID_1188_">
				<path fill="#FFFFFF" d="M137.351,291.092c-1.955,0-3.745-1.3-4.284-3.275c-0.646-2.367,0.751-4.811,3.119-5.455l56.082-15.279
					c2.366-0.643,4.81,0.753,5.454,3.119c0.646,2.367-0.751,4.811-3.119,5.455l-56.082,15.279
					C138.13,291.041,137.737,291.092,137.351,291.092z"/>
			</g>
			<g id="XMLID_1187_">
				<path fill="#FFFFFF" d="M137.351,314.578c-1.955,0-3.745-1.301-4.284-3.276c-0.646-2.366,0.751-4.81,3.118-5.454l55.862-15.225
					c2.368-0.641,4.81,0.752,5.455,3.119c0.645,2.367-0.751,4.81-3.118,5.455l-55.862,15.224
					C138.13,314.525,137.737,314.578,137.351,314.578z"/>
			</g>
			<g id="XMLID_1186_">
				<path fill="#FFFFFF" d="M161.734,241.678c-0.179,0-0.358-0.011-0.54-0.033c-2.435-0.295-4.169-2.506-3.877-4.938l0,0
					c0.033-0.28,3.167-28.315-10.616-55.054c-0.602-1.166-0.656-2.537-0.151-3.748c0.506-1.21,1.52-2.135,2.771-2.528
					c5.883-1.844,19.016-1.388,26.624,13.525c1.115,2.185,0.248,4.861-1.938,5.977c-2.187,1.115-4.861,0.248-5.978-1.938
					c-3.177-6.226-7.257-8.475-10.511-9.178c11.695,27.109,8.761,52.845,8.62,54.007
					C165.866,240.023,163.949,241.678,161.734,241.678z"/>
			</g>
			<g id="XMLID_1185_">
				<path fill="#FFFFFF" d="M182.238,241.678c-2.214,0-4.131-1.654-4.404-3.908c-0.142-1.162-3.073-26.887,8.612-53.987
					c-3.264,0.708-7.339,2.959-10.501,9.157c-1.114,2.186-3.79,3.054-5.976,1.939c-2.186-1.115-3.054-3.791-1.938-5.977
					c7.607-14.914,20.741-15.366,26.623-13.525c1.251,0.392,2.267,1.317,2.771,2.528c0.505,1.211,0.451,2.582-0.151,3.748
					c-13.84,26.843-10.652,54.769-10.619,55.048c0.296,2.436-1.439,4.649-3.876,4.944
					C182.597,241.667,182.416,241.678,182.238,241.678z"/>
			</g>
			<g id="XMLID_1184_">
				<path fill="#FFFFFF" d="M172.578,55.758c-2.454,0-4.442-1.989-4.442-4.443V15.416c0-2.454,1.989-4.443,4.442-4.443
					c2.452,0,4.441,1.989,4.441,4.443v35.899C177.021,53.769,175.032,55.758,172.578,55.758z"/>
			</g>
			<g id="XMLID_1183_">
				<path fill="#FFFFFF" d="M104.931,90.656c-0.922,0-1.852-0.286-2.647-0.878L73.551,68.402c-1.968-1.465-2.377-4.248-0.913-6.217
					c1.464-1.969,4.248-2.377,6.216-0.913l28.732,21.376c1.969,1.465,2.377,4.248,0.913,6.217
					C107.627,90.037,106.288,90.656,104.931,90.656z"/>
			</g>
			<g id="XMLID_1182_">
				<path fill="#FFFFFF" d="M240.238,90.656c-1.356,0-2.695-0.619-3.567-1.791c-1.465-1.969-1.057-4.752,0.912-6.217l28.732-21.376
					c1.972-1.465,4.752-1.055,6.216,0.913c1.466,1.969,1.057,4.752-0.911,6.217l-28.733,21.376
					C242.089,90.37,241.159,90.656,240.238,90.656z"/>
			</g>
			<g id="XMLID_1181_">
				<path fill="#FFFFFF" d="M75.266,152.902H38.479c-2.454,0-4.441-1.989-4.441-4.442c0-2.454,1.988-4.443,4.441-4.443h36.787
					c2.454,0,4.442,1.989,4.442,4.443S77.719,152.902,75.266,152.902z"/>
			</g>
			<g id="XMLID_1180_">
				<path fill="#FFFFFF" d="M56.874,241.678c-1.279,0-2.547-0.55-3.426-1.611c-1.564-1.891-1.3-4.689,0.591-6.256l30.803-25.482
					c1.889-1.563,4.69-1.299,6.255,0.592s1.299,4.689-0.591,6.256l-30.803,25.483C58.875,241.343,57.871,241.678,56.874,241.678z"/>
			</g>
		</g>
		<g id="XMLID_1065_">
			<g id="XMLID_1173_">
				<path fill="#FFFFFF" d="M361.395,121.12c0,2.075,0,3.644,0,5.212c0,64.137-0.35,128.282,0.184,192.416
					c0.189,22.326-13.135,35.371-32.461,39.964c-4.165,0.991-8.289,1.53-12.36,1.53c-7.194,0-14.228-1.682-21.033-5.518
					c-12.598-7.099-16.586-23.533-9.053-35.845c8.172-13.354,25.281-20.909,40.476-20.907c3.714,0,7.315,0.451,10.642,1.381
					c1.16,0.319,2.348,0.553,3.804,0.894c0-40.837,0-81.411,0-122.385c-6.562,1.156-13.006,2.243-19.436,3.438
					c-26.332,4.885-52.664,9.805-78.998,14.703c-1.807,0.335-3.622,0.584-5.437,0.868c-6.947,1.079-5.898,0.254-5.925,6.865
					c-0.172,47.738-0.361,95.479-0.399,143.215c-0.013,14.91-7.584,24.861-20.045,31.65c-7.402,4.033-15.077,6.043-22.897,6.043
					c-5.214,0-10.496-0.895-15.804-2.675c-22.526-7.554-24.502-29.618-10.779-43.999c9.693-10.158,21.226-14.811,34.06-14.811
					c4.093,0,8.317,0.474,12.658,1.392c0.933,0.198,1.891,0.25,3.265,0.427c0-1.84,0-3.404,0-4.973
					c0-56.674,0.045-113.348-0.103-170.017c-0.008-3.85,1.022-5.208,4.809-5.796c30.691-4.778,61.354-9.741,92.02-14.678
					c16.057-2.587,32.104-5.247,48.157-7.855C358.047,121.446,359.375,121.352,361.395,121.12 M361.395,112.234
					c-0.337,0-0.675,0.019-1.013,0.058c-0.67,0.077-1.261,0.138-1.797,0.193c-1.117,0.116-2.175,0.225-3.286,0.407
					c-6.59,1.071-13.192,2.152-19.795,3.233c-9.289,1.522-18.896,3.096-28.34,4.617l-11.33,1.825
					c-26.428,4.257-53.754,8.659-80.643,12.846c-5.635,0.876-12.348,4.12-12.325,14.594c0.118,46.021,0.111,92.816,0.104,138.069
					l-0.003,26.588c-2.391-0.258-4.742-0.389-7.038-0.389c-15.746,0-29.368,5.908-40.488,17.563
					c-9.228,9.67-13.02,22.378-10.145,33.99c2.845,11.492,11.556,20.217,24.528,24.566c6.198,2.08,12.467,3.135,18.627,3.135
					c9.339,0,18.473-2.397,27.15-7.127c16.359-8.911,24.662-22.184,24.677-39.443c0.036-43.021,0.194-86.771,0.35-129.082
					l0.046-12.469c1.323-0.199,2.692-0.407,4.104-0.668c10.108-1.881,20.214-3.764,30.319-5.647
					c16.227-3.023,32.451-6.046,48.678-9.057c2.979-0.554,5.919-1.077,8.929-1.604v100.946c-1.812-0.192-3.668-0.291-5.559-0.291
					c-19.536-0.001-38.849,10.106-48.056,25.155c-4.905,8.017-6.356,17.855-3.98,26.998c2.37,9.117,8.142,16.656,16.25,21.226
					c7.845,4.421,16.389,6.66,25.396,6.66c4.629,0,9.479-0.597,14.419-1.771c11.896-2.828,21.392-8.269,28.216-16.168
					c7.457-8.633,11.183-19.572,11.072-32.516c-0.382-45.908-0.31-92.615-0.239-137.784c0.026-17.881,0.056-36.37,0.056-54.557
					v-5.212c0-2.533-1.08-4.945-2.971-6.632C365.673,113.029,363.563,112.234,361.395,112.234L361.395,112.234z"/>
			</g>
			<g id="XMLID_1066_">
				<path fill="#FFFFFF" d="M361.395,121.12c0,2.075,0,3.644,0,5.212c0,64.137-0.35,128.282,0.184,192.416
					c0.189,22.326-13.135,35.371-32.461,39.964c-4.164,0.99-8.291,1.53-12.36,1.53c-7.195,0-14.227-1.682-21.033-5.518
					c-12.598-7.099-16.586-23.533-9.053-35.845c8.171-13.354,25.282-20.907,40.476-20.907c3.715,0,7.314,0.451,10.642,1.381
					c1.16,0.319,2.348,0.553,3.804,0.894c0-40.837,0-81.411,0-122.385c-6.562,1.156-13.006,2.243-19.436,3.438
					c-26.332,4.885-52.664,9.805-78.998,14.703c-1.807,0.335-3.622,0.584-5.437,0.868c-6.947,1.079-5.898,0.254-5.925,6.865
					c-0.172,47.738-0.361,95.479-0.399,143.215c-0.013,14.91-7.584,24.861-20.045,31.65c-7.401,4.033-15.078,6.043-22.897,6.043
					c-5.215,0-10.495-0.895-15.804-2.675c-22.526-7.554-24.502-29.618-10.779-43.999c9.692-10.158,21.227-14.811,34.06-14.811
					c4.093,0,8.316,0.474,12.658,1.392c0.933,0.198,1.891,0.25,3.265,0.427c0-1.84,0-3.404,0-4.973
					c0-56.674,0.045-113.348-0.103-170.017c-0.008-3.85,1.022-5.208,4.809-5.796c30.691-4.778,61.354-9.741,92.02-14.678
					c16.057-2.587,32.104-5.247,48.157-7.855C358.047,121.446,359.375,121.352,361.395,121.12 M361.395,112.234
					c-0.337,0-0.675,0.019-1.013,0.058c-0.67,0.077-1.261,0.138-1.797,0.193c-1.117,0.116-2.175,0.225-3.286,0.407
					c-6.59,1.071-13.192,2.152-19.795,3.233c-9.289,1.522-18.896,3.096-28.34,4.617l-11.33,1.825
					c-26.428,4.257-53.754,8.659-80.643,12.846c-5.635,0.876-12.348,4.12-12.325,14.594c0.118,46.021,0.111,92.816,0.104,138.069
					l-0.003,26.588c-2.391-0.258-4.742-0.389-7.038-0.389c-15.746,0-29.369,5.908-40.488,17.563
					c-9.228,9.67-13.02,22.378-10.145,33.99c2.845,11.492,11.556,20.217,24.528,24.566c6.198,2.08,12.467,3.135,18.627,3.135
					c9.339,0,18.473-2.397,27.149-7.127c16.36-8.911,24.663-22.184,24.678-39.443c0.036-43.021,0.194-86.771,0.35-129.082
					l0.046-12.469c1.323-0.199,2.692-0.407,4.104-0.668c10.108-1.881,20.214-3.764,30.319-5.647
					c16.226-3.023,32.451-6.046,48.678-9.057c2.979-0.554,5.919-1.077,8.929-1.604v100.946c-1.813-0.194-3.669-0.291-5.56-0.291
					c-19.536,0-38.849,10.108-48.055,25.155c-4.905,8.017-6.356,17.855-3.98,26.998c2.37,9.117,8.142,16.656,16.25,21.226
					c7.845,4.421,16.389,6.66,25.396,6.66c4.629,0,9.479-0.597,14.419-1.771c11.896-2.828,21.392-8.269,28.216-16.168
					c7.457-8.633,11.183-19.572,11.072-32.516c-0.382-45.908-0.31-92.615-0.239-137.784c0.026-17.881,0.056-36.37,0.056-54.557
					v-5.212c0-2.533-1.08-4.945-2.971-6.632C365.673,113.029,363.563,112.234,361.395,112.234L361.395,112.234z"/>
			</g>
		</g>
	</g>
</g>
<g>
	<defs>
		<path id="SVGID_1_" d="M104.089,131.668h192.436v136.87H104.089V131.668z M23.115,338.885H377.5V61.663H23.115V338.885z"/>
	</defs>
	<clipPath id="SVGID_2_">
		<use xlink:href="#SVGID_1_"  overflow="visible"/>
	</clipPath>
	<g clip-path="url(#SVGID_2_)">
		<path fill="#E3B8D3" d="M462.717-4.719c-15.484,0-23.272-5.479-30.804-10.779c-7.119-5.008-13.841-9.738-27.519-9.738
			c-13.676,0-20.399,4.73-27.517,9.738c-7.533,5.299-15.321,10.779-30.808,10.779c-15.484,0-23.272-5.479-30.804-10.779
			c-7.117-5.008-13.839-9.738-27.513-9.738s-20.396,4.73-27.513,9.738c-7.531,5.299-15.319,10.779-30.804,10.779
			c-15.482,0-23.271-5.479-30.802-10.779c-7.117-5.008-13.839-9.738-27.513-9.738c-13.674,0-20.396,4.73-27.513,9.737
			c-7.531,5.3-15.319,10.78-30.802,10.78c-15.481,0-23.267-5.479-30.796-10.779c-7.116-5.008-13.837-9.738-27.509-9.738
			c-13.672,0-20.394,4.73-27.51,9.738C19.464-10.199,11.677-4.719-3.803-4.719s-23.266-5.479-30.794-10.78
			c-7.115-5.007-13.835-9.737-27.505-9.737c-1.578,0-2.858-1.28-2.858-2.858c0-1.578,1.28-2.858,2.858-2.858
			c15.48,0,23.266,5.48,30.795,10.781c7.114,5.007,13.834,9.737,27.504,9.737c13.671,0,20.391-4.73,27.506-9.737
			c7.531-5.3,15.317-10.781,30.8-10.781c15.482,0,23.269,5.48,30.799,10.781c7.115,5.007,13.835,9.737,27.506,9.737
			c13.674,0,20.396-4.73,27.514-9.738c7.531-5.299,15.318-10.78,30.802-10.78c15.483,0,23.27,5.48,30.802,10.78
			c7.117,5.008,13.839,9.738,27.513,9.738s20.396-4.73,27.513-9.738c7.531-5.299,15.319-10.78,30.804-10.78
			s23.272,5.48,30.804,10.78c7.117,5.008,13.839,9.738,27.513,9.738c13.676,0,20.399-4.73,27.517-9.738
			c7.533-5.299,15.321-10.78,30.808-10.78s23.274,5.48,30.808,10.781c7.117,5.007,13.839,9.737,27.515,9.737
			c1.578,0,2.857,1.28,2.857,2.858C465.574-5.999,464.295-4.719,462.717-4.719z"/>
	</g>
	<g clip-path="url(#SVGID_2_)">
		<path fill="#E3B8D3" d="M462.717,22.545c-15.484,0-23.272-5.479-30.806-10.78c-7.117-5.008-13.839-9.738-27.517-9.738
			c-13.676,0-20.399,4.73-27.517,9.738c-7.533,5.3-15.321,10.78-30.808,10.78c-15.484,0-23.272-5.479-30.804-10.78
			c-7.117-5.008-13.839-9.738-27.513-9.738s-20.396,4.73-27.513,9.738c-7.531,5.3-15.319,10.78-30.804,10.78
			c-15.482,0-23.271-5.479-30.802-10.78c-7.117-5.008-13.839-9.738-27.513-9.738c-13.674,0-20.396,4.73-27.513,9.738
			c-7.531,5.3-15.319,10.78-30.802,10.78c-15.481,0-23.267-5.479-30.796-10.78c-7.116-5.008-13.837-9.738-27.509-9.738
			c-13.672,0-20.394,4.73-27.51,9.738c-7.529,5.3-15.316,10.78-30.796,10.78s-23.266-5.479-30.795-10.78
			c-7.114-5.008-13.834-9.738-27.504-9.738c-1.578,0-2.858-1.28-2.858-2.858s1.28-2.857,2.858-2.857
			c15.48,0,23.266,5.479,30.795,10.78c7.114,5.008,13.834,9.738,27.504,9.738c13.671,0,20.391-4.73,27.506-9.737
			c7.531-5.3,15.317-10.781,30.8-10.781c15.482,0,23.269,5.48,30.799,10.78c7.115,5.008,13.835,9.738,27.506,9.738
			c13.674,0,20.396-4.73,27.514-9.738c7.531-5.3,15.318-10.78,30.802-10.78c15.483,0,23.271,5.479,30.802,10.78
			c7.117,5.008,13.839,9.738,27.513,9.738s20.396-4.73,27.513-9.738c7.531-5.3,15.319-10.78,30.804-10.78s23.272,5.479,30.804,10.78
			c7.117,5.008,13.839,9.738,27.513,9.738c13.676,0,20.399-4.73,27.517-9.738c7.533-5.3,15.321-10.78,30.808-10.78
			s23.274,5.479,30.808,10.78c7.117,5.008,13.839,9.738,27.515,9.738c1.578,0,2.857,1.28,2.857,2.858S464.295,22.545,462.717,22.545
			z"/>
	</g>
	<g clip-path="url(#SVGID_2_)">
		<path fill="#E3B8D3" d="M462.717,49.808c-15.484,0-23.272-5.479-30.804-10.779c-7.119-5.008-13.841-9.738-27.519-9.738
			c-13.676,0-20.399,4.73-27.517,9.738c-7.533,5.299-15.321,10.779-30.808,10.779c-15.484,0-23.272-5.479-30.804-10.779
			c-7.117-5.008-13.839-9.738-27.513-9.738s-20.396,4.73-27.513,9.738c-7.531,5.299-15.319,10.779-30.804,10.779
			c-15.482,0-23.271-5.479-30.802-10.779c-7.117-5.008-13.839-9.738-27.513-9.738c-13.674,0-20.396,4.73-27.513,9.737
			c-7.531,5.3-15.319,10.78-30.802,10.78c-15.481,0-23.267-5.479-30.796-10.779c-7.116-5.008-13.837-9.738-27.509-9.738
			c-13.672,0-20.394,4.73-27.51,9.738c-7.529,5.299-15.316,10.779-30.796,10.779s-23.266-5.479-30.794-10.78
			c-7.115-5.007-13.835-9.737-27.505-9.737c-1.578,0-2.858-1.28-2.858-2.858c0-1.578,1.28-2.858,2.858-2.858
			c15.48,0,23.266,5.48,30.795,10.78c7.114,5.008,13.834,9.738,27.504,9.738c13.671,0,20.391-4.73,27.506-9.738
			c7.531-5.3,15.317-10.78,30.8-10.78c15.482,0,23.269,5.48,30.799,10.78c7.115,5.008,13.835,9.738,27.506,9.738
			c13.674,0,20.396-4.73,27.514-9.739c7.531-5.299,15.318-10.779,30.802-10.779c15.483,0,23.27,5.48,30.802,10.779
			c7.117,5.009,13.839,9.739,27.513,9.739s20.396-4.73,27.513-9.739c7.531-5.299,15.319-10.779,30.804-10.779
			s23.272,5.48,30.804,10.779c7.117,5.009,13.839,9.739,27.513,9.739c13.676,0,20.399-4.73,27.517-9.739
			c7.533-5.299,15.321-10.779,30.808-10.779s23.274,5.48,30.808,10.78c7.117,5.008,13.839,9.738,27.515,9.738
			c1.578,0,2.857,1.28,2.857,2.858C465.574,48.528,464.295,49.808,462.717,49.808z"/>
	</g>
	<g clip-path="url(#SVGID_2_)">
		<path fill="#E3B8D3" d="M462.717,77.072c-15.484,0-23.272-5.479-30.806-10.78c-7.117-5.008-13.839-9.738-27.517-9.738
			c-13.676,0-20.399,4.73-27.517,9.738c-7.533,5.3-15.321,10.78-30.808,10.78c-15.484,0-23.272-5.479-30.804-10.78
			c-7.117-5.008-13.839-9.738-27.513-9.738s-20.396,4.73-27.513,9.738c-7.531,5.3-15.319,10.78-30.804,10.78
			c-15.482,0-23.271-5.479-30.802-10.78c-7.117-5.008-13.839-9.738-27.513-9.738c-13.674,0-20.396,4.73-27.513,9.738
			c-7.531,5.3-15.319,10.78-30.802,10.78c-15.481,0-23.267-5.479-30.796-10.78c-7.116-5.008-13.837-9.738-27.509-9.738
			c-13.672,0-20.394,4.73-27.51,9.738c-7.529,5.3-15.316,10.78-30.796,10.78s-23.266-5.479-30.795-10.78
			c-7.114-5.008-13.834-9.738-27.504-9.738c-1.578,0-2.858-1.28-2.858-2.858c0-1.578,1.28-2.857,2.858-2.857
			c15.48,0,23.266,5.479,30.795,10.78c7.114,5.008,13.834,9.738,27.504,9.738c13.671,0,20.391-4.73,27.506-9.737
			c7.531-5.3,15.317-10.781,30.8-10.781c15.482,0,23.269,5.48,30.799,10.78c7.115,5.008,13.835,9.738,27.506,9.738
			c13.674,0,20.396-4.73,27.514-9.738c7.531-5.3,15.318-10.78,30.802-10.78c15.483,0,23.271,5.479,30.802,10.78
			c7.117,5.008,13.839,9.738,27.513,9.738s20.396-4.73,27.513-9.738c7.531-5.3,15.319-10.78,30.804-10.78s23.272,5.479,30.804,10.78
			c7.117,5.008,13.839,9.738,27.513,9.738c13.676,0,20.399-4.73,27.517-9.738c7.533-5.3,15.321-10.78,30.808-10.78
			s23.274,5.479,30.808,10.78c7.117,5.008,13.839,9.738,27.515,9.738c1.578,0,2.857,1.28,2.857,2.858
			C465.574,75.792,464.295,77.072,462.717,77.072z"/>
	</g>
	<g clip-path="url(#SVGID_2_)">
		<path fill="#E3B8D3" d="M462.717,104.334c-15.484,0-23.272-5.479-30.804-10.778c-7.119-5.009-13.841-9.738-27.519-9.738
			c-13.676,0-20.399,4.729-27.517,9.738c-7.533,5.299-15.321,10.778-30.808,10.778c-15.484,0-23.272-5.479-30.804-10.778
			c-7.117-5.009-13.839-9.738-27.513-9.738s-20.396,4.729-27.513,9.738c-7.531,5.299-15.319,10.778-30.804,10.778
			c-15.482,0-23.271-5.479-30.802-10.778c-7.117-5.009-13.839-9.738-27.513-9.738c-13.674,0-20.396,4.729-27.513,9.737
			c-7.531,5.3-15.319,10.779-30.802,10.779c-15.481,0-23.267-5.479-30.796-10.778c-7.116-5.009-13.837-9.738-27.509-9.738
			c-13.672,0-20.394,4.729-27.51,9.738c-7.529,5.299-15.316,10.778-30.796,10.778s-23.266-5.479-30.794-10.779
			c-7.115-5.008-13.835-9.737-27.505-9.737c-1.578,0-2.858-1.281-2.858-2.858c0-1.578,1.28-2.858,2.858-2.858
			c15.48,0,23.266,5.48,30.795,10.781c7.114,5.007,13.834,9.737,27.504,9.737c13.671,0,20.391-4.73,27.506-9.737
			c7.531-5.3,15.317-10.781,30.8-10.781c15.482,0,23.269,5.48,30.799,10.781c7.115,5.007,13.835,9.737,27.506,9.737
			c13.674,0,20.396-4.73,27.514-9.738c7.531-5.299,15.318-10.78,30.802-10.78c15.483,0,23.27,5.48,30.802,10.78
			c7.117,5.008,13.839,9.738,27.513,9.738s20.396-4.73,27.513-9.738c7.531-5.299,15.319-10.78,30.804-10.78
			s23.272,5.48,30.804,10.78c7.117,5.008,13.839,9.738,27.513,9.738c13.676,0,20.399-4.73,27.517-9.738
			c7.533-5.299,15.321-10.78,30.808-10.78s23.274,5.48,30.808,10.781c7.117,5.007,13.839,9.737,27.515,9.737
			c1.578,0,2.857,1.28,2.857,2.858C465.574,103.055,464.295,104.334,462.717,104.334z"/>
	</g>
	<g clip-path="url(#SVGID_2_)">
		<path fill="#E3B8D3" d="M462.717,131.599c-15.484,0-23.272-5.479-30.806-10.78c-7.117-5.008-13.839-9.738-27.517-9.738
			c-13.676,0-20.399,4.73-27.517,9.738c-7.533,5.3-15.321,10.78-30.808,10.78c-15.484,0-23.272-5.479-30.804-10.78
			c-7.117-5.008-13.839-9.738-27.513-9.738s-20.396,4.73-27.513,9.738c-7.531,5.3-15.319,10.78-30.804,10.78
			c-15.482,0-23.271-5.479-30.802-10.78c-7.117-5.008-13.839-9.738-27.513-9.738c-13.674,0-20.396,4.73-27.513,9.738
			c-7.531,5.3-15.319,10.78-30.802,10.78c-15.481,0-23.267-5.479-30.796-10.78c-7.116-5.008-13.837-9.738-27.509-9.738
			c-13.672,0-20.394,4.73-27.51,9.738c-7.529,5.3-15.316,10.78-30.796,10.78s-23.266-5.479-30.795-10.78
			c-7.114-5.008-13.834-9.738-27.504-9.738c-1.578,0-2.858-1.28-2.858-2.858c0-1.578,1.28-2.857,2.858-2.857
			c15.48,0,23.266,5.479,30.795,10.779c7.114,5.009,13.834,9.738,27.504,9.738c13.671,0,20.391-4.729,27.506-9.737
			c7.531-5.3,15.317-10.78,30.8-10.78c15.482,0,23.269,5.48,30.799,10.779c7.115,5.009,13.835,9.738,27.506,9.738
			c13.674,0,20.396-4.729,27.514-9.738c7.531-5.3,15.318-10.779,30.802-10.779c15.483,0,23.271,5.479,30.802,10.779
			c7.117,5.009,13.839,9.738,27.513,9.738s20.396-4.729,27.513-9.738c7.531-5.3,15.319-10.779,30.804-10.779
			s23.272,5.479,30.804,10.779c7.117,5.009,13.839,9.738,27.513,9.738c13.676,0,20.399-4.729,27.517-9.738
			c7.533-5.3,15.321-10.779,30.808-10.779s23.274,5.479,30.808,10.779c7.117,5.009,13.839,9.738,27.515,9.738
			c1.578,0,2.857,1.28,2.857,2.858S464.295,131.599,462.717,131.599z"/>
	</g>
	<g clip-path="url(#SVGID_2_)">
		<path fill="#E3B8D3" d="M462.717,158.861c-15.484,0-23.272-5.479-30.804-10.779c-7.119-5.008-13.841-9.738-27.519-9.738
			c-13.676,0-20.399,4.73-27.517,9.738c-7.533,5.299-15.321,10.779-30.808,10.779c-15.484,0-23.272-5.479-30.804-10.779
			c-7.117-5.008-13.839-9.738-27.513-9.738s-20.396,4.73-27.513,9.738c-7.531,5.299-15.319,10.779-30.804,10.779
			c-15.482,0-23.271-5.479-30.802-10.779c-7.117-5.008-13.839-9.738-27.513-9.738c-13.674,0-20.396,4.73-27.513,9.737
			c-7.531,5.3-15.319,10.78-30.802,10.78c-15.481,0-23.267-5.479-30.796-10.779c-7.116-5.008-13.837-9.738-27.509-9.738
			c-13.672,0-20.394,4.73-27.51,9.738c-7.529,5.299-15.316,10.779-30.796,10.779s-23.266-5.479-30.794-10.78
			c-7.115-5.007-13.835-9.737-27.505-9.737c-1.578,0-2.858-1.28-2.858-2.858c0-1.578,1.28-2.858,2.858-2.858
			c15.48,0,23.266,5.48,30.795,10.781c7.114,5.007,13.834,9.737,27.504,9.737c13.671,0,20.391-4.73,27.506-9.737
			c7.531-5.3,15.317-10.781,30.8-10.781c15.482,0,23.269,5.48,30.799,10.781c7.115,5.007,13.835,9.737,27.506,9.737
			c13.674,0,20.396-4.73,27.514-9.738c7.531-5.299,15.318-10.78,30.802-10.78c15.483,0,23.27,5.48,30.802,10.78
			c7.117,5.008,13.839,9.738,27.513,9.738s20.396-4.73,27.513-9.738c7.531-5.299,15.319-10.78,30.804-10.78
			s23.272,5.48,30.804,10.78c7.117,5.008,13.839,9.738,27.513,9.738c13.676,0,20.399-4.73,27.517-9.738
			c7.533-5.299,15.321-10.78,30.808-10.78s23.274,5.48,30.808,10.781c7.117,5.007,13.839,9.737,27.515,9.737
			c1.578,0,2.857,1.28,2.857,2.858C465.574,157.582,464.295,158.861,462.717,158.861z"/>
	</g>
	<g clip-path="url(#SVGID_2_)">
		<path fill="#E3B8D3" d="M462.717,186.125c-15.484,0-23.272-5.479-30.806-10.779c-7.117-5.009-13.839-9.739-27.517-9.739
			c-13.676,0-20.399,4.73-27.517,9.739c-7.533,5.3-15.321,10.779-30.808,10.779c-15.484,0-23.272-5.479-30.804-10.779
			c-7.117-5.009-13.839-9.739-27.513-9.739s-20.396,4.73-27.513,9.739c-7.531,5.3-15.319,10.779-30.804,10.779
			c-15.482,0-23.271-5.479-30.802-10.779c-7.117-5.009-13.839-9.739-27.513-9.739c-13.674,0-20.396,4.73-27.513,9.739
			c-7.531,5.3-15.319,10.779-30.802,10.779c-15.481,0-23.267-5.479-30.796-10.779c-7.116-5.009-13.837-9.739-27.509-9.739
			c-13.672,0-20.394,4.73-27.51,9.739c-7.529,5.3-15.316,10.779-30.796,10.779s-23.266-5.479-30.795-10.779
			c-7.114-5.009-13.834-9.739-27.504-9.739c-1.578,0-2.858-1.28-2.858-2.858c0-1.578,1.28-2.857,2.858-2.857
			c15.48,0,23.266,5.479,30.795,10.78c7.114,5.008,13.834,9.738,27.504,9.738c13.671,0,20.391-4.73,27.506-9.737
			c7.531-5.3,15.317-10.781,30.8-10.781c15.482,0,23.269,5.48,30.799,10.78c7.115,5.008,13.835,9.738,27.506,9.738
			c13.674,0,20.396-4.73,27.514-9.738c7.531-5.3,15.318-10.78,30.802-10.78c15.483,0,23.271,5.479,30.802,10.78
			c7.117,5.008,13.839,9.738,27.513,9.738s20.396-4.73,27.513-9.738c7.531-5.3,15.319-10.78,30.804-10.78s23.272,5.479,30.804,10.78
			c7.117,5.008,13.839,9.738,27.513,9.738c13.676,0,20.399-4.73,27.517-9.738c7.533-5.3,15.321-10.78,30.808-10.78
			s23.274,5.479,30.808,10.78c7.117,5.008,13.839,9.738,27.515,9.738c1.578,0,2.857,1.28,2.857,2.858
			C465.574,184.846,464.295,186.125,462.717,186.125z"/>
	</g>
	<g clip-path="url(#SVGID_2_)">
		<path fill="#E3B8D3" d="M462.717,213.388c-15.484,0-23.272-5.479-30.804-10.778c-7.119-5.008-13.841-9.738-27.519-9.738
			s-20.399,4.73-27.517,9.738c-7.533,5.299-15.323,10.778-30.808,10.778s-23.272-5.479-30.804-10.778
			c-7.117-5.008-13.839-9.738-27.513-9.738s-20.397,4.73-27.513,9.738c-7.531,5.299-15.319,10.778-30.804,10.778
			c-15.482,0-23.271-5.479-30.802-10.778c-7.117-5.008-13.839-9.738-27.513-9.738c-13.674,0-20.396,4.73-27.513,9.736
			c-7.531,5.301-15.319,10.78-30.802,10.78c-15.481,0-23.267-5.479-30.796-10.778c-7.116-5.008-13.837-9.738-27.509-9.738
			c-13.672,0-20.394,4.73-27.51,9.738c-7.529,5.299-15.316,10.778-30.796,10.778s-23.266-5.479-30.794-10.78
			c-7.115-5.006-13.835-9.736-27.505-9.736c-1.578,0-2.858-1.28-2.858-2.858s1.28-2.858,2.858-2.858
			c15.48,0,23.266,5.48,30.794,10.78c7.115,5.009,13.835,9.738,27.505,9.738c13.671,0,20.391-4.729,27.506-9.738
			c7.531-5.299,15.317-10.78,30.8-10.78c15.482,0,23.269,5.48,30.798,10.78c7.116,5.009,13.836,9.738,27.507,9.738
			c13.674,0,20.396-4.729,27.514-9.738c7.531-5.299,15.318-10.78,30.802-10.78c15.483,0,23.27,5.48,30.802,10.78
			c7.117,5.009,13.839,9.738,27.513,9.738s20.397-4.729,27.513-9.738c7.531-5.299,15.319-10.78,30.804-10.78
			s23.272,5.48,30.804,10.78c7.115,5.009,13.839,9.738,27.513,9.738c13.678,0,20.399-4.729,27.519-9.738
			c7.531-5.299,15.321-10.78,30.806-10.78c15.486,0,23.274,5.48,30.808,10.78c7.117,5.009,13.839,9.738,27.515,9.738
			c1.578,0,2.857,1.279,2.857,2.857S464.295,213.388,462.717,213.388z"/>
	</g>
	<g clip-path="url(#SVGID_2_)">
		<path fill="#E3B8D3" d="M462.717,240.652c-15.484,0-23.272-5.479-30.806-10.78c-7.117-5.008-13.839-9.739-27.517-9.739
			c-13.676,0-20.399,4.731-27.517,9.739c-7.533,5.301-15.321,10.78-30.808,10.78c-15.484,0-23.272-5.479-30.804-10.78
			c-7.117-5.008-13.839-9.739-27.513-9.739s-20.396,4.731-27.513,9.739c-7.531,5.301-15.319,10.78-30.804,10.78
			c-15.482,0-23.271-5.479-30.802-10.78c-7.117-5.008-13.839-9.739-27.513-9.739c-13.674,0-20.396,4.731-27.513,9.739
			c-7.531,5.301-15.319,10.78-30.802,10.78c-15.481,0-23.267-5.479-30.796-10.78c-7.116-5.008-13.837-9.739-27.509-9.739
			c-13.672,0-20.394,4.731-27.51,9.739c-7.529,5.301-15.316,10.78-30.796,10.78s-23.266-5.479-30.795-10.78
			c-7.114-5.008-13.834-9.739-27.504-9.739c-1.578,0-2.858-1.279-2.858-2.857s1.28-2.857,2.858-2.857
			c15.48,0,23.266,5.479,30.795,10.78c7.114,5.007,13.834,9.739,27.504,9.739c13.671,0,20.391-4.73,27.506-9.739
			c7.531-5.301,15.317-10.78,30.8-10.78c15.482,0,23.269,5.479,30.799,10.78c7.115,5.009,13.835,9.739,27.506,9.739
			c13.674,0,20.396-4.732,27.514-9.739c7.531-5.301,15.318-10.78,30.802-10.78c15.483,0,23.271,5.479,30.802,10.78
			c7.117,5.007,13.839,9.739,27.513,9.739s20.396-4.732,27.513-9.739c7.531-5.301,15.319-10.78,30.804-10.78
			s23.272,5.479,30.804,10.78c7.117,5.007,13.839,9.739,27.513,9.739c13.676,0,20.399-4.732,27.517-9.739
			c7.533-5.301,15.321-10.78,30.808-10.78s23.274,5.479,30.808,10.78c7.117,5.007,13.839,9.739,27.515,9.739
			c1.578,0,2.857,1.279,2.857,2.857C465.574,239.372,464.295,240.652,462.717,240.652z"/>
	</g>
	<g clip-path="url(#SVGID_2_)">
		<path fill="#E3B8D3" d="M462.717,267.916c-15.484,0-23.272-5.479-30.806-10.779c-7.117-5.008-13.839-9.739-27.517-9.739
			c-13.676,0-20.399,4.731-27.517,9.739c-7.533,5.3-15.321,10.779-30.808,10.779c-15.484,0-23.272-5.479-30.804-10.779
			c-7.117-5.008-13.839-9.739-27.513-9.739s-20.396,4.731-27.513,9.739c-7.531,5.3-15.319,10.779-30.804,10.779
			c-15.482,0-23.271-5.479-30.802-10.779c-7.117-5.008-13.839-9.739-27.513-9.739c-13.674,0-20.396,4.731-27.513,9.739
			c-7.531,5.3-15.319,10.779-30.802,10.779c-15.481,0-23.267-5.479-30.796-10.779c-7.116-5.008-13.837-9.739-27.509-9.739
			c-13.672,0-20.394,4.731-27.51,9.739c-7.529,5.3-15.316,10.779-30.796,10.779s-23.266-5.479-30.795-10.779
			c-7.114-5.008-13.834-9.739-27.504-9.739c-1.578,0-2.858-1.279-2.858-2.857s1.28-2.857,2.858-2.857
			c15.48,0,23.266,5.479,30.795,10.779c7.114,5.008,13.834,9.739,27.504,9.739c13.671,0,20.391-4.729,27.506-9.739
			c7.531-5.3,15.317-10.779,30.8-10.779c15.482,0,23.269,5.479,30.799,10.779c7.115,5.01,13.835,9.739,27.506,9.739
			c13.674,0,20.396-4.731,27.514-9.739c7.531-5.3,15.318-10.779,30.802-10.779c15.483,0,23.271,5.479,30.802,10.779
			c7.117,5.008,13.839,9.739,27.513,9.739s20.396-4.731,27.513-9.739c7.531-5.3,15.319-10.779,30.804-10.779
			s23.272,5.479,30.804,10.779c7.117,5.008,13.839,9.739,27.513,9.739c13.676,0,20.399-4.731,27.517-9.739
			c7.533-5.3,15.321-10.779,30.808-10.779s23.274,5.479,30.808,10.779c7.117,5.008,13.839,9.739,27.515,9.739
			c1.578,0,2.857,1.279,2.857,2.857S464.295,267.916,462.717,267.916z"/>
	</g>
	<g clip-path="url(#SVGID_2_)">
		<path fill="#E3B8D3" d="M462.717,295.179c-15.484,0-23.272-5.479-30.806-10.78c-7.117-5.007-13.839-9.739-27.517-9.739
			c-13.676,0-20.399,4.732-27.517,9.739c-7.533,5.301-15.321,10.78-30.808,10.78c-15.484,0-23.272-5.479-30.804-10.78
			c-7.117-5.007-13.839-9.739-27.513-9.739s-20.396,4.732-27.513,9.739c-7.531,5.301-15.319,10.78-30.804,10.78
			c-15.482,0-23.271-5.479-30.802-10.78c-7.117-5.007-13.839-9.739-27.513-9.739c-13.674,0-20.396,4.732-27.513,9.739
			c-7.531,5.301-15.319,10.78-30.802,10.78c-15.481,0-23.267-5.479-30.796-10.78c-7.116-5.007-13.837-9.739-27.509-9.739
			c-13.672,0-20.394,4.732-27.51,9.739c-7.529,5.301-15.316,10.78-30.796,10.78s-23.266-5.479-30.795-10.78
			c-7.114-5.007-13.834-9.739-27.504-9.739c-1.578,0-2.858-1.279-2.858-2.856c0-1.578,1.28-2.857,2.858-2.857
			c15.48,0,23.266,5.479,30.795,10.779c7.114,5.008,13.834,9.739,27.504,9.739c13.671,0,20.391-4.729,27.506-9.739
			c7.531-5.3,15.317-10.779,30.8-10.779c15.482,0,23.269,5.479,30.799,10.779c7.115,5.01,13.835,9.739,27.506,9.739
			c13.674,0,20.396-4.731,27.514-9.739c7.531-5.3,15.318-10.779,30.802-10.779c15.483,0,23.271,5.479,30.802,10.779
			c7.117,5.008,13.839,9.739,27.513,9.739s20.396-4.731,27.513-9.739c7.531-5.3,15.319-10.779,30.804-10.779
			s23.272,5.479,30.804,10.779c7.117,5.008,13.839,9.739,27.513,9.739c13.676,0,20.399-4.731,27.517-9.739
			c7.533-5.3,15.321-10.779,30.808-10.779s23.274,5.479,30.808,10.779c7.117,5.008,13.839,9.739,27.515,9.739
			c1.578,0,2.857,1.279,2.857,2.857S464.295,295.179,462.717,295.179z"/>
	</g>
	<g clip-path="url(#SVGID_2_)">
		<path fill="#E3B8D3" d="M462.717,322.442c-15.484,0-23.272-5.479-30.806-10.779c-7.117-5.008-13.839-9.739-27.517-9.739
			c-13.676,0-20.399,4.731-27.517,9.739c-7.533,5.3-15.321,10.779-30.808,10.779c-15.484,0-23.272-5.479-30.804-10.779
			c-7.117-5.008-13.839-9.739-27.513-9.739s-20.396,4.731-27.513,9.739c-7.531,5.3-15.319,10.779-30.804,10.779
			c-15.482,0-23.271-5.479-30.802-10.779c-7.117-5.008-13.839-9.739-27.513-9.739c-13.674,0-20.396,4.731-27.513,9.739
			c-7.531,5.3-15.319,10.779-30.802,10.779c-15.481,0-23.267-5.479-30.796-10.779c-7.116-5.008-13.837-9.739-27.509-9.739
			c-13.672,0-20.394,4.731-27.51,9.739c-7.529,5.3-15.316,10.779-30.796,10.779s-23.266-5.479-30.795-10.779
			c-7.114-5.008-13.834-9.739-27.504-9.739c-1.578,0-2.858-1.279-2.858-2.857s1.28-2.857,2.858-2.857
			c15.48,0,23.266,5.479,30.795,10.78c7.114,5.007,13.834,9.739,27.504,9.739c13.671,0,20.391-4.73,27.506-9.739
			c7.531-5.301,15.317-10.78,30.8-10.78c15.482,0,23.269,5.479,30.799,10.78c7.115,5.009,13.835,9.739,27.506,9.739
			c13.674,0,20.396-4.732,27.514-9.739c7.531-5.301,15.318-10.78,30.802-10.78c15.483,0,23.271,5.479,30.802,10.78
			c7.117,5.007,13.839,9.739,27.513,9.739s20.396-4.732,27.513-9.739c7.531-5.301,15.319-10.78,30.804-10.78
			s23.272,5.479,30.804,10.78c7.117,5.007,13.839,9.739,27.513,9.739c13.676,0,20.399-4.732,27.517-9.739
			c7.533-5.301,15.321-10.78,30.808-10.78s23.274,5.479,30.808,10.78c7.117,5.007,13.839,9.739,27.515,9.739
			c1.578,0,2.857,1.279,2.857,2.857C465.574,321.163,464.295,322.442,462.717,322.442z"/>
	</g>
	<g clip-path="url(#SVGID_2_)">
		<path fill="#E3B8D3" d="M462.717,349.707c-15.484,0-23.272-5.479-30.806-10.779c-7.117-5.008-13.839-9.739-27.517-9.739
			c-13.676,0-20.399,4.731-27.517,9.739c-7.533,5.3-15.321,10.779-30.808,10.779c-15.484,0-23.272-5.479-30.804-10.779
			c-7.117-5.008-13.839-9.739-27.513-9.739s-20.396,4.731-27.513,9.739c-7.531,5.3-15.319,10.779-30.804,10.779
			c-15.482,0-23.271-5.479-30.802-10.779c-7.117-5.008-13.839-9.739-27.513-9.739c-13.674,0-20.396,4.731-27.513,9.739
			c-7.531,5.3-15.319,10.779-30.802,10.779c-15.481,0-23.267-5.479-30.796-10.779c-7.116-5.008-13.837-9.739-27.509-9.739
			c-13.672,0-20.394,4.731-27.51,9.739c-7.529,5.3-15.316,10.779-30.796,10.779s-23.266-5.479-30.795-10.779
			c-7.114-5.008-13.834-9.739-27.504-9.739c-1.578,0-2.858-1.279-2.858-2.857s1.28-2.857,2.858-2.857
			c15.48,0,23.266,5.479,30.795,10.779c7.114,5.008,13.834,9.739,27.504,9.739c13.671,0,20.391-4.729,27.506-9.739
			c7.531-5.3,15.317-10.779,30.8-10.779c15.482,0,23.269,5.479,30.799,10.779c7.115,5.01,13.835,9.739,27.506,9.739
			c13.674,0,20.396-4.731,27.514-9.739c7.531-5.3,15.318-10.779,30.802-10.779c15.483,0,23.271,5.479,30.802,10.779
			c7.117,5.008,13.839,9.739,27.513,9.739s20.396-4.731,27.513-9.739c7.531-5.3,15.319-10.779,30.804-10.779
			s23.272,5.479,30.804,10.779c7.117,5.008,13.839,9.739,27.513,9.739c13.676,0,20.399-4.731,27.517-9.739
			c7.533-5.3,15.321-10.779,30.808-10.779s23.274,5.479,30.808,10.779c7.117,5.008,13.839,9.739,27.515,9.739
			c1.578,0,2.857,1.279,2.857,2.857S464.295,349.707,462.717,349.707z"/>
	</g>
	<g clip-path="url(#SVGID_2_)">
		<path fill="#E3B8D3" d="M462.717,376.97c-15.484,0-23.272-5.479-30.806-10.78c-7.117-5.007-13.839-9.739-27.517-9.739
			c-13.676,0-20.399,4.732-27.517,9.739c-7.533,5.301-15.321,10.78-30.808,10.78c-15.484,0-23.272-5.479-30.804-10.78
			c-7.117-5.007-13.839-9.739-27.513-9.739s-20.396,4.732-27.513,9.739c-7.531,5.301-15.319,10.78-30.804,10.78
			c-15.482,0-23.271-5.479-30.802-10.78c-7.117-5.007-13.839-9.739-27.513-9.739c-13.674,0-20.396,4.732-27.513,9.739
			c-7.531,5.301-15.319,10.78-30.802,10.78c-15.481,0-23.267-5.479-30.796-10.78c-7.116-5.007-13.837-9.739-27.509-9.739
			c-13.672,0-20.394,4.732-27.51,9.739c-7.529,5.301-15.316,10.78-30.796,10.78s-23.266-5.479-30.795-10.78
			c-7.114-5.007-13.834-9.739-27.504-9.739c-1.578,0-2.858-1.279-2.858-2.857c0-1.577,1.28-2.856,2.858-2.856
			c15.48,0,23.266,5.479,30.795,10.779c7.114,5.008,13.834,9.739,27.504,9.739c13.671,0,20.391-4.729,27.506-9.739
			c7.531-5.3,15.317-10.779,30.8-10.779c15.482,0,23.269,5.479,30.799,10.779c7.115,5.01,13.835,9.739,27.506,9.739
			c13.674,0,20.396-4.731,27.514-9.739c7.531-5.3,15.318-10.779,30.802-10.779c15.483,0,23.271,5.479,30.802,10.779
			c7.117,5.008,13.839,9.739,27.513,9.739s20.396-4.731,27.513-9.739c7.531-5.3,15.319-10.779,30.804-10.779
			s23.272,5.479,30.804,10.779c7.117,5.008,13.839,9.739,27.513,9.739c13.676,0,20.399-4.731,27.517-9.739
			c7.533-5.3,15.321-10.779,30.808-10.779s23.274,5.479,30.808,10.779c7.117,5.008,13.839,9.739,27.515,9.739
			c1.578,0,2.857,1.279,2.857,2.857S464.295,376.97,462.717,376.97z"/>
	</g>
	<g clip-path="url(#SVGID_2_)">
		<path fill="#E3B8D3" d="M462.717,404.233c-15.484,0-23.272-5.479-30.806-10.779c-7.117-5.008-13.839-9.739-27.517-9.739
			c-13.676,0-20.399,4.731-27.517,9.739c-7.533,5.3-15.321,10.779-30.808,10.779c-15.484,0-23.272-5.479-30.804-10.779
			c-7.117-5.008-13.839-9.739-27.513-9.739s-20.396,4.731-27.513,9.739c-7.531,5.3-15.319,10.779-30.804,10.779
			c-15.482,0-23.271-5.479-30.802-10.779c-7.117-5.008-13.839-9.739-27.513-9.739c-13.674,0-20.396,4.731-27.513,9.739
			c-7.531,5.3-15.319,10.779-30.802,10.779c-15.481,0-23.267-5.479-30.796-10.779c-7.116-5.008-13.837-9.739-27.509-9.739
			c-13.672,0-20.394,4.731-27.51,9.739c-7.529,5.3-15.316,10.779-30.796,10.779s-23.266-5.479-30.795-10.779
			c-7.114-5.008-13.834-9.739-27.504-9.739c-1.578,0-2.858-1.279-2.858-2.857S-63.68,378-62.102,378
			c15.48,0,23.266,5.479,30.795,10.78c7.114,5.007,13.834,9.739,27.504,9.739c13.671,0,20.391-4.73,27.506-9.739
			c7.531-5.301,15.317-10.78,30.8-10.78c15.482,0,23.269,5.479,30.799,10.78c7.115,5.009,13.835,9.739,27.506,9.739
			c13.674,0,20.396-4.732,27.514-9.739c7.531-5.301,15.318-10.78,30.802-10.78c15.483,0,23.271,5.479,30.802,10.78
			c7.117,5.007,13.839,9.739,27.513,9.739s20.396-4.732,27.513-9.739c7.531-5.301,15.319-10.78,30.804-10.78
			s23.272,5.479,30.804,10.78c7.117,5.007,13.839,9.739,27.513,9.739c13.676,0,20.399-4.732,27.517-9.739
			c7.533-5.301,15.321-10.78,30.808-10.78s23.274,5.479,30.808,10.78c7.117,5.007,13.839,9.739,27.515,9.739
			c1.578,0,2.857,1.279,2.857,2.857C465.574,402.954,464.295,404.233,462.717,404.233z"/>
	</g>
	<g clip-path="url(#SVGID_2_)">
		<path fill="#E3B8D3" d="M462.717,431.498c-15.484,0-23.272-5.479-30.806-10.779c-7.117-5.008-13.839-9.739-27.517-9.739
			c-13.676,0-20.399,4.731-27.517,9.739c-7.533,5.3-15.321,10.779-30.808,10.779c-15.484,0-23.272-5.479-30.804-10.779
			c-7.117-5.008-13.839-9.739-27.513-9.739s-20.396,4.731-27.513,9.739c-7.531,5.3-15.319,10.779-30.804,10.779
			c-15.482,0-23.271-5.479-30.802-10.779c-7.117-5.008-13.839-9.739-27.513-9.739c-13.674,0-20.396,4.731-27.513,9.739
			c-7.531,5.3-15.319,10.779-30.802,10.779c-15.481,0-23.267-5.479-30.796-10.779c-7.116-5.008-13.837-9.739-27.509-9.739
			c-13.672,0-20.394,4.731-27.51,9.739c-7.529,5.3-15.316,10.779-30.796,10.779s-23.266-5.479-30.795-10.779
			c-7.114-5.008-13.834-9.739-27.504-9.739c-1.578,0-2.858-1.279-2.858-2.857s1.28-2.857,2.858-2.857
			c15.48,0,23.266,5.479,30.795,10.779c7.114,5.008,13.834,9.739,27.504,9.739c13.671,0,20.391-4.729,27.506-9.739
			c7.531-5.3,15.317-10.779,30.8-10.779c15.482,0,23.269,5.479,30.799,10.779c7.115,5.01,13.835,9.739,27.506,9.739
			c13.674,0,20.396-4.731,27.514-9.739c7.531-5.3,15.318-10.779,30.802-10.779c15.483,0,23.271,5.479,30.802,10.779
			c7.117,5.008,13.839,9.739,27.513,9.739s20.396-4.731,27.513-9.739c7.531-5.3,15.319-10.779,30.804-10.779
			s23.272,5.479,30.804,10.779c7.117,5.008,13.839,9.739,27.513,9.739c13.676,0,20.399-4.731,27.517-9.739
			c7.533-5.3,15.321-10.779,30.808-10.779s23.274,5.479,30.808,10.779c7.117,5.008,13.839,9.739,27.515,9.739
			c1.578,0,2.857,1.279,2.857,2.857S464.295,431.498,462.717,431.498z"/>
	</g>
</g>
<g>
	<path fill="#E3B8D3" d="M168.174,253.483c-0.001,0-0.002,0-0.004,0c-1.09-0.002-1.971-0.886-1.969-1.977
		c0.008-4.262,0.02-8.527,0.035-12.791c0.009-2.788-0.728-4.6-2.628-6.456c-11.772-11.521-22.579-22.319-33.039-33.01
		c-3.83-3.914-5.313-9.112-3.967-13.905c1.336-4.755,5.252-8.385,10.474-9.708c4.737-1.208,9.181,0.211,13.192,4.207
		c2.552,2.54,5.091,5.092,7.631,7.645c5.73,5.762,11.657,11.719,17.628,17.408c1.318,1.255,3.71,2.231,5.563,2.27
		c6.773,0.145,13.679,0.139,20.348,0.129c5.824-0.005,11.841-0.015,17.77,0.079c2.636,0.091,4.387-0.737,6.369-2.778
		c7.988-8.217,16.187-16.335,24.116-24.184c6.626-6.564,14.466-6.993,20.467-1.129c2.815,2.752,4.318,6.02,4.343,9.45
		c0.029,3.893-1.832,7.838-5.379,11.408c-3.451,3.473-6.919,6.93-10.385,10.386c-7.185,7.163-14.612,14.571-21.768,21.991
		c-1.402,1.452-2.47,3.998-2.481,5.921c-0.023,4.132-0.046,8.246-0.062,12.361c-0.004,1.087-0.887,1.965-1.974,1.965
		c-0.001,0-0.005,0-0.007,0c-1.089-0.004-1.97-0.89-1.966-1.98c0.016-4.115,0.039-8.232,0.062-12.352
		c0.018-2.935,1.493-6.485,3.588-8.655c7.181-7.446,14.623-14.868,21.821-22.045c3.462-3.452,6.925-6.905,10.373-10.373
		c2.788-2.807,4.252-5.78,4.231-8.597c-0.018-2.389-1.079-4.63-3.156-6.658c-4.414-4.317-9.858-3.913-14.934,1.11
		c-7.915,7.838-16.1,15.941-24.063,24.133c-2.767,2.846-5.502,4.067-9.261,3.973c-5.894-0.095-11.894-0.085-17.7-0.079
		c-6.696,0.01-13.621,0.016-20.438-0.129c-2.86-0.062-6.156-1.41-8.201-3.358c-6.01-5.726-11.955-11.703-17.704-17.482
		c-2.534-2.548-5.069-5.097-7.617-7.632c-3.044-3.03-6.044-4.041-9.438-3.179c-3.895,0.987-6.682,3.521-7.645,6.951
		c-0.975,3.468,0.115,7.142,2.988,10.079c10.439,10.669,21.226,21.448,32.977,32.948c2.686,2.626,3.826,5.404,3.814,9.291
		c-0.015,4.262-0.027,8.523-0.035,12.785C170.144,252.603,169.261,253.483,168.174,253.483z"/>
</g>
<g>
	<path fill="#E3B8D3" d="M200.273,207.215h-0.015c-16.516,0-30.005-13.485-30.069-30.06c-0.032-7.897,3.095-15.406,8.805-21.143
		c5.74-5.766,13.288-8.944,21.254-8.949c16.547,0,30.038,13.484,30.091,30.058c0.025,7.9-3.107,15.411-8.822,21.149
		C215.776,204.033,208.231,207.209,200.273,207.215z M200.268,151.009c-6.928,0.005-13.484,2.77-18.478,7.788
		c-4.964,4.987-7.684,11.501-7.656,18.343c0.056,14.408,11.775,26.129,26.124,26.129v1.973l0.013-1.973
		c6.902-0.004,13.455-2.769,18.451-7.784c4.969-4.989,7.694-11.506,7.672-18.351C226.347,162.973,214.383,151.009,200.268,151.009z"
		/>
</g>
</svg>
