<svg xmlns="http://www.w3.org/2000/svg" xmlns:xlink="http://www.w3.org/1999/xlink" width="400" height="400"><defs><path id="A" d="M104.09 131.668h192.436v136.87H104.09v-136.87zM23.115 338.885H377.5V61.663H23.115v277.222z"/></defs><clipPath id="B"><use xlink:href="#A"/></clipPath><g fill="#E3B8D3"><path d="M462.717-4.72c-15.484 0-23.272-5.48-30.804-10.78-7.12-5.008-13.84-9.738-27.52-9.738s-20.4 4.73-27.517 9.738c-7.533 5.3-15.32 10.78-30.808 10.78s-23.272-5.48-30.804-10.78c-7.117-5.008-13.84-9.738-27.513-9.738s-20.396 4.73-27.513 9.738c-7.53 5.3-15.32 10.78-30.804 10.78s-23.27-5.48-30.802-10.78c-7.117-5.008-13.84-9.738-27.513-9.738s-20.396 4.73-27.513 9.737c-7.53 5.3-15.32 10.78-30.802 10.78s-23.267-5.48-30.796-10.78c-7.116-5.008-13.837-9.738-27.51-9.738s-20.394 4.73-27.5 9.738C19.464-10.2 11.677-4.72-3.803-4.72s-23.266-5.48-30.794-10.78c-7.115-5.007-13.835-9.737-27.505-9.737a2.86 2.86 0 0 1-2.858-2.858 2.86 2.86 0 0 1 2.858-2.858c15.48 0 23.266 5.48 30.795 10.78 7.114 5.007 13.834 9.737 27.504 9.737s20.39-4.73 27.506-9.737c7.53-5.3 15.317-10.78 30.8-10.78s23.27 5.48 30.8 10.78c7.115 5.007 13.835 9.737 27.506 9.737s20.396-4.73 27.514-9.738c7.53-5.3 15.318-10.78 30.802-10.78s23.27 5.48 30.802 10.78c7.117 5.008 13.84 9.738 27.513 9.738s20.396-4.73 27.513-9.738c7.53-5.3 15.32-10.78 30.804-10.78s23.272 5.48 30.804 10.78c7.117 5.008 13.84 9.738 27.513 9.738s20.4-4.73 27.517-9.738c7.533-5.3 15.32-10.78 30.808-10.78s23.274 5.48 30.808 10.78c7.117 5.007 13.84 9.737 27.515 9.737a2.86 2.86 0 0 1 2.857 2.858c-.004 1.577-1.283 2.857-2.86 2.857zm0 27.264c-15.484 0-23.272-5.48-30.806-10.78-7.117-5.008-13.84-9.738-27.517-9.738s-20.4 4.73-27.517 9.738c-7.533 5.3-15.32 10.78-30.808 10.78s-23.272-5.48-30.804-10.78c-7.117-5.008-13.84-9.738-27.513-9.738s-20.396 4.73-27.513 9.738c-7.53 5.3-15.32 10.78-30.804 10.78s-23.27-5.48-30.802-10.78c-7.117-5.008-13.84-9.738-27.513-9.738s-20.396 4.73-27.513 9.738c-7.53 5.3-15.32 10.78-30.802 10.78s-23.267-5.48-30.796-10.78C74.893 6.757 68.172 2.027 54.5 2.027S34.106 6.757 27 11.765c-7.53 5.3-15.316 10.78-30.796 10.78s-23.266-5.48-30.795-10.78c-7.114-5.008-13.834-9.738-27.504-9.738a2.86 2.86 0 0 1-2.858-2.858 2.86 2.86 0 0 1 2.858-2.857c15.48 0 23.266 5.48 30.795 10.78C-24.196 12-17.476 16.83-3.806 16.83S16.585 12 23.7 7.093c7.53-5.3 15.317-10.78 30.8-10.78s23.27 5.48 30.8 10.78C92.414 12 99.134 16.83 112.805 16.83S133.2 12 140.32 7.092c7.53-5.3 15.318-10.78 30.802-10.78s23.27 5.48 30.802 10.78c7.117 5.008 13.84 9.738 27.513 9.738S249.832 12 256.95 7.092c7.53-5.3 15.32-10.78 30.804-10.78s23.272 5.48 30.804 10.78c7.117 5.008 13.84 9.738 27.513 9.738s20.4-4.73 27.517-9.738c7.533-5.3 15.32-10.78 30.808-10.78s23.274 5.48 30.808 10.78c7.117 5.008 13.84 9.738 27.515 9.738a2.86 2.86 0 0 1 2.857 2.858 2.86 2.86 0 0 1-2.858 2.857zm0 27.263c-15.484 0-23.272-5.48-30.804-10.78-7.12-5.008-13.84-9.738-27.52-9.738s-20.4 4.73-27.517 9.738c-7.533 5.3-15.32 10.78-30.808 10.78s-23.272-5.48-30.804-10.78c-7.117-5.008-13.84-9.738-27.513-9.738s-20.396 4.73-27.513 9.738c-7.53 5.3-15.32 10.78-30.804 10.78s-23.27-5.48-30.802-10.78c-7.117-5.008-13.84-9.738-27.513-9.738s-20.396 4.73-27.513 9.737c-7.53 5.3-15.32 10.78-30.802 10.78S89.538 44.33 82.01 39.03C74.893 34.02 68.172 29.29 54.5 29.29S34.106 34.02 27 39.03c-7.53 5.3-15.316 10.78-30.796 10.78s-23.266-5.48-30.794-10.78c-7.115-5.007-13.835-9.737-27.505-9.737a2.86 2.86 0 0 1-2.858-2.858 2.86 2.86 0 0 1 2.858-2.858c15.48 0 23.266 5.48 30.795 10.78 7.114 5.008 13.834 9.738 27.504 9.738s20.39-4.73 27.506-9.738c7.53-5.3 15.317-10.78 30.8-10.78s23.27 5.48 30.8 10.78c7.115 5.008 13.835 9.738 27.506 9.738s20.396-4.73 27.514-9.74c7.53-5.3 15.318-10.78 30.802-10.78s23.27 5.48 30.802 10.78c7.117 5.01 13.84 9.74 27.513 9.74s20.396-4.73 27.513-9.74c7.53-5.3 15.32-10.78 30.804-10.78s23.272 5.48 30.804 10.78c7.117 5.01 13.84 9.74 27.513 9.74s20.4-4.73 27.517-9.74c7.533-5.3 15.32-10.78 30.808-10.78s23.274 5.48 30.808 10.78c7.117 5.008 13.84 9.738 27.515 9.738a2.86 2.86 0 0 1 2.857 2.858 2.86 2.86 0 0 1-2.858 2.857zm0 27.264c-15.484 0-23.272-5.48-30.806-10.78-7.117-5.008-13.84-9.738-27.517-9.738s-20.4 4.73-27.517 9.738c-7.533 5.3-15.32 10.78-30.808 10.78s-23.272-5.48-30.804-10.78c-7.117-5.008-13.84-9.738-27.513-9.738s-20.396 4.73-27.513 9.738c-7.53 5.3-15.32 10.78-30.804 10.78s-23.27-5.48-30.802-10.78c-7.117-5.008-13.84-9.738-27.513-9.738s-20.396 4.73-27.513 9.738c-7.53 5.3-15.32 10.78-30.802 10.78s-23.267-5.48-30.796-10.78c-7.116-5.008-13.837-9.738-27.51-9.738s-20.394 4.73-27.5 9.738c-7.53 5.3-15.316 10.78-30.796 10.78s-23.266-5.48-30.795-10.78c-7.114-5.008-13.834-9.738-27.504-9.738a2.86 2.86 0 0 1-2.858-2.858 2.86 2.86 0 0 1 2.858-2.857c15.48 0 23.266 5.48 30.795 10.78 7.114 5.008 13.834 9.738 27.504 9.738s20.39-4.73 27.506-9.737c7.53-5.3 15.317-10.78 30.8-10.78s23.27 5.48 30.8 10.78c7.115 5.008 13.835 9.738 27.506 9.738s20.396-4.73 27.514-9.738c7.53-5.3 15.318-10.78 30.802-10.78s23.27 5.48 30.802 10.78c7.117 5.008 13.84 9.738 27.513 9.738s20.396-4.73 27.513-9.738c7.53-5.3 15.32-10.78 30.804-10.78s23.272 5.48 30.804 10.78c7.117 5.008 13.84 9.738 27.513 9.738s20.4-4.73 27.517-9.738c7.533-5.3 15.32-10.78 30.808-10.78s23.274 5.48 30.808 10.78c7.117 5.008 13.84 9.738 27.515 9.738a2.86 2.86 0 0 1 2.857 2.858 2.86 2.86 0 0 1-2.858 2.857zm0 27.262c-15.484 0-23.272-5.48-30.804-10.778-7.12-5.01-13.84-9.738-27.52-9.738s-20.4 4.73-27.517 9.738c-7.533 5.3-15.32 10.778-30.808 10.778s-23.272-5.48-30.804-10.778c-7.117-5.01-13.84-9.738-27.513-9.738s-20.396 4.73-27.513 9.738c-7.53 5.3-15.32 10.778-30.804 10.778s-23.27-5.48-30.802-10.778c-7.117-5.01-13.84-9.738-27.513-9.738s-20.396 4.73-27.513 9.737c-7.53 5.3-15.32 10.78-30.802 10.78s-23.267-5.48-30.796-10.778c-7.116-5.01-13.837-9.738-27.51-9.738s-20.394 4.73-27.5 9.738c-7.53 5.3-15.316 10.778-30.796 10.778s-23.266-5.48-30.794-10.78c-7.115-5.008-13.835-9.737-27.505-9.737a2.86 2.86 0 0 1-2.858-2.858 2.86 2.86 0 0 1 2.858-2.858c15.48 0 23.266 5.48 30.795 10.78 7.114 5.007 13.834 9.737 27.504 9.737s20.39-4.73 27.506-9.737c7.53-5.3 15.317-10.78 30.8-10.78s23.27 5.48 30.8 10.78c7.115 5.007 13.835 9.737 27.506 9.737s20.396-4.73 27.514-9.738c7.53-5.3 15.318-10.78 30.802-10.78s23.27 5.48 30.802 10.78c7.117 5.008 13.84 9.738 27.513 9.738s20.396-4.73 27.513-9.738c7.53-5.3 15.32-10.78 30.804-10.78s23.272 5.48 30.804 10.78c7.117 5.008 13.84 9.738 27.513 9.738s20.4-4.73 27.517-9.738c7.533-5.3 15.32-10.78 30.808-10.78s23.274 5.48 30.808 10.78c7.117 5.007 13.84 9.737 27.515 9.737a2.86 2.86 0 0 1 2.857 2.858 2.86 2.86 0 0 1-2.858 2.856zm0 27.265c-15.484 0-23.272-5.48-30.806-10.78-7.117-5.008-13.84-9.738-27.517-9.738s-20.4 4.73-27.517 9.738c-7.533 5.3-15.32 10.78-30.808 10.78s-23.272-5.48-30.804-10.78c-7.117-5.008-13.84-9.738-27.513-9.738s-20.396 4.73-27.513 9.738c-7.53 5.3-15.32 10.78-30.804 10.78s-23.27-5.48-30.802-10.78c-7.117-5.008-13.84-9.738-27.513-9.738s-20.396 4.73-27.513 9.738c-7.53 5.3-15.32 10.78-30.802 10.78s-23.267-5.48-30.796-10.78c-7.116-5.008-13.837-9.738-27.51-9.738s-20.394 4.73-27.5 9.738c-7.53 5.3-15.316 10.78-30.796 10.78s-23.266-5.48-30.795-10.78c-7.114-5.008-13.834-9.738-27.504-9.738a2.86 2.86 0 0 1-2.858-2.858 2.86 2.86 0 0 1 2.858-2.857c15.48 0 23.266 5.48 30.795 10.78 7.114 5.01 13.834 9.738 27.504 9.738s20.39-4.73 27.506-9.737c7.53-5.3 15.317-10.78 30.8-10.78s23.27 5.48 30.8 10.78c7.115 5.01 13.835 9.738 27.506 9.738s20.396-4.73 27.514-9.738c7.53-5.3 15.318-10.78 30.802-10.78s23.27 5.48 30.802 10.78c7.117 5.01 13.84 9.738 27.513 9.738s20.396-4.73 27.513-9.738c7.53-5.3 15.32-10.78 30.804-10.78s23.272 5.48 30.804 10.78c7.117 5.01 13.84 9.738 27.513 9.738s20.4-4.73 27.517-9.738c7.533-5.3 15.32-10.78 30.808-10.78s23.274 5.48 30.808 10.78c7.117 5.01 13.84 9.738 27.515 9.738a2.86 2.86 0 0 1 2.857 2.858 2.86 2.86 0 0 1-2.858 2.858zm0 27.262c-15.484 0-23.272-5.48-30.804-10.78-7.12-5.008-13.84-9.738-27.52-9.738s-20.4 4.73-27.517 9.738c-7.533 5.3-15.32 10.78-30.808 10.78s-23.272-5.48-30.804-10.78c-7.117-5.008-13.84-9.738-27.513-9.738s-20.396 4.73-27.513 9.738c-7.53 5.3-15.32 10.78-30.804 10.78s-23.27-5.48-30.802-10.78c-7.117-5.008-13.84-9.738-27.513-9.738s-20.396 4.73-27.513 9.737c-7.53 5.3-15.32 10.78-30.802 10.78s-23.267-5.48-30.796-10.78c-7.116-5.008-13.837-9.738-27.51-9.738s-20.394 4.73-27.5 9.738c-7.53 5.3-15.316 10.78-30.796 10.78s-23.266-5.48-30.794-10.78c-7.115-5.007-13.835-9.737-27.505-9.737a2.86 2.86 0 0 1-2.858-2.858 2.86 2.86 0 0 1 2.858-2.858c15.48 0 23.266 5.48 30.795 10.78 7.114 5.007 13.834 9.737 27.504 9.737s20.39-4.73 27.506-9.737c7.53-5.3 15.317-10.78 30.8-10.78s23.27 5.48 30.8 10.78c7.115 5.007 13.835 9.737 27.506 9.737s20.396-4.73 27.514-9.738c7.53-5.3 15.318-10.78 30.802-10.78s23.27 5.48 30.802 10.78c7.117 5.008 13.84 9.738 27.513 9.738s20.396-4.73 27.513-9.738c7.53-5.3 15.32-10.78 30.804-10.78s23.272 5.48 30.804 10.78c7.117 5.008 13.84 9.738 27.513 9.738s20.4-4.73 27.517-9.738c7.533-5.3 15.32-10.78 30.808-10.78s23.274 5.48 30.808 10.78c7.117 5.007 13.84 9.737 27.515 9.737a2.86 2.86 0 0 1 2.857 2.858 2.86 2.86 0 0 1-2.858 2.857zm0 27.264c-15.484 0-23.272-5.48-30.806-10.78-7.117-5.01-13.84-9.74-27.517-9.74s-20.4 4.73-27.517 9.74c-7.533 5.3-15.32 10.78-30.808 10.78s-23.272-5.48-30.804-10.78c-7.117-5.01-13.84-9.74-27.513-9.74s-20.396 4.73-27.513 9.74c-7.53 5.3-15.32 10.78-30.804 10.78s-23.27-5.48-30.802-10.78c-7.117-5.01-13.84-9.74-27.513-9.74s-20.396 4.73-27.513 9.74c-7.53 5.3-15.32 10.78-30.802 10.78s-23.267-5.48-30.796-10.78c-7.116-5.01-13.837-9.74-27.51-9.74s-20.394 4.73-27.5 9.74c-7.53 5.3-15.316 10.78-30.796 10.78s-23.266-5.48-30.795-10.78c-7.114-5.01-13.834-9.74-27.504-9.74a2.86 2.86 0 0 1-2.858-2.858 2.86 2.86 0 0 1 2.858-2.857c15.48 0 23.266 5.48 30.795 10.78 7.114 5.008 13.834 9.738 27.504 9.738s20.39-4.73 27.506-9.737c7.53-5.3 15.317-10.78 30.8-10.78s23.27 5.48 30.8 10.78c7.115 5.008 13.835 9.738 27.506 9.738s20.396-4.73 27.514-9.738c7.53-5.3 15.318-10.78 30.802-10.78s23.27 5.48 30.802 10.78c7.117 5.008 13.84 9.738 27.513 9.738s20.396-4.73 27.513-9.738c7.53-5.3 15.32-10.78 30.804-10.78s23.272 5.48 30.804 10.78c7.117 5.008 13.84 9.738 27.513 9.738s20.4-4.73 27.517-9.738c7.533-5.3 15.32-10.78 30.808-10.78s23.274 5.48 30.808 10.78c7.117 5.008 13.84 9.738 27.515 9.738a2.86 2.86 0 0 1 2.857 2.858 2.86 2.86 0 0 1-2.858 2.857zm0 27.263c-15.484 0-23.272-5.48-30.804-10.778-7.12-5.008-13.84-9.738-27.52-9.738s-20.4 4.73-27.517 9.738c-7.533 5.3-15.323 10.778-30.808 10.778s-23.272-5.48-30.804-10.778c-7.117-5.008-13.84-9.738-27.513-9.738s-20.397 4.73-27.513 9.738c-7.53 5.3-15.32 10.778-30.804 10.778s-23.27-5.48-30.802-10.778c-7.117-5.008-13.84-9.738-27.513-9.738s-20.396 4.73-27.513 9.736c-7.53 5.3-15.32 10.78-30.802 10.78S89.538 207.91 82.01 202.6c-7.116-5.008-13.837-9.738-27.51-9.738s-20.394 4.73-27.5 9.738c-7.53 5.3-15.316 10.778-30.796 10.778s-23.266-5.48-30.794-10.78c-7.115-5.006-13.835-9.736-27.505-9.736a2.86 2.86 0 0 1-2.858-2.858 2.86 2.86 0 0 1 2.858-2.858c15.48 0 23.266 5.48 30.794 10.78 7.115 5.01 13.835 9.738 27.505 9.738s20.39-4.73 27.506-9.738c7.53-5.3 15.317-10.78 30.8-10.78s23.27 5.48 30.798 10.78c7.116 5.01 13.836 9.738 27.507 9.738s20.396-4.73 27.514-9.738c7.53-5.3 15.318-10.78 30.802-10.78s23.27 5.48 30.802 10.78c7.117 5.01 13.84 9.738 27.513 9.738s20.397-4.73 27.513-9.738c7.53-5.3 15.32-10.78 30.804-10.78s23.272 5.48 30.804 10.78c7.115 5.01 13.84 9.738 27.513 9.738s20.4-4.73 27.52-9.738c7.53-5.3 15.32-10.78 30.806-10.78s23.274 5.48 30.808 10.78c7.117 5.01 13.84 9.738 27.515 9.738a2.86 2.86 0 0 1 2.857 2.857 2.86 2.86 0 0 1-2.858 2.857zm0 27.264c-15.484 0-23.272-5.48-30.806-10.78-7.117-5.008-13.84-9.74-27.517-9.74s-20.4 4.73-27.517 9.74c-7.533 5.3-15.32 10.78-30.808 10.78s-23.272-5.48-30.804-10.78c-7.117-5.008-13.84-9.74-27.513-9.74s-20.396 4.73-27.513 9.74c-7.53 5.3-15.32 10.78-30.804 10.78s-23.27-5.48-30.802-10.78c-7.117-5.008-13.84-9.74-27.513-9.74s-20.396 4.73-27.513 9.74c-7.53 5.3-15.32 10.78-30.802 10.78s-23.267-5.48-30.796-10.78c-7.116-5.008-13.837-9.74-27.51-9.74s-20.394 4.73-27.5 9.74c-7.53 5.3-15.316 10.78-30.796 10.78s-23.266-5.48-30.795-10.78c-7.114-5.008-13.834-9.74-27.504-9.74a2.86 2.86 0 0 1-2.858-2.857 2.86 2.86 0 0 1 2.858-2.857c15.48 0 23.266 5.48 30.795 10.78 7.114 5.007 13.834 9.74 27.504 9.74s20.39-4.73 27.506-9.74c7.53-5.3 15.317-10.78 30.8-10.78s23.27 5.48 30.8 10.78c7.115 5.01 13.835 9.74 27.506 9.74s20.396-4.732 27.514-9.74c7.53-5.3 15.318-10.78 30.802-10.78s23.27 5.48 30.802 10.78c7.117 5.007 13.84 9.74 27.513 9.74s20.396-4.732 27.513-9.74c7.53-5.3 15.32-10.78 30.804-10.78s23.272 5.48 30.804 10.78c7.117 5.007 13.84 9.74 27.513 9.74s20.4-4.732 27.517-9.74c7.533-5.3 15.32-10.78 30.808-10.78s23.274 5.48 30.808 10.78c7.117 5.007 13.84 9.74 27.515 9.74 1.578 0 2.857 1.28 2.857 2.857a2.86 2.86 0 0 1-2.858 2.857zm0 27.264c-15.484 0-23.272-5.48-30.806-10.78-7.117-5.008-13.84-9.74-27.517-9.74s-20.4 4.73-27.517 9.74c-7.533 5.3-15.32 10.78-30.808 10.78s-23.272-5.48-30.804-10.78c-7.117-5.008-13.84-9.74-27.513-9.74s-20.396 4.73-27.513 9.74c-7.53 5.3-15.32 10.78-30.804 10.78s-23.27-5.48-30.802-10.78c-7.117-5.008-13.84-9.74-27.513-9.74s-20.396 4.73-27.513 9.74c-7.53 5.3-15.32 10.78-30.802 10.78s-23.267-5.48-30.796-10.78c-7.116-5.008-13.837-9.74-27.51-9.74s-20.394 4.73-27.5 9.74c-7.53 5.3-15.316 10.78-30.796 10.78s-23.266-5.48-30.795-10.78c-7.114-5.008-13.834-9.74-27.504-9.74a2.86 2.86 0 0 1-2.858-2.857 2.86 2.86 0 0 1 2.858-2.857c15.48 0 23.266 5.48 30.795 10.78 7.114 5.008 13.834 9.74 27.504 9.74s20.39-4.73 27.506-9.74c7.53-5.3 15.317-10.78 30.8-10.78s23.27 5.48 30.8 10.78c7.115 5 13.835 9.74 27.506 9.74s20.396-4.73 27.514-9.74c7.53-5.3 15.318-10.78 30.802-10.78s23.27 5.48 30.802 10.78c7.117 5.008 13.84 9.74 27.513 9.74s20.396-4.73 27.513-9.74c7.53-5.3 15.32-10.78 30.804-10.78s23.272 5.48 30.804 10.78c7.117 5.008 13.84 9.74 27.513 9.74s20.4-4.73 27.517-9.74c7.533-5.3 15.32-10.78 30.808-10.78s23.274 5.48 30.808 10.78c7.117 5.008 13.84 9.74 27.515 9.74 1.578 0 2.857 1.28 2.857 2.857a2.86 2.86 0 0 1-2.858 2.857zm0 27.263c-15.484 0-23.272-5.48-30.806-10.78-7.117-5.007-13.84-9.74-27.517-9.74s-20.4 4.732-27.517 9.74c-7.533 5.3-15.32 10.78-30.808 10.78s-23.272-5.48-30.804-10.78c-7.117-5.007-13.84-9.74-27.513-9.74s-20.396 4.732-27.513 9.74c-7.53 5.3-15.32 10.78-30.804 10.78s-23.27-5.48-30.802-10.78c-7.117-5.007-13.84-9.74-27.513-9.74s-20.396 4.732-27.513 9.74c-7.53 5.3-15.32 10.78-30.802 10.78S89.538 289.7 82.01 284.4c-7.116-5.007-13.837-9.74-27.51-9.74s-20.394 4.732-27.5 9.74c-7.53 5.3-15.316 10.78-30.796 10.78S-27.072 289.7-34.6 284.4c-7.114-5.007-13.834-9.74-27.504-9.74a2.86 2.86 0 0 1-2.858-2.856 2.86 2.86 0 0 1 2.858-2.857c15.48 0 23.266 5.48 30.795 10.78 7.114 5.008 13.834 9.74 27.504 9.74s20.39-4.73 27.506-9.74c7.53-5.3 15.317-10.78 30.8-10.78s23.27 5.48 30.8 10.78c7.115 5 13.835 9.74 27.506 9.74s20.396-4.73 27.514-9.74c7.53-5.3 15.318-10.78 30.802-10.78s23.27 5.48 30.802 10.78c7.117 5.008 13.84 9.74 27.513 9.74s20.396-4.73 27.513-9.74c7.53-5.3 15.32-10.78 30.804-10.78s23.272 5.48 30.804 10.78c7.117 5.008 13.84 9.74 27.513 9.74s20.4-4.73 27.517-9.74c7.533-5.3 15.32-10.78 30.808-10.78s23.274 5.48 30.808 10.78c7.117 5.008 13.84 9.74 27.515 9.74a2.86 2.86 0 0 1 2.857 2.857 2.86 2.86 0 0 1-2.858 2.857zm0 27.263c-15.484 0-23.272-5.48-30.806-10.78-7.117-5.008-13.84-9.74-27.517-9.74s-20.4 4.73-27.517 9.74c-7.533 5.3-15.32 10.78-30.808 10.78s-23.272-5.48-30.804-10.78c-7.117-5.008-13.84-9.74-27.513-9.74s-20.396 4.73-27.513 9.74c-7.53 5.3-15.32 10.78-30.804 10.78s-23.27-5.48-30.802-10.78c-7.117-5.008-13.84-9.74-27.513-9.74s-20.396 4.73-27.513 9.74c-7.53 5.3-15.32 10.78-30.802 10.78s-23.267-5.48-30.796-10.78c-7.116-5.008-13.837-9.74-27.51-9.74s-20.394 4.73-27.5 9.74c-7.53 5.3-15.316 10.78-30.796 10.78s-23.266-5.48-30.795-10.78c-7.114-5.008-13.834-9.74-27.504-9.74a2.86 2.86 0 0 1-2.858-2.857 2.86 2.86 0 0 1 2.858-2.857c15.48 0 23.266 5.48 30.795 10.78 7.114 5.007 13.834 9.74 27.504 9.74S16.585 312 23.7 307c7.53-5.3 15.317-10.78 30.8-10.78s23.27 5.48 30.8 10.78c7.115 5.01 13.835 9.74 27.506 9.74s20.396-4.732 27.514-9.74c7.53-5.3 15.318-10.78 30.802-10.78s23.27 5.48 30.802 10.78c7.117 5.007 13.84 9.74 27.513 9.74s20.396-4.732 27.513-9.74c7.53-5.3 15.32-10.78 30.804-10.78s23.272 5.48 30.804 10.78c7.117 5.007 13.84 9.74 27.513 9.74s20.4-4.732 27.517-9.74c7.533-5.3 15.32-10.78 30.808-10.78s23.274 5.48 30.808 10.78c7.117 5.007 13.84 9.74 27.515 9.74 1.578 0 2.857 1.28 2.857 2.857a2.86 2.86 0 0 1-2.858 2.856zm0 27.265c-15.484 0-23.272-5.48-30.806-10.78-7.117-5.008-13.84-9.74-27.517-9.74s-20.4 4.73-27.517 9.74c-7.533 5.3-15.32 10.78-30.808 10.78s-23.272-5.48-30.804-10.78c-7.117-5.008-13.84-9.74-27.513-9.74s-20.396 4.73-27.513 9.74c-7.53 5.3-15.32 10.78-30.804 10.78s-23.27-5.48-30.802-10.78c-7.117-5.008-13.84-9.74-27.513-9.74s-20.396 4.73-27.513 9.74c-7.53 5.3-15.32 10.78-30.802 10.78s-23.267-5.48-30.796-10.78c-7.116-5.008-13.837-9.74-27.51-9.74s-20.394 4.73-27.5 9.74c-7.53 5.3-15.316 10.78-30.796 10.78s-23.266-5.48-30.795-10.78c-7.114-5.008-13.834-9.74-27.504-9.74a2.86 2.86 0 0 1-2.858-2.857 2.86 2.86 0 0 1 2.858-2.857c15.48 0 23.266 5.48 30.795 10.78 7.114 5.008 13.834 9.74 27.504 9.74s20.39-4.73 27.506-9.74c7.53-5.3 15.317-10.78 30.8-10.78s23.27 5.48 30.8 10.78c7.115 5 13.835 9.74 27.506 9.74s20.396-4.73 27.514-9.74c7.53-5.3 15.318-10.78 30.802-10.78s23.27 5.48 30.802 10.78c7.117 5.008 13.84 9.74 27.513 9.74s20.396-4.73 27.513-9.74c7.53-5.3 15.32-10.78 30.804-10.78s23.272 5.48 30.804 10.78c7.117 5.008 13.84 9.74 27.513 9.74s20.4-4.73 27.517-9.74c7.533-5.3 15.32-10.78 30.808-10.78s23.274 5.48 30.808 10.78c7.117 5.008 13.84 9.74 27.515 9.74 1.578 0 2.857 1.28 2.857 2.857a2.86 2.86 0 0 1-2.858 2.857zm0 27.263c-15.484 0-23.272-5.48-30.806-10.78-7.117-5.007-13.84-9.74-27.517-9.74s-20.4 4.732-27.517 9.74c-7.533 5.3-15.32 10.78-30.808 10.78s-23.272-5.48-30.804-10.78c-7.117-5.007-13.84-9.74-27.513-9.74s-20.396 4.732-27.513 9.74c-7.53 5.3-15.32 10.78-30.804 10.78s-23.27-5.48-30.802-10.78c-7.117-5.007-13.84-9.74-27.513-9.74s-20.396 4.732-27.513 9.74c-7.53 5.3-15.32 10.78-30.802 10.78s-23.267-5.48-30.796-10.78c-7.116-5.007-13.837-9.74-27.51-9.74s-20.394 4.732-27.5 9.74c-7.53 5.3-15.316 10.78-30.796 10.78s-23.266-5.48-30.795-10.78c-7.114-5.007-13.834-9.74-27.504-9.74a2.86 2.86 0 0 1-2.858-2.857 2.86 2.86 0 0 1 2.858-2.856c15.48 0 23.266 5.48 30.795 10.78 7.114 5.008 13.834 9.74 27.504 9.74s20.39-4.73 27.506-9.74c7.53-5.3 15.317-10.78 30.8-10.78s23.27 5.48 30.8 10.78c7.115 5 13.835 9.74 27.506 9.74s20.396-4.73 27.514-9.74c7.53-5.3 15.318-10.78 30.802-10.78s23.27 5.48 30.802 10.78c7.117 5.008 13.84 9.74 27.513 9.74s20.396-4.73 27.513-9.74c7.53-5.3 15.32-10.78 30.804-10.78s23.272 5.48 30.804 10.78c7.117 5.008 13.84 9.74 27.513 9.74s20.4-4.73 27.517-9.74c7.533-5.3 15.32-10.78 30.808-10.78s23.274 5.48 30.808 10.78c7.117 5.008 13.84 9.74 27.515 9.74a2.86 2.86 0 0 1 2.857 2.857 2.86 2.86 0 0 1-2.858 2.857zm0 27.263c-15.484 0-23.272-5.48-30.806-10.78-7.117-5.008-13.84-9.74-27.517-9.74s-20.4 4.73-27.517 9.74c-7.533 5.3-15.32 10.78-30.808 10.78s-23.272-5.48-30.804-10.78c-7.117-5.008-13.84-9.74-27.513-9.74s-20.396 4.73-27.513 9.74c-7.53 5.3-15.32 10.78-30.804 10.78s-23.27-5.48-30.802-10.78c-7.117-5.008-13.84-9.74-27.513-9.74s-20.396 4.73-27.513 9.74c-7.53 5.3-15.32 10.78-30.802 10.78s-23.267-5.48-30.796-10.78c-7.116-5.008-13.837-9.74-27.51-9.74s-20.394 4.73-27.5 9.74c-7.53 5.3-15.316 10.78-30.796 10.78s-23.266-5.48-30.795-10.78c-7.114-5.008-13.834-9.74-27.504-9.74a2.86 2.86 0 0 1-2.858-2.857A2.86 2.86 0 0 1-62.102 378c15.48 0 23.266 5.48 30.795 10.78 7.114 5.007 13.834 9.74 27.504 9.74s20.39-4.73 27.506-9.74c7.53-5.3 15.317-10.78 30.8-10.78s23.27 5.48 30.8 10.78c7.115 5.01 13.835 9.74 27.506 9.74s20.396-4.732 27.514-9.74c7.53-5.3 15.318-10.78 30.802-10.78s23.27 5.48 30.802 10.78c7.117 5.007 13.84 9.74 27.513 9.74s20.396-4.732 27.513-9.74c7.53-5.3 15.32-10.78 30.804-10.78s23.272 5.48 30.804 10.78c7.117 5.007 13.84 9.74 27.513 9.74s20.4-4.732 27.517-9.74c7.533-5.3 15.32-10.78 30.808-10.78s23.274 5.48 30.808 10.78c7.117 5.007 13.84 9.74 27.515 9.74 1.578 0 2.857 1.28 2.857 2.857s-1.283 2.857-2.86 2.857zm0 27.265c-15.484 0-23.272-5.48-30.806-10.78-7.117-5.008-13.84-9.74-27.517-9.74s-20.4 4.73-27.517 9.74c-7.533 5.3-15.32 10.78-30.808 10.78s-23.272-5.48-30.804-10.78c-7.117-5.008-13.84-9.74-27.513-9.74s-20.396 4.73-27.513 9.74c-7.53 5.3-15.32 10.78-30.804 10.78s-23.27-5.48-30.802-10.78c-7.117-5.008-13.84-9.74-27.513-9.74s-20.396 4.73-27.513 9.74c-7.53 5.3-15.32 10.78-30.802 10.78s-23.267-5.48-30.796-10.78c-7.116-5.008-13.837-9.74-27.51-9.74s-20.394 4.73-27.5 9.74c-7.53 5.3-15.316 10.78-30.796 10.78s-23.266-5.48-30.795-10.78c-7.114-5.008-13.834-9.74-27.504-9.74a2.86 2.86 0 0 1-2.858-2.857 2.86 2.86 0 0 1 2.858-2.857c15.48 0 23.266 5.48 30.795 10.78 7.114 5.008 13.834 9.74 27.504 9.74s20.39-4.73 27.506-9.74c7.53-5.3 15.317-10.78 30.8-10.78s23.27 5.48 30.8 10.78c7.115 5 13.835 9.74 27.506 9.74s20.396-4.73 27.514-9.74c7.53-5.3 15.318-10.78 30.802-10.78s23.27 5.48 30.802 10.78c7.117 5.008 13.84 9.74 27.513 9.74s20.396-4.73 27.513-9.74c7.53-5.3 15.32-10.78 30.804-10.78s23.272 5.48 30.804 10.78c7.117 5.008 13.84 9.74 27.513 9.74s20.4-4.73 27.517-9.74c7.533-5.3 15.32-10.78 30.808-10.78s23.274 5.48 30.808 10.78c7.117 5.008 13.84 9.74 27.515 9.74 1.578 0 2.857 1.28 2.857 2.857a2.86 2.86 0 0 1-2.858 2.857z" clip-path="url(#B)"/><path d="M168.174 253.483h-.004a1.97 1.97 0 0 1-1.969-1.977l.035-12.79c.01-2.788-.728-4.6-2.628-6.456l-33.04-33c-3.83-3.914-5.313-9.112-3.967-13.905 1.336-4.755 5.252-8.385 10.474-9.708 4.737-1.208 9.18.21 13.192 4.207l7.63 7.645 17.628 17.408c1.318 1.255 3.7 2.23 5.563 2.27l20.348.13 17.77.08c2.636.09 4.387-.737 6.37-2.778l24.116-24.184c6.626-6.564 14.466-6.993 20.467-1.13 2.815 2.752 4.318 6.02 4.343 9.45.03 3.893-1.832 7.838-5.38 11.408l-10.385 10.386-21.768 21.99c-1.402 1.452-2.47 3.998-2.48 5.92l-.062 12.36c-.004 1.087-.887 1.965-1.974 1.965h-.007c-1.09-.004-1.97-.9-1.966-1.98l.062-12.352c.018-2.935 1.493-6.485 3.588-8.655l21.82-22.045 10.373-10.373c2.788-2.807 4.252-5.78 4.23-8.597-.018-2.39-1.08-4.63-3.156-6.658-4.414-4.317-9.858-3.913-14.934 1.1l-24.063 24.133c-2.767 2.846-5.502 4.067-9.26 3.973l-17.7-.08c-6.696.01-13.62.016-20.438-.13-2.86-.062-6.156-1.4-8.2-3.358L155.1 190.273l-7.617-7.632c-3.044-3.03-6.044-4.04-9.438-3.18-3.895.987-6.682 3.52-7.645 6.95-.975 3.468.115 7.142 2.988 10.08l32.977 32.948c2.686 2.626 3.826 5.404 3.814 9.29l-.035 12.785c.001 1.087-.882 1.967-1.97 1.967zm32.1-46.268h-.015c-16.516 0-30.005-13.485-30.07-30.06-.032-7.897 3.095-15.406 8.805-21.143 5.74-5.766 13.288-8.944 21.254-8.95 16.547 0 30.038 13.484 30.09 30.058.025 8-3.107 15.41-8.822 21.15-5.74 5.763-13.286 8.94-21.244 8.945zm-.005-56.206c-6.928.005-13.484 2.77-18.478 7.788-4.964 4.987-7.684 11.5-7.656 18.343.056 14.408 11.775 26.13 26.124 26.13v1.973l.013-1.973c6.902-.004 13.455-2.77 18.45-7.784 4.97-4.99 7.694-11.506 7.672-18.35-.047-14.16-12.01-26.125-26.126-26.125z"/></g></svg>