<?xml version="1.0" encoding="utf-8"?>
<!-- Generator: Adobe Illustrator 16.0.0, SVG Export Plug-In . SVG Version: 6.00 Build 0)  -->
<!DOCTYPE svg PUBLIC "-//W3C//DTD SVG 1.1//EN" "http://www.w3.org/Graphics/SVG/1.1/DTD/svg11.dtd">
<svg version="1.1" xmlns="http://www.w3.org/2000/svg" xmlns:xlink="http://www.w3.org/1999/xlink" x="0px" y="0px" width="400px"
	 height="400px" viewBox="0 0 400 400" enable-background="new 0 0 400 400" xml:space="preserve">
<g id="Capa_1" display="none">
	<polygon display="inline" fill="#B71351" points="400,255.923 300.029,332.464 200.06,255.923 100.088,332.464 0.117,255.923 
		0.117,168.769 100.088,245.309 200.06,168.769 300.029,245.309 400,168.769 	"/>
</g>
<g id="Capa_2" display="none">
	<polygon display="inline" fill="#B71351" points="400,142.774 300.029,219.318 200.06,142.774 100.088,219.318 0.117,142.774 
		0.117,55.624 100.088,132.163 200.06,55.624 300.029,132.163 400,55.624 	"/>
</g>
<g id="Capa_3" display="none">
	<path display="inline" fill="#B71351" d="M333.452,327.179c7.271,0.002,13.159,5.917,13.119,13.199
		c-0.043,7.19-5.897,13.092-13.225,13.038c-7.215-0.052-13.018-5.91-13.018-13.116C320.329,333.024,326.229,327.174,333.452,327.179
		 M333.452,352.492c6.742-0.007,12.193-5.462,12.19-12.204c-0.002-6.71-5.439-12.187-12.199-12.184
		c-6.777,0-12.249,5.536-12.19,12.307C321.313,347.035,326.706,352.492,333.452,352.492"/>
	<path display="inline" fill="#B71351" d="M327.277,332.616h0.104c1.931,0,3.865,0,5.798,0c0.699,0,1.399,0.049,2.093,0.175
		c0.556,0.103,1.101,0.258,1.606,0.518c0.888,0.457,1.448,1.172,1.685,2.144c0.157,0.639,0.177,1.287,0.092,1.937
		c-0.096,0.754-0.382,1.432-0.92,1.987c-0.329,0.339-0.713,0.603-1.146,0.798c-0.21,0.094-0.43,0.173-0.646,0.258
		c-0.018,0.007-0.033,0.016-0.063,0.029c0.114,0.036,0.215,0.064,0.313,0.101c0.529,0.193,0.941,0.543,1.298,0.969
		c0.384,0.458,0.687,0.969,0.951,1.503c0.527,1.058,1.05,2.119,1.571,3.179c0.18,0.361,0.359,0.725,0.536,1.087
		c0.007,0.012,0.009,0.025,0.021,0.048h-0.105c-1.275,0-2.555,0-3.83,0.002c-0.078,0-0.116-0.024-0.149-0.095
		c-0.439-0.9-0.881-1.802-1.325-2.701c-0.173-0.354-0.344-0.713-0.525-1.063c-0.168-0.327-0.363-0.637-0.594-0.924
		c-0.363-0.446-0.832-0.697-1.395-0.762c-0.289-0.031-0.58-0.025-0.872-0.031c-0.231-0.006-0.467,0-0.707,0v5.568h-3.791V332.616z
		 M331.071,335.365c-0.003,0.031-0.005,0.054-0.005,0.076c0,1.206,0,2.416-0.002,3.623c0,0.071,0.022,0.09,0.092,0.09
		c0.523-0.005,1.048-0.002,1.572-0.002c0.354-0.003,0.701-0.036,1.047-0.133c0.558-0.161,0.921-0.511,1.054-1.086
		c0.111-0.478,0.111-0.955-0.012-1.43c-0.126-0.476-0.428-0.798-0.89-0.962c-0.356-0.13-0.725-0.173-1.101-0.175
		c-0.561-0.005-1.122-0.002-1.68-0.002H331.071z"/>
</g>
<g id="Capa_4">
	<g>
		<path fill="#FFFFFF" d="M200.104,235.479c-0.052,0-0.103-0.001-0.154-0.003c-1.161-0.044-2.261-0.573-3.019-1.454l-4.869-5.658
			h-31.736c-3.131,0-5.679-2.549-5.679-5.68v-52.483c0-3.131,2.548-5.679,5.679-5.679h79.349c3.131,0,5.678,2.548,5.678,5.679
			v52.483c0,3.131-2.547,5.68-5.678,5.68h-30.719l-5.89,5.889C202.283,235.035,201.211,235.479,200.104,235.479 M160.326,169.034
			c-0.633,0-1.167,0.534-1.167,1.167v52.483c0,0.633,0.534,1.167,1.167,1.167h31.886c1.221,0,2.378,0.53,3.174,1.456l4.738,5.508
			l5.736-5.738c0.793-0.791,1.844-1.226,2.962-1.226h30.853c0.632,0,1.167-0.534,1.167-1.167v-52.483
			c0-0.633-0.535-1.167-1.167-1.167H160.326z"/>
		<polygon fill="#96DAD4" points="179.721,215.676 172.02,215.676 172.02,177.523 179.721,177.523 179.721,193.874 188.472,193.874 
			188.472,177.523 196.313,177.523 196.313,215.676 188.472,215.676 188.472,199.325 179.721,199.325 		"/>
		<rect x="203.659" y="177.523" fill="#96DAD4" width="7.701" height="38.153"/>
		<path fill="#96DAD4" d="M219.688,207.227l-0.979-13.789v-15.915h7.701v15.915l-0.98,13.789H219.688z M226.269,215.676h-7.42
			v-5.777h7.42V215.676z"/>
	</g>
</g>
</svg>
