<?xml version="1.0" encoding="utf-8"?>
<!-- Generator: Adobe Illustrator 16.0.0, SVG Export Plug-In . SVG Version: 6.00 Build 0)  -->
<!DOCTYPE svg PUBLIC "-//W3C//DTD SVG 1.1//EN" "http://www.w3.org/Graphics/SVG/1.1/DTD/svg11.dtd">
<svg version="1.1" id="Capa_1" xmlns="http://www.w3.org/2000/svg" xmlns:xlink="http://www.w3.org/1999/xlink" x="0px" y="0px"
	 width="400px" height="400px" viewBox="0 0 400 400" enable-background="new 0 0 400 400" xml:space="preserve">
<g id="Capa_1_1_" display="none">
	<polygon display="inline" fill="#B71351" points="400,255.923 300.029,332.464 200.06,255.923 100.088,332.464 0.117,255.923 
		0.117,168.769 100.088,245.309 200.06,168.769 300.029,245.309 400,168.769 	"/>
</g>
<g id="Capa_2" display="none">
	<polygon display="inline" fill="#B71351" points="400,142.774 300.029,219.318 200.06,142.774 100.088,219.318 0.117,142.774 
		0.117,55.624 100.088,132.163 200.06,55.624 300.029,132.163 400,55.624 	"/>
</g>
<g id="Capa_3" display="none">
	<path display="inline" fill="#B71351" d="M333.451,327.18c7.271,0.002,13.159,5.916,13.119,13.198
		c-0.043,7.19-5.896,13.093-13.225,13.038c-7.215-0.053-13.019-5.91-13.019-13.116C320.328,333.023,326.229,327.174,333.451,327.18
		 M333.451,352.492c6.742-0.008,12.193-5.463,12.19-12.204c-0.002-6.71-5.439-12.187-12.199-12.185
		c-6.777,0-12.249,5.537-12.189,12.308C321.313,347.035,326.705,352.492,333.451,352.492"/>
	<path display="inline" fill="#B71351" d="M327.277,332.616h0.104c1.931,0,3.864,0,5.798,0c0.699,0,1.398,0.049,2.093,0.175
		c0.556,0.104,1.101,0.258,1.606,0.518c0.888,0.457,1.447,1.172,1.685,2.145c0.157,0.639,0.177,1.287,0.092,1.938
		c-0.096,0.754-0.382,1.432-0.92,1.986c-0.329,0.339-0.713,0.604-1.146,0.798c-0.21,0.095-0.431,0.173-0.646,0.259
		c-0.018,0.006-0.033,0.016-0.063,0.028c0.113,0.036,0.215,0.063,0.313,0.101c0.529,0.193,0.941,0.543,1.298,0.97
		c0.385,0.458,0.688,0.969,0.951,1.503c0.527,1.058,1.05,2.119,1.571,3.179c0.18,0.361,0.358,0.726,0.536,1.087
		c0.007,0.012,0.009,0.025,0.021,0.049h-0.104c-1.275,0-2.556,0-3.83,0.002c-0.078,0-0.116-0.024-0.149-0.096
		c-0.438-0.9-0.881-1.802-1.325-2.701c-0.173-0.354-0.344-0.713-0.524-1.063c-0.168-0.327-0.363-0.637-0.594-0.924
		c-0.363-0.446-0.832-0.697-1.396-0.762c-0.289-0.031-0.58-0.025-0.872-0.031c-0.23-0.006-0.467,0-0.707,0v5.567h-3.791V332.616
		L327.277,332.616z M331.071,335.365c-0.003,0.031-0.005,0.054-0.005,0.076c0,1.205,0,2.416-0.002,3.623
		c0,0.07,0.022,0.09,0.092,0.09c0.523-0.006,1.048-0.002,1.572-0.002c0.354-0.004,0.701-0.037,1.047-0.133
		c0.558-0.162,0.921-0.512,1.054-1.086c0.111-0.479,0.111-0.955-0.012-1.431c-0.126-0.476-0.428-0.798-0.89-0.962
		c-0.356-0.13-0.726-0.173-1.102-0.175c-0.561-0.005-1.122-0.003-1.68-0.003h-0.075V335.365z"/>
</g>
<g id="Capa_4">
	<g>
		<path fill="#FFFFFF" d="M200.175,239.727c-0.087,0-0.173,0-0.258-0.003c-1.955-0.075-3.808-0.967-5.083-2.45l-8.198-9.523h-53.427
			c-5.272,0-9.562-4.293-9.562-9.564v-88.354c0-5.272,4.29-9.562,9.562-9.562h133.585c5.271,0,9.559,4.29,9.559,9.562v88.354
			c0,5.271-4.288,9.564-9.559,9.564h-51.716l-9.917,9.914C203.845,238.98,202.038,239.727,200.175,239.727 M133.209,127.866
			c-1.067,0-1.965,0.898-1.965,1.965v88.354c0,1.065,0.898,1.967,1.965,1.967h53.68c2.056,0,4.003,0.892,5.344,2.45l7.977,9.271
			l9.655-9.658c1.335-1.332,3.106-2.063,4.987-2.063h51.942c1.064,0,1.964-0.901,1.964-1.967v-88.354
			c0-1.066-0.899-1.965-1.964-1.965H133.209z"/>
		<polygon fill="#96DAD4" points="165.86,206.388 152.895,206.388 152.895,142.157 165.86,142.157 165.86,169.685 180.592,169.685 
			180.592,142.157 193.793,142.157 193.793,206.388 180.592,206.388 180.592,178.862 165.86,178.862 		"/>
		<rect x="206.16" y="142.157" fill="#96DAD4" width="12.964" height="64.23"/>
		<path fill="#96DAD4" d="M233.145,192.164l-1.647-23.213v-26.793h12.966v26.793l-1.65,23.213H233.145z M244.224,206.388h-12.491
			v-9.726h12.491V206.388z"/>
	</g>
</g>
</svg>
