<svg xmlns="http://www.w3.org/2000/svg" width="442" height="397" viewBox="0 0 441.045 396.605"><g fill="#fff"><path d="M152.542 141.775c-.652-.51-2.23-1.017-4.734-1.524-.03-.265-1.332-.622-3.908-1.075-.02-.186-.57-.55-1.65-1.09l-.057-.512 1.772.063.768-.084c.326-.036.47-.217.435-.543-.06-.527-2.092-4.445-6-11.755-.113-1.023-1.236-3.52-3.37-7.5-3.098 1.363-6.52 2.5-10.262 3.416-.02-.17-.114-.246-.284-.227.055.496-.413.885-1.4 1.166-2.766.965-4.082 2.044-3.95 3.236-.685 3.467-1.427 5.9-2.227 7.33l.085.77c.496-.056.762.08.798.405l.028.257-.518-.202-.51.056c-.353 1.358-.508 2.222-.467 2.594l-.54-.198c.048.433-.4.992-1.345 1.678.034.3-.715 1.915-2.246 4.814l-.486.29-.488.055-1.082-.635-.256.028c-.32.082-.465.27-.432.565.19.293.294.532.315.72l-.46.3c-.236-.146-.664-.186-1.283-.116.054.494-.252.78-.918.854l-4.326-2.3c-1.38.15-2.952-1.872-4.72-6.07l-.167-1.512c2.78-4.794 4.658-8.47 5.633-11.025-.04-.356.4-.994 1.318-1.91l2.833-8.67c-.18-.073-.33-.653-.45-1.738.9-2.626 1.517-3.958 1.843-3.993.93-2.802 2.31-8.706 4.14-17.71l1.676-5.505c-.207-.308-.318-.545-.338-.717.62-.067 1.452-.92 2.495-2.56l1.023-.113.343.976.256-.028c.34-.038.493-.227.455-.57l2.517-.018.512-.057c.055.497.245.726.57.69l.257-.028c-.056-.495.088-.763.43-.8l.256-.028c.33.01.512.164.545.458l.483-.313.232-.026.1 1 .512-.056c.325-.036.47-.225.433-.565l-.026-.232-.29-.486 1.228-.395.488-.054-.2.54.082.744c.34-.037.55.278.622.944l2-.22c.02.17-.058.265-.228.284.17.828.472 1.22.906 1.17l.164 1.487c.29 1.773.925 2.975 1.903 3.604.01.078.357.887 1.045 2.426l.46-.31.257-.03 1.415 3.657c.496-.055.8.415.908 1.406-.17.02-.246.113-.227.284l.54.2-.03-.256c-.17.02-.265-.056-.284-.228l.77-.085c.12.944.818 2.728 2.096 5.348-.07.934-.08 1.61-.035 2.027l.54.2c-.02-.17.057-.265.23-.284.036.342.652 1.372 1.847 3.092l9.197-1.77.057.51-.512.058.392 1.204-4.833 2.063.29.486c.087.8-.602 1.37-2.068 1.734l.028.256.488-.055.057.513-.407.798.055.487 4.5 10.92c.03.264.23.578.6.945l.028.256c.02.172-.058.266-.23.284l2.976 6.263c-.156.017-.224.1-.205.28.713-.08 1.742 2.42 3.088 7.497-.558.063-.923.526-1.094 1.393l-1.513.167c.055.513-.336.815-1.173.907m-37.046-41.552c.35-.117.635-.572.862-1.367a2.11 2.11 0 0 1-.343-.974c.387-.043.982-1.544 1.785-4.505l-.313-.483-.028-.256c.8-1.14 1.14-2.612 1.02-4.42l-1 .11.056.51.512-.056c-1.925 5.595-2.775 9.408-2.55 11.44m8.26 12.764c.853-.094 3.538-1.064 8.06-2.913l-.028-.257c-.04-.355-1.606-3.814-4.7-10.38l-.025-.232c-.677 1.127-1.31 3.056-1.903 5.79-.117 2.352-.536 4.673-1.256 6.965l-.256.027.11 1zm23.685 10.073l-.028-.256c-.02-.2-.2-1.02-.53-2.46l.118-1.284c-.172.02-.266-.056-.285-.227l-.46.31-.51.058c-.13-1.18-.53-1.73-1.195-1.657 1.432 3.733 2.395 5.572 2.892 5.517"/><path d="M166.168 132.15c-1.24.138-2.458-.152-3.65-.867-.307.206-.545.318-.715.337-.83-1.26-1.407-1.87-1.733-1.833l.054.488c-.92-.228-1.66-.82-2.22-1.78l-1.622-.833c-.037-.34-.702-1.028-1.993-2.063-.017-.154-.298-1.135-.842-2.942-.327-2.962-.785-10.945-1.373-23.952l-.136-1.233c-.02-.17.056-.265.228-.284-.02-.17-.114-.246-.284-.227l.07-20.04c.666-.073.963-.443.9-1.1l.256-.027c.17-.02.266.057.283.227l.46-.31 1.256-.14c1.834.552 3.077 1.09 3.732 1.612.02.17.198.237.54.2l.022 2.54.025.232c.264-.028.615.105 1.057.4-.157 1.712-.16 3.235-.015 4.568l.595.688.027.256c.106.962.085 1.552-.063 1.772.27.896.44 1.64.505 2.228l.167 1.51c-.23 1.062-.247 3.175-.054 6.34l.37 1.23-.094 1.282.29.486-.296 1.798c.326 1.392.54 2.553.644 3.482.268 2.42.204 4.2-.188 5.34l.3.46.14 1.257-.428.823c.4.507.627.983.677 1.433.037.34-.03.52-.2.54l1.036 4.687-.256.03.312.482.167 1.513.256-.03c6.96-4.33 13.066-8.723 18.317-13.18l.49-.055.536.178-.025-.233c-.17.02-.265-.056-.284-.228l2.575-2.05.025.23c-1.388 1.22-2.047 2.14-1.98 2.76l-.51.057-.518-.2.29.485.028.256c-.403.045-1.1.54-2.12 1.48-1.724 1.164-2.87 2.224-3.438 3.18l.027.256c1.206-.306 2.493-.87 3.862-1.697-.038-.34.505-.824 1.628-1.45 2.484-1.812 4.784-3.925 6.903-6.34l.232-.026c-.457 1.4-.88 2.12-1.268 2.164l.313.483.1 1c-.213.777-.804 1.604-1.774 2.48.046.418-.338.712-1.15.88l.167 1.51.744-.082c-.175.694-.77 1.435-1.78 2.22.055.497-1.292 2.08-4.042 4.754-.51.057-1.2.807-2.035 2.248-.522.67-1.38 1.362-2.572 2.073.04.372-.237.905-.836 1.6.053.465-1.864 1.438-5.75 2.918-1.364.997-2.822 1.58-4.37 1.753m-11.2-32.495l.117-1.284-.257.027.202-.516-.19-1.745-.513.057.164 1.488c.02.17.113.247.284.23l-.2.516.14 1.256.256-.028z"/><path d="M201.98 128.198c-1.24.137-2.458-.153-3.65-.868-.306.206-.545.318-.715.337-.83-1.258-1.407-1.87-1.733-1.833l.055.49c-.92-.23-1.66-.822-2.222-1.78l-1.62-.834c-.037-.34-.702-1.028-1.993-2.063-.018-.153-.298-1.135-.843-2.942-.326-2.96-.784-10.945-1.372-23.952l-.137-1.233c-.02-.17.057-.265.23-.284-.02-.17-.114-.245-.284-.227l.07-20.04c.666-.073.963-.443.9-1.1l.255-.027c.17-.02.266.057.284.227l.46-.31 1.255-.14c1.834.552 3.078 1.1 3.733 1.612.02.172.197.237.54.2l.02 2.54.026.23c.263-.028.615.105 1.056.4-.157 1.712-.16 3.235-.014 4.568l.594.688.028.256c.105.962.085 1.553-.063 1.772.27.896.44 1.64.505 2.228l.167 1.512c-.23 1.06-.247 3.174-.054 6.338l.37 1.23-.094 1.282.29.486-.296 1.798c.325 1.392.54 2.553.644 3.482.267 2.42.204 4.2-.188 5.34l.31.46.14 1.256-.427.824c.4.506.626.982.676 1.432.037.34-.028.52-.2.54l1.036 4.688-.256.028.313.483.167 1.512.256-.03c6.96-4.33 13.065-8.723 18.316-13.18l.49-.054.537.177-.026-.233c-.17.02-.265-.056-.283-.228l2.574-2.05.026.23c-1.388 1.222-2.047 2.142-1.98 2.76l-.51.057-.517-.2.29.485.027.256c-.402.045-1.11.54-2.118 1.48-1.725 1.164-2.87 2.224-3.44 3.18l.028.256c1.206-.306 2.493-.87 3.86-1.697-.038-.34.506-.824 1.628-1.45 2.484-1.812 4.784-3.925 6.903-6.34l.233-.026c-.457 1.4-.882 2.12-1.27 2.164l.313.483.108 1c-.213.777-.804 1.604-1.772 2.48.046.418-.338.712-1.15.88l.167 1.51.744-.082c-.174.695-.77 1.435-1.78 2.22.057.497-1.293 2.08-4.042 4.754-.51.057-1.19.807-2.034 2.248-.523.67-1.38 1.362-2.572 2.073.04.372-.238.905-.836 1.6.052.466-1.865 1.438-5.75 2.918-1.365.998-2.823 1.583-4.372 1.754m-11.2-32.496l.117-1.284-.256.027.202-.516-.192-1.745-.512.058.164 1.487c.02.17.113.247.284.23l-.2.516.138 1.256.256-.028zM233 152.94l-1.41-.22c.05-.308-.38-.7-1.284-1.17-1.99-2.895-2.16-9.648-.516-20.257-.146-.023-.172-.35-.073-.982.024-.16.11-.23.26-.208l-.036-1.224.332-2.138c.02-.146.106-.21.254-.187-.1-.332-.135-.585-.106-.762l1.103-5.652.242.038c.024-.16-.043-.255-.204-.28l1.07-3.716c.024-.16-.043-.255-.205-.28.026-.16.143-.385.353-.668l1.717-9.462c.4-2.586.602-5.963.602-10.13.886-1.155 1.695-1.678 2.43-1.563.91.142 1.4.624 1.47 1.446 1.118.444 2.024 1.397 2.716 2.86-.065.426.022.92.267 1.485l.497-.148.242.037-.088 3.62.484.075.072-.463c.675.104 1 1.268.677 3.49.222.035.364 1.193.433 3.476.16.024.23.12.205.28s-.12.23-.28.204l-.068 5.092c-.294.826-.484 1.526-.573 2l-.403 2.6c-.057.368-.18.68-.37.937.1.316.14.563.1.74-1.48 5.76-2.403 8.61-2.77 8.553l-.018 1.713-.663 4.276c-.055.352-.186.655-.39.91a1.91 1.91 0 0 1 .095.985l-.038.243c-.047.308-.233.437-.556.387.024-.16-.045-.255-.205-.28l-.038.242.376.78-.075.485-2.127 7.457-1.484 1.7c-.527-.082-1.043.08-1.54.482-.025.163.042.255.204.28l-.6 2.342-.08.465z"/><path d="M255.007 152.705l-4.686-1.224-.5.17c-1.864-.784-3.18-1.72-3.943-2.8-1.797-2.008-2.628-3.43-2.497-4.27.02-.146-.04-.81-.188-1.992l.034-.22.317-.447c-.206-.032-.578-.736-1.117-2.114l.11-.706c.025-.16.65-.553 1.875-1.176l-.058-1.228c3.096-1.626 5.158-2.36 6.187-2.2l-.037.243c-.1.632-.854 1.808-2.264 3.53l-.037.242c.337.053 1.176.424 2.514 1.112l4.104.163-.038.242c1.083.003 2.15-.08 3.2-.248l1.615.498c2.35-.012 5.42-.994 9.215-2.95 1.094-.657 2.237-1.774 3.43-3.35.923-.714 1.443-1.445 1.56-2.195l-13.685-5.778c-.05.323-.236.46-.56.41-5.362-2.2-8.405-3.966-9.133-5.298-.677-.105-1.742-1.083-3.2-2.935-.405-.107-1.112-1.27-2.122-3.49-.382-.06-.693-.67-.935-1.837-.632-.098-.824-.94-.578-2.526.41-2.646 1.554-4.822 3.43-6.533 1.205-1.468 2.52-2.64 3.953-3.517.865-.634 1.465-1.346 1.8-2.137 2.694-1.372 4.255-2.025 4.682-1.96 3.515.922 6.023 1.958 7.53 3.11 3.343 2.505 4.883 4.61 4.618 6.313l-.294 1.896-.485-.075-.037.242.167.522-1.224.036c-.516-.08-1.6-.895-3.255-2.445-2.906.692-4.7 1.23-5.352 1.607-.248.73-1.424 1.518-3.524 2.364-.04.265-.958.935-2.75 2.01-1.18 1.293-1.8 2.085-1.837 2.38 2.953 1.917 7.955 4.153 15.008 6.706 6.336 2.607 10.123 4.82 11.36 6.638 4.394 3.104 6.49 5.287 6.296 6.55l-.484-.075c.063-.41-.682-1.332-2.234-2.762l-.483-.075-.034.22c.418 2.052 1.33 3.495 2.735 4.33-.03.207.254.98.858 2.323-.33-.006-.516.123-.557.388l-.1 2.175c-.188 1.205-1.28 2.006-3.283 2.402-.08.515-.916 1.198-2.507 2.05-.123.793-1.567 1.706-4.33 2.736-.05.31-1.225 1.097-3.527 2.365-.5.117-.77.323-.817.617l-.24-.038-.426-.313c-.18 1.146-1.856 2.02-5.034 2.627.075-.485-.05-.752-.372-.802-.626.64-1.567.983-2.822 1.028l-1.396-.465-.463-.07c-.354-.056-.683-.023-.985.095l-.447-.318c-.304.12-.633.15-.985.097l-.425-.314-.318.45zM45.415 179.23c-.802-.37-1.204-1.575-1.204-3.612 0-.148.082-.224.245-.224 0-.163-.08-.245-.245-.245.21-2.72.528-4.082.96-4.082v.224c-.312 2.3-.468 3.896-.468 4.817l.713 3.122zm18.02 45.654c-1.606-.208-2.408-.6-2.408-1.204h-.49l-.468.224c-.803-1.44-1.37-3.12-1.695-5.04-.79 0-1.183.317-1.183.96-.52 0-.84-4.402-.96-13.204-.327 0-.5-.32-.5-.96h-.49c-.356 0-.677.082-.96.246l-.96-.49c0 .327-.4.646-1.204.96-.313 0-.47-.156-.47-.468v-.246c1.16-.73 1.963-1.13 2.41-1.204v-.714h-.49l-3.613 1.428v-.96c.804 0 1.852-.478 3.146-1.428l.96-.736c0-.163.074-.245.223-.245 0-.76-1.115-3.717-3.345-8.877l-4.327-10.57h.468c.193 0 .76 1.442 1.695 4.326.37.254.93 1.695 1.673 4.327.37 0 .61.402.714 1.204h.245v-.96c-.64-.638-1.6-3.285-2.877-7.94-.892 0-1.776-3.36-2.654-10.08v-.246c.848-3.85 1.65-5.775 2.41-5.775.446-1.234 2.445-3.07 6-5.51l.49.223c.43-.045.832-.438 1.204-1.182.312-.163.55-.245.714-.245 0 .164.08.245.245.245 0-.432.476-.76 1.428-.98v-.223l.5.223c1.888-.788 3.888-1.346 6-1.673v.49c-.52 0-2.12.32-4.795.96v.468c.312 0 .468.082.468.245l1.695-.713c.163 0 .245.073.245.223 1.264-.313 2.223-.47 2.877-.47v.246l.47-.246h.245c.163 0 .245.082.245.246l.47-.246h.245c0 .372-1.197.61-3.59.714-.64.12-.96.365-.96.736l-.736-.49c0 .328-.238.49-.713.49l-.49-.245c-1.28.445-1.918.847-1.918 1.204h-1.205l-1.672 1.427h-.246v-.468a16.41 16.41 0 0 1-2.877 2.163c-.803.848-1.204 1.487-1.204 1.918.743-.476 1.383-.714 1.918-.714l-.223-.5v-.49h.468v.736c1.28-.326 1.918-.646 1.918-.96.327-.4.49-.804.49-1.204h.245v.714c.922 0 2.52-.803 4.796-2.41l-.246-.468c.76 0 1.323-.164 1.695-.49h.222v.49h.246c0-.327.4-.647 1.204-.96h.714c.163 0 .245.082.245.245.654-.327 1.137-.49 1.45-.49.044.328.2.49.468.49 0-.49 2.163-.817 6.5-.98v-.47l1.673.246c1.77 0 3.293-.164 4.572-.49.236.164.72.245 1.45.245l-.246.47h.246l.47-.223v.468c-.313 0-.47.082-.47.245-.312-.163-.558-.245-.735-.245l-.96.245c-.298-.163-.535-.245-.714-.245v.49c.476 0 .714.082.714.245l1.204-.49 4.326 1.205v.245l.49-.245c1.44.877 2.237 1.516 2.386 1.918l.49-.246c.594.803.985 1.205 1.17 1.205s.278.164.278.5h.223v-.5c1.413.476 2.217.878 2.41 1.204-.164.312-.245.55-.245.714.862.134 1.428.535 1.695 1.204.312-.163.55-.245.714-.245l.245.5h-.735c.46.773 1.183 1.414 2.163 1.92v.245l-.223.468c.76 0 1.234.4 1.428 1.205.163 0 .408.32.736.96-.18 0-.424.082-.736.245.163.312.245.55.245.714-.283.445-.52 1.413-.714 2.898-.327 0-.5-.163-.5-.5l-.47.245h-.245c0-.803-.402-1.204-1.204-1.204v2.163c-.372.804-.773 1.204-1.205 1.204v.714l-.245 1.204-1.428-.5v.245l.223.5c-.43 0-.988.723-1.672 2.164-1.28 1.427-1.918 2.224-1.918 2.386h-.246l-.245-.96c.432-.638.832-.96 1.204-.96.12 0 .52-.96 1.205-2.877-.312 0-.47-.163-.47-.5.7 0 1.34-.876 1.918-2.632l.223-1.673c-.312 0-.468-.245-.468-.735-.312.164-.55.245-.714.245 0 .163.074.245.223.245-.148.64-.223 1.197-.223 1.673h-.96l-.5-.245-2.632 4.817c-.327 0-.81.877-1.45 2.63-.847 0-1.486.723-1.918 2.164l.224.5c-.788.67-1.183 1.228-1.183 1.673h-.736l.245-.468v-.246h-.245c-1.28.967-2.156 1.45-2.633 1.45l.246.468c0 .15-1.04.87-3.123 2.164-.015.253-.735.812-2.163 1.673-1.517 1.473-3.278 2.596-5.285 3.367l-2.41 1.918v.246c0 2.022-.164 5.308-.5 9.858h-.47l.246 1.204v1.427c0 .7-.164 1.34-.49 1.918h.49c-.135 1.44-.38 2.164-.736 2.164l.245.49v2.16a1.88 1.88 0 0 1-.245.959c.163.282.245.604.245.96-.417 3.213-.974 4.817-1.673 4.817M47.58 175.15c0-.803.156-1.44.468-1.918l-.223-1.45.47-.245c0-.164-.083-.246-.246-.246l.246-1.183v-.49c-.223 0-.462.4-.714 1.203h-.245c0 .357.08.678.245.96-.328.743-.49 1.465-.49 2.162l.246 1.205h.245zm8.876 20.184c.327 0 .49-.245.49-.736l.714-19.694h-.246c-1.368.79-2.408 2.788-3.122 6v.736c-.79 0-1.182.156-1.182.468 0 .67.156 1.473.468 2.41h-.245l-.468-.245c.638 2.722 1.434 5.204 2.386 7.45 0 .5.402 1.696 1.204 3.613m10.572-.245l1.695-.96-.245-.49v-.245c1.44-.074 2.163-.47 2.163-1.183l.47.224h.5c0-.224.558-1.018 1.673-2.387h-.468v.468l-.49-.245h-.245c0 .402-.64.886-1.918 1.45v-.714c.28 0 1.084-.483 2.408-1.45l.5.246c0-.654.64-1.294 1.918-1.918l8.877-7.695c0-.252.564-.735 1.695-1.45 0-.313.794-1.673 2.386-4.08.804-2.155 1.204-4.156 1.204-6v-.714c-.847-.653-3.33-1.294-7.448-1.918l-.47.224c-.55 0-2.23-.074-5.04-.224-4.163.135-8.17 1.012-12.02 2.632 0 .104-.4.424-1.204.96.37 2.557.77 3.836 1.204 3.836l-.245 1.204v1.918c.06.326.223.5.5.5.313 0 .47-.32.47-.96.5 0 1.055 2.886 1.695 8.653.312.045.468.2.468.47v2.408l-.245 1.45c0 .148.08.223.245.223l-.245 1.204v1.45c0 .357.08.677.245.96-.164.283-.245.602-.245.96v1.205h.246zm17.062-5.776h-1.204v-.714c1.77-.5 2.654-1.13 2.654-1.918h.224c.325.045.49.2.49.47 0 .207-.72.928-2.163 2.163m2.877-2.877h-.223c.09-.966.326-1.45.714-1.45h.713v.246c0 .164-.4.564-1.204 1.204"/><path d="M113.618 218.15c-3.093 0-6.14-1.522-9.144-4.57-1.443-1.115-2.164-1.756-2.164-1.92-.282-.282-1.16-1.808-2.63-4.57l-.49.245c-.952-2.244-1.83-4.966-2.632-8.163 0-.163.08-.245.246-.245 0-.193-.402-1.79-1.205-4.795.162-.282.244-.603.244-.96 0-.73-.082-1.212-.244-1.45.476-10.407.95-15.612 1.428-15.612 2.453-6.884 4.296-10.325 5.53-10.325v-.49h.96c.163 0 .244.082.244.245a3.85 3.85 0 0 1 1.919-.49c2.468 0 4.63 1.04 6.49 3.122h.246v1.204l-1.205 1.694c.164 0 .246.075.246.224.817-.313 1.456-.468 1.918-.468l3.122.96.468-.245c2.855 1.278 4.698 1.918 5.532 1.918.67 0 2.668 1.204 6 3.612l.98.49v-.246a1.87 1.87 0 0 1-.245-.959h.245c.76 1.115 1.48 1.673 2.164 1.673 2.393 3.228 3.59 5.07 3.59 5.53.803 2.32 1.285 4.402 1.45 6.245-.64 2.72-1.123 4.08-1.45 4.08v-.5h-.246c0 .416-.156 1.22-.468 2.41.163.313.245.55.245.713l-.5-.223c0 .61-1.36 3.732-4.082 9.367-1.354 2.274-2.313 3.555-2.877 3.838 0 .607-1.688 2.215-5.063 4.815-.58 2.08-2.735 3.122-6.468 3.122-1.44.192-2.162.43-2.162.713m-3.858-8.408c3.613-2.02 6.18-3.865 7.694-5.53 4.43-5.858 6.832-11.063 7.204-15.612 0-1.665-.96-3.91-2.877-6.736-1.443-1.366-2.163-2.243-2.163-2.632l-.49.246c-.03-.134-1.146-1-3.346-2.9l-.5.246c-.803-.477-1.36-.715-1.673-.715-.21.164-.6.245-1.204.245v-.245h-1.205c-1.19 0-2.073.64-2.653 1.918-1.204 0-2.565.723-4.08 2.163 0 .165.08.246.245.246-.164 1.22-.483 2.58-.96 4.08.326.045.5.2.5.47-.654.76-1.057 1.726-1.205 2.9.64 0 .96.4.96 1.204.164 0 .246.075.246.223 0 .804-.164 1.205-.5 1.205l.244 1.204-.244 1.45.96 1.672v.246l-.245 1.204h.49c0 2.47.804 6.468 2.41 12 .432.966.75 1.45.96 1.45l1.428-.001zm11.062-6c.252 0 .572-.563.96-1.694.312 0 .468-.32.468-.96h.49l.49.246v-1.205h-.736c0 .417-.878 1.54-2.632 3.368v.244h.468v-.49h.49v.49zm3.836-2.162c.64-2.527 1.36-3.814 2.163-3.858v-.47h-.468v-.96c.683 0 1.16-.803 1.427-2.41h.49v-.245h-.49l.49-.96c-.164-.312-.245-.55-.245-.714h-.246c0 .58-.877 2.424-2.63 5.532l.223.468v.714l-1.673 2.654v.245h.96zm26.45 5.286l-4.817-.49-.47.246c-1.962-.5-3.405-1.212-4.327-2.164-2.082-1.71-3.122-2.987-3.122-3.836 0-.147-.164-.795-.49-1.94v-.223l.246-.49c-.21 0-.685-.64-1.428-1.918v-.714c0-.163.558-.646 1.673-1.45l-.245-1.205c2.81-2.08 4.735-3.122 5.776-3.122v.245c0 .64-.565 1.918-1.695 3.836v.246c.343 0 1.228.238 2.654.713l4.082-.468v.245c1.07-.163 2.1-.408 3.122-.736l1.673.246c2.32-.37 5.203-1.814 8.653-4.327.98-.816 1.94-2.097 2.877-3.836.803-.848 1.205-1.65 1.205-2.41l-14.408-3.612c0 .326-.164.5-.49.5-5.635-1.353-8.914-2.632-9.835-3.837-.685 0-1.89-.802-3.613-2.408-.417-.045-1.294-1.085-2.632-3.122-.386 0-.788-.558-1.204-1.673-.64 0-.96-.803-.96-2.408 0-2.678.796-5.004 2.388-6.98.966-1.635 2.088-2.996 3.367-4.08.76-.76 1.24-1.554 1.45-2.387 2.454-1.77 3.896-2.654 4.327-2.654 3.613.372 6.252 1.012 7.918 1.918 3.688 1.963 5.53 3.808 5.53 5.53v1.918h-.49v.246l.246.5-1.205.223c-.52 0-1.717-.638-3.59-1.918-2.766 1.13-4.446 1.934-5.04 2.41-.134.758-1.175 1.717-3.123 2.877 0 .268-.802 1.07-2.408 2.41-.967 1.458-1.45 2.335-1.45 2.632 3.212 1.44 8.498 2.885 15.858 4.326 6.66 1.605 10.742 3.212 12.244 4.817 4.816 2.395 7.226 4.23 7.226 5.51h-.49c0-.416-.877-1.212-2.63-2.387h-.49v.224c.73 1.963 1.852 3.248 3.368 3.858 0 .208.4.93 1.204 2.163-.327.045-.49.2-.49.468l.246 2.164c0 1.22-.96 2.178-2.877 2.877 0 .52-.722 1.324-2.164 2.41 0 .803-1.286 1.926-3.857 3.368 0 .313-1.04 1.27-3.123 2.878-.477.192-.713.438-.713.735h-.246l-.468-.246c0 1.16-1.525 2.282-4.572 3.368 0-.49-.164-.735-.49-.735-.52.73-1.398 1.212-2.632 1.45l-1.45-.246h-.47c-.356 0-.677.082-.96.246l-.5-.246c-.283.164-.602.246-.96.246l-.47-.246-.246.5zm40.792 0l-4.817-.49-.47.246c-1.962-.5-3.405-1.212-4.327-2.164-2.082-1.71-3.122-2.987-3.122-3.836 0-.147-.164-.795-.49-1.94v-.223l.246-.49c-.21 0-.685-.64-1.428-1.918v-.714c0-.163.56-.646 1.673-1.45l-.245-1.205c2.81-2.08 4.735-3.122 5.776-3.122v.245c0 .64-.565 1.918-1.695 3.836v.246c.343 0 1.228.238 2.654.713l4.082-.468v.245c1.07-.163 2.1-.408 3.122-.736l1.673.246c2.32-.37 5.204-1.814 8.653-4.327.98-.816 1.94-2.097 2.877-3.836.803-.848 1.205-1.65 1.205-2.41l-14.408-3.612c0 .326-.164.5-.49.5-5.635-1.353-8.914-2.632-9.835-3.837-.685 0-1.89-.802-3.613-2.408-.417-.045-1.294-1.085-2.632-3.122-.386 0-.788-.558-1.204-1.673-.64 0-.96-.803-.96-2.408 0-2.678.796-5.004 2.388-6.98.966-1.635 2.088-2.996 3.367-4.08.76-.76 1.24-1.554 1.45-2.387 2.454-1.77 3.896-2.654 4.327-2.654 3.613.372 6.252 1.012 7.918 1.918 3.688 1.963 5.53 3.808 5.53 5.53v1.918h-.49v.246l.246.5-1.205.223c-.52 0-1.717-.638-3.59-1.918-2.766 1.13-4.446 1.934-5.04 2.41-.134.758-1.175 1.717-3.123 2.877 0 .268-.802 1.07-2.408 2.41-.967 1.458-1.45 2.335-1.45 2.632 3.212 1.44 8.498 2.885 15.858 4.326 6.66 1.605 10.742 3.212 12.244 4.817 4.816 2.395 7.226 4.23 7.226 5.51h-.49c0-.416-.877-1.212-2.63-2.387h-.49v.224c.73 1.963 1.852 3.248 3.368 3.858 0 .208.4.93 1.204 2.163-.327.045-.49.2-.49.468l.246 2.164c0 1.22-.96 2.178-2.877 2.877 0 .52-.722 1.324-2.164 2.41 0 .803-1.286 1.926-3.857 3.368 0 .313-1.04 1.27-3.123 2.878-.477.192-.713.438-.713.735h-.246l-.468-.246c0 1.16-1.525 2.282-4.572 3.368 0-.49-.164-.735-.49-.735-.52.73-1.398 1.212-2.632 1.45l-1.45-.246h-.47c-.356 0-.677.082-.96.246l-.5-.246c-.283.164-.602.246-.96.246l-.47-.246-.246.5z"/><path d="M224.486 210.455h-1.427c0-.313-.484-.633-1.45-.96-2.41-2.558-3.613-9.203-3.613-19.94-.148 0-.223-.32-.223-.96 0-.163.074-.245.223-.245l-.223-1.205v-2.163c0-.147.074-.223.223-.223-.148-.312-.223-.558-.223-.736l.223-5.754h.245c0-.164-.082-.246-.245-.246l.5-3.836c0-.163-.082-.245-.245-.245 0-.162.08-.4.245-.714l.246-9.61c0-2.617-.32-5.985-.96-10.104.698-1.278 1.42-1.918 2.163-1.918.922 0 1.48.402 1.673 1.205 1.174.267 2.215 1.07 3.122 2.408 0 .432.164.908.49 1.428l.468-.223h.246l.468 3.59h.49v-.47c.683 0 1.085 1.114 1.204 3.346.223 0 .543 1.123.96 3.367.163 0 .245.082.245.246s-.082.245-.245.245l.714 5.04c-.164.86-.246 1.583-.246 2.162v2.633c0 .372-.074.698-.223.98.147.298.223.535.223.714-.58 5.918-1.056 8.876-1.427 8.876l.244 1.695v4.327c0 .356-.08.677-.244.96.163.283.244.602.244.96v.246c0 .312-.163.468-.49.468 0-.163-.082-.245-.246-.245v.245l.49.714v.5l-.96 7.695-1.204 1.918c-.536 0-1.02.237-1.45.714 0 .164.08.245.245.245l-.245 2.41v.468z"/><path d="M256.402 229.19c.146-.298.223-.535.223-.714l-.714-.468c-.313.146-.55.223-.713.223 0-.387-.886-.862-2.654-1.427a6.46 6.46 0 0 0-.959-1.918l.5-3.86c-2.156 0-5.605-5.367-10.35-16.103-1.114-1.753-1.992-3.354-2.632-4.795-.52 0-1.005-.804-1.45-2.408-.253 0-.49-.157-.713-.47l.244-.5v-.246h-.244v.49c-.21 0-.6-.64-1.205-1.918l.245-1.205h.245l.715.49h.244v-.245c-.5-1.19-1.213-2.148-2.163-2.877v.468c.4.535.722 1.257.96 2.163-.327 0-.5.32-.5.96-.224-.03-.78-.832-1.673-2.408v-.223l.714.468v-.468l-1.204-2.654v-.714h.245c0 .46.318 1.182.96 2.163h.5v-.736c-.327 0-.893-.638-1.694-1.918v.49l-.714-.49.245-.468c-.477-1.442-.878-2.163-1.204-2.163-.997-1.605-1.637-2.41-1.918-2.41 0-.163-.164-.246-.5-.246 0 .165-.074.246-.224.246l-.245-1.205v-.713c0-2.438 2.163-5.16 6.49-8.163.282 0 1.16-.246 2.633-.735.044.326.207.49.49.49v-.244l-.244-.47c.313 0 1.27-.327 2.877-.98v-.713c-1.115-.967-1.674-1.844-1.674-2.633v-.5c0-.297.722-.854 2.164-1.672h.224v.468h.49l.715-.468h1.203l-.468.713v.246h.224c.104 0 .505-.402 1.204-1.205.46 0 1.264.483 2.408 1.45.477 0 .714.238.714.715h.245c0-.804.32-1.205.96-1.205 0 .148.32.952.96 2.408l.49-.244h.468c.967 1.44 1.688 2.163 2.164 2.163 3.582 0 6.23.722 7.94 2.162 1.41 0 4.533 1.042 9.366 3.123 0 .446.558.93 1.673 1.45 0 .164.08.4.245.713l.5-.245c.18 0 1.22.886 3.122 2.654 2.453 0 4.61 1.197 6.47 3.59.742.193 1.31.596 1.694 1.204 0 .075-.082.395-.245.96.163.64.482.96.96.96v.246c-.313.282-.714 2.446-1.204 6.5-.12.044-.438 1.003-.96 2.877l.245.49c-.477.64-1.115 1.918-1.92 3.836.164 0 .246.082.246.245-.595 0-.997.722-1.205 2.162-.208 0-.61.478-1.204 1.43-.52 1.085-1.004 1.888-1.45 2.408h.5v.49c-.298.328-.78 1.286-1.45 2.877h-.245v-.488c-.64.235-.96.48-.96.734l.245 1.184c-.937 1.44-1.576 2.163-1.918 2.163l.245.49v.245c-.282.758-.848 1.316-1.694 1.673-.862 1.592-1.42 2.395-1.673 2.408l-.5-.245c-.55 1.98-1.347 3.257-2.387 3.836-3.05 1.918-4.57 3.123-4.57 3.613l-.49-.245c-1.695 1.59-2.975 2.478-3.836 2.654-.313-.164-.552-.245-.714-.245-.444.314-1.084.47-1.916.47m-4.817-14.162c0-.64.08-.96.245-.96-.164-.313-.245-.558-.245-.734 0-8.804-1.6-20.087-4.796-33.856l-.96-.246c-.208 0-1.576.804-4.104 2.41-.5 0-1.287.64-2.388 1.918-.21 0-.61.402-1.203 1.204h-.245v.96l-.246 1.427c0 .417.722 2.262 2.164 5.53l-.47.96h.246l.47-.245c0 .21.64 1.494 1.918 3.858l1.694 4.55c1.07 1.65 2.668 5.174 4.795 10.572l2.41 2.652h.716zm11.06-3.123c1.665-1.203 4.787-4.488 9.367-9.856.477 0 .714-.25.714-.746s.722-1.53 2.163-3.1c1.8-2.913 3.158-5.48 4.082-7.694-.328-.803-.49-1.36-.49-1.673h-.714v1.427c0 .24-.877.886-2.63 1.94-1.605.833-2.41 1.39-2.41 1.672h-.245c-.164 0-.245-.08-.245-.245-.15 0-.224.082-.224.245-2.3 0-4.37-.96-6.245-2.877 0-.46-.164-1.345-.49-2.654 0-2.616 1.52-4.616 4.57-6 0-1.174-2.246-2.297-6.735-3.368 0-.162-1.36-.564-4.08-1.203l-2.164.244c0-.162-.082-.244-.245-.244l-.223.49v.246c1.114 1.562 1.99 3.644 2.632 6.244h-.246c.595 1.235 1.078 3.718 1.45 7.45.43.564.75 3.367.96 8.41l-.5-.245c0 1.114-.075 1.754-.223 1.918.146.387.304 1.188.468 2.407-.164 0-.245.074-.245.224h.245l.49-.224v.224l-.49.735c.163.282.245.604.245.96h-.245c.326.654.49 1.14.49 1.45h-.246l.47.96c-.148.27-.223.588-.223.96 0 .478.236.715.713.715l-.245.5c.282-.001.527.236.735.712M277.3 201.8c1.1-.773 1.82-2.208 2.163-4.304.313 0 .706-.968 1.183-3-.388 0-.624-.32-.713-.96h-.246v.736c.164 0 .246.075.246.223-.654 0-1.14.566-1.45 1.695l.245.47-1.428 3.613-.5-.246v.246c.326.356.5.834.5 1.427"/><path d="M294.027 212.863c-1.2 0-2.313-.4-3.368-1.202-.312.163-.55.243-.714.243-.654-1.277-1.137-1.918-1.45-1.918v.47c-.848-.313-1.485-.952-1.918-1.92l-1.45-.96c0-.326-.558-1.05-1.673-2.163 0-.148-.164-1.107-.5-2.877 0-2.84.4-10.452 1.204-22.838v-1.183c0-.164.08-.246.245-.246 0-.163-.082-.245-.245-.245l2.163-18.98c.64 0 .96-.32.96-.96h.246c.163 0 .245.082.245.245l.468-.245h1.205c1.682.714 2.802 1.353 3.368 1.918 0 .164.163.245.5.245l-.245 2.41v.223c.252 0 .572.164.96.49-.328 1.605-.49 3.048-.49 4.327l.49.713v.246c0 .922-.082 1.48-.245 1.672.163.878.245 1.6.245 2.164v1.448c-.328.982-.566 2.982-.714 6l.223 1.204-.223 1.205.223.5-.468 1.673c.163 1.354.245 2.477.245 3.368 0 2.32-.245 4-.736 5.04l.246.47v1.204l-.49.736c.326.52.49.997.49 1.427 0 .328-.083.49-.246.49l.49 4.55h-.245l.245.49v1.45h.245c7.048-3.375 13.293-6.898 18.734-10.57h.47l.5.223v-.223c-.163 0-.245-.082-.245-.246l2.652-1.672v.223c-1.44 1.01-2.162 1.814-2.162 2.408h-.5l-.47-.245.224.49v.245c-.388 0-1.108.394-2.163 1.182-1.755.923-2.952 1.808-3.59 2.654v.245c1.174-.163 2.452-.564 3.836-1.204 0-.326.563-.73 1.694-1.204 2.543-1.457 4.942-3.22 7.203-5.286h.225c-.58 1.28-1.058 1.918-1.428 1.918l.244.49v.96c-.282.713-.93 1.435-1.938 2.163 0 .4-.396.64-1.184.714v1.45h.714c-.237.64-.878 1.28-1.918 1.92 0 .476-1.44 1.836-4.326 4.08-.5 0-1.213.64-2.163 1.918-.566.58-1.45 1.146-2.654 1.693 0 .357-.32.832-.96 1.43 0 .445-1.918 1.167-5.754 2.164-1.398.802-2.84 1.203-4.327 1.203m-7.204-31.96l.245-1.203h-.245l.245-.47v-1.672h-.5v1.427c0 .164.08.245.245.245l-.245.47v1.203h.245zM339.97 216.7l-7.448-2.633c-.313.163-.56.245-.736.245-3.02-2.007-5.575-4.974-7.672-8.897 0-.416-.483-.975-1.45-1.673-.193 0-.513-.564-.96-1.695-.698 0-1.182-.64-1.45-1.918 0-.535-.074-.938-.224-1.204 1.115-4.133 1.673-7.018 1.673-8.654-.967 0-2.73-1.598-5.285-4.795V182.6c0-.356-.08-.676-.245-.96.5-1.323 1.13-2.684 1.918-4.08 0-.4 1.368-1.286 4.104-2.655 4-.728 6-1.604 6-2.63.238 0 .96-1.123 2.164-3.368 1.813-2.244 3.256-3.367 4.326-3.367h1.182c.402.328.73.5.982.5v.47c0 .164-.082.246-.246.246l.246.468c-.686.58-1.487 1.784-2.41 3.613.163 0 .245.082.245.244.164 0 2.32-.4 6.468-1.203l-.223-.49v-.224c.535 0 .937-.08 1.204-.244.298.163.535.244.714.244 0-.608 4.803-1.412 14.407-2.407 1.1 0 2.06-.082 2.877-.246 1.294.223 1.94.46 1.94.714l.468-.224h.96v.715c-.4 0-1.04.082-1.92.244l-.5-.244c-8.713 1.114-15.358 2.312-19.938 3.6 0 .21-.32.372-.96.49v-.49c-.58 0-1.54.4-2.877 1.205-.433.327-1.473.57-3.122.735v.47c.4 0 1.122-.156 2.163-.47v.224c.313-.148.55-.224.714-.224.313.15.558.224.736.224l-.245-.47h.713v.47h.246v-.47c.163 0 .245.082.245.246 1.648-.5 2.77-.892 3.367-1.205v.715a.41.41 0 0 0 .469-.469c-.164 0-.245-.08-.245-.246l1.204-.244h.245c.313.045.47.21.47.5h-.96v.224c.803 0 1.204-.074 1.204-.224v-.735h.5c.387.327.705.49.96.49l2.163-.735v.246l.47-.246.735.49c0-.163.073-.245.224-.245 0 .164.08.245.245.245.06-.326.223-.49.5-.49h.244v.49h.225v-.715h.734v.224h-.5l.246.49c.19-.12 1.314-.282 3.366-.49v.246c.313-.313 1.754-.55 4.327-.714 0 .595-1.123 1.234-3.368 1.918v.5c.804 0 1.205.156 1.205.47-1.025 0-2.313.565-3.857 1.694-.7 0-1.576.395-2.632 1.183-3.523.803-5.286 1.524-5.286 2.164-5.754 1.293-10.236 3.055-13.448 5.284.146.894.223 1.54.223 1.94-1.114.253-1.673.647-1.673 1.182l-1.204-.47c0 .714-.082 1.19-.245 1.428h.5v-.714h.714l-.468 4.327h5.508c3.672-.608 10.08-3.813 19.227-9.613 2.93-2.243 4.77-3.366 5.53-3.366h.47c0 .326.163.49.5.49v.47l-1.45.244c.162.313.244.56.244.736-.372 1.3-1.73 2.587-4.08 3.836-.163.283-.244.603-.244.96h-.245l-.47-.245c0 .224-.482.47-1.448.736 0 .372-.56.766-1.673 1.182 0 .21-.565.528-1.694.96l-.47-.223v.223c.163 0 .246.082.246.245-.597.52-2.282 1.16-5.063 1.918l.245.49-.714.96v.245l1.204.246h.245c.832-.6 2.513-1.413 5.04-2.41.325-.52 1.604-1.004 3.836-1.45.18-.43 1.063-.987 2.653-1.673v.47c-.803.773-1.287 1.494-1.45 2.163-1.813 1.13-3.256 2.253-4.326 3.368v.245h.246c.786 0 1.91-.557 3.366-1.672h.714c-.073.312-1.353 1.27-3.836 2.877v.245c.313.045.47.2.47.468-1.102.417-2.06 1.22-2.877 2.41-.237 0-2.237.96-6 2.877-2.245.64-3.367 1.44-3.367 2.41l-5.53 1.673v-.246l-3.368 1.205h-.468c.743 1.44 1.784 2.163 3.122 2.163h3.122c5.5-.64 10.542-2.08 15.122-4.327 2.542-1.218 5.188-3.3 7.938-6.245 2.56-3.196 3.917-5.516 4.08-6.958V188.6h.49c0 .268.475.67 1.427 1.204.27.967.505 1.45.714 1.45-.12 1.754-.274 2.63-.468 2.63l.245.49v.223c-.685 1.354-1.725 2.558-3.122 3.613-.82 1.37-2.424 2.73-4.817 4.082v.5h-.245l-.47-.245c0 .268-.236.67-.713 1.204.148 0 .224.073.224.223-1.132.64-1.852.96-2.163.96v.736c.18 0 .424.082.734.244 0-.52 1.52-1.485 4.55-2.898 0-.313.885-1.107 2.653-2.386 0-.313.803-1.354 2.41-3.124l.468-1.204h.49v.223c0 .863-.32 1.666-.96 2.41 0 .357.074.677.223.96-1.44 2.84-2.558 4.683-3.345 5.53.313 0 .468.082.468.245l1.204-.736h.246v.49c-.477 0-2 1.204-4.573 3.61v.225l.49-.225c.313.045.47.2.47.47-1.294.268-2.417 1.07-3.368 2.407-2.885 1.115-5.604 1.992-8.16 2.634-.686 1.294-3.005 1.938-6.96 1.938-.002.15-.64.226-1.92.226m14.41-45.877h-.245c-.878-.163-1.518-.245-1.918-.245.044-.313.2-.47.47-.47h.245c.163 0 .245.075.245.224 1.53-.787 2.57-1.183 3.122-1.183v.224l.5-.224h1.183c0 .52-.878.915-2.632 1.183l-.5-.224h-.714v.224l.245.49zM101.337 275.256l-.233.003c-1.28-.864-2.828-1.69-4.646-2.475-.877-1.652-1.423-2.484-1.637-2.495l-.47.006.007.47-.45.006c-1.318-1.66-2.278-4.643-2.88-8.945l-2.036-14.2.2-.922c-.3-.776-.466-1.315-.47-1.615-.001-.128.067-.74.21-1.84-.026-1.892-.9-3.872-2.624-5.94-.008-.483-1.037-2.847-3.1-7.086-.328-1.234-.496-2-.502-2.3l-.013-.918c.945-.625 1.63-.94 2.06-.946l-.197 1.155.676-.48.683-.01-.228.473c.06.3.22.445.476.442l.234-.004.677-.457.235-.004c.004.3.084.446.24.443.455-.006.68-.235.673-.7l1.152-.02c.616.307.928.687.935 1.142l.676-.48c.498.035 1.438 1.48 2.815 4.336.397-.005.87.602 1.413 1.816.94 1.182 1.895 3.702 2.86 7.56.174 1.25.34 2.01.502 2.277l-.212 1.626c.394 3.666.726 5.497.995 5.493l.023 1.622c.012.84-.052 1.916-.19 3.227l.24.445-.23.472c.16.27.243.573.247.915l-.233.003c.324.836.664 2.745 1.02 5.73l.213-.004c1.285-1.727 2.403-4.195 3.354-7.41 1.576-3.296 2.757-6.302 3.544-9.018l-.24-.443c1.043-2.732 1.852-5.505 2.423-8.317l.448-.006-.23-1.15c.44-1.072.717-3.146.83-6.223-.19-2.346-.448-4.03-.775-5.05l-.032-2.283c.598-.935 1.133-1.404 1.602-1.41l.452.23c.242-.004.854-.475 1.837-1.413.215-.004.444.222.693.674l.013.938-.22 1.134 1.156.22c.39-.617.77-.93 1.14-.935.156-.002.232-.152.23-.452l.447-.006c.008.456.166.682.48.677l.042 2.987c.01.77.243 1.15.7 1.144l.022 1.6c.002.157-.076.236-.23.238.32.494.48.876.485 1.146l.445-.24 2.98 14.452c.002.143-.076.215-.232.217.496 2.9.823 4.364.98 4.362l.233-.004-.228.474.03 2.283c.46.378.693.682.696.907l.235-.003c-.02-1.408.353-2.253 1.117-2.534l-.24-.467c.882-3.044 2.262-8.577 4.142-16.603l.234-.003.007.447c.004.27-.147.735-.45 1.395.16.297.242.522.244.68l-.228.474.24.443c-.152.302-.227.537-.225.708l.473.207.448-.006c-.01-.61.143-.92.457-.925l.213-.003-.22-.445c-.01-.77.134-1.154.432-1.16l-.24-.466.457-.924c-.16-.297-.242-.522-.244-.68.155-.002.458-.313.904-.932l-.24-.466c.336-2.452.702-3.682 1.1-3.688l-.01-.684-.233-1.385c.128-.926.27-1.392.428-1.394.302.152.53.228.688.226l-.22-.445.918-.013c.008.584-.56 3.807-1.7 9.673l-.235.003c.003.157.08.234.238.23l-.218 1.155.01.684.448-.006c.155-.003.386-.313.7-.93l-.24-.466c.44-1.073.657-1.837.65-2.293l.234-.004.45.208c.247-1.683.55-2.526.904-2.532l-.24-.466c.3-.616.654-2.073 1.092-4.37l.45.23c-.002-.13.07-.592.216-1.393l.47-.006.23 1.15-.447.006.034 2.52-.218 1.156.47-.007c-.005-.355.366-.745 1.115-1.168l.003.233-1.66 12.447.47-.007.22-.92.214-.003.003.214c.01.612-.56 3.688-1.706 9.224l.036 2.54c-1.162 4.43-2.788 8.742-4.877 12.94.013.926-.427 2.006-1.32 3.243-1.233.302-1.848.694-1.84 1.178l-.447.007-.712-.46-.447.006.006.47.45-.006.003.213-.684.01c-.004-.3-.314-.603-.93-.905l-.003-.234-.448.006.006.47-.234.003c-.732-.474-1.283-1.156-1.65-2.047l-.445.24-.683.01c-.257-.097-.895-1.313-1.908-3.646-1.85-.97-2.785-2.188-2.806-3.652-.598.01-1.564-3.43-2.9-10.313l-.47.006c-.15 1.384-.448 2.077-.888 2.084l.006.47c-.425 2.154-1.302 5.078-2.63 8.77l-.446 1.63.472.207c.028 1.98-1.31 4.914-4.017 8.8l.24.444c-.44 1.16-.97 1.856-1.594 2.094.01.567-.82 1.27-2.488 2.105l-.684.01.005.236zm4.812-17.55c-.008-.583.43-1.893 1.31-3.926l-.003-.233c-.16-.282-.242-.5-.245-.68.913-.853 1.366-1.55 1.358-2.09l-.25-1.147c-.44.006-1.178 1.78-2.21 5.325-.157.002-.233.08-.23.237l.24.444-.685 1.397.01.684.704-.01zm2.907-5.784c.824-.012 1.34-1.32 1.546-3.93.506-.42.944-2.033 1.318-4.844.3-.004.443-.39.433-1.158-.024-1.692-.265-2.537-.72-2.53l.008.47-.235.004-.01-.683.23-.475-.234.003c.002.157-.075.236-.232.238-.002-.156-.075-.233-.216-.23l.22.468.003.213-.45.007.005.235.25 1.147-.474-.228c-.438 1.188-.88 2.802-1.318 4.843-.344.93-.643 1.396-.9 1.4l.01.683.47-.007-.007-.448.45-.006c.003.23.242.53.717.908.006.455-.142 1.067-.443 1.842.155-.003.235.075.237.23-.456.008-.68.158-.676.458l.017 1.4zm2.32-14.058l-.01-.683-.448.007.182-2.308-.008-.47-.213.003c-.138 1.34-.357 2.417-.658 3.232l1.155.22zm8.132-10.703l-.47.008-.025-1.836-.214.004-.222.92-.47.006-.003-.213c.058-1.993.2-2.992.428-2.995.07-.001.375-.083.914-.248l.062 4.353zm12.182 16.16l.222-.92c-.117-1.222-.282-1.832-.496-1.83l.23-.473-.003-.213c-.005-.313-.164-.467-.478-.463l.004.233c.17 1.053.262 1.89.27 2.517l-.23.473c.16.296.242.523.244.68l.236-.004zm.877-19.545l-.235.003-.003-.232c.32-1.542.77-2.317 1.355-2.325l-.24-.445c.667-3.14 1.472-5.527 2.417-7.164l.47-.007.003.235c-.893 2.273-1.335 3.73-1.326 4.374l-.45-.23.003.235.242.466c-.304.773-.45 1.3-.447 1.608l-.474-.23.24.467c-.105.613-.25.922-.435.925.002.156.074.232.217.23l-.423 1.842-.473-.228c.005.31-.142.47-.44.474m12.64 48.558l-1.366.02c-.004-.3-.47-.6-1.4-.897-2.34-2.414-3.582-8.76-3.728-19.032-.143.002-.218-.302-.226-.915-.003-.155.067-.234.2-.236l-.23-1.15-.03-2.07c-.002-.142.067-.215.2-.217-.147-.296-.22-.53-.223-.7l.136-5.51.233-.004c-.002-.156-.08-.233-.237-.23l.418-3.678c-.002-.156-.082-.232-.238-.23-.002-.156.072-.387.225-.688l.105-9.202c-.035-2.504-.387-5.722-1.054-9.654.65-1.232 1.332-1.854 2.044-1.865.882-.012 1.42.364 1.616 1.13 1.128.24 2.136.994 3.02 2.263.006.413.168.866.49 1.36l.444-.22.235-.003.496 3.43.47-.007-.006-.447c.653-.01 1.053 1.053 1.197 3.185.214-.003.534 1.068.963 3.2.157-.002.236.076.24.232s-.076.235-.232.237l.75 4.813c-.145.828-.213 1.52-.205 2.073l.035 2.52a1.99 1.99 0 0 1-.2.942c.146.282.222.51.224.68-.476 5.67-.892 8.5-1.246 8.515l.258 1.618.058 4.142c.005.342-.068.647-.222.92.16.27.243.572.248.915l.003.233c.004.3-.15.45-.463.455-.002-.156-.082-.233-.238-.23l.003.233.48.677.007.47-.814 7.377-1.127 1.852c-.512.008-.97.24-1.377.702.002.157.08.234.238.23l-.202 2.31.006.442zm34.936-6.705l-.214.003c-.313.004-.472-.145-.477-.442l-.466.24-1.366.02c-1.835.025-2.76-.424-2.772-1.35a.41.41 0 0 1-.477-.463l-.01-.684.472.23.684-.01c1.677-.123 2.507-.903 2.485-2.34l-.132-9.412-.298-5.975c.138-.27.205-.586.2-.94-.15-.567-.232-1.29-.244-2.174-.003-.23.066-.345.208-.347-.002-.155-.075-.23-.216-.23l.197-1.156-.007-.448c-.028-1.99-.27-2.983-.726-2.98-3.165 1.64-5.296 2.893-6.393 3.762-4.57 2.84-7.22 5.41-7.94 7.712-1.094 1.083-2.312 1.634-3.648 1.653l-.45-.23c-1.234.36-1.846.91-1.834 1.648.025 1.88.894 3.396 2.604 4.553l.47 1.596-.676.48-.45.006c-2.595-1.386-3.99-2.363-4.182-2.93-2.638-2.325-4.21-4.907-4.72-7.747-.06-4.227 3.403-8.878 10.392-13.958a109.99 109.99 0 0 1 11.858-6.828c2.742-1.305 4.11-2.093 4.107-2.363l-.003-.214-.48-.697c.15-.3.228-.528.225-.687-.313.005-.472-.22-.48-.676.12-.528.575-.997 1.367-1.407l.47-.007c.753-.01 1.448.363 2.086 1.124l.444-.24.684-.01c.006.427.63.725 1.87.892.254-.16.558-.243.914-.248l-.69.928.003.234 2.976-.96c.3.153.536.23.708.226-.006-.342 1.52-.747 4.57-1.218 1.986-.44 2.978-.84 2.973-1.194.17-.002.398.072.686.226.342-.004 1.57-.25 3.683-.735l-.24-.466-.004-.234.473.23.445-.24 1.155.22.23-.452 1.156.196.918-.012-.008-.45.45-.006.006.448.47-.006c1.294-.02 2.9-.19 4.816-.52l.474.23 1.127-.25.705-.01.003.234-.918.014.003.213c.696-.01 1.155.22 1.376.686l.466-.24.45-.007c.313.04.472.187.476.442l-.47.006c.004.27 1.7.866 5.085 1.786l.24.443-.45.007c-.34.006-1.19-.062-2.543-.198-.27.16-.573.242-.914.248l-.006-.448-1.153.016.003.214.47-.007.01.704-.47.007-2.308-.2c.004.3-.143.45-.442.454-.156.002-.235-.066-.237-.21-1.892.17-3.268.494-4.128.978l-.45-.23c-2.298.545-3.445.945-3.442 1.2l.235-.003 9.186-1.048c.005.342-.917.583-2.765.722l.242.467.003.214c-1.552.02-5.522 1.073-11.9 3.156-1.423 1.104-2.488 1.736-3.197 1.902l-.45-.23c-1.07.783-2.9 1.65-5.492 2.598l-.23.473.313 5.503.25 1.15-.235.004.24.466.003.235c.003.142-.075.214-.23.216l.24.466.003.235c-.6.08-.913.312-.908.695l.462.91c-.152 2.31-.364 3.464-.635 3.468l.24.444.063 4.375c.002.157-.075.236-.23.238l.24.445c-.306.616-.53.925-.67.927.146.297.22.53.223.702-.422 2.4-.62 4.405-.6 5.983l.007.45c-.538 1.232-1.142 1.853-1.81 1.86l.02 1.387c-.555.008-.932.547-1.13 1.617-1.247.63-2.01.947-2.295.95m-21.524-26.125c-.006-.428 2.802-2.615 8.425-6.565l.235-.004.45.23c.15-.458.303-.688.46-.69.3.138.53.206.686.204.08-.328 2.666-1.667 7.756-4.017l-.003-.234-.235-1.6c-.4.007-.937.24-1.612.706l-2.07.028-.45-.207c.007.484-.604 1.105-1.83 1.862l.004.234-.452-.23c.005.355-1.137 1.134-3.425 2.333l-3.87 2.595c-2.06 1.367-3.346 2.538-3.857 3.513-.612.01-.9.548-.895 1.613.168 0 .397.075.684.227m27.392-14.88c.227-.003 1.142-.242 2.743-.723l.003.235.91-.483.474.23c1.058-.627 1.82-.944 2.292-.95l.683-.01-.01-.705.683-.01.474.228c.038-.3.186-.45.44-.455l1.155.198.912-.462 1.4.216c-.003-.257.527-.5 1.59-.728l-.003-.215-.45-.228-.697.458c-1.02-.44-1.71-.66-2.08-.654l-.214.003.013.918c-.516-.292-.98-.435-1.393-.43l.006.448-.474-.23-.447.008c-.62.465-1.464.71-2.53.74l-.452-.23c-.61.166-1.142.25-1.597.258l.003.213.683-.01.01.704c.004.3-.15.45-.463.455-.01-.612-.32-.914-.93-.905-.153.3-.228.53-.225.686l-.448.007-.007-.447-1.152.017.003.234.25 1.148-1.156-.22-.228.452.003.234.234.001z"/><path d="M216.157 277.778l-.924-.436c-.296.146-.53.22-.7.224l-.92-.2c-.296.146-.523.22-.68.223-.006-.397-.552-.695-1.636-.895-.354-.893-.977-1.646-1.866-2.258-.936-1.64-1.657-3.927-2.168-6.865l.228-.473c-.16-.297-.242-.52-.244-.68l.235-.004c-.278-.494-.614-2.64-1.01-6.433l.234-.004c-.3-.92-1.168-8.108-2.61-21.565-.157.002-.402-1.226-.735-3.684-.002-.155.072-.385.225-.687-.022-1.593-.973-3.345-2.85-5.254-.002-.1-.4-1.17-1.198-3.207.16-.686.694-1.227 1.6-1.623l.234-.004.006.447 1.83-.474.235-.004.02 1.388.448-.006-.23.452.004.233c.312-.004.47.07.473.23l1.82-1.18.234-.003.003.234c-.152.287-.228.516-.225.687.156-.002.236.075.238.23.297-.16.522-.24.68-.243 1.338.065 2.735 1.27 4.192 3.61.014 1.01.568 2.54 1.666 4.588l1.85 16.07.235-.005c3.48-.52 6.08-.8 7.8-.813l.918-.013c1.38-.02 2.058-.868 2.034-2.55l.234-.003-.24-.466-.004-.215c.77-.01 1.473-4.624 2.1-13.84-.313.004-.47-.144-.477-.44l-.02-1.388c.825-.012 1.434-.247 1.826-.71l.47-.007.23 1.15c-.145.002-.213.075-.2.217l.45.23c-.002-.155.073-.235.23-.237l-.242-.444-.003-.235c1-.014 1.616-.484 1.816-1.412l.47-.008c.002.17.083.405.244.7l.444-.24.234-.003c.007.513.1.896.25 1.148l.445-.24c.313.038.472.192.476.463l.003.213-.47.008.003.234.704-.01.207-.45c-.146-.297-.22-.53-.223-.702l.447-.006c.937.798 1.408 1.48 1.417 2.05l.684-.01.466-.24-.24-.444c.038-.313.187-.474.44-.477 1.138-.017 1.76.2 1.867.678l.006.448c.005.313-.23.474-.697.48.634 1.585.954 2.577.96 2.976-.712 3.056-1.035 6.888-.97 11.498l.45.23c-.002-.157.073-.236.23-.238.005.313.085.47.242.467l.91-.483.003.235c.007.456-.602.77-1.822.943l.02 1.388 1.6-.02 2.98-.727c.002.144.08.213.237.2-.004-.298.604-.534 1.826-.708l.003.233c.003.2-.985.748-2.965 1.644.01.61-1.362 1.32-4.1 2.13l.006.47 1.148-.252c.157-.002.236.075.24.23.296-.16.52-.242.68-.244l.47-.007.003.234c-1.848.254-2.768.57-2.763.957.008.455-.067.685-.225.687l.24.466-.416 2.3.232 1.385c.02 1.408-.387 4.938-1.217 10.585l-.47.006-.007-.448-.213.004.042 2.987-.705.01-.928-.67c.004.257-.37.95-1.123 2.086.023 1.637-.42 2.56-1.326 2.773.007.454-.76.693-2.297.715l-.233.004c-.007-.456-.237-.68-.692-.674l-.234.004-.025-1.836c-.005-.355-.088-.66-.248-.914-.002-.157.075-.235.23-.237-.005-.314-.085-.47-.24-.468.27-5.822.54-8.737.795-8.742l-.22-.466c.283-1.058.42-1.978.408-2.76l-.024-1.836.22-1.155c-.375-.294-.684-.438-.924-.436-2.257.487-3.787.886-4.595 1.196l.02 1.387c-.397.006-.92.86-1.564 2.563l-2.006 4.618c-.297.162-.522.242-.68.245l.026 1.835c.005.37-.37 1.064-1.123 2.087.013.91-.14 1.367-.45 1.372l.242.467c-1.206 1.326-1.807 2.104-1.803 2.33l.016 1.15.24.445c-.503.012-.805.322-.896.936m-.605-9.64c.896-1.01 2.546-3.565 4.95-7.67-.002-.142.075-.215.232-.217l.01.684.45-.006c-.01-.642.136-1.41.437-2.313l-.234.004.003.234c-.156.002-.235-.074-.237-.23-2.505.96-3.95 1.442-4.334 1.447-1.046-.44-1.66-.658-1.846-.656l.01.684c.005.342.08.646.226.915.004.156-.067.235-.2.237.15.695.333 2.99.545 6.887m5.24-3.767c-.007-.497.512-1.572 1.556-3.225l1.12-2.32-.006-.47-.234.004c-.87.994-1.54 2.235-2.02 3.722-.1.002-.4.39-.9 1.166l.017 1.13.468-.007zm5.997-15.242c.692-2.33 1.21-3.566 1.548-3.715-.165-.608-.4-1.14-.705-1.59l.438-.69-.214.004c-.256.003-.563.54-.916 1.613l.252 1.148c-.064.613-.286.922-.67.928l.004.234.24.444-.47.008.018 1.15c.06.316.22.47.477.465m4.435 20.86c.282-1.156.423-1.85.42-2.076-.002-.157-.08-.233-.237-.23l.22-1.156-.036-2.52-.273-2.77.234-.003-.24-.444-.02-1.602c-.003-.156.074-.235.23-.238-.16-.196-.245-.735-.258-1.618-.3.063-.445.22-.44.477l.02 1.6c.014.884-.058 1.425-.212 1.625.168.824.258 1.513.265 2.067l.1 6.895.23-.007zm1.572-2.093c.37-.005.587-.776.65-2.314-.146-.296-.22-.522-.224-.68l.448-.006-.013-.918c-.005-.313-.156-.468-.455-.463l.197-1.155-.032-2.283c-.002-.156.074-.236.23-.238l-.24-.467c-.003-.156.07-.386.225-.687l-.478-2.063c.142-.002.213-.08.21-.238l-.45.008.022 1.62c.005.342-.068.65-.222.922.002.156.08.233.238.23l-.22 1.135.007.47.258 1.598-.235.004.24.466.007.45c.005.313-.15.47-.463.476.32.494.483.954.49 1.38l.016 1.132-.208 1.62zm60.547 20.58l-.616-.112c-2.07-.38-3.426-.934-4.063-1.668l-1.26.09c-.318-.06-.842-.567-1.572-1.53l-.667.168c-1.34-.573-2.428-2.017-3.26-4.326l-.672.194-.587-.106c-3.584-4.24-5.27-6.938-5.06-8.097-2.127-7.678-2.363-16.03-.716-25.063-.148-.026.074-2.994.67-9l.3.057c-.226-1.102-.3-1.838-.232-2.212.37-1.186.688-1.754.948-1.706l-.225-9.065c.373.068.846-.78 1.42-2.547.8.147 1.24.016 1.314-.396l.058-.31.308.058.783.778c.43.077 1.136-.42 2.123-1.492.224.04.55-.005.98-.14l-.1.616 1.566-.032c-.113.615-.076.94.11.975.315-.152.84-.163 1.565-.03-.085.466.468.876 1.656 1.227l-.056.3-.415.53c.41.074.578.317.503.73l.28.05c.204.038 1.054-.02 2.547-.17l.896.164-.388 2.127-.78.783.813.785-1.746 4.337c-.001.425.167.667.503.728l-1.243 5.066-.056.308-.24 3.052-.31-.057.194.672-.056.3c-.6 3.23-1.355 9.104-2.294 17.63l-.3-.058c.12.505.236 2.193.35 5.066l-.584 1.456c.27.725.358 1.356.26 1.897l-.393.564c.987.18 1.3 1.278.932 3.294.336.062.636.734.904 2.017.987.18 3.836-1.787 8.54-5.902 2.904-3.346 6.293-9.378 10.162-18.103l.77-4.226.075-2.155.308.057-.2-.645c.086-.466.264-.857.533-1.175l1.69-14.327c.904-.836 1.956-1.474 3.154-1.91l.162-.895.6.105-.107.588.895.163c1.28-1.212 2.315-1.746 3.1-1.603l.2.644.667-.168.588.108-.164.895.308.06 1.568-.032 1.6 1.536-.168.923 1.203.22.113-.615c.354.277.633.435.84.473.43-.135.746-.183.952-.146 1.18 1.566 1.595 3.3 1.248 5.203-.206-.038-.327.047-.364.252.378.146.536.388.475.724-.683.356-1.107 1.004-1.277 1.936l-.3-.056-.255-1.927c-.425-.001-.667.167-.73.503l-.77 4.227c-.348 1.902-.874 4.2-1.576 6.885l.037 1.54c-2.734 7.907-4.932 13.118-6.586 15.63-.206-.036-.326.048-.364.252l-.495 2.716-.238 3.052c-.803-.147-1.353.592-1.648 2.215l-.308-.057c-.12.653-.122 2.938-.008 6.854l-.3-.056.2.644-.276 1.512c-.08.447-.258.83-.526 1.147.134.43.182.747.145.952-.446-.082-.77-1.172-.965-3.27l-.28-.05c-.032.188-.152.26-.357.224a65.52 65.52 0 0 0 .351 6.63c-.275.354-.434.635-.47.84-.318-.06-.633-2.295-.944-6.71l-.308-.058-.415.532-.057.308.614.112-.332 1.82.588.107a.27.27 0 0 1-.362.251l.198.645-.16.896-.537-.388c-.034.188-.154.262-.36.224-.397-1.307-.704-3.646-.916-7.02l-.587-.106c-.28-.052-.848.78-1.7 2.494-.392-.07-1.602.855-3.63 2.78l.2.645c-.665.572-2.186.922-4.56 1.047-1.61.892-2.456 1.566-2.538 2.014m16.888 8.088l-.896-.164c.063-1.51.023-2.454-.12-2.827.268-.298.463-.782.585-1.454l.614.11-.22 1.204-.415.53c.354.277.633.434.84.472l-.056.31-.75.788c.378.146.537.388.475.724l-.055.306z"/><path d="M332.228 299.017l-5.933-1.72-.646.2c-2.35-1.066-3.995-2.303-4.934-3.707-2.223-2.622-3.234-4.466-3.04-5.53.034-.186-.022-1.035-.17-2.547l.05-.28.42-.56c-.262-.047-.712-.958-1.352-2.734l.163-.896c.037-.204.85-.685 2.432-1.437l-.032-1.566c4.005-1.97 6.66-2.833 7.966-2.597l-.057.3c-.146.803-1.15 2.276-3.006 4.426l-.058.308c.43.078 1.484.58 3.167 1.504l5.23.35-.057.308c1.38.04 2.742-.03 4.088-.208l2.043.69c2.995.064 6.945-1.083 11.85-3.446 1.42-.8 2.916-2.186 4.5-4.155 1.202-.88 1.89-1.795 2.063-2.747l-17.252-7.836c-.076.41-.318.578-.73.503-6.763-2.987-10.583-5.345-11.464-7.066-.858-.157-2.187-1.44-3.982-3.853-.513-.15-1.375-1.656-2.587-4.52-.484-.088-.86-.88-1.128-2.375-.802-.146-1.02-1.23-.65-3.242.613-3.36 2.146-6.097 4.595-8.214 1.588-1.83 3.31-3.28 5.162-4.352 1.125-.776 1.913-1.665 2.366-2.662 3.484-1.657 5.497-2.438 6.038-2.34 4.448 1.295 7.614 2.703 9.496 4.224 4.178 3.308 6.07 6.045 5.675 8.21l-.44 2.405-.616-.11-.057.308.195.672-1.563.004c-.654-.117-2-1.193-4.066-3.23-3.73.785-6.023 1.407-6.877 1.868-.343.92-1.868 1.886-4.578 2.895-.063.335-1.253 1.16-3.575 2.47-1.548 1.607-2.354 2.6-2.423 2.972 3.7 2.546 10.003 5.566 18.908 9.063 7.99 3.542 12.745 6.493 14.263 8.854 5.497 4.107 8 6.965 7.807 8.568l-.616-.11c.096-.522-.823-1.723-2.756-3.6l-.615-.1-.05.278c.463 2.63 1.578 4.5 3.342 5.613-.048.262.3 1.26 1.016 2.99-.42-.02-.662.14-.724.476l-.188 2.77c-.278 1.53-1.702 2.514-4.27 2.95-.118.652-1.21 1.496-3.267 2.525-.185 1.008-2.057 2.122-5.614 3.343-.07.393-1.6 1.356-4.578 2.896-.643.134-.995.387-1.063.76l-.31-.056-.53-.415c-.266 1.455-2.437 2.515-6.5 3.178.112-.615-.036-.96-.446-1.036-.82.795-2.032 1.2-3.635 1.217l-1.764-.64-.588-.105c-.448-.082-.87-.054-1.26.088l-.56-.42c-.394.14-.813.17-1.26.088l-.532-.416-.415.553zm46.9-22.808l-1-.892-.77.23c.092-.514-.308-.938-1.195-1.273-.534-2.324-.727-3.904-.576-4.738l.354.063c-.482-1.256-.557-2.814-.225-4.676l.5-2.792c.76-4.235 3.94-15.434 9.55-33.6l.706.126.184-1.027c.287-1.604.065-4.38-.663-8.33.14-.77.123-1.37-.043-1.796.715-1.284 2.1-1.742 4.188-1.37l-.247 1.38 1.73.3c-.313.388-.5.707-.536.965l1.38.247.77-.23c-.123.687.158 1.088.843 1.2l1.916-.716.354.063-.48.643c3.42.745 4.98 1.973 4.674 3.685l.706.126-.368 2.054c.808 2.153 1.137 3.646.986 4.48l-1.05 5.87c-2.256 4.587-3.61 8.152-4.064 10.698-.792-.143-2.24 1.973-4.347 6.342-1.515 4.52-3.17 7.79-4.965 9.808-.1.558-.726 1.395-1.873 2.514-1.137 2.4-1.81 4.19-2.02 5.368l-.644-.48-.354-.063c-.638.35-1.138.49-1.5.427-.663 3.698-1.337 5.487-2.02 5.364m.952 36.528l-1.026-.184-1.013-2.3-2.687.942-.32-.058c-1.403-2.15-2.513-3.296-3.324-3.442-1.473-1.765-2.058-4.484-1.753-8.16-.215-.037-.258-.41-.132-1.115l.677-3.786c1.284.23 2.675-.946 4.175-3.526l6.872 1.562c-.084.47.87 1.128 2.86 1.97-.142.792.234 2.636 1.13 5.533l-.48.643c.153.49.21.855.17 1.1-.728.113-1.192.747-1.4 1.902l.674.12-.86 4.813c-2.275 2.086-3.46 3.42-3.565 3.997"/></g></svg>