<?xml version="1.0" encoding="utf-8"?>
<!-- Generator: Adobe Illustrator 16.0.0, SVG Export Plug-In . SVG Version: 6.00 Build 0)  -->
<!DOCTYPE svg PUBLIC "-//W3C//DTD SVG 1.1//EN" "http://www.w3.org/Graphics/SVG/1.1/DTD/svg11.dtd">
<svg version="1.1" id="Capa_1" xmlns="http://www.w3.org/2000/svg" xmlns:xlink="http://www.w3.org/1999/xlink" x="0px" y="0px"
	 width="441.045px" height="396.605px" viewBox="0 0 441.045 396.605" enable-background="new 0 0 441.045 396.605"
	 xml:space="preserve">
<path fill="#FFFFFF" d="M152.542,141.775c-0.652-0.509-2.23-1.017-4.734-1.524c-0.029-0.265-1.332-0.622-3.908-1.075
	c-0.021-0.186-0.571-0.549-1.65-1.089l-0.057-0.512l1.772,0.063l0.768-0.084c0.326-0.036,0.47-0.217,0.435-0.543
	c-0.059-0.527-2.092-4.445-6.1-11.755c-0.113-1.023-1.236-3.52-3.369-7.49c-3.098,1.363-6.519,2.501-10.262,3.416
	c-0.02-0.17-0.114-0.246-0.284-0.227c0.055,0.496-0.413,0.885-1.401,1.166c-2.766,0.965-4.082,2.044-3.951,3.236
	c-0.685,3.467-1.427,5.91-2.227,7.331l0.085,0.769c0.496-0.056,0.762,0.08,0.798,0.405l0.028,0.257l-0.518-0.202l-0.511,0.056
	c-0.353,1.358-0.508,2.222-0.467,2.594l-0.54-0.198c0.048,0.433-0.401,0.992-1.345,1.678c0.034,0.31-0.715,1.915-2.246,4.814
	l-0.486,0.289l-0.488,0.055l-1.082-0.635l-0.256,0.028c-0.32,0.082-0.465,0.271-0.432,0.565c0.189,0.293,0.294,0.532,0.315,0.719
	l-0.461,0.31c-0.236-0.146-0.664-0.186-1.283-0.116c0.054,0.494-0.252,0.78-0.918,0.854l-4.326-2.3
	c-1.38,0.151-2.952-1.872-4.719-6.07l-0.167-1.512c2.781-4.794,4.658-8.47,5.633-11.025c-0.039-0.356,0.399-0.994,1.318-1.911
	l2.833-8.669c-0.181-0.073-0.331-0.653-0.45-1.738c0.901-2.626,1.517-3.958,1.843-3.993c0.929-2.802,2.311-8.706,4.141-17.711
	l1.676-5.505c-0.207-0.308-0.318-0.545-0.338-0.717c0.62-0.067,1.452-0.921,2.495-2.559l1.023-0.113l0.343,0.976l0.256-0.028
	c0.341-0.038,0.493-0.227,0.455-0.569l2.517-0.018l0.512-0.057c0.055,0.497,0.245,0.726,0.57,0.689l0.257-0.028
	c-0.056-0.495,0.088-0.763,0.429-0.8l0.256-0.028c0.331,0.011,0.512,0.164,0.545,0.458l0.483-0.313l0.232-0.026l0.11,1l0.512-0.056
	c0.325-0.036,0.469-0.225,0.433-0.565l-0.026-0.232l-0.289-0.486l1.228-0.395l0.488-0.054l-0.199,0.539l0.082,0.744
	c0.341-0.037,0.549,0.278,0.622,0.944l2-0.221c0.02,0.171-0.058,0.265-0.228,0.284c0.17,0.828,0.472,1.219,0.906,1.171l0.164,1.487
	c0.289,1.773,0.925,2.975,1.903,3.604c0.009,0.078,0.357,0.887,1.045,2.426l0.46-0.309l0.257-0.029l1.415,3.657
	c0.496-0.055,0.8,0.415,0.908,1.406c-0.171,0.02-0.246,0.113-0.227,0.284l0.54,0.199l-0.029-0.256
	c-0.171,0.019-0.265-0.056-0.284-0.228l0.769-0.085c0.119,0.944,0.818,2.728,2.096,5.348c-0.07,0.934-0.081,1.609-0.035,2.027
	l0.54,0.2c-0.019-0.17,0.057-0.265,0.229-0.284c0.036,0.342,0.652,1.372,1.847,3.092c5.108-1.065,8.174-1.655,9.197-1.769
	l0.057,0.511l-0.512,0.058l0.392,1.204l-4.833,2.063l0.289,0.486c0.087,0.79-0.602,1.369-2.068,1.734l0.028,0.256l0.488-0.055
	l0.057,0.513l-0.407,0.798l0.055,0.487c1.8,4.087,3.301,7.727,4.501,10.921c0.029,0.264,0.229,0.578,0.599,0.945l0.028,0.256
	c0.019,0.172-0.058,0.266-0.229,0.284l2.976,6.263c-0.156,0.017-0.224,0.11-0.205,0.281c0.713-0.079,1.742,2.42,3.088,7.497
	c-0.558,0.063-0.923,0.526-1.094,1.393l-1.513,0.167C153.77,141.381,153.379,141.683,152.542,141.775 M115.496,100.223
	c0.349-0.117,0.635-0.572,0.862-1.367c-0.188-0.275-0.302-0.602-0.343-0.974c0.387-0.043,0.982-1.544,1.785-4.505l-0.313-0.483
	l-0.028-0.256c0.8-1.139,1.14-2.612,1.02-4.42l-1,0.111l0.056,0.511l0.512-0.056C116.122,94.379,115.272,98.192,115.496,100.223
	 M123.755,112.987c0.853-0.094,3.538-1.064,8.059-2.913l-0.028-0.257c-0.04-0.355-1.606-3.814-4.7-10.379l-0.025-0.232
	c-0.677,1.127-1.311,3.056-1.903,5.789c-0.117,2.352-0.536,4.673-1.256,6.965l-0.256,0.027L123.755,112.987z M147.44,123.06
	l-0.028-0.256c-0.021-0.201-0.2-1.021-0.531-2.46l0.118-1.284c-0.172,0.02-0.266-0.056-0.285-0.227l-0.46,0.309l-0.511,0.058
	c-0.13-1.179-0.529-1.731-1.195-1.657C145.98,121.276,146.943,123.115,147.44,123.06"/>
<path fill="#FFFFFF" d="M166.168,132.151c-1.24,0.138-2.458-0.152-3.65-0.867c-0.307,0.206-0.545,0.318-0.715,0.337
	c-0.83-1.259-1.407-1.869-1.733-1.833l0.054,0.488c-0.92-0.228-1.66-0.821-2.221-1.779l-1.622-0.833
	c-0.037-0.34-0.702-1.028-1.993-2.063c-0.017-0.154-0.298-1.135-0.842-2.942c-0.327-2.962-0.785-10.945-1.373-23.952l-0.136-1.233
	c-0.02-0.17,0.056-0.265,0.228-0.284c-0.019-0.17-0.114-0.246-0.284-0.227c-0.372-12.607-0.349-19.287,0.071-20.04
	c0.666-0.073,0.963-0.443,0.89-1.11l0.256-0.027c0.171-0.02,0.266,0.057,0.283,0.227l0.461-0.309l1.256-0.14
	c1.834,0.552,3.077,1.089,3.732,1.612c0.02,0.171,0.198,0.237,0.539,0.2l0.022,2.539l0.025,0.232
	c0.264-0.028,0.615,0.105,1.057,0.401c-0.157,1.712-0.161,3.235-0.015,4.568l0.595,0.688l0.027,0.256
	c0.106,0.962,0.085,1.552-0.063,1.772c0.271,0.896,0.439,1.639,0.505,2.228l0.167,1.511c-0.229,1.062-0.247,3.175-0.054,6.339
	l0.37,1.229l-0.094,1.282l0.289,0.486l-0.296,1.798c0.326,1.392,0.541,2.553,0.644,3.482c0.268,2.419,0.204,4.199-0.188,5.34
	l0.31,0.46l0.14,1.257l-0.428,0.823c0.4,0.507,0.627,0.983,0.677,1.433c0.037,0.341-0.029,0.521-0.2,0.54l1.036,4.687l-0.256,0.029
	l0.312,0.482l0.167,1.513l0.256-0.029c6.96-4.33,13.066-8.723,18.317-13.179l0.489-0.055l0.536,0.178l-0.025-0.233
	c-0.171,0.02-0.265-0.056-0.284-0.228l2.575-2.049l0.025,0.231c-1.388,1.221-2.047,2.141-1.979,2.761l-0.511,0.057l-0.518-0.201
	l0.289,0.485l0.028,0.256c-0.403,0.045-1.11,0.539-2.119,1.481c-1.724,1.164-2.87,2.224-3.438,3.181l0.027,0.256
	c1.206-0.306,2.493-0.871,3.862-1.697c-0.038-0.341,0.505-0.824,1.628-1.451c2.484-1.812,4.784-3.925,6.903-6.34l0.232-0.026
	c-0.457,1.401-0.881,2.121-1.268,2.164l0.313,0.483l0.11,1c-0.213,0.777-0.804,1.604-1.774,2.479
	c0.046,0.418-0.338,0.712-1.15,0.881l0.167,1.511l0.744-0.082c-0.175,0.694-0.769,1.435-1.779,2.221
	c0.055,0.497-1.292,2.081-4.042,4.754c-0.511,0.057-1.19,0.807-2.035,2.248c-0.522,0.67-1.379,1.362-2.572,2.073
	c0.041,0.372-0.237,0.905-0.836,1.599c0.053,0.465-1.864,1.438-5.75,2.918C169.175,131.395,167.717,131.979,166.168,132.151
	 M154.978,99.656l0.117-1.284l-0.257,0.027l0.202-0.516l-0.191-1.745l-0.513,0.057l0.164,1.488c0.02,0.171,0.113,0.247,0.284,0.229
	l-0.201,0.516l0.139,1.256L154.978,99.656z"/>
<path fill="#FFFFFF" d="M201.981,128.198c-1.241,0.137-2.458-0.153-3.651-0.868c-0.306,0.206-0.545,0.318-0.715,0.337
	c-0.83-1.258-1.407-1.869-1.733-1.833l0.055,0.489c-0.92-0.229-1.66-0.822-2.222-1.779l-1.621-0.834
	c-0.037-0.34-0.702-1.028-1.993-2.063c-0.018-0.153-0.298-1.135-0.843-2.942c-0.326-2.961-0.784-10.945-1.372-23.952l-0.137-1.233
	c-0.019-0.17,0.057-0.265,0.229-0.284c-0.02-0.17-0.114-0.245-0.284-0.227c-0.372-12.607-0.349-19.287,0.071-20.04
	c0.666-0.073,0.963-0.443,0.89-1.11l0.255-0.027c0.171-0.02,0.266,0.057,0.284,0.227l0.461-0.309l1.255-0.14
	c1.834,0.552,3.078,1.09,3.733,1.612c0.019,0.172,0.197,0.237,0.539,0.2l0.021,2.54l0.026,0.231
	c0.263-0.028,0.615,0.105,1.056,0.401c-0.157,1.712-0.161,3.235-0.014,4.568l0.594,0.688l0.028,0.256
	c0.105,0.962,0.085,1.553-0.063,1.772c0.271,0.896,0.44,1.639,0.505,2.228l0.167,1.512c-0.229,1.061-0.247,3.174-0.054,6.338
	l0.371,1.229l-0.094,1.282l0.289,0.486l-0.296,1.798c0.325,1.392,0.541,2.553,0.644,3.482c0.267,2.419,0.204,4.199-0.188,5.341
	l0.311,0.46l0.139,1.256l-0.427,0.824c0.4,0.506,0.626,0.982,0.676,1.432c0.037,0.341-0.028,0.521-0.2,0.54l1.036,4.688
	l-0.256,0.028l0.313,0.483l0.167,1.512l0.256-0.029c6.96-4.33,13.065-8.723,18.316-13.179l0.489-0.054l0.537,0.177l-0.026-0.233
	c-0.171,0.02-0.265-0.056-0.283-0.228l2.574-2.049l0.026,0.231c-1.388,1.222-2.047,2.142-1.979,2.761l-0.511,0.057l-0.517-0.201
	l0.289,0.485l0.027,0.256c-0.402,0.045-1.109,0.539-2.118,1.481c-1.725,1.164-2.87,2.224-3.439,3.181l0.028,0.256
	c1.206-0.306,2.493-0.871,3.861-1.697c-0.038-0.341,0.506-0.824,1.628-1.451c2.484-1.812,4.784-3.925,6.903-6.34l0.233-0.026
	c-0.457,1.401-0.882,2.121-1.27,2.164l0.313,0.483l0.108,1c-0.213,0.777-0.804,1.604-1.772,2.48c0.046,0.418-0.338,0.712-1.151,0.88
	l0.167,1.511l0.744-0.082c-0.174,0.695-0.769,1.435-1.779,2.221c0.057,0.497-1.293,2.081-4.042,4.754
	c-0.511,0.057-1.189,0.807-2.034,2.248c-0.523,0.67-1.38,1.362-2.572,2.073c0.041,0.372-0.238,0.905-0.836,1.599
	c0.052,0.466-1.865,1.438-5.75,2.918C204.988,127.442,203.53,128.027,201.981,128.198 M190.791,95.702l0.117-1.284l-0.256,0.027
	l0.202-0.516l-0.192-1.745l-0.512,0.058l0.164,1.487c0.019,0.171,0.113,0.247,0.284,0.229l-0.201,0.516l0.138,1.256L190.791,95.702z
	"/>
<path fill="#FFFFFF" d="M233.1,152.941l-1.411-0.219c0.049-0.308-0.38-0.699-1.284-1.17c-1.989-2.895-2.16-9.648-0.516-20.257
	c-0.146-0.023-0.172-0.351-0.073-0.982c0.024-0.161,0.111-0.23,0.259-0.208l-0.036-1.224l0.332-2.138
	c0.021-0.146,0.106-0.209,0.254-0.187c-0.1-0.332-0.135-0.585-0.106-0.762l1.103-5.652l0.242,0.038
	c0.024-0.161-0.043-0.255-0.204-0.28c0.538-2.112,0.896-3.351,1.071-3.716c0.024-0.161-0.043-0.255-0.205-0.279
	c0.026-0.161,0.143-0.385,0.353-0.668c0.781-3.972,1.354-7.126,1.717-9.462c0.4-2.586,0.602-5.963,0.602-10.131
	c0.886-1.155,1.695-1.678,2.431-1.563c0.911,0.142,1.4,0.624,1.47,1.446c1.118,0.444,2.024,1.397,2.716,2.859
	c-0.065,0.426,0.022,0.921,0.267,1.485l0.497-0.148l0.242,0.037c-0.026,2.208-0.056,3.415-0.088,3.621l0.484,0.075l0.072-0.463
	c0.675,0.104,0.9,1.268,0.677,3.489c0.222,0.035,0.364,1.193,0.433,3.476c0.161,0.024,0.229,0.119,0.205,0.28
	c-0.024,0.162-0.119,0.229-0.279,0.204l-0.068,5.092c-0.294,0.826-0.484,1.526-0.573,2.1l-0.403,2.6
	c-0.057,0.368-0.181,0.681-0.37,0.937c0.101,0.316,0.139,0.563,0.11,0.739c-1.479,5.76-2.403,8.609-2.771,8.553l-0.018,1.713
	l-0.663,4.276c-0.055,0.352-0.186,0.655-0.389,0.909c0.116,0.305,0.149,0.633,0.095,0.985l-0.038,0.243
	c-0.047,0.308-0.233,0.437-0.556,0.387c0.024-0.161-0.045-0.255-0.205-0.279l-0.038,0.242l0.376,0.78l-0.075,0.485l-2.127,7.457
	l-1.484,1.71c-0.527-0.082-1.043,0.08-1.541,0.482c-0.025,0.163,0.042,0.255,0.204,0.281l-0.61,2.342L233.1,152.941z"/>
<path fill="#FFFFFF" d="M255.007,152.705l-4.686-1.224l-0.501,0.17c-1.864-0.784-3.179-1.719-3.943-2.801
	c-1.797-2.008-2.628-3.431-2.497-4.269c0.021-0.146-0.041-0.811-0.188-1.992l0.034-0.221l0.317-0.447
	c-0.206-0.032-0.578-0.736-1.117-2.114l0.109-0.706c0.025-0.161,0.65-0.553,1.875-1.176l-0.058-1.228
	c3.096-1.626,5.158-2.359,6.187-2.2l-0.037,0.243c-0.099,0.632-0.854,1.808-2.264,3.53l-0.037,0.242
	c0.337,0.053,1.176,0.424,2.514,1.112l4.104,0.163l-0.038,0.242c1.083,0.003,2.149-0.08,3.199-0.248l1.615,0.498
	c2.349-0.012,5.42-0.994,9.215-2.949c1.094-0.657,2.237-1.774,3.431-3.351c0.923-0.714,1.443-1.445,1.56-2.195
	c-8.508-3.261-13.068-5.187-13.685-5.778c-0.05,0.323-0.236,0.46-0.56,0.409c-5.362-2.2-8.405-3.966-9.133-5.298
	c-0.677-0.105-1.742-1.083-3.2-2.935c-0.405-0.107-1.112-1.27-2.122-3.489c-0.382-0.059-0.693-0.671-0.935-1.837
	c-0.632-0.098-0.824-0.94-0.578-2.526c0.409-2.646,1.554-4.822,3.429-6.533c1.205-1.468,2.521-2.64,3.953-3.517
	c0.865-0.634,1.465-1.346,1.799-2.137c2.694-1.372,4.255-2.025,4.682-1.96c3.515,0.922,6.023,1.958,7.53,3.109
	c3.343,2.505,4.883,4.609,4.618,6.313l-0.294,1.896l-0.485-0.075l-0.037,0.242l0.167,0.522l-1.224,0.036
	c-0.516-0.08-1.6-0.895-3.255-2.445c-2.906,0.692-4.69,1.229-5.352,1.607c-0.248,0.729-1.424,1.518-3.524,2.364
	c-0.041,0.265-0.958,0.935-2.75,2.011c-1.18,1.293-1.79,2.085-1.837,2.379c2.953,1.917,7.955,4.153,15.008,6.706
	c6.336,2.607,10.123,4.82,11.361,6.638c4.394,3.104,6.491,5.287,6.296,6.551l-0.484-0.075c0.063-0.411-0.682-1.332-2.234-2.762
	l-0.483-0.075l-0.034,0.22c0.418,2.052,1.331,3.495,2.735,4.329c-0.031,0.207,0.254,0.981,0.858,2.323
	c-0.331-0.006-0.516,0.123-0.557,0.388l-0.09,2.175c-0.188,1.205-1.281,2.006-3.283,2.402c-0.08,0.515-0.916,1.198-2.507,2.049
	c-0.123,0.793-1.567,1.706-4.329,2.736c-0.049,0.309-1.225,1.097-3.527,2.365c-0.5,0.117-0.771,0.323-0.817,0.617l-0.241-0.038
	l-0.426-0.313c-0.179,1.146-1.856,2.021-5.034,2.627c0.075-0.485-0.05-0.752-0.372-0.802c-0.626,0.64-1.567,0.983-2.822,1.028
	l-1.396-0.465l-0.463-0.07c-0.354-0.056-0.683-0.023-0.985,0.095l-0.447-0.318c-0.304,0.119-0.633,0.151-0.985,0.097l-0.425-0.314
	L255.007,152.705z"/>
<path fill="#FFFFFF" d="M45.415,179.23c-0.802-0.371-1.204-1.575-1.204-3.612c0-0.148,0.082-0.224,0.245-0.224
	c0-0.163-0.081-0.245-0.245-0.245c0.209-2.721,0.528-4.082,0.959-4.082v0.224c-0.312,2.29-0.468,3.896-0.468,4.817L45.415,179.23z
	 M63.436,224.884c-1.606-0.208-2.408-0.61-2.408-1.204h-0.491l-0.468,0.224c-0.803-1.441-1.369-3.121-1.695-5.039
	c-0.789,0-1.183,0.317-1.183,0.959c-0.521,0-0.84-4.402-0.959-13.204c-0.327,0-0.49-0.319-0.49-0.959h-0.491
	c-0.356,0-0.677,0.082-0.959,0.246l-0.959-0.491c0,0.327-0.4,0.646-1.204,0.959c-0.313,0-0.469-0.156-0.469-0.468v-0.246
	c1.16-0.729,1.963-1.129,2.409-1.204v-0.714h-0.491c-2.245,0.951-3.449,1.428-3.613,1.428v-0.959c0.804,0,1.852-0.478,3.146-1.428
	l0.959-0.736c0-0.163,0.074-0.245,0.223-0.245c0-0.759-1.115-3.717-3.345-8.877c-2.886-6.408-4.327-9.932-4.327-10.571h0.468
	c0.193,0,0.759,1.442,1.695,4.326c0.371,0.254,0.929,1.695,1.673,4.327c0.371,0,0.609,0.402,0.714,1.204h0.245v-0.959
	c-0.64-0.638-1.599-3.285-2.877-7.939c-0.892,0-1.776-3.359-2.654-10.081v-0.246c0.848-3.85,1.65-5.775,2.409-5.775
	c0.446-1.234,2.445-3.07,5.999-5.509l0.491,0.223c0.431-0.045,0.832-0.438,1.204-1.182c0.312-0.163,0.55-0.245,0.714-0.245
	c0,0.164,0.081,0.245,0.245,0.245c0-0.432,0.476-0.759,1.428-0.981v-0.223l0.49,0.223c1.888-0.788,3.888-1.346,6-1.673v0.491
	c-0.521,0-2.119,0.319-4.795,0.959v0.468c0.312,0,0.468,0.082,0.468,0.245l1.695-0.713c0.163,0,0.245,0.073,0.245,0.223
	c1.264-0.313,2.223-0.469,2.877-0.469v0.246l0.469-0.246h0.245c0.163,0,0.245,0.082,0.245,0.246l0.469-0.246h0.245
	c0,0.372-1.197,0.609-3.591,0.714c-0.64,0.119-0.959,0.365-0.959,0.736l-0.736-0.491c0,0.328-0.238,0.491-0.713,0.491l-0.491-0.245
	c-1.279,0.445-1.918,0.847-1.918,1.204h-1.205l-1.672,1.427h-0.246v-0.468c-0.907,0.847-1.866,1.568-2.877,2.163
	c-0.803,0.848-1.204,1.487-1.204,1.918c0.743-0.476,1.383-0.714,1.918-0.714l-0.223-0.49v-0.491h0.468v0.736
	c1.279-0.326,1.918-0.646,1.918-0.959c0.327-0.401,0.491-0.804,0.491-1.204h0.245v0.714c0.922,0,2.521-0.803,4.796-2.409
	l-0.246-0.468c0.759,0,1.323-0.164,1.695-0.491H62.7v0.491h0.246c0-0.327,0.401-0.647,1.204-0.959h0.714
	c0.163,0,0.245,0.082,0.245,0.245c0.654-0.327,1.137-0.491,1.45-0.491c0.044,0.328,0.199,0.491,0.468,0.491
	c0-0.491,2.163-0.817,6.49-0.981v-0.469l1.673,0.246c1.769,0,3.293-0.164,4.572-0.491c0.236,0.164,0.721,0.245,1.449,0.245
	l-0.246,0.469h0.246l0.469-0.223v0.468c-0.313,0-0.469,0.082-0.469,0.245c-0.312-0.163-0.558-0.245-0.735-0.245l-0.959,0.245
	c-0.298-0.163-0.535-0.245-0.714-0.245v0.491c0.476,0,0.714,0.082,0.714,0.245l1.204-0.491l4.326,1.205v0.245l0.491-0.245
	c1.441,0.877,2.237,1.516,2.386,1.918l0.491-0.246c0.594,0.803,0.985,1.205,1.171,1.205c0.187,0,0.278,0.164,0.278,0.49h0.223v-0.49
	c1.413,0.476,2.217,0.878,2.409,1.204c-0.164,0.312-0.245,0.55-0.245,0.714c0.862,0.134,1.428,0.535,1.695,1.204
	c0.312-0.163,0.549-0.245,0.714-0.245l0.245,0.49H94.17c0.46,0.773,1.183,1.414,2.163,1.919v0.245l-0.223,0.468
	c0.759,0,1.234,0.401,1.428,1.205c0.163,0,0.408,0.319,0.736,0.959c-0.179,0-0.424,0.082-0.736,0.245
	c0.163,0.312,0.245,0.55,0.245,0.714c-0.283,0.445-0.521,1.413-0.714,2.898c-0.327,0-0.49-0.163-0.49-0.49l-0.469,0.245h-0.245
	c0-0.803-0.402-1.204-1.204-1.204v2.163c-0.372,0.804-0.773,1.204-1.205,1.204v0.714l-0.245,1.204l-1.428-0.49v0.245l0.223,0.49
	c-0.431,0-0.988,0.723-1.672,2.164c-1.279,1.427-1.918,2.224-1.918,2.386H88.17l-0.245-0.959c0.432-0.638,0.832-0.959,1.204-0.959
	c0.119,0,0.521-0.959,1.205-2.877c-0.312,0-0.469-0.163-0.469-0.49c0.699,0,1.339-0.876,1.918-2.632l0.223-1.673
	c-0.312,0-0.468-0.245-0.468-0.735c-0.312,0.164-0.55,0.245-0.714,0.245c0,0.163,0.074,0.245,0.223,0.245
	c-0.148,0.64-0.223,1.197-0.223,1.673h-0.959l-0.49-0.245c-1.755,3.004-2.632,4.609-2.632,4.817c-0.327,0-0.811,0.877-1.45,2.631
	c-0.847,0-1.486,0.723-1.918,2.164l0.224,0.49c-0.788,0.669-1.183,1.228-1.183,1.673H81.68l0.245-0.468v-0.246H81.68
	c-1.279,0.967-2.156,1.45-2.633,1.45l0.246,0.468c0,0.149-1.041,0.87-3.123,2.164c-0.015,0.253-0.735,0.812-2.163,1.673
	c-1.517,1.473-3.278,2.596-5.285,3.367l-2.409,1.918v0.246c0,2.022-0.164,5.308-0.49,9.858h-0.469l0.246,1.204v1.427
	c0,0.699-0.164,1.339-0.491,1.918H65.6c-0.135,1.44-0.379,2.164-0.736,2.164l0.245,0.491v2.161c0,0.357-0.082,0.678-0.245,0.959
	c0.163,0.282,0.245,0.604,0.245,0.959C64.692,223.28,64.135,224.884,63.436,224.884 M47.579,175.149
	c0-0.803,0.156-1.441,0.468-1.918l-0.223-1.449l0.469-0.245c0-0.164-0.083-0.246-0.246-0.246l0.246-1.183v-0.489
	c-0.223,0-0.462,0.4-0.714,1.203h-0.245c0,0.357,0.081,0.678,0.245,0.96c-0.328,0.743-0.491,1.465-0.491,2.162l0.246,1.205H47.579z
	 M56.455,195.333c0.327,0,0.491-0.245,0.491-0.736c0.476-10.497,0.714-17.062,0.714-19.694h-0.246c-1.368,0.789-2.408,2.788-3.122,6
	v0.736c-0.789,0-1.182,0.156-1.182,0.468c0,0.669,0.156,1.473,0.468,2.409h-0.245l-0.468-0.245c0.638,2.722,1.434,5.204,2.386,7.449
	C55.251,192.21,55.653,193.416,56.455,195.333 M67.027,195.088l1.695-0.959l-0.245-0.491v-0.245c1.44-0.074,2.163-0.469,2.163-1.183
	l0.469,0.224h0.49c0-0.224,0.558-1.018,1.673-2.387h-0.468v0.468l-0.491-0.245h-0.245c0,0.402-0.64,0.886-1.918,1.45v-0.714
	c0.281,0,1.084-0.483,2.408-1.45l0.49,0.246c0-0.654,0.64-1.294,1.918-1.918c3.494-2.855,6.453-5.42,8.877-7.695
	c0-0.252,0.564-0.735,1.695-1.449c0-0.313,0.794-1.673,2.386-4.081c0.804-2.155,1.204-4.156,1.204-6v-0.714
	c-0.847-0.653-3.331-1.294-7.448-1.918l-0.469,0.224c-0.551,0-2.229-0.074-5.041-0.224c-4.163,0.135-8.171,1.012-12.021,2.632
	c0,0.104-0.401,0.424-1.204,0.96c0.371,2.557,0.771,3.836,1.204,3.836l-0.245,1.204v1.918c0.059,0.326,0.223,0.49,0.49,0.49
	c0.313,0,0.469-0.319,0.469-0.959c0.49,0,1.055,2.886,1.695,8.653c0.312,0.045,0.468,0.201,0.468,0.469v2.408l-0.245,1.45
	c0,0.148,0.081,0.223,0.245,0.223l-0.245,1.204v1.45c0,0.357,0.081,0.677,0.245,0.959c-0.164,0.283-0.245,0.602-0.245,0.959v1.205
	H67.027z M84.089,189.312h-1.204v-0.714c1.77-0.49,2.654-1.129,2.654-1.918h0.224c0.325,0.045,0.489,0.201,0.489,0.469
	C86.252,187.356,85.531,188.077,84.089,189.312 M86.966,186.435h-0.223c0.089-0.966,0.326-1.45,0.714-1.45h0.713v0.246
	C88.17,185.395,87.769,185.795,86.966,186.435"/>
<path fill="#FFFFFF" d="M113.618,218.149c-3.093,0-6.141-1.522-9.144-4.57c-1.443-1.115-2.164-1.756-2.164-1.919
	c-0.282-0.282-1.159-1.808-2.631-4.571l-0.491,0.245c-0.952-2.244-1.829-4.966-2.632-8.163c0-0.163,0.081-0.245,0.246-0.245
	c0-0.193-0.402-1.791-1.205-4.795c0.162-0.282,0.244-0.603,0.244-0.959c0-0.729-0.082-1.212-0.244-1.45
	c0.476-10.407,0.95-15.612,1.428-15.612c2.453-6.884,4.296-10.325,5.531-10.325v-0.491h0.959c0.163,0,0.244,0.082,0.244,0.245
	c0.58-0.326,1.22-0.49,1.919-0.49c2.468,0,4.631,1.041,6.489,3.122h0.246v1.204l-1.205,1.694c0.164,0,0.246,0.075,0.246,0.224
	c0.817-0.313,1.456-0.468,1.918-0.468c1.873,0.64,2.913,0.959,3.122,0.959l0.468-0.245c2.855,1.278,4.698,1.918,5.532,1.918
	c0.669,0,2.668,1.204,5.999,3.612l0.981,0.491v-0.246c-0.164-0.281-0.245-0.602-0.245-0.959h0.245
	c0.759,1.115,1.479,1.673,2.164,1.673c2.393,3.228,3.591,5.071,3.591,5.531c0.803,2.32,1.285,4.402,1.449,6.245
	c-0.64,2.721-1.123,4.081-1.449,4.081v-0.49h-0.246c0,0.416-0.156,1.219-0.468,2.409c0.163,0.313,0.245,0.55,0.245,0.713
	l-0.49-0.223c0,0.609-1.361,3.732-4.082,9.367c-1.354,2.274-2.313,3.555-2.877,3.838c0,0.607-1.688,2.215-5.063,4.815
	c-0.58,2.081-2.735,3.122-6.468,3.122C114.339,217.628,113.618,217.866,113.618,218.149 M109.76,209.741
	c3.613-2.021,6.179-3.865,7.694-5.53c4.43-5.858,6.832-11.063,7.204-15.612c0-1.665-0.959-3.911-2.877-6.736
	c-1.443-1.366-2.163-2.243-2.163-2.632l-0.491,0.246c-0.029-0.134-1.146-1.1-3.346-2.899l-0.49,0.246
	c-0.803-0.477-1.36-0.715-1.673-0.715c-0.209,0.164-0.61,0.245-1.204,0.245v-0.245h-1.205c-1.189,0-2.073,0.641-2.653,1.918
	c-1.204,0-2.565,0.723-4.081,2.163c0,0.165,0.081,0.246,0.245,0.246c-0.164,1.219-0.483,2.58-0.959,4.081
	c0.326,0.045,0.49,0.201,0.49,0.469c-0.654,0.759-1.057,1.726-1.205,2.899c0.64,0,0.959,0.401,0.959,1.204
	c0.164,0,0.246,0.075,0.246,0.223c0,0.804-0.164,1.205-0.49,1.205l0.244,1.204l-0.244,1.45l0.959,1.672v0.246l-0.245,1.204h0.489
	c0,2.469,0.804,6.468,2.409,12c0.432,0.966,0.75,1.449,0.959,1.449L109.76,209.741L109.76,209.741z M120.822,203.741
	c0.252,0,0.572-0.563,0.959-1.694c0.312,0,0.468-0.319,0.468-0.959h0.491l0.491,0.246v-1.205h-0.736
	c0,0.417-0.878,1.539-2.632,3.368v0.244h0.468v-0.489h0.491V203.741z M124.658,201.579c0.639-2.527,1.36-3.814,2.163-3.858v-0.469
	h-0.468v-0.959c0.683,0,1.16-0.803,1.427-2.409h0.491v-0.245h-0.491l0.491-0.959c-0.164-0.312-0.245-0.549-0.245-0.714h-0.246
	c0,0.58-0.877,2.424-2.631,5.532l0.223,0.468v0.714l-1.673,2.654v0.245H124.658L124.658,201.579z"/>
<path fill="#FFFFFF" d="M151.109,206.865l-4.817-0.491l-0.469,0.246c-1.962-0.49-3.405-1.212-4.327-2.164
	c-2.082-1.709-3.122-2.987-3.122-3.836c0-0.147-0.164-0.795-0.491-1.939v-0.223l0.246-0.491c-0.209,0-0.685-0.639-1.428-1.918
	v-0.714c0-0.163,0.558-0.646,1.673-1.449l-0.245-1.205c2.811-2.081,4.735-3.122,5.776-3.122v0.245c0,0.64-0.565,1.918-1.695,3.836
	v0.246c0.343,0,1.228,0.238,2.654,0.713l4.082-0.468v0.245c1.07-0.163,2.11-0.408,3.122-0.736l1.673,0.246
	c2.319-0.371,5.203-1.814,8.653-4.327c0.981-0.816,1.94-2.097,2.877-3.836c0.803-0.848,1.205-1.651,1.205-2.409
	c-8.907-1.918-13.709-3.122-14.408-3.612c0,0.326-0.164,0.49-0.491,0.49c-5.635-1.353-8.914-2.632-9.835-3.837
	c-0.685,0-1.889-0.802-3.613-2.408c-0.417-0.045-1.294-1.085-2.632-3.122c-0.386,0-0.788-0.558-1.204-1.673
	c-0.639,0-0.96-0.803-0.96-2.408c0-2.678,0.796-5.004,2.388-6.981c0.966-1.635,2.088-2.996,3.367-4.081
	c0.759-0.759,1.241-1.554,1.449-2.387c2.454-1.77,3.896-2.654,4.327-2.654c3.613,0.372,6.252,1.012,7.918,1.918
	c3.688,1.963,5.531,3.808,5.531,5.531v1.918h-0.491v0.246l0.246,0.49l-1.205,0.223c-0.521,0-1.717-0.638-3.591-1.918
	c-2.766,1.131-4.446,1.934-5.04,2.409c-0.134,0.758-1.175,1.717-3.123,2.877c0,0.268-0.802,1.07-2.408,2.409
	c-0.967,1.458-1.45,2.335-1.45,2.632c3.212,1.441,8.498,2.885,15.858,4.326c6.66,1.605,10.742,3.212,12.244,4.817
	c4.816,2.395,7.226,4.23,7.226,5.509h-0.491c0-0.416-0.877-1.212-2.631-2.387h-0.491v0.224c0.729,1.963,1.852,3.248,3.368,3.858
	c0,0.208,0.401,0.929,1.204,2.163c-0.327,0.045-0.491,0.201-0.491,0.468l0.246,2.164c0,1.219-0.959,2.178-2.877,2.877
	c0,0.521-0.722,1.324-2.164,2.409c0,0.803-1.286,1.926-3.857,3.368c0,0.313-1.041,1.271-3.123,2.878
	c-0.477,0.192-0.713,0.438-0.713,0.735h-0.246l-0.468-0.246c0,1.16-1.525,2.282-4.572,3.368c0-0.491-0.164-0.735-0.491-0.735
	c-0.521,0.729-1.398,1.212-2.632,1.449l-1.449-0.246h-0.469c-0.356,0-0.677,0.082-0.959,0.246l-0.49-0.246
	c-0.283,0.164-0.602,0.246-0.959,0.246l-0.469-0.246L151.109,206.865z"/>
<path fill="#FFFFFF" d="M191.901,206.865l-4.817-0.491l-0.469,0.246c-1.962-0.49-3.405-1.212-4.327-2.164
	c-2.082-1.709-3.122-2.987-3.122-3.836c0-0.147-0.164-0.795-0.491-1.939v-0.223l0.246-0.491c-0.209,0-0.685-0.639-1.428-1.918
	v-0.714c0-0.163,0.559-0.646,1.673-1.449l-0.245-1.205c2.811-2.081,4.735-3.122,5.776-3.122v0.245c0,0.64-0.565,1.918-1.695,3.836
	v0.246c0.343,0,1.228,0.238,2.654,0.713l4.082-0.468v0.245c1.07-0.163,2.11-0.408,3.122-0.736l1.673,0.246
	c2.319-0.371,5.204-1.814,8.653-4.327c0.981-0.816,1.94-2.097,2.877-3.836c0.803-0.848,1.205-1.651,1.205-2.409
	c-8.907-1.918-13.709-3.122-14.408-3.612c0,0.326-0.164,0.49-0.491,0.49c-5.635-1.353-8.914-2.632-9.835-3.837
	c-0.685,0-1.889-0.802-3.613-2.408c-0.417-0.045-1.294-1.085-2.632-3.122c-0.386,0-0.788-0.558-1.204-1.673
	c-0.639,0-0.96-0.803-0.96-2.408c0-2.678,0.796-5.004,2.388-6.981c0.966-1.635,2.088-2.996,3.367-4.081
	c0.759-0.759,1.241-1.554,1.449-2.387c2.454-1.77,3.896-2.654,4.327-2.654c3.613,0.372,6.252,1.012,7.918,1.918
	c3.688,1.963,5.531,3.808,5.531,5.531v1.918h-0.491v0.246l0.246,0.49l-1.205,0.223c-0.521,0-1.717-0.638-3.591-1.918
	c-2.766,1.131-4.446,1.934-5.04,2.409c-0.134,0.758-1.175,1.717-3.123,2.877c0,0.268-0.802,1.07-2.408,2.409
	c-0.967,1.458-1.45,2.335-1.45,2.632c3.212,1.441,8.498,2.885,15.858,4.326c6.66,1.605,10.742,3.212,12.244,4.817
	c4.816,2.395,7.226,4.23,7.226,5.509h-0.491c0-0.416-0.877-1.212-2.631-2.387h-0.491v0.224c0.729,1.963,1.852,3.248,3.368,3.858
	c0,0.208,0.401,0.929,1.204,2.163c-0.327,0.045-0.491,0.201-0.491,0.468l0.246,2.164c0,1.219-0.959,2.178-2.877,2.877
	c0,0.521-0.722,1.324-2.164,2.409c0,0.803-1.286,1.926-3.857,3.368c0,0.313-1.041,1.271-3.123,2.878
	c-0.477,0.192-0.713,0.438-0.713,0.735h-0.246l-0.468-0.246c0,1.16-1.525,2.282-4.572,3.368c0-0.491-0.164-0.735-0.491-0.735
	c-0.521,0.729-1.398,1.212-2.632,1.449l-1.449-0.246h-0.469c-0.356,0-0.677,0.082-0.959,0.246l-0.49-0.246
	c-0.283,0.164-0.602,0.246-0.959,0.246l-0.469-0.246L191.901,206.865z"/>
<path fill="#FFFFFF" d="M224.486,210.455h-1.427c0-0.313-0.484-0.633-1.45-0.959c-2.409-2.558-3.613-9.203-3.613-19.939
	c-0.148,0-0.223-0.319-0.223-0.959c0-0.163,0.074-0.245,0.223-0.245l-0.223-1.205v-2.163c0-0.147,0.074-0.223,0.223-0.223
	c-0.148-0.312-0.223-0.558-0.223-0.736l0.223-5.754h0.245c0-0.164-0.082-0.246-0.245-0.246c0.208-2.17,0.371-3.448,0.49-3.836
	c0-0.163-0.082-0.245-0.245-0.245c0-0.162,0.081-0.4,0.245-0.714c0.164-4.044,0.246-7.248,0.246-9.611
	c0-2.617-0.32-5.985-0.959-10.104c0.698-1.278,1.419-1.918,2.163-1.918c0.922,0,1.479,0.402,1.673,1.205
	c1.174,0.267,2.215,1.07,3.122,2.408c0,0.432,0.164,0.908,0.491,1.428l0.468-0.223h0.246c0.312,2.185,0.468,3.383,0.468,3.591h0.491
	v-0.469c0.683,0,1.085,1.114,1.204,3.346c0.223,0,0.543,1.123,0.959,3.367c0.163,0,0.245,0.082,0.245,0.246
	s-0.082,0.245-0.245,0.245l0.714,5.041c-0.164,0.861-0.246,1.583-0.246,2.162v2.633c0,0.372-0.074,0.698-0.223,0.98
	c0.147,0.298,0.223,0.535,0.223,0.714c-0.579,5.918-1.056,8.876-1.427,8.876l0.244,1.695v4.327c0,0.356-0.081,0.677-0.244,0.959
	c0.163,0.283,0.244,0.602,0.244,0.959v0.246c0,0.312-0.163,0.468-0.489,0.468c0-0.163-0.082-0.245-0.246-0.245v0.245l0.491,0.714
	v0.49l-0.959,7.695l-1.204,1.918c-0.536,0-1.021,0.237-1.45,0.714c0,0.164,0.081,0.245,0.245,0.245l-0.245,2.409V210.455
	L224.486,210.455z"/>
<path fill="#FFFFFF" d="M256.402,229.189c0.146-0.298,0.223-0.535,0.223-0.714l-0.714-0.468c-0.313,0.146-0.55,0.223-0.713,0.223
	c0-0.387-0.886-0.862-2.654-1.427c-0.223-0.714-0.544-1.354-0.959-1.918l0.49-3.859c-2.156,0-5.605-5.367-10.349-16.103
	c-1.114-1.753-1.992-3.354-2.632-4.795c-0.521,0-1.005-0.804-1.45-2.408c-0.253,0-0.489-0.157-0.713-0.469l0.244-0.49v-0.246h-0.244
	v0.491c-0.209,0-0.61-0.639-1.205-1.918l0.245-1.205h0.245l0.715,0.491h0.244v-0.245c-0.49-1.189-1.213-2.148-2.163-2.877v0.468
	c0.401,0.535,0.722,1.257,0.959,2.163c-0.327,0-0.49,0.321-0.49,0.959c-0.224-0.029-0.78-0.832-1.673-2.408v-0.223l0.714,0.468
	v-0.468l-1.204-2.654v-0.714h0.245c0,0.461,0.318,1.182,0.959,2.163h0.49v-0.736c-0.327,0-0.893-0.638-1.694-1.918v0.491
	l-0.714-0.491l0.245-0.468c-0.477-1.442-0.878-2.163-1.204-2.163c-0.997-1.605-1.637-2.409-1.918-2.409
	c0-0.163-0.164-0.246-0.49-0.246c0,0.165-0.074,0.246-0.224,0.246l-0.245-1.205v-0.713c0-2.438,2.163-5.159,6.489-8.163
	c0.282,0,1.16-0.246,2.633-0.735c0.044,0.326,0.207,0.489,0.489,0.489v-0.244l-0.244-0.469c0.313,0,1.271-0.327,2.877-0.981v-0.713
	c-1.115-0.967-1.674-1.844-1.674-2.633v-0.49c0-0.297,0.722-0.854,2.164-1.672h0.224v0.468h0.489l0.715-0.468h1.203l-0.468,0.713
	v0.246h0.224c0.104,0,0.505-0.402,1.204-1.205c0.461,0,1.264,0.483,2.408,1.449c0.477,0,0.714,0.238,0.714,0.715h0.245
	c0-0.804,0.32-1.205,0.959-1.205c0,0.148,0.32,0.952,0.959,2.408l0.491-0.244h0.468c0.967,1.441,1.688,2.163,2.164,2.163
	c3.582,0,6.229,0.722,7.94,2.162c1.411,0,4.533,1.042,9.366,3.123c0,0.446,0.558,0.93,1.673,1.45c0,0.164,0.081,0.401,0.245,0.713
	l0.49-0.245c0.179,0,1.219,0.886,3.122,2.654c2.453,0,4.609,1.197,6.469,3.591c0.742,0.193,1.309,0.596,1.694,1.204
	c0,0.075-0.082,0.395-0.245,0.959c0.163,0.641,0.482,0.959,0.959,0.959v0.246c-0.313,0.282-0.714,2.446-1.204,6.49
	c-0.119,0.044-0.438,1.003-0.959,2.877l0.245,0.491c-0.477,0.639-1.115,1.918-1.919,3.836c0.164,0,0.246,0.082,0.246,0.245
	c-0.595,0-0.997,0.722-1.205,2.162c-0.208,0-0.609,0.478-1.204,1.429c-0.521,1.085-1.004,1.888-1.449,2.408h0.49v0.489
	c-0.298,0.328-0.78,1.286-1.449,2.877h-0.245v-0.488c-0.641,0.235-0.959,0.48-0.959,0.734l0.245,1.184
	c-0.937,1.439-1.576,2.163-1.918,2.163l0.245,0.489v0.245c-0.282,0.758-0.848,1.316-1.694,1.673
	c-0.862,1.592-1.421,2.395-1.673,2.408l-0.49-0.245c-0.551,1.979-1.347,3.257-2.387,3.836c-3.05,1.918-4.571,3.123-4.571,3.613
	l-0.491-0.245c-1.695,1.591-2.975,2.478-3.836,2.654c-0.313-0.164-0.552-0.245-0.714-0.245
	C257.874,229.033,257.234,229.189,256.402,229.189 M251.585,215.027c0-0.64,0.081-0.959,0.245-0.959
	c-0.164-0.313-0.245-0.558-0.245-0.734c0-8.804-1.599-20.087-4.796-33.856l-0.959-0.246c-0.208,0-1.576,0.804-4.104,2.409
	c-0.49,0-1.287,0.64-2.388,1.918c-0.209,0-0.609,0.402-1.203,1.204h-0.245v0.96l-0.246,1.427c0,0.417,0.722,2.262,2.164,5.531
	l-0.47,0.959h0.246l0.469-0.245c0,0.209,0.64,1.494,1.918,3.858l1.694,4.55c1.071,1.65,2.668,5.174,4.795,10.572l2.409,2.652
	H251.585L251.585,215.027z M262.646,211.904c1.665-1.203,4.787-4.488,9.367-9.856c0.477,0,0.714-0.249,0.714-0.746
	c0-0.499,0.722-1.529,2.163-3.09c1.799-2.913,3.158-5.479,4.082-7.694c-0.328-0.803-0.491-1.36-0.491-1.673h-0.714v1.427
	c0,0.239-0.877,0.886-2.631,1.941c-1.605,0.833-2.409,1.391-2.409,1.672h-0.245c-0.164,0-0.245-0.081-0.245-0.245
	c-0.149,0-0.224,0.082-0.224,0.245c-2.29,0-4.371-0.959-6.245-2.877c0-0.46-0.164-1.345-0.489-2.654
	c0-2.616,1.521-4.616,4.571-5.999c0-1.174-2.246-2.297-6.735-3.368c0-0.162-1.36-0.564-4.081-1.203l-2.164,0.244
	c0-0.162-0.082-0.244-0.245-0.244l-0.223,0.489v0.246c1.114,1.562,1.991,3.644,2.632,6.244h-0.246
	c0.595,1.235,1.078,3.718,1.45,7.45c0.431,0.564,0.75,3.367,0.959,8.409l-0.49-0.245c0,1.114-0.075,1.754-0.223,1.918
	c0.146,0.387,0.304,1.188,0.468,2.407c-0.164,0-0.245,0.074-0.245,0.224h0.245l0.491-0.224v0.224l-0.491,0.735
	c0.163,0.282,0.245,0.604,0.245,0.959h-0.245c0.326,0.654,0.491,1.139,0.491,1.449h-0.246l0.469,0.959
	c-0.148,0.27-0.223,0.588-0.223,0.959c0,0.478,0.236,0.715,0.713,0.715l-0.245,0.49
	C262.193,211.191,262.438,211.428,262.646,211.904 M277.3,201.801c1.101-0.773,1.821-2.208,2.163-4.304
	c0.313,0,0.706-0.968,1.183-2.9c-0.388,0-0.624-0.319-0.713-0.959h-0.246v0.736c0.164,0,0.246,0.075,0.246,0.223
	c-0.654,0-1.139,0.566-1.45,1.695l0.245,0.469c-0.952,2.2-1.428,3.405-1.428,3.613l-0.49-0.246v0.246
	C277.136,200.73,277.3,201.208,277.3,201.801"/>
<path fill="#FFFFFF" d="M294.027,212.863c-1.19,0-2.313-0.399-3.368-1.202c-0.312,0.163-0.55,0.243-0.714,0.243
	c-0.654-1.277-1.137-1.918-1.449-1.918v0.471c-0.848-0.313-1.485-0.952-1.918-1.919l-1.45-0.959c0-0.326-0.558-1.05-1.673-2.163
	c0-0.148-0.164-1.107-0.49-2.877c0-2.84,0.401-10.452,1.204-22.838v-1.183c0-0.164,0.081-0.246,0.245-0.246
	c0-0.163-0.082-0.245-0.245-0.245c0.968-11.983,1.688-18.311,2.163-18.979c0.641,0,0.959-0.319,0.959-0.959h0.246
	c0.163,0,0.245,0.082,0.245,0.245l0.468-0.245h1.205c1.682,0.714,2.802,1.353,3.368,1.918c0,0.164,0.163,0.245,0.49,0.245
	l-0.245,2.409v0.223c0.252,0,0.572,0.164,0.959,0.491c-0.328,1.605-0.491,3.048-0.491,4.327l0.491,0.713v0.246
	c0,0.922-0.082,1.479-0.245,1.672c0.163,0.878,0.245,1.599,0.245,2.164v1.448c-0.328,0.982-0.566,2.982-0.714,6l0.223,1.204
	l-0.223,1.205l0.223,0.49l-0.468,1.673c0.163,1.354,0.245,2.477,0.245,3.368c0,2.319-0.245,4-0.736,5.04l0.246,0.469v1.204
	l-0.491,0.736c0.326,0.521,0.491,0.997,0.491,1.427c0,0.328-0.083,0.491-0.246,0.491l0.491,4.55h-0.245l0.245,0.491v1.449h0.245
	c7.048-3.375,13.293-6.898,18.734-10.571h0.469l0.49,0.223v-0.223c-0.163,0-0.245-0.082-0.245-0.246l2.652-1.672v0.223
	c-1.44,1.011-2.162,1.814-2.162,2.408h-0.49l-0.469-0.245l0.224,0.491v0.245c-0.388,0-1.108,0.394-2.163,1.182
	c-1.755,0.923-2.952,1.808-3.591,2.654v0.245c1.174-0.163,2.452-0.564,3.836-1.204c0-0.326,0.563-0.729,1.694-1.204
	c2.543-1.457,4.942-3.219,7.203-5.286h0.225c-0.58,1.279-1.058,1.918-1.428,1.918l0.244,0.491v0.959
	c-0.282,0.713-0.93,1.435-1.938,2.163c0,0.401-0.396,0.64-1.184,0.714v1.449h0.714c-0.237,0.64-0.878,1.279-1.918,1.919
	c0,0.476-1.441,1.836-4.326,4.081c-0.49,0-1.213,0.64-2.163,1.918c-0.566,0.58-1.45,1.146-2.654,1.693
	c0,0.357-0.32,0.832-0.959,1.429c0,0.445-1.918,1.167-5.754,2.164C296.956,212.462,295.514,212.863,294.027,212.863
	 M286.823,180.903l0.245-1.203h-0.245l0.245-0.47v-1.672h-0.49v1.427c0,0.164,0.081,0.245,0.245,0.245l-0.245,0.47v1.203H286.823z"
	/>
<path fill="#FFFFFF" d="M339.971,216.7l-7.448-2.633c-0.313,0.163-0.559,0.245-0.736,0.245c-3.019-2.007-5.575-4.974-7.672-8.897
	c0-0.416-0.483-0.975-1.45-1.673c-0.193,0-0.513-0.564-0.959-1.695c-0.698,0-1.182-0.639-1.449-1.918
	c0-0.535-0.074-0.938-0.224-1.204c1.115-4.133,1.673-7.018,1.673-8.654c-0.967,0-2.729-1.598-5.285-4.795v-2.877
	c0-0.356-0.081-0.676-0.245-0.959c0.49-1.323,1.131-2.684,1.918-4.081c0-0.401,1.368-1.286,4.104-2.655
	c3.999-0.728,5.999-1.604,5.999-2.631c0.238,0,0.959-1.123,2.164-3.368c1.813-2.244,3.256-3.367,4.326-3.367h1.182
	c0.402,0.328,0.729,0.49,0.982,0.49v0.469c0,0.164-0.082,0.246-0.246,0.246l0.246,0.468c-0.686,0.58-1.487,1.784-2.409,3.613
	c0.163,0,0.245,0.082,0.245,0.244c0.164,0,2.319-0.4,6.468-1.203l-0.223-0.491v-0.224c0.535,0,0.937-0.081,1.204-0.244
	c0.298,0.163,0.535,0.244,0.714,0.244c0-0.608,4.803-1.412,14.407-2.407c1.101,0,2.06-0.082,2.877-0.246
	c1.294,0.223,1.94,0.461,1.94,0.714l0.468-0.224h0.96v0.715c-0.401,0-1.041,0.082-1.919,0.244l-0.49-0.244
	c-8.713,1.114-15.358,2.312-19.938,3.59c0,0.209-0.319,0.372-0.959,0.491v-0.491c-0.58,0-1.539,0.401-2.877,1.205
	c-0.433,0.327-1.473,0.571-3.122,0.735v0.469c0.4,0,1.122-0.156,2.163-0.469v0.224c0.313-0.148,0.55-0.224,0.714-0.224
	c0.313,0.149,0.558,0.224,0.736,0.224l-0.245-0.47h0.713v0.47h0.246v-0.47c0.163,0,0.245,0.082,0.245,0.246
	c1.648-0.49,2.771-0.892,3.367-1.205v0.715c0.313,0,0.469-0.156,0.469-0.469c-0.164,0-0.245-0.081-0.245-0.246l1.204-0.244h0.245
	c0.313,0.045,0.469,0.209,0.469,0.49h-0.959v0.224c0.803,0,1.204-0.074,1.204-0.224v-0.735h0.49
	c0.387,0.327,0.705,0.489,0.959,0.489l2.163-0.735v0.246l0.47-0.246l0.735,0.491c0-0.163,0.073-0.245,0.224-0.245
	c0,0.164,0.081,0.245,0.245,0.245c0.059-0.326,0.223-0.491,0.49-0.491h0.244v0.491h0.225v-0.715h0.734v0.224h-0.49l0.246,0.491
	c0.191-0.119,1.314-0.282,3.366-0.491v0.246c0.313-0.313,1.754-0.551,4.327-0.714c0,0.595-1.123,1.234-3.368,1.918v0.49
	c0.804,0,1.205,0.156,1.205,0.469c-1.025,0-2.313,0.565-3.857,1.694c-0.699,0-1.576,0.395-2.632,1.183
	c-3.523,0.803-5.286,1.524-5.286,2.164c-5.754,1.293-10.236,3.055-13.448,5.284c0.146,0.894,0.223,1.539,0.223,1.941
	c-1.114,0.253-1.673,0.647-1.673,1.182l-1.204-0.469c0,0.714-0.082,1.191-0.245,1.428h0.49v-0.714h0.714l-0.468,4.327h5.508
	c3.672-0.608,10.081-3.813,19.227-9.613c2.93-2.243,4.771-3.366,5.53-3.366h0.469c0,0.326,0.163,0.489,0.49,0.489v0.47l-1.449,0.244
	c0.162,0.313,0.244,0.559,0.244,0.736c-0.372,1.31-1.73,2.587-4.081,3.836c-0.163,0.283-0.244,0.603-0.244,0.959h-0.245l-0.47-0.245
	c0,0.224-0.482,0.469-1.448,0.736c0,0.372-0.559,0.766-1.673,1.182c0,0.209-0.565,0.528-1.694,0.959l-0.47-0.223v0.223
	c0.163,0,0.246,0.082,0.246,0.245c-0.597,0.521-2.282,1.16-5.063,1.918l0.245,0.491l-0.714,0.959v0.245l1.204,0.246h0.245
	c0.832-0.61,2.513-1.413,5.041-2.409c0.325-0.52,1.604-1.004,3.836-1.45c0.179-0.431,1.063-0.987,2.653-1.673v0.469
	c-0.803,0.773-1.287,1.494-1.45,2.163c-1.813,1.131-3.256,2.253-4.326,3.368v0.245h0.246c0.786,0,1.909-0.557,3.366-1.672h0.714
	c-0.073,0.312-1.353,1.271-3.836,2.877v0.245c0.313,0.045,0.469,0.201,0.469,0.468c-1.102,0.417-2.061,1.22-2.877,2.409
	c-0.237,0-2.237,0.959-5.999,2.877c-2.245,0.64-3.367,1.441-3.367,2.409l-5.531,1.673v-0.246l-3.368,1.205h-0.468
	c0.743,1.44,1.784,2.163,3.122,2.163h3.122c5.501-0.641,10.542-2.081,15.122-4.327c2.542-1.218,5.188-3.301,7.938-6.245
	c2.559-3.196,3.917-5.516,4.081-6.958v-1.204h0.491c0,0.268,0.475,0.669,1.427,1.204c0.27,0.967,0.505,1.45,0.714,1.45
	c-0.119,1.754-0.274,2.631-0.468,2.631l0.245,0.491v0.223c-0.685,1.354-1.725,2.558-3.122,3.613
	c-0.819,1.369-2.424,2.729-4.817,4.082v0.49h-0.245l-0.47-0.245c0,0.268-0.236,0.669-0.713,1.204c0.148,0,0.224,0.073,0.224,0.223
	c-1.132,0.64-1.852,0.959-2.163,0.959v0.736c0.179,0,0.424,0.082,0.734,0.244c0-0.52,1.519-1.485,4.551-2.898
	c0-0.313,0.885-1.107,2.653-2.386c0-0.313,0.803-1.354,2.409-3.124l0.468-1.204h0.491v0.223c0,0.863-0.32,1.666-0.959,2.409
	c0,0.357,0.074,0.677,0.223,0.959c-1.441,2.84-2.558,4.683-3.345,5.531c0.313,0,0.468,0.082,0.468,0.245l1.204-0.736h0.246v0.491
	c-0.477,0-2.001,1.204-4.573,3.611v0.225l0.491-0.225c0.313,0.045,0.469,0.201,0.469,0.47c-1.294,0.268-2.417,1.069-3.368,2.407
	c-2.885,1.115-5.604,1.992-8.161,2.634c-0.686,1.294-3.005,1.938-6.959,1.938C341.89,216.625,341.251,216.7,339.971,216.7
	 M354.38,170.823h-0.245c-0.878-0.163-1.518-0.245-1.918-0.245c0.044-0.313,0.2-0.47,0.469-0.47h0.245
	c0.163,0,0.245,0.075,0.245,0.224c1.53-0.787,2.571-1.183,3.122-1.183v0.224l0.49-0.224h1.183c0,0.521-0.878,0.915-2.632,1.183
	l-0.49-0.224h-0.714v0.224L354.38,170.823z"/>
<path fill="#FFFFFF" d="M101.337,275.256l-0.233,0.003c-1.28-0.864-2.828-1.689-4.646-2.475c-0.877-1.652-1.423-2.484-1.637-2.495
	l-0.469,0.006l0.007,0.47l-0.449,0.006c-1.318-1.66-2.278-4.643-2.88-8.945l-2.036-14.21l0.2-0.922
	c-0.31-0.776-0.466-1.315-0.471-1.615c-0.001-0.128,0.067-0.739,0.209-1.839c-0.026-1.892-0.901-3.872-2.624-5.939
	c-0.008-0.483-1.037-2.847-3.09-7.086c-0.328-1.234-0.496-2-0.502-2.299l-0.013-0.918c0.945-0.625,1.631-0.94,2.059-0.946
	l-0.197,1.155l0.676-0.479l0.683-0.01l-0.228,0.473c0.06,0.299,0.22,0.445,0.476,0.442l0.234-0.004l0.677-0.457l0.235-0.004
	c0.004,0.299,0.084,0.446,0.241,0.443c0.455-0.006,0.68-0.235,0.673-0.69l1.152-0.019c0.616,0.307,0.928,0.687,0.935,1.142
	l0.676-0.479c0.498,0.035,1.438,1.481,2.815,4.336c0.397-0.005,0.869,0.602,1.413,1.816c0.941,1.182,1.895,3.702,2.86,7.559
	c0.174,1.251,0.341,2.011,0.502,2.277l-0.212,1.626c0.394,3.666,0.726,5.497,0.995,5.493l0.023,1.622
	c0.012,0.841-0.052,1.916-0.189,3.227l0.241,0.445l-0.229,0.472c0.16,0.27,0.243,0.573,0.247,0.915l-0.233,0.003
	c0.324,0.836,0.664,2.745,1.02,5.729l0.213-0.004c1.285-1.727,2.403-4.195,3.354-7.411c1.576-3.296,2.757-6.302,3.544-9.018
	l-0.241-0.443c1.043-2.732,1.852-5.505,2.423-8.317l0.448-0.006l-0.229-1.15c0.44-1.072,0.717-3.146,0.83-6.223
	c-0.189-2.346-0.448-4.029-0.775-5.049l-0.032-2.283c0.598-0.935,1.133-1.404,1.602-1.411l0.452,0.229
	c0.242-0.004,0.854-0.475,1.837-1.413c0.215-0.004,0.444,0.222,0.693,0.674l0.013,0.938l-0.219,1.134l1.156,0.22
	c0.389-0.617,0.769-0.93,1.14-0.935c0.156-0.002,0.232-0.152,0.229-0.452l0.447-0.006c0.008,0.456,0.166,0.682,0.48,0.677
	l0.042,2.987c0.011,0.77,0.243,1.149,0.699,1.144l0.022,1.601c0.002,0.157-0.076,0.236-0.231,0.238
	c0.319,0.494,0.481,0.876,0.485,1.146l0.445-0.24l2.979,14.452c0.002,0.143-0.076,0.215-0.232,0.217
	c0.496,2.91,0.823,4.364,0.98,4.362l0.233-0.004l-0.228,0.474l0.031,2.283c0.461,0.378,0.693,0.682,0.696,0.907l0.235-0.003
	c-0.021-1.408,0.353-2.253,1.117-2.534l-0.241-0.467c0.882-3.044,2.262-8.577,4.142-16.603l0.234-0.003l0.007,0.447
	c0.004,0.271-0.147,0.735-0.45,1.395c0.16,0.297,0.242,0.522,0.244,0.68l-0.228,0.474l0.24,0.443
	c-0.152,0.302-0.227,0.537-0.225,0.708l0.473,0.207l0.448-0.006c-0.009-0.611,0.143-0.92,0.457-0.925l0.213-0.003l-0.22-0.445
	c-0.01-0.769,0.134-1.154,0.432-1.159l-0.241-0.466l0.457-0.924c-0.161-0.297-0.242-0.522-0.244-0.681
	c0.155-0.002,0.458-0.313,0.904-0.932l-0.241-0.466c0.336-2.452,0.702-3.682,1.101-3.688l-0.009-0.684l-0.233-1.385
	c0.128-0.926,0.271-1.392,0.428-1.394c0.302,0.152,0.529,0.228,0.688,0.226l-0.22-0.445l0.918-0.013
	c0.008,0.584-0.56,3.807-1.7,9.673l-0.235,0.003c0.003,0.157,0.081,0.234,0.238,0.231l-0.218,1.155l0.01,0.684l0.448-0.006
	c0.155-0.003,0.386-0.313,0.69-0.93l-0.241-0.466c0.44-1.073,0.657-1.837,0.651-2.293l0.234-0.004l0.45,0.208
	c0.247-1.683,0.549-2.526,0.904-2.532l-0.241-0.466c0.29-0.616,0.654-2.073,1.092-4.371l0.45,0.229
	c-0.002-0.129,0.07-0.592,0.216-1.393l0.47-0.006l0.229,1.149l-0.447,0.006l0.034,2.519l-0.218,1.156l0.469-0.007
	c-0.005-0.355,0.366-0.745,1.115-1.168l0.003,0.233c-1.112,7.871-1.666,12.021-1.66,12.447l0.471-0.007l0.221-0.921l0.214-0.003
	l0.003,0.214c0.009,0.612-0.56,3.688-1.706,9.224l0.036,2.54c-1.162,4.431-2.788,8.742-4.877,12.941
	c0.013,0.926-0.427,2.006-1.32,3.243c-1.233,0.302-1.848,0.694-1.841,1.178l-0.447,0.007l-0.712-0.46l-0.447,0.006l0.006,0.471
	l0.449-0.006l0.003,0.213l-0.684,0.011c-0.004-0.299-0.314-0.603-0.931-0.905l-0.003-0.234l-0.448,0.006l0.006,0.471l-0.234,0.003
	c-0.732-0.474-1.283-1.156-1.651-2.047l-0.445,0.24l-0.683,0.011c-0.257-0.097-0.895-1.313-1.908-3.646
	c-1.85-0.97-2.785-2.188-2.806-3.652c-0.598,0.009-1.564-3.429-2.899-10.313l-0.47,0.006c-0.151,1.384-0.448,2.077-0.888,2.084
	l0.006,0.47c-0.425,2.154-1.302,5.078-2.63,8.769l-0.446,1.629l0.472,0.207c0.028,1.979-1.311,4.914-4.017,8.81l0.241,0.444
	c-0.439,1.159-0.971,1.856-1.594,2.094c0.009,0.567-0.821,1.271-2.488,2.105l-0.684,0.009L101.337,275.256z M106.149,257.705
	c-0.008-0.583,0.429-1.893,1.311-3.926l-0.003-0.233c-0.161-0.282-0.242-0.51-0.245-0.681c0.913-0.853,1.366-1.549,1.358-2.091
	l-0.251-1.147c-0.441,0.006-1.178,1.781-2.209,5.325c-0.157,0.002-0.233,0.081-0.231,0.237l0.241,0.444l-0.685,1.397l0.01,0.684
	L106.149,257.705z M109.056,251.921c0.824-0.012,1.34-1.321,1.546-3.929c0.506-0.42,0.944-2.033,1.318-4.844
	c0.3-0.004,0.443-0.391,0.433-1.158c-0.024-1.692-0.265-2.537-0.72-2.529l0.008,0.469l-0.235,0.004l-0.01-0.683l0.229-0.475
	l-0.234,0.003c0.002,0.157-0.075,0.236-0.232,0.238c-0.002-0.156-0.075-0.233-0.216-0.231l0.22,0.468l0.003,0.213l-0.449,0.007
	l0.005,0.235l0.251,1.147l-0.474-0.228c-0.438,1.188-0.879,2.802-1.318,4.843c-0.344,0.93-0.643,1.396-0.899,1.4l0.01,0.683
	l0.47-0.007l-0.007-0.448l0.449-0.006c0.003,0.229,0.242,0.53,0.717,0.908c0.006,0.455-0.142,1.067-0.443,1.842
	c0.155-0.003,0.235,0.075,0.237,0.23c-0.456,0.008-0.681,0.158-0.676,0.458L109.056,251.921z M111.377,237.863l-0.01-0.683
	l-0.448,0.007l0.182-2.308l-0.008-0.471l-0.213,0.003c-0.138,1.341-0.357,2.417-0.658,3.232L111.377,237.863z M119.509,227.16
	l-0.47,0.008l-0.025-1.836l-0.214,0.004l-0.222,0.921l-0.47,0.006l-0.003-0.213c0.058-1.993,0.2-2.992,0.428-2.995
	c0.071-0.001,0.375-0.083,0.914-0.248L119.509,227.16z M131.691,243.319l0.222-0.921c-0.117-1.222-0.282-1.832-0.496-1.829
	l0.229-0.473l-0.003-0.213c-0.005-0.313-0.164-0.467-0.478-0.463l0.004,0.233c0.171,1.053,0.262,1.891,0.271,2.517l-0.229,0.473
	c0.16,0.296,0.242,0.523,0.244,0.68L131.691,243.319z M132.568,223.774l-0.235,0.003l-0.003-0.232
	c0.32-1.542,0.771-2.317,1.355-2.325l-0.241-0.445c0.667-3.14,1.472-5.527,2.417-7.164l0.47-0.007l0.003,0.235
	c-0.893,2.273-1.335,3.731-1.326,4.374l-0.45-0.229l0.003,0.235l0.242,0.466c-0.304,0.773-0.451,1.31-0.447,1.608l-0.474-0.229
	l0.241,0.467c-0.105,0.613-0.251,0.922-0.435,0.925c0.002,0.156,0.074,0.232,0.217,0.23l-0.423,1.842l-0.473-0.228
	C133.014,223.611,132.867,223.77,132.568,223.774"/>
<path fill="#FFFFFF" d="M145.208,272.332l-1.366,0.02c-0.004-0.3-0.471-0.599-1.399-0.897c-2.34-2.414-3.582-8.759-3.728-19.032
	c-0.143,0.002-0.218-0.302-0.226-0.915c-0.003-0.155,0.067-0.234,0.21-0.236l-0.229-1.149l-0.029-2.07
	c-0.002-0.142,0.067-0.215,0.21-0.217c-0.147-0.296-0.221-0.53-0.223-0.701l0.136-5.509l0.233-0.004
	c-0.002-0.156-0.081-0.233-0.237-0.231c0.17-2.079,0.309-3.306,0.418-3.678c-0.002-0.156-0.082-0.232-0.238-0.23
	c-0.002-0.156,0.072-0.387,0.225-0.688c0.103-3.872,0.138-6.938,0.105-9.202c-0.035-2.504-0.387-5.722-1.054-9.654
	c0.65-1.232,1.332-1.854,2.044-1.865c0.882-0.012,1.421,0.364,1.616,1.131c1.128,0.239,2.136,0.994,3.021,2.263
	c0.006,0.413,0.168,0.866,0.489,1.359l0.444-0.221l0.235-0.003c0.328,2.088,0.494,3.23,0.496,3.43l0.47-0.007l-0.006-0.447
	c0.653-0.01,1.053,1.053,1.197,3.185c0.214-0.003,0.534,1.068,0.963,3.21c0.157-0.002,0.236,0.076,0.239,0.232
	c0.002,0.156-0.076,0.235-0.232,0.237l0.751,4.813c-0.145,0.828-0.213,1.519-0.205,2.073l0.035,2.519
	c0.005,0.356-0.062,0.67-0.2,0.942c0.146,0.282,0.222,0.509,0.224,0.68c-0.476,5.671-0.892,8.51-1.246,8.515l0.258,1.618
	l0.058,4.142c0.005,0.342-0.068,0.647-0.222,0.921c0.16,0.269,0.243,0.572,0.248,0.915l0.003,0.233
	c0.004,0.299-0.151,0.45-0.463,0.455c-0.002-0.156-0.082-0.233-0.238-0.23l0.003,0.233l0.479,0.677l0.007,0.47l-0.814,7.377
	l-1.127,1.852c-0.512,0.008-0.971,0.241-1.377,0.702c0.002,0.157,0.081,0.234,0.238,0.231l-0.202,2.309L145.208,272.332z"/>
<path fill="#FFFFFF" d="M180.144,265.627l-0.214,0.003c-0.313,0.004-0.472-0.145-0.477-0.442l-0.466,0.241l-1.366,0.021
	c-1.835,0.025-2.76-0.424-2.772-1.35c-0.313,0.005-0.472-0.148-0.477-0.463l-0.009-0.684l0.472,0.229l0.684-0.01
	c1.677-0.123,2.507-0.903,2.485-2.341l-0.132-9.412c-0.021-1.422-0.12-3.414-0.298-5.975c0.138-0.271,0.205-0.586,0.2-0.94
	c-0.151-0.567-0.232-1.291-0.244-2.174c-0.003-0.229,0.066-0.345,0.208-0.347c-0.002-0.155-0.075-0.231-0.216-0.229l0.197-1.156
	l-0.007-0.448c-0.028-1.991-0.271-2.983-0.726-2.979c-3.165,1.639-5.296,2.893-6.393,3.762c-4.571,2.84-7.219,5.411-7.94,7.712
	c-1.094,1.083-2.312,1.634-3.648,1.653l-0.45-0.229c-1.234,0.359-1.846,0.909-1.834,1.648c0.025,1.879,0.894,3.396,2.604,4.553
	l0.471,1.596l-0.676,0.479l-0.449,0.006c-2.595-1.386-3.989-2.363-4.182-2.929c-2.638-2.325-4.211-4.907-4.721-7.747
	c-0.06-4.227,3.403-8.878,10.392-13.958c3.849-2.544,7.801-4.82,11.858-6.828c2.742-1.305,4.111-2.093,4.107-2.363l-0.003-0.214
	l-0.479-0.697c0.151-0.301,0.228-0.528,0.225-0.687c-0.313,0.005-0.472-0.22-0.479-0.676c0.121-0.528,0.575-0.997,1.367-1.407
	l0.471-0.007c0.753-0.011,1.448,0.363,2.086,1.124l0.444-0.241l0.684-0.01c0.006,0.427,0.629,0.725,1.87,0.892
	c0.254-0.16,0.558-0.243,0.914-0.248l-0.691,0.928l0.003,0.234l2.976-0.96c0.301,0.153,0.536,0.229,0.708,0.226
	c-0.006-0.342,1.519-0.747,4.571-1.218c1.986-0.439,2.978-0.839,2.973-1.194c0.171-0.002,0.398,0.072,0.686,0.226
	c0.342-0.004,1.569-0.249,3.683-0.735l-0.24-0.466l-0.004-0.234l0.473,0.229l0.445-0.241l1.155,0.22l0.229-0.452l1.156,0.196
	l0.918-0.012l-0.008-0.449l0.449-0.006l0.006,0.448l0.471-0.006c1.294-0.021,2.899-0.191,4.816-0.519l0.474,0.229l1.127-0.25
	l0.705-0.011l0.003,0.234l-0.918,0.014l0.003,0.213c0.696-0.011,1.155,0.219,1.376,0.686l0.466-0.241l0.449-0.007
	c0.313,0.039,0.472,0.187,0.476,0.442l-0.47,0.006c0.004,0.271,1.699,0.866,5.085,1.786l0.241,0.443l-0.449,0.007
	c-0.341,0.006-1.189-0.062-2.543-0.198c-0.269,0.161-0.573,0.242-0.914,0.248l-0.006-0.448l-1.153,0.016l0.003,0.214l0.471-0.007
	l0.009,0.704l-0.47,0.007l-2.308-0.201c0.004,0.299-0.143,0.449-0.442,0.454c-0.156,0.002-0.235-0.066-0.237-0.211
	c-1.892,0.17-3.268,0.494-4.128,0.978l-0.451-0.229c-2.298,0.545-3.445,0.945-3.442,1.201l0.235-0.003
	c4.106-0.371,7.17-0.721,9.186-1.048c0.005,0.342-0.917,0.583-2.765,0.722l0.242,0.467l0.003,0.214
	c-1.552,0.021-5.522,1.073-11.91,3.156c-1.423,1.104-2.488,1.736-3.197,1.902l-0.451-0.229c-1.07,0.783-2.901,1.649-5.492,2.598
	l-0.229,0.473c0.188,2.146,0.291,3.981,0.313,5.503l0.251,1.149l-0.235,0.004l0.241,0.466l0.003,0.235
	c0.003,0.142-0.075,0.214-0.231,0.216l0.241,0.466l0.003,0.235c-0.61,0.081-0.913,0.312-0.908,0.695l0.462,0.911
	c-0.152,2.309-0.364,3.464-0.635,3.468l0.241,0.444l0.063,4.375c0.002,0.157-0.075,0.236-0.231,0.238l0.241,0.445
	c-0.306,0.616-0.529,0.925-0.67,0.927c0.146,0.297,0.221,0.531,0.223,0.702c-0.422,2.41-0.621,4.405-0.599,5.983l0.007,0.449
	c-0.538,1.232-1.142,1.853-1.811,1.861l0.021,1.387c-0.555,0.008-0.932,0.547-1.13,1.617
	C181.192,265.306,180.428,265.624,180.144,265.627 M158.62,239.502c-0.006-0.428,2.802-2.615,8.425-6.565l0.235-0.004l0.451,0.229
	c0.149-0.458,0.303-0.688,0.46-0.689c0.301,0.138,0.529,0.206,0.686,0.204c0.081-0.328,2.666-1.667,7.756-4.017l-0.003-0.234
	l-0.235-1.599c-0.399,0.007-0.937,0.241-1.612,0.706l-2.071,0.028l-0.45-0.207c0.007,0.484-0.604,1.105-1.831,1.862l0.004,0.234
	l-0.452-0.229c0.005,0.355-1.137,1.134-3.425,2.333l-3.87,2.595c-2.06,1.367-3.346,2.538-3.857,3.513
	c-0.612,0.01-0.91,0.548-0.895,1.613C158.104,239.275,158.333,239.35,158.62,239.502 M186.012,224.621
	c0.227-0.003,1.142-0.242,2.743-0.723l0.003,0.235l0.911-0.483l0.474,0.229c1.058-0.627,1.821-0.944,2.292-0.951l0.683-0.009
	l-0.01-0.705l0.683-0.009l0.474,0.228c0.038-0.3,0.186-0.451,0.441-0.455l1.155,0.198l0.912-0.462l1.39,0.216
	c-0.003-0.257,0.527-0.499,1.591-0.728l-0.003-0.215l-0.451-0.228l-0.697,0.458c-1.019-0.441-1.711-0.659-2.08-0.654l-0.214,0.003
	l0.013,0.918c-0.516-0.292-0.981-0.435-1.393-0.429l0.006,0.448l-0.474-0.229l-0.447,0.008c-0.62,0.465-1.464,0.711-2.53,0.739
	l-0.452-0.229c-0.609,0.166-1.142,0.251-1.597,0.258l0.003,0.213l0.683-0.009l0.01,0.704c0.004,0.299-0.15,0.449-0.463,0.455
	c-0.009-0.612-0.319-0.914-0.931-0.905c-0.153,0.301-0.228,0.53-0.225,0.686l-0.448,0.007l-0.007-0.447l-1.152,0.017l0.003,0.234
	l0.251,1.148l-1.156-0.219l-0.228,0.452l0.003,0.234L186.012,224.621z"/>
<path fill="#FFFFFF" d="M216.157,277.778l-0.924-0.436c-0.296,0.146-0.53,0.221-0.701,0.224l-0.921-0.2
	c-0.296,0.146-0.523,0.221-0.68,0.223c-0.006-0.397-0.552-0.695-1.636-0.895c-0.354-0.893-0.977-1.646-1.866-2.258
	c-0.936-1.639-1.657-3.927-2.168-6.865l0.228-0.473c-0.161-0.297-0.242-0.521-0.244-0.68l0.235-0.004
	c-0.278-0.494-0.614-2.639-1.009-6.433l0.234-0.004c-0.299-0.92-1.168-8.108-2.609-21.565c-0.157,0.002-0.402-1.226-0.735-3.684
	c-0.002-0.155,0.072-0.385,0.225-0.687c-0.022-1.593-0.973-3.345-2.849-5.254c-0.002-0.1-0.401-1.169-1.198-3.207
	c0.161-0.686,0.694-1.227,1.6-1.623l0.234-0.004l0.006,0.447c1.077-0.313,1.688-0.472,1.829-0.474l0.235-0.004l0.02,1.388
	l0.448-0.006l-0.229,0.452l0.004,0.233c0.312-0.004,0.47,0.071,0.473,0.229l1.819-1.179l0.234-0.003l0.003,0.234
	c-0.152,0.287-0.228,0.516-0.225,0.687c0.156-0.002,0.236,0.075,0.238,0.23c0.297-0.159,0.522-0.241,0.68-0.243
	c1.338,0.065,2.735,1.271,4.192,3.611c0.014,1.011,0.568,2.54,1.666,4.588c1.219,9.816,1.836,15.173,1.849,16.07l0.235-0.005
	c3.479-0.519,6.079-0.79,7.801-0.813l0.918-0.013c1.38-0.02,2.058-0.868,2.034-2.549l0.234-0.003l-0.241-0.466l-0.004-0.215
	c0.77-0.011,1.473-4.624,2.11-13.841c-0.313,0.004-0.471-0.144-0.477-0.441l-0.02-1.388c0.825-0.012,1.434-0.247,1.826-0.709
	l0.469-0.007l0.23,1.149c-0.145,0.002-0.213,0.075-0.21,0.217l0.45,0.229c-0.002-0.155,0.073-0.235,0.231-0.237l-0.242-0.444
	l-0.003-0.235c1.01-0.014,1.616-0.484,1.816-1.412l0.47-0.008c0.002,0.171,0.083,0.405,0.244,0.701l0.444-0.241l0.234-0.003
	c0.007,0.513,0.09,0.896,0.251,1.148l0.445-0.24c0.313,0.038,0.472,0.192,0.476,0.463l0.003,0.213l-0.469,0.008l0.003,0.234
	l0.704-0.011l0.207-0.45c-0.146-0.297-0.221-0.531-0.223-0.702l0.447-0.006c0.937,0.798,1.408,1.481,1.417,2.051l0.684-0.01
	l0.466-0.241l-0.241-0.444c0.038-0.313,0.187-0.474,0.441-0.477c1.138-0.017,1.761,0.21,1.867,0.678l0.006,0.448
	c0.005,0.313-0.229,0.474-0.697,0.479c0.634,1.585,0.954,2.577,0.96,2.976c-0.712,3.056-1.035,6.888-0.969,11.498l0.451,0.229
	c-0.002-0.157,0.073-0.236,0.229-0.238c0.005,0.313,0.085,0.469,0.242,0.467l0.911-0.483l0.003,0.235
	c0.007,0.456-0.602,0.771-1.822,0.943l0.021,1.388l1.601-0.021l2.979-0.727c0.002,0.144,0.081,0.213,0.237,0.21
	c-0.004-0.298,0.604-0.534,1.826-0.708l0.003,0.233c0.003,0.2-0.985,0.748-2.965,1.644c0.009,0.611-1.362,1.321-4.11,2.129
	l0.006,0.471l1.148-0.252c0.157-0.002,0.236,0.075,0.239,0.231c0.296-0.16,0.521-0.242,0.679-0.244l0.471-0.007l0.003,0.234
	c-1.848,0.254-2.768,0.571-2.763,0.957c0.008,0.455-0.067,0.685-0.225,0.687l0.241,0.466c-0.28,1.3-0.419,2.063-0.416,2.29
	l0.232,1.385c0.021,1.408-0.387,4.938-1.217,10.585l-0.47,0.006l-0.007-0.448l-0.213,0.004l0.042,2.987l-0.705,0.011l-0.928-0.671
	c0.004,0.257-0.371,0.951-1.123,2.086c0.023,1.637-0.42,2.561-1.326,2.773c0.007,0.454-0.76,0.693-2.297,0.715l-0.233,0.004
	c-0.007-0.456-0.237-0.681-0.692-0.674l-0.234,0.004l-0.025-1.836c-0.005-0.355-0.088-0.66-0.248-0.914
	c-0.002-0.157,0.075-0.235,0.231-0.237c-0.005-0.314-0.085-0.47-0.241-0.468c0.271-5.822,0.539-8.737,0.795-8.742l-0.221-0.466
	c0.283-1.058,0.42-1.978,0.408-2.76l-0.024-1.836l0.219-1.155c-0.375-0.294-0.684-0.438-0.924-0.436
	c-2.257,0.487-3.787,0.886-4.595,1.196l0.02,1.387c-0.397,0.006-0.92,0.859-1.564,2.563l-2.006,4.618
	c-0.297,0.162-0.522,0.242-0.68,0.245l0.026,1.835c0.005,0.369-0.369,1.064-1.123,2.087c0.013,0.909-0.139,1.367-0.451,1.372
	l0.242,0.467c-1.206,1.326-1.807,2.104-1.803,2.331l0.016,1.151l0.241,0.445C216.55,276.854,216.248,277.164,216.157,277.778
	 M215.552,268.137c0.896-1.009,2.546-3.565,4.95-7.67c-0.002-0.142,0.075-0.215,0.232-0.217l0.009,0.684l0.449-0.006
	c-0.011-0.642,0.136-1.411,0.437-2.313l-0.234,0.004l0.003,0.234c-0.156,0.002-0.235-0.074-0.237-0.23
	c-2.505,0.961-3.95,1.442-4.334,1.447c-1.046-0.439-1.661-0.658-1.846-0.656l0.01,0.684c0.005,0.342,0.08,0.646,0.226,0.915
	c0.004,0.156-0.067,0.235-0.21,0.237C215.158,261.945,215.34,264.241,215.552,268.137 M220.793,264.37
	c-0.007-0.497,0.512-1.572,1.556-3.225l1.119-2.32l-0.006-0.471l-0.234,0.004c-0.869,0.994-1.541,2.235-2.019,3.722
	c-0.1,0.002-0.399,0.391-0.901,1.166l0.017,1.131L220.793,264.37z M226.79,249.128c0.692-2.329,1.209-3.566,1.548-3.715
	c-0.165-0.608-0.399-1.14-0.705-1.591l0.438-0.689l-0.214,0.004c-0.256,0.003-0.563,0.541-0.916,1.613l0.252,1.148
	c-0.064,0.613-0.286,0.922-0.671,0.928l0.004,0.234l0.24,0.444l-0.471,0.008l0.018,1.151
	C226.374,248.979,226.534,249.132,226.79,249.128 M231.225,269.987c0.282-1.156,0.423-1.85,0.419-2.076
	c-0.002-0.157-0.081-0.233-0.237-0.23l0.219-1.156l-0.036-2.52l-0.273-2.771l0.234-0.003l-0.24-0.444l-0.021-1.602
	c-0.003-0.156,0.074-0.235,0.23-0.238c-0.16-0.196-0.245-0.735-0.258-1.618c-0.299,0.063-0.445,0.22-0.44,0.477l0.021,1.601
	c0.014,0.884-0.058,1.425-0.212,1.625c0.168,0.824,0.258,1.513,0.265,2.067l0.099,6.895L231.225,269.987z M232.797,267.894
	c0.37-0.005,0.587-0.776,0.65-2.314c-0.146-0.296-0.221-0.522-0.224-0.681l0.448-0.006l-0.013-0.918
	c-0.005-0.313-0.156-0.468-0.455-0.463l0.197-1.155l-0.032-2.283c-0.002-0.156,0.074-0.236,0.23-0.238l-0.24-0.467
	c-0.003-0.156,0.071-0.386,0.225-0.687l-0.478-2.063c0.142-0.002,0.213-0.08,0.211-0.238l-0.449,0.008l0.022,1.621
	c0.005,0.342-0.068,0.649-0.222,0.922c0.002,0.156,0.081,0.233,0.238,0.23l-0.22,1.135l0.007,0.47l0.258,1.598l-0.235,0.004
	l0.241,0.466l0.007,0.449c0.005,0.313-0.15,0.471-0.463,0.476c0.319,0.494,0.483,0.954,0.489,1.381l0.016,1.132L232.797,267.894z"/>
<path fill="#FFFFFF" d="M293.344,288.474l-0.616-0.112c-2.071-0.379-3.426-0.934-4.063-1.668l-1.26,0.089
	c-0.318-0.059-0.842-0.567-1.572-1.53l-0.667,0.168c-1.341-0.573-2.428-2.017-3.259-4.326l-0.672,0.194l-0.587-0.106
	c-3.584-4.241-5.271-6.938-5.06-8.097c-2.127-7.678-2.363-16.03-0.716-25.063c-0.148-0.026,0.074-2.994,0.671-8.9l0.31,0.057
	c-0.226-1.102-0.301-1.838-0.232-2.212c0.37-1.186,0.688-1.754,0.948-1.706l-0.225-9.065c0.373,0.068,0.846-0.78,1.42-2.547
	c0.801,0.147,1.239,0.016,1.314-0.396l0.058-0.309l0.308,0.058l0.783,0.778c0.429,0.077,1.136-0.419,2.123-1.492
	c0.224,0.041,0.551-0.005,0.979-0.14l-0.11,0.616l1.566-0.032c-0.113,0.615-0.076,0.94,0.111,0.975
	c0.315-0.152,0.84-0.163,1.565-0.03c-0.085,0.466,0.468,0.876,1.656,1.227l-0.056,0.31l-0.415,0.531
	c0.409,0.074,0.578,0.317,0.503,0.729l0.28,0.051c0.204,0.038,1.054-0.019,2.547-0.171l0.896,0.164l-0.388,2.127l-0.78,0.783
	l0.813,0.785l-1.746,4.337c-0.001,0.425,0.167,0.667,0.503,0.728c-0.635,2.314-1.049,4.004-1.243,5.066l-0.056,0.308l-0.239,3.052
	l-0.309-0.057l0.194,0.672l-0.056,0.31c-0.59,3.229-1.355,9.104-2.294,17.629l-0.31-0.058c0.12,0.505,0.236,2.193,0.349,5.066
	l-0.584,1.456c0.271,0.725,0.358,1.356,0.261,1.897l-0.393,0.564c0.987,0.18,1.3,1.278,0.932,3.294
	c0.336,0.062,0.636,0.734,0.904,2.017c0.987,0.181,3.836-1.787,8.539-5.902c2.904-3.346,6.293-9.378,10.162-18.103l0.771-4.226
	l0.075-2.155l0.308,0.057l-0.201-0.645c0.086-0.466,0.264-0.857,0.533-1.175c0.84-7.984,1.405-12.759,1.691-14.327
	c0.904-0.836,1.956-1.474,3.154-1.911l0.162-0.895l0.59,0.105l-0.107,0.588l0.895,0.163c1.281-1.212,2.315-1.746,3.101-1.603
	l0.2,0.644l0.667-0.168l0.588,0.108l-0.164,0.895l0.308,0.059l1.568-0.032l1.599,1.536l-0.168,0.923l1.203,0.22l0.113-0.615
	c0.354,0.277,0.633,0.435,0.839,0.473c0.429-0.135,0.746-0.183,0.952-0.146c1.179,1.566,1.595,3.301,1.248,5.203
	c-0.206-0.038-0.327,0.047-0.364,0.252c0.378,0.146,0.536,0.388,0.475,0.724c-0.683,0.356-1.107,1.004-1.277,1.936l-0.31-0.056
	l-0.255-1.927c-0.425-0.001-0.667,0.167-0.729,0.503l-0.771,4.227c-0.348,1.902-0.874,4.199-1.576,6.885l0.037,1.54
	c-2.734,7.907-4.932,13.118-6.586,15.63c-0.206-0.036-0.326,0.048-0.364,0.252l-0.495,2.716l-0.238,3.052
	c-0.803-0.147-1.353,0.592-1.648,2.215l-0.308-0.057c-0.119,0.653-0.122,2.938-0.008,6.854l-0.31-0.056l0.201,0.644l-0.276,1.512
	c-0.081,0.447-0.258,0.83-0.526,1.147c0.134,0.429,0.182,0.747,0.145,0.952c-0.446-0.082-0.77-1.172-0.965-3.271l-0.28-0.051
	c-0.032,0.188-0.152,0.261-0.357,0.224c0.004,2.198,0.121,4.408,0.351,6.63c-0.275,0.354-0.434,0.635-0.471,0.84
	c-0.318-0.06-0.633-2.295-0.944-6.709l-0.308-0.058l-0.415,0.532l-0.057,0.308l0.614,0.112l-0.332,1.819l0.588,0.107
	c-0.036,0.205-0.157,0.288-0.362,0.251l0.198,0.645l-0.161,0.896l-0.537-0.388c-0.034,0.188-0.154,0.262-0.359,0.224
	c-0.397-1.307-0.704-3.646-0.916-7.021l-0.587-0.106c-0.28-0.052-0.848,0.78-1.7,2.494c-0.392-0.07-1.602,0.855-3.631,2.779
	l0.201,0.645c-0.665,0.572-2.186,0.922-4.561,1.047C294.271,287.352,293.426,288.026,293.344,288.474 M310.232,296.562l-0.896-0.164
	c0.063-1.511,0.023-2.454-0.12-2.827c0.268-0.298,0.463-0.782,0.585-1.454l0.614,0.111l-0.22,1.204l-0.415,0.531
	c0.354,0.277,0.633,0.434,0.839,0.472l-0.056,0.309l-0.751,0.788c0.378,0.146,0.537,0.388,0.475,0.724L310.232,296.562z"/>
<path fill="#FFFFFF" d="M332.228,299.017l-5.933-1.72l-0.646,0.201c-2.351-1.066-3.995-2.303-4.934-3.707
	c-2.223-2.622-3.234-4.466-3.04-5.53c0.034-0.186-0.022-1.035-0.171-2.547l0.051-0.28l0.421-0.56
	c-0.262-0.047-0.712-0.958-1.352-2.734l0.163-0.896c0.037-0.204,0.849-0.685,2.432-1.437l-0.032-1.566
	c4.005-1.97,6.659-2.833,7.966-2.597l-0.057,0.31c-0.146,0.803-1.149,2.276-3.006,4.426l-0.058,0.308
	c0.43,0.078,1.484,0.58,3.167,1.504l5.229,0.349l-0.057,0.308c1.381,0.041,2.742-0.029,4.088-0.208l2.043,0.691
	c2.995,0.064,6.945-1.083,11.851-3.446c1.419-0.801,2.916-2.186,4.49-4.155c1.202-0.879,1.891-1.795,2.063-2.747
	c-10.737-4.446-16.487-7.06-17.252-7.836c-0.076,0.411-0.318,0.578-0.729,0.503c-6.763-2.987-10.583-5.345-11.464-7.066
	c-0.858-0.157-2.187-1.441-3.982-3.853c-0.513-0.149-1.375-1.656-2.587-4.521c-0.484-0.088-0.86-0.88-1.128-2.375
	c-0.802-0.146-1.021-1.229-0.651-3.242c0.613-3.359,2.146-6.097,4.595-8.214c1.588-1.831,3.309-3.281,5.162-4.352
	c1.125-0.776,1.913-1.665,2.366-2.662c3.484-1.657,5.497-2.438,6.038-2.34c4.448,1.295,7.614,2.703,9.496,4.224
	c4.178,3.308,6.069,6.045,5.675,8.209l-0.439,2.405l-0.616-0.111l-0.057,0.308l0.195,0.672l-1.563,0.004
	c-0.654-0.117-2.01-1.193-4.066-3.229c-3.729,0.785-6.023,1.407-6.877,1.868c-0.343,0.921-1.868,1.886-4.578,2.895
	c-0.063,0.335-1.253,1.159-3.575,2.471c-1.548,1.607-2.354,2.599-2.423,2.972c3.699,2.546,10.003,5.566,18.908,9.063
	c7.991,3.542,12.745,6.493,14.263,8.854c5.497,4.107,8.1,6.965,7.807,8.568l-0.616-0.111c0.096-0.522-0.823-1.723-2.756-3.6
	l-0.615-0.11l-0.051,0.278c0.463,2.63,1.578,4.501,3.342,5.613c-0.048,0.262,0.29,1.259,1.016,2.991
	c-0.421-0.021-0.662,0.14-0.724,0.476l-0.188,2.771c-0.278,1.53-1.702,2.514-4.271,2.951c-0.118,0.652-1.209,1.496-3.267,2.525
	c-0.185,1.008-2.057,2.122-5.614,3.343c-0.07,0.393-1.599,1.356-4.578,2.896c-0.643,0.134-0.995,0.387-1.063,0.76l-0.309-0.056
	l-0.531-0.415c-0.266,1.455-2.437,2.515-6.51,3.178c0.112-0.615-0.036-0.961-0.446-1.036c-0.82,0.795-2.032,1.201-3.635,1.217
	l-1.764-0.641l-0.588-0.105c-0.448-0.082-0.869-0.054-1.261,0.088l-0.56-0.42c-0.394,0.141-0.813,0.169-1.26,0.088l-0.532-0.416
	L332.228,299.017z"/>
<path fill="#FFFFFF" d="M379.118,276.209l-0.9-0.892l-0.77,0.229c0.092-0.514-0.308-0.938-1.195-1.273
	c-0.534-2.324-0.727-3.904-0.576-4.738l0.354,0.063c-0.482-1.256-0.557-2.814-0.225-4.676l0.499-2.792
	c0.759-4.235,3.939-15.434,9.55-33.59l0.706,0.126l0.184-1.027c0.287-1.604,0.065-4.38-0.663-8.33
	c0.139-0.771,0.123-1.369-0.043-1.796c0.715-1.284,2.11-1.742,4.188-1.371l-0.247,1.38l1.731,0.31
	c-0.313,0.388-0.49,0.707-0.536,0.965l1.38,0.247l0.77-0.229c-0.123,0.687,0.158,1.088,0.843,1.21l1.916-0.716l0.354,0.063
	l-0.479,0.643c3.421,0.745,4.979,1.973,4.674,3.685l0.706,0.126l-0.368,2.054c0.808,2.153,1.137,3.646,0.986,4.48l-1.05,5.871
	c-2.256,4.587-3.609,8.152-4.064,10.698c-0.792-0.143-2.239,1.973-4.347,6.342c-1.515,4.521-3.17,7.789-4.965,9.808
	c-0.101,0.558-0.726,1.395-1.873,2.514c-1.137,2.401-1.811,4.191-2.021,5.368l-0.644-0.48l-0.354-0.063
	c-0.638,0.35-1.138,0.491-1.5,0.427C380.476,274.543,379.802,276.332,379.118,276.209 M380.07,312.737l-1.026-0.184l-1.013-2.3
	l-2.687,0.942l-0.32-0.058c-1.403-2.15-2.513-3.296-3.324-3.442c-1.473-1.765-2.058-4.484-1.753-8.16
	c-0.215-0.037-0.258-0.409-0.132-1.115l0.677-3.786c1.284,0.229,2.675-0.946,4.175-3.526c3.084,0.773,5.375,1.293,6.872,1.562
	c-0.084,0.471,0.869,1.128,2.86,1.969c-0.142,0.792,0.234,2.636,1.13,5.533l-0.479,0.643c0.153,0.491,0.211,0.855,0.169,1.09
	c-0.728,0.113-1.192,0.747-1.399,1.902l0.674,0.12l-0.859,4.813C381.36,310.826,380.174,312.159,380.07,312.737"/>
</svg>
