<svg xmlns="http://www.w3.org/2000/svg" width="30" height="30"><path d="M14.997 24.708l-4.44-.077-3.08-.136c-1.012-.074-2.025-.164-3.025-.326-1.44-.232-2.502-1.29-2.79-2.74a27.07 27.07 0 0 1-.341-2.393c-.154-1.45-.194-2.907-.187-4.364l.096-2.637c.075-1.2.163-2.42.454-3.604.353-1.434 1.435-2.447 2.897-2.657.873-.126 1.755-.208 2.635-.272 2.223-.16 4.45-.205 6.678-.21l5.56.053 3.064.13c1.012.062 2.03.113 3.027.32 1.512.315 2.46 1.24 2.79 2.742a17.05 17.05 0 0 1 .34 2.392l.188 4.1c.012 1.148-.055 2.298-.13 3.444-.068 1.078-.154 2.16-.455 3.205-.395 1.36-1.305 2.2-2.69 2.484-.756.15-1.53.215-2.3.275-2.387.188-4.78.225-7.172.247l-1.12.001v.02zM12.22 19.15l7.208-4.165-7.208-4.164v8.33z" fill="#fff"/></svg>