<?xml version="1.0" encoding="utf-8"?>
<!-- Generator: Adobe Illustrator 23.0.0, SVG Export Plug-In . SVG Version: 6.00 Build 0)  -->
<svg version="1.1" xmlns="http://www.w3.org/2000/svg" xmlns:xlink="http://www.w3.org/1999/xlink" x="0px" y="0px"
	 viewBox="0 0 30 30" style="enable-background:new 0 0 30 30;" xml:space="preserve">
<style type="text/css">
	.st0{fill:#FFFFFF;}
	.st1{display:none;}
	.st2{display:inline;fill:#FFFFFF;}
</style>
<g id="Capa_1">
	<path class="st0" d="M24,13.1L8.2,3.8C6.9,3.1,5,3.8,5,5.7v18.6C5,26,6.8,27,8.2,26.2L24,16.8C25.4,16,25.4,14,24,13.1L24,13.1z"/>
</g>
<g id="Capa_2" class="st1">
	<path class="st2" d="M11.8,30V16.6H7.3v-5.3h4.5V7c0-4.6,2.8-7,6.9-7c2,0,3.6,0.1,4.1,0.2V5h-2.8c-2.2,0-2.6,1.1-2.6,2.6v3.7h5
		l-0.7,5.3h-4.3V30"/>
</g>
</svg>
