<?xml version="1.0" encoding="utf-8"?>
<!-- Generator: Adobe Illustrator 16.0.0, SVG Export Plug-In . SVG Version: 6.00 Build 0)  -->
<!DOCTYPE svg PUBLIC "-//W3C//DTD SVG 1.1//EN" "http://www.w3.org/Graphics/SVG/1.1/DTD/svg11.dtd">
<svg version="1.1" id="Capa_1" xmlns="http://www.w3.org/2000/svg" xmlns:xlink="http://www.w3.org/1999/xlink" x="0px" y="0px"
	 width="30px" height="30px" viewBox="0 0 30 30" enable-background="new 0 0 30 30" xml:space="preserve">
<g id="XMLID_194_">
	<path id="XMLID_195_" fill="#FFFFFF" d="M14.997,24.708c-1.48-0.024-2.959-0.039-4.439-0.077c-1.027-0.026-2.056-0.06-3.081-0.136
		c-1.012-0.074-2.025-0.164-3.025-0.326c-1.44-0.232-2.502-1.289-2.789-2.74c-0.156-0.789-0.256-1.592-0.341-2.393
		c-0.154-1.449-0.194-2.907-0.187-4.364c0.005-0.879,0.042-1.759,0.096-2.637c0.075-1.21,0.163-2.421,0.454-3.604
		c0.353-1.434,1.435-2.447,2.897-2.657c0.873-0.126,1.755-0.208,2.635-0.272c2.223-0.16,4.45-0.205,6.678-0.209
		c1.854-0.003,3.707,0.02,5.561,0.053c1.021,0.019,2.043,0.068,3.064,0.13c1.012,0.062,2.029,0.113,3.027,0.321
		c1.512,0.315,2.461,1.241,2.791,2.742c0.172,0.785,0.281,1.59,0.34,2.392c0.098,1.364,0.172,2.733,0.188,4.1
		c0.012,1.148-0.055,2.298-0.129,3.444c-0.068,1.078-0.154,2.161-0.455,3.205c-0.395,1.36-1.305,2.21-2.691,2.484
		c-0.756,0.15-1.531,0.215-2.301,0.275c-2.387,0.188-4.779,0.225-7.172,0.247c-0.373,0.004-0.748,0.001-1.121,0.001
		C14.997,24.693,14.997,24.7,14.997,24.708z M12.22,19.151c2.416-1.396,4.8-2.773,7.208-4.165c-2.414-1.394-4.801-2.773-7.208-4.164
		C12.22,13.615,12.22,16.364,12.22,19.151z"/>
</g>
</svg>
