<?xml version="1.0" encoding="utf-8"?>
<!-- Generator: Adobe Illustrator 16.0.0, SVG Export Plug-In . SVG Version: 6.00 Build 0)  -->
<!DOCTYPE svg PUBLIC "-//W3C//DTD SVG 1.1//EN" "http://www.w3.org/Graphics/SVG/1.1/DTD/svg11.dtd">
<svg version="1.1" xmlns="http://www.w3.org/2000/svg" xmlns:xlink="http://www.w3.org/1999/xlink" x="0px" y="0px"
	 width="441.045px" height="396.605px" viewBox="0 0 441.045 396.605" enable-background="new 0 0 441.045 396.605"
	 xml:space="preserve">
<g id="Capa_1" display="none">
	<rect x="0" y="0" display="inline" width="441.045" height="396.605"/>
</g>
<g id="Capa_2">
	<path fill="#FFFFFF" d="M152.542,141.775c-0.652-0.509-2.23-1.018-4.734-1.524c-0.029-0.265-1.332-0.622-3.908-1.075
		c-0.021-0.186-0.57-0.549-1.649-1.089l-0.058-0.512l1.772,0.063l0.768-0.084c0.326-0.036,0.471-0.218,0.436-0.544
		c-0.06-0.526-2.092-4.444-6.101-11.755c-0.112-1.022-1.235-3.52-3.368-7.489c-3.099,1.362-6.52,2.501-10.263,3.416
		c-0.02-0.17-0.113-0.246-0.284-0.228c0.056,0.496-0.412,0.885-1.4,1.166c-2.767,0.965-4.082,2.044-3.951,3.236
		c-0.685,3.467-1.427,5.91-2.227,7.331l0.085,0.769c0.495-0.056,0.762,0.08,0.798,0.405l0.027,0.257l-0.518-0.202l-0.511,0.057
		c-0.354,1.357-0.508,2.222-0.468,2.594l-0.539-0.198c0.048,0.433-0.401,0.992-1.346,1.678c0.034,0.311-0.715,1.915-2.246,4.814
		l-0.485,0.289l-0.488,0.055l-1.082-0.635l-0.256,0.028c-0.32,0.082-0.465,0.271-0.433,0.564c0.189,0.293,0.295,0.532,0.315,0.719
		l-0.461,0.311c-0.236-0.146-0.664-0.187-1.283-0.116c0.054,0.494-0.252,0.78-0.918,0.854l-4.326-2.301
		c-1.38,0.151-2.952-1.872-4.719-6.069l-0.167-1.513c2.781-4.794,4.658-8.47,5.633-11.024c-0.039-0.356,0.399-0.994,1.318-1.911
		l2.833-8.669c-0.181-0.073-0.331-0.653-0.45-1.738c0.901-2.626,1.518-3.958,1.843-3.993c0.93-2.802,2.312-8.706,4.142-17.711
		l1.676-5.505c-0.207-0.308-0.318-0.545-0.338-0.717c0.62-0.067,1.452-0.921,2.495-2.56l1.022-0.112l0.344,0.976l0.256-0.027
		c0.341-0.038,0.492-0.228,0.455-0.569l2.517-0.019l0.512-0.057c0.056,0.497,0.245,0.726,0.57,0.689l0.257-0.028
		c-0.056-0.495,0.088-0.763,0.429-0.8l0.257-0.028c0.33,0.011,0.512,0.164,0.545,0.458l0.482-0.313l0.232-0.026l0.109,1l0.513-0.056
		c0.325-0.036,0.469-0.226,0.433-0.565l-0.026-0.232l-0.288-0.485l1.228-0.396l0.488-0.054l-0.199,0.539l0.082,0.744
		c0.341-0.037,0.549,0.277,0.622,0.943l2-0.221c0.02,0.171-0.059,0.266-0.229,0.284c0.17,0.828,0.473,1.219,0.906,1.171l0.164,1.487
		c0.289,1.772,0.925,2.975,1.903,3.604c0.009,0.078,0.356,0.888,1.045,2.426l0.46-0.309l0.257-0.029l1.415,3.657
		c0.496-0.055,0.8,0.415,0.908,1.406c-0.171,0.02-0.246,0.113-0.228,0.284l0.54,0.198l-0.028-0.256
		c-0.172,0.02-0.266-0.056-0.284-0.228l0.769-0.085c0.119,0.943,0.818,2.728,2.097,5.348c-0.07,0.935-0.081,1.609-0.035,2.027
		l0.54,0.2c-0.02-0.17,0.057-0.266,0.229-0.284c0.036,0.342,0.652,1.372,1.847,3.092c5.108-1.065,8.175-1.655,9.197-1.769
		l0.058,0.511l-0.513,0.058l0.393,1.204l-4.833,2.063l0.289,0.485c0.087,0.79-0.603,1.369-2.068,1.734l0.028,0.256l0.487-0.055
		l0.058,0.513l-0.407,0.798l0.055,0.487c1.801,4.087,3.302,7.727,4.501,10.921c0.029,0.264,0.229,0.578,0.6,0.945l0.027,0.256
		c0.02,0.172-0.058,0.266-0.229,0.284l2.976,6.263c-0.155,0.017-0.224,0.11-0.205,0.281c0.714-0.079,1.742,2.42,3.089,7.497
		c-0.559,0.063-0.924,0.525-1.095,1.393l-1.513,0.167C153.77,141.381,153.379,141.683,152.542,141.775 M115.496,100.223
		c0.349-0.117,0.635-0.572,0.861-1.367c-0.188-0.275-0.302-0.603-0.343-0.975c0.387-0.043,0.982-1.544,1.785-4.505l-0.313-0.482
		l-0.027-0.256c0.8-1.14,1.14-2.612,1.02-4.421l-1,0.111l0.057,0.511l0.512-0.056C116.122,94.379,115.272,98.192,115.496,100.223
		 M123.755,112.987c0.853-0.094,3.538-1.064,8.059-2.913l-0.027-0.257c-0.04-0.355-1.606-3.814-4.7-10.379l-0.025-0.232
		c-0.677,1.127-1.311,3.056-1.902,5.789c-0.117,2.353-0.536,4.673-1.257,6.965l-0.256,0.027L123.755,112.987z M147.44,123.06
		l-0.027-0.256c-0.021-0.201-0.2-1.021-0.531-2.461l0.118-1.283c-0.172,0.02-0.267-0.057-0.285-0.228l-0.46,0.31l-0.511,0.058
		c-0.131-1.179-0.529-1.731-1.195-1.657C145.98,121.276,146.943,123.115,147.44,123.06"/>
	<path fill="#FFFFFF" d="M166.168,132.151c-1.24,0.138-2.458-0.152-3.65-0.867c-0.307,0.206-0.545,0.318-0.715,0.337
		c-0.83-1.259-1.407-1.869-1.733-1.833l0.055,0.488c-0.92-0.229-1.66-0.821-2.222-1.779l-1.621-0.833
		c-0.037-0.34-0.702-1.027-1.993-2.063c-0.018-0.154-0.298-1.136-0.843-2.942c-0.326-2.962-0.784-10.945-1.372-23.952l-0.137-1.232
		c-0.02-0.17,0.057-0.266,0.229-0.284c-0.02-0.17-0.114-0.246-0.284-0.228c-0.372-12.606-0.349-19.287,0.071-20.04
		c0.666-0.072,0.963-0.442,0.89-1.109l0.256-0.027c0.171-0.02,0.267,0.057,0.283,0.228l0.461-0.31l1.256-0.14
		c1.834,0.552,3.077,1.089,3.732,1.611c0.02,0.172,0.197,0.237,0.539,0.2l0.021,2.539l0.025,0.232
		c0.264-0.028,0.615,0.104,1.057,0.4c-0.157,1.712-0.161,3.235-0.015,4.568l0.595,0.688l0.027,0.256
		c0.105,0.962,0.085,1.552-0.063,1.771c0.271,0.896,0.439,1.64,0.505,2.229l0.167,1.511c-0.229,1.062-0.247,3.175-0.054,6.339
		l0.37,1.229l-0.094,1.281l0.289,0.486l-0.297,1.798c0.326,1.393,0.541,2.553,0.645,3.482c0.268,2.419,0.204,4.198-0.188,5.34
		l0.311,0.46l0.14,1.257l-0.428,0.823c0.4,0.507,0.627,0.982,0.677,1.433c0.037,0.341-0.029,0.521-0.2,0.54l1.036,4.688
		l-0.256,0.028l0.313,0.482l0.167,1.513l0.256-0.028c6.96-4.33,13.065-8.724,18.316-13.18l0.489-0.055l0.536,0.178l-0.025-0.232
		c-0.171,0.02-0.265-0.057-0.283-0.229l2.574-2.049l0.025,0.23c-1.388,1.222-2.047,2.142-1.979,2.762l-0.511,0.057l-0.518-0.201
		l0.289,0.485l0.027,0.256c-0.402,0.045-1.109,0.539-2.119,1.481c-1.724,1.164-2.869,2.224-3.438,3.181l0.027,0.256
		c1.206-0.306,2.492-0.871,3.861-1.697c-0.038-0.341,0.505-0.823,1.628-1.45c2.484-1.813,4.784-3.926,6.903-6.341l0.232-0.025
		c-0.457,1.4-0.882,2.121-1.269,2.164l0.313,0.482l0.109,1c-0.213,0.777-0.804,1.604-1.773,2.479
		c0.046,0.418-0.338,0.712-1.15,0.881l0.167,1.511l0.744-0.082c-0.175,0.694-0.769,1.436-1.779,2.222
		c0.056,0.496-1.292,2.081-4.042,4.754c-0.511,0.057-1.189,0.807-2.035,2.248c-0.521,0.67-1.379,1.361-2.571,2.072
		c0.041,0.372-0.237,0.905-0.836,1.6c0.053,0.465-1.864,1.438-5.75,2.918C169.175,131.395,167.717,131.979,166.168,132.151
		 M154.978,99.656l0.117-1.284l-0.257,0.027l0.202-0.517l-0.191-1.744l-0.513,0.057l0.164,1.488c0.02,0.171,0.112,0.247,0.284,0.229
		l-0.201,0.516l0.139,1.257L154.978,99.656z"/>
	<path fill="#FFFFFF" d="M201.981,128.198c-1.24,0.137-2.458-0.153-3.65-0.868c-0.307,0.206-0.545,0.318-0.715,0.337
		c-0.83-1.258-1.407-1.869-1.733-1.833l0.055,0.489c-0.92-0.229-1.66-0.822-2.222-1.779l-1.621-0.834
		c-0.037-0.34-0.702-1.027-1.993-2.063c-0.018-0.153-0.298-1.135-0.843-2.942c-0.326-2.961-0.784-10.945-1.372-23.952l-0.137-1.232
		c-0.02-0.17,0.057-0.266,0.229-0.284c-0.02-0.17-0.114-0.245-0.284-0.228c-0.372-12.606-0.349-19.286,0.071-20.04
		c0.666-0.072,0.963-0.442,0.89-1.109l0.256-0.027c0.171-0.02,0.266,0.058,0.283,0.228l0.461-0.31l1.256-0.14
		c1.834,0.552,3.077,1.09,3.732,1.612c0.02,0.172,0.197,0.236,0.539,0.199l0.021,2.54l0.025,0.231
		c0.264-0.028,0.615,0.104,1.057,0.4c-0.157,1.713-0.161,3.235-0.015,4.568l0.595,0.688l0.027,0.256
		c0.105,0.962,0.085,1.553-0.063,1.771c0.271,0.896,0.439,1.64,0.505,2.229l0.167,1.512c-0.229,1.062-0.247,3.174-0.054,6.338
		l0.37,1.229l-0.094,1.281l0.289,0.486l-0.296,1.798c0.325,1.393,0.541,2.553,0.644,3.482c0.268,2.419,0.204,4.199-0.188,5.341
		l0.311,0.46l0.14,1.256l-0.428,0.824c0.4,0.506,0.627,0.982,0.677,1.432c0.037,0.342-0.028,0.521-0.2,0.54l1.036,4.688
		l-0.256,0.027l0.313,0.483l0.167,1.512l0.256-0.028c6.96-4.33,13.065-8.724,18.316-13.18l0.489-0.054l0.537,0.177l-0.026-0.232
		c-0.171,0.02-0.265-0.057-0.283-0.229l2.574-2.049l0.025,0.231c-1.388,1.222-2.047,2.142-1.979,2.761l-0.511,0.057l-0.518-0.201
		l0.289,0.485l0.027,0.256c-0.402,0.045-1.109,0.539-2.118,1.481c-1.725,1.164-2.87,2.224-3.438,3.181l0.027,0.256
		c1.206-0.306,2.493-0.871,3.861-1.696c-0.038-0.342,0.506-0.824,1.628-1.451c2.484-1.813,4.784-3.926,6.903-6.34l0.232-0.026
		c-0.457,1.401-0.882,2.121-1.27,2.164l0.313,0.482l0.108,1c-0.213,0.777-0.804,1.604-1.772,2.48c0.046,0.418-0.338,0.712-1.15,0.88
		l0.167,1.511l0.744-0.082c-0.175,0.695-0.77,1.436-1.779,2.222c0.057,0.497-1.293,2.081-4.042,4.754
		c-0.511,0.057-1.189,0.807-2.034,2.248c-0.523,0.67-1.38,1.361-2.572,2.072c0.041,0.372-0.237,0.905-0.836,1.6
		c0.052,0.466-1.865,1.438-5.75,2.918C204.988,127.442,203.53,128.027,201.981,128.198 M190.791,95.702l0.117-1.284l-0.257,0.027
		l0.202-0.516l-0.191-1.745l-0.513,0.058l0.164,1.487c0.02,0.171,0.113,0.247,0.284,0.229l-0.201,0.517l0.139,1.256L190.791,95.702z
		"/>
</g>
<g id="Capa_3" display="none">
	<path display="inline" fill="#FFFFFF" d="M233.1,152.941l-1.411-0.219c0.049-0.309-0.38-0.699-1.284-1.171
		c-1.988-2.895-2.159-9.647-0.516-20.257c-0.146-0.022-0.172-0.351-0.073-0.981c0.024-0.161,0.111-0.23,0.26-0.208l-0.036-1.225
		l0.332-2.138c0.021-0.146,0.105-0.209,0.254-0.187c-0.101-0.332-0.135-0.585-0.106-0.763l1.104-5.651l0.241,0.038
		c0.024-0.161-0.043-0.256-0.203-0.28c0.538-2.112,0.896-3.352,1.07-3.716c0.024-0.161-0.043-0.255-0.205-0.279
		c0.026-0.161,0.144-0.385,0.354-0.668c0.781-3.972,1.354-7.126,1.717-9.462c0.4-2.586,0.603-5.963,0.603-10.131
		c0.886-1.155,1.694-1.679,2.431-1.563c0.911,0.143,1.399,0.624,1.47,1.446c1.118,0.444,2.024,1.396,2.716,2.858
		c-0.064,0.427,0.022,0.922,0.268,1.485l0.497-0.147l0.241,0.036c-0.025,2.208-0.056,3.415-0.088,3.621l0.484,0.075l0.072-0.463
		c0.675,0.104,0.899,1.268,0.677,3.489c0.222,0.035,0.364,1.192,0.433,3.476c0.161,0.024,0.229,0.119,0.205,0.28
		c-0.023,0.162-0.119,0.229-0.278,0.204l-0.068,5.092c-0.294,0.826-0.484,1.526-0.573,2.1l-0.402,2.601
		c-0.058,0.368-0.182,0.681-0.37,0.937c0.101,0.316,0.139,0.563,0.109,0.739c-1.479,5.76-2.402,8.609-2.771,8.553l-0.019,1.713
		l-0.663,4.276c-0.055,0.353-0.186,0.655-0.389,0.909c0.116,0.305,0.149,0.633,0.095,0.985l-0.038,0.242
		c-0.047,0.309-0.232,0.438-0.556,0.388c0.024-0.161-0.045-0.255-0.205-0.279l-0.038,0.242l0.376,0.779l-0.074,0.485l-2.128,7.457
		l-1.483,1.71c-0.527-0.082-1.043,0.08-1.541,0.482c-0.025,0.163,0.042,0.255,0.204,0.28l-0.61,2.343L233.1,152.941z"/>
	<path display="inline" fill="#FFFFFF" d="M255.007,152.705l-4.687-1.224l-0.501,0.17c-1.863-0.784-3.179-1.719-3.942-2.801
		c-1.797-2.009-2.628-3.432-2.497-4.27c0.021-0.146-0.041-0.811-0.188-1.992l0.034-0.221l0.317-0.447
		c-0.206-0.031-0.578-0.735-1.117-2.113l0.109-0.706c0.024-0.161,0.649-0.554,1.875-1.177l-0.059-1.228
		c3.096-1.626,5.158-2.359,6.188-2.2l-0.037,0.243c-0.1,0.632-0.854,1.808-2.265,3.53l-0.036,0.242
		c0.337,0.053,1.176,0.424,2.514,1.111l4.104,0.163l-0.038,0.242c1.083,0.003,2.149-0.08,3.199-0.248l1.615,0.498
		c2.349-0.012,5.42-0.994,9.215-2.949c1.094-0.657,2.237-1.773,3.431-3.351c0.924-0.714,1.443-1.445,1.561-2.195
		c-8.508-3.261-13.068-5.187-13.686-5.778c-0.05,0.323-0.235,0.46-0.56,0.409c-5.362-2.2-8.405-3.966-9.133-5.298
		c-0.677-0.104-1.742-1.083-3.2-2.935c-0.405-0.107-1.112-1.271-2.122-3.489c-0.382-0.06-0.692-0.671-0.935-1.837
		c-0.632-0.099-0.824-0.94-0.578-2.526c0.409-2.646,1.554-4.822,3.429-6.533c1.205-1.468,2.521-2.64,3.953-3.517
		c0.865-0.634,1.465-1.346,1.799-2.137c2.694-1.372,4.255-2.025,4.683-1.96c3.515,0.922,6.022,1.958,7.529,3.108
		c3.343,2.505,4.883,4.609,4.618,6.313l-0.294,1.896l-0.485-0.075l-0.036,0.242l0.167,0.522l-1.225,0.036
		c-0.516-0.08-1.6-0.896-3.255-2.445c-2.906,0.692-4.69,1.229-5.352,1.607c-0.248,0.729-1.425,1.518-3.524,2.363
		c-0.041,0.266-0.958,0.936-2.75,2.012c-1.18,1.293-1.79,2.085-1.837,2.379c2.953,1.917,7.955,4.152,15.008,6.706
		c6.336,2.606,10.123,4.819,11.361,6.638c4.394,3.104,6.491,5.287,6.296,6.551l-0.484-0.075c0.063-0.411-0.682-1.332-2.233-2.762
		l-0.483-0.075l-0.034,0.221c0.418,2.052,1.331,3.494,2.735,4.328c-0.031,0.207,0.254,0.981,0.857,2.323
		c-0.33-0.006-0.516,0.123-0.557,0.389l-0.09,2.175c-0.188,1.205-1.281,2.006-3.283,2.401c-0.08,0.516-0.916,1.198-2.507,2.05
		c-0.123,0.793-1.567,1.705-4.329,2.735c-0.049,0.31-1.225,1.098-3.527,2.365c-0.5,0.117-0.771,0.323-0.816,0.617l-0.241-0.038
		l-0.426-0.313c-0.179,1.146-1.856,2.021-5.034,2.627c0.075-0.484-0.05-0.752-0.372-0.802c-0.626,0.641-1.567,0.983-2.822,1.028
		l-1.396-0.465l-0.463-0.07c-0.354-0.056-0.684-0.023-0.985,0.095l-0.447-0.317c-0.304,0.118-0.633,0.15-0.984,0.097l-0.425-0.314
		L255.007,152.705z"/>
</g>
<g id="Capa_4" display="none">
	<path display="inline" fill="#FFFFFF" d="M45.415,179.23c-0.803-0.371-1.204-1.575-1.204-3.612c0-0.147,0.082-0.224,0.245-0.224
		c0-0.163-0.081-0.245-0.245-0.245c0.209-2.721,0.527-4.082,0.959-4.082v0.224c-0.313,2.29-0.468,3.896-0.468,4.817L45.415,179.23z
		 M63.436,224.884c-1.605-0.208-2.408-0.609-2.408-1.203h-0.49l-0.469,0.224c-0.803-1.441-1.368-3.121-1.694-5.039
		c-0.789,0-1.184,0.317-1.184,0.959c-0.521,0-0.84-4.402-0.959-13.204c-0.327,0-0.489-0.319-0.489-0.959h-0.491
		c-0.356,0-0.677,0.082-0.959,0.246l-0.959-0.491c0,0.327-0.4,0.646-1.204,0.959c-0.313,0-0.469-0.156-0.469-0.468v-0.246
		c1.159-0.729,1.963-1.129,2.408-1.204v-0.714h-0.49c-2.245,0.951-3.449,1.428-3.613,1.428v-0.959c0.804,0,1.852-0.478,3.146-1.428
		l0.959-0.736c0-0.163,0.074-0.244,0.224-0.244c0-0.76-1.115-3.718-3.346-8.878c-2.886-6.407-4.326-9.932-4.326-10.57h0.468
		c0.193,0,0.759,1.441,1.695,4.326c0.37,0.254,0.929,1.694,1.673,4.326c0.371,0,0.608,0.402,0.714,1.204h0.245v-0.959
		c-0.641-0.638-1.6-3.285-2.877-7.938c-0.893,0-1.776-3.359-2.654-10.081v-0.246c0.848-3.85,1.65-5.775,2.409-5.775
		c0.446-1.233,2.444-3.069,5.999-5.509l0.491,0.223c0.431-0.045,0.832-0.438,1.203-1.182c0.313-0.163,0.551-0.245,0.715-0.245
		c0,0.164,0.081,0.245,0.244,0.245c0-0.432,0.477-0.759,1.429-0.98v-0.224l0.49,0.224c1.888-0.788,3.888-1.347,6-1.674v0.491
		c-0.521,0-2.119,0.319-4.796,0.959v0.468c0.313,0,0.469,0.082,0.469,0.245l1.694-0.713c0.163,0,0.245,0.073,0.245,0.224
		c1.265-0.313,2.224-0.47,2.877-0.47v0.246l0.47-0.246h0.244c0.163,0,0.245,0.082,0.245,0.246l0.47-0.246h0.244
		c0,0.372-1.196,0.609-3.591,0.714c-0.64,0.119-0.959,0.365-0.959,0.736l-0.735-0.491c0,0.328-0.238,0.491-0.714,0.491l-0.49-0.245
		c-1.279,0.445-1.918,0.848-1.918,1.204h-1.205l-1.672,1.427h-0.246v-0.468c-0.907,0.847-1.866,1.568-2.877,2.163
		c-0.804,0.848-1.204,1.487-1.204,1.918c0.743-0.476,1.383-0.714,1.918-0.714l-0.224-0.49v-0.491h0.469v0.736
		c1.278-0.326,1.918-0.646,1.918-0.959c0.327-0.401,0.49-0.804,0.49-1.204h0.245v0.714c0.922,0,2.521-0.803,4.796-2.409
		l-0.245-0.468c0.759,0,1.322-0.164,1.694-0.491H62.7v0.491h0.245c0-0.327,0.401-0.646,1.204-0.959h0.714
		c0.163,0,0.245,0.082,0.245,0.245c0.654-0.327,1.138-0.491,1.45-0.491c0.044,0.328,0.199,0.491,0.468,0.491
		c0-0.491,2.163-0.817,6.49-0.98v-0.47l1.673,0.246c1.77,0,3.293-0.164,4.572-0.491c0.236,0.164,0.721,0.245,1.449,0.245
		l-0.246,0.47h0.246l0.469-0.224v0.468c-0.313,0-0.469,0.082-0.469,0.245c-0.313-0.163-0.559-0.245-0.735-0.245l-0.959,0.245
		c-0.298-0.163-0.535-0.245-0.714-0.245v0.491c0.476,0,0.714,0.082,0.714,0.245l1.204-0.491l4.326,1.205v0.245l0.491-0.245
		c1.44,0.877,2.236,1.517,2.386,1.918l0.491-0.246c0.594,0.804,0.984,1.205,1.171,1.205s0.277,0.164,0.277,0.49h0.224v-0.49
		c1.413,0.477,2.217,0.878,2.409,1.204c-0.164,0.313-0.245,0.55-0.245,0.714c0.861,0.135,1.428,0.535,1.694,1.204
		c0.313-0.163,0.55-0.245,0.715-0.245l0.244,0.49H94.17c0.46,0.773,1.183,1.414,2.163,1.919v0.245l-0.224,0.468
		c0.76,0,1.234,0.401,1.429,1.205c0.163,0,0.407,0.319,0.735,0.959c-0.179,0-0.424,0.082-0.735,0.245
		c0.163,0.313,0.245,0.55,0.245,0.714c-0.283,0.445-0.521,1.413-0.715,2.898c-0.326,0-0.489-0.163-0.489-0.49l-0.47,0.245h-0.244
		c0-0.803-0.402-1.204-1.204-1.204v2.163c-0.372,0.804-0.773,1.204-1.205,1.204v0.714l-0.245,1.204l-1.428-0.49v0.245l0.223,0.49
		c-0.431,0-0.988,0.723-1.672,2.164c-1.279,1.427-1.918,2.224-1.918,2.386H88.17l-0.245-0.959c0.432-0.638,0.832-0.959,1.204-0.959
		c0.119,0,0.521-0.959,1.205-2.877c-0.313,0-0.469-0.163-0.469-0.49c0.698,0,1.339-0.876,1.918-2.632l0.223-1.673
		c-0.313,0-0.468-0.245-0.468-0.735c-0.313,0.164-0.551,0.245-0.714,0.245c0,0.163,0.073,0.245,0.223,0.245
		c-0.148,0.64-0.223,1.197-0.223,1.673h-0.959l-0.49-0.245c-1.755,3.004-2.632,4.609-2.632,4.817c-0.327,0-0.812,0.877-1.45,2.631
		c-0.848,0-1.486,0.723-1.918,2.164l0.224,0.49c-0.788,0.669-1.183,1.228-1.183,1.673H81.68l0.245-0.469v-0.245H81.68
		c-1.279,0.967-2.156,1.449-2.633,1.449l0.246,0.469c0,0.148-1.041,0.869-3.123,2.164c-0.016,0.253-0.735,0.812-2.163,1.673
		c-1.517,1.473-3.278,2.596-5.285,3.367l-2.409,1.918v0.245c0,2.022-0.164,5.309-0.489,9.858h-0.47l0.246,1.204v1.427
		c0,0.699-0.164,1.339-0.491,1.918H65.6c-0.135,1.44-0.379,2.164-0.736,2.164l0.245,0.491v2.161c0,0.356-0.082,0.678-0.245,0.959
		c0.163,0.282,0.245,0.604,0.245,0.959C64.692,223.28,64.135,224.884,63.436,224.884 M47.579,175.149
		c0-0.803,0.155-1.441,0.468-1.918l-0.223-1.449l0.469-0.245c0-0.164-0.083-0.246-0.246-0.246l0.246-1.183v-0.489
		c-0.224,0-0.462,0.4-0.714,1.203h-0.245c0,0.357,0.081,0.678,0.245,0.96c-0.328,0.743-0.491,1.465-0.491,2.162l0.246,1.205H47.579
		L47.579,175.149z M56.455,195.333c0.327,0,0.49-0.245,0.49-0.735c0.477-10.497,0.715-17.063,0.715-19.694h-0.246
		c-1.368,0.789-2.408,2.788-3.122,6v0.736c-0.789,0-1.183,0.155-1.183,0.468c0,0.669,0.156,1.473,0.469,2.409h-0.245l-0.468-0.245
		c0.638,2.722,1.434,5.204,2.386,7.449C55.251,192.21,55.653,193.416,56.455,195.333 M67.027,195.088l1.695-0.959l-0.245-0.49
		v-0.245c1.44-0.074,2.163-0.47,2.163-1.184l0.469,0.225h0.49c0-0.225,0.559-1.019,1.673-2.388h-0.468v0.469l-0.491-0.245h-0.245
		c0,0.401-0.64,0.886-1.918,1.45v-0.715c0.281,0,1.084-0.482,2.408-1.449l0.49,0.245c0-0.653,0.64-1.294,1.918-1.918
		c3.494-2.854,6.453-5.42,8.877-7.694c0-0.252,0.564-0.735,1.695-1.449c0-0.313,0.794-1.673,2.386-4.081
		c0.804-2.155,1.204-4.156,1.204-6v-0.714c-0.848-0.653-3.331-1.294-7.448-1.918l-0.469,0.224c-0.551,0-2.229-0.074-5.041-0.224
		c-4.163,0.135-8.171,1.012-12.021,2.632c0,0.104-0.4,0.424-1.204,0.96c0.371,2.557,0.771,3.836,1.204,3.836l-0.245,1.204v1.918
		c0.06,0.326,0.224,0.49,0.49,0.49c0.313,0,0.469-0.319,0.469-0.959c0.49,0,1.056,2.886,1.695,8.653
		c0.313,0.045,0.468,0.2,0.468,0.469v2.408l-0.245,1.449c0,0.148,0.081,0.224,0.245,0.224l-0.245,1.204v1.449
		c0,0.357,0.081,0.678,0.245,0.959c-0.164,0.283-0.245,0.603-0.245,0.959v1.205H67.027z M84.089,189.312h-1.204v-0.714
		c1.77-0.49,2.654-1.13,2.654-1.918h0.224c0.325,0.045,0.489,0.2,0.489,0.469C86.252,187.356,85.531,188.077,84.089,189.312
		 M86.966,186.435h-0.223c0.089-0.967,0.325-1.45,0.714-1.45h0.713v0.246C88.17,185.395,87.769,185.795,86.966,186.435"/>
	<path display="inline" fill="#FFFFFF" d="M113.618,218.149c-3.094,0-6.142-1.522-9.145-4.57c-1.443-1.115-2.164-1.756-2.164-1.919
		c-0.282-0.282-1.159-1.808-2.631-4.571l-0.491,0.245c-0.952-2.244-1.829-4.966-2.632-8.163c0-0.163,0.081-0.245,0.246-0.245
		c0-0.192-0.402-1.791-1.205-4.795c0.162-0.281,0.244-0.603,0.244-0.959c0-0.729-0.082-1.212-0.244-1.449
		c0.476-10.407,0.95-15.612,1.428-15.612c2.453-6.884,4.296-10.325,5.531-10.325v-0.491h0.959c0.163,0,0.244,0.082,0.244,0.245
		c0.58-0.326,1.22-0.49,1.919-0.49c2.468,0,4.631,1.041,6.489,3.122h0.246v1.204l-1.205,1.694c0.164,0,0.246,0.075,0.246,0.224
		c0.816-0.313,1.456-0.468,1.918-0.468c1.873,0.64,2.913,0.959,3.122,0.959l0.468-0.245c2.854,1.278,4.698,1.918,5.532,1.918
		c0.669,0,2.668,1.204,5.999,3.612l0.98,0.491v-0.246c-0.164-0.281-0.245-0.603-0.245-0.959h0.245
		c0.759,1.114,1.479,1.673,2.164,1.673c2.393,3.228,3.591,5.071,3.591,5.531c0.804,2.319,1.285,4.401,1.449,6.245
		c-0.64,2.721-1.123,4.08-1.449,4.08v-0.489h-0.246c0,0.416-0.155,1.219-0.468,2.408c0.163,0.313,0.245,0.551,0.245,0.714
		l-0.49-0.224c0,0.609-1.36,3.732-4.082,9.367c-1.354,2.274-2.313,3.555-2.877,3.838c0,0.607-1.688,2.215-5.063,4.815
		c-0.58,2.081-2.735,3.122-6.469,3.122C114.339,217.628,113.618,217.866,113.618,218.149 M109.76,209.741
		c3.613-2.021,6.179-3.865,7.694-5.53c4.43-5.857,6.832-11.063,7.204-15.611c0-1.665-0.959-3.911-2.878-6.736
		c-1.442-1.366-2.162-2.243-2.162-2.632l-0.491,0.246c-0.029-0.135-1.146-1.101-3.347-2.899l-0.489,0.246
		c-0.804-0.477-1.36-0.715-1.673-0.715c-0.209,0.164-0.61,0.245-1.204,0.245v-0.245h-1.205c-1.189,0-2.073,0.641-2.653,1.918
		c-1.204,0-2.564,0.723-4.081,2.163c0,0.165,0.081,0.246,0.245,0.246c-0.164,1.219-0.483,2.58-0.959,4.081
		c0.326,0.045,0.49,0.2,0.49,0.469c-0.654,0.759-1.058,1.726-1.205,2.898c0.64,0,0.959,0.401,0.959,1.204
		c0.164,0,0.246,0.075,0.246,0.224c0,0.804-0.164,1.205-0.49,1.205l0.244,1.204l-0.244,1.449l0.959,1.672v0.246l-0.245,1.204h0.489
		c0,2.469,0.804,6.468,2.409,12c0.432,0.966,0.75,1.449,0.959,1.449L109.76,209.741L109.76,209.741z M120.822,203.741
		c0.253,0,0.572-0.563,0.959-1.694c0.313,0,0.469-0.318,0.469-0.959h0.491l0.49,0.246v-1.205h-0.735
		c0,0.417-0.878,1.539-2.633,3.368v0.244h0.469v-0.489h0.49V203.741z M124.658,201.579c0.639-2.527,1.359-3.813,2.162-3.857v-0.47
		h-0.468v-0.959c0.684,0,1.16-0.803,1.427-2.409h0.491v-0.244h-0.491l0.491-0.959c-0.164-0.313-0.245-0.55-0.245-0.715h-0.246
		c0,0.58-0.877,2.425-2.631,5.532l0.224,0.468v0.715l-1.673,2.653v0.245H124.658L124.658,201.579z"/>
	<path display="inline" fill="#FFFFFF" d="M151.109,206.865l-4.816-0.491l-0.47,0.246c-1.962-0.49-3.404-1.212-4.326-2.164
		c-2.082-1.709-3.122-2.987-3.122-3.836c0-0.146-0.164-0.795-0.491-1.938v-0.224l0.246-0.491c-0.209,0-0.686-0.639-1.428-1.918
		v-0.714c0-0.163,0.558-0.646,1.673-1.449l-0.245-1.204c2.811-2.081,4.735-3.122,5.775-3.122v0.245c0,0.64-0.564,1.918-1.694,3.836
		v0.245c0.343,0,1.228,0.238,2.654,0.714l4.081-0.469v0.245c1.07-0.163,2.11-0.408,3.122-0.735l1.674,0.245
		c2.318-0.37,5.202-1.813,8.652-4.326c0.981-0.816,1.94-2.098,2.877-3.836c0.804-0.849,1.205-1.651,1.205-2.409
		c-8.907-1.918-13.709-3.122-14.408-3.612c0,0.326-0.164,0.49-0.49,0.49c-5.636-1.354-8.914-2.632-9.835-3.837
		c-0.686,0-1.89-0.802-3.613-2.408c-0.417-0.045-1.294-1.085-2.632-3.122c-0.387,0-0.788-0.558-1.204-1.673
		c-0.64,0-0.96-0.803-0.96-2.408c0-2.678,0.796-5.004,2.388-6.98c0.966-1.636,2.088-2.996,3.367-4.081
		c0.759-0.76,1.241-1.555,1.449-2.388c2.454-1.77,3.896-2.653,4.326-2.653c3.613,0.372,6.253,1.012,7.919,1.918
		c3.688,1.963,5.53,3.808,5.53,5.53v1.918h-0.491v0.246l0.246,0.49l-1.205,0.223c-0.521,0-1.717-0.638-3.591-1.918
		c-2.766,1.132-4.445,1.935-5.04,2.409c-0.134,0.758-1.175,1.717-3.123,2.877c0,0.269-0.802,1.07-2.407,2.409
		c-0.968,1.458-1.45,2.335-1.45,2.632c3.212,1.441,8.498,2.886,15.857,4.326c6.66,1.605,10.742,3.212,12.244,4.817
		c4.816,2.395,7.227,4.229,7.227,5.509h-0.491c0-0.416-0.877-1.212-2.631-2.387h-0.491v0.224c0.729,1.963,1.852,3.248,3.368,3.858
		c0,0.208,0.4,0.929,1.204,2.163c-0.327,0.045-0.491,0.2-0.491,0.468l0.246,2.164c0,1.219-0.959,2.178-2.877,2.877
		c0,0.521-0.723,1.324-2.164,2.409c0,0.803-1.286,1.926-3.857,3.367c0,0.313-1.041,1.271-3.123,2.878
		c-0.477,0.192-0.713,0.438-0.713,0.735h-0.246l-0.468-0.246c0,1.16-1.525,2.282-4.572,3.368c0-0.491-0.164-0.735-0.49-0.735
		c-0.521,0.729-1.398,1.212-2.633,1.449l-1.448-0.246h-0.47c-0.355,0-0.677,0.082-0.959,0.246l-0.489-0.246
		c-0.283,0.164-0.603,0.246-0.959,0.246l-0.47-0.246L151.109,206.865z"/>
	<path display="inline" fill="#FFFFFF" d="M191.901,206.865l-4.816-0.491l-0.469,0.246c-1.963-0.49-3.405-1.212-4.327-2.164
		c-2.082-1.709-3.122-2.987-3.122-3.836c0-0.146-0.164-0.795-0.491-1.938v-0.224l0.246-0.491c-0.209,0-0.686-0.639-1.428-1.918
		v-0.714c0-0.163,0.559-0.646,1.673-1.449l-0.245-1.204c2.811-2.081,4.735-3.122,5.776-3.122v0.245c0,0.64-0.565,1.918-1.695,3.836
		v0.245c0.343,0,1.228,0.238,2.654,0.714l4.081-0.469v0.245c1.07-0.163,2.11-0.408,3.122-0.735l1.674,0.245
		c2.318-0.37,5.203-1.813,8.652-4.326c0.981-0.816,1.94-2.098,2.877-3.836c0.804-0.849,1.205-1.651,1.205-2.409
		c-8.907-1.918-13.709-3.122-14.408-3.612c0,0.326-0.164,0.49-0.49,0.49c-5.636-1.354-8.914-2.632-9.835-3.837
		c-0.686,0-1.89-0.802-3.613-2.408c-0.417-0.045-1.294-1.085-2.632-3.122c-0.387,0-0.788-0.558-1.204-1.673
		c-0.64,0-0.96-0.803-0.96-2.408c0-2.678,0.796-5.004,2.388-6.98c0.966-1.636,2.088-2.996,3.367-4.081
		c0.759-0.76,1.241-1.555,1.449-2.388c2.454-1.77,3.896-2.653,4.327-2.653c3.612,0.372,6.252,1.012,7.918,1.918
		c3.688,1.963,5.53,3.808,5.53,5.53v1.918h-0.49v0.246l0.245,0.49l-1.205,0.223c-0.521,0-1.717-0.638-3.591-1.918
		c-2.766,1.132-4.445,1.935-5.04,2.409c-0.134,0.758-1.175,1.717-3.123,2.877c0,0.269-0.802,1.07-2.407,2.409
		c-0.968,1.458-1.45,2.335-1.45,2.632c3.212,1.441,8.498,2.886,15.857,4.326c6.66,1.605,10.742,3.212,12.244,4.817
		c4.816,2.395,7.227,4.229,7.227,5.509h-0.491c0-0.416-0.877-1.212-2.631-2.387h-0.491v0.224c0.729,1.963,1.852,3.248,3.368,3.858
		c0,0.208,0.4,0.929,1.204,2.163c-0.327,0.045-0.491,0.2-0.491,0.468l0.246,2.164c0,1.219-0.959,2.178-2.877,2.877
		c0,0.521-0.723,1.324-2.164,2.409c0,0.803-1.286,1.926-3.857,3.367c0,0.313-1.041,1.271-3.123,2.878
		c-0.477,0.192-0.713,0.438-0.713,0.735h-0.246l-0.468-0.246c0,1.16-1.525,2.282-4.572,3.368c0-0.491-0.164-0.735-0.49-0.735
		c-0.521,0.729-1.398,1.212-2.633,1.449l-1.448-0.246h-0.47c-0.355,0-0.677,0.082-0.959,0.246l-0.489-0.246
		c-0.283,0.164-0.603,0.246-0.959,0.246l-0.47-0.246L191.901,206.865z"/>
	<path display="inline" fill="#FFFFFF" d="M224.486,210.455h-1.427c0-0.313-0.483-0.633-1.45-0.959
		c-2.408-2.558-3.612-9.203-3.612-19.938c-0.148,0-0.224-0.319-0.224-0.959c0-0.163,0.074-0.245,0.224-0.245l-0.224-1.205v-2.163
		c0-0.147,0.074-0.223,0.224-0.223c-0.148-0.313-0.224-0.559-0.224-0.736l0.224-5.754h0.245c0-0.164-0.082-0.246-0.245-0.246
		c0.208-2.17,0.371-3.448,0.489-3.836c0-0.163-0.082-0.245-0.244-0.245c0-0.162,0.08-0.4,0.244-0.714
		c0.164-4.044,0.246-7.248,0.246-9.611c0-2.617-0.319-5.985-0.959-10.104c0.698-1.278,1.419-1.918,2.163-1.918
		c0.922,0,1.479,0.401,1.673,1.205c1.175,0.267,2.216,1.069,3.122,2.407c0,0.433,0.164,0.908,0.491,1.429l0.468-0.224h0.246
		c0.313,2.186,0.468,3.383,0.468,3.591h0.491v-0.469c0.684,0,1.085,1.114,1.204,3.346c0.223,0,0.543,1.123,0.959,3.367
		c0.163,0,0.245,0.082,0.245,0.246s-0.082,0.245-0.245,0.245l0.714,5.041c-0.164,0.861-0.246,1.583-0.246,2.162v2.633
		c0,0.372-0.073,0.698-0.223,0.98c0.147,0.298,0.223,0.534,0.223,0.714c-0.579,5.918-1.056,8.876-1.427,8.876l0.244,1.694v4.327
		c0,0.356-0.081,0.678-0.244,0.959c0.163,0.283,0.244,0.603,0.244,0.959v0.246c0,0.313-0.163,0.469-0.489,0.469
		c0-0.163-0.082-0.245-0.246-0.245v0.245l0.491,0.714v0.489l-0.959,7.695l-1.204,1.918c-0.536,0-1.021,0.237-1.45,0.714
		c0,0.164,0.081,0.245,0.245,0.245l-0.245,2.409V210.455L224.486,210.455z"/>
	<path display="inline" fill="#FFFFFF" d="M256.402,229.189c0.146-0.298,0.224-0.535,0.224-0.714l-0.714-0.469
		c-0.313,0.146-0.551,0.224-0.714,0.224c0-0.388-0.886-0.862-2.653-1.428c-0.224-0.714-0.544-1.354-0.959-1.918l0.49-3.858
		c-2.156,0-5.605-5.367-10.35-16.104c-1.114-1.753-1.992-3.354-2.632-4.795c-0.521,0-1.005-0.804-1.45-2.407
		c-0.253,0-0.489-0.157-0.713-0.47l0.244-0.49v-0.245h-0.244v0.49c-0.209,0-0.61-0.639-1.205-1.918l0.245-1.205h0.245l0.715,0.491
		h0.244v-0.245c-0.49-1.188-1.213-2.147-2.163-2.877v0.469c0.401,0.534,0.722,1.257,0.959,2.162c-0.327,0-0.49,0.321-0.49,0.959
		c-0.224-0.028-0.779-0.832-1.673-2.407v-0.224l0.714,0.469v-0.469l-1.204-2.653v-0.715h0.245c0,0.461,0.318,1.183,0.959,2.163h0.49
		v-0.735c-0.327,0-0.893-0.639-1.694-1.918v0.49l-0.714-0.49l0.245-0.469c-0.477-1.441-0.878-2.162-1.204-2.162
		c-0.997-1.605-1.637-2.409-1.918-2.409c0-0.163-0.164-0.246-0.49-0.246c0,0.165-0.073,0.246-0.224,0.246l-0.245-1.205v-0.713
		c0-2.438,2.163-5.159,6.489-8.163c0.282,0,1.16-0.246,2.633-0.735c0.044,0.326,0.207,0.489,0.489,0.489v-0.244l-0.244-0.469
		c0.313,0,1.271-0.327,2.877-0.981v-0.713c-1.115-0.967-1.674-1.844-1.674-2.633v-0.49c0-0.297,0.722-0.854,2.164-1.672h0.224v0.468
		h0.489l0.715-0.468h1.203l-0.468,0.713v0.246h0.224c0.104,0,0.505-0.402,1.204-1.205c0.461,0,1.264,0.483,2.408,1.449
		c0.477,0,0.714,0.238,0.714,0.715h0.245c0-0.804,0.319-1.205,0.959-1.205c0,0.148,0.319,0.952,0.959,2.408l0.491-0.244h0.468
		c0.967,1.441,1.688,2.163,2.164,2.163c3.582,0,6.229,0.722,7.939,2.162c1.411,0,4.533,1.042,9.366,3.123
		c0,0.446,0.558,0.93,1.673,1.45c0,0.164,0.081,0.4,0.245,0.713l0.49-0.245c0.179,0,1.219,0.886,3.122,2.654
		c2.453,0,4.608,1.196,6.469,3.591c0.742,0.192,1.309,0.596,1.694,1.204c0,0.074-0.082,0.395-0.245,0.959
		c0.163,0.641,0.481,0.959,0.959,0.959v0.246c-0.313,0.281-0.714,2.445-1.204,6.489c-0.119,0.044-0.438,1.003-0.959,2.877
		l0.245,0.491c-0.478,0.639-1.115,1.918-1.919,3.836c0.164,0,0.246,0.082,0.246,0.245c-0.596,0-0.997,0.722-1.205,2.162
		c-0.208,0-0.609,0.478-1.204,1.429c-0.521,1.085-1.004,1.889-1.449,2.408h0.49v0.489c-0.298,0.328-0.78,1.286-1.449,2.877h-0.245
		v-0.488c-0.641,0.235-0.959,0.48-0.959,0.734l0.245,1.184c-0.938,1.439-1.576,2.163-1.918,2.163l0.245,0.489v0.245
		c-0.282,0.758-0.849,1.315-1.694,1.673c-0.862,1.592-1.421,2.395-1.673,2.408l-0.49-0.245c-0.551,1.979-1.347,3.257-2.387,3.836
		c-3.05,1.918-4.571,3.123-4.571,3.613l-0.491-0.245c-1.694,1.591-2.975,2.478-3.836,2.653c-0.313-0.164-0.552-0.245-0.714-0.245
		C257.874,229.033,257.234,229.189,256.402,229.189 M251.585,215.027c0-0.64,0.081-0.959,0.245-0.959
		c-0.164-0.313-0.245-0.559-0.245-0.734c0-8.804-1.6-20.087-4.796-33.855l-0.959-0.246c-0.208,0-1.576,0.804-4.104,2.409
		c-0.49,0-1.287,0.64-2.388,1.918c-0.209,0-0.609,0.401-1.203,1.204h-0.245v0.96l-0.246,1.427c0,0.417,0.723,2.262,2.164,5.531
		l-0.47,0.959h0.246l0.469-0.245c0,0.209,0.64,1.494,1.918,3.857l1.694,4.551c1.07,1.649,2.668,5.174,4.795,10.571l2.409,2.652
		H251.585L251.585,215.027z M262.646,211.904c1.665-1.203,4.787-4.488,9.367-9.856c0.477,0,0.714-0.249,0.714-0.746
		c0-0.498,0.722-1.528,2.163-3.09c1.799-2.913,3.158-5.479,4.082-7.693c-0.328-0.804-0.491-1.36-0.491-1.673h-0.714v1.427
		c0,0.238-0.877,0.886-2.631,1.94c-1.605,0.833-2.409,1.392-2.409,1.672h-0.245c-0.164,0-0.245-0.08-0.245-0.244
		c-0.148,0-0.224,0.082-0.224,0.244c-2.29,0-4.371-0.959-6.245-2.877c0-0.46-0.164-1.345-0.489-2.653
		c0-2.616,1.521-4.616,4.571-5.999c0-1.174-2.246-2.297-6.734-3.368c0-0.162-1.36-0.564-4.081-1.203l-2.164,0.244
		c0-0.162-0.082-0.244-0.245-0.244l-0.224,0.489v0.246c1.114,1.562,1.991,3.644,2.633,6.244h-0.246
		c0.595,1.234,1.078,3.718,1.449,7.449c0.432,0.564,0.75,3.367,0.96,8.409l-0.49-0.245c0,1.114-0.075,1.754-0.224,1.918
		c0.146,0.388,0.305,1.188,0.469,2.407c-0.164,0-0.245,0.074-0.245,0.224h0.245l0.49-0.224v0.224l-0.49,0.735
		c0.163,0.282,0.245,0.604,0.245,0.959h-0.245c0.325,0.654,0.49,1.139,0.49,1.449h-0.245l0.469,0.959
		c-0.148,0.27-0.224,0.588-0.224,0.959c0,0.478,0.236,0.715,0.714,0.715l-0.245,0.49
		C262.193,211.191,262.438,211.427,262.646,211.904 M277.3,201.801c1.101-0.772,1.821-2.208,2.163-4.304
		c0.313,0,0.706-0.968,1.183-2.899c-0.388,0-0.624-0.319-0.713-0.959h-0.246v0.735c0.164,0,0.246,0.075,0.246,0.224
		c-0.654,0-1.139,0.565-1.45,1.694l0.245,0.469c-0.952,2.2-1.428,3.405-1.428,3.613l-0.49-0.246v0.246
		C277.136,200.73,277.3,201.208,277.3,201.801"/>
	<path display="inline" fill="#FFFFFF" d="M294.027,212.863c-1.189,0-2.313-0.399-3.367-1.202c-0.313,0.163-0.551,0.243-0.715,0.243
		c-0.653-1.277-1.137-1.918-1.448-1.918v0.471c-0.849-0.313-1.485-0.952-1.918-1.919l-1.45-0.959c0-0.326-0.559-1.05-1.673-2.163
		c0-0.147-0.164-1.106-0.49-2.877c0-2.84,0.401-10.452,1.204-22.838v-1.183c0-0.164,0.081-0.246,0.245-0.246
		c0-0.163-0.082-0.245-0.245-0.245c0.968-11.983,1.688-18.312,2.163-18.979c0.641,0,0.959-0.318,0.959-0.959h0.246
		c0.163,0,0.245,0.082,0.245,0.245l0.468-0.245h1.205c1.682,0.715,2.802,1.354,3.367,1.918c0,0.164,0.163,0.245,0.49,0.245
		l-0.245,2.409v0.223c0.252,0,0.572,0.164,0.959,0.491c-0.327,1.605-0.49,3.048-0.49,4.327l0.49,0.713v0.246
		c0,0.922-0.082,1.479-0.244,1.672c0.162,0.878,0.244,1.6,0.244,2.164v1.448c-0.327,0.981-0.565,2.981-0.714,6l0.224,1.204
		l-0.224,1.205l0.224,0.489l-0.469,1.674c0.163,1.354,0.245,2.477,0.245,3.367c0,2.319-0.245,4-0.735,5.04l0.246,0.47v1.204
		l-0.491,0.735c0.326,0.521,0.491,0.997,0.491,1.427c0,0.328-0.083,0.491-0.246,0.491l0.49,4.55h-0.244l0.244,0.491v1.449h0.245
		c7.048-3.375,13.293-6.898,18.734-10.571h0.469l0.49,0.224v-0.224c-0.163,0-0.245-0.082-0.245-0.246l2.651-1.672v0.224
		c-1.439,1.011-2.161,1.813-2.161,2.407h-0.49l-0.469-0.244l0.224,0.49v0.245c-0.388,0-1.108,0.395-2.163,1.183
		c-1.755,0.923-2.952,1.808-3.591,2.653v0.245c1.174-0.163,2.452-0.563,3.836-1.204c0-0.326,0.563-0.729,1.694-1.204
		c2.543-1.457,4.941-3.219,7.202-5.285h0.226c-0.58,1.278-1.059,1.918-1.428,1.918l0.243,0.49v0.959
		c-0.281,0.713-0.93,1.436-1.938,2.163c0,0.401-0.396,0.641-1.184,0.714v1.449h0.714c-0.237,0.641-0.878,1.279-1.918,1.919
		c0,0.477-1.441,1.836-4.326,4.081c-0.49,0-1.213,0.641-2.163,1.918c-0.566,0.58-1.45,1.146-2.654,1.693
		c0,0.356-0.32,0.832-0.959,1.429c0,0.445-1.918,1.167-5.754,2.164C296.956,212.462,295.514,212.863,294.027,212.863
		 M286.823,180.903l0.245-1.203h-0.245l0.245-0.47v-1.672h-0.489v1.427c0,0.164,0.081,0.245,0.244,0.245l-0.244,0.47v1.203H286.823z
		"/>
	<path display="inline" fill="#FFFFFF" d="M339.971,216.7l-7.448-2.633c-0.313,0.163-0.559,0.245-0.736,0.245
		c-3.019-2.007-5.574-4.975-7.672-8.897c0-0.416-0.482-0.975-1.45-1.673c-0.192,0-0.513-0.564-0.959-1.695
		c-0.697,0-1.182-0.639-1.448-1.918c0-0.535-0.074-0.938-0.225-1.204c1.115-4.133,1.673-7.018,1.673-8.653
		c-0.967,0-2.729-1.599-5.284-4.795v-2.877c0-0.356-0.081-0.677-0.245-0.959c0.489-1.323,1.131-2.685,1.918-4.081
		c0-0.401,1.368-1.286,4.104-2.655c3.999-0.729,5.999-1.604,5.999-2.631c0.238,0,0.959-1.123,2.164-3.368
		c1.813-2.244,3.256-3.367,4.326-3.367h1.182c0.402,0.328,0.729,0.49,0.982,0.49v0.469c0,0.164-0.082,0.246-0.246,0.246l0.246,0.468
		c-0.687,0.58-1.487,1.784-2.409,3.613c0.163,0,0.245,0.082,0.245,0.244c0.164,0,2.319-0.4,6.468-1.203l-0.223-0.491v-0.224
		c0.535,0,0.937-0.081,1.204-0.244c0.298,0.163,0.535,0.244,0.714,0.244c0-0.608,4.803-1.412,14.407-2.407
		c1.101,0,2.06-0.082,2.877-0.246c1.294,0.224,1.939,0.461,1.939,0.714l0.468-0.224h0.961v0.715c-0.401,0-1.041,0.082-1.92,0.244
		l-0.489-0.244c-8.713,1.114-15.358,2.313-19.938,3.59c0,0.209-0.318,0.372-0.959,0.491v-0.491c-0.58,0-1.539,0.401-2.877,1.205
		c-0.433,0.327-1.473,0.571-3.122,0.735v0.469c0.4,0,1.122-0.156,2.163-0.469v0.224c0.313-0.147,0.55-0.224,0.714-0.224
		c0.313,0.148,0.559,0.224,0.736,0.224l-0.245-0.47h0.713v0.47h0.246v-0.47c0.163,0,0.245,0.082,0.245,0.246
		c1.647-0.49,2.771-0.893,3.367-1.205v0.715c0.313,0,0.469-0.156,0.469-0.469c-0.164,0-0.245-0.081-0.245-0.246l1.204-0.244h0.245
		c0.313,0.045,0.469,0.209,0.469,0.49h-0.959v0.224c0.803,0,1.204-0.074,1.204-0.224v-0.735h0.49
		c0.387,0.327,0.705,0.489,0.959,0.489l2.163-0.735v0.246l0.47-0.246l0.735,0.491c0-0.163,0.072-0.245,0.224-0.245
		c0,0.164,0.081,0.245,0.245,0.245c0.059-0.326,0.223-0.491,0.49-0.491h0.243v0.491h0.226v-0.715h0.733v0.224h-0.489l0.246,0.491
		c0.19-0.119,1.313-0.282,3.365-0.491v0.246c0.313-0.313,1.754-0.551,4.327-0.714c0,0.595-1.123,1.234-3.368,1.918v0.49
		c0.805,0,1.205,0.156,1.205,0.469c-1.024,0-2.313,0.565-3.856,1.694c-0.699,0-1.576,0.395-2.632,1.183
		c-3.523,0.803-5.286,1.524-5.286,2.164c-5.754,1.293-10.236,3.055-13.448,5.284c0.146,0.894,0.223,1.539,0.223,1.94
		c-1.113,0.254-1.673,0.647-1.673,1.183l-1.204-0.469c0,0.714-0.082,1.19-0.245,1.428h0.49v-0.714h0.714l-0.468,4.327h5.508
		c3.672-0.608,10.081-3.813,19.228-9.613c2.93-2.243,4.771-3.366,5.529-3.366h0.47c0,0.326,0.163,0.489,0.489,0.489v0.47
		l-1.448,0.244c0.161,0.313,0.243,0.559,0.243,0.736c-0.371,1.31-1.729,2.587-4.08,3.836c-0.163,0.282-0.244,0.603-0.244,0.959
		h-0.245l-0.47-0.245c0,0.224-0.482,0.469-1.448,0.735c0,0.372-0.56,0.767-1.673,1.183c0,0.209-0.565,0.527-1.694,0.959l-0.47-0.224
		v0.224c0.163,0,0.246,0.082,0.246,0.245c-0.598,0.521-2.282,1.16-5.063,1.918l0.245,0.49l-0.714,0.96v0.244l1.204,0.246h0.245
		c0.832-0.609,2.513-1.413,5.041-2.409c0.324-0.52,1.604-1.004,3.836-1.449c0.179-0.432,1.063-0.987,2.652-1.673v0.469
		c-0.803,0.772-1.287,1.494-1.45,2.163c-1.813,1.131-3.256,2.253-4.325,3.368v0.244h0.246c0.785,0,1.908-0.557,3.365-1.672h0.714
		c-0.072,0.313-1.353,1.271-3.836,2.877v0.245c0.313,0.045,0.47,0.201,0.47,0.468c-1.103,0.417-2.062,1.221-2.877,2.409
		c-0.237,0-2.237,0.959-5.999,2.877c-2.245,0.641-3.367,1.441-3.367,2.409l-5.531,1.673v-0.246l-3.368,1.205h-0.468
		c0.743,1.44,1.784,2.163,3.122,2.163h3.122c5.501-0.641,10.542-2.081,15.122-4.327c2.542-1.218,5.188-3.301,7.938-6.245
		c2.56-3.195,3.917-5.516,4.081-6.958v-1.203h0.491c0,0.268,0.475,0.669,1.427,1.203c0.271,0.968,0.505,1.45,0.714,1.45
		c-0.118,1.754-0.273,2.631-0.468,2.631l0.245,0.491v0.224c-0.685,1.354-1.725,2.558-3.122,3.612
		c-0.818,1.369-2.424,2.729-4.816,4.082v0.49h-0.245l-0.471-0.245c0,0.269-0.235,0.669-0.713,1.204c0.148,0,0.225,0.073,0.225,0.223
		c-1.132,0.641-1.853,0.959-2.163,0.959v0.736c0.179,0,0.424,0.082,0.733,0.244c0-0.521,1.52-1.485,4.552-2.898
		c0-0.313,0.885-1.106,2.652-2.386c0-0.313,0.804-1.354,2.409-3.124l0.468-1.204h0.491v0.224c0,0.862-0.32,1.666-0.959,2.408
		c0,0.357,0.074,0.678,0.223,0.959c-1.44,2.841-2.558,4.684-3.345,5.531c0.313,0,0.468,0.082,0.468,0.245l1.204-0.736h0.246v0.491
		c-0.477,0-2.001,1.204-4.573,3.611v0.225l0.491-0.225c0.313,0.045,0.469,0.201,0.469,0.47c-1.294,0.269-2.417,1.069-3.367,2.407
		c-2.886,1.115-5.604,1.992-8.161,2.634c-0.687,1.294-3.005,1.938-6.959,1.938C341.89,216.625,341.251,216.7,339.971,216.7
		 M354.38,170.823h-0.245c-0.878-0.163-1.519-0.245-1.918-0.245c0.044-0.313,0.2-0.47,0.469-0.47h0.245
		c0.163,0,0.245,0.075,0.245,0.224c1.529-0.787,2.57-1.183,3.122-1.183v0.224l0.489-0.224h1.184c0,0.521-0.878,0.915-2.632,1.183
		l-0.49-0.224h-0.714v0.224L354.38,170.823z"/>
</g>
<g id="Capa_5" display="none">
	<path display="inline" fill="#FFFFFF" d="M101.337,275.256l-0.233,0.003c-1.279-0.863-2.828-1.688-4.646-2.475
		c-0.877-1.652-1.423-2.484-1.638-2.495l-0.469,0.006l0.007,0.471l-0.448,0.006c-1.318-1.66-2.278-4.644-2.881-8.945l-2.035-14.21
		l0.199-0.922c-0.31-0.776-0.466-1.315-0.471-1.615c-0.001-0.128,0.067-0.739,0.209-1.839c-0.026-1.892-0.901-3.872-2.624-5.939
		c-0.008-0.482-1.037-2.847-3.09-7.086c-0.328-1.233-0.496-2-0.502-2.299l-0.013-0.918c0.944-0.625,1.631-0.939,2.059-0.946
		l-0.197,1.155l0.677-0.479l0.683-0.011l-0.229,0.474c0.061,0.299,0.221,0.445,0.477,0.441l0.233-0.004l0.678-0.457l0.234-0.004
		c0.004,0.299,0.084,0.446,0.241,0.443c0.455-0.006,0.68-0.235,0.673-0.69l1.152-0.019c0.616,0.307,0.928,0.687,0.935,1.142
		l0.677-0.479c0.498,0.035,1.438,1.48,2.814,4.336c0.397-0.005,0.869,0.602,1.413,1.815c0.941,1.183,1.896,3.702,2.86,7.56
		c0.174,1.251,0.341,2.011,0.502,2.277l-0.212,1.626c0.394,3.666,0.726,5.496,0.995,5.492l0.022,1.622
		c0.012,0.841-0.052,1.916-0.188,3.228l0.24,0.444l-0.229,0.473c0.16,0.27,0.243,0.573,0.247,0.915l-0.233,0.003
		c0.324,0.836,0.664,2.745,1.021,5.729l0.213-0.004c1.285-1.727,2.402-4.194,3.354-7.411c1.576-3.296,2.757-6.302,3.544-9.018
		l-0.24-0.443c1.043-2.731,1.852-5.505,2.423-8.316l0.447-0.006l-0.229-1.15c0.44-1.072,0.717-3.146,0.83-6.223
		c-0.189-2.347-0.448-4.029-0.775-5.05l-0.031-2.282c0.598-0.936,1.133-1.404,1.602-1.411l0.452,0.229
		c0.242-0.004,0.854-0.475,1.837-1.413c0.215-0.004,0.444,0.223,0.693,0.675l0.013,0.938l-0.219,1.134l1.155,0.221
		c0.39-0.617,0.77-0.931,1.141-0.936c0.155-0.002,0.231-0.152,0.229-0.452l0.447-0.006c0.008,0.456,0.166,0.682,0.479,0.677
		l0.042,2.987c0.012,0.771,0.243,1.149,0.699,1.144l0.022,1.602c0.002,0.157-0.076,0.236-0.231,0.238
		c0.319,0.493,0.481,0.876,0.485,1.146l0.445-0.24l2.979,14.452c0.002,0.144-0.076,0.215-0.232,0.217
		c0.496,2.91,0.823,4.364,0.98,4.362l0.233-0.004l-0.229,0.474l0.031,2.283c0.461,0.378,0.692,0.683,0.696,0.907l0.234-0.003
		c-0.021-1.408,0.354-2.253,1.117-2.534l-0.241-0.467c0.882-3.044,2.263-8.577,4.143-16.604l0.233-0.003l0.007,0.447
		c0.005,0.271-0.146,0.735-0.449,1.396c0.159,0.297,0.241,0.521,0.243,0.68l-0.228,0.474l0.24,0.443
		c-0.152,0.302-0.228,0.537-0.226,0.708l0.474,0.207l0.447-0.006c-0.009-0.611,0.144-0.92,0.457-0.926l0.214-0.003l-0.221-0.444
		c-0.01-0.77,0.134-1.154,0.433-1.159l-0.241-0.466l0.457-0.924c-0.161-0.298-0.242-0.522-0.244-0.682
		c0.155-0.002,0.458-0.313,0.904-0.932l-0.241-0.466c0.336-2.452,0.702-3.683,1.101-3.688l-0.009-0.684l-0.232-1.386
		c0.128-0.926,0.271-1.392,0.428-1.394c0.302,0.152,0.528,0.228,0.688,0.226l-0.22-0.444l0.918-0.014
		c0.008,0.584-0.56,3.808-1.7,9.674l-0.234,0.003c0.003,0.156,0.081,0.233,0.237,0.23l-0.218,1.155l0.01,0.684l0.448-0.006
		c0.155-0.003,0.386-0.313,0.69-0.93l-0.241-0.466c0.439-1.073,0.657-1.837,0.65-2.293l0.234-0.004l0.45,0.208
		c0.247-1.684,0.549-2.526,0.904-2.532l-0.241-0.466c0.29-0.616,0.654-2.073,1.092-4.371l0.45,0.229
		c-0.002-0.129,0.069-0.592,0.216-1.393l0.47-0.006l0.229,1.148l-0.447,0.006l0.034,2.52l-0.218,1.156l0.469-0.008
		c-0.005-0.354,0.366-0.745,1.115-1.168l0.003,0.233c-1.112,7.871-1.666,12.021-1.66,12.447l0.471-0.008l0.221-0.921l0.215-0.003
		l0.003,0.214c0.009,0.612-0.561,3.688-1.706,9.225l0.036,2.54c-1.162,4.431-2.788,8.742-4.877,12.94
		c0.013,0.927-0.428,2.007-1.32,3.243c-1.233,0.302-1.848,0.694-1.841,1.178l-0.447,0.008l-0.712-0.46l-0.447,0.006l0.006,0.471
		l0.449-0.006l0.003,0.213l-0.684,0.011c-0.004-0.299-0.314-0.603-0.932-0.904l-0.003-0.234l-0.447,0.006l0.006,0.471l-0.234,0.003
		c-0.731-0.474-1.283-1.155-1.651-2.047l-0.444,0.24l-0.684,0.011c-0.257-0.097-0.895-1.313-1.907-3.646
		c-1.851-0.97-2.785-2.188-2.807-3.652c-0.598,0.009-1.563-3.429-2.898-10.313l-0.471,0.006c-0.15,1.384-0.447,2.077-0.888,2.084
		l0.006,0.47c-0.425,2.154-1.302,5.078-2.63,8.77l-0.446,1.629l0.473,0.207c0.027,1.979-1.312,4.914-4.018,8.81l0.241,0.444
		c-0.438,1.159-0.971,1.855-1.594,2.094c0.009,0.567-0.821,1.271-2.488,2.105l-0.684,0.009L101.337,275.256z M106.149,257.705
		c-0.008-0.583,0.43-1.893,1.312-3.926l-0.003-0.233c-0.161-0.281-0.242-0.51-0.245-0.681c0.913-0.853,1.366-1.549,1.357-2.091
		l-0.251-1.147c-0.44,0.006-1.178,1.781-2.209,5.325c-0.156,0.002-0.232,0.081-0.23,0.237l0.241,0.443l-0.686,1.397l0.01,0.684
		L106.149,257.705z M109.056,251.921c0.824-0.012,1.34-1.32,1.546-3.929c0.506-0.42,0.944-2.033,1.318-4.844
		c0.3-0.004,0.442-0.392,0.433-1.158c-0.023-1.692-0.265-2.537-0.72-2.529l0.008,0.47l-0.235,0.004l-0.01-0.684l0.229-0.475
		l-0.234,0.003c0.002,0.157-0.075,0.236-0.231,0.238c-0.002-0.156-0.075-0.233-0.217-0.231l0.221,0.468l0.003,0.213l-0.449,0.008
		l0.005,0.234l0.251,1.147l-0.474-0.229c-0.438,1.188-0.879,2.803-1.318,4.844c-0.344,0.93-0.643,1.396-0.899,1.399l0.011,0.684
		l0.47-0.008l-0.007-0.447l0.449-0.007c0.003,0.229,0.241,0.53,0.717,0.908c0.006,0.455-0.143,1.067-0.443,1.842
		c0.155-0.003,0.235,0.075,0.237,0.23c-0.456,0.008-0.681,0.158-0.676,0.458L109.056,251.921z M111.377,237.863l-0.01-0.683
		l-0.448,0.007l0.182-2.309l-0.008-0.471l-0.213,0.003c-0.138,1.341-0.357,2.417-0.658,3.232L111.377,237.863z M119.509,227.16
		l-0.47,0.008l-0.025-1.836l-0.214,0.004l-0.222,0.921l-0.471,0.007l-0.003-0.214c0.059-1.992,0.2-2.991,0.429-2.994
		c0.07-0.001,0.375-0.083,0.913-0.248L119.509,227.16z M131.691,243.319l0.223-0.921c-0.117-1.223-0.282-1.832-0.496-1.829
		l0.229-0.473l-0.003-0.214c-0.005-0.313-0.164-0.467-0.478-0.463l0.004,0.233c0.171,1.053,0.262,1.891,0.271,2.517l-0.229,0.474
		c0.16,0.296,0.242,0.522,0.244,0.68L131.691,243.319z M132.568,223.774l-0.234,0.003l-0.003-0.232
		c0.319-1.542,0.771-2.316,1.354-2.324l-0.241-0.445c0.667-3.141,1.473-5.527,2.417-7.164l0.471-0.007l0.003,0.234
		c-0.894,2.273-1.335,3.731-1.326,4.374l-0.45-0.229l0.003,0.234l0.242,0.467c-0.304,0.772-0.451,1.31-0.447,1.607l-0.474-0.229
		l0.241,0.467c-0.105,0.613-0.251,0.922-0.436,0.925c0.002,0.156,0.074,0.232,0.217,0.23l-0.423,1.842l-0.473-0.229
		C133.014,223.611,132.867,223.77,132.568,223.774"/>
	<path display="inline" fill="#FFFFFF" d="M145.208,272.332l-1.366,0.021c-0.004-0.301-0.471-0.6-1.399-0.897
		c-2.34-2.414-3.582-8.759-3.728-19.032c-0.144,0.002-0.218-0.302-0.227-0.915c-0.003-0.154,0.067-0.233,0.211-0.235l-0.229-1.149
		l-0.029-2.07c-0.002-0.142,0.067-0.215,0.21-0.217c-0.146-0.296-0.221-0.529-0.223-0.701l0.136-5.509l0.233-0.004
		c-0.002-0.156-0.081-0.232-0.237-0.23c0.17-2.079,0.31-3.307,0.418-3.679c-0.002-0.155-0.082-0.231-0.238-0.229
		c-0.002-0.156,0.072-0.387,0.226-0.688c0.103-3.872,0.138-6.938,0.104-9.202c-0.034-2.504-0.387-5.722-1.054-9.653
		c0.65-1.232,1.332-1.854,2.044-1.865c0.882-0.012,1.421,0.364,1.616,1.131c1.128,0.239,2.136,0.994,3.021,2.263
		c0.007,0.413,0.168,0.866,0.489,1.359l0.444-0.221l0.234-0.003c0.328,2.088,0.494,3.229,0.496,3.43l0.471-0.007l-0.006-0.447
		c0.652-0.01,1.053,1.053,1.196,3.186c0.214-0.004,0.534,1.067,0.963,3.21c0.157-0.002,0.236,0.075,0.239,0.231
		c0.002,0.156-0.076,0.235-0.231,0.237l0.751,4.813c-0.146,0.828-0.214,1.52-0.205,2.073l0.035,2.52
		c0.005,0.355-0.063,0.67-0.2,0.941c0.146,0.282,0.222,0.509,0.224,0.68c-0.476,5.672-0.892,8.511-1.246,8.516l0.258,1.618
		l0.059,4.142c0.005,0.342-0.068,0.647-0.223,0.921c0.16,0.27,0.243,0.572,0.248,0.915l0.003,0.233
		c0.005,0.299-0.15,0.45-0.463,0.455c-0.002-0.156-0.082-0.233-0.237-0.23l0.003,0.233l0.479,0.677l0.007,0.47l-0.813,7.377
		l-1.127,1.853c-0.512,0.008-0.971,0.241-1.377,0.702c0.002,0.156,0.081,0.233,0.237,0.23l-0.201,2.31L145.208,272.332z"/>
	<path display="inline" fill="#FFFFFF" d="M180.144,265.627l-0.214,0.003c-0.313,0.004-0.472-0.145-0.477-0.441l-0.467,0.241
		l-1.365,0.021c-1.835,0.025-2.761-0.424-2.772-1.35c-0.313,0.005-0.472-0.148-0.477-0.463l-0.01-0.685l0.473,0.229l0.684-0.011
		c1.677-0.123,2.507-0.902,2.485-2.341l-0.132-9.412c-0.021-1.422-0.12-3.414-0.299-5.975c0.139-0.271,0.205-0.586,0.2-0.94
		c-0.15-0.566-0.231-1.291-0.244-2.174c-0.003-0.229,0.066-0.345,0.208-0.347c-0.002-0.155-0.074-0.231-0.216-0.229l0.197-1.155
		l-0.007-0.448c-0.028-1.991-0.271-2.983-0.727-2.979c-3.165,1.64-5.296,2.894-6.393,3.763c-4.571,2.84-7.219,5.41-7.94,7.712
		c-1.094,1.083-2.312,1.634-3.647,1.652l-0.45-0.229c-1.234,0.358-1.846,0.909-1.834,1.647c0.025,1.879,0.894,3.396,2.604,4.554
		l0.471,1.596l-0.676,0.479l-0.449,0.007c-2.595-1.387-3.989-2.363-4.183-2.93c-2.638-2.324-4.211-4.906-4.721-7.747
		c-0.06-4.227,3.403-8.878,10.393-13.958c3.849-2.544,7.801-4.819,11.857-6.827c2.742-1.306,4.111-2.094,4.107-2.363l-0.003-0.214
		l-0.479-0.697c0.151-0.301,0.229-0.528,0.226-0.688c-0.313,0.006-0.473-0.22-0.479-0.676c0.121-0.527,0.575-0.997,1.367-1.407
		l0.471-0.007c0.753-0.011,1.448,0.363,2.086,1.124l0.444-0.241l0.684-0.01c0.006,0.428,0.629,0.726,1.87,0.893
		c0.254-0.16,0.559-0.243,0.914-0.248l-0.69,0.928l0.003,0.234l2.976-0.96c0.301,0.152,0.536,0.229,0.708,0.226
		c-0.006-0.342,1.519-0.747,4.571-1.218c1.985-0.439,2.978-0.839,2.973-1.194c0.171-0.002,0.398,0.072,0.687,0.226
		c0.342-0.004,1.568-0.248,3.683-0.734l-0.24-0.466l-0.004-0.234l0.473,0.229l0.445-0.241l1.155,0.22l0.229-0.452l1.156,0.196
		l0.918-0.012l-0.008-0.449l0.449-0.006l0.006,0.447l0.471-0.006c1.294-0.021,2.899-0.19,4.816-0.519l0.474,0.229l1.127-0.25
		l0.705-0.011l0.003,0.234l-0.918,0.014l0.003,0.213c0.696-0.011,1.155,0.219,1.376,0.687l0.466-0.241l0.449-0.007
		c0.313,0.039,0.473,0.187,0.477,0.441l-0.471,0.006c0.004,0.271,1.699,0.866,5.085,1.786l0.241,0.443l-0.449,0.007
		c-0.341,0.006-1.188-0.062-2.543-0.198c-0.269,0.161-0.572,0.242-0.914,0.248l-0.006-0.447l-1.152,0.016l0.003,0.214l0.471-0.007
		l0.009,0.704l-0.47,0.007l-2.308-0.201c0.004,0.299-0.144,0.449-0.442,0.454c-0.156,0.002-0.235-0.066-0.237-0.211
		c-1.892,0.17-3.268,0.494-4.128,0.978l-0.451-0.229c-2.298,0.545-3.444,0.945-3.441,1.201l0.234-0.003
		c4.106-0.371,7.17-0.722,9.187-1.048c0.005,0.342-0.917,0.583-2.766,0.722l0.242,0.467l0.003,0.214
		c-1.552,0.021-5.521,1.073-11.91,3.156c-1.423,1.104-2.487,1.736-3.196,1.902l-0.451-0.229c-1.07,0.783-2.901,1.649-5.492,2.598
		l-0.229,0.474c0.188,2.146,0.291,3.98,0.313,5.503l0.251,1.148l-0.234,0.005l0.24,0.466l0.003,0.234
		c0.003,0.143-0.074,0.215-0.23,0.217l0.241,0.466l0.003,0.234c-0.61,0.081-0.913,0.313-0.908,0.695l0.462,0.911
		c-0.152,2.309-0.364,3.464-0.635,3.468l0.241,0.444l0.063,4.375c0.002,0.157-0.075,0.235-0.23,0.238l0.24,0.444
		c-0.306,0.616-0.528,0.925-0.67,0.927c0.146,0.298,0.222,0.531,0.224,0.702c-0.423,2.41-0.621,4.405-0.6,5.983l0.007,0.449
		c-0.538,1.231-1.142,1.853-1.811,1.86l0.021,1.388c-0.555,0.008-0.932,0.547-1.13,1.616
		C181.192,265.306,180.428,265.624,180.144,265.627 M158.62,239.502c-0.007-0.428,2.802-2.614,8.425-6.564l0.234-0.004l0.451,0.229
		c0.149-0.458,0.304-0.688,0.46-0.688c0.302,0.138,0.529,0.206,0.687,0.203c0.081-0.327,2.666-1.667,7.756-4.017l-0.003-0.234
		l-0.235-1.599c-0.398,0.007-0.937,0.241-1.611,0.706l-2.071,0.028l-0.45-0.207c0.007,0.483-0.604,1.104-1.831,1.861l0.004,0.234
		l-0.452-0.229c0.005,0.354-1.137,1.134-3.425,2.333l-3.87,2.595c-2.06,1.367-3.346,2.538-3.856,3.513
		c-0.612,0.01-0.91,0.548-0.896,1.613C158.104,239.275,158.333,239.35,158.62,239.502 M186.012,224.621
		c0.227-0.003,1.142-0.242,2.743-0.723l0.003,0.234l0.911-0.482l0.474,0.229c1.059-0.627,1.821-0.943,2.292-0.951l0.684-0.009
		l-0.011-0.705l0.684-0.009l0.474,0.229c0.038-0.301,0.187-0.451,0.441-0.455l1.154,0.197l0.912-0.462l1.391,0.217
		c-0.003-0.258,0.526-0.499,1.591-0.729l-0.003-0.215l-0.451-0.229l-0.697,0.458c-1.019-0.44-1.711-0.658-2.08-0.653l-0.214,0.003
		l0.013,0.918c-0.516-0.292-0.98-0.436-1.393-0.429l0.006,0.447l-0.474-0.229l-0.447,0.008c-0.62,0.465-1.464,0.711-2.53,0.739
		l-0.452-0.229c-0.608,0.166-1.142,0.251-1.597,0.258l0.003,0.213l0.684-0.009l0.01,0.704c0.004,0.299-0.15,0.449-0.463,0.455
		c-0.009-0.612-0.319-0.914-0.932-0.905c-0.152,0.302-0.228,0.53-0.225,0.687l-0.448,0.007l-0.007-0.447l-1.152,0.018l0.004,0.233
		l0.251,1.148l-1.156-0.219l-0.229,0.451l0.003,0.234L186.012,224.621z"/>
	<path display="inline" fill="#FFFFFF" d="M216.157,277.778l-0.925-0.437c-0.296,0.146-0.529,0.222-0.7,0.225l-0.922-0.2
		c-0.296,0.146-0.522,0.221-0.68,0.223c-0.006-0.396-0.552-0.694-1.636-0.895c-0.354-0.894-0.978-1.646-1.866-2.258
		c-0.936-1.64-1.657-3.928-2.168-6.865l0.228-0.473c-0.16-0.298-0.241-0.521-0.243-0.681l0.234-0.004
		c-0.277-0.494-0.613-2.639-1.009-6.433l0.234-0.004c-0.3-0.92-1.168-8.108-2.609-21.565c-0.157,0.002-0.402-1.226-0.735-3.684
		c-0.002-0.155,0.072-0.386,0.226-0.688c-0.022-1.593-0.974-3.345-2.85-5.254c-0.002-0.1-0.4-1.169-1.197-3.207
		c0.161-0.686,0.693-1.227,1.6-1.623l0.234-0.004l0.006,0.447c1.077-0.313,1.688-0.472,1.829-0.475l0.234-0.004l0.021,1.389
		l0.448-0.006l-0.229,0.451l0.004,0.233c0.313-0.004,0.47,0.071,0.474,0.229l1.818-1.179l0.234-0.003l0.003,0.234
		c-0.152,0.287-0.229,0.516-0.226,0.687c0.156-0.002,0.236,0.075,0.238,0.23c0.297-0.159,0.522-0.241,0.681-0.243
		c1.338,0.064,2.734,1.271,4.191,3.611c0.014,1.011,0.568,2.54,1.666,4.588c1.219,9.815,1.836,15.173,1.849,16.069l0.235-0.005
		c3.479-0.519,6.079-0.79,7.801-0.813l0.918-0.014c1.381-0.02,2.059-0.867,2.034-2.549l0.234-0.003l-0.241-0.466l-0.004-0.215
		c0.77-0.011,1.473-4.624,2.11-13.841c-0.313,0.004-0.472-0.145-0.478-0.441l-0.02-1.388c0.824-0.013,1.434-0.247,1.825-0.709
		l0.47-0.007l0.229,1.148c-0.145,0.002-0.213,0.075-0.21,0.217l0.45,0.229c-0.002-0.155,0.073-0.235,0.231-0.237l-0.242-0.444
		l-0.003-0.234c1.01-0.015,1.615-0.484,1.815-1.412l0.47-0.008c0.003,0.171,0.083,0.404,0.244,0.701l0.444-0.241l0.234-0.003
		c0.007,0.513,0.09,0.896,0.251,1.147l0.444-0.239c0.313,0.037,0.473,0.191,0.477,0.463l0.003,0.213l-0.469,0.008l0.003,0.234
		l0.704-0.012l0.207-0.45c-0.146-0.297-0.222-0.53-0.224-0.701l0.447-0.007c0.937,0.799,1.408,1.481,1.417,2.052l0.684-0.011
		l0.467-0.24l-0.241-0.444c0.038-0.313,0.187-0.474,0.44-0.477c1.139-0.018,1.762,0.21,1.867,0.678l0.006,0.448
		c0.005,0.313-0.229,0.474-0.696,0.479c0.634,1.585,0.953,2.577,0.96,2.977c-0.713,3.056-1.035,6.888-0.97,11.497l0.451,0.229
		c-0.002-0.157,0.073-0.236,0.229-0.238c0.005,0.313,0.085,0.469,0.241,0.467l0.911-0.482l0.003,0.234
		c0.008,0.456-0.602,0.771-1.821,0.943l0.021,1.388l1.602-0.021l2.979-0.728c0.002,0.145,0.081,0.214,0.237,0.211
		c-0.004-0.299,0.604-0.534,1.826-0.708l0.003,0.232c0.003,0.2-0.985,0.748-2.965,1.645c0.009,0.61-1.362,1.32-4.11,2.129
		l0.006,0.471l1.148-0.252c0.156-0.002,0.235,0.075,0.238,0.23c0.296-0.159,0.521-0.241,0.68-0.243l0.471-0.008l0.003,0.234
		c-1.848,0.254-2.768,0.571-2.763,0.957c0.008,0.455-0.067,0.685-0.226,0.688l0.241,0.466c-0.28,1.3-0.419,2.063-0.416,2.29
		l0.232,1.385c0.021,1.408-0.388,4.938-1.218,10.585l-0.47,0.006l-0.007-0.448l-0.213,0.004l0.042,2.987l-0.705,0.011l-0.928-0.671
		c0.004,0.257-0.371,0.951-1.123,2.086c0.022,1.638-0.42,2.562-1.326,2.773c0.007,0.454-0.76,0.693-2.297,0.715l-0.233,0.004
		c-0.007-0.456-0.236-0.681-0.691-0.674l-0.234,0.004l-0.025-1.836c-0.005-0.355-0.088-0.66-0.248-0.914
		c-0.002-0.157,0.075-0.235,0.231-0.237c-0.005-0.313-0.085-0.47-0.241-0.468c0.271-5.822,0.539-8.737,0.795-8.742l-0.221-0.466
		c0.283-1.058,0.42-1.978,0.408-2.76l-0.024-1.836l0.219-1.155c-0.375-0.294-0.684-0.438-0.924-0.436
		c-2.257,0.486-3.787,0.886-4.595,1.195l0.02,1.388c-0.396,0.006-0.92,0.858-1.563,2.563l-2.006,4.618
		c-0.297,0.162-0.522,0.242-0.681,0.245l0.026,1.835c0.005,0.369-0.369,1.063-1.123,2.087c0.013,0.909-0.139,1.367-0.451,1.372
		l0.242,0.467c-1.206,1.326-1.807,2.104-1.803,2.331l0.016,1.151l0.241,0.444C216.55,276.854,216.248,277.164,216.157,277.778
		 M215.552,268.137c0.896-1.01,2.546-3.565,4.95-7.671c-0.002-0.142,0.075-0.215,0.231-0.217l0.01,0.685l0.448-0.007
		c-0.011-0.642,0.137-1.41,0.438-2.313l-0.234,0.004l0.003,0.234c-0.155,0.002-0.234-0.074-0.236-0.23
		c-2.506,0.961-3.95,1.442-4.334,1.447c-1.047-0.439-1.661-0.658-1.847-0.656l0.011,0.685c0.005,0.342,0.079,0.646,0.226,0.914
		c0.004,0.156-0.067,0.235-0.21,0.237C215.158,261.945,215.34,264.241,215.552,268.137 M220.793,264.37
		c-0.007-0.497,0.512-1.572,1.556-3.225l1.119-2.32l-0.006-0.471l-0.234,0.004c-0.869,0.994-1.541,2.234-2.019,3.722
		c-0.101,0.002-0.399,0.391-0.901,1.166l0.018,1.131L220.793,264.37z M226.79,249.128c0.691-2.329,1.209-3.565,1.548-3.715
		c-0.165-0.607-0.399-1.14-0.705-1.591l0.438-0.689l-0.214,0.005c-0.256,0.003-0.563,0.541-0.916,1.612l0.252,1.148
		c-0.063,0.613-0.285,0.922-0.671,0.928l0.004,0.234l0.24,0.443l-0.471,0.009l0.018,1.15
		C226.374,248.979,226.534,249.132,226.79,249.128 M231.225,269.987c0.282-1.156,0.423-1.85,0.419-2.076
		c-0.002-0.157-0.081-0.232-0.236-0.229l0.219-1.156l-0.036-2.521l-0.273-2.771l0.234-0.003l-0.24-0.444l-0.021-1.602
		c-0.003-0.156,0.073-0.235,0.229-0.238c-0.16-0.196-0.245-0.735-0.258-1.618c-0.299,0.063-0.445,0.22-0.44,0.478l0.021,1.601
		c0.014,0.884-0.058,1.425-0.212,1.625c0.168,0.824,0.258,1.513,0.265,2.067l0.1,6.895L231.225,269.987z M232.797,267.894
		c0.37-0.005,0.587-0.776,0.649-2.314c-0.146-0.296-0.221-0.521-0.224-0.681l0.448-0.006l-0.013-0.918
		c-0.006-0.313-0.156-0.469-0.455-0.463l0.196-1.155l-0.031-2.283c-0.002-0.156,0.073-0.236,0.229-0.238l-0.24-0.467
		c-0.003-0.156,0.071-0.386,0.226-0.687l-0.479-2.063c0.143-0.002,0.213-0.08,0.211-0.238l-0.448,0.009l0.021,1.62
		c0.005,0.343-0.068,0.649-0.222,0.923c0.002,0.155,0.081,0.232,0.237,0.229l-0.22,1.135l0.007,0.471l0.259,1.598l-0.235,0.004
		l0.241,0.466l0.007,0.449c0.005,0.313-0.15,0.471-0.463,0.476c0.318,0.494,0.482,0.954,0.488,1.382l0.017,1.132L232.797,267.894z"
		/>
</g>
<g id="Capa_6" display="none">
	<path display="inline" fill="#FFFFFF" d="M293.344,288.474l-0.616-0.112c-2.071-0.379-3.426-0.934-4.063-1.668l-1.261,0.089
		c-0.317-0.059-0.842-0.567-1.571-1.53l-0.667,0.168c-1.341-0.572-2.429-2.017-3.259-4.325l-0.673,0.193l-0.587-0.105
		c-3.584-4.241-5.271-6.938-5.06-8.098c-2.127-7.678-2.363-16.029-0.716-25.063c-0.148-0.026,0.073-2.994,0.671-8.9l0.31,0.058
		c-0.226-1.103-0.301-1.839-0.231-2.213c0.37-1.186,0.688-1.754,0.947-1.705l-0.225-9.065c0.373,0.068,0.846-0.78,1.42-2.547
		c0.801,0.146,1.239,0.016,1.314-0.396l0.058-0.309l0.308,0.058l0.783,0.778c0.429,0.077,1.136-0.419,2.123-1.492
		c0.225,0.041,0.551-0.005,0.979-0.14l-0.11,0.616l1.566-0.032c-0.113,0.615-0.076,0.939,0.11,0.975
		c0.315-0.151,0.84-0.163,1.565-0.029c-0.085,0.466,0.468,0.876,1.656,1.227l-0.057,0.31l-0.415,0.531
		c0.409,0.074,0.578,0.317,0.503,0.729l0.28,0.051c0.204,0.038,1.054-0.02,2.547-0.171l0.896,0.164l-0.389,2.127l-0.779,0.783
		l0.813,0.784l-1.746,4.337c-0.001,0.426,0.167,0.667,0.503,0.729c-0.635,2.313-1.049,4.004-1.243,5.066l-0.056,0.308l-0.239,3.052
		l-0.309-0.057l0.194,0.672l-0.057,0.31c-0.59,3.229-1.354,9.104-2.294,17.629l-0.31-0.058c0.12,0.505,0.235,2.193,0.349,5.066
		l-0.584,1.456c0.271,0.725,0.358,1.355,0.261,1.896l-0.393,0.564c0.987,0.18,1.3,1.277,0.932,3.294
		c0.336,0.062,0.637,0.733,0.904,2.017c0.987,0.181,3.836-1.787,8.539-5.902c2.903-3.346,6.293-9.378,10.162-18.103l0.771-4.226
		l0.075-2.155l0.308,0.057l-0.201-0.645c0.087-0.466,0.265-0.857,0.533-1.175c0.84-7.984,1.405-12.76,1.691-14.327
		c0.904-0.836,1.956-1.475,3.154-1.911l0.161-0.896l0.591,0.105l-0.107,0.588l0.895,0.163c1.281-1.212,2.315-1.746,3.102-1.604
		l0.2,0.645l0.667-0.168l0.588,0.107l-0.164,0.896l0.308,0.059l1.568-0.031l1.599,1.535l-0.168,0.924l1.203,0.22l0.113-0.615
		c0.354,0.277,0.633,0.436,0.839,0.473c0.429-0.135,0.746-0.183,0.952-0.146c1.179,1.566,1.595,3.301,1.248,5.203
		c-0.206-0.038-0.327,0.047-0.364,0.252c0.378,0.146,0.536,0.388,0.475,0.724c-0.683,0.356-1.106,1.004-1.276,1.937l-0.311-0.057
		l-0.255-1.927c-0.425-0.001-0.667,0.167-0.729,0.503l-0.771,4.228c-0.348,1.901-0.874,4.198-1.576,6.885l0.037,1.54
		c-2.733,7.907-4.932,13.118-6.586,15.63c-0.206-0.036-0.326,0.048-0.364,0.252l-0.494,2.716l-0.238,3.052
		c-0.803-0.146-1.354,0.593-1.648,2.216l-0.308-0.058c-0.119,0.653-0.122,2.938-0.008,6.854l-0.311-0.057l0.201,0.645l-0.276,1.512
		c-0.08,0.447-0.258,0.83-0.525,1.147c0.134,0.429,0.182,0.747,0.145,0.952c-0.445-0.082-0.77-1.173-0.965-3.271l-0.28-0.051
		c-0.031,0.188-0.151,0.261-0.356,0.224c0.004,2.198,0.121,4.408,0.351,6.63c-0.274,0.354-0.434,0.636-0.471,0.84
		c-0.318-0.06-0.633-2.295-0.944-6.709l-0.308-0.058l-0.415,0.532l-0.057,0.308l0.613,0.112l-0.332,1.819l0.589,0.106
		c-0.036,0.205-0.157,0.288-0.362,0.251l0.198,0.646l-0.161,0.896l-0.537-0.388c-0.034,0.188-0.154,0.262-0.359,0.224
		c-0.396-1.307-0.704-3.646-0.916-7.021l-0.587-0.106c-0.28-0.052-0.848,0.78-1.7,2.494c-0.392-0.07-1.602,0.855-3.631,2.779
		l0.201,0.645c-0.665,0.572-2.187,0.922-4.561,1.047C294.271,287.352,293.426,288.026,293.344,288.474 M310.232,296.562
		l-0.896-0.164c0.063-1.511,0.022-2.454-0.12-2.827c0.268-0.298,0.463-0.782,0.585-1.454l0.613,0.111l-0.22,1.204l-0.415,0.53
		c0.354,0.277,0.633,0.435,0.839,0.473l-0.056,0.309l-0.751,0.788c0.378,0.146,0.537,0.388,0.475,0.724L310.232,296.562z"/>
	<path display="inline" fill="#FFFFFF" d="M332.228,299.017l-5.933-1.721l-0.646,0.201c-2.351-1.065-3.995-2.303-4.934-3.707
		c-2.224-2.622-3.234-4.466-3.04-5.53c0.034-0.186-0.022-1.034-0.171-2.547l0.051-0.279l0.421-0.561
		c-0.262-0.047-0.712-0.958-1.353-2.733l0.163-0.896c0.037-0.204,0.85-0.685,2.433-1.437l-0.032-1.566
		c4.005-1.97,6.659-2.833,7.966-2.597l-0.057,0.31c-0.146,0.803-1.149,2.276-3.006,4.426l-0.059,0.309
		c0.431,0.078,1.484,0.58,3.167,1.504l5.229,0.349l-0.058,0.309c1.382,0.041,2.742-0.029,4.088-0.208l2.044,0.69
		c2.994,0.064,6.944-1.083,11.851-3.446c1.419-0.801,2.916-2.186,4.49-4.154c1.202-0.879,1.891-1.795,2.063-2.747
		c-10.737-4.446-16.487-7.061-17.252-7.836c-0.076,0.411-0.317,0.578-0.729,0.503c-6.764-2.987-10.583-5.345-11.464-7.066
		c-0.858-0.157-2.188-1.44-3.982-3.853c-0.513-0.149-1.375-1.656-2.587-4.521c-0.484-0.088-0.86-0.88-1.128-2.375
		c-0.802-0.146-1.021-1.229-0.651-3.242c0.613-3.358,2.146-6.097,4.595-8.214c1.589-1.831,3.31-3.28,5.162-4.352
		c1.125-0.776,1.913-1.665,2.366-2.662c3.484-1.657,5.497-2.438,6.038-2.34c4.448,1.295,7.614,2.703,9.496,4.224
		c4.178,3.309,6.069,6.045,5.675,8.209l-0.438,2.405l-0.616-0.111l-0.058,0.309l0.195,0.672l-1.563,0.004
		c-0.654-0.117-2.011-1.193-4.066-3.229c-3.729,0.785-6.023,1.407-6.877,1.868c-0.343,0.921-1.868,1.886-4.578,2.896
		c-0.063,0.335-1.253,1.158-3.575,2.471c-1.548,1.607-2.354,2.599-2.423,2.972c3.699,2.546,10.003,5.566,18.908,9.063
		c7.991,3.542,12.745,6.493,14.263,8.854c5.497,4.107,8.101,6.965,7.808,8.568l-0.616-0.111c0.096-0.521-0.823-1.723-2.756-3.6
		l-0.615-0.11l-0.051,0.278c0.463,2.63,1.578,4.501,3.342,5.613c-0.048,0.262,0.29,1.259,1.016,2.99
		c-0.421-0.021-0.662,0.141-0.724,0.477l-0.188,2.771c-0.277,1.53-1.701,2.515-4.271,2.951c-0.118,0.652-1.209,1.496-3.268,2.525
		c-0.185,1.008-2.057,2.122-5.613,3.343c-0.07,0.393-1.6,1.356-4.578,2.896c-0.644,0.134-0.995,0.387-1.063,0.76l-0.309-0.057
		l-0.531-0.415c-0.266,1.455-2.437,2.516-6.51,3.179c0.112-0.615-0.036-0.961-0.446-1.036c-0.819,0.795-2.032,1.201-3.635,1.217
		l-1.764-0.641l-0.588-0.105c-0.448-0.082-0.869-0.054-1.262,0.088l-0.56-0.42c-0.395,0.142-0.813,0.169-1.26,0.088l-0.532-0.416
		L332.228,299.017z"/>
	<path display="inline" fill="#FFFFFF" d="M379.117,276.209l-0.899-0.892l-0.771,0.229c0.092-0.514-0.308-0.938-1.194-1.272
		c-0.534-2.324-0.728-3.904-0.576-4.738l0.354,0.063c-0.481-1.257-0.557-2.814-0.225-4.677l0.499-2.792
		c0.759-4.234,3.938-15.434,9.55-33.59l0.706,0.126l0.184-1.026c0.287-1.604,0.065-4.381-0.663-8.33
		c0.14-0.771,0.123-1.369-0.043-1.796c0.716-1.284,2.11-1.742,4.188-1.371l-0.247,1.38l1.731,0.31
		c-0.313,0.389-0.49,0.707-0.536,0.965l1.38,0.247l0.77-0.229c-0.123,0.687,0.158,1.088,0.843,1.21l1.916-0.716l0.354,0.063
		l-0.479,0.644c3.422,0.744,4.979,1.973,4.675,3.685l0.706,0.126l-0.368,2.054c0.808,2.153,1.137,3.646,0.985,4.48l-1.05,5.871
		c-2.256,4.587-3.608,8.151-4.063,10.698c-0.792-0.144-2.239,1.973-4.348,6.342c-1.515,4.521-3.17,7.789-4.965,9.808
		c-0.101,0.559-0.726,1.396-1.873,2.514c-1.137,2.401-1.811,4.191-2.021,5.368l-0.645-0.479l-0.354-0.063
		c-0.639,0.351-1.139,0.491-1.5,0.428C380.476,274.543,379.802,276.332,379.117,276.209 M380.07,312.737l-1.025-0.184l-1.014-2.301
		l-2.687,0.942l-0.32-0.058c-1.403-2.15-2.513-3.297-3.324-3.442c-1.473-1.765-2.058-4.484-1.753-8.16
		c-0.215-0.037-0.258-0.409-0.132-1.115l0.677-3.786c1.284,0.229,2.675-0.945,4.175-3.525c3.085,0.772,5.375,1.293,6.872,1.562
		c-0.084,0.472,0.869,1.128,2.86,1.97c-0.142,0.792,0.234,2.636,1.13,5.532l-0.479,0.644c0.152,0.491,0.211,0.854,0.169,1.09
		c-0.729,0.113-1.192,0.747-1.399,1.902l0.674,0.119l-0.858,4.813C381.36,310.826,380.174,312.159,380.07,312.737"/>
</g>
</svg>
