<svg xmlns="http://www.w3.org/2000/svg" width="442" height="397" viewBox="0 0 441.045 396.605"><g fill="#fff"><path d="M152.542 141.775c-.652-.51-2.23-1.018-4.734-1.524-.03-.265-1.332-.622-3.908-1.075-.02-.186-.57-.55-1.65-1.09l-.058-.512 1.772.063.768-.084c.326-.036.47-.218.436-.544-.06-.526-2.092-4.444-6.1-11.755-.112-1.022-1.235-3.52-3.368-7.49-3.1 1.362-6.52 2.5-10.263 3.416-.02-.17-.113-.246-.284-.228.056.496-.412.885-1.4 1.166-2.767.965-4.082 2.044-3.95 3.236-.685 3.467-1.427 5.9-2.227 7.33l.085.77c.495-.056.762.08.798.405l.027.257-.518-.202-.51.057c-.354 1.357-.508 2.222-.468 2.594l-.54-.198c.048.433-.4.992-1.346 1.678.034.31-.715 1.915-2.246 4.814l-.485.29-.488.055-1.082-.635-.256.028c-.32.082-.465.27-.433.564.19.293.295.532.315.72l-.46.31c-.236-.146-.664-.187-1.283-.116.054.494-.252.78-.918.854l-4.326-2.3c-1.38.15-2.952-1.872-4.72-6.07l-.167-1.513c2.78-4.794 4.658-8.47 5.633-11.024-.04-.356.4-.994 1.318-1.91l2.833-8.67c-.18-.073-.33-.653-.45-1.738.9-2.626 1.518-3.958 1.843-3.993.93-2.802 2.312-8.706 4.142-17.71l1.676-5.505c-.207-.308-.318-.545-.338-.717.62-.067 1.452-.92 2.495-2.56l1.022-.112.344.976.256-.027c.34-.038.492-.228.455-.57l2.517-.02.512-.057c.056.497.245.726.57.69l.257-.028c-.056-.495.088-.763.43-.8l.257-.028c.33.01.512.164.545.458l.482-.313.232-.026.11 1 .513-.056c.325-.036.47-.226.433-.565l-.026-.232-.288-.485 1.228-.396.488-.054-.2.54.082.744c.34-.037.55.277.622.943l2-.22c.02.17-.06.266-.23.284.17.828.473 1.22.906 1.17l.164 1.487c.29 1.772.925 2.975 1.903 3.604.01.078.356.888 1.045 2.426l.46-.31.257-.03 1.415 3.657c.496-.055.8.415.908 1.406-.17.02-.246.113-.228.284l.54.198-.028-.256c-.172.02-.266-.056-.284-.228l.77-.085c.12.943.818 2.728 2.097 5.348-.07.935-.08 1.61-.035 2.027l.54.2c-.02-.17.057-.266.23-.284.036.342.652 1.372 1.847 3.092l9.197-1.77.058.51-.513.058.393 1.204-4.833 2.063.29.485c.087.8-.603 1.37-2.068 1.734l.028.256.487-.055.058.513-.407.798.055.487 4.5 10.92c.03.264.23.578.6.945l.027.256c.02.172-.058.266-.23.284l2.976 6.263c-.155.017-.224.1-.205.28.714-.08 1.742 2.42 3.09 7.497-.56.063-.924.525-1.095 1.393l-1.513.167c.053.516-.338.818-1.175.9m-37.046-41.552c.35-.117.635-.572.86-1.367-.188-.275-.302-.603-.343-.975.387-.043.982-1.544 1.785-4.505l-.313-.482-.027-.256c.8-1.14 1.14-2.612 1.02-4.42l-1 .11.057.51.512-.056c-1.926 5.596-2.776 9.41-2.552 11.44m8.26 12.764c.853-.094 3.538-1.064 8.06-2.913l-.027-.257c-.04-.355-1.606-3.814-4.7-10.38l-.025-.232c-.677 1.127-1.31 3.056-1.902 5.79a27.7 27.7 0 0 1-1.257 6.965l-.256.027.108 1zm23.685 10.073l-.027-.256c-.02-.2-.2-1.02-.53-2.46l.118-1.283c-.172.02-.267-.057-.285-.228l-.46.3-.51.058c-.13-1.18-.53-1.73-1.195-1.657 1.43 3.733 2.394 5.572 2.89 5.517"/><path d="M166.168 132.15c-1.24.138-2.458-.152-3.65-.867-.307.206-.545.318-.715.337-.83-1.26-1.407-1.87-1.733-1.833l.055.488c-.92-.23-1.66-.82-2.222-1.78l-1.62-.833c-.037-.34-.702-1.027-1.993-2.063-.018-.154-.298-1.136-.843-2.942-.326-2.962-.784-10.945-1.372-23.952l-.137-1.232c-.02-.17.057-.266.23-.284-.02-.17-.114-.246-.284-.228l.07-20.04c.666-.072.963-.442.9-1.11l.256-.027c.17-.02.267.057.283.228l.46-.3 1.256-.14c1.834.552 3.077 1.09 3.732 1.61.02.172.197.237.54.2l.02 2.54.025.232c.264-.028.615.104 1.057.4-.157 1.712-.16 3.235-.015 4.568l.595.688.027.256c.105.962.085 1.552-.063 1.77.27.896.44 1.64.505 2.23l.167 1.51c-.23 1.062-.247 3.175-.054 6.34l.37 1.23-.094 1.28.29.486-.297 1.798c.326 1.393.54 2.553.645 3.482.268 2.42.204 4.198-.188 5.34l.31.46.14 1.257-.428.823c.4.507.627.982.677 1.433.037.34-.03.52-.2.54l1.036 4.688-.256.028.313.482.167 1.513.256-.028c6.96-4.33 13.065-8.724 18.316-13.18l.49-.055.536.178-.025-.232c-.17.02-.265-.057-.283-.23l2.574-2.05.025.23c-1.388 1.222-2.047 2.142-1.98 2.762l-.51.057-.518-.2.29.485.027.256c-.402.045-1.11.54-2.12 1.48-1.724 1.164-2.87 2.224-3.438 3.18l.027.256c1.206-.306 2.492-.87 3.86-1.697-.038-.34.505-.823 1.628-1.45 2.484-1.813 4.784-3.926 6.903-6.34l.232-.025c-.457 1.4-.882 2.12-1.27 2.164l.313.482.11 1c-.213.777-.804 1.604-1.773 2.48.046.418-.338.712-1.15.88l.167 1.51.744-.082c-.175.694-.77 1.436-1.78 2.222.056.496-1.292 2.08-4.042 4.754-.51.057-1.19.807-2.035 2.248-.52.67-1.38 1.36-2.57 2.072.04.372-.237.905-.836 1.6.053.465-1.864 1.438-5.75 2.918-1.363.998-2.82 1.582-4.37 1.754m-11.2-32.495l.117-1.284-.257.027.202-.517-.19-1.744-.513.057.164 1.488c.02.17.112.247.284.23l-.2.516.14 1.257.256-.03z"/><path d="M201.98 128.198c-1.24.137-2.458-.153-3.65-.868-.307.206-.545.318-.715.337-.83-1.258-1.407-1.87-1.733-1.833l.055.49c-.92-.23-1.66-.822-2.222-1.78l-1.62-.834c-.037-.34-.702-1.027-1.993-2.063-.018-.153-.298-1.135-.843-2.942-.326-2.96-.784-10.945-1.372-23.952l-.137-1.232c-.02-.17.057-.266.23-.284-.02-.17-.114-.245-.284-.228l.07-20.04c.666-.072.963-.442.9-1.11l.256-.027c.17-.02.266.058.283.228l.46-.3 1.256-.14c1.834.552 3.077 1.1 3.732 1.612.02.172.197.236.54.2l.02 2.54.025.23c.264-.028.615.104 1.057.4-.157 1.713-.16 3.235-.015 4.568l.595.688.027.256c.105.962.085 1.553-.063 1.77.27.896.44 1.64.505 2.23l.167 1.512c-.23 1.062-.247 3.174-.054 6.338l.37 1.23-.094 1.28.29.486-.296 1.798c.325 1.393.54 2.553.644 3.482.268 2.42.204 4.2-.188 5.34l.31.46.14 1.256-.428.824c.4.506.627.982.677 1.432.037.342-.028.52-.2.54l1.036 4.688-.256.027.313.483.167 1.512.256-.028c6.96-4.33 13.065-8.724 18.316-13.18l.49-.054.537.177-.026-.232c-.17.02-.265-.057-.283-.23l2.574-2.05.025.23c-1.388 1.222-2.047 2.142-1.98 2.76l-.51.057-.518-.2.29.485.027.256c-.402.045-1.11.54-2.118 1.48-1.725 1.164-2.87 2.224-3.438 3.18l.027.256c1.206-.306 2.493-.87 3.86-1.696-.038-.342.506-.824 1.628-1.45 2.484-1.813 4.784-3.926 6.903-6.34l.232-.026c-.457 1.4-.882 2.12-1.27 2.164l.313.482.108 1c-.213.777-.804 1.604-1.772 2.48.046.418-.338.712-1.15.88l.167 1.51.744-.082c-.175.695-.77 1.436-1.78 2.222.057.497-1.293 2.08-4.042 4.754-.51.057-1.19.807-2.034 2.248-.523.67-1.38 1.36-2.572 2.072.04.372-.237.905-.836 1.6.052.466-1.865 1.438-5.75 2.918-1.363 1-2.82 1.585-4.37 1.756m-11.2-32.496l.117-1.284-.257.027.202-.516-.19-1.745-.513.058.164 1.487c.02.17.113.247.284.23l-.2.517.14 1.256.256-.03z"/></g></svg>