<svg xmlns="http://www.w3.org/2000/svg" width="442" height="397" viewBox="0 0 441.045 396.605"><g fill="#fff"><path d="M233 152.94l-1.41-.22c.05-.31-.38-.7-1.284-1.17-1.988-2.895-2.16-9.647-.516-20.257-.146-.022-.172-.35-.073-.98.024-.16.11-.23.26-.208l-.036-1.225.332-2.138c.02-.146.105-.21.254-.187-.1-.332-.135-.585-.106-.763l1.104-5.65.24.038c.024-.16-.043-.256-.203-.28l1.07-3.716c.024-.16-.043-.255-.205-.28.026-.16.144-.385.354-.668l1.717-9.462c.4-2.586.603-5.963.603-10.13.886-1.155 1.694-1.68 2.43-1.563.91.143 1.4.624 1.47 1.446 1.118.444 2.024 1.396 2.716 2.858-.064.427.022.922.268 1.485l.497-.147.24.036-.088 3.62.484.075.072-.463c.675.104.9 1.268.677 3.49.222.035.364 1.192.433 3.476.16.024.23.12.205.28s-.12.23-.278.204l-.068 5.092c-.294.826-.484 1.526-.573 2l-.402 2.6c-.058.368-.182.68-.37.937.1.316.14.563.11.74-1.48 5.76-2.402 8.61-2.77 8.553l-.02 1.713-.663 4.276c-.055.353-.186.655-.39.91a1.91 1.91 0 0 1 .095.985l-.038.242c-.047.31-.232.438-.556.388.024-.16-.045-.255-.205-.28l-.038.242.376.78-.074.485-2.128 7.457-1.483 1.7c-.527-.082-1.043.08-1.54.482-.025.163.042.255.204.28l-.6 2.343-.085.467z"/><path d="M255.007 152.705l-4.687-1.224-.5.17c-1.863-.784-3.18-1.72-3.942-2.8-1.797-2.01-2.628-3.432-2.497-4.27.02-.146-.04-.81-.188-1.992l.034-.22.317-.447c-.206-.03-.578-.735-1.117-2.113l.11-.706c.024-.16.65-.554 1.875-1.177l-.06-1.228c3.096-1.626 5.158-2.36 6.188-2.2l-.037.243c-.1.632-.854 1.808-2.265 3.53l-.036.242c.337.053 1.176.424 2.514 1.11l4.104.163-.038.242c1.083.003 2.15-.08 3.2-.248l1.615.498c2.35-.012 5.42-.994 9.215-2.95 1.094-.657 2.237-1.773 3.43-3.35.924-.714 1.443-1.445 1.56-2.195l-13.686-5.778c-.05.323-.235.46-.56.41-5.362-2.2-8.405-3.966-9.133-5.298-.677-.104-1.742-1.083-3.2-2.935-.405-.107-1.112-1.27-2.122-3.49-.382-.06-.692-.67-.935-1.837-.632-.1-.824-.94-.578-2.526.41-2.646 1.554-4.822 3.43-6.533 1.205-1.468 2.52-2.64 3.953-3.517.865-.634 1.465-1.346 1.8-2.137 2.694-1.372 4.255-2.025 4.683-1.96 3.515.922 6.022 1.958 7.53 3.108 3.343 2.505 4.883 4.61 4.618 6.313l-.294 1.896-.485-.075-.036.242.167.522-1.225.036c-.516-.08-1.6-.896-3.255-2.445-2.906.692-4.7 1.23-5.352 1.607-.248.73-1.425 1.518-3.524 2.363-.04.266-.958.936-2.75 2.012-1.18 1.293-1.8 2.085-1.837 2.38 2.953 1.917 7.955 4.152 15.008 6.706 6.336 2.606 10.123 4.82 11.36 6.638 4.394 3.104 6.49 5.287 6.296 6.55l-.484-.075c.063-.41-.682-1.332-2.233-2.762l-.483-.075-.034.22c.418 2.052 1.33 3.494 2.735 4.328-.03.207.254.98.857 2.323-.33-.006-.516.123-.557.39l-.1 2.175c-.188 1.205-1.28 2.006-3.283 2.4-.08.516-.916 1.198-2.507 2.05-.123.793-1.567 1.705-4.33 2.735-.05.3-1.225 1.098-3.527 2.365-.5.117-.77.323-.816.617l-.24-.038-.426-.313c-.18 1.146-1.856 2.02-5.034 2.627.075-.484-.05-.752-.372-.802-.626.64-1.567.983-2.822 1.028l-1.396-.465-.463-.07c-.354-.056-.684-.023-.985.095l-.447-.317c-.304.118-.633.15-.984.097l-.425-.314-.32.45z"/></g></svg>