<svg xmlns="http://www.w3.org/2000/svg" width="442" height="397" viewBox="0 0 441.045 396.605"><g fill="#fff"><path d="M45.415 179.23c-.803-.37-1.204-1.575-1.204-3.612 0-.147.082-.224.245-.224 0-.163-.08-.245-.245-.245.21-2.72.527-4.082.96-4.082v.224c-.313 2.3-.468 3.896-.468 4.817l.713 3.122zm18.02 45.654c-1.605-.208-2.408-.61-2.408-1.203h-.5l-.47.224c-.803-1.44-1.368-3.12-1.694-5.04-.79 0-1.184.317-1.184.96-.52 0-.84-4.402-.96-13.204-.327 0-.49-.32-.49-.96h-.49c-.356 0-.677.082-.96.246l-.96-.49c0 .327-.4.646-1.204.96-.313 0-.47-.156-.47-.468v-.246c1.16-.73 1.963-1.13 2.408-1.204v-.714h-.5l-3.613 1.428v-.96c.804 0 1.852-.478 3.146-1.428l.96-.736c0-.163.074-.244.224-.244 0-.76-1.115-3.718-3.346-8.878l-4.326-10.57h.468c.193 0 .76 1.44 1.695 4.326.37.254.93 1.694 1.673 4.326.37 0 .608.402.714 1.204h.245v-.96c-.64-.638-1.6-3.285-2.877-7.938-.893 0-1.776-3.36-2.654-10.08v-.246c.848-3.85 1.65-5.775 2.41-5.775.446-1.233 2.444-3.07 6-5.51l.49.223c.43-.045.832-.438 1.203-1.182.313-.163.55-.245.715-.245 0 .164.08.245.244.245 0-.432.477-.76 1.43-.98v-.224l.5.224c1.888-.788 3.888-1.347 6-1.674v.49c-.52 0-2.12.32-4.796.96V160c.313 0 .47.082.47.245l1.694-.713c.163 0 .245.073.245.224 1.265-.313 2.224-.47 2.877-.47v.246l.47-.246h.244c.163 0 .245.082.245.246l.47-.246h.244c0 .372-1.196.61-3.59.714-.64.12-.96.365-.96.736l-.735-.49c0 .328-.238.49-.714.49l-.5-.245c-1.28.445-1.918.848-1.918 1.204h-1.205l-1.672 1.427H55.5v-.468a16.41 16.41 0 0 1-2.877 2.163c-.804.848-1.204 1.487-1.204 1.918.743-.476 1.383-.714 1.918-.714l-.224-.5v-.49h.47v.736c1.278-.326 1.918-.646 1.918-.96.327-.4.5-.804.5-1.204h.245v.714c.922 0 2.52-.803 4.796-2.41l-.245-.468c.76 0 1.322-.164 1.694-.49h.22v.49h.245c0-.327.4-.646 1.204-.96h.714c.163 0 .245.082.245.245.654-.327 1.138-.49 1.45-.49.044.328.2.49.468.49 0-.49 2.163-.817 6.5-.98v-.47l1.673.246c1.77 0 3.293-.164 4.572-.49.236.164.72.245 1.45.245l-.246.47h.246l.47-.224V160c-.313 0-.47.082-.47.245-.313-.163-.56-.245-.735-.245l-.96.245c-.298-.163-.535-.245-.714-.245v.49c.476 0 .714.082.714.245l1.204-.49 4.326 1.205v.245l.49-.245c1.44.877 2.236 1.517 2.386 1.918l.49-.246c.594.804.984 1.205 1.17 1.205s.277.164.277.5h.224v-.5c1.413.477 2.217.878 2.41 1.204-.164.313-.245.55-.245.714.86.135 1.428.535 1.694 1.204.313-.163.55-.245.715-.245l.244.5h-.733c.46.773 1.183 1.414 2.163 1.92v.245l-.224.468c.76 0 1.234.4 1.43 1.205.163 0 .407.32.735.96-.18 0-.424.082-.735.245.163.313.245.55.245.714-.283.445-.52 1.413-.715 2.898-.326 0-.49-.163-.49-.5l-.47.245h-.244c0-.803-.402-1.204-1.204-1.204v2.163c-.372.804-.773 1.204-1.205 1.204v.714l-.245 1.204-1.428-.5v.245l.223.5c-.43 0-.988.723-1.672 2.164-1.28 1.427-1.918 2.224-1.918 2.386h-.246l-.245-.96c.432-.638.832-.96 1.204-.96.12 0 .52-.96 1.205-2.877-.313 0-.47-.163-.47-.5.698 0 1.34-.876 1.918-2.632l.223-1.673c-.313 0-.468-.245-.468-.735-.313.164-.55.245-.714.245 0 .163.073.245.223.245-.148.64-.223 1.197-.223 1.673h-.96l-.5-.245-2.632 4.817c-.327 0-.812.877-1.45 2.63-.848 0-1.486.723-1.918 2.164l.224.5c-.788.67-1.183 1.228-1.183 1.673h-.736l.245-.47v-.245h-.245c-1.28.967-2.156 1.45-2.633 1.45l.246.47c0 .148-1.04.87-3.123 2.164-.016.253-.735.812-2.163 1.673-1.517 1.473-3.278 2.596-5.285 3.367l-2.41 1.918v.245c0 2.022-.164 5.31-.49 9.858h-.47l.246 1.204v1.427c0 .7-.164 1.34-.49 1.918h.49c-.135 1.44-.38 2.164-.736 2.164l.245.49v2.16c0 .356-.082.678-.245.96.163.282.245.604.245.96-.417 3.212-.974 4.816-1.673 4.816M47.58 175.15c0-.803.155-1.44.468-1.918l-.223-1.45.47-.245c0-.164-.083-.246-.246-.246l.246-1.183v-.49c-.224 0-.462.4-.714 1.203h-.245c0 .357.08.678.245.96-.328.743-.49 1.465-.49 2.162l.246 1.205h.245zm8.876 20.184c.327 0 .5-.245.5-.735l.715-19.694h-.246c-1.368.79-2.408 2.788-3.122 6v.736c-.79 0-1.183.155-1.183.468 0 .67.156 1.473.47 2.41h-.245l-.468-.245c.638 2.722 1.434 5.204 2.386 7.45 0 .49.402 1.695 1.204 3.612m10.572-.245l1.695-.96-.245-.5v-.245c1.44-.074 2.163-.47 2.163-1.184l.47.225h.5c0-.225.56-1.02 1.673-2.388h-.468v.47l-.49-.245h-.245c0 .4-.64.886-1.918 1.45v-.715c.28 0 1.084-.482 2.408-1.45l.5.245c0-.653.64-1.294 1.918-1.918l8.877-7.694c0-.252.564-.735 1.695-1.45 0-.313.794-1.673 2.386-4.08.804-2.155 1.204-4.156 1.204-6v-.714c-.848-.653-3.33-1.294-7.448-1.918l-.47.224c-.55 0-2.23-.074-5.04-.224-4.163.135-8.17 1.012-12.02 2.632 0 .104-.4.424-1.204.96.37 2.557.77 3.836 1.204 3.836l-.245 1.204v1.918c.06.326.224.5.5.5.313 0 .47-.32.47-.96.5 0 1.056 2.886 1.695 8.653.313.045.468.2.468.47v2.408l-.245 1.45c0 .148.08.224.245.224l-.245 1.204v1.45a1.87 1.87 0 0 0 .245.959c-.164.283-.245.603-.245.96v1.205h.246zm17.062-5.776h-1.204v-.714c1.77-.5 2.654-1.13 2.654-1.918h.224c.325.045.49.2.49.47 0 .207-.72.928-2.163 2.163m2.877-2.877h-.223c.09-.967.325-1.45.714-1.45h.713v.246c0 .164-.4.564-1.204 1.204"/><path d="M113.618 218.15c-3.094 0-6.142-1.522-9.145-4.57-1.443-1.115-2.164-1.756-2.164-1.92-.282-.282-1.16-1.808-2.63-4.57l-.49.245c-.952-2.244-1.83-4.966-2.632-8.163 0-.163.08-.245.246-.245 0-.192-.402-1.79-1.205-4.795.162-.28.244-.603.244-.96 0-.73-.082-1.212-.244-1.45.476-10.407.95-15.612 1.428-15.612 2.453-6.884 4.296-10.325 5.53-10.325v-.49h.96c.163 0 .244.082.244.245a3.85 3.85 0 0 1 1.919-.49c2.468 0 4.63 1.04 6.49 3.122h.246v1.204l-1.205 1.694c.164 0 .246.075.246.224.816-.313 1.456-.468 1.918-.468l3.122.96.468-.245c2.854 1.278 4.698 1.918 5.532 1.918.67 0 2.668 1.204 6 3.612l.98.49v-.246c-.164-.28-.245-.603-.245-.96h.245c.76 1.114 1.48 1.673 2.164 1.673 2.393 3.228 3.59 5.07 3.59 5.53.804 2.32 1.285 4.4 1.45 6.245-.64 2.72-1.123 4.08-1.45 4.08v-.49h-.246c0 .416-.155 1.22-.468 2.408.163.313.245.55.245.714l-.5-.224c0 .61-1.36 3.732-4.082 9.367-1.354 2.274-2.313 3.555-2.877 3.838 0 .607-1.688 2.215-5.063 4.815-.58 2.08-2.735 3.122-6.47 3.122-1.438.192-2.16.43-2.16.713m-3.858-8.408c3.613-2.02 6.18-3.865 7.694-5.53 4.43-5.857 6.832-11.063 7.204-15.61 0-1.665-.96-3.91-2.878-6.736-1.442-1.366-2.162-2.243-2.162-2.632l-.49.246c-.03-.135-1.146-1.1-3.347-2.9l-.49.246c-.804-.477-1.36-.715-1.673-.715-.21.164-.6.245-1.204.245v-.245h-1.205c-1.19 0-2.073.64-2.653 1.918-1.204 0-2.564.723-4.08 2.163 0 .165.08.246.245.246-.164 1.22-.483 2.58-.96 4.08.326.045.5.2.5.47-.654.76-1.058 1.726-1.205 2.898.64 0 .96.4.96 1.204.164 0 .246.075.246.224 0 .804-.164 1.205-.5 1.205l.244 1.204-.244 1.45.96 1.672v.246l-.245 1.204h.49c0 2.47.804 6.468 2.41 12 .432.966.75 1.45.96 1.45l1.428-.001zm11.062-6c.253 0 .572-.563.96-1.694.313 0 .47-.318.47-.96h.49l.5.246v-1.205h-.735c0 .417-.878 1.54-2.633 3.368v.244h.47v-.49h.5v.49zm3.836-2.162c.64-2.527 1.36-3.813 2.162-3.857v-.47h-.468v-.96c.684 0 1.16-.803 1.427-2.41h.49v-.244h-.49l.49-.96c-.164-.313-.245-.55-.245-.715h-.246c0 .58-.877 2.425-2.63 5.532l.224.468v.715l-1.673 2.653v.245h.96zm26.45 5.286l-4.816-.49-.47.246c-1.962-.5-3.404-1.212-4.326-2.164-2.082-1.71-3.122-2.987-3.122-3.836 0-.146-.164-.795-.49-1.938v-.224l.246-.49c-.21 0-.686-.64-1.428-1.918v-.714c0-.163.558-.646 1.673-1.45l-.245-1.204c2.81-2.08 4.735-3.122 5.775-3.122v.245c0 .64-.564 1.918-1.694 3.836v.245c.343 0 1.228.238 2.654.714l4.08-.47v.245c1.07-.163 2.1-.408 3.122-.735l1.674.245c2.318-.37 5.202-1.813 8.652-4.326.98-.816 1.94-2.098 2.877-3.836.804-.85 1.205-1.65 1.205-2.41l-14.408-3.612c0 .326-.164.5-.5.5-5.636-1.354-8.914-2.632-9.835-3.837-.686 0-1.9-.802-3.613-2.408-.417-.045-1.294-1.085-2.632-3.122-.387 0-.788-.558-1.204-1.673-.64 0-.96-.803-.96-2.408 0-2.678.796-5.004 2.388-6.98.966-1.636 2.088-2.996 3.367-4.08.76-.76 1.24-1.555 1.45-2.388 2.454-1.77 3.896-2.653 4.326-2.653 3.613.372 6.253 1.012 7.92 1.918 3.688 1.963 5.53 3.808 5.53 5.53v1.918h-.49v.246l.246.5-1.205.223c-.52 0-1.717-.638-3.59-1.918-2.766 1.132-4.445 1.935-5.04 2.41-.134.758-1.175 1.717-3.123 2.877 0 .27-.802 1.07-2.407 2.41-.968 1.458-1.45 2.335-1.45 2.632 3.212 1.44 8.498 2.886 15.857 4.326 6.66 1.605 10.742 3.212 12.244 4.817 4.816 2.395 7.227 4.23 7.227 5.51h-.49c0-.416-.877-1.212-2.63-2.387h-.49v.224c.73 1.963 1.852 3.248 3.368 3.858 0 .208.4.93 1.204 2.163-.327.045-.49.2-.49.468l.246 2.164c0 1.22-.96 2.178-2.877 2.877 0 .52-.723 1.324-2.164 2.41 0 .803-1.286 1.926-3.857 3.367 0 .313-1.04 1.27-3.123 2.878-.477.192-.713.438-.713.735h-.246l-.468-.246c0 1.16-1.525 2.282-4.572 3.368 0-.49-.164-.735-.5-.735-.52.73-1.398 1.212-2.633 1.45l-1.448-.246h-.47c-.355 0-.677.082-.96.246l-.49-.246c-.283.164-.603.246-.96.246l-.47-.246-.247.5zm40.792 0l-4.816-.49-.47.246c-1.963-.5-3.405-1.212-4.327-2.164-2.082-1.71-3.122-2.987-3.122-3.836 0-.146-.164-.795-.49-1.938v-.224l.246-.49c-.21 0-.686-.64-1.428-1.918v-.714c0-.163.56-.646 1.673-1.45l-.245-1.204c2.81-2.08 4.735-3.122 5.776-3.122v.245c0 .64-.565 1.918-1.695 3.836v.245c.343 0 1.228.238 2.654.714l4.08-.47v.245c1.07-.163 2.1-.408 3.122-.735l1.674.245c2.318-.37 5.203-1.813 8.652-4.326.98-.816 1.94-2.098 2.877-3.836.804-.85 1.205-1.65 1.205-2.41l-14.408-3.612c0 .326-.164.5-.5.5-5.636-1.354-8.914-2.632-9.835-3.837-.686 0-1.9-.802-3.613-2.408-.417-.045-1.294-1.085-2.632-3.122-.387 0-.788-.558-1.204-1.673-.64 0-.96-.803-.96-2.408 0-2.678.796-5.004 2.388-6.98.966-1.636 2.088-2.996 3.367-4.08.76-.76 1.24-1.555 1.45-2.388 2.454-1.77 3.896-2.653 4.327-2.653 3.612.372 6.252 1.012 7.918 1.918 3.688 1.963 5.53 3.808 5.53 5.53v1.918h-.5v.246l.245.5-1.205.223c-.52 0-1.717-.638-3.59-1.918-2.766 1.132-4.445 1.935-5.04 2.41-.134.758-1.175 1.717-3.123 2.877 0 .27-.802 1.07-2.407 2.41-.968 1.458-1.45 2.335-1.45 2.632 3.212 1.44 8.498 2.886 15.857 4.326 6.66 1.605 10.742 3.212 12.244 4.817 4.816 2.395 7.227 4.23 7.227 5.51h-.49c0-.416-.877-1.212-2.63-2.387h-.49v.224c.73 1.963 1.852 3.248 3.368 3.858 0 .208.4.93 1.204 2.163-.327.045-.49.2-.49.468l.246 2.164c0 1.22-.96 2.178-2.877 2.877 0 .52-.723 1.324-2.164 2.41 0 .803-1.286 1.926-3.857 3.367 0 .313-1.04 1.27-3.123 2.878-.477.192-.713.438-.713.735h-.246l-.468-.246c0 1.16-1.525 2.282-4.572 3.368 0-.49-.164-.735-.5-.735-.52.73-1.398 1.212-2.633 1.45l-1.448-.246h-.47c-.355 0-.677.082-.96.246l-.49-.246c-.283.164-.603.246-.96.246l-.47-.246-.247.5z"/><path d="M224.486 210.455h-1.427c0-.313-.483-.633-1.45-.96-2.408-2.558-3.612-9.203-3.612-19.938-.148 0-.224-.32-.224-.96 0-.163.074-.245.224-.245l-.224-1.205v-2.163c0-.147.074-.223.224-.223-.148-.313-.224-.56-.224-.736l.224-5.754h.245c0-.164-.082-.246-.245-.246l.49-3.836c0-.163-.082-.245-.244-.245 0-.162.08-.4.244-.714l.246-9.61c0-2.617-.32-5.985-.96-10.104.698-1.278 1.42-1.918 2.163-1.918.922 0 1.48.4 1.673 1.205 1.175.267 2.216 1.07 3.122 2.407 0 .433.164.908.49 1.43l.468-.224h.246l.468 3.59h.49v-.47c.684 0 1.085 1.114 1.204 3.346.223 0 .543 1.123.96 3.367.163 0 .245.082.245.246s-.082.245-.245.245l.714 5.04c-.164.86-.246 1.583-.246 2.162v2.633c0 .372-.073.698-.223.98.147.298.223.534.223.714-.58 5.918-1.056 8.876-1.427 8.876l.244 1.694v4.327c0 .356-.08.678-.244.96.163.283.244.603.244.96v.246c0 .313-.163.47-.49.47 0-.163-.082-.245-.246-.245v.245l.49.714v.49l-.96 7.695-1.204 1.918c-.536 0-1.02.237-1.45.714 0 .164.08.245.245.245l-.245 2.41v.47z"/><path d="M256.402 229.19c.146-.298.224-.535.224-.714l-.714-.47c-.313.146-.55.224-.714.224 0-.388-.886-.862-2.653-1.428-.224-.714-.544-1.354-.96-1.918l.5-3.858c-2.156 0-5.605-5.367-10.35-16.104-1.114-1.753-1.992-3.354-2.632-4.795-.52 0-1.005-.804-1.45-2.407-.253 0-.49-.157-.713-.47l.244-.5v-.245h-.244v.5c-.21 0-.6-.64-1.205-1.918l.245-1.205h.245l.715.49h.244v-.245c-.5-1.188-1.213-2.147-2.163-2.877v.47c.4.534.722 1.257.96 2.162-.327 0-.5.32-.5.96-.224-.028-.78-.832-1.673-2.407v-.224l.714.47v-.47l-1.204-2.653v-.715h.245c0 .46.318 1.183.96 2.163h.5v-.735c-.327 0-.893-.64-1.694-1.918v.5l-.714-.5.245-.47c-.477-1.44-.878-2.162-1.204-2.162-.997-1.605-1.637-2.41-1.918-2.41 0-.163-.164-.246-.5-.246 0 .165-.073.246-.224.246l-.245-1.205v-.713c0-2.438 2.163-5.16 6.49-8.163.282 0 1.16-.246 2.633-.735.044.326.207.49.49.49v-.244l-.244-.47c.313 0 1.27-.327 2.877-.98v-.713c-1.115-.967-1.674-1.844-1.674-2.633v-.5c0-.297.722-.854 2.164-1.672h.224v.468h.49l.715-.468h1.203l-.468.713v.246h.224c.104 0 .505-.402 1.204-1.205.46 0 1.264.483 2.408 1.45.477 0 .714.238.714.715h.245c0-.804.32-1.205.96-1.205 0 .148.32.952.96 2.408l.49-.244h.468c.967 1.44 1.688 2.163 2.164 2.163 3.582 0 6.23.722 7.94 2.162 1.41 0 4.533 1.042 9.366 3.123 0 .446.558.93 1.673 1.45 0 .164.08.4.245.713l.5-.245c.18 0 1.22.886 3.122 2.654 2.453 0 4.608 1.196 6.47 3.59.742.192 1.31.596 1.694 1.204 0 .074-.082.395-.245.96.163.64.48.96.96.96v.246c-.313.28-.714 2.445-1.204 6.49-.12.044-.438 1.003-.96 2.877l.245.49c-.478.64-1.115 1.918-1.92 3.836.164 0 .246.082.246.245-.596 0-.997.722-1.205 2.162-.208 0-.61.478-1.204 1.43-.52 1.085-1.004 1.89-1.45 2.408h.5v.49c-.298.328-.78 1.286-1.45 2.877h-.245v-.488c-.64.235-.96.48-.96.734l.245 1.184c-.938 1.44-1.576 2.163-1.918 2.163l.245.49v.245c-.282.758-.85 1.315-1.694 1.673-.862 1.592-1.42 2.395-1.673 2.408l-.5-.245c-.55 1.98-1.347 3.257-2.387 3.836-3.05 1.918-4.57 3.123-4.57 3.613l-.49-.245c-1.694 1.59-2.975 2.478-3.836 2.653-.313-.164-.552-.245-.714-.245-.443.316-1.083.472-1.915.472m-4.817-14.162c0-.64.08-.96.245-.96-.164-.313-.245-.56-.245-.734 0-8.804-1.6-20.087-4.796-33.855l-.96-.246c-.208 0-1.576.804-4.104 2.41-.5 0-1.287.64-2.388 1.918-.21 0-.61.4-1.203 1.204h-.245v.96l-.246 1.427c0 .417.723 2.262 2.164 5.53l-.47.96h.246l.47-.245c0 .21.64 1.494 1.918 3.857l1.694 4.55c1.07 1.65 2.668 5.174 4.795 10.57l2.41 2.652h.716zm11.06-3.123c1.665-1.203 4.787-4.488 9.367-9.856.477 0 .714-.25.714-.746s.722-1.528 2.163-3.1c1.8-2.913 3.158-5.48 4.082-7.693-.328-.804-.49-1.36-.49-1.673h-.714v1.427c0 .238-.877.886-2.63 1.94-1.605.833-2.41 1.392-2.41 1.672h-.245c-.164 0-.245-.08-.245-.244-.148 0-.224.082-.224.244-2.3 0-4.37-.96-6.245-2.877 0-.46-.164-1.345-.49-2.653 0-2.616 1.52-4.616 4.57-6 0-1.174-2.246-2.297-6.734-3.368 0-.162-1.36-.564-4.08-1.203l-2.164.244c0-.162-.082-.244-.245-.244l-.224.49v.246c1.114 1.562 1.99 3.644 2.633 6.244h-.246c.595 1.234 1.078 3.718 1.45 7.45.432.564.75 3.367.96 8.41l-.5-.245c0 1.114-.075 1.754-.224 1.918.146.388.305 1.188.47 2.407-.164 0-.245.074-.245.224h.245l.5-.224v.224l-.5.735c.163.282.245.604.245.96h-.245c.325.654.5 1.14.5 1.45h-.245l.47.96c-.148.27-.224.588-.224.96 0 .478.236.715.714.715l-.245.5c.28-.001.526.235.734.712M277.3 201.8c1.1-.772 1.82-2.208 2.163-4.304.313 0 .706-.968 1.183-2.9-.388 0-.624-.32-.713-.96h-.246v.735c.164 0 .246.075.246.224-.654 0-1.14.565-1.45 1.694l.245.47-1.428 3.613-.5-.246v.246c.326.356.5.834.5 1.427"/><path d="M294.027 212.863c-1.19 0-2.313-.4-3.367-1.202-.313.163-.55.243-.715.243-.653-1.277-1.137-1.918-1.448-1.918v.47c-.85-.313-1.485-.952-1.918-1.92l-1.45-.96c0-.326-.56-1.05-1.673-2.163 0-.147-.164-1.106-.5-2.877 0-2.84.4-10.452 1.204-22.838v-1.183c0-.164.08-.246.245-.246 0-.163-.082-.245-.245-.245l2.163-18.98c.64 0 .96-.318.96-.96h.246c.163 0 .245.082.245.245l.468-.245h1.205c1.682.715 2.802 1.354 3.367 1.918 0 .164.163.245.5.245l-.245 2.41v.223c.252 0 .572.164.96.49-.327 1.605-.5 3.048-.5 4.327l.5.713v.246c0 .922-.082 1.48-.244 1.672.162.878.244 1.6.244 2.164v1.448c-.327.98-.565 2.98-.714 6l.224 1.204-.224 1.205.224.49-.47 1.674c.163 1.354.245 2.477.245 3.367 0 2.32-.245 4-.735 5.04l.246.47v1.204l-.49.735c.326.52.49.997.49 1.427 0 .328-.083.49-.246.49l.5 4.55h-.244l.244.49v1.45h.245c7.048-3.375 13.293-6.898 18.734-10.57h.47l.5.224v-.224c-.163 0-.245-.082-.245-.246l2.65-1.672v.224c-1.44 1.01-2.16 1.813-2.16 2.407h-.5l-.47-.244.224.5v.245c-.388 0-1.108.395-2.163 1.183-1.755.923-2.952 1.808-3.59 2.653v.245c1.174-.163 2.452-.563 3.836-1.204 0-.326.563-.73 1.694-1.204 2.543-1.457 4.94-3.22 7.202-5.285h.226c-.58 1.278-1.06 1.918-1.428 1.918l.243.5v.96c-.28.713-.93 1.436-1.938 2.163 0 .4-.396.64-1.184.714v1.45h.714c-.237.64-.878 1.28-1.918 1.92 0 .477-1.44 1.836-4.326 4.08-.5 0-1.213.64-2.163 1.918-.566.58-1.45 1.146-2.654 1.693 0 .356-.32.832-.96 1.43 0 .445-1.918 1.167-5.754 2.164-1.397.803-2.84 1.204-4.326 1.204m-7.204-31.96l.245-1.203h-.245l.245-.47v-1.672h-.49v1.427c0 .164.08.245.244.245l-.244.47v1.203h.244zM339.97 216.7l-7.448-2.633c-.313.163-.56.245-.736.245-3.02-2.007-5.574-4.975-7.672-8.897 0-.416-.482-.975-1.45-1.673-.192 0-.513-.564-.96-1.695-.697 0-1.182-.64-1.448-1.918 0-.535-.074-.938-.225-1.204 1.115-4.133 1.673-7.018 1.673-8.653-.967 0-2.73-1.6-5.284-4.795V182.6c0-.356-.08-.677-.245-.96.49-1.323 1.13-2.685 1.918-4.08 0-.4 1.368-1.286 4.104-2.655 4-.73 6-1.604 6-2.63.238 0 .96-1.123 2.164-3.368 1.813-2.244 3.256-3.367 4.326-3.367h1.182c.402.328.73.5.982.5v.47c0 .164-.082.246-.246.246l.246.468c-.687.58-1.487 1.784-2.41 3.613.163 0 .245.082.245.244.164 0 2.32-.4 6.468-1.203l-.223-.49v-.224c.535 0 .937-.08 1.204-.244.298.163.535.244.714.244 0-.608 4.803-1.412 14.407-2.407 1.1 0 2.06-.082 2.877-.246 1.294.224 1.94.46 1.94.714l.468-.224h.96v.715c-.4 0-1.04.082-1.92.244l-.49-.244c-8.713 1.114-15.358 2.313-19.938 3.6 0 .21-.318.372-.96.49v-.49c-.58 0-1.54.4-2.877 1.205-.433.327-1.473.57-3.122.735v.47c.4 0 1.122-.156 2.163-.47v.224c.313-.147.55-.224.714-.224.313.148.56.224.736.224l-.245-.47h.713v.47h.246v-.47c.163 0 .245.082.245.246 1.647-.5 2.77-.893 3.367-1.205v.715a.41.41 0 0 0 .469-.469c-.164 0-.245-.08-.245-.246l1.204-.244h.245c.313.045.47.21.47.5h-.96v.224c.803 0 1.204-.074 1.204-.224v-.735h.5c.387.327.705.49.96.49l2.163-.735v.246l.47-.246.735.49c0-.163.072-.245.224-.245 0 .164.08.245.245.245.06-.326.223-.49.5-.49h.243v.49h.226v-.715h.733v.224h-.49l.246.49c.2-.12 1.313-.282 3.365-.49v.246c.313-.313 1.754-.55 4.327-.714 0 .595-1.123 1.234-3.368 1.918v.5c.805 0 1.205.156 1.205.47-1.024 0-2.313.565-3.856 1.694-.7 0-1.576.395-2.632 1.183-3.523.803-5.286 1.524-5.286 2.164-5.754 1.293-10.236 3.055-13.448 5.284.146.894.223 1.54.223 1.94-1.113.254-1.673.647-1.673 1.183l-1.204-.47c0 .714-.082 1.2-.245 1.428h.5v-.714h.714l-.468 4.327h5.508c3.672-.608 10.08-3.813 19.228-9.613 2.93-2.243 4.77-3.366 5.53-3.366h.47c0 .326.163.49.49.49v.47l-1.448.244c.16.313.243.56.243.736-.37 1.3-1.73 2.587-4.08 3.836-.163.282-.244.603-.244.96h-.245l-.47-.245c0 .224-.482.47-1.448.735 0 .372-.56.767-1.673 1.183 0 .21-.565.527-1.694.96l-.47-.224v.224c.163 0 .246.082.246.245-.598.52-2.282 1.16-5.063 1.918l.245.5-.714.96v.244l1.204.246h.245c.832-.61 2.513-1.413 5.04-2.41.324-.52 1.604-1.004 3.836-1.45.18-.432 1.063-.987 2.652-1.673v.47c-.803.772-1.287 1.494-1.45 2.163-1.813 1.13-3.256 2.253-4.325 3.368v.244h.246c.785 0 1.908-.557 3.365-1.672h.714c-.072.313-1.353 1.27-3.836 2.877v.245c.313.045.47.2.47.468-1.103.417-2.062 1.22-2.877 2.41-.237 0-2.237.96-6 2.877-2.245.64-3.367 1.44-3.367 2.41l-5.53 1.673v-.246l-3.368 1.205h-.468c.743 1.44 1.784 2.163 3.122 2.163h3.122c5.5-.64 10.542-2.08 15.122-4.327 2.542-1.218 5.188-3.3 7.938-6.245 2.56-3.195 3.917-5.516 4.08-6.958V188.6h.49c0 .268.475.67 1.427 1.203.27.968.505 1.45.714 1.45-.118 1.754-.273 2.63-.468 2.63l.245.49v.224c-.685 1.354-1.725 2.558-3.122 3.612-.818 1.37-2.424 2.73-4.816 4.082v.5h-.245l-.47-.245c0 .27-.235.67-.713 1.204.148 0 .225.073.225.223-1.132.64-1.853.96-2.163.96v.736c.18 0 .424.082.733.244 0-.52 1.52-1.485 4.552-2.898 0-.313.885-1.106 2.652-2.386 0-.313.804-1.354 2.41-3.124l.468-1.204h.49v.224c0 .862-.32 1.666-.96 2.408a2.02 2.02 0 0 0 .223.959c-1.44 2.84-2.558 4.684-3.345 5.53.313 0 .468.082.468.245l1.204-.736h.246v.49c-.477 0-2 1.204-4.573 3.61v.225l.49-.225c.313.045.47.2.47.47-1.294.27-2.417 1.07-3.367 2.407-2.886 1.115-5.604 1.992-8.16 2.634-.687 1.294-3.005 1.938-6.96 1.938-.005.15-.644.226-1.924.226m14.41-45.877h-.245c-.878-.163-1.52-.245-1.918-.245.044-.313.2-.47.47-.47h.245c.163 0 .245.075.245.224 1.53-.787 2.57-1.183 3.122-1.183v.224l.49-.224h1.184c0 .52-.878.915-2.632 1.183l-.5-.224h-.714v.224l.245.49z"/></g></svg>