<svg xmlns="http://www.w3.org/2000/svg" width="442" height="397" viewBox="0 0 441.045 396.605"><g fill="#fff"><path d="M293.344 288.474l-.616-.112c-2.07-.38-3.426-.934-4.063-1.668l-1.26.09c-.317-.06-.842-.567-1.57-1.53l-.667.168c-1.34-.572-2.43-2.017-3.26-4.325l-.673.193-.587-.105c-3.584-4.24-5.27-6.938-5.06-8.098-2.127-7.678-2.363-16.03-.716-25.063-.148-.026.073-2.994.67-9l.3.058c-.226-1.103-.3-1.84-.23-2.213.37-1.186.688-1.754.947-1.705l-.225-9.065c.373.068.846-.78 1.42-2.547.8.146 1.24.016 1.314-.396l.058-.31.308.058.783.778c.43.077 1.136-.42 2.123-1.492.225.04.55-.005.98-.14l-.1.616 1.566-.032c-.113.615-.076.94.1.975.315-.15.84-.163 1.565-.03-.085.466.468.876 1.656 1.227l-.057.3-.415.53c.41.074.578.317.503.73l.28.05c.204.038 1.054-.02 2.547-.17l.896.164-.39 2.127-.78.783.813.784-1.746 4.337c-.001.426.167.667.503.73l-1.243 5.066-.056.308-.24 3.052-.31-.057.194.672-.057.3c-.6 3.23-1.354 9.104-2.294 17.63l-.3-.058c.12.505.235 2.193.35 5.066l-.584 1.456c.27.725.358 1.355.26 1.896l-.393.564c.987.18 1.3 1.277.932 3.294.336.062.637.733.904 2.017.987.18 3.836-1.787 8.54-5.902 2.903-3.346 6.293-9.378 10.162-18.103l.77-4.226.075-2.155.308.057-.2-.645c.087-.466.265-.857.533-1.175l1.69-14.327a9.26 9.26 0 0 1 3.154-1.911l.16-.896.59.105-.107.588.895.163c1.28-1.212 2.315-1.746 3.102-1.604l.2.645.667-.168.588.107-.164.896.308.06 1.568-.03 1.6 1.535-.168.924 1.203.22.113-.615c.354.277.633.436.84.473.43-.135.746-.183.952-.146 1.18 1.566 1.595 3.3 1.248 5.203-.206-.038-.327.047-.364.252.378.146.536.388.475.724-.683.356-1.106 1.004-1.276 1.937l-.31-.057-.255-1.927c-.425-.001-.667.167-.73.503l-.77 4.228c-.348 1.9-.874 4.198-1.576 6.885l.037 1.54c-2.733 7.907-4.932 13.118-6.586 15.63-.206-.036-.326.048-.364.252l-.494 2.716-.238 3.052c-.803-.146-1.354.593-1.648 2.216l-.308-.058c-.12.653-.122 2.938-.008 6.854l-.31-.057.2.645-.276 1.512c-.08.447-.258.83-.525 1.147.134.43.182.747.145.952-.445-.082-.77-1.173-.965-3.27l-.28-.05c-.03.188-.15.26-.356.224.004 2.198.12 4.408.35 6.63-.274.354-.434.636-.47.84-.318-.06-.633-2.295-.944-6.71l-.308-.058-.415.532-.057.308.613.112-.332 1.82.59.106a.27.27 0 0 1-.362.251l.198.646-.16.896-.537-.388c-.034.188-.154.262-.36.224-.396-1.307-.704-3.646-.916-7.02l-.587-.106c-.28-.052-.848.78-1.7 2.494-.392-.07-1.602.855-3.63 2.78l.2.645c-.665.572-2.187.922-4.56 1.047-1.6.9-2.455 1.564-2.537 2.012m16.888 8.088l-.896-.164c.063-1.51.022-2.454-.12-2.827.268-.298.463-.782.585-1.454l.613.11-.22 1.204-.415.53c.354.277.633.435.84.473l-.056.31-.75.788c.378.146.537.388.475.724l-.054.306z"/><path d="M332.228 299.017l-5.933-1.72-.646.2c-2.35-1.065-3.995-2.303-4.934-3.707-2.224-2.622-3.234-4.466-3.04-5.53.034-.186-.022-1.034-.17-2.547l.05-.28.42-.56c-.262-.047-.712-.958-1.353-2.733l.163-.896c.037-.204.85-.685 2.433-1.437l-.032-1.566c4.005-1.97 6.66-2.833 7.966-2.597l-.057.3c-.146.803-1.15 2.276-3.006 4.426l-.06.31c.43.078 1.484.58 3.167 1.504l5.23.35-.058.31a25.25 25.25 0 0 0 4.088-.208l2.044.7c2.994.064 6.944-1.083 11.85-3.446 1.42-.8 2.916-2.186 4.5-4.154 1.202-.88 1.89-1.795 2.063-2.747l-17.252-7.836c-.076.41-.317.578-.73.503-6.764-2.987-10.583-5.345-11.464-7.066-.858-.157-2.188-1.44-3.982-3.853-.513-.15-1.375-1.656-2.587-4.52-.484-.088-.86-.88-1.128-2.375-.802-.146-1.02-1.23-.65-3.242.613-3.358 2.146-6.097 4.595-8.214 1.59-1.83 3.3-3.28 5.162-4.352 1.125-.776 1.913-1.665 2.366-2.662 3.484-1.657 5.497-2.438 6.038-2.34 4.448 1.295 7.614 2.703 9.496 4.224 4.178 3.31 6.07 6.045 5.675 8.21l-.438 2.405-.616-.11-.058.31.195.672-1.563.004c-.654-.117-2.01-1.193-4.066-3.23-3.73.785-6.023 1.407-6.877 1.868-.343.92-1.868 1.886-4.578 2.896-.063.335-1.253 1.158-3.575 2.47-1.548 1.607-2.354 2.6-2.423 2.972 3.7 2.546 10.003 5.566 18.908 9.063 7.99 3.542 12.745 6.493 14.263 8.854 5.497 4.107 8.1 6.965 7.808 8.568l-.616-.11c.096-.52-.823-1.723-2.756-3.6l-.615-.1-.05.278c.463 2.63 1.578 4.5 3.342 5.613-.048.262.3 1.26 1.016 3-.42-.02-.662.14-.724.477l-.188 2.77c-.277 1.53-1.7 2.515-4.27 2.95-.118.652-1.21 1.496-3.268 2.525-.185 1.008-2.057 2.122-5.613 3.343-.07.393-1.6 1.356-4.578 2.896-.644.134-.995.387-1.063.76l-.31-.057-.53-.415c-.266 1.455-2.437 2.516-6.5 3.18.112-.615-.036-.96-.446-1.036-.82.795-2.032 1.2-3.635 1.217l-1.764-.64-.588-.105c-.448-.082-.87-.054-1.262.088l-.56-.42c-.395.142-.813.17-1.26.088l-.532-.416-.414.55zm46.89-22.808l-.9-.892-.77.23c.092-.514-.308-.938-1.194-1.272-.534-2.324-.728-3.904-.576-4.738l.354.063c-.48-1.257-.557-2.814-.225-4.677l.5-2.792c.76-4.234 3.938-15.434 9.55-33.6l.706.126.184-1.026c.287-1.604.065-4.38-.663-8.33.14-.77.123-1.37-.043-1.796.716-1.284 2.1-1.742 4.188-1.37l-.247 1.38 1.73.3c-.313.39-.5.707-.536.965l1.38.247.77-.23c-.123.687.158 1.088.843 1.2l1.916-.716.354.063-.48.644c3.422.744 4.98 1.973 4.675 3.685l.706.126-.368 2.054c.808 2.153 1.137 3.646.985 4.48l-1.05 5.87c-2.256 4.587-3.608 8.15-4.063 10.698-.792-.144-2.24 1.973-4.348 6.342-1.515 4.52-3.17 7.79-4.965 9.808-.1.56-.726 1.396-1.873 2.514-1.137 2.4-1.81 4.19-2.02 5.368l-.645-.48-.354-.063c-.64.35-1.14.49-1.5.428-.662 3.694-1.336 5.483-2.02 5.36m.953 36.528l-1.025-.184-1.014-2.3-2.687.942-.32-.058c-1.403-2.15-2.513-3.297-3.324-3.442-1.473-1.765-2.058-4.484-1.753-8.16-.215-.037-.258-.41-.132-1.115l.677-3.786c1.284.23 2.675-.945 4.175-3.525l6.872 1.562c-.084.472.87 1.128 2.86 1.97-.142.792.234 2.636 1.13 5.532l-.48.644c.152.49.21.854.17 1.1-.73.113-1.192.747-1.4 1.902l.674.12-.858 4.813c-2.276 2.086-3.462 3.42-3.566 3.997"/></g></svg>