<svg xmlns="http://www.w3.org/2000/svg" width="442" height="397" viewBox="0 0 441.045 396.605"><g fill="#fff"><path d="M101.337 275.256l-.233.003c-1.28-.863-2.828-1.688-4.646-2.475-.877-1.652-1.423-2.484-1.638-2.495l-.47.006.007.47-.448.006c-1.318-1.66-2.278-4.644-2.88-8.945l-2.035-14.2.2-.922c-.3-.776-.466-1.315-.47-1.615-.001-.128.067-.74.21-1.84-.026-1.892-.9-3.872-2.624-5.94-.008-.482-1.037-2.847-3.1-7.086-.328-1.233-.496-2-.502-2.3l-.013-.918c.944-.625 1.63-.94 2.06-.946l-.197 1.155.677-.48.683-.01-.23.474c.06.3.22.445.477.44l.233-.004.678-.457.234-.004c.004.3.084.446.24.443.455-.006.68-.235.673-.7l1.152-.02c.616.307.928.687.935 1.142l.677-.48c.498.035 1.438 1.48 2.814 4.336.397-.005.87.602 1.413 1.815.94 1.183 1.896 3.702 2.86 7.56.174 1.25.34 2.01.502 2.277l-.212 1.626c.394 3.666.726 5.496.995 5.492l.022 1.622c.012.84-.052 1.916-.188 3.228l.24.444-.23.473c.16.27.243.573.247.915l-.233.003c.324.836.664 2.745 1.02 5.73l.213-.004c1.285-1.727 2.402-4.194 3.354-7.41 1.576-3.296 2.757-6.302 3.544-9.018l-.24-.443a52.68 52.68 0 0 0 2.423-8.316l.447-.006-.23-1.15c.44-1.072.717-3.146.83-6.223-.19-2.347-.448-4.03-.775-5.05l-.03-2.282c.598-.936 1.133-1.404 1.602-1.41l.452.23c.242-.004.854-.475 1.837-1.413.215-.004.444.223.693.675l.013.938-.22 1.134 1.155.22c.4-.617.77-.93 1.14-.936.155-.002.23-.152.23-.452l.447-.006c.008.456.166.682.48.677l.042 2.987c.012.77.243 1.15.7 1.144l.022 1.602c.002.157-.076.236-.23.238.32.493.48.876.485 1.146l.445-.24 2.98 14.452c.002.144-.076.215-.232.217.496 2.9.823 4.364.98 4.362l.233-.004-.23.474.03 2.283c.46.378.692.683.696.907l.234-.003c-.02-1.408.354-2.253 1.117-2.534l-.24-.467c.882-3.044 2.263-8.577 4.143-16.604l.233-.003.007.447c.005.27-.146.735-.45 1.396.16.297.24.52.243.68l-.228.474.24.443c-.152.302-.228.537-.226.708l.474.207.447-.006c-.01-.61.144-.92.457-.926l.214-.003-.22-.444c-.01-.77.134-1.154.433-1.16l-.24-.466.457-.924c-.16-.298-.242-.522-.244-.682.155-.002.458-.313.904-.932l-.24-.466c.336-2.452.702-3.683 1.1-3.688l-.01-.684-.232-1.386c.128-.926.27-1.392.428-1.394.302.152.528.228.688.226l-.22-.444.918-.014c.008.584-.56 3.808-1.7 9.674l-.234.003c.003.156.08.233.237.23l-.218 1.155.01.684.448-.006c.155-.003.386-.313.7-.93l-.24-.466c.44-1.073.657-1.837.65-2.293l.234-.004.45.208c.247-1.684.55-2.526.904-2.532l-.24-.466c.3-.616.654-2.073 1.092-4.37l.45.23c-.002-.13.07-.592.216-1.393l.47-.006.23 1.148-.447.006.034 2.52-.218 1.156.47-.008c-.005-.354.366-.745 1.115-1.168l.003.233-1.66 12.447.47-.008.22-.92.215-.003.003.214c.01.612-.56 3.688-1.706 9.225l.036 2.54c-1.162 4.43-2.788 8.742-4.877 12.94.013.927-.428 2.007-1.32 3.243-1.233.302-1.848.694-1.84 1.178l-.447.008-.712-.46-.447.006.006.47.45-.006.003.213-.684.01c-.004-.3-.314-.603-.932-.904l-.003-.234-.447.006.006.47-.234.003c-.73-.474-1.283-1.155-1.65-2.047l-.444.24-.684.01c-.257-.097-.895-1.313-1.907-3.646-1.85-.97-2.785-2.188-2.807-3.652-.598.01-1.563-3.43-2.898-10.313l-.47.006c-.15 1.384-.447 2.077-.888 2.084l.006.47c-.425 2.154-1.302 5.078-2.63 8.77l-.446 1.63.473.207c.027 1.98-1.312 4.914-4.018 8.8l.24.444c-.438 1.16-.97 1.855-1.594 2.094.01.567-.82 1.27-2.488 2.105l-.684.01.007.234zm4.812-17.55c-.008-.583.43-1.893 1.312-3.926l-.003-.233c-.16-.28-.242-.5-.245-.68.913-.853 1.366-1.55 1.357-2.09l-.25-1.147c-.44.006-1.178 1.78-2.21 5.325-.156.002-.232.08-.23.237l.24.443-.686 1.397.01.684.704-.008zm2.907-5.784c.824-.012 1.34-1.32 1.546-3.93.506-.42.944-2.033 1.318-4.844.3-.004.442-.392.433-1.158-.023-1.692-.265-2.537-.72-2.53l.008.47-.235.004-.01-.684.23-.475-.234.003c.002.157-.075.236-.23.238-.002-.156-.075-.233-.217-.23l.22.468.003.213-.45.008.005.234.25 1.147-.474-.23c-.438 1.188-.88 2.803-1.318 4.844-.344.93-.643 1.396-.9 1.4l.01.684.47-.008-.007-.447.45-.007c.003.23.24.53.717.908.006.455-.143 1.067-.443 1.842.155-.003.235.075.237.23-.456.008-.68.158-.676.458l.015 1.39zm2.32-14.058l-.01-.683-.448.007.182-2.31-.008-.47-.213.003c-.138 1.34-.357 2.417-.658 3.232l1.155.22zm8.132-10.703l-.47.008-.025-1.836-.214.004-.222.92-.47.007-.003-.214c.06-1.992.2-2.99.43-2.994.07-.001.375-.083.913-.248l.063 4.352zm12.182 16.16l.223-.92c-.117-1.223-.282-1.832-.496-1.83l.23-.473-.003-.214c-.005-.313-.164-.467-.478-.463l.004.233c.17 1.053.262 1.89.27 2.517l-.23.474c.16.296.242.522.244.68l.235-.004zm.877-19.545l-.234.003-.003-.232c.32-1.542.77-2.316 1.354-2.324l-.24-.445c.667-3.14 1.473-5.527 2.417-7.164l.47-.007.003.234c-.894 2.273-1.335 3.73-1.326 4.374l-.45-.23.003.234.242.467c-.304.772-.45 1.3-.447 1.607l-.474-.23.24.467c-.105.613-.25.922-.436.925.002.156.074.232.217.23l-.423 1.842-.473-.23c.005.313-.142.472-.44.476m12.64 48.558l-1.366.02c-.004-.3-.47-.6-1.4-.897-2.34-2.414-3.582-8.76-3.728-19.032-.144.002-.218-.302-.227-.915-.003-.154.067-.233.21-.235l-.23-1.15-.03-2.07c-.002-.142.067-.215.2-.217-.146-.296-.22-.53-.223-.7l.136-5.51.233-.004c-.002-.156-.08-.232-.237-.23l.418-3.68c-.002-.155-.082-.23-.238-.23-.002-.156.072-.387.226-.688l.104-9.202c-.034-2.504-.387-5.722-1.054-9.653.65-1.232 1.332-1.854 2.044-1.865.882-.012 1.42.364 1.616 1.13 1.128.24 2.136.994 3.02 2.263.007.413.168.866.49 1.36l.444-.22.234-.003.496 3.43.47-.007-.006-.447c.652-.01 1.053 1.053 1.196 3.186.214-.004.534 1.067.963 3.2.157-.002.236.075.24.23s-.076.235-.23.237l.75 4.813c-.146.828-.214 1.52-.205 2.073l.035 2.52c.005.355-.063.67-.2.94.146.282.222.51.224.68-.476 5.672-.892 8.51-1.246 8.516l.258 1.618.06 4.142c.005.342-.068.647-.223.92.16.27.243.572.248.915l.003.233c.005.3-.15.45-.463.455-.002-.156-.082-.233-.237-.23l.003.233.48.677.007.47-.813 7.377-1.127 1.853c-.512.008-.97.24-1.377.702.002.156.08.233.237.23l-.2 2.3.004.436zm34.936-6.705l-.214.003c-.313.004-.472-.145-.477-.44l-.467.24-1.365.02c-1.835.025-2.76-.424-2.772-1.35a.41.41 0 0 1-.477-.463l-.01-.685.473.23.684-.01c1.677-.123 2.507-.902 2.485-2.34l-.132-9.412-.3-5.975c.14-.27.205-.586.2-.94-.15-.566-.23-1.29-.244-2.174-.003-.23.066-.345.208-.347-.002-.155-.074-.23-.216-.23l.197-1.155-.007-.448c-.028-1.99-.27-2.983-.727-2.98-3.165 1.64-5.296 2.894-6.393 3.763-4.57 2.84-7.22 5.4-7.94 7.712-1.094 1.083-2.312 1.634-3.647 1.652l-.45-.23c-1.234.358-1.846.91-1.834 1.647.025 1.88.894 3.396 2.604 4.554l.47 1.596-.676.48-.45.007c-2.595-1.387-3.99-2.363-4.183-2.93-2.638-2.324-4.21-4.906-4.72-7.747-.06-4.227 3.403-8.878 10.393-13.958 3.85-2.544 7.8-4.82 11.857-6.827 2.742-1.306 4.11-2.094 4.107-2.363l-.003-.214-.48-.697c.15-.3.23-.528.226-.688-.313.006-.473-.22-.48-.676.12-.527.575-.997 1.367-1.407l.47-.007c.753-.01 1.448.363 2.086 1.124l.444-.24.684-.01c.006.428.63.726 1.87.893.254-.16.56-.243.914-.248l-.7.928.003.234 2.976-.96c.3.152.536.23.708.226-.006-.342 1.52-.747 4.57-1.218 1.985-.44 2.978-.84 2.973-1.194.17-.002.398.072.687.226.342-.004 1.568-.248 3.683-.734l-.24-.466-.004-.234.473.23.445-.24 1.155.22.23-.452 1.156.196.918-.012-.008-.45.45-.006.006.447.47-.006c1.294-.02 2.9-.2 4.816-.52l.474.23 1.127-.25.705-.01.003.234-.918.014.003.213c.696-.01 1.155.22 1.376.687l.466-.24.45-.007c.313.04.473.187.477.44l-.47.006c.004.27 1.7.866 5.085 1.786l.24.443-.45.007c-.34.006-1.188-.062-2.543-.198a1.8 1.8 0 0 1-.914.248l-.006-.447-1.152.016.003.214.47-.007.01.704-.47.007-2.308-.2c.004.3-.144.45-.442.454-.156.002-.235-.066-.237-.21-1.892.17-3.268.494-4.128.978l-.45-.23c-2.298.545-3.444.945-3.44 1.2l.234-.003 9.187-1.048c.005.342-.917.583-2.766.722l.242.467.003.214c-1.552.02-5.52 1.073-11.9 3.156-1.423 1.104-2.487 1.736-3.196 1.902l-.45-.23c-1.07.783-2.9 1.65-5.492 2.598l-.23.474.313 5.503.25 1.148-.234.005.24.466.003.234c.003.143-.074.215-.23.217l.24.466.003.234c-.6.08-.913.313-.908.695l.462.91c-.152 2.31-.364 3.464-.635 3.468l.24.444.063 4.375c.002.157-.075.235-.23.238l.24.444c-.306.616-.528.925-.67.927.146.298.222.53.224.702-.423 2.4-.62 4.405-.6 5.983l.007.45c-.538 1.23-1.142 1.853-1.81 1.86l.02 1.388c-.555.008-.932.547-1.13 1.616-1.25.63-2.015.947-2.3.95m-21.524-26.125c-.007-.428 2.802-2.614 8.425-6.564l.234-.004.45.23c.15-.458.304-.688.46-.688.302.138.53.206.687.203.08-.327 2.666-1.667 7.756-4.017l-.003-.234-.235-1.6c-.398.007-.937.24-1.61.706l-2.07.028-.45-.207c.007.483-.604 1.104-1.83 1.86l.004.234-.452-.23c.005.354-1.137 1.134-3.425 2.333l-3.87 2.595c-2.06 1.367-3.346 2.538-3.856 3.513-.612.01-.9.548-.896 1.613.167 0 .396.075.683.227m27.392-14.88c.227-.003 1.142-.242 2.743-.723l.003.234.91-.482.474.23c1.06-.627 1.82-.943 2.292-.95l.684-.01-.01-.705.684-.01.474.23c.038-.3.187-.45.44-.455l1.154.197.912-.462 1.39.217c-.003-.258.526-.5 1.59-.73l-.003-.215-.45-.23-.697.458c-1.02-.44-1.71-.658-2.08-.653l-.214.003.013.918c-.516-.292-.98-.436-1.393-.43l.006.447-.474-.23-.447.008c-.62.465-1.464.71-2.53.74l-.452-.23c-.608.166-1.142.25-1.597.258l.003.213.684-.01.01.704c.004.3-.15.45-.463.455-.01-.612-.32-.914-.932-.905-.152.302-.228.53-.225.687l-.448.007-.007-.447-1.152.018.004.233.25 1.148-1.156-.22-.23.45.003.234.233.002z"/><path d="M216.157 277.778l-.925-.437c-.296.146-.53.222-.7.225l-.922-.2c-.296.146-.522.22-.68.223-.006-.396-.552-.694-1.636-.895-.354-.894-.978-1.646-1.866-2.258-.936-1.64-1.657-3.928-2.168-6.865l.228-.473c-.16-.298-.24-.52-.243-.68l.234-.004c-.277-.494-.613-2.64-1.01-6.433l.234-.004c-.3-.92-1.168-8.108-2.61-21.565-.157.002-.402-1.226-.735-3.684-.002-.155.072-.386.226-.688-.022-1.593-.974-3.345-2.85-5.254-.002-.1-.4-1.17-1.197-3.207.16-.686.693-1.227 1.6-1.623l.234-.004.006.447 1.83-.475.234-.004.02 1.39.448-.006-.23.45.004.233c.313-.004.47.07.474.23l1.818-1.18.234-.003.003.234c-.152.287-.23.516-.226.687.156-.002.236.075.238.23.297-.16.522-.24.68-.243 1.338.064 2.734 1.27 4.19 3.61.014 1.01.568 2.54 1.666 4.588l1.85 16.07.235-.005c3.48-.52 6.08-.8 7.8-.813l.918-.014c1.38-.02 2.06-.867 2.034-2.55l.234-.003-.24-.466-.004-.215c.77-.01 1.473-4.624 2.1-13.84-.313.004-.472-.145-.478-.44l-.02-1.388c.824-.013 1.434-.247 1.825-.71l.47-.007.23 1.148c-.145.002-.213.075-.2.217l.45.23c-.002-.155.073-.235.23-.237l-.242-.444-.003-.234c1-.015 1.615-.484 1.815-1.412l.47-.008c.003.17.083.404.244.7l.444-.24.234-.003c.007.513.1.896.25 1.147l.444-.24c.313.037.473.19.477.463l.003.213-.47.008.003.234.704-.012.207-.45c-.146-.297-.222-.53-.224-.7l.447-.007c.937.8 1.408 1.48 1.417 2.052l.684-.01.467-.24-.24-.444c.038-.313.187-.474.44-.477 1.14-.018 1.762.2 1.867.678l.006.448c.005.313-.23.474-.696.48.634 1.585.953 2.577.96 2.977-.713 3.056-1.035 6.888-.97 11.497l.45.23c-.002-.157.073-.236.23-.238.005.313.085.47.24.467l.91-.482.003.234c.008.456-.602.77-1.82.943l.02 1.388 1.602-.02 2.98-.728c.002.145.08.214.237.21-.004-.3.604-.534 1.826-.708l.003.232c.003.2-.985.748-2.965 1.645.01.6-1.362 1.32-4.1 2.13l.006.47 1.148-.252c.156-.002.235.075.238.23.296-.16.52-.24.68-.243l.47-.008.003.234c-1.848.254-2.768.57-2.763.957.008.455-.067.685-.226.688l.24.466-.416 2.3.232 1.385c.02 1.408-.388 4.938-1.218 10.585l-.47.006-.007-.448-.213.004.042 2.987-.705.01-.928-.67c.004.257-.37.95-1.123 2.086.022 1.638-.42 2.562-1.326 2.773.007.454-.76.693-2.297.715l-.233.004c-.007-.456-.236-.68-.69-.674l-.234.004-.025-1.836c-.005-.355-.088-.66-.248-.914-.002-.157.075-.235.23-.237-.005-.313-.085-.47-.24-.468.27-5.822.54-8.737.795-8.742l-.22-.466c.283-1.058.42-1.978.408-2.76l-.024-1.836.22-1.155c-.375-.294-.684-.438-.924-.436-2.257.486-3.787.886-4.595 1.195l.02 1.388c-.396.006-.92.858-1.563 2.563l-2.006 4.618c-.297.162-.522.242-.68.245l.026 1.835c.005.37-.37 1.063-1.123 2.087.013.91-.14 1.367-.45 1.372l.242.467c-1.206 1.326-1.807 2.104-1.803 2.33l.016 1.15.24.444c-.498.018-.8.328-.89.942m-.605-9.64c.896-1 2.546-3.565 4.95-7.67-.002-.142.075-.215.23-.217l.01.685.448-.007c-.01-.642.137-1.4.438-2.313l-.234.004.003.234c-.155.002-.234-.074-.236-.23-2.506.96-3.95 1.442-4.334 1.447-1.047-.44-1.66-.658-1.847-.656l.01.685c.005.342.08.646.226.914.004.156-.067.235-.2.237.15.696.332 2.992.544 6.888m5.24-3.767c-.007-.497.512-1.572 1.556-3.225l1.12-2.32-.006-.47-.234.004c-.87.994-1.54 2.234-2.02 3.722-.1.002-.4.39-.9 1.166l.018 1.13.467-.007zm5.997-15.242c.69-2.33 1.21-3.565 1.548-3.715-.165-.607-.4-1.14-.705-1.59l.438-.69-.214.005c-.256.003-.563.54-.916 1.612l.252 1.148c-.063.613-.285.922-.67.928l.004.234.24.443-.47.01.018 1.15c.06.317.22.47.477.466m4.435 20.86c.282-1.156.423-1.85.42-2.076-.002-.157-.08-.232-.236-.23l.22-1.156-.036-2.52-.273-2.77.234-.003-.24-.444-.02-1.602c-.003-.156.073-.235.23-.238-.16-.196-.245-.735-.258-1.618-.3.063-.445.22-.44.478l.02 1.6c.014.884-.058 1.425-.212 1.625.168.824.258 1.513.265 2.067l.1 6.895.23-.008zm1.572-2.093c.37-.005.587-.776.65-2.314-.146-.296-.22-.52-.224-.68l.448-.006-.013-.918c-.006-.313-.156-.47-.455-.463l.196-1.155-.03-2.283c-.002-.156.073-.236.23-.238l-.24-.467c-.003-.156.07-.386.226-.687l-.48-2.063c.143-.002.213-.08.21-.238l-.448.01.02 1.62a1.79 1.79 0 0 1-.222.923c.002.155.08.232.237.23l-.22 1.135.007.47.26 1.598-.235.004.24.466.007.45c.005.313-.15.47-.463.476.318.494.482.954.488 1.382l.017 1.132-.206 1.62z"/></g></svg>